  0
SECTION
  2
HEADER
  9
$ACADVER
  1
AC1006
  9
$EXTMIN
 10
0.000000
 20
0.000000
 30
0.000000
  9
$EXTMAX
 10
709.000000
 20
709.000000
 30
0.000000
  0
ENDSEC
  0
SECTION
  2
ENTITIES
  0
POLYLINE
  8
0
 66
1
 70
1
  0
VERTEX
  8
0
 10
345.000000
 20
604.750111
 42
0.059000
  0
VERTEX
  8
0
 10
340.478708
 20
601.600495
 42
0.073329
  0
VERTEX
  8
0
 10
337.188548
 20
597.679058
 42
0.071644
  0
VERTEX
  8
0
 10
335.118327
 20
592.898188
 42
0.053151
  0
VERTEX
  8
0
 10
334.203370
 20
587.206904
 42
0.015225
  0
VERTEX
  8
0
 10
334.118794
 20
583.490040
 42
0.043258
  0
VERTEX
  8
0
 10
334.362218
 20
580.912464
 42
0.050367
  0
VERTEX
  8
0
 10
335.018334
 20
578.641618
 42
0.027174
  0
VERTEX
  8
0
 10
336.249889
 20
576.000000
 42
0.059000
  0
VERTEX
  8
0
 10
339.399505
 20
571.478708
 42
0.073329
  0
VERTEX
  8
0
 10
343.320942
 20
568.188548
 42
0.071644
  0
VERTEX
  8
0
 10
348.101812
 20
566.118327
 42
0.053151
  0
VERTEX
  8
0
 10
353.793096
 20
565.203370
 42
0.015225
  0
VERTEX
  8
0
 10
357.509960
 20
565.118794
 42
0.043258
  0
VERTEX
  8
0
 10
360.087536
 20
565.362218
 42
0.050367
  0
VERTEX
  8
0
 10
362.358382
 20
566.018334
 42
0.027174
  0
VERTEX
  8
0
 10
365.000000
 20
567.249889
 42
0.059000
  0
VERTEX
  8
0
 10
369.521292
 20
570.399505
 42
0.073329
  0
VERTEX
  8
0
 10
372.811452
 20
574.320942
 42
0.071644
  0
VERTEX
  8
0
 10
374.881673
 20
579.101812
 42
0.053151
  0
VERTEX
  8
0
 10
375.796630
 20
584.793096
 42
0.015225
  0
VERTEX
  8
0
 10
375.881206
 20
588.509960
 42
0.043258
  0
VERTEX
  8
0
 10
375.637782
 20
591.087536
 42
0.050367
  0
VERTEX
  8
0
 10
374.981666
 20
593.358382
 42
0.027174
  0
VERTEX
  8
0
 10
373.750111
 20
596.000000
 42
0.059000
  0
VERTEX
  8
0
 10
370.600495
 20
600.521292
 42
0.073329
  0
VERTEX
  8
0
 10
366.679058
 20
603.811452
 42
0.071644
  0
VERTEX
  8
0
 10
361.898188
 20
605.881673
 42
0.053151
  0
VERTEX
  8
0
 10
356.206904
 20
606.796630
 42
0.015225
  0
VERTEX
  8
0
 10
352.490040
 20
606.881206
 42
0.043258
  0
VERTEX
  8
0
 10
349.912464
 20
606.637782
 42
0.050367
  0
VERTEX
  8
0
 10
347.641618
 20
605.981666
 42
0.027174
  0
SEQEND
  0
POLYLINE
  8
0
 66
1
 70
1
  0
VERTEX
  8
0
 10
362.799660
 20
602.589276
 42
-0.051463
  0
VERTEX
  8
0
 10
365.216917
 20
600.990805
 42
-0.027244
  0
VERTEX
  8
0
 10
367.869498
 20
598.561116
 42
-0.027200
  0
VERTEX
  8
0
 10
370.261444
 20
595.835913
 42
-0.047882
  0
VERTEX
  8
0
 10
371.877814
 20
593.315741
 42
-0.062066
  0
VERTEX
  8
0
 10
372.310837
 20
592.131755
 42
-0.018857
  0
VERTEX
  8
0
 10
372.670358
 20
590.251605
 42
-0.018567
  0
VERTEX
  8
0
 10
372.917480
 20
588.095122
 42
-0.019244
  0
VERTEX
  8
0
 10
373.000000
 20
585.951896
 42
-0.092560
  0
VERTEX
  8
0
 10
371.685939
 20
578.914273
 42
-0.103000
  0
VERTEX
  8
0
 10
367.936285
 20
573.121361
 42
-0.103630
  0
VERTEX
  8
0
 10
362.207644
 20
569.330892
 42
-0.094785
  0
VERTEX
  8
0
 10
355.250172
 20
568.000000
 42
-0.090454
  0
VERTEX
  8
0
 10
348.028059
 20
569.317314
 42
-0.104797
  0
VERTEX
  8
0
 10
342.151712
 20
573.081093
 42
-0.105604
  0
VERTEX
  8
0
 10
338.338095
 20
578.878211
 42
-0.093129
  0
VERTEX
  8
0
 10
337.000000
 20
586.000000
 42
-0.070459
  0
VERTEX
  8
0
 10
337.732380
 20
591.171382
 42
-0.070893
  0
VERTEX
  8
0
 10
339.871576
 20
595.924306
 42
-0.071751
  0
VERTEX
  8
0
 10
343.224666
 20
599.843385
 42
-0.075139
  0
VERTEX
  8
0
 10
347.500000
 20
602.582642
 42
-0.068389
  0
VERTEX
  8
0
 10
350.942439
 20
603.584675
 42
-0.036580
  0
VERTEX
  8
0
 10
355.368399
 20
603.910845
 42
-0.036621
  0
VERTEX
  8
0
 10
359.699215
 20
603.595113
 42
-0.084058
  0
SEQEND
  0
POLYLINE
  8
0
 66
1
 70
1
  0
VERTEX
  8
0
 10
485.764045
 20
563.060020
 42
0.070346
  0
VERTEX
  8
0
 10
479.962714
 20
560.246910
 42
0.073346
  0
VERTEX
  8
0
 10
475.261589
 20
555.968205
 42
0.073099
  0
VERTEX
  8
0
 10
471.983962
 20
550.500731
 42
0.069162
  0
VERTEX
  8
0
 10
470.339290
 20
544.216958
 42
0.114747
  0
VERTEX
  8
0
 10
471.274582
 20
535.795562
 42
0.100333
  0
VERTEX
  8
0
 10
475.831677
 20
528.177624
 42
0.099220
  0
VERTEX
  8
0
 10
483.047954
 20
522.872814
 42
0.109463
  0
VERTEX
  8
0
 10
491.500000
 20
521.000000
 42
0.109463
  0
VERTEX
  8
0
 10
499.952046
 20
522.872814
 42
0.099220
  0
VERTEX
  8
0
 10
507.168323
 20
528.177624
 42
0.100333
  0
VERTEX
  8
0
 10
511.725418
 20
535.795562
 42
0.114747
  0
VERTEX
  8
0
 10
512.660710
 20
544.216958
 42
0.055020
  0
VERTEX
  8
0
 10
511.517193
 20
549.149311
 42
0.054190
  0
VERTEX
  8
0
 10
509.321848
 20
553.740605
 42
0.055746
  0
VERTEX
  8
0
 10
506.264341
 20
557.634392
 42
0.066011
  0
VERTEX
  8
0
 10
502.575874
 20
560.508403
 42
0.054553
  0
VERTEX
  8
0
 10
498.652892
 20
562.265446
 42
0.040390
  0
VERTEX
  8
0
 10
494.022976
 20
563.356158
 42
0.041323
  0
VERTEX
  8
0
 10
489.459691
 20
563.667066
 42
0.074253
  0
SEQEND
  0
POLYLINE
  8
0
 66
1
 70
1
  0
VERTEX
  8
0
 10
496.277334
 20
559.939872
 42
-0.096123
  0
VERTEX
  8
0
 10
502.024638
 20
557.074210
 42
-0.083593
  0
VERTEX
  8
0
 10
506.615890
 20
552.143916
 42
-0.084444
  0
VERTEX
  8
0
 10
509.305215
 20
546.032027
 42
-0.101272
  0
VERTEX
  8
0
 10
509.582251
 20
539.764857
 42
-0.115323
  0
VERTEX
  8
0
 10
506.355868
 20
531.855436
 42
-0.117605
  0
VERTEX
  8
0
 10
499.976017
 20
526.263044
 42
-0.118121
  0
VERTEX
  8
0
 10
491.782844
 20
524.167208
 42
-0.117060
  0
VERTEX
  8
0
 10
483.499553
 20
526.000216
 42
-0.149243
  0
VERTEX
  8
0
 10
475.800249
 20
533.131833
 42
-0.148839
  0
VERTEX
  8
0
 10
473.386445
 20
543.355720
 42
-0.147396
  0
VERTEX
  8
0
 10
477.074841
 20
553.264529
 42
-0.145852
  0
VERTEX
  8
0
 10
485.637261
 20
559.535187
 42
-0.017831
  0
VERTEX
  8
0
 10
488.786833
 20
560.532936
 42
-0.058345
  0
VERTEX
  8
0
 10
490.941992
 20
560.868744
 42
-0.058887
  0
VERTEX
  8
0
 10
493.105828
 20
560.696087
 42
-0.018406
  0
SEQEND
  0
POLYLINE
  8
0
 66
1
 70
1
  0
VERTEX
  8
0
 10
209.000000
 20
559.750111
 42
0.059000
  0
VERTEX
  8
0
 10
204.478708
 20
556.600495
 42
0.073329
  0
VERTEX
  8
0
 10
201.188548
 20
552.679058
 42
0.071644
  0
VERTEX
  8
0
 10
199.118327
 20
547.898188
 42
0.053151
  0
VERTEX
  8
0
 10
198.203370
 20
542.206904
 42
0.015225
  0
VERTEX
  8
0
 10
198.118794
 20
538.490040
 42
0.043258
  0
VERTEX
  8
0
 10
198.362218
 20
535.912464
 42
0.050367
  0
VERTEX
  8
0
 10
199.018334
 20
533.641618
 42
0.027174
  0
VERTEX
  8
0
 10
200.249889
 20
531.000000
 42
0.059000
  0
VERTEX
  8
0
 10
203.399505
 20
526.478708
 42
0.073329
  0
VERTEX
  8
0
 10
207.320942
 20
523.188548
 42
0.071644
  0
VERTEX
  8
0
 10
212.101812
 20
521.118327
 42
0.053151
  0
VERTEX
  8
0
 10
217.793096
 20
520.203370
 42
0.015225
  0
VERTEX
  8
0
 10
221.509960
 20
520.118794
 42
0.043258
  0
VERTEX
  8
0
 10
224.087536
 20
520.362218
 42
0.050367
  0
VERTEX
  8
0
 10
226.358382
 20
521.018334
 42
0.027174
  0
VERTEX
  8
0
 10
229.000000
 20
522.249889
 42
0.059000
  0
VERTEX
  8
0
 10
233.521292
 20
525.399505
 42
0.073329
  0
VERTEX
  8
0
 10
236.811452
 20
529.320942
 42
0.071644
  0
VERTEX
  8
0
 10
238.881673
 20
534.101812
 42
0.053151
  0
VERTEX
  8
0
 10
239.796630
 20
539.793096
 42
0.015225
  0
VERTEX
  8
0
 10
239.881206
 20
543.509960
 42
0.043258
  0
VERTEX
  8
0
 10
239.637782
 20
546.087536
 42
0.050367
  0
VERTEX
  8
0
 10
238.981666
 20
548.358382
 42
0.027174
  0
VERTEX
  8
0
 10
237.750111
 20
551.000000
 42
0.059000
  0
VERTEX
  8
0
 10
234.600495
 20
555.521292
 42
0.073329
  0
VERTEX
  8
0
 10
230.679058
 20
558.811452
 42
0.071644
  0
VERTEX
  8
0
 10
225.898188
 20
560.881673
 42
0.053151
  0
VERTEX
  8
0
 10
220.206904
 20
561.796630
 42
0.015225
  0
VERTEX
  8
0
 10
216.490040
 20
561.881206
 42
0.043258
  0
VERTEX
  8
0
 10
213.912464
 20
561.637782
 42
0.050367
  0
VERTEX
  8
0
 10
211.641618
 20
560.981666
 42
0.027174
  0
SEQEND
  0
POLYLINE
  8
0
 66
1
 70
1
  0
VERTEX
  8
0
 10
226.799660
 20
557.589276
 42
-0.051463
  0
VERTEX
  8
0
 10
229.216917
 20
555.990805
 42
-0.027244
  0
VERTEX
  8
0
 10
231.869498
 20
553.561116
 42
-0.027200
  0
VERTEX
  8
0
 10
234.261444
 20
550.835913
 42
-0.047882
  0
VERTEX
  8
0
 10
235.877814
 20
548.315741
 42
-0.092675
  0
VERTEX
  8
0
 10
236.760526
 20
545.355262
 42
-0.031019
  0
VERTEX
  8
0
 10
236.955130
 20
540.825185
 42
-0.031253
  0
VERTEX
  8
0
 10
236.583024
 20
536.273601
 42
-0.084543
  0
VERTEX
  8
0
 10
235.589276
 20
533.200340
 42
-0.051707
  0
VERTEX
  8
0
 10
233.789048
 20
530.480860
 42
-0.034419
  0
VERTEX
  8
0
 10
231.220016
 20
527.760961
 42
-0.034754
  0
VERTEX
  8
0
 10
228.360358
 20
525.469084
 42
-0.061302
  0
VERTEX
  8
0
 10
225.684900
 20
524.063618
 42
-0.071851
  0
VERTEX
  8
0
 10
220.760337
 20
522.973811
 42
-0.067341
  0
VERTEX
  8
0
 10
215.613928
 20
523.283710
 42
-0.067595
  0
VERTEX
  8
0
 10
210.752448
 20
524.946749
 42
-0.073418
  0
VERTEX
  8
0
 10
206.660724
 20
527.813618
 42
-0.040174
  0
VERTEX
  8
0
 10
204.005332
 20
530.764408
 42
-0.061817
  0
VERTEX
  8
0
 10
202.273930
 20
533.726413
 42
-0.061680
  0
VERTEX
  8
0
 10
201.316716
 20
537.026733
 42
-0.039793
  0
VERTEX
  8
0
 10
201.000000
 20
541.000000
 42
-0.024076
  0
VERTEX
  8
0
 10
201.103606
 20
543.150392
 42
-0.020665
  0
VERTEX
  8
0
 10
201.414400
 20
545.394620
 42
-0.021177
  0
VERTEX
  8
0
 10
201.867946
 20
547.410678
 42
-0.054503
  0
VERTEX
  8
0
 10
202.410724
 20
548.799660
 42
-0.051199
  0
VERTEX
  8
0
 10
203.952830
 20
551.134350
 42
-0.025578
  0
VERTEX
  8
0
 10
206.335219
 20
553.758281
 42
-0.025518
  0
VERTEX
  8
0
 10
209.016059
 20
556.164366
 42
-0.044091
  0
VERTEX
  8
0
 10
211.500000
 20
557.835745
 42
-0.101198
  0
VERTEX
  8
0
 10
214.364493
 20
558.729540
 42
-0.029221
  0
VERTEX
  8
0
 10
219.020163
 20
558.926674
 42
-0.029733
  0
VERTEX
  8
0
 10
223.715178
 20
558.571256
 42
-0.086822
  0
SEQEND
  0
POLYLINE
  8
0
 66
1
 70
1
  0
VERTEX
  8
0
 10
277.500000
 20
463.839317
 42
0.113532
  0
VERTEX
  8
0
 10
273.961596
 20
460.679818
 42
0.109790
  0
VERTEX
  8
0
 10
272.105453
 20
456.253981
 42
0.109179
  0
VERTEX
  8
0
 10
272.293816
 20
451.438141
 42
0.111184
  0
VERTEX
  8
0
 10
274.497052
 20
447.185873
 42
0.061484
  0
VERTEX
  8
0
 10
276.893104
 20
444.960531
 42
0.087274
  0
VERTEX
  8
0
 10
279.504148
 20
443.694240
 42
0.087430
  0
VERTEX
  8
0
 10
282.386981
 20
443.396157
 42
0.061927
  0
VERTEX
  8
0
 10
285.585049
 20
444.028069
 42
0.072426
  0
VERTEX
  8
0
 10
288.683012
 20
445.575987
 42
0.083834
  0
VERTEX
  8
0
 10
291.036387
 20
447.882064
 42
0.084067
  0
VERTEX
  8
0
 10
292.497553
 20
450.827301
 42
0.073329
  0
VERTEX
  8
0
 10
293.000000
 20
454.234859
 42
0.135344
  0
VERTEX
  8
0
 10
291.592026
 20
459.341061
 42
0.120061
  0
VERTEX
  8
0
 10
287.717719
 20
463.280350
 42
0.122311
  0
VERTEX
  8
0
 10
282.528313
 20
464.950239
 42
0.143652
  0
SEQEND
  0
POLYLINE
  8
0
 66
1
 70
1
  0
VERTEX
  8
0
 10
287.365141
 20
459.927420
 42
-0.160734
  0
VERTEX
  8
0
 10
289.832548
 20
456.206475
 42
-0.152399
  0
VERTEX
  8
0
 10
289.670211
 20
451.657638
 42
-0.151633
  0
VERTEX
  8
0
 10
286.946217
 20
447.992273
 42
-0.158996
  0
VERTEX
  8
0
 10
282.678579
 20
446.600000
 42
-0.076416
  0
VERTEX
  8
0
 10
279.477720
 20
447.092066
 42
-0.113224
  0
VERTEX
  8
0
 10
277.039067
 20
448.522744
 42
-0.117583
  0
VERTEX
  8
0
 10
275.527589
 20
450.826432
 42
-0.086860
  0
VERTEX
  8
0
 10
275.000000
 20
453.840536
 42
-0.123234
  0
VERTEX
  8
0
 10
276.106132
 20
458.260321
 42
-0.156995
  0
VERTEX
  8
0
 10
279.109408
 20
461.166017
 42
-0.157945
  0
VERTEX
  8
0
 10
283.228771
 20
461.763910
 42
-0.124982
  0
SEQEND
  0
POLYLINE
  8
0
 66
1
 70
1
  0
VERTEX
  8
0
 10
419.923077
 20
462.076923
 42
0.033740
  0
VERTEX
  8
0
 10
418.425538
 20
460.362387
 42
0.070691
  0
VERTEX
  8
0
 10
417.564050
 20
458.819869
 42
0.065954
  0
VERTEX
  8
0
 10
417.132624
 20
457.029621
 42
0.026196
  0
VERTEX
  8
0
 10
417.000000
 20
454.500000
 42
0.026196
  0
VERTEX
  8
0
 10
417.132624
 20
451.970379
 42
0.065954
  0
VERTEX
  8
0
 10
417.564050
 20
450.180131
 42
0.070691
  0
VERTEX
  8
0
 10
418.425538
 20
448.637613
 42
0.033740
  0
VERTEX
  8
0
 10
419.923077
 20
446.923077
 42
0.033740
  0
VERTEX
  8
0
 10
421.637613
 20
445.425538
 42
0.070691
  0
VERTEX
  8
0
 10
423.180131
 20
444.564050
 42
0.065954
  0
VERTEX
  8
0
 10
424.970379
 20
444.132624
 42
0.026196
  0
VERTEX
  8
0
 10
427.500000
 20
444.000000
 42
0.026196
  0
VERTEX
  8
0
 10
430.029621
 20
444.132624
 42
0.065954
  0
VERTEX
  8
0
 10
431.819869
 20
444.564050
 42
0.070691
  0
VERTEX
  8
0
 10
433.362387
 20
445.425538
 42
0.033740
  0
VERTEX
  8
0
 10
435.076923
 20
446.923077
 42
0.033740
  0
VERTEX
  8
0
 10
436.574462
 20
448.637613
 42
0.070691
  0
VERTEX
  8
0
 10
437.435950
 20
450.180131
 42
0.065954
  0
VERTEX
  8
0
 10
437.867376
 20
451.970379
 42
0.026196
  0
VERTEX
  8
0
 10
438.000000
 20
454.500000
 42
0.026196
  0
VERTEX
  8
0
 10
437.867376
 20
457.029621
 42
0.065954
  0
VERTEX
  8
0
 10
437.435950
 20
458.819869
 42
0.070691
  0
VERTEX
  8
0
 10
436.574462
 20
460.362387
 42
0.033740
  0
VERTEX
  8
0
 10
435.076923
 20
462.076923
 42
0.033740
  0
VERTEX
  8
0
 10
433.362387
 20
463.574462
 42
0.070691
  0
VERTEX
  8
0
 10
431.819869
 20
464.435950
 42
0.065954
  0
VERTEX
  8
0
 10
430.029621
 20
464.867376
 42
0.026196
  0
VERTEX
  8
0
 10
427.500000
 20
465.000000
 42
0.026196
  0
VERTEX
  8
0
 10
424.970379
 20
464.867376
 42
0.065954
  0
VERTEX
  8
0
 10
423.180131
 20
464.435950
 42
0.070691
  0
VERTEX
  8
0
 10
421.637613
 20
463.574462
 42
0.033740
  0
SEQEND
  0
POLYLINE
  8
0
 66
1
 70
1
  0
VERTEX
  8
0
 10
432.685549
 20
459.825686
 42
-0.146901
  0
VERTEX
  8
0
 10
434.912396
 20
455.980172
 42
-0.155586
  0
VERTEX
  8
0
 10
434.583997
 20
451.639907
 42
-0.154407
  0
VERTEX
  8
0
 10
431.797505
 20
448.267914
 42
-0.144440
  0
VERTEX
  8
0
 10
427.500000
 20
447.000000
 42
-0.042437
  0
VERTEX
  8
0
 10
425.913227
 20
447.134919
 42
-0.044811
  0
VERTEX
  8
0
 10
424.401786
 20
447.535714
 42
-0.047312
  0
VERTEX
  8
0
 10
423.065542
 20
448.170227
 42
-0.061959
  0
VERTEX
  8
0
 10
422.000000
 20
449.000000
 42
-0.061959
  0
VERTEX
  8
0
 10
421.170227
 20
450.065542
 42
-0.047312
  0
VERTEX
  8
0
 10
420.535714
 20
451.401786
 42
-0.044811
  0
VERTEX
  8
0
 10
420.134919
 20
452.913227
 42
-0.042437
  0
VERTEX
  8
0
 10
420.000000
 20
454.500000
 42
-0.140362
  0
VERTEX
  8
0
 10
421.214616
 20
458.741482
 42
-0.155105
  0
VERTEX
  8
0
 10
424.455753
 20
461.500587
 42
-0.153301
  0
VERTEX
  8
0
 10
428.726324
 20
461.899950
 42
-0.136641
  0
SEQEND
  0
POLYLINE
  8
0
 66
1
 70
1
  0
VERTEX
  8
0
 10
567.500000
 20
446.158857
 42
0.093990
  0
VERTEX
  8
0
 10
560.482917
 20
441.018528
 42
0.106190
  0
VERTEX
  8
0
 10
556.198380
 20
433.863417
 42
0.105737
  0
VERTEX
  8
0
 10
555.219579
 20
425.554699
 42
0.092481
  0
VERTEX
  8
0
 10
557.622909
 20
417.129195
 42
0.054875
  0
VERTEX
  8
0
 10
560.689116
 20
412.365894
 42
0.081675
  0
VERTEX
  8
0
 10
564.388369
 20
409.080441
 42
0.078955
  0
VERTEX
  8
0
 10
569.042256
 20
407.081724
 42
0.047943
  0
VERTEX
  8
0
 10
574.976209
 20
406.171186
 42
0.015147
  0
VERTEX
  8
0
 10
578.509882
 20
406.078749
 42
0.037041
  0
VERTEX
  8
0
 10
581.102458
 20
406.281867
 42
0.045172
  0
VERTEX
  8
0
 10
583.311679
 20
406.828396
 42
0.035252
  0
VERTEX
  8
0
 10
585.586725
 20
407.799061
 42
0.063708
  0
VERTEX
  8
0
 10
590.610252
 20
411.243168
 42
0.074304
  0
VERTEX
  8
0
 10
594.309046
 20
415.686364
 42
0.073993
  0
VERTEX
  8
0
 10
596.558091
 20
421.033079
 42
0.062466
  0
VERTEX
  8
0
 10
597.328170
 20
427.127747
 42
0.062709
  0
VERTEX
  8
0
 10
596.687634
 20
432.252817
 42
0.061391
  0
VERTEX
  8
0
 10
594.795714
 20
437.098703
 42
0.061228
  0
VERTEX
  8
0
 10
591.777969
 20
441.351342
 42
0.061763
  0
VERTEX
  8
0
 10
587.828152
 20
444.732421
 42
0.074538
  0
VERTEX
  8
0
 10
583.301473
 20
446.840331
 42
0.054290
  0
VERTEX
  8
0
 10
577.829682
 20
447.827717
 42
0.054296
  0
VERTEX
  8
0
 10
572.274386
 20
447.614121
 42
0.074611
  0
SEQEND
  0
POLYLINE
  8
0
 66
1
 70
1
  0
VERTEX
  8
0
 10
584.698410
 20
442.903951
 42
-0.092581
  0
VERTEX
  8
0
 10
589.376844
 20
439.453445
 42
-0.080646
  0
VERTEX
  8
0
 10
592.766138
 20
434.388612
 42
-0.080670
  0
VERTEX
  8
0
 10
594.378351
 20
428.513149
 42
-0.092726
  0
VERTEX
  8
0
 10
593.925062
 20
422.721702
 42
-0.071726
  0
VERTEX
  8
0
 10
591.411812
 20
416.879214
 42
-0.092327
  0
VERTEX
  8
0
 10
587.505473
 20
412.545497
 42
-0.092230
  0
VERTEX
  8
0
 10
582.297417
 20
409.905577
 42
-0.071423
  0
VERTEX
  8
0
 10
575.990178
 20
409.000000
 42
-0.167289
  0
VERTEX
  8
0
 10
564.848399
 20
412.835113
 42
-0.171186
  0
VERTEX
  8
0
 10
558.556208
 20
422.680042
 42
-0.168056
  0
VERTEX
  8
0
 10
559.776218
 20
434.438081
 42
-0.161928
  0
VERTEX
  8
0
 10
568.009453
 20
443.144734
 42
-0.071711
  0
VERTEX
  8
0
 10
571.739258
 20
444.502383
 42
-0.055141
  0
VERTEX
  8
0
 10
576.057978
 20
444.917146
 42
-0.053212
  0
VERTEX
  8
0
 10
580.526025
 20
444.374987
 42
-0.056000
  0
SEQEND
  0
POLYLINE
  8
0
 66
1
 70
1
  0
VERTEX
  8
0
 10
126.491423
 20
444.189738
 42
0.098103
  0
VERTEX
  8
0
 10
119.614806
 20
439.141559
 42
0.102840
  0
VERTEX
  8
0
 10
115.321228
 20
431.929902
 42
0.102483
  0
VERTEX
  8
0
 10
114.248743
 20
423.583332
 42
0.096762
  0
VERTEX
  8
0
 10
116.533109
 20
415.309400
 42
0.112826
  0
VERTEX
  8
0
 10
122.881941
 20
407.569884
 42
0.125283
  0
VERTEX
  8
0
 10
131.733092
 20
403.724760
 42
0.124211
  0
VERTEX
  8
0
 10
141.405403
 20
404.564473
 42
0.109777
  0
VERTEX
  8
0
 10
150.034344
 20
409.883850
 42
0.078123
  0
VERTEX
  8
0
 10
154.523428
 20
415.866115
 42
0.094236
  0
VERTEX
  8
0
 10
156.595735
 20
422.567464
 42
0.092796
  0
VERTEX
  8
0
 10
156.077764
 20
429.643477
 42
0.073390
  0
VERTEX
  8
0
 10
153.051286
 20
436.709978
 42
0.105754
  0
VERTEX
  8
0
 10
148.210570
 20
441.783798
 42
0.081095
  0
VERTEX
  8
0
 10
141.247170
 20
445.030993
 42
0.080067
  0
VERTEX
  8
0
 10
133.523727
 20
445.920908
 42
0.098466
  0
SEQEND
  0
POLYLINE
  8
0
 66
1
 70
1
  0
VERTEX
  8
0
 10
143.494109
 20
441.002852
 42
-0.115867
  0
VERTEX
  8
0
 10
149.794870
 20
435.891555
 42
-0.113528
  0
VERTEX
  8
0
 10
153.219430
 20
428.472689
 42
-0.113107
  0
VERTEX
  8
0
 10
153.064702
 20
420.280541
 42
-0.114335
  0
VERTEX
  8
0
 10
149.354584
 20
413.009552
 42
-0.125497
  0
VERTEX
  8
0
 10
141.931371
 20
407.692075
 42
-0.129945
  0
VERTEX
  8
0
 10
132.969501
 20
406.670751
 42
-0.128846
  0
VERTEX
  8
0
 10
124.616676
 20
410.214565
 42
-0.122329
  0
VERTEX
  8
0
 10
118.879664
 20
417.458630
 42
-0.044112
  0
VERTEX
  8
0
 10
117.592822
 20
421.117365
 42
-0.056594
  0
VERTEX
  8
0
 10
117.105898
 20
424.650105
 42
-0.057464
  0
VERTEX
  8
0
 10
117.425730
 20
428.158831
 42
-0.047555
  0
VERTEX
  8
0
 10
118.538138
 20
431.745520
 42
-0.033250
  0
VERTEX
  8
0
 10
120.181910
 20
435.044545
 42
-0.058619
  0
VERTEX
  8
0
 10
122.011867
 20
437.472666
 42
-0.059376
  0
VERTEX
  8
0
 10
124.338053
 20
439.389604
 42
-0.035053
  0
VERTEX
  8
0
 10
127.500000
 20
441.119269
 42
-0.052835
  0
VERTEX
  8
0
 10
131.471030
 20
442.456888
 42
-0.056714
  0
VERTEX
  8
0
 10
135.539539
 20
442.889887
 42
-0.056949
  0
VERTEX
  8
0
 10
139.586522
 20
442.397581
 42
-0.054056
  0
SEQEND
  0
POLYLINE
  8
0
 66
1
 70
1
  0
VERTEX
  8
0
 10
230.400000
 20
323.600000
 42
0.026415
  0
VERTEX
  8
0
 10
228.786019
 20
321.805844
 42
0.053451
  0
VERTEX
  8
0
 10
227.757171
 20
320.211123
 42
0.062973
  0
VERTEX
  8
0
 10
227.193292
 20
318.619008
 42
0.053983
  0
VERTEX
  8
0
 10
227.003738
 20
316.850000
 42
0.117704
  0
VERTEX
  8
0
 10
228.317416
 20
311.373934
 42
0.126622
  0
VERTEX
  8
0
 10
231.943721
 20
307.253331
 42
0.131020
  0
VERTEX
  8
0
 10
237.002319
 20
305.482922
 42
0.130525
  0
VERTEX
  8
0
 10
242.278863
 20
306.462088
 42
0.131201
  0
VERTEX
  8
0
 10
246.627694
 20
310.154727
 42
0.133234
  0
VERTEX
  8
0
 10
248.525288
 20
315.502148
 42
0.136424
  0
VERTEX
  8
0
 10
247.443137
 20
320.978737
 42
0.140154
  0
VERTEX
  8
0
 10
243.695530
 20
325.044085
 42
0.064542
  0
VERTEX
  8
0
 10
240.079582
 20
326.652989
 42
0.099811
  0
VERTEX
  8
0
 10
236.685775
 20
326.961906
 42
0.101392
  0
VERTEX
  8
0
 10
233.475378
 20
325.932523
 42
0.068361
  0
SEQEND
  0
POLYLINE
  8
0
 66
1
 70
1
  0
VERTEX
  8
0
 10
242.799333
 20
321.972323
 42
-0.095734
  0
VERTEX
  8
0
 10
245.097930
 20
318.818978
 42
-0.136868
  0
VERTEX
  8
0
 10
245.670075
 20
315.423891
 42
-0.133483
  0
VERTEX
  8
0
 10
244.402720
 20
312.161115
 42
-0.088950
  0
VERTEX
  8
0
 10
241.472101
 20
309.389763
 42
-0.150823
  0
VERTEX
  8
0
 10
237.849239
 20
308.345439
 42
-0.127425
  0
VERTEX
  8
0
 10
233.992880
 20
309.421947
 42
-0.123963
  0
VERTEX
  8
0
 10
231.068502
 20
312.271120
 42
-0.138821
  0
VERTEX
  8
0
 10
230.000000
 20
316.045455
 42
-0.148066
  0
VERTEX
  8
0
 10
231.258855
 20
320.203263
 42
-0.138155
  0
VERTEX
  8
0
 10
234.641066
 20
323.099999
 42
-0.141325
  0
VERTEX
  8
0
 10
238.975309
 20
323.767794
 42
-0.156793
  0
SEQEND
  0
POLYLINE
  8
0
 66
1
 70
1
  0
VERTEX
  8
0
 10
464.923077
 20
324.076923
 42
0.033740
  0
VERTEX
  8
0
 10
463.425538
 20
322.362387
 42
0.070691
  0
VERTEX
  8
0
 10
462.564050
 20
320.819869
 42
0.065954
  0
VERTEX
  8
0
 10
462.132624
 20
319.029621
 42
0.026196
  0
VERTEX
  8
0
 10
462.000000
 20
316.500000
 42
0.026196
  0
VERTEX
  8
0
 10
462.132624
 20
313.970379
 42
0.065954
  0
VERTEX
  8
0
 10
462.564050
 20
312.180131
 42
0.070691
  0
VERTEX
  8
0
 10
463.425538
 20
310.637613
 42
0.033740
  0
VERTEX
  8
0
 10
464.923077
 20
308.923077
 42
0.033740
  0
VERTEX
  8
0
 10
466.637613
 20
307.425538
 42
0.070691
  0
VERTEX
  8
0
 10
468.180131
 20
306.564050
 42
0.065954
  0
VERTEX
  8
0
 10
469.970379
 20
306.132624
 42
0.026196
  0
VERTEX
  8
0
 10
472.500000
 20
306.000000
 42
0.026196
  0
VERTEX
  8
0
 10
475.029621
 20
306.132624
 42
0.065954
  0
VERTEX
  8
0
 10
476.819869
 20
306.564050
 42
0.070691
  0
VERTEX
  8
0
 10
478.362387
 20
307.425538
 42
0.033740
  0
VERTEX
  8
0
 10
480.076923
 20
308.923077
 42
0.033740
  0
VERTEX
  8
0
 10
481.574462
 20
310.637613
 42
0.070691
  0
VERTEX
  8
0
 10
482.435950
 20
312.180131
 42
0.065954
  0
VERTEX
  8
0
 10
482.867376
 20
313.970379
 42
0.026196
  0
VERTEX
  8
0
 10
483.000000
 20
316.500000
 42
0.026196
  0
VERTEX
  8
0
 10
482.867376
 20
319.029621
 42
0.065954
  0
VERTEX
  8
0
 10
482.435950
 20
320.819869
 42
0.070691
  0
VERTEX
  8
0
 10
481.574462
 20
322.362387
 42
0.033740
  0
VERTEX
  8
0
 10
480.076923
 20
324.076923
 42
0.033740
  0
VERTEX
  8
0
 10
478.362387
 20
325.574462
 42
0.070691
  0
VERTEX
  8
0
 10
476.819869
 20
326.435950
 42
0.065954
  0
VERTEX
  8
0
 10
475.029621
 20
326.867376
 42
0.026196
  0
VERTEX
  8
0
 10
472.500000
 20
327.000000
 42
0.026196
  0
VERTEX
  8
0
 10
469.970379
 20
326.867376
 42
0.065954
  0
VERTEX
  8
0
 10
468.180131
 20
326.435950
 42
0.070691
  0
VERTEX
  8
0
 10
466.637613
 20
325.574462
 42
0.033740
  0
SEQEND
  0
POLYLINE
  8
0
 66
1
 70
1
  0
VERTEX
  8
0
 10
478.000000
 20
322.000000
 42
-0.159560
  0
VERTEX
  8
0
 10
479.928528
 20
318.193498
 42
-0.141955
  0
VERTEX
  8
0
 10
479.353617
 20
313.779992
 42
-0.139374
  0
VERTEX
  8
0
 10
476.490453
 20
310.300441
 42
-0.152494
  0
VERTEX
  8
0
 10
472.325686
 20
309.000000
 42
-0.088826
  0
VERTEX
  8
0
 10
469.352085
 20
309.532469
 42
-0.111149
  0
VERTEX
  8
0
 10
467.006990
 20
311.054746
 42
-0.109592
  0
VERTEX
  8
0
 10
465.518134
 20
313.454339
 42
-0.084454
  0
VERTEX
  8
0
 10
465.000000
 20
316.500000
 42
-0.042437
  0
VERTEX
  8
0
 10
465.134919
 20
318.086773
 42
-0.044811
  0
VERTEX
  8
0
 10
465.535714
 20
319.598214
 42
-0.047312
  0
VERTEX
  8
0
 10
466.170227
 20
320.934458
 42
-0.061959
  0
VERTEX
  8
0
 10
467.000000
 20
322.000000
 42
-0.061959
  0
VERTEX
  8
0
 10
468.065542
 20
322.829773
 42
-0.047312
  0
VERTEX
  8
0
 10
469.401786
 20
323.464286
 42
-0.044811
  0
VERTEX
  8
0
 10
470.913227
 20
323.865081
 42
-0.042437
  0
VERTEX
  8
0
 10
472.500000
 20
324.000000
 42
-0.042437
  0
VERTEX
  8
0
 10
474.086773
 20
323.865081
 42
-0.044811
  0
VERTEX
  8
0
 10
475.598214
 20
323.464286
 42
-0.047312
  0
VERTEX
  8
0
 10
476.934458
 20
322.829773
 42
-0.061959
  0
SEQEND
  0
POLYLINE
  8
0
 66
1
 70
1
  0
VERTEX
  8
0
 10
568.491423
 20
303.135018
 42
0.059033
  0
VERTEX
  8
0
 10
565.173553
 20
301.126540
 42
0.033498
  0
VERTEX
  8
0
 10
561.668022
 20
297.994143
 42
0.033603
  0
VERTEX
  8
0
 10
558.666575
 20
294.483760
 42
0.069336
  0
VERTEX
  8
0
 10
556.933013
 20
291.323810
 42
0.071312
  0
VERTEX
  8
0
 10
556.090973
 20
287.574810
 42
0.034662
  0
VERTEX
  8
0
 10
556.045440
 20
282.655742
 42
0.034651
  0
VERTEX
  8
0
 10
556.682630
 20
277.755775
 42
0.068396
  0
VERTEX
  8
0
 10
557.970978
 20
274.056888
 42
0.085801
  0
VERTEX
  8
0
 10
561.904980
 20
268.805277
 42
0.069742
  0
VERTEX
  8
0
 10
567.646543
 20
264.728584
 42
0.071559
  0
VERTEX
  8
0
 10
574.124250
 20
262.471424
 42
0.101610
  0
VERTEX
  8
0
 10
580.205856
 20
262.532886
 42
0.073992
  0
VERTEX
  8
0
 10
587.594522
 20
265.316922
 42
0.091433
  0
VERTEX
  8
0
 10
593.257416
 20
269.994717
 42
0.093812
  0
VERTEX
  8
0
 10
596.780342
 20
276.279003
 42
0.082299
  0
VERTEX
  8
0
 10
597.978038
 20
283.717881
 42
0.123781
  0
VERTEX
  8
0
 10
595.392142
 20
293.807132
 42
0.123435
  0
VERTEX
  8
0
 10
588.340469
 20
301.486138
 42
0.124932
  0
VERTEX
  8
0
 10
578.574469
 20
304.872266
 42
0.128601
  0
SEQEND
  0
POLYLINE
  8
0
 66
1
 70
1
  0
VERTEX
  8
0
 10
584.616088
 20
300.086884
 42
-0.106010
  0
VERTEX
  8
0
 10
590.364475
 20
295.829219
 42
-0.098892
  0
VERTEX
  8
0
 10
594.036476
 20
289.488485
 42
-0.098097
  0
VERTEX
  8
0
 10
595.008572
 20
282.178646
 42
-0.102452
  0
VERTEX
  8
0
 10
593.088035
 20
275.172562
 42
-0.108366
  0
VERTEX
  8
0
 10
588.283501
 20
269.323120
 42
-0.104943
  0
VERTEX
  8
0
 10
581.418592
 20
265.937688
 42
-0.105719
  0
VERTEX
  8
0
 10
573.813060
 20
265.645658
 42
-0.111543
  0
VERTEX
  8
0
 10
566.915890
 20
268.516667
 42
-0.050326
  0
VERTEX
  8
0
 10
563.444351
 20
271.544154
 42
-0.064523
  0
VERTEX
  8
0
 10
560.969038
 20
274.980927
 42
-0.066363
  0
VERTEX
  8
0
 10
559.499065
 20
278.853511
 42
-0.057626
  0
VERTEX
  8
0
 10
559.000000
 20
283.169299
 42
-0.055169
  0
VERTEX
  8
0
 10
559.633830
 20
288.896222
 42
-0.083797
  0
VERTEX
  8
0
 10
561.522758
 20
293.522342
 42
-0.085727
  0
VERTEX
  8
0
 10
564.786807
 20
297.199922
 42
-0.060439
  0
VERTEX
  8
0
 10
569.500000
 20
300.109957
 42
-0.048964
  0
VERTEX
  8
0
 10
573.287585
 20
301.426587
 42
-0.059627
  0
VERTEX
  8
0
 10
577.013899
 20
301.866785
 42
-0.059164
  0
VERTEX
  8
0
 10
580.762392
 20
301.415874
 42
-0.047127
  0
SEQEND
  0
POLYLINE
  8
0
 66
1
 70
1
  0
VERTEX
  8
0
 10
128.637261
 20
301.535187
 42
0.139832
  0
VERTEX
  8
0
 10
119.940975
 20
295.322788
 42
0.126365
  0
VERTEX
  8
0
 10
115.411562
 20
285.213530
 42
0.125939
  0
VERTEX
  8
0
 10
116.307009
 20
274.145559
 42
0.138407
  0
VERTEX
  8
0
 10
122.427115
 20
265.320690
 42
0.136918
  0
VERTEX
  8
0
 10
133.422316
 20
260.447018
 42
0.146737
  0
VERTEX
  8
0
 10
145.030138
 20
262.157560
 42
0.147201
  0
VERTEX
  8
0
 10
153.755016
 20
269.965685
 42
0.137988
  0
VERTEX
  8
0
 10
157.000000
 20
281.500000
 42
0.116690
  0
VERTEX
  8
0
 10
154.647862
 20
291.441349
 42
0.123405
  0
VERTEX
  8
0
 10
148.116272
 20
299.036911
 42
0.123508
  0
VERTEX
  8
0
 10
138.779278
 20
302.650125
 42
0.117005
  0
SEQEND
  0
POLYLINE
  8
0
 66
1
 70
1
  0
VERTEX
  8
0
 10
143.616088
 20
298.086884
 42
-0.039773
  0
VERTEX
  8
0
 10
145.401871
 20
297.097866
 42
-0.023458
  0
VERTEX
  8
0
 10
147.370224
 20
295.656098
 42
-0.023372
  0
VERTEX
  8
0
 10
149.212660
 20
294.021044
 42
-0.036673
  0
VERTEX
  8
0
 10
150.616088
 20
292.436689
 42
-0.030842
  0
VERTEX
  8
0
 10
152.189892
 20
290.085856
 42
-0.067716
  0
VERTEX
  8
0
 10
153.017146
 20
288.090661
 42
-0.052097
  0
VERTEX
  8
0
 10
153.397340
 20
285.636918
 42
-0.012406
  0
VERTEX
  8
0
 10
153.500000
 20
281.500000
 42
-0.012409
  0
VERTEX
  8
0
 10
153.397247
 20
277.360453
 42
-0.052201
  0
VERTEX
  8
0
 10
153.016531
 20
274.906897
 42
-0.067764
  0
VERTEX
  8
0
 10
152.187538
 20
272.910448
 42
-0.030688
  0
VERTEX
  8
0
 10
150.608467
 20
270.553321
 42
-0.156152
  0
VERTEX
  8
0
 10
141.465509
 20
264.171429
 42
-0.157141
  0
VERTEX
  8
0
 10
130.341837
 20
264.306543
 42
-0.157462
  0
VERTEX
  8
0
 10
121.405835
 20
270.907704
 42
-0.156816
  0
VERTEX
  8
0
 10
118.000000
 20
281.500000
 42
-0.121008
  0
VERTEX
  8
0
 10
120.179821
 20
290.375013
 42
-0.129333
  0
VERTEX
  8
0
 10
126.192474
 20
296.974140
 42
-0.129647
  0
VERTEX
  8
0
 10
134.661492
 20
299.750391
 42
-0.121897
  0
SEQEND
  0
POLYLINE
  8
0
 66
1
 70
1
  0
VERTEX
  8
0
 10
349.380646
 20
240.146671
 42
0.115276
  0
VERTEX
  8
0
 10
346.072347
 20
236.806721
 42
0.113557
  0
VERTEX
  8
0
 10
344.563578
 20
232.328287
 42
0.112060
  0
VERTEX
  8
0
 10
345.155636
 20
227.592773
 42
0.109896
  0
VERTEX
  8
0
 10
347.734235
 20
223.538492
 42
0.146893
  0
VERTEX
  8
0
 10
353.252984
 20
220.568592
 42
0.150999
  0
VERTEX
  8
0
 10
359.428677
 20
221.174112
 42
0.150248
  0
VERTEX
  8
0
 10
364.207455
 20
225.164504
 42
0.145207
  0
VERTEX
  8
0
 10
366.000000
 20
231.206730
 42
0.140935
  0
VERTEX
  8
0
 10
364.473375
 20
236.515224
 42
0.130031
  0
VERTEX
  8
0
 10
360.322906
 20
240.398373
 42
0.128611
  0
VERTEX
  8
0
 10
354.756260
 20
241.747105
 42
0.136465
  0
SEQEND
  0
POLYLINE
  8
0
 66
1
 70
1
  0
VERTEX
  8
0
 10
360.545455
 20
236.545455
 42
-0.188219
  0
VERTEX
  8
0
 10
362.869743
 20
231.245844
 42
-0.194464
  0
VERTEX
  8
0
 10
360.947951
 20
225.862787
 42
-0.199717
  0
VERTEX
  8
0
 10
355.882880
 20
223.419126
 42
-0.193780
  0
VERTEX
  8
0
 10
350.496484
 20
225.249366
 42
-0.092305
  0
VERTEX
  8
0
 10
348.459053
 20
227.787804
 42
-0.112690
  0
VERTEX
  8
0
 10
347.655113
 20
230.717445
 42
-0.111419
  0
VERTEX
  8
0
 10
348.198972
 20
233.731313
 42
-0.088665
  0
VERTEX
  8
0
 10
350.007647
 20
236.508140
 42
-0.091066
  0
VERTEX
  8
0
 10
352.458549
 20
238.313880
 42
-0.112928
  0
VERTEX
  8
0
 10
355.211154
 20
238.953867
 42
-0.111326
  0
VERTEX
  8
0
 10
357.998211
 20
238.335901
 42
-0.086581
  0
SEQEND
  0
POLYLINE
  8
0
 66
1
 70
1
  0
VERTEX
  8
0
 10
486.759081
 20
187.577067
 42
0.058213
  0
VERTEX
  8
0
 10
480.922716
 20
184.691944
 42
0.079560
  0
VERTEX
  8
0
 10
476.576261
 20
180.769333
 42
0.081038
  0
VERTEX
  8
0
 10
473.726028
 20
175.745988
 42
0.062967
  0
VERTEX
  8
0
 10
472.299909
 20
169.616891
 42
0.052105
  0
VERTEX
  8
0
 10
472.306669
 20
164.294486
 42
0.065516
  0
VERTEX
  8
0
 10
473.459568
 20
159.505184
 42
0.066820
  0
VERTEX
  8
0
 10
475.786900
 20
155.250244
 42
0.057286
  0
VERTEX
  8
0
 10
479.263311
 20
151.506611
 42
0.064596
  0
VERTEX
  8
0
 10
484.776304
 20
147.903076
 42
0.082590
  0
VERTEX
  8
0
 10
490.589850
 20
146.199125
 42
0.082298
  0
VERTEX
  8
0
 10
496.658135
 20
146.465793
 42
0.063626
  0
VERTEX
  8
0
 10
502.918792
 20
148.646822
 42
0.151621
  0
VERTEX
  8
0
 10
511.796908
 20
157.140174
 42
0.149686
  0
VERTEX
  8
0
 10
514.363121
 20
169.213921
 42
0.149263
  0
VERTEX
  8
0
 10
509.729343
 20
180.679527
 42
0.150637
  0
VERTEX
  8
0
 10
499.496624
 20
187.551053
 42
0.019329
  0
VERTEX
  8
0
 10
495.587436
 20
188.564574
 42
0.053297
  0
VERTEX
  8
0
 10
492.762032
 20
188.872440
 42
0.058699
  0
VERTEX
  8
0
 10
490.093718
 20
188.563628
 42
0.027589
  0
SEQEND
  0
POLYLINE
  8
0
 66
1
 70
1
  0
VERTEX
  8
0
 10
498.477454
 20
184.884616
 42
-0.078527
  0
VERTEX
  8
0
 10
502.362207
 20
183.114565
 42
-0.052485
  0
VERTEX
  8
0
 10
506.140820
 20
180.001399
 42
-0.052332
  0
VERTEX
  8
0
 10
509.201578
 20
176.155574
 42
-0.076301
  0
VERTEX
  8
0
 10
510.946433
 20
172.198931
 42
-0.073915
  0
VERTEX
  8
0
 10
511.587667
 20
166.670491
 42
-0.082919
  0
VERTEX
  8
0
 10
510.537267
 20
161.422682
 42
-0.079141
  0
VERTEX
  8
0
 10
507.776675
 20
156.611944
 42
-0.060142
  0
VERTEX
  8
0
 10
503.412981
 20
152.365830
 42
-0.030101
  0
VERTEX
  8
0
 10
501.162083
 20
150.854095
 42
-0.062501
  0
VERTEX
  8
0
 10
499.222047
 20
150.019195
 42
-0.053411
  0
VERTEX
  8
0
 10
496.946586
 20
149.617262
 42
-0.017030
  0
VERTEX
  8
0
 10
493.504813
 20
149.500000
 42
-0.058752
  0
VERTEX
  8
0
 10
488.054746
 20
150.142628
 42
-0.075218
  0
VERTEX
  8
0
 10
483.377164
 20
152.037501
 42
-0.079005
  0
VERTEX
  8
0
 10
479.640493
 20
155.138681
 42
-0.073683
  0
VERTEX
  8
0
 10
476.943458
 20
159.316140
 42
-0.094868
  0
VERTEX
  8
0
 10
475.094685
 20
166.969640
 42
-0.111036
  0
VERTEX
  8
0
 10
476.380587
 20
174.314605
 42
-0.109955
  0
VERTEX
  8
0
 10
480.704102
 20
180.454569
 42
-0.091571
  0
VERTEX
  8
0
 10
487.500000
 20
184.673922
 42
-0.032803
  0
VERTEX
  8
0
 10
490.238588
 20
185.543345
 42
-0.055716
  0
VERTEX
  8
0
 10
492.619341
 20
185.855828
 42
-0.050439
  0
VERTEX
  8
0
 10
495.169622
 20
185.647260
 42
-0.022106
  0
SEQEND
  0
POLYLINE
  8
0
 66
1
 70
1
  0
VERTEX
  8
0
 10
212.007140
 20
185.460241
 42
0.069789
  0
VERTEX
  8
0
 10
206.816160
 20
182.196449
 42
0.078489
  0
VERTEX
  8
0
 10
202.960007
 20
177.741733
 42
0.076694
  0
VERTEX
  8
0
 10
200.602850
 20
172.224406
 42
0.062749
  0
VERTEX
  8
0
 10
199.800000
 20
165.852317
 42
0.088821
  0
VERTEX
  8
0
 10
201.212019
 20
157.966381
 42
0.101792
  0
VERTEX
  8
0
 10
205.254782
 20
151.478352
 42
0.101040
  0
VERTEX
  8
0
 10
211.558325
 20
147.079481
 42
0.086286
  0
VERTEX
  8
0
 10
219.448977
 20
145.184146
 42
0.045414
  0
VERTEX
  8
0
 10
224.383653
 20
145.318289
 42
0.062815
  0
VERTEX
  8
0
 10
228.677319
 20
146.384551
 42
0.063401
  0
VERTEX
  8
0
 10
232.542276
 20
148.473501
 42
0.047377
  0
VERTEX
  8
0
 10
236.196952
 20
151.658417
 42
0.111886
  0
VERTEX
  8
0
 10
240.747365
 20
159.311217
 42
0.104958
  0
VERTEX
  8
0
 10
241.696446
 20
168.364683
 42
0.104768
  0
VERTEX
  8
0
 10
238.885429
 20
177.036271
 42
0.111087
  0
VERTEX
  8
0
 10
232.839144
 20
183.611473
 42
0.080810
  0
VERTEX
  8
0
 10
228.399454
 20
185.727373
 42
0.048778
  0
VERTEX
  8
0
 10
222.658197
 20
186.807695
 42
0.048700
  0
VERTEX
  8
0
 10
216.800494
 20
186.756096
 42
0.079115
  0
SEQEND
  0
POLYLINE
  8
0
 66
1
 70
1
  0
VERTEX
  8
0
 10
228.901216
 20
182.551083
 42
-0.110911
  0
VERTEX
  8
0
 10
235.003532
 20
177.430241
 42
-0.106370
  0
VERTEX
  8
0
 10
238.444516
 20
170.116658
 42
-0.108154
  0
VERTEX
  8
0
 10
238.543080
 20
162.136685
 42
-0.118236
  0
VERTEX
  8
0
 10
235.258219
 20
155.131942
 42
-0.116276
  0
VERTEX
  8
0
 10
228.235059
 20
149.620143
 42
-0.122768
  0
VERTEX
  8
0
 10
219.632370
 20
147.969413
 42
-0.124897
  0
VERTEX
  8
0
 10
211.373907
 20
150.553388
 42
-0.122853
  0
VERTEX
  8
0
 10
205.286558
 20
156.773999
 42
-0.099152
  0
VERTEX
  8
0
 10
202.967779
 20
163.490329
 42
-0.095072
  0
VERTEX
  8
0
 10
203.362619
 20
170.688347
 42
-0.096700
  0
VERTEX
  8
0
 10
206.373332
 20
177.130694
 42
-0.106782
  0
VERTEX
  8
0
 10
211.502836
 20
181.703325
 42
-0.070283
  0
VERTEX
  8
0
 10
215.482582
 20
183.269726
 42
-0.046521
  0
VERTEX
  8
0
 10
220.352668
 20
183.964285
 42
-0.047143
  0
VERTEX
  8
0
 10
225.152784
 20
183.745597
 42
-0.084578
  0
SEQEND
  0
POLYLINE
  8
0
 66
1
 70
1
  0
VERTEX
  8
0
 10
350.759081
 20
142.577067
 42
0.058251
  0
VERTEX
  8
0
 10
344.948335
 20
139.704063
 42
0.078710
  0
VERTEX
  8
0
 10
340.597781
 20
135.789894
 42
0.080527
  0
VERTEX
  8
0
 10
337.737366
 20
130.798092
 42
0.064287
  0
VERTEX
  8
0
 10
336.313902
 20
124.752471
 42
0.044634
  0
VERTEX
  8
0
 10
336.244929
 20
119.695022
 42
0.066053
  0
VERTEX
  8
0
 10
337.157367
 20
115.360737
 42
0.066339
  0
VERTEX
  8
0
 10
339.164515
 20
111.427778
 42
0.045475
  0
VERTEX
  8
0
 10
342.378718
 20
107.574803
 42
0.069983
  0
VERTEX
  8
0
 10
347.844626
 20
103.463298
 42
0.085316
  0
VERTEX
  8
0
 10
353.882665
 20
101.361625
 42
0.085708
  0
VERTEX
  8
0
 10
360.253621
 20
101.401520
 42
0.071382
  0
VERTEX
  8
0
 10
366.690600
 20
103.533109
 42
0.118493
  0
VERTEX
  8
0
 10
374.499662
 20
110.086461
 42
0.124099
  0
VERTEX
  8
0
 10
378.311239
 20
119.364779
 42
0.124305
  0
VERTEX
  8
0
 10
377.266269
 20
129.329055
 42
0.119122
  0
VERTEX
  8
0
 10
371.617116
 20
137.785282
 42
0.055002
  0
VERTEX
  8
0
 10
366.717378
 20
141.394036
 42
0.074917
  0
VERTEX
  8
0
 10
361.619175
 20
143.403000
 42
0.077712
  0
VERTEX
  8
0
 10
356.302486
 20
143.779537
 42
0.064691
  0
SEQEND
  0
POLYLINE
  8
0
 66
1
 70
1
  0
VERTEX
  8
0
 10
364.541370
 20
139.120336
 42
-0.076053
  0
VERTEX
  8
0
 10
368.873613
 20
136.293208
 42
-0.059483
  0
VERTEX
  8
0
 10
372.589526
 20
132.073266
 42
-0.060785
  0
VERTEX
  8
0
 10
375.130490
 20
127.212998
 42
-0.090320
  0
VERTEX
  8
0
 10
375.988846
 20
122.500000
 42
-0.069801
  0
VERTEX
  8
0
 10
375.613133
 20
119.821808
 42
-0.030895
  0
VERTEX
  8
0
 10
374.417834
 20
116.448361
 42
-0.030706
  0
VERTEX
  8
0
 10
372.753668
 20
113.120340
 42
-0.048903
  0
VERTEX
  8
0
 10
370.898849
 20
110.537577
 42
-0.122067
  0
VERTEX
  8
0
 10
363.645343
 20
105.496723
 42
-0.122716
  0
VERTEX
  8
0
 10
354.892270
 20
104.439609
 42
-0.124017
  0
VERTEX
  8
0
 10
346.736467
 20
107.610429
 42
-0.126261
  0
VERTEX
  8
0
 10
341.121149
 20
114.249741
 42
-0.148810
  0
VERTEX
  8
0
 10
339.393666
 20
125.277356
 42
-0.155052
  0
VERTEX
  8
0
 10
344.154759
 20
135.191248
 42
-0.158016
  0
VERTEX
  8
0
 10
353.677884
 20
140.418294
 42
-0.154951
  0
SEQEND
  0
ENDSEC
  0
EOF
