G04 #@! TF.GenerationSoftware,KiCad,Pcbnew,8.0.4*
G04 #@! TF.CreationDate,2024-08-11T22:53:44+02:00*
G04 #@! TF.ProjectId,Haibadge_B,48616962-6164-4676-955f-422e6b696361,rev?*
G04 #@! TF.SameCoordinates,Original*
G04 #@! TF.FileFunction,Copper,L2,Bot*
G04 #@! TF.FilePolarity,Positive*
%FSLAX46Y46*%
G04 Gerber Fmt 4.6, Leading zero omitted, Abs format (unit mm)*
G04 Created by KiCad (PCBNEW 8.0.4) date 2024-08-11 22:53:44*
%MOMM*%
%LPD*%
G01*
G04 APERTURE LIST*
G04 Aperture macros list*
%AMRoundRect*
0 Rectangle with rounded corners*
0 $1 Rounding radius*
0 $2 $3 $4 $5 $6 $7 $8 $9 X,Y pos of 4 corners*
0 Add a 4 corners polygon primitive as box body*
4,1,4,$2,$3,$4,$5,$6,$7,$8,$9,$2,$3,0*
0 Add four circle primitives for the rounded corners*
1,1,$1+$1,$2,$3*
1,1,$1+$1,$4,$5*
1,1,$1+$1,$6,$7*
1,1,$1+$1,$8,$9*
0 Add four rect primitives between the rounded corners*
20,1,$1+$1,$2,$3,$4,$5,0*
20,1,$1+$1,$4,$5,$6,$7,0*
20,1,$1+$1,$6,$7,$8,$9,0*
20,1,$1+$1,$8,$9,$2,$3,0*%
%AMRotRect*
0 Rectangle, with rotation*
0 The origin of the aperture is its center*
0 $1 length*
0 $2 width*
0 $3 Rotation angle, in degrees counterclockwise*
0 Add horizontal line*
21,1,$1,$2,0,0,$3*%
G04 Aperture macros list end*
G04 #@! TA.AperFunction,SMDPad,CuDef*
%ADD10RotRect,0.900000X1.800000X140.000000*%
G04 #@! TD*
G04 #@! TA.AperFunction,SMDPad,CuDef*
%ADD11RotRect,1.100000X0.930000X140.000000*%
G04 #@! TD*
G04 #@! TA.AperFunction,ComponentPad*
%ADD12C,0.850000*%
G04 #@! TD*
G04 #@! TA.AperFunction,SMDPad,CuDef*
%ADD13RoundRect,0.150000X0.587500X0.150000X-0.587500X0.150000X-0.587500X-0.150000X0.587500X-0.150000X0*%
G04 #@! TD*
G04 #@! TA.AperFunction,SMDPad,CuDef*
%ADD14RoundRect,0.250000X0.375000X0.625000X-0.375000X0.625000X-0.375000X-0.625000X0.375000X-0.625000X0*%
G04 #@! TD*
G04 #@! TA.AperFunction,SMDPad,CuDef*
%ADD15RoundRect,0.250000X-0.450000X0.262500X-0.450000X-0.262500X0.450000X-0.262500X0.450000X0.262500X0*%
G04 #@! TD*
G04 #@! TA.AperFunction,SMDPad,CuDef*
%ADD16RoundRect,0.250000X-0.250000X-0.475000X0.250000X-0.475000X0.250000X0.475000X-0.250000X0.475000X0*%
G04 #@! TD*
G04 #@! TA.AperFunction,SMDPad,CuDef*
%ADD17RoundRect,0.250000X0.262500X0.450000X-0.262500X0.450000X-0.262500X-0.450000X0.262500X-0.450000X0*%
G04 #@! TD*
G04 #@! TA.AperFunction,SMDPad,CuDef*
%ADD18RoundRect,0.250000X-0.262500X-0.450000X0.262500X-0.450000X0.262500X0.450000X-0.262500X0.450000X0*%
G04 #@! TD*
G04 #@! TA.AperFunction,SMDPad,CuDef*
%ADD19RoundRect,0.250000X-0.475000X0.250000X-0.475000X-0.250000X0.475000X-0.250000X0.475000X0.250000X0*%
G04 #@! TD*
G04 #@! TA.AperFunction,SMDPad,CuDef*
%ADD20RoundRect,0.250000X0.450000X-0.262500X0.450000X0.262500X-0.450000X0.262500X-0.450000X-0.262500X0*%
G04 #@! TD*
G04 #@! TA.AperFunction,SMDPad,CuDef*
%ADD21RotRect,2.000000X1.000000X163.000000*%
G04 #@! TD*
G04 #@! TA.AperFunction,SMDPad,CuDef*
%ADD22RoundRect,0.100000X-0.225000X-0.100000X0.225000X-0.100000X0.225000X0.100000X-0.225000X0.100000X0*%
G04 #@! TD*
G04 #@! TA.AperFunction,SMDPad,CuDef*
%ADD23RoundRect,0.150000X0.150000X-0.825000X0.150000X0.825000X-0.150000X0.825000X-0.150000X-0.825000X0*%
G04 #@! TD*
G04 #@! TA.AperFunction,SMDPad,CuDef*
%ADD24RoundRect,0.150000X-0.150000X0.512500X-0.150000X-0.512500X0.150000X-0.512500X0.150000X0.512500X0*%
G04 #@! TD*
G04 #@! TA.AperFunction,SMDPad,CuDef*
%ADD25RoundRect,0.250000X0.475000X-0.250000X0.475000X0.250000X-0.475000X0.250000X-0.475000X-0.250000X0*%
G04 #@! TD*
G04 #@! TA.AperFunction,ComponentPad*
%ADD26RoundRect,0.250000X0.350000X0.625000X-0.350000X0.625000X-0.350000X-0.625000X0.350000X-0.625000X0*%
G04 #@! TD*
G04 #@! TA.AperFunction,ComponentPad*
%ADD27O,1.200000X1.750000*%
G04 #@! TD*
G04 #@! TA.AperFunction,ComponentPad*
%ADD28R,1.700000X1.700000*%
G04 #@! TD*
G04 #@! TA.AperFunction,ComponentPad*
%ADD29O,1.700000X1.700000*%
G04 #@! TD*
G04 #@! TA.AperFunction,SMDPad,CuDef*
%ADD30RoundRect,0.112500X0.187500X0.112500X-0.187500X0.112500X-0.187500X-0.112500X0.187500X-0.112500X0*%
G04 #@! TD*
G04 #@! TA.AperFunction,SMDPad,CuDef*
%ADD31R,0.600000X1.450000*%
G04 #@! TD*
G04 #@! TA.AperFunction,SMDPad,CuDef*
%ADD32R,0.300000X1.450000*%
G04 #@! TD*
G04 #@! TA.AperFunction,ComponentPad*
%ADD33O,1.000000X1.600000*%
G04 #@! TD*
G04 #@! TA.AperFunction,ComponentPad*
%ADD34O,1.000000X2.100000*%
G04 #@! TD*
G04 #@! TA.AperFunction,SMDPad,CuDef*
%ADD35RotRect,2.500000X1.000000X300.000000*%
G04 #@! TD*
G04 #@! TA.AperFunction,SMDPad,CuDef*
%ADD36RotRect,1.000000X1.800000X300.000000*%
G04 #@! TD*
G04 #@! TA.AperFunction,ViaPad*
%ADD37C,0.600000*%
G04 #@! TD*
G04 #@! TA.AperFunction,Conductor*
%ADD38C,0.500000*%
G04 #@! TD*
G04 #@! TA.AperFunction,Conductor*
%ADD39C,0.300000*%
G04 #@! TD*
G04 APERTURE END LIST*
D10*
G04 #@! TO.P,SW2,1,A*
G04 #@! TO.N,unconnected-(SW2-A-Pad1)*
X118565777Y-168318165D03*
G04 #@! TO.P,SW2,2,B*
G04 #@! TO.N,VCC*
X116267644Y-166389802D03*
G04 #@! TO.P,SW2,3,C*
G04 #@! TO.N,Net-(D17-K)*
X115118577Y-165425621D03*
D11*
G04 #@! TO.P,SW2,4*
G04 #@! TO.N,N/C*
X113359128Y-165111079D03*
G04 #@! TO.P,SW2,5*
X111900000Y-166850000D03*
G04 #@! TO.P,SW2,6*
X117721937Y-171735186D03*
G04 #@! TO.P,SW2,7*
X119181065Y-169996265D03*
D12*
G04 #@! TO.P,SW2,*
G04 #@! TO.N,*
X114388252Y-167462782D03*
X116686385Y-169391144D03*
G04 #@! TD*
D13*
G04 #@! TO.P,Q3,1,G*
G04 #@! TO.N,+5V*
X105600000Y-141000000D03*
G04 #@! TO.P,Q3,2,S*
G04 #@! TO.N,Net-(D17-K)*
X105600000Y-142900000D03*
G04 #@! TO.P,Q3,3,D*
G04 #@! TO.N,+BATT*
X103725000Y-141950000D03*
G04 #@! TD*
D14*
G04 #@! TO.P,D16,1,K*
G04 #@! TO.N,Net-(D16-K)*
X114950000Y-154000000D03*
G04 #@! TO.P,D16,2,A*
G04 #@! TO.N,Net-(D16-A)*
X112150000Y-154000000D03*
G04 #@! TD*
D15*
G04 #@! TO.P,R10,1*
G04 #@! TO.N,GPIO0*
X133600000Y-125462500D03*
G04 #@! TO.P,R10,2*
G04 #@! TO.N,+3V3*
X133600000Y-127287500D03*
G04 #@! TD*
D16*
G04 #@! TO.P,C22,1*
G04 #@! TO.N,+3V3*
X134550000Y-104000000D03*
G04 #@! TO.P,C22,2*
G04 #@! TO.N,GND*
X136450000Y-104000000D03*
G04 #@! TD*
D17*
G04 #@! TO.P,R4,1*
G04 #@! TO.N,Net-(D16-A)*
X109775000Y-154050000D03*
G04 #@! TO.P,R4,2*
G04 #@! TO.N,+5V*
X107950000Y-154050000D03*
G04 #@! TD*
D18*
G04 #@! TO.P,R12,1*
G04 #@! TO.N,GND*
X113275000Y-157200000D03*
G04 #@! TO.P,R12,2*
G04 #@! TO.N,Net-(U3-PROG)*
X115100000Y-157200000D03*
G04 #@! TD*
D13*
G04 #@! TO.P,U4,3,VI*
G04 #@! TO.N,VCC*
X108525000Y-138250000D03*
G04 #@! TO.P,U4,2,VO*
G04 #@! TO.N,+3V3*
X110400000Y-139200000D03*
G04 #@! TO.P,U4,1,GND*
G04 #@! TO.N,GND*
X110400000Y-137300000D03*
G04 #@! TD*
D16*
G04 #@! TO.P,C23,1*
G04 #@! TO.N,+3V3*
X134550000Y-106500000D03*
G04 #@! TO.P,C23,2*
G04 #@! TO.N,GND*
X136450000Y-106500000D03*
G04 #@! TD*
D19*
G04 #@! TO.P,C19,1*
G04 #@! TO.N,+3V3*
X110400000Y-140900000D03*
G04 #@! TO.P,C19,2*
G04 #@! TO.N,GND*
X110400000Y-142800000D03*
G04 #@! TD*
D20*
G04 #@! TO.P,R7,1*
G04 #@! TO.N,/uC/D-*
X139050000Y-170300000D03*
G04 #@! TO.P,R7,2*
G04 #@! TO.N,/uC/RD-*
X139050000Y-168475000D03*
G04 #@! TD*
D21*
G04 #@! TO.P,SW1,1,1*
G04 #@! TO.N,GND*
X155315672Y-105696629D03*
G04 #@! TO.P,SW1,2,2*
G04 #@! TO.N,RST*
X145752625Y-102772912D03*
G04 #@! TO.P,SW1,3,3*
G04 #@! TO.N,GND*
X153999999Y-110000000D03*
G04 #@! TO.P,SW1,4,4*
G04 #@! TO.N,RST*
X144436952Y-107076283D03*
G04 #@! TD*
D16*
G04 #@! TO.P,C16,1*
G04 #@! TO.N,RST*
X144550000Y-110500000D03*
G04 #@! TO.P,C16,2*
G04 #@! TO.N,GND*
X146450000Y-110500000D03*
G04 #@! TD*
D22*
G04 #@! TO.P,Q1,1,E1*
G04 #@! TO.N,RTS*
X141200000Y-157300000D03*
G04 #@! TO.P,Q1,2,B1*
G04 #@! TO.N,DTR*
X141200000Y-156650000D03*
G04 #@! TO.P,Q1,3,C2*
G04 #@! TO.N,GPIO0*
X141200000Y-156000000D03*
G04 #@! TO.P,Q1,4,E2*
G04 #@! TO.N,DTR*
X143100000Y-156000000D03*
G04 #@! TO.P,Q1,5,B2*
G04 #@! TO.N,RTS*
X143100000Y-156650000D03*
G04 #@! TO.P,Q1,6,C1*
G04 #@! TO.N,RST*
X143100000Y-157300000D03*
G04 #@! TD*
D23*
G04 #@! TO.P,U2,1,GND*
G04 #@! TO.N,GND*
X145000000Y-165475000D03*
G04 #@! TO.P,U2,2,TXD*
G04 #@! TO.N,Net-(U1-GPIO1{slash}TXD)*
X143730000Y-165475000D03*
G04 #@! TO.P,U2,3,RXD*
G04 #@! TO.N,Net-(U1-GPIO3{slash}RXD)*
X142460000Y-165475000D03*
G04 #@! TO.P,U2,4,V3*
G04 #@! TO.N,+3V3*
X141190000Y-165475000D03*
G04 #@! TO.P,U2,5,UD+*
G04 #@! TO.N,/uC/RD-*
X139920000Y-165475000D03*
G04 #@! TO.P,U2,6,UD-*
G04 #@! TO.N,/uC/RD+*
X138650000Y-165475000D03*
G04 #@! TO.P,U2,7,NC*
G04 #@! TO.N,unconnected-(U2-NC-Pad7)*
X137380000Y-165475000D03*
G04 #@! TO.P,U2,8,NC*
G04 #@! TO.N,unconnected-(U2-NC-Pad8)*
X136110000Y-165475000D03*
G04 #@! TO.P,U2,9,~{CTS}*
G04 #@! TO.N,unconnected-(U2-~{CTS}-Pad9)*
X136110000Y-160525000D03*
G04 #@! TO.P,U2,10,~{DSR}*
G04 #@! TO.N,unconnected-(U2-~{DSR}-Pad10)*
X137380000Y-160525000D03*
G04 #@! TO.P,U2,11,~{RI}*
G04 #@! TO.N,unconnected-(U2-~{RI}-Pad11)*
X138650000Y-160525000D03*
G04 #@! TO.P,U2,12,~{DCD}*
G04 #@! TO.N,unconnected-(U2-~{DCD}-Pad12)*
X139920000Y-160525000D03*
G04 #@! TO.P,U2,13,~{DTR}*
G04 #@! TO.N,DTR*
X141190000Y-160525000D03*
G04 #@! TO.P,U2,14,~{RTS}*
G04 #@! TO.N,RTS*
X142460000Y-160525000D03*
G04 #@! TO.P,U2,15,R232*
G04 #@! TO.N,unconnected-(U2-R232-Pad15)*
X143730000Y-160525000D03*
G04 #@! TO.P,U2,16,VCC*
G04 #@! TO.N,+3V3*
X145000000Y-160525000D03*
G04 #@! TD*
D24*
G04 #@! TO.P,U3,5,PROG*
G04 #@! TO.N,Net-(U3-PROG)*
X117187500Y-157187500D03*
G04 #@! TO.P,U3,4,V_{DD}*
G04 #@! TO.N,+5V*
X119087500Y-157187500D03*
G04 #@! TO.P,U3,3,V_{BAT}*
G04 #@! TO.N,+BATT*
X119087500Y-154912500D03*
G04 #@! TO.P,U3,2,V_{SS}*
G04 #@! TO.N,GND*
X118137500Y-154912500D03*
G04 #@! TO.P,U3,1,STAT*
G04 #@! TO.N,Net-(D16-K)*
X117187500Y-154912500D03*
G04 #@! TD*
D15*
G04 #@! TO.P,R6,1*
G04 #@! TO.N,GND*
X137000000Y-168475000D03*
G04 #@! TO.P,R6,2*
G04 #@! TO.N,Net-(J2-CC2)*
X137000000Y-170300000D03*
G04 #@! TD*
D25*
G04 #@! TO.P,C21,1*
G04 #@! TO.N,+5V*
X121500000Y-157450000D03*
G04 #@! TO.P,C21,2*
G04 #@! TO.N,GND*
X121500000Y-155550000D03*
G04 #@! TD*
D26*
G04 #@! TO.P,J3,1,Pin_1*
G04 #@! TO.N,+BATT*
X118500000Y-136000000D03*
D27*
G04 #@! TO.P,J3,2,Pin_2*
G04 #@! TO.N,GND*
X116500000Y-136000000D03*
G04 #@! TD*
D15*
G04 #@! TO.P,R9,1*
G04 #@! TO.N,Net-(U1-GPIO4)*
X131100000Y-126462500D03*
G04 #@! TO.P,R9,2*
G04 #@! TO.N,+3V3*
X131100000Y-128287500D03*
G04 #@! TD*
D19*
G04 #@! TO.P,C20,1*
G04 #@! TO.N,Net-(D17-K)*
X108300000Y-140900000D03*
G04 #@! TO.P,C20,2*
G04 #@! TO.N,GND*
X108300000Y-142800000D03*
G04 #@! TD*
D25*
G04 #@! TO.P,C25,1*
G04 #@! TO.N,+3V3*
X147000000Y-161975000D03*
G04 #@! TO.P,C25,2*
G04 #@! TO.N,GND*
X147000000Y-160075000D03*
G04 #@! TD*
D20*
G04 #@! TO.P,R5,1*
G04 #@! TO.N,Net-(J2-CC1)*
X143000000Y-170300000D03*
G04 #@! TO.P,R5,2*
G04 #@! TO.N,GND*
X143000000Y-168475000D03*
G04 #@! TD*
D15*
G04 #@! TO.P,R11,1*
G04 #@! TO.N,Net-(U1-GPIO5)*
X128600000Y-127462500D03*
G04 #@! TO.P,R11,2*
G04 #@! TO.N,+3V3*
X128600000Y-129287500D03*
G04 #@! TD*
D28*
G04 #@! TO.P,J1,1,Pin_1*
G04 #@! TO.N,+3V3*
X168900000Y-136520000D03*
D29*
G04 #@! TO.P,J1,2,Pin_2*
G04 #@! TO.N,Sensor*
X168900000Y-139060000D03*
G04 #@! TO.P,J1,3,Pin_3*
G04 #@! TO.N,GND*
X168900000Y-141600000D03*
G04 #@! TD*
D30*
G04 #@! TO.P,D17,2,A*
G04 #@! TO.N,+5V*
X104500000Y-139000000D03*
G04 #@! TO.P,D17,1,K*
G04 #@! TO.N,Net-(D17-K)*
X106600000Y-139000000D03*
G04 #@! TD*
D19*
G04 #@! TO.P,C24,1*
G04 #@! TO.N,+3V3*
X134000000Y-163600000D03*
G04 #@! TO.P,C24,2*
G04 #@! TO.N,GND*
X134000000Y-165500000D03*
G04 #@! TD*
D15*
G04 #@! TO.P,R2,1*
G04 #@! TO.N,Net-(U1-GPIO15)*
X135900000Y-124375000D03*
G04 #@! TO.P,R2,2*
G04 #@! TO.N,GND*
X135900000Y-126200000D03*
G04 #@! TD*
G04 #@! TO.P,R8,1*
G04 #@! TO.N,/uC/RD+*
X141000000Y-168475000D03*
G04 #@! TO.P,R8,2*
G04 #@! TO.N,/uC/D+*
X141000000Y-170300000D03*
G04 #@! TD*
D31*
G04 #@! TO.P,J2,A1,GND*
G04 #@! TO.N,GND*
X143430000Y-172905000D03*
G04 #@! TO.P,J2,A4,VBUS*
G04 #@! TO.N,+5V*
X142630000Y-172905000D03*
D32*
G04 #@! TO.P,J2,A5,CC1*
G04 #@! TO.N,Net-(J2-CC1)*
X141430000Y-172905000D03*
G04 #@! TO.P,J2,A6,D+*
G04 #@! TO.N,/uC/D+*
X140430000Y-172905000D03*
G04 #@! TO.P,J2,A7,D-*
G04 #@! TO.N,/uC/D-*
X139930000Y-172905000D03*
G04 #@! TO.P,J2,A8,SBU1*
G04 #@! TO.N,unconnected-(J2-SBU1-PadA8)*
X138930000Y-172905000D03*
D31*
G04 #@! TO.P,J2,A9,VBUS*
G04 #@! TO.N,+5V*
X137730000Y-172905000D03*
G04 #@! TO.P,J2,A12,GND*
G04 #@! TO.N,GND*
X136930000Y-172905000D03*
G04 #@! TO.P,J2,B1,GND*
X136930000Y-172905000D03*
G04 #@! TO.P,J2,B4,VBUS*
G04 #@! TO.N,+5V*
X137730000Y-172905000D03*
D32*
G04 #@! TO.P,J2,B5,CC2*
G04 #@! TO.N,Net-(J2-CC2)*
X138430000Y-172905000D03*
G04 #@! TO.P,J2,B6,D+*
G04 #@! TO.N,/uC/D+*
X139430000Y-172905000D03*
G04 #@! TO.P,J2,B7,D-*
G04 #@! TO.N,/uC/D-*
X140930000Y-172905000D03*
G04 #@! TO.P,J2,B8,SBU2*
G04 #@! TO.N,unconnected-(J2-SBU2-PadB8)*
X141930000Y-172905000D03*
D31*
G04 #@! TO.P,J2,B9,VBUS*
G04 #@! TO.N,+5V*
X142630000Y-172905000D03*
G04 #@! TO.P,J2,B12,GND*
G04 #@! TO.N,GND*
X143430000Y-172905000D03*
D33*
G04 #@! TO.P,J2,S1,SHIELD*
X144500000Y-178000000D03*
D34*
X144500000Y-173820000D03*
D33*
X135860000Y-178000000D03*
D34*
X135860000Y-173820000D03*
G04 #@! TD*
D17*
G04 #@! TO.P,R13,2*
G04 #@! TO.N,+5V*
X104575000Y-136900000D03*
G04 #@! TO.P,R13,1*
G04 #@! TO.N,GND*
X106400000Y-136900000D03*
G04 #@! TD*
D35*
G04 #@! TO.P,U1,1,~{RST}*
G04 #@! TO.N,RST*
X116900000Y-112836414D03*
G04 #@! TO.P,U1,2,ADC*
G04 #@! TO.N,unconnected-(U1-ADC-Pad2)*
X118632051Y-111836414D03*
G04 #@! TO.P,U1,3,EN*
G04 #@! TO.N,Net-(U1-EN)*
X120364102Y-110836414D03*
G04 #@! TO.P,U1,4,GPIO16*
G04 #@! TO.N,unconnected-(U1-GPIO16-Pad4)*
X122096153Y-109836414D03*
G04 #@! TO.P,U1,5,GPIO14*
G04 #@! TO.N,/WS2812B/WS2812B*
X123828203Y-108836414D03*
G04 #@! TO.P,U1,6,GPIO12*
G04 #@! TO.N,unconnected-(U1-GPIO12-Pad6)*
X125560254Y-107836414D03*
G04 #@! TO.P,U1,7,GPIO13*
G04 #@! TO.N,Sensor*
X127292305Y-106836414D03*
G04 #@! TO.P,U1,8,VCC*
G04 #@! TO.N,+3V3*
X129024356Y-105836414D03*
D36*
G04 #@! TO.P,U1,9,CS0*
G04 #@! TO.N,unconnected-(U1-CS0-Pad9)*
X131623394Y-107338080D03*
G04 #@! TO.P,U1,10,MISO*
G04 #@! TO.N,unconnected-(U1-MISO-Pad10)*
X132623394Y-109070131D03*
G04 #@! TO.P,U1,11,GPIO9*
G04 #@! TO.N,unconnected-(U1-GPIO9-Pad11)*
X133623394Y-110802182D03*
G04 #@! TO.P,U1,12,GPIO10*
G04 #@! TO.N,unconnected-(U1-GPIO10-Pad12)*
X134623394Y-112534232D03*
G04 #@! TO.P,U1,13,MOSI*
G04 #@! TO.N,unconnected-(U1-MOSI-Pad13)*
X135623394Y-114266283D03*
G04 #@! TO.P,U1,14,SCLK*
G04 #@! TO.N,unconnected-(U1-SCLK-Pad14)*
X136623394Y-115998334D03*
D35*
G04 #@! TO.P,U1,15,GND*
G04 #@! TO.N,GND*
X136624356Y-119000000D03*
G04 #@! TO.P,U1,16,GPIO15*
G04 #@! TO.N,Net-(U1-GPIO15)*
X134892305Y-120000000D03*
G04 #@! TO.P,U1,17,GPIO2*
G04 #@! TO.N,unconnected-(U1-GPIO2-Pad17)*
X133160254Y-121000000D03*
G04 #@! TO.P,U1,18,GPIO0*
G04 #@! TO.N,GPIO0*
X131428203Y-122000000D03*
G04 #@! TO.P,U1,19,GPIO4*
G04 #@! TO.N,Net-(U1-GPIO4)*
X129696153Y-123000000D03*
G04 #@! TO.P,U1,20,GPIO5*
G04 #@! TO.N,Net-(U1-GPIO5)*
X127964102Y-124000000D03*
G04 #@! TO.P,U1,21,GPIO3/RXD*
G04 #@! TO.N,Net-(U1-GPIO3{slash}RXD)*
X126232051Y-125000000D03*
G04 #@! TO.P,U1,22,GPIO1/TXD*
G04 #@! TO.N,Net-(U1-GPIO1{slash}TXD)*
X124500000Y-126000000D03*
G04 #@! TD*
D37*
G04 #@! TO.N,Net-(D17-K)*
X106450000Y-143900000D03*
G04 #@! TO.N,VCC*
X119750000Y-164550000D03*
G04 #@! TO.N,Net-(D17-K)*
X106400000Y-152450000D03*
G04 #@! TO.N,VCC*
X108500000Y-139500000D03*
G04 #@! TO.N,GND*
X138000000Y-145500000D03*
X123400000Y-129800000D03*
X156000000Y-110500000D03*
X155000000Y-108500000D03*
X138600000Y-139000000D03*
X152500000Y-106500000D03*
X126500000Y-142000000D03*
X107000000Y-148000000D03*
X125000000Y-168500000D03*
X121400000Y-129800000D03*
X171000000Y-131000000D03*
X152000000Y-141000000D03*
X129500000Y-125500000D03*
X137000000Y-121000000D03*
X170000000Y-126500000D03*
X126600000Y-121800000D03*
X147000000Y-158500000D03*
X157000000Y-146000000D03*
X108500000Y-126500000D03*
X171000000Y-144500000D03*
X149000000Y-110000000D03*
X118000000Y-133500000D03*
X142000000Y-126000000D03*
X111000000Y-144500000D03*
X159500000Y-166000000D03*
X152000000Y-109000000D03*
X156000000Y-107500000D03*
X170500000Y-150500000D03*
X140200000Y-149000000D03*
X138000000Y-105000000D03*
X129400000Y-120200000D03*
X125000000Y-165000000D03*
X112000000Y-157000000D03*
X106500000Y-128000000D03*
X153500000Y-108000000D03*
X125000000Y-122600000D03*
X138300000Y-175000000D03*
X159500000Y-120500000D03*
X142800000Y-148600000D03*
X145000000Y-164000000D03*
X134000000Y-144000000D03*
X113500000Y-158500000D03*
X174500000Y-150500000D03*
X142000000Y-154000000D03*
X170000000Y-123500000D03*
X135600000Y-168400000D03*
X141800000Y-175000000D03*
X141100000Y-175000000D03*
X135500000Y-145500000D03*
X142500000Y-146000000D03*
X107000000Y-135500000D03*
X141000000Y-130500000D03*
X139000000Y-175000000D03*
X137500000Y-108000000D03*
X156500000Y-114000000D03*
X154500000Y-112000000D03*
X123400000Y-128200000D03*
X138000000Y-104000000D03*
X145000000Y-126000000D03*
X158000000Y-119000000D03*
X122000000Y-143400000D03*
X144800000Y-168600000D03*
X138600000Y-139600000D03*
X132500000Y-165500000D03*
X157500000Y-106500000D03*
X147500000Y-111500000D03*
X122400000Y-129000000D03*
X135000000Y-117500000D03*
X123400000Y-129000000D03*
X108500000Y-137000000D03*
X119500000Y-132000000D03*
X154000000Y-146000000D03*
X140400000Y-175000000D03*
X107500000Y-137000000D03*
X147000000Y-128000000D03*
X134000000Y-167000000D03*
X139200000Y-137800000D03*
X137500000Y-126000000D03*
X172500000Y-152500000D03*
X174500000Y-131000000D03*
X173000000Y-132500000D03*
X110000000Y-148000000D03*
X155500000Y-147500000D03*
X147500000Y-108500000D03*
X142800000Y-149400000D03*
X109500000Y-144500000D03*
X110500000Y-136000000D03*
X121000000Y-113000000D03*
X108000000Y-146500000D03*
X171500000Y-125000000D03*
X153000000Y-105000000D03*
X138000000Y-144500000D03*
X113500000Y-155500000D03*
X127000000Y-166500000D03*
X112000000Y-137500000D03*
X122000000Y-142500000D03*
X140500000Y-154500000D03*
X143000000Y-141200000D03*
X122500000Y-158500000D03*
X147000000Y-134000000D03*
X119500000Y-114000000D03*
X144700000Y-171900000D03*
X138400000Y-150600000D03*
X148500000Y-135500000D03*
X153500000Y-139500000D03*
X118000000Y-153500000D03*
X159500000Y-117500000D03*
X152000000Y-137500000D03*
X143000000Y-140200000D03*
X154500000Y-107000000D03*
X118000000Y-156000000D03*
X110500000Y-128000000D03*
X149000000Y-160000000D03*
X139500000Y-129000000D03*
X123000000Y-166500000D03*
X139500000Y-107000000D03*
X158500000Y-112500000D03*
X107500000Y-144500000D03*
X108500000Y-149000000D03*
X143000000Y-167200000D03*
X112000000Y-143000000D03*
X173000000Y-129500000D03*
X164000000Y-166000000D03*
X169500000Y-146500000D03*
X140000000Y-146000000D03*
X139000000Y-106000000D03*
X139500000Y-132200000D03*
X161500000Y-168000000D03*
X148500000Y-132500000D03*
X139500000Y-126000000D03*
X146500000Y-165000000D03*
X145500000Y-129000000D03*
X128000000Y-121000000D03*
X139700000Y-175000000D03*
X138000000Y-118000000D03*
X123500000Y-160000000D03*
X122400000Y-129800000D03*
X135000000Y-147000000D03*
G04 #@! TO.N,RST*
X144000000Y-139500000D03*
X144000000Y-130000000D03*
G04 #@! TO.N,+3V3*
X145000000Y-144500000D03*
X114500000Y-141000000D03*
X123000000Y-141000000D03*
X127000000Y-129000000D03*
X134600000Y-107900000D03*
X148500000Y-137000000D03*
G04 #@! TO.N,+5V*
X122000000Y-161500000D03*
X137600000Y-171400000D03*
X142459620Y-171459620D03*
G04 #@! TO.N,/WS2812B/WS2812B*
X121500000Y-114500000D03*
G04 #@! TO.N,Sensor*
X146000000Y-116000000D03*
X144000000Y-116000000D03*
X163000000Y-132500000D03*
X128500000Y-109000000D03*
X160000000Y-129500000D03*
G04 #@! TO.N,/uC/D-*
X141079999Y-171400762D03*
X139700000Y-171500000D03*
G04 #@! TO.N,GPIO0*
X141500000Y-148000000D03*
X139434313Y-156065687D03*
G04 #@! TO.N,Net-(U1-EN)*
X120500000Y-108000000D03*
G04 #@! TO.N,Net-(U1-GPIO4)*
X132500000Y-132500000D03*
G04 #@! TO.N,Net-(U1-GPIO5)*
X130000000Y-131500000D03*
G04 #@! TO.N,Net-(U1-GPIO3{slash}RXD)*
X125500000Y-152000000D03*
X126000000Y-155000000D03*
X126000000Y-132000000D03*
X126000000Y-140000000D03*
G04 #@! TO.N,Net-(U1-GPIO1{slash}TXD)*
X124500000Y-132000000D03*
X124500000Y-140000000D03*
G04 #@! TD*
D38*
G04 #@! TO.N,Net-(D17-K)*
X115118577Y-164933356D02*
X115118577Y-165425621D01*
X106400000Y-156214779D02*
X115118577Y-164933356D01*
G04 #@! TO.N,VCC*
X118107446Y-164550000D02*
X116267644Y-166389802D01*
X119750000Y-164550000D02*
X118107446Y-164550000D01*
G04 #@! TO.N,+5V*
X107950000Y-152362500D02*
X107950000Y-154050000D01*
X101800000Y-146212500D02*
X107950000Y-152362500D01*
X103650000Y-139600000D02*
X101800000Y-141450000D01*
X101800000Y-141450000D02*
X101800000Y-146212500D01*
X104500000Y-139600000D02*
X103650000Y-139600000D01*
G04 #@! TO.N,Net-(D17-K)*
X105600000Y-142900000D02*
X105600000Y-143050000D01*
X105600000Y-143050000D02*
X106450000Y-143900000D01*
X107050000Y-141450000D02*
X105600000Y-142900000D01*
X107750000Y-141450000D02*
X107050000Y-141450000D01*
X108300000Y-140900000D02*
X107750000Y-141450000D01*
G04 #@! TO.N,+BATT*
X103725000Y-143175000D02*
X103725000Y-141950000D01*
X107000000Y-145487500D02*
X106037500Y-145487500D01*
X106037500Y-145487500D02*
X103725000Y-143175000D01*
X115000000Y-145500000D02*
X107000000Y-145500000D01*
X107000000Y-145500000D02*
X107000000Y-145487500D01*
G04 #@! TO.N,+5V*
X104500000Y-139900000D02*
X105600000Y-141000000D01*
X104500000Y-139600000D02*
X104500000Y-139900000D01*
X104500000Y-139000000D02*
X104500000Y-139600000D01*
X118000000Y-159500000D02*
X111500000Y-159500000D01*
X107950000Y-155950000D02*
X107950000Y-154050000D01*
X119087500Y-158412500D02*
X118000000Y-159500000D01*
X111500000Y-159500000D02*
X107950000Y-155950000D01*
X119087500Y-157187500D02*
X119087500Y-158412500D01*
G04 #@! TO.N,Net-(D16-K)*
X115862500Y-154912500D02*
X114950000Y-154000000D01*
X117187500Y-154912500D02*
X115862500Y-154912500D01*
G04 #@! TO.N,Net-(D16-A)*
X109825000Y-154000000D02*
X109775000Y-154050000D01*
X112150000Y-154000000D02*
X109825000Y-154000000D01*
G04 #@! TO.N,Net-(D17-K)*
X106400000Y-156214779D02*
X106400000Y-152450000D01*
X106600000Y-139200000D02*
X108300000Y-140900000D01*
X106600000Y-139000000D02*
X106600000Y-139200000D01*
G04 #@! TO.N,VCC*
X108525000Y-139475000D02*
X108500000Y-139500000D01*
X108525000Y-138250000D02*
X108525000Y-139475000D01*
G04 #@! TO.N,GND*
X143585000Y-172905000D02*
X144500000Y-173820000D01*
X136775000Y-172905000D02*
X135860000Y-173820000D01*
X136930000Y-172905000D02*
X136775000Y-172905000D01*
X143430000Y-172905000D02*
X143585000Y-172905000D01*
D39*
G04 #@! TO.N,RST*
X143860669Y-106500000D02*
X144436952Y-107076283D01*
X131500000Y-103500000D02*
X133000000Y-102000000D01*
X144000000Y-130000000D02*
X143350000Y-129350000D01*
X144000000Y-155485832D02*
X144000000Y-139500000D01*
X144436952Y-107076283D02*
X145752624Y-105760611D01*
X143100000Y-157300000D02*
X143424999Y-157300000D01*
X121778010Y-105500000D02*
X124500000Y-105500000D01*
X143775000Y-156949999D02*
X143775000Y-155710832D01*
X127000000Y-103500000D02*
X131500000Y-103500000D01*
X133000000Y-102000000D02*
X137500000Y-102000000D01*
X144436952Y-110386952D02*
X144550000Y-110500000D01*
X143424999Y-157300000D02*
X143775000Y-156949999D01*
X143775000Y-155710832D02*
X144000000Y-155485832D01*
X124500000Y-105500000D02*
X126000000Y-104000000D01*
X126500000Y-104000000D02*
X127000000Y-103500000D01*
X126000000Y-104000000D02*
X126500000Y-104000000D01*
X144436952Y-107076283D02*
X144436952Y-110386952D01*
X141500000Y-104500000D02*
X142500000Y-105500000D01*
X143350000Y-129350000D02*
X143350000Y-111700000D01*
X142500000Y-105500000D02*
X142500000Y-106500000D01*
X140000000Y-104500000D02*
X141500000Y-104500000D01*
X116900000Y-112836414D02*
X116900000Y-110378010D01*
X137500000Y-102000000D02*
X140000000Y-104500000D01*
X142500000Y-106500000D02*
X143860669Y-106500000D01*
X145752624Y-105760611D02*
X145752624Y-102772912D01*
X143350000Y-111700000D02*
X144550000Y-110500000D01*
X116900000Y-110378010D02*
X121778010Y-105500000D01*
D38*
G04 #@! TO.N,+3V3*
X133886414Y-105836414D02*
X129024356Y-105836414D01*
X131100000Y-132900000D02*
X131100000Y-128287500D01*
X148980000Y-136520000D02*
X148500000Y-137000000D01*
X128600000Y-129287500D02*
X128600000Y-132900000D01*
X114400000Y-140900000D02*
X114500000Y-141000000D01*
X134550000Y-106500000D02*
X134550000Y-104000000D01*
X133250000Y-133250000D02*
X131450000Y-133250000D01*
X128600000Y-132900000D02*
X128500000Y-133000000D01*
X134550000Y-106500000D02*
X134550000Y-107850000D01*
X123000000Y-153325000D02*
X123000000Y-141000000D01*
X133600000Y-132900000D02*
X133250000Y-133250000D01*
X146450000Y-161975000D02*
X145000000Y-160525000D01*
X133275000Y-163600000D02*
X123000000Y-153325000D01*
X110400000Y-140900000D02*
X114400000Y-140900000D01*
D39*
X140289999Y-163600000D02*
X134000000Y-163600000D01*
D38*
X133600000Y-127287500D02*
X133600000Y-132900000D01*
X128000000Y-133500000D02*
X125560661Y-133500000D01*
D39*
X141190000Y-164500001D02*
X140289999Y-163600000D01*
D38*
X134550000Y-107850000D02*
X134600000Y-107900000D01*
X168900000Y-136520000D02*
X148980000Y-136520000D01*
X129000000Y-133500000D02*
X128500000Y-133000000D01*
X128312500Y-129000000D02*
X128600000Y-129287500D01*
X127000000Y-129000000D02*
X128312500Y-129000000D01*
D39*
X141190000Y-164500001D02*
X141190000Y-165475000D01*
D38*
X134000000Y-163600000D02*
X133275000Y-163600000D01*
X125560661Y-133500000D02*
X123000000Y-136060661D01*
X145000000Y-160525000D02*
X145000000Y-144500000D01*
X131450000Y-133250000D02*
X131100000Y-132900000D01*
X123000000Y-141000000D02*
X123000000Y-136060661D01*
X130500000Y-133500000D02*
X129000000Y-133500000D01*
X128500000Y-133000000D02*
X128000000Y-133500000D01*
X131100000Y-132900000D02*
X130500000Y-133500000D01*
X134550000Y-106500000D02*
X133886414Y-105836414D01*
X147000000Y-161975000D02*
X146450000Y-161975000D01*
X110400000Y-139200000D02*
X110400000Y-140900000D01*
G04 #@! TO.N,+5V*
X137730000Y-172905000D02*
X137730000Y-171530000D01*
X122000000Y-161500000D02*
X121500000Y-161000000D01*
X121237500Y-157187500D02*
X121500000Y-157450000D01*
X104500000Y-136975000D02*
X104575000Y-136900000D01*
X137730000Y-171530000D02*
X137600000Y-171400000D01*
X121500000Y-161000000D02*
X121500000Y-157450000D01*
X142630000Y-171630000D02*
X142630000Y-172905000D01*
X119087500Y-157187500D02*
X121237500Y-157187500D01*
X142459620Y-171459620D02*
X142630000Y-171630000D01*
X104512500Y-139012500D02*
X104500000Y-139000000D01*
X104500000Y-139000000D02*
X104500000Y-136975000D01*
G04 #@! TO.N,/WS2812B/WS2812B*
X123828203Y-112171797D02*
X121500000Y-114500000D01*
X123828203Y-108836414D02*
X123828203Y-112171797D01*
D39*
G04 #@! TO.N,Sensor*
X127292305Y-107792305D02*
X128500000Y-109000000D01*
X127292305Y-106836414D02*
X127292305Y-107792305D01*
X163000000Y-132500000D02*
X160000000Y-129500000D01*
X146000000Y-116000000D02*
X144000000Y-116000000D01*
G04 #@! TO.N,/uC/D+*
X140430000Y-172905000D02*
X140430000Y-170870000D01*
X140430000Y-170870000D02*
X141000000Y-170300000D01*
X140430000Y-173930000D02*
X140430000Y-172905000D01*
X139430000Y-173980000D02*
X140380000Y-173980000D01*
X140380000Y-173980000D02*
X140430000Y-173930000D01*
X139430000Y-172905000D02*
X139430000Y-173980000D01*
G04 #@! TO.N,/uC/D-*
X139700000Y-171500000D02*
X139700000Y-170950000D01*
X140930000Y-171550761D02*
X140930000Y-172905000D01*
X139930000Y-171730000D02*
X139700000Y-171500000D01*
X139930000Y-172905000D02*
X139930000Y-171730000D01*
X141079999Y-171400762D02*
X140930000Y-171550761D01*
X139700000Y-170950000D02*
X139050000Y-170300000D01*
G04 #@! TO.N,Net-(J2-CC1)*
X142700001Y-170300000D02*
X143000000Y-170300000D01*
X141430000Y-171970000D02*
X141809620Y-171590380D01*
X141430000Y-172905000D02*
X141430000Y-171970000D01*
X141809620Y-171190381D02*
X142700001Y-170300000D01*
X141809620Y-171590380D02*
X141809620Y-171190381D01*
G04 #@! TO.N,Net-(J2-CC2)*
X138344544Y-171162500D02*
X137482044Y-170300000D01*
X138430000Y-171230000D02*
X138362500Y-171162500D01*
X138362500Y-171162500D02*
X138344544Y-171162500D01*
X137482044Y-170300000D02*
X137000000Y-170300000D01*
X138430000Y-172905000D02*
X138430000Y-171230000D01*
D38*
G04 #@! TO.N,+BATT*
X115000000Y-145500000D02*
X118500000Y-142000000D01*
X119087500Y-154912500D02*
X119087500Y-149587500D01*
X118500000Y-142000000D02*
X118500000Y-136000000D01*
X119087500Y-149587500D02*
X115000000Y-145500000D01*
D39*
G04 #@! TO.N,DTR*
X141514168Y-156650000D02*
X141200000Y-156650000D01*
X141190000Y-160525000D02*
X141190000Y-158254168D01*
X140500000Y-157564168D02*
X140500000Y-157000000D01*
X142164168Y-156000000D02*
X141514168Y-156650000D01*
X140500000Y-157000000D02*
X140850000Y-156650000D01*
X143100000Y-156000000D02*
X142164168Y-156000000D01*
X141190000Y-158254168D02*
X140500000Y-157564168D01*
X140850000Y-156650000D02*
X141200000Y-156650000D01*
G04 #@! TO.N,RTS*
X142221274Y-156650000D02*
X141571274Y-157300000D01*
X142460000Y-158560000D02*
X141200000Y-157300000D01*
X142460000Y-160525000D02*
X142460000Y-158560000D01*
X143100000Y-156650000D02*
X142221274Y-156650000D01*
X141571274Y-157300000D02*
X141200000Y-157300000D01*
G04 #@! TO.N,GPIO0*
X140419239Y-156000000D02*
X140269239Y-156150000D01*
X131428203Y-122000000D02*
X133600000Y-124171797D01*
X141500000Y-136100000D02*
X134650000Y-129250000D01*
X141200000Y-156000000D02*
X140419239Y-156000000D01*
X133600000Y-124171797D02*
X133600000Y-125462500D01*
X134650000Y-129250000D02*
X134650000Y-126512500D01*
X139518626Y-156150000D02*
X139434313Y-156065687D01*
X141500000Y-148000000D02*
X141500000Y-136100000D01*
X134650000Y-126512500D02*
X133600000Y-125462500D01*
X140269239Y-156150000D02*
X139518626Y-156150000D01*
G04 #@! TO.N,Net-(U1-EN)*
X120364102Y-108135898D02*
X120500000Y-108000000D01*
X120364102Y-110836414D02*
X120364102Y-108135898D01*
D38*
G04 #@! TO.N,Net-(U1-GPIO15)*
X135900000Y-121007695D02*
X134892305Y-120000000D01*
X135900000Y-124375000D02*
X135900000Y-121007695D01*
D39*
G04 #@! TO.N,/uC/RD-*
X135460000Y-164438738D02*
X135748738Y-164150000D01*
X135748738Y-164150000D02*
X139350000Y-164150000D01*
X139050000Y-168475000D02*
X137575000Y-167000000D01*
X137575000Y-167000000D02*
X135800000Y-167000000D01*
X135800000Y-167000000D02*
X135460000Y-166660000D01*
X135460000Y-166660000D02*
X135460000Y-164438738D01*
X139920000Y-164720000D02*
X139920000Y-165475000D01*
X139350000Y-164150000D02*
X139920000Y-164720000D01*
G04 #@! TO.N,/uC/RD+*
X138650000Y-166125000D02*
X138650000Y-165475000D01*
X141000000Y-168475000D02*
X138650000Y-166125000D01*
G04 #@! TO.N,Net-(U1-GPIO4)*
X131100000Y-124403847D02*
X131100000Y-126462500D01*
X132500000Y-132500000D02*
X132500000Y-127862500D01*
X129696153Y-123000000D02*
X131100000Y-124403847D01*
X132500000Y-127862500D02*
X131100000Y-126462500D01*
G04 #@! TO.N,Net-(U1-GPIO5)*
X130000000Y-128862500D02*
X128600000Y-127462500D01*
D38*
X128600000Y-124635898D02*
X127964102Y-124000000D01*
D39*
X127964102Y-126826602D02*
X128600000Y-127462500D01*
X130000000Y-131500000D02*
X130000000Y-128862500D01*
D38*
X128600000Y-127462500D02*
X128600000Y-127496878D01*
D39*
X127964102Y-124000000D02*
X127964102Y-126826602D01*
D38*
G04 #@! TO.N,Net-(U3-PROG)*
X117175000Y-157200000D02*
X117187500Y-157187500D01*
X115100000Y-157200000D02*
X117175000Y-157200000D01*
D39*
G04 #@! TO.N,Net-(U1-GPIO3{slash}RXD)*
X140459999Y-162500000D02*
X133500000Y-162500000D01*
X142460000Y-164500001D02*
X140459999Y-162500000D01*
X125500000Y-140500000D02*
X126000000Y-140000000D01*
X133500000Y-162500000D02*
X126000000Y-155000000D01*
X126232051Y-131767949D02*
X126000000Y-132000000D01*
X142460000Y-165475000D02*
X142460000Y-164500001D01*
X125500000Y-152000000D02*
X125500000Y-140500000D01*
X126232051Y-125000000D02*
X126232051Y-131767949D01*
G04 #@! TO.N,Net-(U1-GPIO1{slash}TXD)*
X141229999Y-162000000D02*
X134000000Y-162000000D01*
X143730000Y-164500001D02*
X141229999Y-162000000D01*
X143730000Y-165475000D02*
X143730000Y-164500001D01*
X124500000Y-126000000D02*
X124800000Y-126300000D01*
X134000000Y-162000000D02*
X124500000Y-152500000D01*
X124800000Y-126300000D02*
X124800000Y-131700000D01*
X124500000Y-152500000D02*
X124500000Y-140000000D01*
X124800000Y-131700000D02*
X124500000Y-132000000D01*
G04 #@! TD*
G04 #@! TA.AperFunction,Conductor*
G04 #@! TO.N,GND*
G36*
X130462363Y-124547162D02*
G01*
X130478117Y-124560489D01*
X130513181Y-124595553D01*
X130546666Y-124656876D01*
X130549500Y-124683234D01*
X130549500Y-125458699D01*
X130529815Y-125525738D01*
X130477011Y-125571493D01*
X130460095Y-125577775D01*
X130389606Y-125598253D01*
X130389603Y-125598255D01*
X130248137Y-125681917D01*
X130248129Y-125681923D01*
X130131923Y-125798129D01*
X130131917Y-125798137D01*
X130048255Y-125939603D01*
X130048254Y-125939606D01*
X130002402Y-126097426D01*
X130002401Y-126097432D01*
X129999500Y-126134298D01*
X129999500Y-126790701D01*
X130002401Y-126827567D01*
X130002402Y-126827573D01*
X130048254Y-126985393D01*
X130048255Y-126985396D01*
X130048256Y-126985398D01*
X130080007Y-127039087D01*
X130131917Y-127126862D01*
X130131923Y-127126870D01*
X130248129Y-127243076D01*
X130248132Y-127243078D01*
X130248135Y-127243081D01*
X130289040Y-127267272D01*
X130290724Y-127268268D01*
X130338407Y-127319338D01*
X130350910Y-127388079D01*
X130324264Y-127452669D01*
X130290724Y-127481732D01*
X130248135Y-127506919D01*
X130248129Y-127506923D01*
X130131923Y-127623129D01*
X130131917Y-127623137D01*
X130048255Y-127764603D01*
X130048254Y-127764604D01*
X130023990Y-127848123D01*
X129986384Y-127907008D01*
X129922911Y-127936214D01*
X129853724Y-127926468D01*
X129817233Y-127901208D01*
X129736819Y-127820794D01*
X129703334Y-127759471D01*
X129700500Y-127733113D01*
X129700500Y-127134313D01*
X129700499Y-127134298D01*
X129699914Y-127126870D01*
X129697598Y-127097431D01*
X129693543Y-127083475D01*
X129657028Y-126957791D01*
X129651744Y-126939602D01*
X129568081Y-126798135D01*
X129568079Y-126798133D01*
X129568076Y-126798129D01*
X129451870Y-126681923D01*
X129451862Y-126681917D01*
X129310396Y-126598255D01*
X129310393Y-126598254D01*
X129152573Y-126552402D01*
X129152567Y-126552401D01*
X129115701Y-126549500D01*
X129115694Y-126549500D01*
X128638602Y-126549500D01*
X128571563Y-126529815D01*
X128525808Y-126477011D01*
X128514602Y-126425500D01*
X128514602Y-125659592D01*
X128534287Y-125592553D01*
X128576602Y-125552205D01*
X129249660Y-125163615D01*
X129249666Y-125163609D01*
X129249671Y-125163607D01*
X129319896Y-125106740D01*
X129323454Y-125103859D01*
X129392550Y-124997460D01*
X129425385Y-124874917D01*
X129418746Y-124748225D01*
X129418744Y-124748222D01*
X129418299Y-124739714D01*
X129434448Y-124671736D01*
X129484785Y-124623280D01*
X129553328Y-124609731D01*
X129609663Y-124629228D01*
X129616813Y-124633871D01*
X129723212Y-124702967D01*
X129845755Y-124735802D01*
X129972447Y-124729163D01*
X130061094Y-124695134D01*
X130328437Y-124540782D01*
X130396336Y-124524310D01*
X130462363Y-124547162D01*
G37*
G04 #@! TD.AperFunction*
G04 #@! TA.AperFunction,Conductor*
G36*
X139915915Y-100514508D02*
G01*
X139951229Y-100514905D01*
X140794654Y-100524392D01*
X140797314Y-100524450D01*
X141667785Y-100553006D01*
X141670371Y-100553118D01*
X142535942Y-100600384D01*
X142538572Y-100600558D01*
X143399277Y-100666539D01*
X143401720Y-100666752D01*
X144257344Y-100750443D01*
X144260039Y-100750738D01*
X145109144Y-100853063D01*
X145111813Y-100853415D01*
X145955676Y-100974530D01*
X145958051Y-100974896D01*
X146797121Y-101112771D01*
X146799650Y-101113215D01*
X147631279Y-101268714D01*
X147633946Y-101269243D01*
X148459484Y-101442419D01*
X148462048Y-101442987D01*
X149281360Y-101634029D01*
X149283713Y-101634602D01*
X150096802Y-101841320D01*
X150099448Y-101842025D01*
X150904314Y-102066364D01*
X150906740Y-102067068D01*
X151706250Y-102308301D01*
X151708618Y-102309043D01*
X152499939Y-102565926D01*
X152502466Y-102566777D01*
X153281952Y-102839011D01*
X153285906Y-102840392D01*
X153288310Y-102841260D01*
X154065076Y-103130701D01*
X154067406Y-103131597D01*
X154836424Y-103436840D01*
X154838647Y-103437749D01*
X155439439Y-103690673D01*
X155598352Y-103757573D01*
X155600902Y-103758681D01*
X155843491Y-103867274D01*
X156352771Y-104095249D01*
X156354938Y-104096246D01*
X157099423Y-104447809D01*
X157101738Y-104448932D01*
X157837034Y-104815103D01*
X157839294Y-104816258D01*
X158561266Y-105194854D01*
X158565307Y-105196973D01*
X158567759Y-105198294D01*
X158886970Y-105375000D01*
X159284591Y-105595111D01*
X159286571Y-105596231D01*
X159995499Y-106005835D01*
X159997918Y-106007270D01*
X160696557Y-106432356D01*
X160698627Y-106433643D01*
X161388066Y-106871930D01*
X161390221Y-106873332D01*
X161616692Y-107023984D01*
X162068962Y-107324842D01*
X162071219Y-107326379D01*
X162583389Y-107683918D01*
X162739588Y-107792958D01*
X162741517Y-107794331D01*
X163401584Y-108274112D01*
X163403553Y-108275574D01*
X163743431Y-108533449D01*
X164052155Y-108767686D01*
X164054263Y-108769322D01*
X164691912Y-109275111D01*
X164693896Y-109276718D01*
X164845405Y-109402063D01*
X165321294Y-109795773D01*
X165323060Y-109797265D01*
X165604967Y-110039993D01*
X165939338Y-110327895D01*
X165941309Y-110329628D01*
X166545672Y-110872962D01*
X166547413Y-110874561D01*
X167133457Y-111423674D01*
X167141100Y-111430835D01*
X167142922Y-111432578D01*
X167724797Y-112000668D01*
X167726553Y-112002418D01*
X168062616Y-112344286D01*
X168296752Y-112582466D01*
X168298448Y-112584225D01*
X168391008Y-112682172D01*
X168848608Y-113166405D01*
X168856659Y-113174924D01*
X168858456Y-113176867D01*
X169404842Y-113780353D01*
X169406472Y-113782190D01*
X169939996Y-114395448D01*
X169941716Y-114397468D01*
X170462364Y-115022442D01*
X170463978Y-115024421D01*
X170971928Y-115660343D01*
X170973500Y-115662353D01*
X171468496Y-116308899D01*
X171470094Y-116311033D01*
X171951620Y-116968821D01*
X171953001Y-116970746D01*
X172421581Y-117637194D01*
X172423134Y-117639455D01*
X172877827Y-118317557D01*
X172879192Y-118319638D01*
X173320304Y-119006907D01*
X173321667Y-119009080D01*
X173749015Y-119706227D01*
X173750284Y-119708343D01*
X173840243Y-119861916D01*
X174163730Y-120414155D01*
X174165060Y-120416484D01*
X174227708Y-120528941D01*
X174555172Y-121116760D01*
X174563583Y-121131857D01*
X174564810Y-121134115D01*
X174705839Y-121400261D01*
X174948672Y-121858532D01*
X174949864Y-121860839D01*
X175319021Y-122594231D01*
X175320161Y-122596556D01*
X175674408Y-123338507D01*
X175675550Y-123340969D01*
X175768512Y-123547162D01*
X176010204Y-124083241D01*
X176014122Y-124091930D01*
X176015130Y-124094228D01*
X176339030Y-124853275D01*
X176340040Y-124855711D01*
X176648080Y-125622368D01*
X176649052Y-125624866D01*
X176941372Y-126400446D01*
X176942252Y-126402855D01*
X177218850Y-127185400D01*
X177219721Y-127187953D01*
X177479555Y-127977299D01*
X177480339Y-127979768D01*
X177724424Y-128776982D01*
X177725190Y-128779585D01*
X177952542Y-129584660D01*
X177953204Y-129587101D01*
X178145605Y-130327931D01*
X178163802Y-130397999D01*
X178164471Y-130400703D01*
X178357420Y-131218769D01*
X178357967Y-131221194D01*
X178535143Y-132046042D01*
X178535712Y-132048848D01*
X178694155Y-132879447D01*
X178694609Y-132881970D01*
X178836403Y-133718942D01*
X178836823Y-133721596D01*
X178960802Y-134563874D01*
X178961180Y-134566657D01*
X179066492Y-135415048D01*
X179066789Y-135417675D01*
X179154440Y-136272525D01*
X179154679Y-136275121D01*
X179224562Y-137134393D01*
X179224761Y-137137254D01*
X179274967Y-138001586D01*
X179275089Y-138004146D01*
X179307582Y-138873565D01*
X179307656Y-138876381D01*
X179320514Y-139754669D01*
X179320525Y-139755746D01*
X179321476Y-139915638D01*
X179321470Y-139917771D01*
X179311606Y-140794649D01*
X179311547Y-140797320D01*
X179282994Y-141667728D01*
X179282877Y-141670423D01*
X179235616Y-142535900D01*
X179235437Y-142538617D01*
X179169494Y-143398825D01*
X179169254Y-143401559D01*
X179084586Y-144257099D01*
X179084298Y-144259723D01*
X178981900Y-145109432D01*
X178981553Y-145112072D01*
X178861442Y-145955809D01*
X178861039Y-145958439D01*
X178723288Y-146796751D01*
X178722790Y-146799575D01*
X178566334Y-147631050D01*
X178565832Y-147633578D01*
X178392515Y-148459788D01*
X178391949Y-148462351D01*
X178202002Y-149281186D01*
X178201351Y-149283855D01*
X177993667Y-150096874D01*
X177993010Y-150099342D01*
X177769579Y-150904483D01*
X177768808Y-150907144D01*
X177527717Y-151706187D01*
X177526944Y-151708655D01*
X177270084Y-152499902D01*
X177269209Y-152502500D01*
X176995611Y-153285892D01*
X176994740Y-153288304D01*
X176705320Y-154065016D01*
X176704378Y-154067466D01*
X176399318Y-154836022D01*
X176398298Y-154838513D01*
X176077374Y-155598494D01*
X176076374Y-155600796D01*
X175740672Y-156352922D01*
X175739566Y-156355331D01*
X175388198Y-157099404D01*
X175387069Y-157101731D01*
X175021053Y-157836715D01*
X175019811Y-157839143D01*
X174637966Y-158565435D01*
X174636760Y-158567672D01*
X174240943Y-159284477D01*
X174239696Y-159286682D01*
X173829127Y-159995579D01*
X173827822Y-159997779D01*
X173403513Y-160696756D01*
X173402160Y-160698934D01*
X172964259Y-161387767D01*
X172962788Y-161390026D01*
X172510113Y-162069040D01*
X172508685Y-162071135D01*
X172042915Y-162739756D01*
X172041472Y-162741785D01*
X171561902Y-163401562D01*
X171560384Y-163403605D01*
X171068332Y-164052130D01*
X171066696Y-164054239D01*
X170560865Y-164691939D01*
X170559258Y-164693923D01*
X170040267Y-165321244D01*
X170038692Y-165323109D01*
X169508121Y-165939318D01*
X169506367Y-165941312D01*
X168963124Y-166545574D01*
X168961397Y-166547456D01*
X168405142Y-167141122D01*
X168403382Y-167142962D01*
X167835355Y-167724772D01*
X167833556Y-167726577D01*
X167253532Y-168296752D01*
X167251773Y-168298448D01*
X166661072Y-168856661D01*
X166659129Y-168858458D01*
X166055844Y-169404662D01*
X166053933Y-169406356D01*
X165439691Y-169939880D01*
X165437745Y-169941536D01*
X164812556Y-170462365D01*
X164810577Y-170463979D01*
X164174498Y-170972053D01*
X164172561Y-170973569D01*
X163526993Y-171468572D01*
X163524786Y-171470226D01*
X162867351Y-171951492D01*
X162865356Y-171952922D01*
X162197691Y-172421666D01*
X162195569Y-172423123D01*
X161518386Y-172877859D01*
X161516236Y-172879271D01*
X160829089Y-173320305D01*
X160826916Y-173321668D01*
X160129805Y-173748994D01*
X160127675Y-173750271D01*
X159421841Y-174163731D01*
X159419512Y-174165061D01*
X158704159Y-174563573D01*
X158701872Y-174564816D01*
X157977584Y-174948610D01*
X157975217Y-174949832D01*
X157240901Y-175318958D01*
X157238636Y-175320068D01*
X156496358Y-175674472D01*
X156493952Y-175675589D01*
X155743926Y-176014182D01*
X155741572Y-176015215D01*
X154982811Y-176338992D01*
X154980324Y-176340022D01*
X154212612Y-176648091D01*
X154210213Y-176649025D01*
X153435470Y-176941399D01*
X153433013Y-176942297D01*
X152650598Y-177218850D01*
X152648045Y-177219721D01*
X151858787Y-177479526D01*
X151856277Y-177480323D01*
X151057961Y-177724444D01*
X151055437Y-177725186D01*
X150251301Y-177952549D01*
X150248734Y-177953245D01*
X149437995Y-178163801D01*
X149435291Y-178164471D01*
X148617262Y-178357413D01*
X148614837Y-178357960D01*
X147789948Y-178535144D01*
X147787142Y-178535713D01*
X146956560Y-178694154D01*
X146954037Y-178694608D01*
X146117043Y-178836405D01*
X146114389Y-178836825D01*
X145402913Y-178941551D01*
X145333721Y-178931839D01*
X145280764Y-178886261D01*
X145260856Y-178819288D01*
X145280316Y-178752183D01*
X145281754Y-178749981D01*
X145297565Y-178726318D01*
X145297571Y-178726307D01*
X145365413Y-178562520D01*
X145365415Y-178562512D01*
X145399999Y-178388646D01*
X145400000Y-178388643D01*
X145400000Y-178200000D01*
X144800000Y-178200000D01*
X144800000Y-177800000D01*
X145400000Y-177800000D01*
X145400000Y-177611357D01*
X145399999Y-177611353D01*
X145365415Y-177437487D01*
X145365413Y-177437479D01*
X145297571Y-177273692D01*
X145297566Y-177273683D01*
X145199076Y-177126283D01*
X145199073Y-177126279D01*
X145073720Y-177000926D01*
X145073716Y-177000923D01*
X144926316Y-176902433D01*
X144926307Y-176902428D01*
X144762520Y-176834586D01*
X144762512Y-176834584D01*
X144700000Y-176822149D01*
X144700000Y-177475735D01*
X144684205Y-177459940D01*
X144615796Y-177420444D01*
X144539496Y-177400000D01*
X144460504Y-177400000D01*
X144384204Y-177420444D01*
X144315795Y-177459940D01*
X144300000Y-177475735D01*
X144300000Y-176822149D01*
X144237487Y-176834584D01*
X144237479Y-176834586D01*
X144073692Y-176902428D01*
X144073683Y-176902433D01*
X143926283Y-177000923D01*
X143926279Y-177000926D01*
X143800926Y-177126279D01*
X143800923Y-177126283D01*
X143702433Y-177273683D01*
X143702428Y-177273692D01*
X143634586Y-177437479D01*
X143634584Y-177437487D01*
X143600000Y-177611353D01*
X143600000Y-177800000D01*
X144200000Y-177800000D01*
X144200000Y-178200000D01*
X143600000Y-178200000D01*
X143600000Y-178388646D01*
X143634584Y-178562512D01*
X143634586Y-178562520D01*
X143702428Y-178726307D01*
X143702433Y-178726316D01*
X143800923Y-178873716D01*
X143800926Y-178873720D01*
X143849026Y-178921820D01*
X143882511Y-178983143D01*
X143877527Y-179052835D01*
X143835655Y-179108768D01*
X143773993Y-179132854D01*
X143563470Y-179154440D01*
X143560873Y-179154679D01*
X142701608Y-179224561D01*
X142698748Y-179224760D01*
X141834412Y-179274967D01*
X141831852Y-179275089D01*
X140962433Y-179307582D01*
X140959617Y-179307656D01*
X140081329Y-179320514D01*
X140080252Y-179320525D01*
X139920360Y-179321476D01*
X139918227Y-179321470D01*
X139041349Y-179311606D01*
X139038678Y-179311547D01*
X138168270Y-179282994D01*
X138165575Y-179282877D01*
X137300098Y-179235616D01*
X137297381Y-179235437D01*
X136544586Y-179177728D01*
X136479247Y-179152977D01*
X136437662Y-179096830D01*
X136433034Y-179027114D01*
X136466383Y-178966409D01*
X136559077Y-178873715D01*
X136657566Y-178726316D01*
X136657571Y-178726307D01*
X136725413Y-178562520D01*
X136725415Y-178562512D01*
X136759999Y-178388646D01*
X136760000Y-178388643D01*
X136760000Y-178200000D01*
X136160000Y-178200000D01*
X136160000Y-177800000D01*
X136760000Y-177800000D01*
X136760000Y-177611357D01*
X136759999Y-177611353D01*
X136725415Y-177437487D01*
X136725413Y-177437479D01*
X136657571Y-177273692D01*
X136657566Y-177273683D01*
X136559076Y-177126283D01*
X136559073Y-177126279D01*
X136433720Y-177000926D01*
X136433716Y-177000923D01*
X136286316Y-176902433D01*
X136286307Y-176902428D01*
X136122520Y-176834586D01*
X136122512Y-176834584D01*
X136060000Y-176822149D01*
X136060000Y-177475735D01*
X136044205Y-177459940D01*
X135975796Y-177420444D01*
X135899496Y-177400000D01*
X135820504Y-177400000D01*
X135744204Y-177420444D01*
X135675795Y-177459940D01*
X135660000Y-177475735D01*
X135660000Y-176822149D01*
X135597487Y-176834584D01*
X135597479Y-176834586D01*
X135433692Y-176902428D01*
X135433683Y-176902433D01*
X135286283Y-177000923D01*
X135286279Y-177000926D01*
X135160926Y-177126279D01*
X135160923Y-177126283D01*
X135062433Y-177273683D01*
X135062428Y-177273692D01*
X134994586Y-177437479D01*
X134994584Y-177437487D01*
X134960000Y-177611353D01*
X134960000Y-177800000D01*
X135560000Y-177800000D01*
X135560000Y-178200000D01*
X134960000Y-178200000D01*
X134960000Y-178388646D01*
X134994584Y-178562512D01*
X134994586Y-178562520D01*
X135062428Y-178726307D01*
X135062436Y-178726321D01*
X135127724Y-178824032D01*
X135148602Y-178890709D01*
X135130117Y-178958089D01*
X135078138Y-179004779D01*
X135009786Y-179016031D01*
X134726566Y-178981900D01*
X134723926Y-178981553D01*
X133954956Y-178872085D01*
X133880180Y-178861440D01*
X133877568Y-178861040D01*
X133039237Y-178723286D01*
X133036434Y-178722792D01*
X132748917Y-178668691D01*
X132204948Y-178566334D01*
X132202420Y-178565832D01*
X131376210Y-178392515D01*
X131373647Y-178391949D01*
X130554812Y-178202002D01*
X130552143Y-178201351D01*
X129739124Y-177993667D01*
X129736656Y-177993010D01*
X128931515Y-177769579D01*
X128928854Y-177768808D01*
X128129811Y-177527717D01*
X128127343Y-177526944D01*
X127336096Y-177270084D01*
X127333498Y-177269209D01*
X126550106Y-176995611D01*
X126547694Y-176994740D01*
X125770982Y-176705320D01*
X125768532Y-176704378D01*
X124999976Y-176399318D01*
X124997485Y-176398298D01*
X124237372Y-176077317D01*
X124235125Y-176076342D01*
X123482104Y-175740682D01*
X123479583Y-175739524D01*
X122736684Y-175388244D01*
X122734414Y-175387142D01*
X121999264Y-175021043D01*
X121996837Y-175019801D01*
X121270415Y-174637889D01*
X121268240Y-174636718D01*
X120550559Y-174240960D01*
X120548226Y-174239640D01*
X119840509Y-173829183D01*
X119838375Y-173827916D01*
X119812558Y-173812244D01*
X119139242Y-173403513D01*
X119137085Y-173402174D01*
X118448231Y-172964259D01*
X118445972Y-172962788D01*
X118232001Y-172820141D01*
X118187140Y-172766576D01*
X118178360Y-172697260D01*
X118205792Y-172637264D01*
X118769217Y-171965800D01*
X118818124Y-171884409D01*
X118846662Y-171760794D01*
X118843450Y-171724086D01*
X118835605Y-171634412D01*
X118786035Y-171517629D01*
X118723742Y-171445971D01*
X118723740Y-171445969D01*
X118723739Y-171445968D01*
X117886995Y-170743858D01*
X117832799Y-170698382D01*
X117751409Y-170649476D01*
X117751405Y-170649474D01*
X117627796Y-170620938D01*
X117627790Y-170620937D01*
X117501414Y-170631994D01*
X117501411Y-170631994D01*
X117501411Y-170631995D01*
X117384631Y-170681565D01*
X117384628Y-170681566D01*
X117384627Y-170681568D01*
X117312970Y-170743858D01*
X116674657Y-171504572D01*
X116647347Y-171550020D01*
X116595944Y-171597344D01*
X116527117Y-171609364D01*
X116468084Y-171586402D01*
X116434540Y-171561983D01*
X116432607Y-171560546D01*
X115783868Y-171068332D01*
X115781759Y-171066696D01*
X115144059Y-170560865D01*
X115142075Y-170559258D01*
X114830779Y-170301719D01*
X114514715Y-170040234D01*
X114512930Y-170038727D01*
X114152919Y-169728749D01*
X113896680Y-169508121D01*
X113894686Y-169506367D01*
X113766520Y-169391143D01*
X115856338Y-169391143D01*
X115860206Y-169427944D01*
X115860885Y-169440905D01*
X115860885Y-169472453D01*
X115868253Y-169509495D01*
X115869956Y-169520720D01*
X115874476Y-169563716D01*
X115874476Y-169563718D01*
X115874477Y-169563720D01*
X115879647Y-169579634D01*
X115883986Y-169592988D01*
X115887670Y-169607107D01*
X115892609Y-169631935D01*
X115909442Y-169672576D01*
X115912810Y-169681706D01*
X115928096Y-169728749D01*
X115928097Y-169728752D01*
X115928099Y-169728755D01*
X115940360Y-169749993D01*
X115940367Y-169750004D01*
X115947539Y-169764548D01*
X115954835Y-169782162D01*
X115954836Y-169782164D01*
X115954837Y-169782165D01*
X115982729Y-169823908D01*
X115987012Y-169830795D01*
X116014861Y-169879030D01*
X116014865Y-169879035D01*
X116027100Y-169892624D01*
X116038051Y-169906704D01*
X116045178Y-169917371D01*
X116045179Y-169917372D01*
X116085082Y-169957274D01*
X116089553Y-169961985D01*
X116130973Y-170007988D01*
X116140710Y-170015062D01*
X116155508Y-170027701D01*
X116160155Y-170032348D01*
X116160158Y-170032350D01*
X116160160Y-170032352D01*
X116212263Y-170067165D01*
X116216228Y-170069928D01*
X116271361Y-170109986D01*
X116276633Y-170112333D01*
X116276644Y-170112338D01*
X116295099Y-170122515D01*
X116295148Y-170122547D01*
X116295364Y-170122692D01*
X116359015Y-170149056D01*
X116361899Y-170150295D01*
X116429886Y-170180566D01*
X116434198Y-170181967D01*
X116439610Y-170183664D01*
X116439766Y-170183151D01*
X116445593Y-170184918D01*
X116445596Y-170184920D01*
X116519316Y-170199583D01*
X116520775Y-170199884D01*
X116599621Y-170216644D01*
X116773148Y-170216644D01*
X116773149Y-170216644D01*
X116852011Y-170199880D01*
X116853436Y-170199587D01*
X116927174Y-170184920D01*
X116927179Y-170184917D01*
X116927183Y-170184917D01*
X116933012Y-170183149D01*
X116933167Y-170183660D01*
X116938640Y-170181944D01*
X116942880Y-170180567D01*
X116942880Y-170180566D01*
X116942884Y-170180566D01*
X117010879Y-170150291D01*
X117013743Y-170149061D01*
X117077406Y-170122692D01*
X117077659Y-170122522D01*
X117096127Y-170112337D01*
X117101409Y-170109986D01*
X117156548Y-170069923D01*
X117160512Y-170067162D01*
X117203121Y-170038692D01*
X117212610Y-170032352D01*
X117217255Y-170027706D01*
X117232052Y-170015067D01*
X117241795Y-170007989D01*
X117283237Y-169961961D01*
X117287668Y-169957292D01*
X117327593Y-169917369D01*
X117334725Y-169906693D01*
X117345670Y-169892621D01*
X117357907Y-169879033D01*
X117385758Y-169830791D01*
X117390018Y-169823940D01*
X117417933Y-169782165D01*
X117425231Y-169764546D01*
X117432402Y-169750003D01*
X117444671Y-169728755D01*
X117459962Y-169681692D01*
X117463317Y-169672597D01*
X117480161Y-169631933D01*
X117485100Y-169607101D01*
X117488786Y-169592979D01*
X117490323Y-169588247D01*
X117498293Y-169563720D01*
X117502812Y-169520720D01*
X117504510Y-169509517D01*
X117511885Y-169472449D01*
X117511885Y-169440905D01*
X117512564Y-169427945D01*
X117514833Y-169406356D01*
X117516432Y-169391144D01*
X117516431Y-169391140D01*
X117516761Y-169388007D01*
X117543344Y-169323392D01*
X117600641Y-169283407D01*
X117670460Y-169280746D01*
X117719787Y-169305977D01*
X118097510Y-169622923D01*
X118136213Y-169681095D01*
X118137321Y-169750956D01*
X118124093Y-169781779D01*
X118084877Y-169847042D01*
X118084876Y-169847045D01*
X118056340Y-169970655D01*
X118056339Y-169970661D01*
X118067396Y-170097038D01*
X118116966Y-170213821D01*
X118179259Y-170285479D01*
X118179260Y-170285480D01*
X118179263Y-170285483D01*
X119070202Y-171033068D01*
X119151593Y-171081975D01*
X119151594Y-171081975D01*
X119151596Y-171081976D01*
X119196528Y-171092348D01*
X119275207Y-171110513D01*
X119275209Y-171110512D01*
X119275211Y-171110513D01*
X119338399Y-171104984D01*
X119401591Y-171099456D01*
X119518371Y-171049886D01*
X119590034Y-170987590D01*
X120228345Y-170226879D01*
X120277252Y-170145488D01*
X120305790Y-170021873D01*
X120305696Y-170020800D01*
X120294733Y-169895491D01*
X120293510Y-169892610D01*
X120246629Y-169782162D01*
X120245163Y-169778708D01*
X120182870Y-169707050D01*
X120182868Y-169707048D01*
X120182867Y-169707047D01*
X119296536Y-168963328D01*
X119257835Y-168905158D01*
X119256727Y-168835297D01*
X119281254Y-168788634D01*
X119619751Y-168385229D01*
X119816065Y-168151271D01*
X119864972Y-168069879D01*
X119893510Y-167946265D01*
X119889801Y-167903874D01*
X119882453Y-167819883D01*
X119878656Y-167810938D01*
X119855211Y-167755703D01*
X119832883Y-167703100D01*
X119770590Y-167631442D01*
X119770588Y-167631440D01*
X119770587Y-167631439D01*
X119032857Y-167012411D01*
X119032855Y-167012410D01*
X119032853Y-167012408D01*
X118970413Y-166974890D01*
X118951466Y-166963505D01*
X118951467Y-166963505D01*
X118875753Y-166946025D01*
X118827852Y-166934966D01*
X118827851Y-166934966D01*
X118827848Y-166934966D01*
X118701467Y-166946024D01*
X118701464Y-166946025D01*
X118584690Y-166995592D01*
X118584684Y-166995596D01*
X118513027Y-167057886D01*
X117315486Y-168485062D01*
X117266581Y-168566452D01*
X117266581Y-168566453D01*
X117263066Y-168581679D01*
X117228805Y-168642572D01*
X117167062Y-168675276D01*
X117097439Y-168669407D01*
X117083065Y-168661936D01*
X117082781Y-168662469D01*
X117077403Y-168659594D01*
X117013811Y-168633254D01*
X117010829Y-168631973D01*
X116942885Y-168601722D01*
X116939555Y-168600640D01*
X116933151Y-168598646D01*
X116933003Y-168599136D01*
X116927173Y-168597367D01*
X116853540Y-168582720D01*
X116851952Y-168582393D01*
X116773153Y-168565644D01*
X116773149Y-168565644D01*
X116599621Y-168565644D01*
X116520757Y-168582406D01*
X116519171Y-168582732D01*
X116445588Y-168597369D01*
X116439765Y-168599136D01*
X116439622Y-168598667D01*
X116432681Y-168600813D01*
X116429889Y-168601720D01*
X116361956Y-168631965D01*
X116358980Y-168633243D01*
X116295367Y-168659594D01*
X116295360Y-168659598D01*
X116295081Y-168659785D01*
X116276654Y-168669945D01*
X116271368Y-168672298D01*
X116271358Y-168672304D01*
X116216249Y-168712342D01*
X116212260Y-168715122D01*
X116160163Y-168749933D01*
X116160153Y-168749941D01*
X116155507Y-168754588D01*
X116140721Y-168767216D01*
X116130980Y-168774293D01*
X116089552Y-168820303D01*
X116085086Y-168825008D01*
X116045180Y-168864915D01*
X116045175Y-168864920D01*
X116038044Y-168875593D01*
X116027100Y-168889663D01*
X116014864Y-168903252D01*
X115987017Y-168951484D01*
X115982734Y-168958370D01*
X115954839Y-169000118D01*
X115954838Y-169000120D01*
X115947538Y-169017742D01*
X115940371Y-169032274D01*
X115928098Y-169053533D01*
X115912813Y-169100577D01*
X115909444Y-169109708D01*
X115892608Y-169150355D01*
X115892607Y-169150357D01*
X115887668Y-169175185D01*
X115883985Y-169189300D01*
X115874477Y-169218566D01*
X115869956Y-169261568D01*
X115868254Y-169272792D01*
X115860887Y-169309832D01*
X115860885Y-169309840D01*
X115860885Y-169341381D01*
X115860206Y-169354342D01*
X115856338Y-169391143D01*
X113766520Y-169391143D01*
X113534274Y-169182350D01*
X113290384Y-168963087D01*
X113288581Y-168961433D01*
X112694861Y-168405127D01*
X112693036Y-168403382D01*
X112539601Y-168253582D01*
X112468301Y-168183971D01*
X112303896Y-168023460D01*
X112269678Y-167962542D01*
X112273827Y-167892796D01*
X112306228Y-167845459D01*
X112305556Y-167844799D01*
X112308959Y-167841335D01*
X112308963Y-167841330D01*
X112308969Y-167841325D01*
X112947280Y-167080614D01*
X112996187Y-166999223D01*
X113024725Y-166875608D01*
X113024692Y-166875233D01*
X113013668Y-166749226D01*
X113011425Y-166743942D01*
X112979618Y-166669007D01*
X112964098Y-166632443D01*
X112901805Y-166560785D01*
X112901803Y-166560783D01*
X112901802Y-166560782D01*
X112233597Y-166000093D01*
X112010862Y-165813196D01*
X111929472Y-165764290D01*
X111929468Y-165764288D01*
X111805859Y-165735752D01*
X111805853Y-165735751D01*
X111679477Y-165746808D01*
X111679474Y-165746808D01*
X111679474Y-165746809D01*
X111562694Y-165796379D01*
X111562691Y-165796380D01*
X111562690Y-165796382D01*
X111491030Y-165858675D01*
X110986886Y-166459489D01*
X110928715Y-166498191D01*
X110858854Y-166499299D01*
X110799975Y-166463008D01*
X110529892Y-166164700D01*
X110431322Y-166055828D01*
X110429642Y-166053933D01*
X110398177Y-166017708D01*
X110162877Y-165746809D01*
X109896118Y-165439691D01*
X109894462Y-165437745D01*
X109428095Y-164877931D01*
X109373621Y-164812541D01*
X109372019Y-164810577D01*
X109355962Y-164790475D01*
X109163881Y-164550000D01*
X108863945Y-164174498D01*
X108862429Y-164172561D01*
X108367426Y-163526993D01*
X108365772Y-163524786D01*
X108347272Y-163499514D01*
X107884487Y-162867325D01*
X107883076Y-162865356D01*
X107847092Y-162814102D01*
X107414152Y-162197435D01*
X107412778Y-162195435D01*
X107388789Y-162159789D01*
X106957024Y-161518203D01*
X106955546Y-161515955D01*
X106514693Y-160829089D01*
X106513330Y-160826916D01*
X106086158Y-160130055D01*
X106084816Y-160127814D01*
X105672351Y-159421997D01*
X105671086Y-159419779D01*
X105536339Y-159177900D01*
X105272390Y-158704095D01*
X105271216Y-158701935D01*
X104947853Y-158091692D01*
X104887388Y-157977584D01*
X104886166Y-157975217D01*
X104517040Y-157240901D01*
X104515930Y-157238636D01*
X104448509Y-157097426D01*
X104161498Y-156496298D01*
X104160437Y-156494013D01*
X103821813Y-155743921D01*
X103820783Y-155741572D01*
X103810243Y-155716873D01*
X103568561Y-155150499D01*
X103497006Y-154982811D01*
X103495976Y-154980324D01*
X103268874Y-154414383D01*
X103187902Y-154212600D01*
X103186973Y-154210213D01*
X103155817Y-154127656D01*
X102894596Y-153435464D01*
X102893701Y-153433013D01*
X102878169Y-153389069D01*
X102617138Y-152650568D01*
X102616277Y-152648045D01*
X102606674Y-152618872D01*
X102356460Y-151858749D01*
X102355675Y-151856277D01*
X102347985Y-151831130D01*
X102111550Y-151057950D01*
X102110812Y-151055438D01*
X102068503Y-150905800D01*
X101883419Y-150251198D01*
X101882774Y-150248816D01*
X101672096Y-149437608D01*
X101671485Y-149435152D01*
X101477595Y-148617268D01*
X101477017Y-148614701D01*
X101300890Y-147790158D01*
X101300356Y-147787516D01*
X101296684Y-147768267D01*
X101141838Y-146956531D01*
X101141390Y-146954037D01*
X101108374Y-146759150D01*
X101116584Y-146689768D01*
X101161004Y-146635835D01*
X101227530Y-146614480D01*
X101295041Y-146632481D01*
X101318313Y-146650760D01*
X106241399Y-151573845D01*
X106274884Y-151635168D01*
X106269900Y-151704860D01*
X106228028Y-151760793D01*
X106183395Y-151781922D01*
X106149777Y-151790208D01*
X106149774Y-151790209D01*
X105999150Y-151869263D01*
X105871816Y-151982072D01*
X105775182Y-152122068D01*
X105714860Y-152281125D01*
X105714859Y-152281130D01*
X105694355Y-152450000D01*
X105714859Y-152618870D01*
X105714860Y-152618875D01*
X105741442Y-152688963D01*
X105749500Y-152732934D01*
X105749500Y-156278849D01*
X105751517Y-156288989D01*
X105771852Y-156391216D01*
X105772329Y-156393611D01*
X105772329Y-156393620D01*
X105772331Y-156393620D01*
X105774499Y-156404524D01*
X105774500Y-156404526D01*
X105823533Y-156522904D01*
X105871210Y-156594258D01*
X105879350Y-156606441D01*
X105894726Y-156629452D01*
X105894727Y-156629453D01*
X113103072Y-163837797D01*
X113136557Y-163899120D01*
X113131573Y-163968812D01*
X113089701Y-164024745D01*
X113063845Y-164039619D01*
X113021827Y-164057455D01*
X113021818Y-164057461D01*
X112950161Y-164119751D01*
X112311847Y-164880465D01*
X112262941Y-164961855D01*
X112262939Y-164961859D01*
X112234403Y-165085469D01*
X112234402Y-165085475D01*
X112245459Y-165211852D01*
X112295029Y-165328635D01*
X112357322Y-165400293D01*
X112357323Y-165400294D01*
X112357326Y-165400297D01*
X113248265Y-166147882D01*
X113329656Y-166196789D01*
X113329657Y-166196789D01*
X113329659Y-166196790D01*
X113374591Y-166207162D01*
X113453270Y-166225327D01*
X113453272Y-166225326D01*
X113453274Y-166225327D01*
X113516462Y-166219798D01*
X113579654Y-166214270D01*
X113696434Y-166164700D01*
X113753896Y-166114748D01*
X113817404Y-166085622D01*
X113886579Y-166095456D01*
X113914952Y-166113341D01*
X114296525Y-166433518D01*
X114335226Y-166491689D01*
X114336334Y-166561550D01*
X114299498Y-166620920D01*
X114242601Y-166649797D01*
X114222627Y-166654043D01*
X114221038Y-166654370D01*
X114147455Y-166669007D01*
X114141632Y-166670774D01*
X114141489Y-166670305D01*
X114134548Y-166672451D01*
X114131756Y-166673358D01*
X114063823Y-166703603D01*
X114060847Y-166704881D01*
X113997234Y-166731232D01*
X113997227Y-166731236D01*
X113996948Y-166731423D01*
X113978521Y-166741583D01*
X113973235Y-166743936D01*
X113973225Y-166743942D01*
X113918116Y-166783980D01*
X113914127Y-166786760D01*
X113862030Y-166821571D01*
X113862020Y-166821579D01*
X113857374Y-166826226D01*
X113842588Y-166838854D01*
X113832847Y-166845931D01*
X113791419Y-166891941D01*
X113786953Y-166896646D01*
X113747047Y-166936553D01*
X113747042Y-166936558D01*
X113739911Y-166947231D01*
X113728967Y-166961301D01*
X113716731Y-166974890D01*
X113688884Y-167023122D01*
X113684601Y-167030008D01*
X113656706Y-167071756D01*
X113656705Y-167071758D01*
X113649405Y-167089380D01*
X113642238Y-167103912D01*
X113629965Y-167125171D01*
X113614680Y-167172215D01*
X113611311Y-167181346D01*
X113594475Y-167221993D01*
X113594474Y-167221995D01*
X113589535Y-167246823D01*
X113585852Y-167260938D01*
X113576344Y-167290204D01*
X113571823Y-167333206D01*
X113570121Y-167344430D01*
X113563521Y-167377614D01*
X113562752Y-167381478D01*
X113562752Y-167413019D01*
X113562073Y-167425980D01*
X113558205Y-167462781D01*
X113562073Y-167499582D01*
X113562752Y-167512543D01*
X113562752Y-167544091D01*
X113570120Y-167581133D01*
X113571823Y-167592358D01*
X113576343Y-167635354D01*
X113576343Y-167635356D01*
X113576344Y-167635358D01*
X113581127Y-167650078D01*
X113585853Y-167664626D01*
X113589537Y-167678745D01*
X113594476Y-167703573D01*
X113611309Y-167744214D01*
X113614677Y-167753344D01*
X113629963Y-167800387D01*
X113629964Y-167800390D01*
X113629966Y-167800393D01*
X113642227Y-167821631D01*
X113642234Y-167821642D01*
X113649406Y-167836186D01*
X113656702Y-167853800D01*
X113656703Y-167853802D01*
X113656704Y-167853803D01*
X113684596Y-167895546D01*
X113688879Y-167902433D01*
X113716728Y-167950668D01*
X113716730Y-167950671D01*
X113718202Y-167952306D01*
X113728967Y-167964262D01*
X113739918Y-167978342D01*
X113747045Y-167989009D01*
X113747046Y-167989010D01*
X113786949Y-168028912D01*
X113791420Y-168033623D01*
X113832840Y-168079626D01*
X113842577Y-168086700D01*
X113857375Y-168099339D01*
X113862022Y-168103986D01*
X113862025Y-168103988D01*
X113862027Y-168103990D01*
X113914130Y-168138803D01*
X113918095Y-168141566D01*
X113973228Y-168181624D01*
X113978500Y-168183971D01*
X113978511Y-168183976D01*
X113996966Y-168194153D01*
X113997015Y-168194185D01*
X113997231Y-168194330D01*
X114060882Y-168220694D01*
X114063766Y-168221933D01*
X114131753Y-168252204D01*
X114136065Y-168253605D01*
X114141477Y-168255302D01*
X114141633Y-168254789D01*
X114147460Y-168256556D01*
X114147463Y-168256558D01*
X114221183Y-168271221D01*
X114222642Y-168271522D01*
X114301488Y-168288282D01*
X114475015Y-168288282D01*
X114475016Y-168288282D01*
X114553878Y-168271518D01*
X114555303Y-168271225D01*
X114629041Y-168256558D01*
X114629046Y-168256555D01*
X114629050Y-168256555D01*
X114634879Y-168254787D01*
X114635034Y-168255298D01*
X114640507Y-168253582D01*
X114644747Y-168252205D01*
X114644747Y-168252204D01*
X114644751Y-168252204D01*
X114712746Y-168221929D01*
X114715610Y-168220699D01*
X114779273Y-168194330D01*
X114779526Y-168194160D01*
X114797994Y-168183975D01*
X114803276Y-168181624D01*
X114858415Y-168141561D01*
X114862379Y-168138800D01*
X114905585Y-168109931D01*
X114914477Y-168103990D01*
X114919122Y-168099344D01*
X114933919Y-168086705D01*
X114943662Y-168079627D01*
X114985104Y-168033599D01*
X114989535Y-168028930D01*
X115029460Y-167989007D01*
X115036592Y-167978331D01*
X115047537Y-167964259D01*
X115059774Y-167950671D01*
X115087625Y-167902429D01*
X115091885Y-167895578D01*
X115119800Y-167853803D01*
X115127098Y-167836184D01*
X115134269Y-167821641D01*
X115146538Y-167800393D01*
X115161829Y-167753330D01*
X115165184Y-167744235D01*
X115182028Y-167703571D01*
X115186967Y-167678739D01*
X115190653Y-167664617D01*
X115195377Y-167650078D01*
X115200160Y-167635358D01*
X115204679Y-167592358D01*
X115206377Y-167581155D01*
X115213752Y-167544087D01*
X115213752Y-167512543D01*
X115214431Y-167499584D01*
X115216349Y-167481334D01*
X115218299Y-167462782D01*
X115218298Y-167462778D01*
X115218628Y-167459645D01*
X115245211Y-167395030D01*
X115302508Y-167355044D01*
X115372327Y-167352383D01*
X115421654Y-167377613D01*
X115800564Y-167695556D01*
X115881955Y-167744462D01*
X116005569Y-167773001D01*
X116131953Y-167761943D01*
X116248733Y-167712373D01*
X116320396Y-167650078D01*
X117517932Y-166222908D01*
X117566839Y-166141516D01*
X117595377Y-166017902D01*
X117595376Y-166017901D01*
X117597572Y-166008393D01*
X117600933Y-166009168D01*
X117619121Y-165960104D01*
X117630850Y-165946540D01*
X117761741Y-165815649D01*
X132875000Y-165815649D01*
X132877899Y-165852489D01*
X132877900Y-165852495D01*
X132923716Y-166010193D01*
X132923717Y-166010196D01*
X133007314Y-166151552D01*
X133007321Y-166151561D01*
X133123438Y-166267678D01*
X133123447Y-166267685D01*
X133264803Y-166351282D01*
X133264806Y-166351283D01*
X133422504Y-166397099D01*
X133422510Y-166397100D01*
X133459350Y-166399999D01*
X133459366Y-166400000D01*
X133800000Y-166400000D01*
X133800000Y-165700000D01*
X132875000Y-165700000D01*
X132875000Y-165815649D01*
X117761741Y-165815649D01*
X118340573Y-165236819D01*
X118401896Y-165203334D01*
X118428254Y-165200500D01*
X119452555Y-165200500D01*
X119496527Y-165208558D01*
X119499772Y-165209788D01*
X119499775Y-165209790D01*
X119664944Y-165250500D01*
X119835056Y-165250500D01*
X120000225Y-165209790D01*
X120079692Y-165168081D01*
X120150849Y-165130736D01*
X120150850Y-165130734D01*
X120150852Y-165130734D01*
X120278183Y-165017929D01*
X120374818Y-164877930D01*
X120435140Y-164718872D01*
X120455645Y-164550000D01*
X120435140Y-164381128D01*
X120374818Y-164222070D01*
X120354745Y-164192990D01*
X120333345Y-164161986D01*
X120278183Y-164082071D01*
X120150852Y-163969266D01*
X120150849Y-163969263D01*
X120000226Y-163890210D01*
X119835056Y-163849500D01*
X119664944Y-163849500D01*
X119499776Y-163890209D01*
X119496527Y-163891442D01*
X119452555Y-163899500D01*
X118043375Y-163899500D01*
X117917707Y-163924497D01*
X117917701Y-163924499D01*
X117799320Y-163973534D01*
X117692772Y-164044726D01*
X116741764Y-164995734D01*
X116680441Y-165029219D01*
X116626189Y-165028875D01*
X116583254Y-165018962D01*
X116529719Y-165006603D01*
X116529718Y-165006603D01*
X116523853Y-165005249D01*
X116462960Y-164970988D01*
X116437604Y-164932877D01*
X116385683Y-164810556D01*
X116323390Y-164738898D01*
X116323388Y-164738896D01*
X116323387Y-164738895D01*
X115585657Y-164119867D01*
X115585655Y-164119866D01*
X115585653Y-164119864D01*
X115522757Y-164082072D01*
X115504266Y-164070961D01*
X115504267Y-164070961D01*
X115431836Y-164054239D01*
X115380652Y-164042422D01*
X115380651Y-164042422D01*
X115380648Y-164042421D01*
X115254272Y-164053479D01*
X115245802Y-164055591D01*
X115175991Y-164052709D01*
X115128122Y-164022955D01*
X111467348Y-160362181D01*
X111433863Y-160300858D01*
X111438847Y-160231166D01*
X111480719Y-160175233D01*
X111546183Y-160150816D01*
X111555029Y-160150500D01*
X118064071Y-160150500D01*
X118166850Y-160130055D01*
X118189744Y-160125501D01*
X118308127Y-160076465D01*
X118335493Y-160058180D01*
X118335494Y-160058180D01*
X118394740Y-160018592D01*
X118414669Y-160005277D01*
X119592776Y-158827170D01*
X119663965Y-158720627D01*
X119713001Y-158602244D01*
X119713058Y-158601955D01*
X119726664Y-158533555D01*
X119738000Y-158476570D01*
X119738000Y-157962000D01*
X119757685Y-157894961D01*
X119810489Y-157849206D01*
X119862000Y-157838000D01*
X120294594Y-157838000D01*
X120361633Y-157857685D01*
X120407388Y-157910489D01*
X120413670Y-157927405D01*
X120423254Y-157960393D01*
X120423255Y-157960396D01*
X120423256Y-157960398D01*
X120460681Y-158023681D01*
X120506917Y-158101862D01*
X120506923Y-158101870D01*
X120623129Y-158218076D01*
X120623133Y-158218079D01*
X120623135Y-158218081D01*
X120651967Y-158235132D01*
X120764600Y-158301743D01*
X120771764Y-158304843D01*
X120770729Y-158307233D01*
X120818957Y-158338013D01*
X120848182Y-158401477D01*
X120849500Y-158419510D01*
X120849500Y-161064069D01*
X120861273Y-161123256D01*
X120866693Y-161150500D01*
X120866693Y-161150502D01*
X120874497Y-161189737D01*
X120874499Y-161189744D01*
X120923535Y-161308127D01*
X120993729Y-161413181D01*
X120994726Y-161414673D01*
X120994727Y-161414674D01*
X121336318Y-161756264D01*
X121364578Y-161799972D01*
X121375181Y-161827928D01*
X121375182Y-161827930D01*
X121471817Y-161967929D01*
X121557554Y-162043885D01*
X121599150Y-162080736D01*
X121749773Y-162159789D01*
X121749775Y-162159790D01*
X121914944Y-162200500D01*
X122085056Y-162200500D01*
X122250225Y-162159790D01*
X122354221Y-162105208D01*
X122400849Y-162080736D01*
X122400850Y-162080734D01*
X122400852Y-162080734D01*
X122528183Y-161967929D01*
X122624818Y-161827930D01*
X122685140Y-161668872D01*
X122705645Y-161500000D01*
X122685140Y-161331128D01*
X122682109Y-161323137D01*
X122624817Y-161172068D01*
X122559473Y-161077402D01*
X122528183Y-161032071D01*
X122400852Y-160919266D01*
X122287831Y-160859947D01*
X122257780Y-160837834D01*
X122186819Y-160766873D01*
X122153334Y-160705550D01*
X122150500Y-160679192D01*
X122150500Y-158419510D01*
X122170185Y-158352471D01*
X122222989Y-158306716D01*
X122229450Y-158304317D01*
X122235394Y-158301745D01*
X122235398Y-158301744D01*
X122376865Y-158218081D01*
X122493081Y-158101865D01*
X122576744Y-157960398D01*
X122619748Y-157812378D01*
X122622597Y-157802573D01*
X122622598Y-157802567D01*
X122625500Y-157765694D01*
X122625500Y-157134306D01*
X122622598Y-157097431D01*
X122576744Y-156939602D01*
X122493081Y-156798135D01*
X122493079Y-156798133D01*
X122493076Y-156798129D01*
X122376870Y-156681923D01*
X122376861Y-156681916D01*
X122249239Y-156606441D01*
X122201555Y-156555372D01*
X122189052Y-156486630D01*
X122215697Y-156422041D01*
X122249240Y-156392977D01*
X122376550Y-156317687D01*
X122376561Y-156317678D01*
X122492678Y-156201561D01*
X122492685Y-156201552D01*
X122576282Y-156060196D01*
X122576283Y-156060193D01*
X122622099Y-155902495D01*
X122622100Y-155902489D01*
X122624999Y-155865649D01*
X122625000Y-155865634D01*
X122625000Y-155750000D01*
X120375000Y-155750000D01*
X120375000Y-155865649D01*
X120377899Y-155902489D01*
X120377900Y-155902495D01*
X120423716Y-156060193D01*
X120423717Y-156060196D01*
X120507314Y-156201552D01*
X120507321Y-156201561D01*
X120628960Y-156323200D01*
X120627193Y-156324966D01*
X120660917Y-156371659D01*
X120664709Y-156441426D01*
X120630180Y-156502168D01*
X120568293Y-156534599D01*
X120544011Y-156537000D01*
X119859233Y-156537000D01*
X119792194Y-156517315D01*
X119746439Y-156464511D01*
X119743878Y-156458490D01*
X119741082Y-156451401D01*
X119721861Y-156402658D01*
X119721860Y-156402657D01*
X119721860Y-156402656D01*
X119630422Y-156282077D01*
X119509843Y-156190639D01*
X119485112Y-156180886D01*
X119445723Y-156165353D01*
X119390581Y-156122449D01*
X119367388Y-156056541D01*
X119383508Y-155988557D01*
X119433825Y-155940080D01*
X119445714Y-155934649D01*
X119509842Y-155909361D01*
X119630422Y-155817922D01*
X119721861Y-155697342D01*
X119777377Y-155556564D01*
X119788000Y-155468102D01*
X119788000Y-155234350D01*
X120375000Y-155234350D01*
X120375000Y-155350000D01*
X121300000Y-155350000D01*
X121700000Y-155350000D01*
X122625000Y-155350000D01*
X122625000Y-155234365D01*
X122624999Y-155234350D01*
X122622100Y-155197510D01*
X122622099Y-155197504D01*
X122576283Y-155039806D01*
X122576282Y-155039803D01*
X122492685Y-154898447D01*
X122492678Y-154898438D01*
X122376561Y-154782321D01*
X122376552Y-154782314D01*
X122235196Y-154698717D01*
X122235193Y-154698716D01*
X122077495Y-154652900D01*
X122077489Y-154652899D01*
X122040649Y-154650000D01*
X121700000Y-154650000D01*
X121700000Y-155350000D01*
X121300000Y-155350000D01*
X121300000Y-154650000D01*
X120959350Y-154650000D01*
X120922510Y-154652899D01*
X120922504Y-154652900D01*
X120764806Y-154698716D01*
X120764803Y-154698717D01*
X120623447Y-154782314D01*
X120623438Y-154782321D01*
X120507321Y-154898438D01*
X120507314Y-154898447D01*
X120423717Y-155039803D01*
X120423716Y-155039806D01*
X120377900Y-155197504D01*
X120377899Y-155197510D01*
X120375000Y-155234350D01*
X119788000Y-155234350D01*
X119788000Y-154356898D01*
X119777377Y-154268436D01*
X119746646Y-154190507D01*
X119738000Y-154145017D01*
X119738000Y-149523428D01*
X119713002Y-149397761D01*
X119713001Y-149397760D01*
X119713001Y-149397756D01*
X119663965Y-149279373D01*
X119642073Y-149246609D01*
X119642073Y-149246608D01*
X119592775Y-149172828D01*
X119592772Y-149172825D01*
X116007627Y-145587681D01*
X115974142Y-145526358D01*
X115979126Y-145456666D01*
X116007627Y-145412319D01*
X119005271Y-142414675D01*
X119005276Y-142414670D01*
X119076465Y-142308127D01*
X119125501Y-142189744D01*
X119133246Y-142150807D01*
X119150500Y-142064069D01*
X119150500Y-141000000D01*
X122294355Y-141000000D01*
X122314859Y-141168870D01*
X122314860Y-141168875D01*
X122341442Y-141238963D01*
X122349500Y-141282934D01*
X122349500Y-153389071D01*
X122370516Y-153494721D01*
X122370516Y-153494722D01*
X122374497Y-153514737D01*
X122374498Y-153514741D01*
X122374499Y-153514744D01*
X122423535Y-153633127D01*
X122460583Y-153688574D01*
X122494726Y-153739673D01*
X132860327Y-164105274D01*
X132935887Y-164155762D01*
X132973728Y-164195742D01*
X133006919Y-164251865D01*
X133006921Y-164251867D01*
X133006923Y-164251870D01*
X133123129Y-164368076D01*
X133123132Y-164368078D01*
X133123135Y-164368081D01*
X133235944Y-164434796D01*
X133250760Y-164443558D01*
X133298443Y-164494627D01*
X133310947Y-164563369D01*
X133284302Y-164627958D01*
X133250760Y-164657022D01*
X133123447Y-164732314D01*
X133123438Y-164732321D01*
X133007321Y-164848438D01*
X133007314Y-164848447D01*
X132923717Y-164989803D01*
X132923716Y-164989806D01*
X132877900Y-165147504D01*
X132877899Y-165147510D01*
X132875000Y-165184350D01*
X132875000Y-165300000D01*
X134076000Y-165300000D01*
X134143039Y-165319685D01*
X134188794Y-165372489D01*
X134200000Y-165424000D01*
X134200000Y-166400000D01*
X134540634Y-166400000D01*
X134540649Y-166399999D01*
X134577489Y-166397100D01*
X134577495Y-166397099D01*
X134735190Y-166351284D01*
X134736241Y-166350830D01*
X134737136Y-166350719D01*
X134742690Y-166349106D01*
X134742950Y-166350001D01*
X134805584Y-166342263D01*
X134868550Y-166372546D01*
X134905148Y-166432064D01*
X134909500Y-166464626D01*
X134909500Y-166732475D01*
X134929957Y-166808820D01*
X134947016Y-166872485D01*
X135019490Y-166998015D01*
X135461986Y-167440510D01*
X135461987Y-167440511D01*
X135461989Y-167440512D01*
X135500562Y-167462782D01*
X135587515Y-167512984D01*
X135727525Y-167550500D01*
X135727526Y-167550500D01*
X135872474Y-167550500D01*
X135993398Y-167550500D01*
X136060437Y-167570185D01*
X136106192Y-167622989D01*
X136116136Y-167692147D01*
X136087111Y-167755703D01*
X136081079Y-167762181D01*
X136032321Y-167810938D01*
X136032314Y-167810947D01*
X135948717Y-167952303D01*
X135948716Y-167952306D01*
X135902900Y-168110004D01*
X135902899Y-168110010D01*
X135900000Y-168146850D01*
X135900000Y-168275000D01*
X137076000Y-168275000D01*
X137143039Y-168294685D01*
X137188794Y-168347489D01*
X137200000Y-168399000D01*
X137200000Y-168551000D01*
X137180315Y-168618039D01*
X137127511Y-168663794D01*
X137076000Y-168675000D01*
X135900000Y-168675000D01*
X135900000Y-168803149D01*
X135902899Y-168839989D01*
X135902900Y-168839995D01*
X135948716Y-168997693D01*
X135948717Y-168997696D01*
X136032314Y-169139052D01*
X136032321Y-169139061D01*
X136148438Y-169255178D01*
X136148446Y-169255184D01*
X136191214Y-169280477D01*
X136238897Y-169331546D01*
X136251401Y-169400287D01*
X136224756Y-169464877D01*
X136191216Y-169493940D01*
X136148137Y-169519417D01*
X136148129Y-169519423D01*
X136031923Y-169635629D01*
X136031917Y-169635637D01*
X135948257Y-169777100D01*
X135948254Y-169777106D01*
X135902402Y-169934926D01*
X135902401Y-169934932D01*
X135899500Y-169971798D01*
X135899500Y-170628201D01*
X135902401Y-170665067D01*
X135902402Y-170665073D01*
X135948254Y-170822893D01*
X135948255Y-170822896D01*
X136031917Y-170964362D01*
X136031923Y-170964370D01*
X136148129Y-171080576D01*
X136148133Y-171080579D01*
X136148135Y-171080581D01*
X136289602Y-171164244D01*
X136331224Y-171176336D01*
X136447426Y-171210097D01*
X136447429Y-171210097D01*
X136447431Y-171210098D01*
X136484306Y-171213000D01*
X136777094Y-171213000D01*
X136844133Y-171232685D01*
X136889888Y-171285489D01*
X136900190Y-171351947D01*
X136894355Y-171400000D01*
X136914859Y-171568869D01*
X136914860Y-171568874D01*
X136951952Y-171666676D01*
X136953829Y-171691040D01*
X136969941Y-171714112D01*
X136975182Y-171727930D01*
X137057551Y-171847261D01*
X137079433Y-171913613D01*
X137079500Y-171917699D01*
X137079500Y-171955948D01*
X137065985Y-172012242D01*
X137044352Y-172054698D01*
X137029500Y-172148475D01*
X137029500Y-172148480D01*
X137029500Y-172148481D01*
X137029500Y-172895383D01*
X137029501Y-172981000D01*
X137009817Y-173048039D01*
X136957013Y-173093794D01*
X136905501Y-173105000D01*
X136311000Y-173105000D01*
X136243961Y-173085315D01*
X136198206Y-173032511D01*
X136187000Y-172981000D01*
X136187000Y-172829000D01*
X136206685Y-172761961D01*
X136259489Y-172716206D01*
X136311000Y-172705000D01*
X136730000Y-172705000D01*
X136730000Y-171780000D01*
X136598520Y-171780000D01*
X136504849Y-171794835D01*
X136504844Y-171794837D01*
X136391958Y-171852356D01*
X136391949Y-171852363D01*
X136302363Y-171941949D01*
X136302360Y-171941953D01*
X136244833Y-172054855D01*
X136230000Y-172148513D01*
X136230000Y-172274870D01*
X136210315Y-172341909D01*
X136157511Y-172387664D01*
X136088353Y-172397608D01*
X136081810Y-172396488D01*
X136060000Y-172392149D01*
X136060000Y-173045735D01*
X136044205Y-173029940D01*
X135975796Y-172990444D01*
X135899496Y-172970000D01*
X135820504Y-172970000D01*
X135744204Y-172990444D01*
X135675795Y-173029940D01*
X135660000Y-173045735D01*
X135660000Y-172392149D01*
X135597487Y-172404584D01*
X135597479Y-172404586D01*
X135433692Y-172472428D01*
X135433683Y-172472433D01*
X135286283Y-172570923D01*
X135286279Y-172570926D01*
X135160926Y-172696279D01*
X135160923Y-172696283D01*
X135062433Y-172843683D01*
X135062428Y-172843692D01*
X134994586Y-173007479D01*
X134994584Y-173007487D01*
X134960000Y-173181353D01*
X134960000Y-173620000D01*
X135560000Y-173620000D01*
X135560000Y-174020000D01*
X134960000Y-174020000D01*
X134960000Y-174458646D01*
X134994584Y-174632512D01*
X134994586Y-174632520D01*
X135062428Y-174796307D01*
X135062433Y-174796316D01*
X135160923Y-174943716D01*
X135160926Y-174943720D01*
X135286279Y-175069073D01*
X135286283Y-175069076D01*
X135433683Y-175167566D01*
X135433696Y-175167573D01*
X135597474Y-175235411D01*
X135597482Y-175235413D01*
X135660000Y-175247848D01*
X135660000Y-174594265D01*
X135675795Y-174610060D01*
X135744204Y-174649556D01*
X135820504Y-174670000D01*
X135899496Y-174670000D01*
X135975796Y-174649556D01*
X136044205Y-174610060D01*
X136060000Y-174594265D01*
X136060000Y-175247847D01*
X136122517Y-175235413D01*
X136122525Y-175235411D01*
X136286303Y-175167573D01*
X136286316Y-175167566D01*
X136433716Y-175069076D01*
X136433720Y-175069073D01*
X136559073Y-174943720D01*
X136559076Y-174943716D01*
X136657566Y-174796316D01*
X136657569Y-174796310D01*
X136664124Y-174780484D01*
X136707962Y-174726078D01*
X136774255Y-174704009D01*
X136841955Y-174721285D01*
X136866369Y-174740249D01*
X136936635Y-174810515D01*
X137067865Y-174886281D01*
X137214234Y-174925500D01*
X137214236Y-174925500D01*
X137365764Y-174925500D01*
X137365766Y-174925500D01*
X137512135Y-174886281D01*
X137643365Y-174810515D01*
X137750515Y-174703365D01*
X137826281Y-174572135D01*
X137865500Y-174425766D01*
X137865500Y-174274234D01*
X137842016Y-174186589D01*
X137843679Y-174116743D01*
X137882841Y-174058880D01*
X137947070Y-174031376D01*
X137961791Y-174030499D01*
X138061522Y-174030499D01*
X138135602Y-174018766D01*
X138174395Y-174018766D01*
X138248481Y-174030500D01*
X138611518Y-174030499D01*
X138611520Y-174030499D01*
X138626450Y-174028134D01*
X138660603Y-174022725D01*
X138699394Y-174022725D01*
X138748481Y-174030500D01*
X138778461Y-174030499D01*
X138845499Y-174050182D01*
X138891256Y-174102984D01*
X138898236Y-174122400D01*
X138909668Y-174165061D01*
X138917017Y-174192489D01*
X138989488Y-174318011D01*
X138989490Y-174318013D01*
X138989491Y-174318015D01*
X139091985Y-174420509D01*
X139091986Y-174420510D01*
X139091988Y-174420511D01*
X139217511Y-174492982D01*
X139217512Y-174492982D01*
X139217515Y-174492984D01*
X139357525Y-174530500D01*
X139357528Y-174530500D01*
X140452472Y-174530500D01*
X140452474Y-174530500D01*
X140452475Y-174530500D01*
X140592485Y-174492984D01*
X140601164Y-174487973D01*
X140608416Y-174483787D01*
X140708913Y-174425765D01*
X140718015Y-174420510D01*
X140870510Y-174268014D01*
X140942984Y-174142485D01*
X140944820Y-174135629D01*
X140944823Y-174135625D01*
X140944822Y-174135625D01*
X140948364Y-174122406D01*
X140984729Y-174062745D01*
X141047576Y-174032216D01*
X141068139Y-174030499D01*
X141111520Y-174030499D01*
X141126450Y-174028134D01*
X141160603Y-174022725D01*
X141199394Y-174022725D01*
X141248481Y-174030500D01*
X141611518Y-174030499D01*
X141611520Y-174030499D01*
X141626450Y-174028134D01*
X141660603Y-174022725D01*
X141699394Y-174022725D01*
X141748481Y-174030500D01*
X142111518Y-174030499D01*
X142111522Y-174030499D01*
X142185602Y-174018766D01*
X142224395Y-174018766D01*
X142298481Y-174030500D01*
X142398209Y-174030499D01*
X142465246Y-174050183D01*
X142511002Y-174102986D01*
X142520946Y-174172145D01*
X142517983Y-174186591D01*
X142494500Y-174274232D01*
X142494500Y-174274234D01*
X142494500Y-174425766D01*
X142510585Y-174485796D01*
X142533719Y-174572136D01*
X142536849Y-174577557D01*
X142609485Y-174703365D01*
X142716635Y-174810515D01*
X142847865Y-174886281D01*
X142994234Y-174925500D01*
X142994236Y-174925500D01*
X143145764Y-174925500D01*
X143145766Y-174925500D01*
X143292135Y-174886281D01*
X143423365Y-174810515D01*
X143493633Y-174740246D01*
X143554952Y-174706764D01*
X143624644Y-174711748D01*
X143680578Y-174753619D01*
X143695873Y-174780479D01*
X143702429Y-174796309D01*
X143702433Y-174796316D01*
X143800923Y-174943716D01*
X143800926Y-174943720D01*
X143926279Y-175069073D01*
X143926283Y-175069076D01*
X144073683Y-175167566D01*
X144073696Y-175167573D01*
X144237474Y-175235411D01*
X144237482Y-175235413D01*
X144300000Y-175247848D01*
X144300000Y-174594265D01*
X144315795Y-174610060D01*
X144384204Y-174649556D01*
X144460504Y-174670000D01*
X144539496Y-174670000D01*
X144615796Y-174649556D01*
X144684205Y-174610060D01*
X144700000Y-174594265D01*
X144700000Y-175247847D01*
X144762517Y-175235413D01*
X144762525Y-175235411D01*
X144926303Y-175167573D01*
X144926316Y-175167566D01*
X145073716Y-175069076D01*
X145073720Y-175069073D01*
X145199073Y-174943720D01*
X145199076Y-174943716D01*
X145297566Y-174796316D01*
X145297571Y-174796307D01*
X145365413Y-174632520D01*
X145365415Y-174632512D01*
X145399999Y-174458646D01*
X145400000Y-174458643D01*
X145400000Y-174020000D01*
X144800000Y-174020000D01*
X144800000Y-173620000D01*
X145400000Y-173620000D01*
X145400000Y-173181357D01*
X145399999Y-173181353D01*
X145365415Y-173007487D01*
X145365413Y-173007479D01*
X145297571Y-172843692D01*
X145297566Y-172843683D01*
X145199076Y-172696283D01*
X145199073Y-172696279D01*
X145073720Y-172570926D01*
X145073716Y-172570923D01*
X144926316Y-172472433D01*
X144926307Y-172472428D01*
X144762520Y-172404586D01*
X144762512Y-172404584D01*
X144700000Y-172392149D01*
X144700000Y-173045735D01*
X144684205Y-173029940D01*
X144615796Y-172990444D01*
X144539496Y-172970000D01*
X144460504Y-172970000D01*
X144384204Y-172990444D01*
X144315795Y-173029940D01*
X144300000Y-173045735D01*
X144300000Y-172392149D01*
X144278189Y-172396488D01*
X144208597Y-172390259D01*
X144153421Y-172347396D01*
X144130177Y-172281506D01*
X144129999Y-172274870D01*
X144129999Y-172148520D01*
X144115164Y-172054850D01*
X144115162Y-172054844D01*
X144057643Y-171941958D01*
X144057636Y-171941949D01*
X143968050Y-171852363D01*
X143968046Y-171852360D01*
X143855144Y-171794833D01*
X143761486Y-171780000D01*
X143630000Y-171780000D01*
X143630000Y-172981000D01*
X143610315Y-173048039D01*
X143557511Y-173093794D01*
X143506000Y-173105000D01*
X143454500Y-173105000D01*
X143387461Y-173085315D01*
X143341706Y-173032511D01*
X143330500Y-172981000D01*
X143330499Y-172148482D01*
X143315645Y-172054692D01*
X143294015Y-172012241D01*
X143280500Y-171955947D01*
X143280500Y-171565928D01*
X143255502Y-171440261D01*
X143255501Y-171440260D01*
X143255501Y-171440256D01*
X143232385Y-171384451D01*
X143224917Y-171314984D01*
X143256192Y-171252505D01*
X143316280Y-171216852D01*
X143346947Y-171213000D01*
X143515686Y-171213000D01*
X143515694Y-171213000D01*
X143552569Y-171210098D01*
X143552571Y-171210097D01*
X143552573Y-171210097D01*
X143598606Y-171196723D01*
X143710398Y-171164244D01*
X143851865Y-171080581D01*
X143968081Y-170964365D01*
X144051744Y-170822898D01*
X144092805Y-170681568D01*
X144097597Y-170665073D01*
X144097598Y-170665067D01*
X144098825Y-170649474D01*
X144100500Y-170628194D01*
X144100500Y-169971806D01*
X144097598Y-169934931D01*
X144092496Y-169917371D01*
X144052211Y-169778709D01*
X144051744Y-169777102D01*
X144044318Y-169764546D01*
X143968082Y-169635637D01*
X143968081Y-169635635D01*
X143968079Y-169635633D01*
X143968076Y-169635629D01*
X143851870Y-169519423D01*
X143851867Y-169519421D01*
X143851865Y-169519419D01*
X143808784Y-169493941D01*
X143761101Y-169442871D01*
X143748598Y-169374129D01*
X143775244Y-169309540D01*
X143808786Y-169280476D01*
X143851555Y-169255182D01*
X143851561Y-169255178D01*
X143967678Y-169139061D01*
X143967685Y-169139052D01*
X144051282Y-168997696D01*
X144051283Y-168997693D01*
X144097099Y-168839995D01*
X144097100Y-168839989D01*
X144099999Y-168803149D01*
X144100000Y-168803134D01*
X144100000Y-168675000D01*
X142924000Y-168675000D01*
X142856961Y-168655315D01*
X142811206Y-168602511D01*
X142800000Y-168551000D01*
X142800000Y-168275000D01*
X143200000Y-168275000D01*
X144100000Y-168275000D01*
X144100000Y-168146865D01*
X144099999Y-168146850D01*
X144097100Y-168110010D01*
X144097099Y-168110004D01*
X144051283Y-167952306D01*
X144051282Y-167952303D01*
X143967685Y-167810947D01*
X143967678Y-167810938D01*
X143851561Y-167694821D01*
X143851552Y-167694814D01*
X143710196Y-167611217D01*
X143710193Y-167611216D01*
X143552495Y-167565400D01*
X143552489Y-167565399D01*
X143515649Y-167562500D01*
X143200000Y-167562500D01*
X143200000Y-168275000D01*
X142800000Y-168275000D01*
X142800000Y-167562500D01*
X142484350Y-167562500D01*
X142447510Y-167565399D01*
X142447504Y-167565400D01*
X142289806Y-167611216D01*
X142289803Y-167611217D01*
X142148447Y-167694814D01*
X142148442Y-167694818D01*
X142088034Y-167755226D01*
X142026710Y-167788710D01*
X141957019Y-167783725D01*
X141912672Y-167755225D01*
X141851870Y-167694423D01*
X141851862Y-167694417D01*
X141731083Y-167622989D01*
X141710398Y-167610756D01*
X141710397Y-167610755D01*
X141710396Y-167610755D01*
X141710393Y-167610754D01*
X141552573Y-167564902D01*
X141552567Y-167564901D01*
X141515701Y-167562000D01*
X141515694Y-167562000D01*
X140916887Y-167562000D01*
X140849848Y-167542315D01*
X140829206Y-167525681D01*
X140293531Y-166990006D01*
X140260046Y-166928683D01*
X140265030Y-166858991D01*
X140306902Y-166803058D01*
X140335727Y-166786969D01*
X140342342Y-166784361D01*
X140462922Y-166692922D01*
X140462924Y-166692920D01*
X140467319Y-166688526D01*
X140528642Y-166655041D01*
X140598334Y-166660025D01*
X140642681Y-166688526D01*
X140647075Y-166692920D01*
X140767656Y-166784360D01*
X140767657Y-166784360D01*
X140767658Y-166784361D01*
X140908436Y-166839877D01*
X140996898Y-166850500D01*
X140996903Y-166850500D01*
X141383097Y-166850500D01*
X141383102Y-166850500D01*
X141471564Y-166839877D01*
X141612342Y-166784361D01*
X141732922Y-166692922D01*
X141732924Y-166692920D01*
X141737319Y-166688526D01*
X141798642Y-166655041D01*
X141868334Y-166660025D01*
X141912681Y-166688526D01*
X141917075Y-166692920D01*
X142037656Y-166784360D01*
X142037657Y-166784360D01*
X142037658Y-166784361D01*
X142178436Y-166839877D01*
X142266898Y-166850500D01*
X142266903Y-166850500D01*
X142653097Y-166850500D01*
X142653102Y-166850500D01*
X142741564Y-166839877D01*
X142882342Y-166784361D01*
X143002922Y-166692922D01*
X143002924Y-166692920D01*
X143007319Y-166688526D01*
X143068642Y-166655041D01*
X143138334Y-166660025D01*
X143182681Y-166688526D01*
X143187075Y-166692920D01*
X143307656Y-166784360D01*
X143307657Y-166784360D01*
X143307658Y-166784361D01*
X143448436Y-166839877D01*
X143536898Y-166850500D01*
X143536903Y-166850500D01*
X143923097Y-166850500D01*
X143923102Y-166850500D01*
X144011564Y-166839877D01*
X144152342Y-166784361D01*
X144272922Y-166692922D01*
X144272924Y-166692920D01*
X144277676Y-166688169D01*
X144338999Y-166654684D01*
X144408691Y-166659668D01*
X144453038Y-166688169D01*
X144457429Y-166692560D01*
X144577904Y-166783920D01*
X144718557Y-166839386D01*
X144800000Y-166849165D01*
X145200000Y-166849165D01*
X145281442Y-166839386D01*
X145422095Y-166783920D01*
X145542564Y-166692564D01*
X145633920Y-166572095D01*
X145689386Y-166431443D01*
X145700000Y-166343053D01*
X145700000Y-165675000D01*
X145200000Y-165675000D01*
X145200000Y-166849165D01*
X144800000Y-166849165D01*
X144800000Y-165275000D01*
X145200000Y-165275000D01*
X145700000Y-165275000D01*
X145700000Y-164606946D01*
X145689386Y-164518556D01*
X145633920Y-164377904D01*
X145542564Y-164257435D01*
X145422095Y-164166079D01*
X145281443Y-164110613D01*
X145200000Y-164100832D01*
X145200000Y-165275000D01*
X144800000Y-165275000D01*
X144800000Y-164100832D01*
X144718557Y-164110613D01*
X144718556Y-164110613D01*
X144577904Y-164166079D01*
X144457429Y-164257439D01*
X144453038Y-164261831D01*
X144391715Y-164295316D01*
X144322023Y-164290332D01*
X144277676Y-164261831D01*
X144272922Y-164257077D01*
X144208354Y-164208113D01*
X144175891Y-164171307D01*
X144170510Y-164161986D01*
X142113732Y-162105208D01*
X142080247Y-162043885D01*
X142085231Y-161974193D01*
X142127103Y-161918260D01*
X142192567Y-161893843D01*
X142216191Y-161894410D01*
X142266898Y-161900500D01*
X142266904Y-161900500D01*
X142653097Y-161900500D01*
X142653102Y-161900500D01*
X142741564Y-161889877D01*
X142882342Y-161834361D01*
X143002922Y-161742922D01*
X143002924Y-161742920D01*
X143007319Y-161738526D01*
X143068642Y-161705041D01*
X143138334Y-161710025D01*
X143182681Y-161738526D01*
X143187075Y-161742920D01*
X143307656Y-161834360D01*
X143307657Y-161834360D01*
X143307658Y-161834361D01*
X143448436Y-161889877D01*
X143536898Y-161900500D01*
X143536903Y-161900500D01*
X143923097Y-161900500D01*
X143923102Y-161900500D01*
X144011564Y-161889877D01*
X144152342Y-161834361D01*
X144272922Y-161742922D01*
X144272924Y-161742920D01*
X144277319Y-161738526D01*
X144338642Y-161705041D01*
X144408334Y-161710025D01*
X144452681Y-161738526D01*
X144457075Y-161742920D01*
X144577656Y-161834360D01*
X144577657Y-161834360D01*
X144577658Y-161834361D01*
X144718436Y-161889877D01*
X144806898Y-161900500D01*
X144806903Y-161900500D01*
X145193097Y-161900500D01*
X145193102Y-161900500D01*
X145281564Y-161889877D01*
X145323067Y-161873509D01*
X145392650Y-161867227D01*
X145454587Y-161899563D01*
X145456237Y-161901183D01*
X145852750Y-162297696D01*
X145884145Y-162350781D01*
X145923254Y-162485395D01*
X145923255Y-162485396D01*
X146006917Y-162626862D01*
X146006923Y-162626870D01*
X146123129Y-162743076D01*
X146123133Y-162743079D01*
X146123135Y-162743081D01*
X146264602Y-162826744D01*
X146306224Y-162838836D01*
X146422426Y-162872597D01*
X146422429Y-162872597D01*
X146422431Y-162872598D01*
X146459306Y-162875500D01*
X146459314Y-162875500D01*
X147540686Y-162875500D01*
X147540694Y-162875500D01*
X147577569Y-162872598D01*
X147577571Y-162872597D01*
X147577573Y-162872597D01*
X147619191Y-162860505D01*
X147735398Y-162826744D01*
X147876865Y-162743081D01*
X147993081Y-162626865D01*
X148076744Y-162485398D01*
X148122598Y-162327569D01*
X148125500Y-162290694D01*
X148125500Y-161659306D01*
X148122598Y-161622431D01*
X148122572Y-161622342D01*
X148076745Y-161464606D01*
X148076744Y-161464603D01*
X148076744Y-161464602D01*
X147993081Y-161323135D01*
X147993079Y-161323133D01*
X147993076Y-161323129D01*
X147876870Y-161206923D01*
X147876861Y-161206916D01*
X147749239Y-161131441D01*
X147701555Y-161080372D01*
X147689052Y-161011630D01*
X147715697Y-160947041D01*
X147749240Y-160917977D01*
X147876550Y-160842687D01*
X147876561Y-160842678D01*
X147992678Y-160726561D01*
X147992685Y-160726552D01*
X148076282Y-160585196D01*
X148076283Y-160585193D01*
X148122099Y-160427495D01*
X148122100Y-160427489D01*
X148124999Y-160390649D01*
X148125000Y-160390634D01*
X148125000Y-160275000D01*
X146924000Y-160275000D01*
X146856961Y-160255315D01*
X146811206Y-160202511D01*
X146800000Y-160151000D01*
X146800000Y-159875000D01*
X147200000Y-159875000D01*
X148125000Y-159875000D01*
X148125000Y-159759365D01*
X148124999Y-159759350D01*
X148122100Y-159722510D01*
X148122099Y-159722504D01*
X148076283Y-159564806D01*
X148076282Y-159564803D01*
X147992685Y-159423447D01*
X147992678Y-159423438D01*
X147876561Y-159307321D01*
X147876552Y-159307314D01*
X147735196Y-159223717D01*
X147735193Y-159223716D01*
X147577495Y-159177900D01*
X147577489Y-159177899D01*
X147540649Y-159175000D01*
X147200000Y-159175000D01*
X147200000Y-159875000D01*
X146800000Y-159875000D01*
X146800000Y-159175000D01*
X146459350Y-159175000D01*
X146422510Y-159177899D01*
X146422504Y-159177900D01*
X146264806Y-159223716D01*
X146264803Y-159223717D01*
X146123447Y-159307314D01*
X146123438Y-159307321D01*
X146007321Y-159423438D01*
X146007314Y-159423447D01*
X145923717Y-159564803D01*
X145920618Y-159571965D01*
X145918090Y-159570871D01*
X145887558Y-159618660D01*
X145824080Y-159647854D01*
X145754896Y-159638095D01*
X145701970Y-159592482D01*
X145690752Y-159570654D01*
X145659146Y-159490507D01*
X145650500Y-159445017D01*
X145650500Y-153674038D01*
X148699500Y-153674038D01*
X148699500Y-153925962D01*
X148712348Y-154007078D01*
X148738910Y-154174785D01*
X148816760Y-154414383D01*
X148876725Y-154532070D01*
X148928742Y-154634159D01*
X148931132Y-154638848D01*
X149079201Y-154842649D01*
X149079205Y-154842654D01*
X149257345Y-155020794D01*
X149257350Y-155020798D01*
X149425659Y-155143081D01*
X149461155Y-155168870D01*
X149604184Y-155241747D01*
X149685616Y-155283239D01*
X149685618Y-155283239D01*
X149685621Y-155283241D01*
X149925215Y-155361090D01*
X150174038Y-155400500D01*
X150174039Y-155400500D01*
X150425961Y-155400500D01*
X150425962Y-155400500D01*
X150674785Y-155361090D01*
X150914379Y-155283241D01*
X151138845Y-155168870D01*
X151342656Y-155020793D01*
X151520793Y-154842656D01*
X151668870Y-154638845D01*
X151783241Y-154414379D01*
X151861090Y-154174785D01*
X151900500Y-153925962D01*
X151900500Y-153674038D01*
X151861090Y-153425215D01*
X151783241Y-153185621D01*
X151783239Y-153185618D01*
X151783239Y-153185616D01*
X151726224Y-153073719D01*
X151668870Y-152961155D01*
X151635822Y-152915668D01*
X151520798Y-152757350D01*
X151520794Y-152757345D01*
X151342654Y-152579205D01*
X151342649Y-152579201D01*
X151138848Y-152431132D01*
X151138847Y-152431131D01*
X151138845Y-152431130D01*
X151068747Y-152395413D01*
X150914383Y-152316760D01*
X150674785Y-152238910D01*
X150425962Y-152199500D01*
X150174038Y-152199500D01*
X150054886Y-152218372D01*
X149925214Y-152238910D01*
X149685616Y-152316760D01*
X149461151Y-152431132D01*
X149257350Y-152579201D01*
X149257345Y-152579205D01*
X149079205Y-152757345D01*
X149079201Y-152757350D01*
X148931132Y-152961151D01*
X148816760Y-153185616D01*
X148738910Y-153425214D01*
X148722638Y-153527952D01*
X148699500Y-153674038D01*
X145650500Y-153674038D01*
X145650500Y-144782934D01*
X145658558Y-144738963D01*
X145685139Y-144668875D01*
X145685140Y-144668870D01*
X145705645Y-144500000D01*
X145685140Y-144331128D01*
X145624818Y-144172070D01*
X145528183Y-144032071D01*
X145400852Y-143919266D01*
X145400849Y-143919263D01*
X145250226Y-143840210D01*
X145085056Y-143799500D01*
X144914944Y-143799500D01*
X144749772Y-143840210D01*
X144732124Y-143849473D01*
X144663616Y-143863197D01*
X144598563Y-143837704D01*
X144557620Y-143781088D01*
X144550500Y-143739676D01*
X144550500Y-139974238D01*
X144570185Y-139907199D01*
X144572450Y-139903798D01*
X144586670Y-139883196D01*
X144624818Y-139827930D01*
X144685140Y-139668872D01*
X144705645Y-139500000D01*
X144685140Y-139331128D01*
X144680217Y-139318148D01*
X144624817Y-139172068D01*
X144563875Y-139083780D01*
X144528183Y-139032071D01*
X144400852Y-138919266D01*
X144400849Y-138919263D01*
X144250226Y-138840210D01*
X144085056Y-138799500D01*
X143914944Y-138799500D01*
X143749773Y-138840210D01*
X143599150Y-138919263D01*
X143471816Y-139032072D01*
X143375182Y-139172068D01*
X143314860Y-139331125D01*
X143314859Y-139331130D01*
X143294355Y-139500000D01*
X143314859Y-139668869D01*
X143314860Y-139668874D01*
X143375182Y-139827931D01*
X143427550Y-139903798D01*
X143449433Y-139970152D01*
X143449500Y-139974238D01*
X143449500Y-155206444D01*
X143429815Y-155273483D01*
X143413181Y-155294125D01*
X143344125Y-155363181D01*
X143282802Y-155396666D01*
X143256444Y-155399500D01*
X142827129Y-155399500D01*
X142827123Y-155399501D01*
X142767516Y-155405908D01*
X142671604Y-155441682D01*
X142628271Y-155449500D01*
X142091693Y-155449500D01*
X141974653Y-155480861D01*
X141974652Y-155480860D01*
X141951685Y-155487015D01*
X141951682Y-155487016D01*
X141885214Y-155525391D01*
X141817313Y-155541862D01*
X141751287Y-155519009D01*
X141748904Y-155517269D01*
X141667335Y-155456206D01*
X141667328Y-155456202D01*
X141532486Y-155405910D01*
X141532485Y-155405909D01*
X141532483Y-155405909D01*
X141472873Y-155399500D01*
X141472863Y-155399500D01*
X140927129Y-155399500D01*
X140927123Y-155399501D01*
X140867516Y-155405908D01*
X140771604Y-155441682D01*
X140728271Y-155449500D01*
X140346764Y-155449500D01*
X140229724Y-155480861D01*
X140229723Y-155480860D01*
X140206756Y-155487015D01*
X140206753Y-155487016D01*
X140081221Y-155559491D01*
X140075604Y-155563802D01*
X140010435Y-155588996D01*
X139941990Y-155574957D01*
X139917891Y-155558242D01*
X139835162Y-155484950D01*
X139684539Y-155405897D01*
X139519369Y-155365187D01*
X139349257Y-155365187D01*
X139184086Y-155405897D01*
X139033463Y-155484950D01*
X138906129Y-155597759D01*
X138809495Y-155737755D01*
X138749173Y-155896812D01*
X138749172Y-155896817D01*
X138728668Y-156065687D01*
X138749172Y-156234556D01*
X138749173Y-156234561D01*
X138809495Y-156393618D01*
X138854274Y-156458490D01*
X138906130Y-156533616D01*
X138979094Y-156598256D01*
X139033463Y-156646423D01*
X139157998Y-156711784D01*
X139184088Y-156725477D01*
X139349257Y-156766187D01*
X139519369Y-156766187D01*
X139684538Y-156725477D01*
X139705062Y-156714704D01*
X139762690Y-156700500D01*
X139848732Y-156700500D01*
X139915771Y-156720185D01*
X139961526Y-156772989D01*
X139971470Y-156842147D01*
X139968509Y-156856580D01*
X139949500Y-156927525D01*
X139949500Y-157636643D01*
X139967891Y-157705277D01*
X139987016Y-157776653D01*
X140055320Y-157894961D01*
X140059489Y-157902181D01*
X140059491Y-157902184D01*
X140603181Y-158445874D01*
X140636666Y-158507197D01*
X140639500Y-158533555D01*
X140639500Y-159191327D01*
X140619815Y-159258366D01*
X140567011Y-159304121D01*
X140497853Y-159314065D01*
X140440575Y-159290131D01*
X140342343Y-159215639D01*
X140201561Y-159160122D01*
X140155926Y-159154642D01*
X140113102Y-159149500D01*
X139726898Y-159149500D01*
X139687853Y-159154188D01*
X139638438Y-159160122D01*
X139497656Y-159215639D01*
X139377075Y-159307079D01*
X139372681Y-159311474D01*
X139311358Y-159344959D01*
X139241666Y-159339975D01*
X139197319Y-159311474D01*
X139192924Y-159307079D01*
X139072343Y-159215639D01*
X138931561Y-159160122D01*
X138885926Y-159154642D01*
X138843102Y-159149500D01*
X138456898Y-159149500D01*
X138417853Y-159154188D01*
X138368438Y-159160122D01*
X138227656Y-159215639D01*
X138107075Y-159307079D01*
X138102681Y-159311474D01*
X138041358Y-159344959D01*
X137971666Y-159339975D01*
X137927319Y-159311474D01*
X137922924Y-159307079D01*
X137802343Y-159215639D01*
X137661561Y-159160122D01*
X137615926Y-159154642D01*
X137573102Y-159149500D01*
X137186898Y-159149500D01*
X137147853Y-159154188D01*
X137098438Y-159160122D01*
X136957656Y-159215639D01*
X136837075Y-159307079D01*
X136832681Y-159311474D01*
X136771358Y-159344959D01*
X136701666Y-159339975D01*
X136657319Y-159311474D01*
X136652924Y-159307079D01*
X136532343Y-159215639D01*
X136391561Y-159160122D01*
X136345926Y-159154642D01*
X136303102Y-159149500D01*
X135916898Y-159149500D01*
X135877853Y-159154188D01*
X135828438Y-159160122D01*
X135687656Y-159215639D01*
X135567077Y-159307077D01*
X135475639Y-159427656D01*
X135420122Y-159568438D01*
X135419699Y-159571965D01*
X135409500Y-159656898D01*
X135409500Y-159656903D01*
X135409500Y-161325500D01*
X135389815Y-161392539D01*
X135337011Y-161438294D01*
X135285500Y-161449500D01*
X134279387Y-161449500D01*
X134212348Y-161429815D01*
X134191706Y-161413181D01*
X126452563Y-153674038D01*
X128399500Y-153674038D01*
X128399500Y-153925962D01*
X128412348Y-154007078D01*
X128438910Y-154174785D01*
X128516760Y-154414383D01*
X128576725Y-154532070D01*
X128628742Y-154634159D01*
X128631132Y-154638848D01*
X128779201Y-154842649D01*
X128779205Y-154842654D01*
X128957345Y-155020794D01*
X128957350Y-155020798D01*
X129125659Y-155143081D01*
X129161155Y-155168870D01*
X129304184Y-155241747D01*
X129385616Y-155283239D01*
X129385618Y-155283239D01*
X129385621Y-155283241D01*
X129625215Y-155361090D01*
X129874038Y-155400500D01*
X129874039Y-155400500D01*
X130125961Y-155400500D01*
X130125962Y-155400500D01*
X130374785Y-155361090D01*
X130614379Y-155283241D01*
X130838845Y-155168870D01*
X131042656Y-155020793D01*
X131220793Y-154842656D01*
X131368870Y-154638845D01*
X131483241Y-154414379D01*
X131561090Y-154174785D01*
X131600500Y-153925962D01*
X131600500Y-153674038D01*
X131561090Y-153425215D01*
X131483241Y-153185621D01*
X131483239Y-153185618D01*
X131483239Y-153185616D01*
X131426224Y-153073719D01*
X131368870Y-152961155D01*
X131335822Y-152915668D01*
X131220798Y-152757350D01*
X131220794Y-152757345D01*
X131042654Y-152579205D01*
X131042649Y-152579201D01*
X130838848Y-152431132D01*
X130838847Y-152431131D01*
X130838845Y-152431130D01*
X130768747Y-152395413D01*
X130614383Y-152316760D01*
X130374785Y-152238910D01*
X130125962Y-152199500D01*
X129874038Y-152199500D01*
X129754886Y-152218372D01*
X129625214Y-152238910D01*
X129385616Y-152316760D01*
X129161151Y-152431132D01*
X128957350Y-152579201D01*
X128957345Y-152579205D01*
X128779205Y-152757345D01*
X128779201Y-152757350D01*
X128631132Y-152961151D01*
X128516760Y-153185616D01*
X128438910Y-153425214D01*
X128422638Y-153527952D01*
X128399500Y-153674038D01*
X126452563Y-153674038D01*
X125655454Y-152876929D01*
X125621969Y-152815606D01*
X125626953Y-152745914D01*
X125668825Y-152689981D01*
X125713461Y-152668851D01*
X125750225Y-152659790D01*
X125900849Y-152580736D01*
X125900850Y-152580734D01*
X125900852Y-152580734D01*
X126028183Y-152467929D01*
X126124818Y-152327930D01*
X126185140Y-152168872D01*
X126205645Y-152000000D01*
X126185140Y-151831128D01*
X126124818Y-151672070D01*
X126124817Y-151672068D01*
X126072450Y-151596201D01*
X126050567Y-151529846D01*
X126050500Y-151525761D01*
X126050500Y-140806165D01*
X126070185Y-140739126D01*
X126122989Y-140693371D01*
X126144824Y-140685768D01*
X126250225Y-140659790D01*
X126290241Y-140638788D01*
X126400849Y-140580736D01*
X126400850Y-140580734D01*
X126400852Y-140580734D01*
X126528183Y-140467929D01*
X126624818Y-140327930D01*
X126685140Y-140168872D01*
X126705645Y-140000000D01*
X126685140Y-139831128D01*
X126683926Y-139827928D01*
X126627445Y-139678998D01*
X126624818Y-139672070D01*
X126622608Y-139668869D01*
X126574828Y-139599648D01*
X126528183Y-139532071D01*
X126400852Y-139419266D01*
X126400849Y-139419263D01*
X126250226Y-139340210D01*
X126085056Y-139299500D01*
X125914944Y-139299500D01*
X125749773Y-139340210D01*
X125599150Y-139419263D01*
X125471816Y-139532072D01*
X125375182Y-139672068D01*
X125375179Y-139672074D01*
X125365939Y-139696438D01*
X125323760Y-139752139D01*
X125258161Y-139776194D01*
X125189971Y-139760965D01*
X125140840Y-139711287D01*
X125134059Y-139696438D01*
X125124818Y-139672070D01*
X125122608Y-139668869D01*
X125096161Y-139630554D01*
X125028183Y-139532071D01*
X124900852Y-139419266D01*
X124900849Y-139419263D01*
X124750226Y-139340210D01*
X124585056Y-139299500D01*
X124414944Y-139299500D01*
X124249773Y-139340210D01*
X124099150Y-139419263D01*
X123971816Y-139532072D01*
X123876550Y-139670088D01*
X123822267Y-139714079D01*
X123752818Y-139721738D01*
X123690253Y-139690634D01*
X123654436Y-139630643D01*
X123650500Y-139599648D01*
X123650500Y-136381469D01*
X123670185Y-136314430D01*
X123686819Y-136293788D01*
X125793788Y-134186819D01*
X125855111Y-134153334D01*
X125881469Y-134150500D01*
X128064071Y-134150500D01*
X128148615Y-134133682D01*
X128189744Y-134125501D01*
X128308127Y-134076465D01*
X128334327Y-134058959D01*
X128334328Y-134058959D01*
X128394447Y-134018788D01*
X128414669Y-134005277D01*
X128414672Y-134005273D01*
X128419384Y-134001408D01*
X128420725Y-134003043D01*
X128473611Y-133974149D01*
X128543304Y-133979115D01*
X128579710Y-134002511D01*
X128580616Y-134001408D01*
X128585332Y-134005278D01*
X128665672Y-134058959D01*
X128665673Y-134058959D01*
X128691873Y-134076465D01*
X128810256Y-134125501D01*
X128810260Y-134125501D01*
X128810261Y-134125502D01*
X128935928Y-134150500D01*
X128935931Y-134150500D01*
X130564071Y-134150500D01*
X130648615Y-134133682D01*
X130689744Y-134125501D01*
X130808127Y-134076465D01*
X130834327Y-134058959D01*
X130834328Y-134058959D01*
X130894447Y-134018788D01*
X130914669Y-134005277D01*
X131049067Y-133870877D01*
X131110389Y-133837393D01*
X131180081Y-133842377D01*
X131184200Y-133843998D01*
X131249095Y-133870878D01*
X131260256Y-133875501D01*
X131260260Y-133875501D01*
X131260261Y-133875502D01*
X131385928Y-133900500D01*
X131385931Y-133900500D01*
X133314071Y-133900500D01*
X133421500Y-133879130D01*
X133439744Y-133875501D01*
X133558127Y-133826465D01*
X133664669Y-133755277D01*
X134105277Y-133314669D01*
X134176465Y-133208127D01*
X134183198Y-133191873D01*
X134225501Y-133089744D01*
X134244402Y-132994727D01*
X134250500Y-132964071D01*
X134250500Y-129928387D01*
X134270185Y-129861348D01*
X134322989Y-129815593D01*
X134392147Y-129805649D01*
X134455703Y-129834674D01*
X134462181Y-129840706D01*
X140913181Y-136291706D01*
X140946666Y-136353029D01*
X140949500Y-136379387D01*
X140949500Y-147525761D01*
X140929815Y-147592800D01*
X140927550Y-147596201D01*
X140875183Y-147672068D01*
X140875182Y-147672068D01*
X140814860Y-147831125D01*
X140814859Y-147831130D01*
X140794355Y-148000000D01*
X140814859Y-148168869D01*
X140814860Y-148168874D01*
X140875182Y-148327931D01*
X140937475Y-148418177D01*
X140971817Y-148467929D01*
X141077505Y-148561560D01*
X141099150Y-148580736D01*
X141249773Y-148659789D01*
X141249775Y-148659790D01*
X141414944Y-148700500D01*
X141585056Y-148700500D01*
X141750225Y-148659790D01*
X141836264Y-148614633D01*
X141900849Y-148580736D01*
X141900850Y-148580734D01*
X141900852Y-148580734D01*
X142028183Y-148467929D01*
X142124818Y-148327930D01*
X142185140Y-148168872D01*
X142205645Y-148000000D01*
X142185140Y-147831128D01*
X142124818Y-147672070D01*
X142096504Y-147631050D01*
X142072450Y-147596201D01*
X142050567Y-147529846D01*
X142050500Y-147525761D01*
X142050500Y-137000000D01*
X147794355Y-137000000D01*
X147814859Y-137168869D01*
X147814860Y-137168874D01*
X147875182Y-137327931D01*
X147935720Y-137415634D01*
X147971817Y-137467929D01*
X148063525Y-137549175D01*
X148099150Y-137580736D01*
X148249773Y-137659789D01*
X148249775Y-137659790D01*
X148414944Y-137700500D01*
X148585056Y-137700500D01*
X148750225Y-137659790D01*
X148844333Y-137610398D01*
X148900849Y-137580736D01*
X148900850Y-137580734D01*
X148900852Y-137580734D01*
X149028183Y-137467929D01*
X149124818Y-137327930D01*
X149135418Y-137299978D01*
X149163682Y-137256263D01*
X149213130Y-137206817D01*
X149274453Y-137173333D01*
X149300809Y-137170500D01*
X167525501Y-137170500D01*
X167592540Y-137190185D01*
X167638295Y-137242989D01*
X167649501Y-137294500D01*
X167649501Y-137401518D01*
X167664354Y-137495304D01*
X167721950Y-137608342D01*
X167721952Y-137608344D01*
X167721954Y-137608347D01*
X167811652Y-137698045D01*
X167811654Y-137698046D01*
X167811658Y-137698050D01*
X167917283Y-137751869D01*
X167924698Y-137755647D01*
X168018475Y-137770499D01*
X168018481Y-137770500D01*
X168168140Y-137770499D01*
X168235177Y-137790183D01*
X168280932Y-137842987D01*
X168290876Y-137912145D01*
X168261851Y-137975701D01*
X168239262Y-137996074D01*
X168093118Y-138098405D01*
X167938402Y-138253121D01*
X167812900Y-138432357D01*
X167812898Y-138432361D01*
X167720426Y-138630668D01*
X167720422Y-138630677D01*
X167663793Y-138842020D01*
X167663793Y-138842024D01*
X167644723Y-139059997D01*
X167644723Y-139060002D01*
X167663793Y-139277975D01*
X167663793Y-139277979D01*
X167720422Y-139489322D01*
X167720424Y-139489326D01*
X167720425Y-139489330D01*
X167762328Y-139579192D01*
X167812897Y-139687638D01*
X167836650Y-139721560D01*
X167938402Y-139866877D01*
X168093123Y-140021598D01*
X168272361Y-140147102D01*
X168319040Y-140168869D01*
X168424175Y-140217894D01*
X168476614Y-140264066D01*
X168495766Y-140331260D01*
X168475550Y-140398141D01*
X168424175Y-140442658D01*
X168272612Y-140513333D01*
X168272608Y-140513335D01*
X168093450Y-140638783D01*
X168093444Y-140638788D01*
X167938788Y-140793444D01*
X167938783Y-140793450D01*
X167813335Y-140972608D01*
X167813333Y-140972612D01*
X167720898Y-141170840D01*
X167720894Y-141170849D01*
X167664288Y-141382108D01*
X167664288Y-141382112D01*
X167662723Y-141400000D01*
X168438120Y-141400000D01*
X168434075Y-141407007D01*
X168400000Y-141534174D01*
X168400000Y-141665826D01*
X168434075Y-141792993D01*
X168438120Y-141800000D01*
X167662723Y-141800000D01*
X167664288Y-141817887D01*
X167664288Y-141817891D01*
X167720894Y-142029150D01*
X167720898Y-142029159D01*
X167813333Y-142227387D01*
X167938787Y-142406554D01*
X168093445Y-142561212D01*
X168272612Y-142686666D01*
X168470840Y-142779101D01*
X168470849Y-142779105D01*
X168682110Y-142835711D01*
X168700000Y-142837276D01*
X168700000Y-142061879D01*
X168707007Y-142065925D01*
X168834174Y-142100000D01*
X168965826Y-142100000D01*
X169092993Y-142065925D01*
X169100000Y-142061879D01*
X169100000Y-142837276D01*
X169117887Y-142835711D01*
X169117891Y-142835711D01*
X169329150Y-142779105D01*
X169329159Y-142779101D01*
X169527387Y-142686666D01*
X169706554Y-142561212D01*
X169861212Y-142406554D01*
X169986666Y-142227387D01*
X170079101Y-142029159D01*
X170079105Y-142029150D01*
X170135711Y-141817891D01*
X170135711Y-141817887D01*
X170137277Y-141800000D01*
X169361880Y-141800000D01*
X169365925Y-141792993D01*
X169400000Y-141665826D01*
X169400000Y-141534174D01*
X169365925Y-141407007D01*
X169361880Y-141400000D01*
X170137276Y-141400000D01*
X170135711Y-141382112D01*
X170135711Y-141382108D01*
X170079105Y-141170849D01*
X170079101Y-141170840D01*
X169986666Y-140972612D01*
X169986664Y-140972608D01*
X169861216Y-140793450D01*
X169861211Y-140793444D01*
X169706554Y-140638787D01*
X169527387Y-140513333D01*
X169375824Y-140442658D01*
X169323385Y-140396486D01*
X169304233Y-140329292D01*
X169324449Y-140262411D01*
X169375822Y-140217895D01*
X169527639Y-140147102D01*
X169706877Y-140021598D01*
X169861598Y-139866877D01*
X169987102Y-139687639D01*
X170079575Y-139489330D01*
X170136207Y-139277977D01*
X170155277Y-139060000D01*
X170153944Y-139044768D01*
X170147518Y-138971310D01*
X170136207Y-138842023D01*
X170090741Y-138672342D01*
X170079577Y-138630677D01*
X170079576Y-138630676D01*
X170079575Y-138630670D01*
X169987102Y-138432362D01*
X169987100Y-138432359D01*
X169987099Y-138432357D01*
X169861599Y-138253124D01*
X169791979Y-138183504D01*
X169706877Y-138098402D01*
X169560733Y-137996071D01*
X169517112Y-137941497D01*
X169509919Y-137871998D01*
X169541441Y-137809644D01*
X169601671Y-137774230D01*
X169631859Y-137770499D01*
X169781518Y-137770499D01*
X169875304Y-137755646D01*
X169988342Y-137698050D01*
X170078050Y-137608342D01*
X170135646Y-137495304D01*
X170135646Y-137495302D01*
X170135647Y-137495301D01*
X170150499Y-137401524D01*
X170150500Y-137401519D01*
X170150499Y-135638482D01*
X170135646Y-135544696D01*
X170078050Y-135431658D01*
X170078046Y-135431654D01*
X170078045Y-135431652D01*
X169988347Y-135341954D01*
X169988344Y-135341952D01*
X169988342Y-135341950D01*
X169911517Y-135302805D01*
X169875301Y-135284352D01*
X169781524Y-135269500D01*
X168018482Y-135269500D01*
X167937519Y-135282323D01*
X167924696Y-135284354D01*
X167811658Y-135341950D01*
X167811657Y-135341951D01*
X167811652Y-135341954D01*
X167721954Y-135431652D01*
X167721951Y-135431657D01*
X167721950Y-135431658D01*
X167703078Y-135468697D01*
X167664352Y-135544698D01*
X167649500Y-135638475D01*
X167649500Y-135745500D01*
X167629815Y-135812539D01*
X167577011Y-135858294D01*
X167525500Y-135869500D01*
X148915929Y-135869500D01*
X148790261Y-135894497D01*
X148790251Y-135894500D01*
X148747504Y-135912206D01*
X148747505Y-135912207D01*
X148671877Y-135943532D01*
X148671863Y-135943540D01*
X148565332Y-136014721D01*
X148565325Y-136014727D01*
X148242219Y-136337833D01*
X148212166Y-136359948D01*
X148099146Y-136419267D01*
X147971816Y-136532072D01*
X147875182Y-136672068D01*
X147814860Y-136831125D01*
X147814859Y-136831130D01*
X147794355Y-137000000D01*
X142050500Y-137000000D01*
X142050500Y-136027527D01*
X142050500Y-136027525D01*
X142012984Y-135887515D01*
X142002583Y-135869500D01*
X141940510Y-135761985D01*
X135236819Y-129058294D01*
X135203334Y-128996971D01*
X135200500Y-128970613D01*
X135200500Y-127231448D01*
X135220185Y-127164409D01*
X135272989Y-127118654D01*
X135342147Y-127108710D01*
X135346797Y-127109469D01*
X135347518Y-127109600D01*
X135384350Y-127112499D01*
X135384366Y-127112500D01*
X135700000Y-127112500D01*
X136100000Y-127112500D01*
X136415634Y-127112500D01*
X136415649Y-127112499D01*
X136452489Y-127109600D01*
X136452495Y-127109599D01*
X136610193Y-127063783D01*
X136610196Y-127063782D01*
X136751552Y-126980185D01*
X136751561Y-126980178D01*
X136867678Y-126864061D01*
X136867685Y-126864052D01*
X136951282Y-126722696D01*
X136951283Y-126722693D01*
X136997099Y-126564995D01*
X136997100Y-126564989D01*
X136999999Y-126528149D01*
X137000000Y-126528134D01*
X137000000Y-126400000D01*
X136100000Y-126400000D01*
X136100000Y-127112500D01*
X135700000Y-127112500D01*
X135700000Y-126124000D01*
X135719685Y-126056961D01*
X135772489Y-126011206D01*
X135824000Y-126000000D01*
X137000000Y-126000000D01*
X137000000Y-125871865D01*
X136999999Y-125871850D01*
X136997100Y-125835010D01*
X136997099Y-125835004D01*
X136951283Y-125677306D01*
X136951282Y-125677303D01*
X136867685Y-125535947D01*
X136867678Y-125535938D01*
X136751561Y-125419821D01*
X136751552Y-125419814D01*
X136708785Y-125394522D01*
X136661101Y-125343453D01*
X136648598Y-125274711D01*
X136675244Y-125210122D01*
X136708783Y-125181059D01*
X136751865Y-125155581D01*
X136868081Y-125039365D01*
X136951744Y-124897898D01*
X136985505Y-124781691D01*
X136997597Y-124740073D01*
X136997598Y-124740067D01*
X137000499Y-124703201D01*
X137000500Y-124703194D01*
X137000500Y-124046806D01*
X136997598Y-124009931D01*
X136995451Y-124002542D01*
X136963836Y-123893724D01*
X136951744Y-123852102D01*
X136868081Y-123710635D01*
X136868079Y-123710633D01*
X136868076Y-123710629D01*
X136751870Y-123594423D01*
X136751861Y-123594416D01*
X136611379Y-123511336D01*
X136563696Y-123460267D01*
X136550500Y-123404604D01*
X136550500Y-122474038D01*
X138399500Y-122474038D01*
X138399500Y-122725962D01*
X138416991Y-122836392D01*
X138438910Y-122974785D01*
X138516760Y-123214383D01*
X138580005Y-123338507D01*
X138613683Y-123404604D01*
X138631132Y-123438848D01*
X138779201Y-123642649D01*
X138779205Y-123642654D01*
X138957345Y-123820794D01*
X138957350Y-123820798D01*
X139078967Y-123909157D01*
X139161155Y-123968870D01*
X139304184Y-124041747D01*
X139385616Y-124083239D01*
X139385618Y-124083239D01*
X139385621Y-124083241D01*
X139625215Y-124161090D01*
X139874038Y-124200500D01*
X139874039Y-124200500D01*
X140125961Y-124200500D01*
X140125962Y-124200500D01*
X140374785Y-124161090D01*
X140614379Y-124083241D01*
X140838845Y-123968870D01*
X141042656Y-123820793D01*
X141220793Y-123642656D01*
X141368870Y-123438845D01*
X141483241Y-123214379D01*
X141561090Y-122974785D01*
X141600500Y-122725962D01*
X141600500Y-122474038D01*
X141561090Y-122225215D01*
X141483241Y-121985621D01*
X141483239Y-121985618D01*
X141483239Y-121985616D01*
X141437648Y-121896139D01*
X141368870Y-121761155D01*
X141323063Y-121698107D01*
X141220798Y-121557350D01*
X141220794Y-121557345D01*
X141042654Y-121379205D01*
X141042649Y-121379201D01*
X140838848Y-121231132D01*
X140838847Y-121231131D01*
X140838845Y-121231130D01*
X140768747Y-121195413D01*
X140614383Y-121116760D01*
X140374785Y-121038910D01*
X140125962Y-120999500D01*
X139874038Y-120999500D01*
X139749626Y-121019205D01*
X139625214Y-121038910D01*
X139385616Y-121116760D01*
X139161151Y-121231132D01*
X138957350Y-121379201D01*
X138957345Y-121379205D01*
X138779205Y-121557345D01*
X138779201Y-121557350D01*
X138631132Y-121761151D01*
X138516760Y-121985616D01*
X138438910Y-122225214D01*
X138426294Y-122304866D01*
X138399500Y-122474038D01*
X136550500Y-122474038D01*
X136550500Y-120943624D01*
X136533047Y-120855888D01*
X136539274Y-120786296D01*
X136582136Y-120731118D01*
X136648026Y-120707873D01*
X136686758Y-120711920D01*
X136774011Y-120735299D01*
X136900543Y-120728667D01*
X136989079Y-120694682D01*
X136989084Y-120694679D01*
X137276149Y-120528941D01*
X137276149Y-120528940D01*
X136435680Y-119073204D01*
X136897560Y-119073204D01*
X136897560Y-119073205D01*
X137622559Y-120328940D01*
X137622560Y-120328940D01*
X137909626Y-120163203D01*
X137909631Y-120163199D01*
X137983334Y-120103517D01*
X138052341Y-119997256D01*
X138085137Y-119874863D01*
X138078504Y-119748331D01*
X138044519Y-119659795D01*
X138044516Y-119659790D01*
X137503778Y-118723205D01*
X137503777Y-118723205D01*
X136897560Y-119073204D01*
X136435680Y-119073204D01*
X136359314Y-118940935D01*
X136359312Y-118940929D01*
X135626151Y-117671058D01*
X135626150Y-117671058D01*
X135339081Y-117836798D01*
X135339077Y-117836801D01*
X135265377Y-117896482D01*
X135196370Y-118002743D01*
X135163574Y-118125136D01*
X135170676Y-118260622D01*
X135154527Y-118328600D01*
X135104191Y-118377056D01*
X135035647Y-118390605D01*
X134979311Y-118371108D01*
X134971646Y-118366130D01*
X134971645Y-118366129D01*
X134865246Y-118297033D01*
X134865243Y-118297032D01*
X134742702Y-118264197D01*
X134616011Y-118270837D01*
X134527364Y-118304865D01*
X133606747Y-118836384D01*
X133606735Y-118836392D01*
X133532954Y-118896139D01*
X133463856Y-119002542D01*
X133431021Y-119125083D01*
X133438107Y-119260286D01*
X133421958Y-119328263D01*
X133371621Y-119376719D01*
X133303077Y-119390268D01*
X133246743Y-119370771D01*
X133181285Y-119328263D01*
X133133195Y-119297033D01*
X133100359Y-119288234D01*
X133010651Y-119264197D01*
X132883960Y-119270837D01*
X132795313Y-119304865D01*
X131874696Y-119836384D01*
X131874684Y-119836392D01*
X131800903Y-119896139D01*
X131800902Y-119896141D01*
X131735238Y-119997256D01*
X131731805Y-120002542D01*
X131698970Y-120125083D01*
X131706056Y-120260286D01*
X131689907Y-120328263D01*
X131639570Y-120376719D01*
X131571026Y-120390268D01*
X131514692Y-120370771D01*
X131449234Y-120328263D01*
X131401144Y-120297033D01*
X131368308Y-120288234D01*
X131278600Y-120264197D01*
X131151909Y-120270837D01*
X131063262Y-120304865D01*
X130142645Y-120836384D01*
X130142633Y-120836392D01*
X130068852Y-120896139D01*
X129999754Y-121002542D01*
X129966919Y-121125083D01*
X129974005Y-121260286D01*
X129957856Y-121328263D01*
X129907519Y-121376719D01*
X129838975Y-121390268D01*
X129782640Y-121370771D01*
X129775494Y-121366130D01*
X129775493Y-121366129D01*
X129669094Y-121297033D01*
X129669091Y-121297032D01*
X129546550Y-121264197D01*
X129419859Y-121270837D01*
X129331212Y-121304865D01*
X128410595Y-121836384D01*
X128410583Y-121836392D01*
X128336802Y-121896139D01*
X128267704Y-122002542D01*
X128234869Y-122125083D01*
X128241955Y-122260286D01*
X128225806Y-122328263D01*
X128175469Y-122376719D01*
X128106925Y-122390268D01*
X128050591Y-122370771D01*
X127985133Y-122328263D01*
X127937043Y-122297033D01*
X127904207Y-122288234D01*
X127814499Y-122264197D01*
X127687808Y-122270837D01*
X127599161Y-122304865D01*
X126678544Y-122836384D01*
X126678532Y-122836392D01*
X126604751Y-122896139D01*
X126535653Y-123002542D01*
X126502818Y-123125083D01*
X126509904Y-123260286D01*
X126493755Y-123328263D01*
X126443418Y-123376719D01*
X126374874Y-123390268D01*
X126318540Y-123370771D01*
X126253082Y-123328263D01*
X126204992Y-123297033D01*
X126172156Y-123288234D01*
X126082448Y-123264197D01*
X125955757Y-123270837D01*
X125867110Y-123304865D01*
X124946493Y-123836384D01*
X124946481Y-123836392D01*
X124872700Y-123896139D01*
X124851632Y-123928582D01*
X124825469Y-123968870D01*
X124803602Y-124002542D01*
X124770767Y-124125083D01*
X124777853Y-124260286D01*
X124761704Y-124328263D01*
X124711367Y-124376719D01*
X124642823Y-124390268D01*
X124586489Y-124370771D01*
X124521031Y-124328263D01*
X124472941Y-124297033D01*
X124440105Y-124288234D01*
X124350397Y-124264197D01*
X124223706Y-124270837D01*
X124135059Y-124304865D01*
X123214442Y-124836384D01*
X123214430Y-124836392D01*
X123140649Y-124896139D01*
X123071551Y-125002542D01*
X123038716Y-125125083D01*
X123040736Y-125163615D01*
X123045356Y-125251775D01*
X123058148Y-125285098D01*
X123079384Y-125340421D01*
X123686717Y-126392351D01*
X124232358Y-127337429D01*
X124232887Y-127338344D01*
X124249500Y-127400344D01*
X124249500Y-131265393D01*
X124229815Y-131332432D01*
X124183127Y-131375189D01*
X124099151Y-131419263D01*
X124099150Y-131419264D01*
X123971816Y-131532072D01*
X123875182Y-131672068D01*
X123814860Y-131831125D01*
X123814859Y-131831130D01*
X123794355Y-132000000D01*
X123814859Y-132168869D01*
X123814860Y-132168874D01*
X123875182Y-132327931D01*
X123937475Y-132418177D01*
X123971817Y-132467929D01*
X124067496Y-132552693D01*
X124099150Y-132580736D01*
X124249773Y-132659789D01*
X124249775Y-132659790D01*
X124414944Y-132700500D01*
X124585056Y-132700500D01*
X124750225Y-132659790D01*
X124865097Y-132599500D01*
X124900849Y-132580736D01*
X124900850Y-132580734D01*
X124900852Y-132580734D01*
X125028183Y-132467929D01*
X125124818Y-132327930D01*
X125134058Y-132303564D01*
X125176236Y-132247862D01*
X125241833Y-132223805D01*
X125310023Y-132239032D01*
X125359157Y-132288707D01*
X125365942Y-132303565D01*
X125375182Y-132327931D01*
X125437475Y-132418177D01*
X125471817Y-132467929D01*
X125567496Y-132552693D01*
X125599150Y-132580736D01*
X125665776Y-132615704D01*
X125715989Y-132664289D01*
X125731963Y-132732308D01*
X125708628Y-132798165D01*
X125653391Y-132840952D01*
X125608150Y-132849500D01*
X125496590Y-132849500D01*
X125370922Y-132874497D01*
X125370912Y-132874500D01*
X125321881Y-132894810D01*
X125252542Y-132923530D01*
X125252524Y-132923540D01*
X125145993Y-132994721D01*
X125145986Y-132994727D01*
X122494725Y-135645989D01*
X122494724Y-135645990D01*
X122443947Y-135721986D01*
X122443946Y-135721986D01*
X122423536Y-135752531D01*
X122423534Y-135752535D01*
X122374499Y-135870916D01*
X122374497Y-135870922D01*
X122349500Y-135996589D01*
X122349500Y-140717065D01*
X122341442Y-140761035D01*
X122314861Y-140831122D01*
X122314859Y-140831130D01*
X122294355Y-141000000D01*
X119150500Y-141000000D01*
X119150500Y-137273756D01*
X119170185Y-137206717D01*
X119211379Y-137167023D01*
X119251865Y-137143081D01*
X119368081Y-137026865D01*
X119451744Y-136885398D01*
X119488921Y-136757435D01*
X119497597Y-136727573D01*
X119497598Y-136727567D01*
X119500500Y-136690694D01*
X119500500Y-135309306D01*
X119497598Y-135272431D01*
X119496746Y-135269500D01*
X119451745Y-135114606D01*
X119451744Y-135114603D01*
X119451744Y-135114602D01*
X119368081Y-134973135D01*
X119368079Y-134973133D01*
X119368076Y-134973129D01*
X119251870Y-134856923D01*
X119251862Y-134856917D01*
X119110396Y-134773255D01*
X119110393Y-134773254D01*
X118952573Y-134727402D01*
X118952567Y-134727401D01*
X118915701Y-134724500D01*
X118915694Y-134724500D01*
X118084306Y-134724500D01*
X118084298Y-134724500D01*
X118047432Y-134727401D01*
X118047426Y-134727402D01*
X117889606Y-134773254D01*
X117889603Y-134773255D01*
X117748137Y-134856917D01*
X117748129Y-134856923D01*
X117631923Y-134973129D01*
X117631917Y-134973137D01*
X117548255Y-135114602D01*
X117545732Y-135123289D01*
X117508124Y-135182174D01*
X117444650Y-135211378D01*
X117375464Y-135201631D01*
X117323554Y-135157582D01*
X117276751Y-135087537D01*
X117276748Y-135087533D01*
X117137466Y-134948251D01*
X117137462Y-134948248D01*
X116973684Y-134838814D01*
X116973671Y-134838807D01*
X116791693Y-134763430D01*
X116791681Y-134763427D01*
X116700000Y-134745190D01*
X116700000Y-135682457D01*
X116644745Y-135650556D01*
X116549370Y-135625000D01*
X116450630Y-135625000D01*
X116355255Y-135650556D01*
X116300000Y-135682457D01*
X116300000Y-134745190D01*
X116208318Y-134763427D01*
X116208306Y-134763430D01*
X116026328Y-134838807D01*
X116026315Y-134838814D01*
X115862537Y-134948248D01*
X115862533Y-134948251D01*
X115723251Y-135087533D01*
X115723248Y-135087537D01*
X115613814Y-135251315D01*
X115613807Y-135251328D01*
X115538430Y-135433306D01*
X115538427Y-135433318D01*
X115500000Y-135626504D01*
X115500000Y-135800000D01*
X116182457Y-135800000D01*
X116150556Y-135855255D01*
X116125000Y-135950630D01*
X116125000Y-136049370D01*
X116150556Y-136144745D01*
X116182457Y-136200000D01*
X115500000Y-136200000D01*
X115500000Y-136373495D01*
X115538427Y-136566681D01*
X115538430Y-136566693D01*
X115613807Y-136748671D01*
X115613814Y-136748684D01*
X115723248Y-136912462D01*
X115723251Y-136912466D01*
X115862533Y-137051748D01*
X115862537Y-137051751D01*
X116026315Y-137161185D01*
X116026328Y-137161192D01*
X116208307Y-137236569D01*
X116208311Y-137236570D01*
X116300000Y-137254807D01*
X116300000Y-136317542D01*
X116355255Y-136349444D01*
X116450630Y-136375000D01*
X116549370Y-136375000D01*
X116644745Y-136349444D01*
X116700000Y-136317542D01*
X116700000Y-137254807D01*
X116791688Y-137236570D01*
X116791692Y-137236569D01*
X116973671Y-137161192D01*
X116973684Y-137161185D01*
X117137462Y-137051751D01*
X117137466Y-137051748D01*
X117276749Y-136912465D01*
X117323553Y-136842418D01*
X117377165Y-136797612D01*
X117446490Y-136788905D01*
X117509518Y-136819059D01*
X117545732Y-136876712D01*
X117548254Y-136885395D01*
X117548255Y-136885396D01*
X117631917Y-137026862D01*
X117631923Y-137026870D01*
X117748129Y-137143076D01*
X117748135Y-137143081D01*
X117788620Y-137167023D01*
X117836304Y-137218092D01*
X117849500Y-137273756D01*
X117849500Y-141679192D01*
X117829815Y-141746231D01*
X117813181Y-141766873D01*
X114766873Y-144813181D01*
X114705550Y-144846666D01*
X114679192Y-144849500D01*
X107139122Y-144849500D01*
X107114930Y-144847117D01*
X107064071Y-144837000D01*
X107064069Y-144837000D01*
X106596771Y-144837000D01*
X106529732Y-144817315D01*
X106483977Y-144764511D01*
X106474033Y-144695353D01*
X106503058Y-144631797D01*
X106561836Y-144594023D01*
X106567096Y-144592603D01*
X106575894Y-144590434D01*
X106700225Y-144559790D01*
X106814144Y-144500000D01*
X106850849Y-144480736D01*
X106850850Y-144480734D01*
X106850852Y-144480734D01*
X106978183Y-144367929D01*
X107074818Y-144227930D01*
X107135140Y-144068872D01*
X107155645Y-143900000D01*
X107135140Y-143731128D01*
X107123334Y-143699999D01*
X107074817Y-143572068D01*
X107016641Y-143487787D01*
X106978183Y-143432071D01*
X106850852Y-143319266D01*
X106850850Y-143319265D01*
X106850849Y-143319264D01*
X106850845Y-143319261D01*
X106794822Y-143289858D01*
X106744610Y-143241274D01*
X106728635Y-143173255D01*
X106729333Y-143165278D01*
X106735293Y-143115649D01*
X107175000Y-143115649D01*
X107177899Y-143152489D01*
X107177900Y-143152495D01*
X107223716Y-143310193D01*
X107223717Y-143310196D01*
X107307314Y-143451552D01*
X107307321Y-143451561D01*
X107423438Y-143567678D01*
X107423447Y-143567685D01*
X107564803Y-143651282D01*
X107564806Y-143651283D01*
X107722504Y-143697099D01*
X107722510Y-143697100D01*
X107759350Y-143699999D01*
X107759366Y-143700000D01*
X108100000Y-143700000D01*
X108500000Y-143700000D01*
X108840634Y-143700000D01*
X108840649Y-143699999D01*
X108877489Y-143697100D01*
X108877495Y-143697099D01*
X109035193Y-143651283D01*
X109035196Y-143651282D01*
X109176552Y-143567685D01*
X109176561Y-143567678D01*
X109262319Y-143481921D01*
X109323642Y-143448436D01*
X109393334Y-143453420D01*
X109437681Y-143481921D01*
X109523438Y-143567678D01*
X109523447Y-143567685D01*
X109664803Y-143651282D01*
X109664806Y-143651283D01*
X109822504Y-143697099D01*
X109822510Y-143697100D01*
X109859350Y-143699999D01*
X109859366Y-143700000D01*
X110200000Y-143700000D01*
X110600000Y-143700000D01*
X110940634Y-143700000D01*
X110940649Y-143699999D01*
X110977489Y-143697100D01*
X110977495Y-143697099D01*
X111135193Y-143651283D01*
X111135196Y-143651282D01*
X111276552Y-143567685D01*
X111276561Y-143567678D01*
X111392678Y-143451561D01*
X111392685Y-143451552D01*
X111476282Y-143310196D01*
X111476283Y-143310193D01*
X111522099Y-143152495D01*
X111522100Y-143152489D01*
X111524999Y-143115649D01*
X111525000Y-143115634D01*
X111525000Y-143000000D01*
X110600000Y-143000000D01*
X110600000Y-143700000D01*
X110200000Y-143700000D01*
X110200000Y-143000000D01*
X108500000Y-143000000D01*
X108500000Y-143700000D01*
X108100000Y-143700000D01*
X108100000Y-143000000D01*
X107175000Y-143000000D01*
X107175000Y-143115649D01*
X106735293Y-143115649D01*
X106738000Y-143093103D01*
X106738000Y-142733307D01*
X106757685Y-142666268D01*
X106774319Y-142645626D01*
X106963319Y-142456626D01*
X107024642Y-142423141D01*
X107094334Y-142428125D01*
X107150267Y-142469997D01*
X107174684Y-142535461D01*
X107175000Y-142544307D01*
X107175000Y-142600000D01*
X111525000Y-142600000D01*
X111525000Y-142484365D01*
X111524999Y-142484350D01*
X111522100Y-142447510D01*
X111522099Y-142447504D01*
X111476283Y-142289806D01*
X111476282Y-142289803D01*
X111392685Y-142148447D01*
X111392678Y-142148438D01*
X111276561Y-142032321D01*
X111276552Y-142032314D01*
X111149239Y-141957022D01*
X111101556Y-141905953D01*
X111089052Y-141837211D01*
X111115697Y-141772622D01*
X111149237Y-141743559D01*
X111276865Y-141668081D01*
X111297865Y-141647081D01*
X111358128Y-141586819D01*
X111419451Y-141553334D01*
X111445809Y-141550500D01*
X114017994Y-141550500D01*
X114085033Y-141570185D01*
X114097074Y-141579302D01*
X114099154Y-141580738D01*
X114249773Y-141659789D01*
X114249775Y-141659790D01*
X114414944Y-141700500D01*
X114585056Y-141700500D01*
X114750225Y-141659790D01*
X114829692Y-141618081D01*
X114900849Y-141580736D01*
X114900850Y-141580734D01*
X114900852Y-141580734D01*
X115028183Y-141467929D01*
X115124818Y-141327930D01*
X115185140Y-141168872D01*
X115205645Y-141000000D01*
X115185140Y-140831128D01*
X115181569Y-140821713D01*
X115124817Y-140672068D01*
X115061773Y-140580734D01*
X115028183Y-140532071D01*
X114900852Y-140419266D01*
X114900849Y-140419263D01*
X114750228Y-140340211D01*
X114750223Y-140340209D01*
X114744182Y-140338720D01*
X114714025Y-140325421D01*
X114713499Y-140326406D01*
X114708130Y-140323536D01*
X114589744Y-140274499D01*
X114589738Y-140274497D01*
X114464071Y-140249500D01*
X114464069Y-140249500D01*
X111445809Y-140249500D01*
X111378770Y-140229815D01*
X111358128Y-140213181D01*
X111276870Y-140131923D01*
X111276862Y-140131917D01*
X111192554Y-140082058D01*
X111186437Y-140078440D01*
X111138755Y-140027372D01*
X111126251Y-139958631D01*
X111152896Y-139894041D01*
X111204067Y-139856355D01*
X111259842Y-139834361D01*
X111380422Y-139742922D01*
X111471861Y-139622342D01*
X111527377Y-139481564D01*
X111538000Y-139393102D01*
X111538000Y-139006898D01*
X111527377Y-138918436D01*
X111471861Y-138777658D01*
X111471860Y-138777657D01*
X111471860Y-138777656D01*
X111380422Y-138657077D01*
X111259843Y-138565639D01*
X111119061Y-138510122D01*
X111073426Y-138504642D01*
X111030602Y-138499500D01*
X109787000Y-138499500D01*
X109719961Y-138479815D01*
X109674206Y-138427011D01*
X109663000Y-138375500D01*
X109663000Y-138124000D01*
X109682685Y-138056961D01*
X109735489Y-138011206D01*
X109787000Y-138000000D01*
X110200000Y-138000000D01*
X110600000Y-138000000D01*
X111030554Y-138000000D01*
X111118943Y-137989386D01*
X111259595Y-137933920D01*
X111380064Y-137842564D01*
X111471420Y-137722095D01*
X111526886Y-137581443D01*
X111526886Y-137581442D01*
X111536667Y-137500000D01*
X110600000Y-137500000D01*
X110600000Y-138000000D01*
X110200000Y-138000000D01*
X110200000Y-137500000D01*
X109263333Y-137500000D01*
X109256204Y-137508036D01*
X109196990Y-137545123D01*
X109159308Y-137549175D01*
X109159308Y-137549500D01*
X109156291Y-137549500D01*
X109156049Y-137549526D01*
X109155614Y-137549500D01*
X109155602Y-137549500D01*
X107894398Y-137549500D01*
X107855353Y-137554188D01*
X107805938Y-137560122D01*
X107665156Y-137615639D01*
X107544577Y-137707077D01*
X107453139Y-137827656D01*
X107397622Y-137968438D01*
X107393335Y-138004146D01*
X107387000Y-138056898D01*
X107387000Y-138443102D01*
X107387435Y-138446729D01*
X107375884Y-138515636D01*
X107328911Y-138567360D01*
X107261431Y-138585477D01*
X107194868Y-138564236D01*
X107165055Y-138535824D01*
X107153976Y-138521024D01*
X107049876Y-138443096D01*
X107035882Y-138432620D01*
X107035883Y-138432620D01*
X106897673Y-138381070D01*
X106897668Y-138381069D01*
X106836581Y-138374500D01*
X106836565Y-138374500D01*
X106801962Y-138374500D01*
X106777770Y-138372117D01*
X106664071Y-138349500D01*
X106664069Y-138349500D01*
X106535931Y-138349500D01*
X106535928Y-138349500D01*
X106422225Y-138372117D01*
X106398037Y-138374500D01*
X106363439Y-138374500D01*
X106363430Y-138374501D01*
X106302334Y-138381068D01*
X106164114Y-138432622D01*
X106046024Y-138521024D01*
X105957620Y-138639117D01*
X105906070Y-138777326D01*
X105906069Y-138777331D01*
X105899500Y-138838418D01*
X105899500Y-139161560D01*
X105899501Y-139161570D01*
X105906068Y-139222667D01*
X105957619Y-139360880D01*
X105957620Y-139360883D01*
X105959314Y-139363145D01*
X105974602Y-139389995D01*
X106023533Y-139508124D01*
X106023534Y-139508126D01*
X106023535Y-139508127D01*
X106084686Y-139599648D01*
X106094726Y-139614673D01*
X106094727Y-139614674D01*
X107067873Y-140587819D01*
X107101358Y-140649142D01*
X107096374Y-140718833D01*
X107054502Y-140774767D01*
X106991913Y-140798111D01*
X106991991Y-140798903D01*
X106985926Y-140799500D01*
X106874256Y-140821713D01*
X106804665Y-140815486D01*
X106749487Y-140772623D01*
X106731170Y-140725681D01*
X106729327Y-140726148D01*
X106727379Y-140718443D01*
X106727377Y-140718438D01*
X106727377Y-140718436D01*
X106671861Y-140577658D01*
X106671860Y-140577657D01*
X106671860Y-140577656D01*
X106580422Y-140457077D01*
X106459843Y-140365639D01*
X106353074Y-140323535D01*
X106319064Y-140310123D01*
X106319063Y-140310122D01*
X106319061Y-140310122D01*
X106273426Y-140304642D01*
X106230602Y-140299500D01*
X106230597Y-140299500D01*
X105870808Y-140299500D01*
X105803769Y-140279815D01*
X105783127Y-140263181D01*
X105186819Y-139666873D01*
X105153334Y-139605550D01*
X105150500Y-139579192D01*
X105150500Y-139361482D01*
X105158318Y-139318148D01*
X105165274Y-139299500D01*
X105193931Y-139222667D01*
X105196893Y-139195117D01*
X105200499Y-139161581D01*
X105200499Y-139161570D01*
X105200500Y-139161565D01*
X105200499Y-138838436D01*
X105193931Y-138777333D01*
X105193931Y-138777332D01*
X105158318Y-138681849D01*
X105150500Y-138638516D01*
X105150500Y-137991363D01*
X105170185Y-137924324D01*
X105211376Y-137884632D01*
X105239365Y-137868081D01*
X105355581Y-137751865D01*
X105381058Y-137708784D01*
X105432126Y-137661102D01*
X105500868Y-137648598D01*
X105565457Y-137675243D01*
X105594522Y-137708785D01*
X105619814Y-137751552D01*
X105619821Y-137751561D01*
X105735938Y-137867678D01*
X105735947Y-137867685D01*
X105877303Y-137951282D01*
X105877306Y-137951283D01*
X106035004Y-137997099D01*
X106035010Y-137997100D01*
X106071850Y-137999999D01*
X106071866Y-138000000D01*
X106200000Y-138000000D01*
X106600000Y-138000000D01*
X106728134Y-138000000D01*
X106728149Y-137999999D01*
X106764989Y-137997100D01*
X106764995Y-137997099D01*
X106922693Y-137951283D01*
X106922696Y-137951282D01*
X107064052Y-137867685D01*
X107064061Y-137867678D01*
X107180178Y-137751561D01*
X107180185Y-137751552D01*
X107263782Y-137610196D01*
X107263783Y-137610193D01*
X107309599Y-137452495D01*
X107309600Y-137452489D01*
X107312499Y-137415649D01*
X107312500Y-137415634D01*
X107312500Y-137100000D01*
X109263332Y-137100000D01*
X110200000Y-137100000D01*
X110600000Y-137100000D01*
X111536667Y-137100000D01*
X111526886Y-137018557D01*
X111526886Y-137018556D01*
X111471420Y-136877904D01*
X111380064Y-136757435D01*
X111259595Y-136666079D01*
X111118943Y-136610613D01*
X111030554Y-136600000D01*
X110600000Y-136600000D01*
X110600000Y-137100000D01*
X110200000Y-137100000D01*
X110200000Y-136600000D01*
X109769446Y-136600000D01*
X109681056Y-136610613D01*
X109540404Y-136666079D01*
X109419935Y-136757435D01*
X109328579Y-136877904D01*
X109273113Y-137018556D01*
X109273113Y-137018557D01*
X109263332Y-137100000D01*
X107312500Y-137100000D01*
X106600000Y-137100000D01*
X106600000Y-138000000D01*
X106200000Y-138000000D01*
X106200000Y-136700000D01*
X106600000Y-136700000D01*
X107312500Y-136700000D01*
X107312500Y-136384365D01*
X107312499Y-136384350D01*
X107309600Y-136347510D01*
X107309599Y-136347504D01*
X107263783Y-136189806D01*
X107263782Y-136189803D01*
X107180185Y-136048447D01*
X107180178Y-136048438D01*
X107064061Y-135932321D01*
X107064052Y-135932314D01*
X106922696Y-135848717D01*
X106922693Y-135848716D01*
X106764995Y-135802900D01*
X106764989Y-135802899D01*
X106728149Y-135800000D01*
X106600000Y-135800000D01*
X106600000Y-136700000D01*
X106200000Y-136700000D01*
X106200000Y-135800000D01*
X106071850Y-135800000D01*
X106035010Y-135802899D01*
X106035004Y-135802900D01*
X105877306Y-135848716D01*
X105877303Y-135848717D01*
X105735947Y-135932314D01*
X105735938Y-135932321D01*
X105619821Y-136048438D01*
X105619812Y-136048449D01*
X105594521Y-136091215D01*
X105543452Y-136138898D01*
X105474710Y-136151401D01*
X105410121Y-136124755D01*
X105381058Y-136091214D01*
X105355583Y-136048138D01*
X105355576Y-136048129D01*
X105239370Y-135931923D01*
X105239362Y-135931917D01*
X105114871Y-135858294D01*
X105097898Y-135848256D01*
X105097897Y-135848255D01*
X105097896Y-135848255D01*
X105097893Y-135848254D01*
X104940073Y-135802402D01*
X104940067Y-135802401D01*
X104903201Y-135799500D01*
X104903194Y-135799500D01*
X104246806Y-135799500D01*
X104246798Y-135799500D01*
X104209932Y-135802401D01*
X104209926Y-135802402D01*
X104052106Y-135848254D01*
X104052103Y-135848255D01*
X103910637Y-135931917D01*
X103910629Y-135931923D01*
X103794423Y-136048129D01*
X103794417Y-136048137D01*
X103710755Y-136189603D01*
X103710754Y-136189606D01*
X103664902Y-136347426D01*
X103664901Y-136347432D01*
X103662000Y-136384298D01*
X103662000Y-137415701D01*
X103664901Y-137452567D01*
X103664902Y-137452573D01*
X103710754Y-137610393D01*
X103710755Y-137610396D01*
X103767931Y-137707077D01*
X103794419Y-137751865D01*
X103794423Y-137751869D01*
X103813179Y-137770625D01*
X103846666Y-137831947D01*
X103849500Y-137858308D01*
X103849500Y-138638516D01*
X103841682Y-138681849D01*
X103806069Y-138777330D01*
X103806069Y-138777331D01*
X103799465Y-138838756D01*
X103772727Y-138903307D01*
X103715335Y-138943155D01*
X103676176Y-138949500D01*
X103585929Y-138949500D01*
X103476293Y-138971309D01*
X103464236Y-138973707D01*
X103460255Y-138974499D01*
X103341874Y-139023534D01*
X103235326Y-139094726D01*
X101294726Y-141035326D01*
X101223534Y-141141874D01*
X101174499Y-141260255D01*
X101174497Y-141260261D01*
X101149500Y-141385928D01*
X101149500Y-145441747D01*
X101129815Y-145508786D01*
X101077011Y-145554541D01*
X101007853Y-145564485D01*
X100944297Y-145535460D01*
X100906523Y-145476682D01*
X100902822Y-145459805D01*
X100894797Y-145405284D01*
X100875186Y-145272060D01*
X100874825Y-145269397D01*
X100769463Y-144420593D01*
X100769182Y-144418125D01*
X100760162Y-144331130D01*
X100680574Y-143563554D01*
X100680318Y-143560764D01*
X100611419Y-142701497D01*
X100611239Y-142698917D01*
X100594405Y-142414675D01*
X100560047Y-141834550D01*
X100559912Y-141831730D01*
X100559516Y-141820814D01*
X100528403Y-140962292D01*
X100528338Y-140959759D01*
X100524647Y-140725681D01*
X100515601Y-140151892D01*
X100514515Y-140083009D01*
X100514500Y-140081054D01*
X100514500Y-139921478D01*
X100514508Y-139920083D01*
X100519353Y-139489322D01*
X100524392Y-139041342D01*
X100524451Y-139038678D01*
X100527288Y-138952207D01*
X100553006Y-138168209D01*
X100553118Y-138165631D01*
X100600385Y-137300050D01*
X100600557Y-137297432D01*
X100666540Y-136436712D01*
X100666751Y-136434287D01*
X100750444Y-135578644D01*
X100750737Y-135575969D01*
X100853064Y-134726842D01*
X100853414Y-134724196D01*
X100974532Y-133880307D01*
X100974893Y-133877962D01*
X101112774Y-133038861D01*
X101113212Y-133036363D01*
X101268717Y-132204701D01*
X101269243Y-132202052D01*
X101269569Y-132200500D01*
X101442423Y-131376495D01*
X101442982Y-131373969D01*
X101634034Y-130554615D01*
X101634605Y-130552276D01*
X101841326Y-129739174D01*
X101842019Y-129736572D01*
X102066371Y-128931659D01*
X102067061Y-128929283D01*
X102308309Y-128129721D01*
X102309034Y-128127407D01*
X102565935Y-127336031D01*
X102566767Y-127333559D01*
X102840405Y-126550054D01*
X102841263Y-126547680D01*
X102848541Y-126528149D01*
X103130713Y-125770890D01*
X103131585Y-125768622D01*
X103226177Y-125530309D01*
X103269205Y-125475264D01*
X103335164Y-125452217D01*
X103353226Y-125452622D01*
X113259509Y-126400446D01*
X113598047Y-126432837D01*
X113662907Y-126458817D01*
X113681018Y-126476319D01*
X114822425Y-127829394D01*
X117294861Y-130760333D01*
X123634167Y-127100333D01*
X115514167Y-113036081D01*
X115514165Y-113036080D01*
X115514018Y-113036166D01*
X115446118Y-113052636D01*
X115380092Y-113029783D01*
X115345107Y-112991590D01*
X115342460Y-112987085D01*
X113872515Y-110485102D01*
X113855529Y-110417330D01*
X113877880Y-110351131D01*
X113898036Y-110328743D01*
X114395542Y-109895920D01*
X114397416Y-109894326D01*
X115022503Y-109373583D01*
X115024358Y-109372070D01*
X115660388Y-108864034D01*
X115662307Y-108862533D01*
X116308938Y-108367472D01*
X116310994Y-108365932D01*
X116968882Y-107884333D01*
X116970684Y-107883041D01*
X117637507Y-107414197D01*
X117639540Y-107412799D01*
X118317749Y-106957050D01*
X118319885Y-106955647D01*
X119006929Y-106514679D01*
X119009057Y-106513345D01*
X119705979Y-106086135D01*
X119708148Y-106084837D01*
X120414027Y-105672335D01*
X120416191Y-105671101D01*
X120570077Y-105585374D01*
X120638219Y-105569945D01*
X120703888Y-105593807D01*
X120746232Y-105649384D01*
X120751806Y-105719031D01*
X120718842Y-105780636D01*
X120718102Y-105781381D01*
X116459491Y-110039993D01*
X116459489Y-110039995D01*
X116434838Y-110082694D01*
X116416357Y-110114705D01*
X116401014Y-110141280D01*
X116387506Y-110164677D01*
X116387016Y-110165525D01*
X116349500Y-110305535D01*
X116349500Y-110305537D01*
X116349500Y-111176820D01*
X116329815Y-111243859D01*
X116287500Y-111284207D01*
X115614442Y-111672798D01*
X115614430Y-111672806D01*
X115540649Y-111732553D01*
X115471551Y-111838956D01*
X115438716Y-111961497D01*
X115445356Y-112088188D01*
X115479384Y-112176835D01*
X116760903Y-114396490D01*
X116760911Y-114396502D01*
X116820658Y-114470283D01*
X116820660Y-114470285D01*
X116927059Y-114539381D01*
X117049602Y-114572216D01*
X117176294Y-114565577D01*
X117264941Y-114531548D01*
X118185558Y-114000029D01*
X118185562Y-114000025D01*
X118185569Y-114000021D01*
X118249244Y-113948458D01*
X118259352Y-113940273D01*
X118328448Y-113833874D01*
X118361283Y-113711331D01*
X118354644Y-113584639D01*
X118354642Y-113584636D01*
X118354197Y-113576128D01*
X118370346Y-113508150D01*
X118420683Y-113459694D01*
X118489226Y-113446145D01*
X118545561Y-113465642D01*
X118552711Y-113470285D01*
X118659110Y-113539381D01*
X118781653Y-113572216D01*
X118908345Y-113565577D01*
X118996992Y-113531548D01*
X119917609Y-113000029D01*
X119917613Y-113000025D01*
X119917620Y-113000021D01*
X119961466Y-112964514D01*
X119991403Y-112940273D01*
X120060499Y-112833874D01*
X120093334Y-112711331D01*
X120086695Y-112584639D01*
X120086693Y-112584636D01*
X120086248Y-112576128D01*
X120102397Y-112508150D01*
X120152734Y-112459694D01*
X120221277Y-112446145D01*
X120277612Y-112465642D01*
X120284762Y-112470285D01*
X120391161Y-112539381D01*
X120513704Y-112572216D01*
X120640396Y-112565577D01*
X120729043Y-112531548D01*
X121649660Y-112000029D01*
X121649664Y-112000025D01*
X121649671Y-112000021D01*
X121697244Y-111961497D01*
X121723454Y-111940273D01*
X121792550Y-111833874D01*
X121825385Y-111711331D01*
X121818746Y-111584639D01*
X121818744Y-111584636D01*
X121818299Y-111576128D01*
X121834448Y-111508150D01*
X121884785Y-111459694D01*
X121953328Y-111446145D01*
X122009663Y-111465642D01*
X122016813Y-111470285D01*
X122123212Y-111539381D01*
X122245755Y-111572216D01*
X122372447Y-111565577D01*
X122461094Y-111531548D01*
X122991703Y-111225199D01*
X123059603Y-111208727D01*
X123125630Y-111231579D01*
X123168821Y-111286501D01*
X123177703Y-111332587D01*
X123177703Y-111850988D01*
X123158018Y-111918027D01*
X123141384Y-111938669D01*
X121242219Y-113837833D01*
X121212166Y-113859948D01*
X121099146Y-113919267D01*
X120971816Y-114032072D01*
X120875182Y-114172068D01*
X120814860Y-114331125D01*
X120814859Y-114331130D01*
X120794355Y-114500000D01*
X120814859Y-114668869D01*
X120814860Y-114668874D01*
X120875182Y-114827931D01*
X120916491Y-114887776D01*
X120971817Y-114967929D01*
X121033350Y-115022442D01*
X121099150Y-115080736D01*
X121249773Y-115159789D01*
X121249775Y-115159790D01*
X121414944Y-115200500D01*
X121585056Y-115200500D01*
X121750225Y-115159790D01*
X121870032Y-115096910D01*
X121900849Y-115080736D01*
X121900850Y-115080734D01*
X121900852Y-115080734D01*
X122028183Y-114967929D01*
X122124818Y-114827930D01*
X122135419Y-114799975D01*
X122163679Y-114756265D01*
X124333479Y-112586467D01*
X124404668Y-112479924D01*
X124453704Y-112361541D01*
X124458111Y-112339384D01*
X124478703Y-112235866D01*
X124478703Y-110438271D01*
X124498388Y-110371232D01*
X124540703Y-110330884D01*
X124544420Y-110328738D01*
X125113761Y-110000029D01*
X125113765Y-110000025D01*
X125113772Y-110000021D01*
X125164051Y-109959306D01*
X125187555Y-109940273D01*
X125256651Y-109833874D01*
X125289486Y-109711331D01*
X125282847Y-109584639D01*
X125282845Y-109584636D01*
X125282400Y-109576128D01*
X125298549Y-109508150D01*
X125348886Y-109459694D01*
X125417429Y-109446145D01*
X125473764Y-109465642D01*
X125480914Y-109470285D01*
X125587313Y-109539381D01*
X125709856Y-109572216D01*
X125836548Y-109565577D01*
X125925195Y-109531548D01*
X126845812Y-109000029D01*
X126845816Y-109000025D01*
X126845823Y-109000021D01*
X126896619Y-108958887D01*
X126919606Y-108940273D01*
X126988702Y-108833874D01*
X127021537Y-108711331D01*
X127015697Y-108599900D01*
X127031846Y-108531926D01*
X127082182Y-108483470D01*
X127150726Y-108469921D01*
X127215713Y-108495579D01*
X127227208Y-108505733D01*
X127774169Y-109052693D01*
X127807654Y-109114016D01*
X127809584Y-109125426D01*
X127814859Y-109168870D01*
X127814860Y-109168875D01*
X127875182Y-109327930D01*
X127875182Y-109327931D01*
X127926353Y-109402063D01*
X127971817Y-109467929D01*
X128070010Y-109554920D01*
X128099150Y-109580736D01*
X128249773Y-109659789D01*
X128249775Y-109659790D01*
X128414944Y-109700500D01*
X128585056Y-109700500D01*
X128750225Y-109659790D01*
X128830172Y-109617830D01*
X128900849Y-109580736D01*
X128900850Y-109580734D01*
X128900852Y-109580734D01*
X129028183Y-109467929D01*
X129124818Y-109327930D01*
X129185140Y-109168872D01*
X129205645Y-109000000D01*
X129185140Y-108831128D01*
X129124818Y-108672070D01*
X129102182Y-108639277D01*
X129064468Y-108584639D01*
X129028183Y-108532071D01*
X128900852Y-108419266D01*
X128900849Y-108419263D01*
X128750226Y-108340210D01*
X128609286Y-108305472D01*
X128551280Y-108272756D01*
X128502376Y-108223852D01*
X128468891Y-108162529D01*
X128473875Y-108092837D01*
X128515747Y-108036904D01*
X128528059Y-108028783D01*
X128577856Y-108000033D01*
X128577855Y-108000033D01*
X128577863Y-108000029D01*
X128577867Y-108000025D01*
X128577871Y-108000023D01*
X128627823Y-107959573D01*
X128651657Y-107940273D01*
X128720753Y-107833874D01*
X128753588Y-107711331D01*
X128746949Y-107584639D01*
X128746947Y-107584636D01*
X128746502Y-107576128D01*
X128762651Y-107508150D01*
X128812988Y-107459694D01*
X128881531Y-107446145D01*
X128937866Y-107465642D01*
X128960055Y-107480052D01*
X129051415Y-107539381D01*
X129173958Y-107572216D01*
X129300650Y-107565577D01*
X129389297Y-107531548D01*
X130008735Y-107173914D01*
X130076634Y-107157442D01*
X130142661Y-107180294D01*
X130185852Y-107235216D01*
X130192493Y-107304769D01*
X130190724Y-107312460D01*
X130190700Y-107312682D01*
X130197340Y-107439373D01*
X130197340Y-107439374D01*
X130231366Y-107528016D01*
X130231370Y-107528025D01*
X130762887Y-108448637D01*
X130762895Y-108448649D01*
X130822642Y-108522430D01*
X130822644Y-108522432D01*
X130929043Y-108591528D01*
X131051586Y-108624363D01*
X131178278Y-108617724D01*
X131178280Y-108617722D01*
X131186788Y-108617277D01*
X131254766Y-108633426D01*
X131303222Y-108683762D01*
X131316771Y-108752306D01*
X131297274Y-108808641D01*
X131223536Y-108922190D01*
X131190700Y-109044733D01*
X131197340Y-109171424D01*
X131197340Y-109171425D01*
X131231366Y-109260067D01*
X131231370Y-109260076D01*
X131762887Y-110180688D01*
X131762895Y-110180700D01*
X131822642Y-110254481D01*
X131822644Y-110254483D01*
X131929043Y-110323579D01*
X132051586Y-110356414D01*
X132178278Y-110349775D01*
X132178280Y-110349773D01*
X132186788Y-110349328D01*
X132254766Y-110365477D01*
X132303222Y-110415813D01*
X132316771Y-110484357D01*
X132297274Y-110540692D01*
X132223536Y-110654241D01*
X132190700Y-110776784D01*
X132197340Y-110903475D01*
X132197340Y-110903476D01*
X132231366Y-110992118D01*
X132231370Y-110992127D01*
X132762887Y-111912739D01*
X132762895Y-111912751D01*
X132822642Y-111986532D01*
X132822644Y-111986534D01*
X132929043Y-112055630D01*
X133051586Y-112088465D01*
X133178278Y-112081826D01*
X133178280Y-112081824D01*
X133186788Y-112081379D01*
X133254766Y-112097528D01*
X133303222Y-112147864D01*
X133316771Y-112216408D01*
X133297274Y-112272743D01*
X133223536Y-112386291D01*
X133190700Y-112508834D01*
X133197340Y-112635525D01*
X133197340Y-112635526D01*
X133231366Y-112724168D01*
X133231370Y-112724177D01*
X133762887Y-113644789D01*
X133762895Y-113644801D01*
X133822642Y-113718582D01*
X133822644Y-113718584D01*
X133929043Y-113787680D01*
X134051586Y-113820515D01*
X134178278Y-113813876D01*
X134178280Y-113813874D01*
X134186788Y-113813429D01*
X134254766Y-113829578D01*
X134303222Y-113879914D01*
X134316771Y-113948458D01*
X134297274Y-114004793D01*
X134223536Y-114118342D01*
X134190700Y-114240885D01*
X134197340Y-114367576D01*
X134197340Y-114367577D01*
X134231366Y-114456219D01*
X134231370Y-114456228D01*
X134762887Y-115376840D01*
X134762895Y-115376852D01*
X134820540Y-115448037D01*
X134822644Y-115450635D01*
X134929043Y-115519731D01*
X135051586Y-115552566D01*
X135178278Y-115545927D01*
X135178280Y-115545925D01*
X135186788Y-115545480D01*
X135254766Y-115561629D01*
X135303222Y-115611965D01*
X135316771Y-115680509D01*
X135297274Y-115736844D01*
X135223536Y-115850393D01*
X135190700Y-115972936D01*
X135197340Y-116099627D01*
X135197340Y-116099628D01*
X135231366Y-116188270D01*
X135231370Y-116188279D01*
X135762887Y-117108891D01*
X135762895Y-117108903D01*
X135822642Y-117182684D01*
X135822644Y-117182686D01*
X135929043Y-117251782D01*
X135929047Y-117251783D01*
X135929050Y-117251785D01*
X135937961Y-117255753D01*
X135937443Y-117256914D01*
X135988670Y-117288137D01*
X136019200Y-117350984D01*
X136010906Y-117420359D01*
X135974250Y-117464755D01*
X135972561Y-117471058D01*
X136697560Y-118726793D01*
X136697561Y-118726793D01*
X137303777Y-118376795D01*
X137303777Y-118376794D01*
X136763040Y-117440210D01*
X136763036Y-117440205D01*
X136703354Y-117366502D01*
X136597092Y-117297494D01*
X136588176Y-117293525D01*
X136588725Y-117292291D01*
X136537734Y-117261207D01*
X136507209Y-117198358D01*
X136515508Y-117128983D01*
X136559996Y-117075107D01*
X136567475Y-117070425D01*
X137880362Y-116312430D01*
X137880368Y-116312424D01*
X137880373Y-116312422D01*
X137924219Y-116276915D01*
X137954156Y-116252674D01*
X138023252Y-116146275D01*
X138056087Y-116023732D01*
X138049448Y-115897040D01*
X138015420Y-115808393D01*
X137483900Y-114887776D01*
X137483892Y-114887764D01*
X137424145Y-114813983D01*
X137424144Y-114813982D01*
X137317745Y-114744886D01*
X137317742Y-114744885D01*
X137195201Y-114712050D01*
X137195200Y-114712050D01*
X137059998Y-114719136D01*
X136992021Y-114702987D01*
X136943565Y-114652650D01*
X136930016Y-114584106D01*
X136949514Y-114527771D01*
X136954156Y-114520623D01*
X137023252Y-114414224D01*
X137056087Y-114291681D01*
X137049448Y-114164989D01*
X137015420Y-114076342D01*
X136483900Y-113155725D01*
X136483892Y-113155713D01*
X136424145Y-113081932D01*
X136424144Y-113081931D01*
X136317745Y-113012835D01*
X136317742Y-113012834D01*
X136195201Y-112979999D01*
X136195200Y-112979999D01*
X136059998Y-112987085D01*
X135992021Y-112970936D01*
X135943565Y-112920599D01*
X135930016Y-112852055D01*
X135949514Y-112795720D01*
X135954156Y-112788572D01*
X136023252Y-112682173D01*
X136056087Y-112559630D01*
X136049448Y-112432938D01*
X136015420Y-112344291D01*
X135483900Y-111423674D01*
X135483892Y-111423662D01*
X135424145Y-111349881D01*
X135424144Y-111349880D01*
X135317745Y-111280784D01*
X135317742Y-111280783D01*
X135195201Y-111247948D01*
X135195200Y-111247948D01*
X135059998Y-111255034D01*
X134992021Y-111238885D01*
X134943565Y-111188548D01*
X134930016Y-111120004D01*
X134949514Y-111063669D01*
X134954154Y-111056523D01*
X134954156Y-111056522D01*
X135023252Y-110950123D01*
X135056087Y-110827580D01*
X135049448Y-110700888D01*
X135015420Y-110612241D01*
X134483900Y-109691624D01*
X134483892Y-109691612D01*
X134424145Y-109617831D01*
X134424144Y-109617830D01*
X134317745Y-109548734D01*
X134317742Y-109548733D01*
X134195201Y-109515898D01*
X134195200Y-109515898D01*
X134059998Y-109522984D01*
X133992021Y-109506835D01*
X133943565Y-109456498D01*
X133930016Y-109387954D01*
X133949514Y-109331619D01*
X133957213Y-109319764D01*
X134023252Y-109218072D01*
X134056087Y-109095529D01*
X134049448Y-108968837D01*
X134015420Y-108880190D01*
X133483900Y-107959573D01*
X133483892Y-107959561D01*
X133424145Y-107885780D01*
X133424144Y-107885779D01*
X133317745Y-107816683D01*
X133317742Y-107816682D01*
X133195201Y-107783847D01*
X133195200Y-107783847D01*
X133059998Y-107790933D01*
X132992021Y-107774784D01*
X132943565Y-107724447D01*
X132930016Y-107655903D01*
X132949514Y-107599568D01*
X132964736Y-107576128D01*
X133023252Y-107486021D01*
X133056087Y-107363478D01*
X133049448Y-107236786D01*
X133015420Y-107148139D01*
X132907662Y-106961497D01*
X132741048Y-106672914D01*
X132724575Y-106605014D01*
X132747427Y-106538987D01*
X132802349Y-106495796D01*
X132848435Y-106486914D01*
X133525500Y-106486914D01*
X133592539Y-106506599D01*
X133638294Y-106559403D01*
X133649500Y-106610914D01*
X133649500Y-107040701D01*
X133652401Y-107077567D01*
X133652402Y-107077573D01*
X133698254Y-107235393D01*
X133698255Y-107235396D01*
X133698256Y-107235398D01*
X133718212Y-107269142D01*
X133781917Y-107376862D01*
X133781923Y-107376870D01*
X133863181Y-107458128D01*
X133896666Y-107519451D01*
X133899500Y-107545809D01*
X133899500Y-107850125D01*
X133898596Y-107865071D01*
X133894355Y-107899999D01*
X133914859Y-108068869D01*
X133914860Y-108068874D01*
X133975182Y-108227931D01*
X134026264Y-108301935D01*
X134071817Y-108367929D01*
X134175026Y-108459364D01*
X134199150Y-108480736D01*
X134316441Y-108542295D01*
X134349775Y-108559790D01*
X134514944Y-108600500D01*
X134685056Y-108600500D01*
X134850225Y-108559790D01*
X134953221Y-108505733D01*
X135000849Y-108480736D01*
X135000850Y-108480734D01*
X135000852Y-108480734D01*
X135128183Y-108367929D01*
X135224818Y-108227930D01*
X135285140Y-108068872D01*
X135305645Y-107900000D01*
X135285140Y-107731128D01*
X135225215Y-107573119D01*
X135219849Y-107503458D01*
X135252997Y-107441952D01*
X135253357Y-107441589D01*
X135318081Y-107376865D01*
X135393559Y-107249237D01*
X135444627Y-107201556D01*
X135513368Y-107189052D01*
X135577958Y-107215697D01*
X135607022Y-107249239D01*
X135682314Y-107376552D01*
X135682321Y-107376561D01*
X135798438Y-107492678D01*
X135798447Y-107492685D01*
X135939803Y-107576282D01*
X135939806Y-107576283D01*
X136097504Y-107622099D01*
X136097510Y-107622100D01*
X136134350Y-107624999D01*
X136134366Y-107625000D01*
X136250000Y-107625000D01*
X136650000Y-107625000D01*
X136765634Y-107625000D01*
X136765649Y-107624999D01*
X136802489Y-107622100D01*
X136802495Y-107622099D01*
X136960193Y-107576283D01*
X136960196Y-107576282D01*
X137101552Y-107492685D01*
X137101561Y-107492678D01*
X137217678Y-107376561D01*
X137217685Y-107376552D01*
X137301282Y-107235196D01*
X137301283Y-107235193D01*
X137347099Y-107077495D01*
X137347100Y-107077489D01*
X137349999Y-107040649D01*
X137350000Y-107040634D01*
X137350000Y-106700000D01*
X136650000Y-106700000D01*
X136650000Y-107625000D01*
X136250000Y-107625000D01*
X136250000Y-106300000D01*
X136650000Y-106300000D01*
X137350000Y-106300000D01*
X137350000Y-105959365D01*
X137349999Y-105959350D01*
X137347100Y-105922510D01*
X137347099Y-105922504D01*
X137301283Y-105764806D01*
X137301282Y-105764803D01*
X137217685Y-105623447D01*
X137217678Y-105623438D01*
X137101561Y-105507321D01*
X137101552Y-105507314D01*
X136960196Y-105423717D01*
X136960193Y-105423716D01*
X136802495Y-105377900D01*
X136802489Y-105377899D01*
X136765649Y-105375000D01*
X136650000Y-105375000D01*
X136650000Y-106300000D01*
X136250000Y-106300000D01*
X136250000Y-105375000D01*
X136134350Y-105375000D01*
X136097510Y-105377899D01*
X136097504Y-105377900D01*
X135939806Y-105423716D01*
X135939803Y-105423717D01*
X135798447Y-105507314D01*
X135798438Y-105507321D01*
X135682321Y-105623438D01*
X135682314Y-105623447D01*
X135607022Y-105750760D01*
X135555953Y-105798444D01*
X135487211Y-105810947D01*
X135422622Y-105784301D01*
X135393558Y-105750760D01*
X135346439Y-105671086D01*
X135318081Y-105623135D01*
X135318078Y-105623132D01*
X135318076Y-105623129D01*
X135236819Y-105541872D01*
X135203334Y-105480549D01*
X135200500Y-105454191D01*
X135200500Y-105045809D01*
X135220185Y-104978770D01*
X135236819Y-104958128D01*
X135318076Y-104876870D01*
X135318081Y-104876865D01*
X135393559Y-104749237D01*
X135444627Y-104701556D01*
X135513368Y-104689052D01*
X135577958Y-104715697D01*
X135607022Y-104749239D01*
X135682314Y-104876552D01*
X135682321Y-104876561D01*
X135798438Y-104992678D01*
X135798447Y-104992685D01*
X135939803Y-105076282D01*
X135939806Y-105076283D01*
X136097504Y-105122099D01*
X136097510Y-105122100D01*
X136134350Y-105124999D01*
X136134366Y-105125000D01*
X136250000Y-105125000D01*
X136650000Y-105125000D01*
X136765634Y-105125000D01*
X136765649Y-105124999D01*
X136802489Y-105122100D01*
X136802495Y-105122099D01*
X136960193Y-105076283D01*
X136960196Y-105076282D01*
X137101552Y-104992685D01*
X137101561Y-104992678D01*
X137217678Y-104876561D01*
X137217685Y-104876552D01*
X137301282Y-104735196D01*
X137301283Y-104735193D01*
X137347099Y-104577495D01*
X137347100Y-104577489D01*
X137349999Y-104540649D01*
X137350000Y-104540634D01*
X137350000Y-104200000D01*
X136650000Y-104200000D01*
X136650000Y-105125000D01*
X136250000Y-105125000D01*
X136250000Y-103800000D01*
X136650000Y-103800000D01*
X137350000Y-103800000D01*
X137350000Y-103459365D01*
X137349999Y-103459350D01*
X137347100Y-103422510D01*
X137347099Y-103422504D01*
X137301283Y-103264806D01*
X137301282Y-103264803D01*
X137217685Y-103123447D01*
X137217678Y-103123438D01*
X137101561Y-103007321D01*
X137101552Y-103007314D01*
X136960196Y-102923717D01*
X136960193Y-102923716D01*
X136802495Y-102877900D01*
X136802489Y-102877899D01*
X136765649Y-102875000D01*
X136650000Y-102875000D01*
X136650000Y-103800000D01*
X136250000Y-103800000D01*
X136250000Y-102875000D01*
X136134350Y-102875000D01*
X136097510Y-102877899D01*
X136097504Y-102877900D01*
X135939806Y-102923716D01*
X135939803Y-102923717D01*
X135798447Y-103007314D01*
X135798438Y-103007321D01*
X135682321Y-103123438D01*
X135682314Y-103123447D01*
X135607022Y-103250760D01*
X135555953Y-103298444D01*
X135487211Y-103310947D01*
X135422622Y-103284301D01*
X135393558Y-103250760D01*
X135370105Y-103211103D01*
X135318081Y-103123135D01*
X135318078Y-103123132D01*
X135318076Y-103123129D01*
X135201870Y-103006923D01*
X135201862Y-103006917D01*
X135081000Y-102935440D01*
X135060398Y-102923256D01*
X135060397Y-102923255D01*
X135060396Y-102923255D01*
X135060393Y-102923254D01*
X134902573Y-102877402D01*
X134902567Y-102877401D01*
X134865701Y-102874500D01*
X134865694Y-102874500D01*
X134234306Y-102874500D01*
X134234298Y-102874500D01*
X134197432Y-102877401D01*
X134197426Y-102877402D01*
X134039606Y-102923254D01*
X134039603Y-102923255D01*
X133898137Y-103006917D01*
X133898129Y-103006923D01*
X133781923Y-103123129D01*
X133781917Y-103123137D01*
X133698255Y-103264603D01*
X133698254Y-103264606D01*
X133652402Y-103422426D01*
X133652401Y-103422432D01*
X133649500Y-103459298D01*
X133649500Y-104540701D01*
X133652401Y-104577567D01*
X133652402Y-104577573D01*
X133698254Y-104735393D01*
X133698255Y-104735396D01*
X133698256Y-104735398D01*
X133724066Y-104779041D01*
X133781917Y-104876862D01*
X133781923Y-104876870D01*
X133863181Y-104958128D01*
X133896666Y-105019451D01*
X133899500Y-105045809D01*
X133899500Y-105061914D01*
X133879815Y-105128953D01*
X133827011Y-105174708D01*
X133775500Y-105185914D01*
X129760188Y-105185914D01*
X129693149Y-105166229D01*
X129652801Y-105123914D01*
X129647179Y-105114177D01*
X129163452Y-104276337D01*
X129144178Y-104252535D01*
X129117287Y-104188048D01*
X129129530Y-104119259D01*
X129177019Y-104068009D01*
X129240545Y-104050500D01*
X131572472Y-104050500D01*
X131572474Y-104050500D01*
X131572475Y-104050500D01*
X131712485Y-104012984D01*
X131757463Y-103987016D01*
X131838015Y-103940510D01*
X133191706Y-102586819D01*
X133253029Y-102553334D01*
X133279387Y-102550500D01*
X137220613Y-102550500D01*
X137287652Y-102570185D01*
X137308294Y-102586819D01*
X139661985Y-104940510D01*
X139742537Y-104987016D01*
X139787515Y-105012984D01*
X139927525Y-105050500D01*
X139927526Y-105050500D01*
X140072474Y-105050500D01*
X141220613Y-105050500D01*
X141287652Y-105070185D01*
X141308294Y-105086819D01*
X141913181Y-105691705D01*
X141946666Y-105753028D01*
X141949500Y-105779386D01*
X141949500Y-106427525D01*
X141949500Y-106572475D01*
X141983671Y-106700000D01*
X141987017Y-106712488D01*
X142059488Y-106838011D01*
X142059490Y-106838013D01*
X142059491Y-106838015D01*
X142161985Y-106940509D01*
X142161986Y-106940510D01*
X142161988Y-106940511D01*
X142287511Y-107012982D01*
X142287512Y-107012982D01*
X142287515Y-107012984D01*
X142427525Y-107050500D01*
X142817114Y-107050500D01*
X142884153Y-107070185D01*
X142929908Y-107122989D01*
X142939907Y-107191758D01*
X142929030Y-107269142D01*
X142951060Y-107394077D01*
X142951060Y-107394078D01*
X142951061Y-107394079D01*
X142957854Y-107406855D01*
X143009218Y-107503458D01*
X143010621Y-107506095D01*
X143101881Y-107594223D01*
X143187225Y-107635848D01*
X143798707Y-107822795D01*
X143857061Y-107861220D01*
X143885378Y-107925094D01*
X143886452Y-107941377D01*
X143886452Y-109467239D01*
X143866767Y-109534278D01*
X143850133Y-109554920D01*
X143781923Y-109623129D01*
X143781917Y-109623137D01*
X143698255Y-109764603D01*
X143698254Y-109764606D01*
X143652402Y-109922426D01*
X143652401Y-109922432D01*
X143649500Y-109959298D01*
X143649500Y-110570613D01*
X143629815Y-110637652D01*
X143613181Y-110658294D01*
X142909491Y-111361983D01*
X142909489Y-111361986D01*
X142846964Y-111470285D01*
X142846963Y-111470284D01*
X142837017Y-111487513D01*
X142837016Y-111487515D01*
X142799500Y-111627525D01*
X142799500Y-129422475D01*
X142806153Y-129447304D01*
X142830008Y-129536330D01*
X142830008Y-129536332D01*
X142837014Y-129562482D01*
X142850536Y-129585903D01*
X142893194Y-129659790D01*
X142909489Y-129688013D01*
X142909491Y-129688016D01*
X143274169Y-130052694D01*
X143307654Y-130114017D01*
X143309584Y-130125426D01*
X143314859Y-130168871D01*
X143314860Y-130168875D01*
X143375182Y-130327930D01*
X143375182Y-130327931D01*
X143423547Y-130397999D01*
X143471817Y-130467929D01*
X143568381Y-130553477D01*
X143599150Y-130580736D01*
X143749773Y-130659789D01*
X143749775Y-130659790D01*
X143914944Y-130700500D01*
X144085056Y-130700500D01*
X144250225Y-130659790D01*
X144329692Y-130618081D01*
X144400849Y-130580736D01*
X144400850Y-130580734D01*
X144400852Y-130580734D01*
X144528183Y-130467929D01*
X144624818Y-130327930D01*
X144685140Y-130168872D01*
X144705645Y-130000000D01*
X144685140Y-129831128D01*
X144679248Y-129815593D01*
X144624817Y-129672068D01*
X144549174Y-129562482D01*
X144528183Y-129532071D01*
X144491982Y-129500000D01*
X159294355Y-129500000D01*
X159314859Y-129668869D01*
X159314860Y-129668874D01*
X159375182Y-129827931D01*
X159398249Y-129861348D01*
X159471817Y-129967929D01*
X159567497Y-130052694D01*
X159599150Y-130080736D01*
X159749774Y-130159790D01*
X159749773Y-130159790D01*
X159853689Y-130185402D01*
X159890711Y-130194527D01*
X159948718Y-130227243D01*
X162274169Y-132552693D01*
X162307654Y-132614016D01*
X162309584Y-132625426D01*
X162314859Y-132668870D01*
X162314860Y-132668875D01*
X162375182Y-132827930D01*
X162375182Y-132827931D01*
X162407325Y-132874497D01*
X162471817Y-132967929D01*
X162577505Y-133061560D01*
X162599150Y-133080736D01*
X162749773Y-133159789D01*
X162749775Y-133159790D01*
X162914944Y-133200500D01*
X163085056Y-133200500D01*
X163250225Y-133159790D01*
X163329692Y-133118081D01*
X163400849Y-133080736D01*
X163400850Y-133080734D01*
X163400852Y-133080734D01*
X163528183Y-132967929D01*
X163624818Y-132827930D01*
X163685140Y-132668872D01*
X163705645Y-132500000D01*
X163685140Y-132331128D01*
X163624818Y-132172070D01*
X163622608Y-132168869D01*
X163556639Y-132073297D01*
X163528183Y-132032071D01*
X163413010Y-131930037D01*
X163400849Y-131919263D01*
X163250226Y-131840210D01*
X163109286Y-131805472D01*
X163051280Y-131772756D01*
X160725829Y-129447304D01*
X160692344Y-129385981D01*
X160690414Y-129374568D01*
X160685140Y-129331128D01*
X160624818Y-129172070D01*
X160528183Y-129032071D01*
X160414926Y-128931734D01*
X160400849Y-128919263D01*
X160250226Y-128840210D01*
X160085056Y-128799500D01*
X159914944Y-128799500D01*
X159749773Y-128840210D01*
X159599150Y-128919263D01*
X159471816Y-129032072D01*
X159375182Y-129172068D01*
X159314860Y-129331125D01*
X159314859Y-129331130D01*
X159294355Y-129500000D01*
X144491982Y-129500000D01*
X144432500Y-129447304D01*
X144400849Y-129419263D01*
X144250226Y-129340210D01*
X144109287Y-129305472D01*
X144051281Y-129272756D01*
X143936819Y-129158294D01*
X143903334Y-129096971D01*
X143900500Y-129070613D01*
X143900500Y-116824500D01*
X143920185Y-116757461D01*
X143972989Y-116711706D01*
X144024500Y-116700500D01*
X144085056Y-116700500D01*
X144250225Y-116659790D01*
X144339547Y-116612909D01*
X144400845Y-116580738D01*
X144400846Y-116580736D01*
X144400852Y-116580734D01*
X144400856Y-116580730D01*
X144407020Y-116576476D01*
X144407960Y-116577839D01*
X144463011Y-116551963D01*
X144482006Y-116550500D01*
X145517994Y-116550500D01*
X145585033Y-116570185D01*
X145597074Y-116579302D01*
X145599154Y-116580738D01*
X145749773Y-116659789D01*
X145749775Y-116659790D01*
X145914944Y-116700500D01*
X146085056Y-116700500D01*
X146250225Y-116659790D01*
X146329692Y-116618081D01*
X146400849Y-116580736D01*
X146400850Y-116580734D01*
X146400852Y-116580734D01*
X146528183Y-116467929D01*
X146624818Y-116327930D01*
X146685140Y-116168872D01*
X146705645Y-116000000D01*
X146685140Y-115831128D01*
X146624818Y-115672070D01*
X146617311Y-115661195D01*
X146583330Y-115611965D01*
X146528183Y-115532071D01*
X146433316Y-115448026D01*
X146400849Y-115419263D01*
X146250226Y-115340210D01*
X146085056Y-115299500D01*
X145914944Y-115299500D01*
X145749773Y-115340210D01*
X145599154Y-115419261D01*
X145592980Y-115423524D01*
X145592039Y-115422160D01*
X145536989Y-115448037D01*
X145517994Y-115449500D01*
X144482006Y-115449500D01*
X144414967Y-115429815D01*
X144402925Y-115420697D01*
X144400845Y-115419261D01*
X144250226Y-115340210D01*
X144085056Y-115299500D01*
X144024500Y-115299500D01*
X143957461Y-115279815D01*
X143911706Y-115227011D01*
X143900500Y-115175500D01*
X143900500Y-111979386D01*
X143920185Y-111912347D01*
X143936815Y-111891709D01*
X144166705Y-111661818D01*
X144228028Y-111628334D01*
X144254386Y-111625500D01*
X144865686Y-111625500D01*
X144865694Y-111625500D01*
X144902569Y-111622598D01*
X144902571Y-111622597D01*
X144902573Y-111622597D01*
X144944191Y-111610505D01*
X145060398Y-111576744D01*
X145201865Y-111493081D01*
X145318081Y-111376865D01*
X145393559Y-111249237D01*
X145444627Y-111201556D01*
X145513368Y-111189052D01*
X145577958Y-111215697D01*
X145607022Y-111249239D01*
X145682314Y-111376552D01*
X145682321Y-111376561D01*
X145798438Y-111492678D01*
X145798447Y-111492685D01*
X145939803Y-111576282D01*
X145939806Y-111576283D01*
X146097504Y-111622099D01*
X146097510Y-111622100D01*
X146134350Y-111624999D01*
X146134366Y-111625000D01*
X146250000Y-111625000D01*
X146650000Y-111625000D01*
X146765634Y-111625000D01*
X146765649Y-111624999D01*
X146802489Y-111622100D01*
X146802495Y-111622099D01*
X146960193Y-111576283D01*
X146960196Y-111576282D01*
X147101552Y-111492685D01*
X147101561Y-111492678D01*
X147217678Y-111376561D01*
X147217685Y-111376552D01*
X147301282Y-111235196D01*
X147301283Y-111235193D01*
X147347099Y-111077495D01*
X147347100Y-111077489D01*
X147349999Y-111040649D01*
X147350000Y-111040634D01*
X147350000Y-110700000D01*
X146650000Y-110700000D01*
X146650000Y-111625000D01*
X146250000Y-111625000D01*
X146250000Y-110680233D01*
X153146673Y-110680233D01*
X153146674Y-110680234D01*
X154327054Y-111041111D01*
X153917303Y-110270483D01*
X153917302Y-110270482D01*
X153146673Y-110680233D01*
X146250000Y-110680233D01*
X146250000Y-110300000D01*
X146650000Y-110300000D01*
X147350000Y-110300000D01*
X147350000Y-110192851D01*
X152492583Y-110192851D01*
X152514584Y-110317628D01*
X152574072Y-110429508D01*
X152642293Y-110495389D01*
X153418460Y-110082694D01*
X154270482Y-110082694D01*
X154848566Y-111169914D01*
X154941963Y-111153447D01*
X154941966Y-111153446D01*
X155053845Y-111093960D01*
X155141859Y-111002818D01*
X155141864Y-111002811D01*
X155183431Y-110917587D01*
X155183435Y-110917576D01*
X155494214Y-109901060D01*
X155507414Y-109807148D01*
X155485413Y-109682371D01*
X155425925Y-109570491D01*
X155357702Y-109504608D01*
X154270482Y-110082694D01*
X153418460Y-110082694D01*
X153729514Y-109917304D01*
X153729515Y-109917302D01*
X153219916Y-108958887D01*
X153672942Y-108958887D01*
X154082693Y-109729515D01*
X154082694Y-109729516D01*
X154853323Y-109319765D01*
X154853322Y-109319764D01*
X153672942Y-108958887D01*
X153219916Y-108958887D01*
X153151430Y-108830083D01*
X153058028Y-108846554D01*
X152946152Y-108906039D01*
X152858138Y-108997181D01*
X152858133Y-108997188D01*
X152816566Y-109082412D01*
X152816562Y-109082423D01*
X152505783Y-110098939D01*
X152492583Y-110192851D01*
X147350000Y-110192851D01*
X147350000Y-109959365D01*
X147349999Y-109959350D01*
X147347100Y-109922510D01*
X147347099Y-109922504D01*
X147301283Y-109764806D01*
X147301282Y-109764803D01*
X147217685Y-109623447D01*
X147217678Y-109623438D01*
X147101561Y-109507321D01*
X147101552Y-109507314D01*
X146960196Y-109423717D01*
X146960193Y-109423716D01*
X146802495Y-109377900D01*
X146802489Y-109377899D01*
X146765649Y-109375000D01*
X146650000Y-109375000D01*
X146650000Y-110300000D01*
X146250000Y-110300000D01*
X146250000Y-109375000D01*
X146134350Y-109375000D01*
X146097510Y-109377899D01*
X146097504Y-109377900D01*
X145939806Y-109423716D01*
X145939803Y-109423717D01*
X145798447Y-109507314D01*
X145798438Y-109507321D01*
X145682321Y-109623438D01*
X145682314Y-109623447D01*
X145607022Y-109750760D01*
X145555953Y-109798444D01*
X145487211Y-109810947D01*
X145422622Y-109784301D01*
X145393558Y-109750760D01*
X145347451Y-109672798D01*
X145318081Y-109623135D01*
X145318078Y-109623132D01*
X145318076Y-109623129D01*
X145201870Y-109506923D01*
X145201862Y-109506917D01*
X145099101Y-109446145D01*
X145060398Y-109423256D01*
X145060397Y-109423255D01*
X145053683Y-109419285D01*
X145054608Y-109417720D01*
X145008487Y-109379331D01*
X144987476Y-109312696D01*
X144987452Y-109310236D01*
X144987452Y-108353808D01*
X145007137Y-108286769D01*
X145059941Y-108241014D01*
X145129099Y-108231070D01*
X145147703Y-108235225D01*
X145160117Y-108239021D01*
X145254148Y-108252238D01*
X145379086Y-108230207D01*
X145491102Y-108170647D01*
X145579231Y-108079388D01*
X145620856Y-107994044D01*
X145931657Y-106977456D01*
X145944873Y-106883425D01*
X145943093Y-106873332D01*
X145922843Y-106758488D01*
X145922843Y-106758487D01*
X145863283Y-106646471D01*
X145843149Y-106627028D01*
X145808600Y-106566302D01*
X145812367Y-106496534D01*
X145841604Y-106450154D01*
X145914896Y-106376862D01*
X154462346Y-106376862D01*
X154462347Y-106376863D01*
X155642727Y-106737740D01*
X155232976Y-105967112D01*
X155232975Y-105967111D01*
X154462346Y-106376862D01*
X145914896Y-106376862D01*
X146193134Y-106098626D01*
X146265608Y-105973096D01*
X146271082Y-105952667D01*
X146273383Y-105944082D01*
X146288013Y-105889480D01*
X153808256Y-105889480D01*
X153830257Y-106014257D01*
X153889745Y-106126137D01*
X153957966Y-106192018D01*
X154734133Y-105779323D01*
X155586155Y-105779323D01*
X156164239Y-106866543D01*
X156257636Y-106850076D01*
X156257639Y-106850075D01*
X156369518Y-106790589D01*
X156457532Y-106699447D01*
X156457537Y-106699440D01*
X156499104Y-106614216D01*
X156499108Y-106614205D01*
X156809887Y-105597689D01*
X156823087Y-105503777D01*
X156801086Y-105379000D01*
X156741598Y-105267120D01*
X156673375Y-105201237D01*
X155586155Y-105779323D01*
X154734133Y-105779323D01*
X155045187Y-105613933D01*
X155045188Y-105613931D01*
X154535589Y-104655516D01*
X154988615Y-104655516D01*
X155398366Y-105426144D01*
X155398367Y-105426145D01*
X156168996Y-105016394D01*
X156168995Y-105016393D01*
X154988615Y-104655516D01*
X154535589Y-104655516D01*
X154467103Y-104526712D01*
X154373701Y-104543183D01*
X154261825Y-104602668D01*
X154173811Y-104693810D01*
X154173806Y-104693817D01*
X154132239Y-104779041D01*
X154132235Y-104779052D01*
X153821456Y-105795568D01*
X153808256Y-105889480D01*
X146288013Y-105889480D01*
X146291354Y-105877011D01*
X146303124Y-105833086D01*
X146303124Y-104050437D01*
X146322809Y-103983398D01*
X146375613Y-103937643D01*
X146444771Y-103927699D01*
X146463379Y-103931856D01*
X146475786Y-103935649D01*
X146475788Y-103935650D01*
X146489969Y-103937643D01*
X146569821Y-103948867D01*
X146694759Y-103926836D01*
X146806775Y-103867276D01*
X146894904Y-103776017D01*
X146936529Y-103690673D01*
X147247330Y-102674085D01*
X147260546Y-102580054D01*
X147252269Y-102533115D01*
X147244163Y-102487144D01*
X147238516Y-102455116D01*
X147178956Y-102343100D01*
X147087696Y-102254972D01*
X147086872Y-102254570D01*
X147002361Y-102213351D01*
X147002357Y-102213349D01*
X147002352Y-102213347D01*
X145551597Y-101769807D01*
X145029458Y-101610173D01*
X144961861Y-101600672D01*
X144935429Y-101596957D01*
X144935428Y-101596957D01*
X144935427Y-101596957D01*
X144810490Y-101618988D01*
X144810487Y-101618989D01*
X144698476Y-101678546D01*
X144698473Y-101678549D01*
X144610349Y-101769802D01*
X144610346Y-101769806D01*
X144610346Y-101769807D01*
X144568721Y-101855151D01*
X144464257Y-102196838D01*
X144257919Y-102871742D01*
X144244703Y-102965771D01*
X144266733Y-103090706D01*
X144318421Y-103187918D01*
X144326294Y-103202724D01*
X144417554Y-103290852D01*
X144502898Y-103332477D01*
X145114379Y-103519424D01*
X145172733Y-103557849D01*
X145201050Y-103621723D01*
X145202124Y-103638006D01*
X145202124Y-105481223D01*
X145182439Y-105548262D01*
X145165805Y-105568904D01*
X144614561Y-106120147D01*
X144553238Y-106153632D01*
X144490626Y-106151048D01*
X144220670Y-106068514D01*
X144194925Y-106057319D01*
X144073160Y-105987019D01*
X144073156Y-105987017D01*
X144073154Y-105987016D01*
X144073152Y-105987015D01*
X144073149Y-105987014D01*
X144021205Y-105973095D01*
X144021205Y-105973096D01*
X143969740Y-105959306D01*
X143933144Y-105949500D01*
X143933143Y-105949500D01*
X143849923Y-105949500D01*
X143813669Y-105944082D01*
X143713787Y-105913545D01*
X143713785Y-105913544D01*
X143713783Y-105913544D01*
X143656524Y-105905496D01*
X143619756Y-105900328D01*
X143619755Y-105900328D01*
X143619754Y-105900328D01*
X143494817Y-105922359D01*
X143471070Y-105934986D01*
X143412856Y-105949500D01*
X143174500Y-105949500D01*
X143107461Y-105929815D01*
X143061706Y-105877011D01*
X143050500Y-105825500D01*
X143050500Y-105427527D01*
X143050500Y-105427525D01*
X143012984Y-105287515D01*
X142968295Y-105210112D01*
X142940510Y-105161986D01*
X141838015Y-104059490D01*
X141712485Y-103987016D01*
X141712480Y-103987014D01*
X141659357Y-103972779D01*
X141659357Y-103972780D01*
X141615915Y-103961140D01*
X141572475Y-103949500D01*
X141572474Y-103949500D01*
X140279387Y-103949500D01*
X140212348Y-103929815D01*
X140191706Y-103913181D01*
X137838016Y-101559491D01*
X137838015Y-101559490D01*
X137712485Y-101487016D01*
X137712486Y-101487016D01*
X137675109Y-101477001D01*
X137572475Y-101449500D01*
X132927525Y-101449500D01*
X132824891Y-101477001D01*
X132787514Y-101487016D01*
X132661986Y-101559489D01*
X132661983Y-101559491D01*
X131308294Y-102913181D01*
X131246971Y-102946666D01*
X131220613Y-102949500D01*
X126968026Y-102949500D01*
X126900987Y-102929815D01*
X126855232Y-102877011D01*
X126845288Y-102807853D01*
X126874313Y-102744297D01*
X126926702Y-102708588D01*
X126934462Y-102705845D01*
X127185457Y-102617128D01*
X127187894Y-102616297D01*
X127977350Y-102356426D01*
X127979716Y-102355675D01*
X128777009Y-102111565D01*
X128779558Y-102110815D01*
X129584748Y-101883432D01*
X129587098Y-101882795D01*
X130398391Y-101672095D01*
X130400803Y-101671495D01*
X131218750Y-101477590D01*
X131221298Y-101477016D01*
X132045823Y-101300894D01*
X132048423Y-101300368D01*
X132879492Y-101141834D01*
X132881923Y-101141397D01*
X133719013Y-100999583D01*
X133721524Y-100999186D01*
X134563946Y-100875185D01*
X134566586Y-100874827D01*
X135415416Y-100769461D01*
X135417844Y-100769185D01*
X136272452Y-100680573D01*
X136275225Y-100680318D01*
X137134506Y-100611419D01*
X137137072Y-100611240D01*
X138001456Y-100560046D01*
X138004248Y-100559913D01*
X138873708Y-100528403D01*
X138876233Y-100528338D01*
X139752990Y-100514515D01*
X139754945Y-100514500D01*
X139914520Y-100514500D01*
X139915915Y-100514508D01*
G37*
G04 #@! TD.AperFunction*
G04 #@! TA.AperFunction,Conductor*
G36*
X102655703Y-142380145D02*
G01*
X102673302Y-142398931D01*
X102685241Y-142414675D01*
X102744577Y-142492922D01*
X102865156Y-142584360D01*
X102865157Y-142584360D01*
X102865158Y-142584361D01*
X102995992Y-142635955D01*
X103051134Y-142678860D01*
X103074327Y-142744768D01*
X103074500Y-142751309D01*
X103074500Y-143239071D01*
X103095299Y-143343630D01*
X103099499Y-143364744D01*
X103148535Y-143483127D01*
X103205034Y-143567685D01*
X103219726Y-143589673D01*
X105622828Y-145992775D01*
X105701640Y-146045435D01*
X105701639Y-146045435D01*
X105722462Y-146059347D01*
X105729373Y-146063965D01*
X105847756Y-146113001D01*
X105847760Y-146113001D01*
X105847761Y-146113002D01*
X105973428Y-146138000D01*
X105973431Y-146138000D01*
X106860878Y-146138000D01*
X106885070Y-146140383D01*
X106935929Y-146150500D01*
X106935931Y-146150500D01*
X107064069Y-146150500D01*
X114679192Y-146150500D01*
X114746231Y-146170185D01*
X114766873Y-146186819D01*
X118400681Y-149820627D01*
X118434166Y-149881950D01*
X118437000Y-149908308D01*
X118437000Y-153722999D01*
X118417315Y-153790038D01*
X118364511Y-153835793D01*
X118352312Y-153837692D01*
X118337500Y-153850832D01*
X118337500Y-155974165D01*
X118418942Y-155964386D01*
X118566328Y-155906265D01*
X118635915Y-155899984D01*
X118657308Y-155906266D01*
X118729274Y-155934646D01*
X118784418Y-155977552D01*
X118807611Y-156043460D01*
X118791490Y-156111444D01*
X118741173Y-156159920D01*
X118729274Y-156165354D01*
X118665160Y-156190637D01*
X118665158Y-156190638D01*
X118544577Y-156282077D01*
X118453139Y-156402656D01*
X118397622Y-156543438D01*
X118391688Y-156592853D01*
X118387000Y-156631898D01*
X118387000Y-157743102D01*
X118388137Y-157752569D01*
X118397622Y-157831563D01*
X118404580Y-157849206D01*
X118428354Y-157909492D01*
X118437000Y-157954981D01*
X118437000Y-158091692D01*
X118417315Y-158158731D01*
X118400681Y-158179373D01*
X117766873Y-158813181D01*
X117705550Y-158846666D01*
X117679192Y-158849500D01*
X111820807Y-158849500D01*
X111753768Y-158829815D01*
X111733126Y-158813181D01*
X110635595Y-157715649D01*
X112362500Y-157715649D01*
X112365399Y-157752489D01*
X112365400Y-157752495D01*
X112411216Y-157910193D01*
X112411217Y-157910196D01*
X112494814Y-158051552D01*
X112494821Y-158051561D01*
X112610938Y-158167678D01*
X112610947Y-158167685D01*
X112752303Y-158251282D01*
X112752306Y-158251283D01*
X112910004Y-158297099D01*
X112910010Y-158297100D01*
X112946850Y-158299999D01*
X112946866Y-158300000D01*
X113075000Y-158300000D01*
X113075000Y-157400000D01*
X112362500Y-157400000D01*
X112362500Y-157715649D01*
X110635595Y-157715649D01*
X109604296Y-156684350D01*
X112362500Y-156684350D01*
X112362500Y-157000000D01*
X113075000Y-157000000D01*
X113075000Y-156100000D01*
X113475000Y-156100000D01*
X113475000Y-158300000D01*
X113603134Y-158300000D01*
X113603149Y-158299999D01*
X113639989Y-158297100D01*
X113639995Y-158297099D01*
X113797693Y-158251283D01*
X113797696Y-158251282D01*
X113939052Y-158167685D01*
X113939061Y-158167678D01*
X114055178Y-158051561D01*
X114055182Y-158051555D01*
X114080476Y-158008786D01*
X114131545Y-157961102D01*
X114200286Y-157948597D01*
X114264876Y-157975242D01*
X114293941Y-158008784D01*
X114319419Y-158051865D01*
X114319421Y-158051867D01*
X114319423Y-158051870D01*
X114435629Y-158168076D01*
X114435633Y-158168079D01*
X114435635Y-158168081D01*
X114577102Y-158251744D01*
X114618724Y-158263836D01*
X114734926Y-158297597D01*
X114734929Y-158297597D01*
X114734931Y-158297598D01*
X114771806Y-158300500D01*
X114771814Y-158300500D01*
X115428186Y-158300500D01*
X115428194Y-158300500D01*
X115465069Y-158297598D01*
X115465071Y-158297597D01*
X115465073Y-158297597D01*
X115506691Y-158285505D01*
X115622898Y-158251744D01*
X115764365Y-158168081D01*
X115880581Y-158051865D01*
X115963664Y-157911379D01*
X116014733Y-157863696D01*
X116070396Y-157850500D01*
X116420696Y-157850500D01*
X116487735Y-157870185D01*
X116533490Y-157922989D01*
X116536050Y-157929010D01*
X116553137Y-157972339D01*
X116553138Y-157972341D01*
X116644577Y-158092922D01*
X116765156Y-158184360D01*
X116765157Y-158184360D01*
X116765158Y-158184361D01*
X116905936Y-158239877D01*
X116994398Y-158250500D01*
X116994403Y-158250500D01*
X117380597Y-158250500D01*
X117380602Y-158250500D01*
X117469064Y-158239877D01*
X117609842Y-158184361D01*
X117730422Y-158092922D01*
X117821861Y-157972342D01*
X117877377Y-157831564D01*
X117888000Y-157743102D01*
X117888000Y-156631898D01*
X117877377Y-156543436D01*
X117821861Y-156402658D01*
X117821860Y-156402657D01*
X117821860Y-156402656D01*
X117730422Y-156282077D01*
X117609843Y-156190639D01*
X117585112Y-156180886D01*
X117545723Y-156165353D01*
X117490581Y-156122449D01*
X117467388Y-156056541D01*
X117483508Y-155988557D01*
X117533825Y-155940080D01*
X117545725Y-155934646D01*
X117617691Y-155906266D01*
X117687277Y-155899984D01*
X117708671Y-155906265D01*
X117856057Y-155964386D01*
X117937500Y-155974165D01*
X117937500Y-153850832D01*
X117856057Y-153860613D01*
X117856053Y-153860614D01*
X117708670Y-153918734D01*
X117639083Y-153925015D01*
X117617691Y-153918734D01*
X117470309Y-153860614D01*
X117469064Y-153860123D01*
X117469063Y-153860122D01*
X117469061Y-153860122D01*
X117423426Y-153854642D01*
X117380602Y-153849500D01*
X116994398Y-153849500D01*
X116955353Y-153854188D01*
X116905938Y-153860122D01*
X116765156Y-153915639D01*
X116644577Y-154007077D01*
X116553139Y-154127656D01*
X116547533Y-154141873D01*
X116534555Y-154174785D01*
X116531122Y-154183490D01*
X116488216Y-154238634D01*
X116422308Y-154261827D01*
X116415767Y-154262000D01*
X116183308Y-154262000D01*
X116116269Y-154242315D01*
X116095627Y-154225681D01*
X116011819Y-154141873D01*
X115978334Y-154080550D01*
X115975500Y-154054192D01*
X115975500Y-153309313D01*
X115975499Y-153309298D01*
X115972598Y-153272432D01*
X115972597Y-153272426D01*
X115926745Y-153114606D01*
X115926744Y-153114603D01*
X115926744Y-153114602D01*
X115843081Y-152973135D01*
X115843079Y-152973133D01*
X115843076Y-152973129D01*
X115726870Y-152856923D01*
X115726862Y-152856917D01*
X115585396Y-152773255D01*
X115585393Y-152773254D01*
X115427573Y-152727402D01*
X115427567Y-152727401D01*
X115390701Y-152724500D01*
X115390694Y-152724500D01*
X114509306Y-152724500D01*
X114509298Y-152724500D01*
X114472432Y-152727401D01*
X114472426Y-152727402D01*
X114314606Y-152773254D01*
X114314603Y-152773255D01*
X114173137Y-152856917D01*
X114173129Y-152856923D01*
X114056923Y-152973129D01*
X114056917Y-152973137D01*
X113973255Y-153114603D01*
X113973254Y-153114606D01*
X113927402Y-153272426D01*
X113927401Y-153272432D01*
X113924500Y-153309298D01*
X113924500Y-154690701D01*
X113927401Y-154727567D01*
X113927402Y-154727573D01*
X113973254Y-154885393D01*
X113973255Y-154885396D01*
X113973256Y-154885398D01*
X114010681Y-154948681D01*
X114056917Y-155026862D01*
X114056923Y-155026870D01*
X114173129Y-155143076D01*
X114173133Y-155143079D01*
X114173135Y-155143081D01*
X114314602Y-155226744D01*
X114356224Y-155238836D01*
X114472426Y-155272597D01*
X114472429Y-155272597D01*
X114472431Y-155272598D01*
X114509306Y-155275500D01*
X115254192Y-155275500D01*
X115321231Y-155295185D01*
X115341868Y-155311814D01*
X115447831Y-155417777D01*
X115522890Y-155467929D01*
X115554373Y-155488965D01*
X115672756Y-155538001D01*
X115672760Y-155538001D01*
X115672761Y-155538002D01*
X115798428Y-155563000D01*
X115798431Y-155563000D01*
X116415767Y-155563000D01*
X116482806Y-155582685D01*
X116528561Y-155635489D01*
X116531122Y-155641510D01*
X116553139Y-155697343D01*
X116644577Y-155817922D01*
X116765158Y-155909361D01*
X116765160Y-155909362D01*
X116829274Y-155934646D01*
X116884418Y-155977551D01*
X116907611Y-156043459D01*
X116891490Y-156111444D01*
X116841173Y-156159920D01*
X116829274Y-156165354D01*
X116765160Y-156190637D01*
X116765158Y-156190638D01*
X116644577Y-156282077D01*
X116553138Y-156402657D01*
X116526193Y-156470989D01*
X116483287Y-156526134D01*
X116417380Y-156549327D01*
X116410838Y-156549500D01*
X116070396Y-156549500D01*
X116003357Y-156529815D01*
X115963664Y-156488621D01*
X115880583Y-156348138D01*
X115880576Y-156348129D01*
X115764370Y-156231923D01*
X115764362Y-156231917D01*
X115642621Y-156159920D01*
X115622898Y-156148256D01*
X115622897Y-156148255D01*
X115622896Y-156148255D01*
X115622893Y-156148254D01*
X115465073Y-156102402D01*
X115465067Y-156102401D01*
X115428201Y-156099500D01*
X115428194Y-156099500D01*
X114771806Y-156099500D01*
X114771798Y-156099500D01*
X114734932Y-156102401D01*
X114734926Y-156102402D01*
X114577106Y-156148254D01*
X114577103Y-156148255D01*
X114435637Y-156231917D01*
X114435629Y-156231923D01*
X114319423Y-156348129D01*
X114319417Y-156348137D01*
X114293940Y-156391216D01*
X114242870Y-156438898D01*
X114174128Y-156451401D01*
X114109539Y-156424755D01*
X114080477Y-156391214D01*
X114055184Y-156348446D01*
X114055178Y-156348438D01*
X113939061Y-156232321D01*
X113939052Y-156232314D01*
X113797696Y-156148717D01*
X113797693Y-156148716D01*
X113639995Y-156102900D01*
X113639989Y-156102899D01*
X113603149Y-156100000D01*
X113475000Y-156100000D01*
X113075000Y-156100000D01*
X112946850Y-156100000D01*
X112910010Y-156102899D01*
X112910004Y-156102900D01*
X112752306Y-156148716D01*
X112752303Y-156148717D01*
X112610947Y-156232314D01*
X112610938Y-156232321D01*
X112494821Y-156348438D01*
X112494814Y-156348447D01*
X112411217Y-156489803D01*
X112411216Y-156489806D01*
X112365400Y-156647504D01*
X112365399Y-156647510D01*
X112362500Y-156684350D01*
X109604296Y-156684350D01*
X108636819Y-155716873D01*
X108603334Y-155655550D01*
X108600500Y-155629192D01*
X108600500Y-155083309D01*
X108620185Y-155016270D01*
X108636819Y-154995628D01*
X108730576Y-154901870D01*
X108730581Y-154901865D01*
X108755768Y-154859276D01*
X108806837Y-154811593D01*
X108875578Y-154799089D01*
X108940168Y-154825734D01*
X108969232Y-154859276D01*
X108994417Y-154901862D01*
X108994423Y-154901870D01*
X109110629Y-155018076D01*
X109110633Y-155018079D01*
X109110635Y-155018081D01*
X109252102Y-155101744D01*
X109293724Y-155113836D01*
X109409926Y-155147597D01*
X109409929Y-155147597D01*
X109409931Y-155147598D01*
X109446806Y-155150500D01*
X109446814Y-155150500D01*
X110103186Y-155150500D01*
X110103194Y-155150500D01*
X110140069Y-155147598D01*
X110140071Y-155147597D01*
X110140073Y-155147597D01*
X110181691Y-155135505D01*
X110297898Y-155101744D01*
X110439365Y-155018081D01*
X110555581Y-154901865D01*
X110639244Y-154760398D01*
X110645198Y-154739905D01*
X110682803Y-154681020D01*
X110746275Y-154651813D01*
X110764274Y-154650500D01*
X111011910Y-154650500D01*
X111078949Y-154670185D01*
X111124704Y-154722989D01*
X111130986Y-154739905D01*
X111173254Y-154885393D01*
X111173255Y-154885396D01*
X111173256Y-154885398D01*
X111210681Y-154948681D01*
X111256917Y-155026862D01*
X111256923Y-155026870D01*
X111373129Y-155143076D01*
X111373133Y-155143079D01*
X111373135Y-155143081D01*
X111514602Y-155226744D01*
X111556224Y-155238836D01*
X111672426Y-155272597D01*
X111672429Y-155272597D01*
X111672431Y-155272598D01*
X111709306Y-155275500D01*
X111709314Y-155275500D01*
X112590686Y-155275500D01*
X112590694Y-155275500D01*
X112627569Y-155272598D01*
X112627571Y-155272597D01*
X112627573Y-155272597D01*
X112678479Y-155257807D01*
X112785398Y-155226744D01*
X112926865Y-155143081D01*
X113043081Y-155026865D01*
X113126744Y-154885398D01*
X113165938Y-154750494D01*
X113172597Y-154727573D01*
X113172598Y-154727567D01*
X113172958Y-154722989D01*
X113175500Y-154690694D01*
X113175500Y-153309306D01*
X113172598Y-153272431D01*
X113163386Y-153240724D01*
X113126745Y-153114606D01*
X113126744Y-153114603D01*
X113126744Y-153114602D01*
X113043081Y-152973135D01*
X113043079Y-152973133D01*
X113043076Y-152973129D01*
X112926870Y-152856923D01*
X112926862Y-152856917D01*
X112785396Y-152773255D01*
X112785393Y-152773254D01*
X112627573Y-152727402D01*
X112627567Y-152727401D01*
X112590701Y-152724500D01*
X112590694Y-152724500D01*
X111709306Y-152724500D01*
X111709298Y-152724500D01*
X111672432Y-152727401D01*
X111672426Y-152727402D01*
X111514606Y-152773254D01*
X111514603Y-152773255D01*
X111373137Y-152856917D01*
X111373129Y-152856923D01*
X111256923Y-152973129D01*
X111256917Y-152973137D01*
X111173255Y-153114603D01*
X111173254Y-153114606D01*
X111130986Y-153260095D01*
X111093380Y-153318981D01*
X111029908Y-153348187D01*
X111011910Y-153349500D01*
X110715826Y-153349500D01*
X110648787Y-153329815D01*
X110609094Y-153288621D01*
X110555582Y-153198137D01*
X110555581Y-153198135D01*
X110555579Y-153198133D01*
X110555576Y-153198129D01*
X110439370Y-153081923D01*
X110439362Y-153081917D01*
X110297896Y-152998255D01*
X110297893Y-152998254D01*
X110140073Y-152952402D01*
X110140067Y-152952401D01*
X110103201Y-152949500D01*
X110103194Y-152949500D01*
X109446806Y-152949500D01*
X109446798Y-152949500D01*
X109409932Y-152952401D01*
X109409926Y-152952402D01*
X109252106Y-152998254D01*
X109252103Y-152998255D01*
X109110637Y-153081917D01*
X109110629Y-153081923D01*
X108994423Y-153198129D01*
X108994419Y-153198135D01*
X108969232Y-153240724D01*
X108918162Y-153288407D01*
X108849421Y-153300910D01*
X108784831Y-153274264D01*
X108755768Y-153240724D01*
X108754772Y-153239040D01*
X108730581Y-153198135D01*
X108730578Y-153198132D01*
X108730576Y-153198129D01*
X108636819Y-153104372D01*
X108603334Y-153043049D01*
X108600500Y-153016691D01*
X108600500Y-152298428D01*
X108575502Y-152172761D01*
X108575501Y-152172760D01*
X108575501Y-152172756D01*
X108526465Y-152054373D01*
X108522260Y-152048080D01*
X108513740Y-152035327D01*
X108513740Y-152035326D01*
X108455279Y-151947834D01*
X108455273Y-151947826D01*
X102486819Y-145979372D01*
X102453334Y-145918049D01*
X102450500Y-145891691D01*
X102450500Y-142473858D01*
X102470185Y-142406819D01*
X102522989Y-142361064D01*
X102592147Y-142351120D01*
X102655703Y-142380145D01*
G37*
G04 #@! TD.AperFunction*
G04 #@! TD*
M02*
