G04 #@! TF.GenerationSoftware,KiCad,Pcbnew,8.0.4*
G04 #@! TF.CreationDate,2024-08-11T22:53:44+02:00*
G04 #@! TF.ProjectId,Haibadge_B,48616962-6164-4676-955f-422e6b696361,rev?*
G04 #@! TF.SameCoordinates,Original*
G04 #@! TF.FileFunction,Legend,Top*
G04 #@! TF.FilePolarity,Positive*
%FSLAX46Y46*%
G04 Gerber Fmt 4.6, Leading zero omitted, Abs format (unit mm)*
G04 Created by KiCad (PCBNEW 8.0.4) date 2024-08-11 22:53:44*
%MOMM*%
%LPD*%
G01*
G04 APERTURE LIST*
G04 Aperture macros list*
%AMRoundRect*
0 Rectangle with rounded corners*
0 $1 Rounding radius*
0 $2 $3 $4 $5 $6 $7 $8 $9 X,Y pos of 4 corners*
0 Add a 4 corners polygon primitive as box body*
4,1,4,$2,$3,$4,$5,$6,$7,$8,$9,$2,$3,0*
0 Add four circle primitives for the rounded corners*
1,1,$1+$1,$2,$3*
1,1,$1+$1,$4,$5*
1,1,$1+$1,$6,$7*
1,1,$1+$1,$8,$9*
0 Add four rect primitives between the rounded corners*
20,1,$1+$1,$2,$3,$4,$5,0*
20,1,$1+$1,$4,$5,$6,$7,0*
20,1,$1+$1,$6,$7,$8,$9,0*
20,1,$1+$1,$8,$9,$2,$3,0*%
G04 Aperture macros list end*
%ADD10C,0.100000*%
%ADD11C,0.150000*%
%ADD12C,0.120000*%
%ADD13C,0.850000*%
%ADD14RoundRect,0.250000X-0.250000X-0.475000X0.250000X-0.475000X0.250000X0.475000X-0.250000X0.475000X0*%
%ADD15RoundRect,0.250000X0.262500X0.450000X-0.262500X0.450000X-0.262500X-0.450000X0.262500X-0.450000X0*%
%ADD16R,1.500000X0.900000*%
%ADD17C,2.700000*%
%ADD18RoundRect,0.250000X-0.475000X0.250000X-0.475000X-0.250000X0.475000X-0.250000X0.475000X0.250000X0*%
%ADD19RoundRect,0.250000X-0.450000X0.262500X-0.450000X-0.262500X0.450000X-0.262500X0.450000X0.262500X0*%
%ADD20RoundRect,0.250000X0.250000X0.475000X-0.250000X0.475000X-0.250000X-0.475000X0.250000X-0.475000X0*%
%ADD21RoundRect,0.125000X-0.125000X-0.137500X0.125000X-0.137500X0.125000X0.137500X-0.125000X0.137500X0*%
%ADD22RoundRect,0.250000X0.350000X0.625000X-0.350000X0.625000X-0.350000X-0.625000X0.350000X-0.625000X0*%
%ADD23O,1.200000X1.750000*%
%ADD24R,1.700000X1.700000*%
%ADD25O,1.700000X1.700000*%
%ADD26C,0.650000*%
%ADD27O,1.000000X1.600000*%
%ADD28O,1.000000X2.100000*%
G04 APERTURE END LIST*
D10*
X158208646Y-149305752D02*
X158446741Y-149972419D01*
X158446741Y-149972419D02*
X158684836Y-149305752D01*
X159065789Y-149877180D02*
X159113408Y-149924800D01*
X159113408Y-149924800D02*
X159065789Y-149972419D01*
X159065789Y-149972419D02*
X159018170Y-149924800D01*
X159018170Y-149924800D02*
X159065789Y-149877180D01*
X159065789Y-149877180D02*
X159065789Y-149972419D01*
X160065788Y-149972419D02*
X159494360Y-149972419D01*
X159780074Y-149972419D02*
X159780074Y-148972419D01*
X159780074Y-148972419D02*
X159684836Y-149115276D01*
X159684836Y-149115276D02*
X159589598Y-149210514D01*
X159589598Y-149210514D02*
X159494360Y-149258133D01*
X160494360Y-149877180D02*
X160541979Y-149924800D01*
X160541979Y-149924800D02*
X160494360Y-149972419D01*
X160494360Y-149972419D02*
X160446741Y-149924800D01*
X160446741Y-149924800D02*
X160494360Y-149877180D01*
X160494360Y-149877180D02*
X160494360Y-149972419D01*
X161161026Y-148972419D02*
X161256264Y-148972419D01*
X161256264Y-148972419D02*
X161351502Y-149020038D01*
X161351502Y-149020038D02*
X161399121Y-149067657D01*
X161399121Y-149067657D02*
X161446740Y-149162895D01*
X161446740Y-149162895D02*
X161494359Y-149353371D01*
X161494359Y-149353371D02*
X161494359Y-149591466D01*
X161494359Y-149591466D02*
X161446740Y-149781942D01*
X161446740Y-149781942D02*
X161399121Y-149877180D01*
X161399121Y-149877180D02*
X161351502Y-149924800D01*
X161351502Y-149924800D02*
X161256264Y-149972419D01*
X161256264Y-149972419D02*
X161161026Y-149972419D01*
X161161026Y-149972419D02*
X161065788Y-149924800D01*
X161065788Y-149924800D02*
X161018169Y-149877180D01*
X161018169Y-149877180D02*
X160970550Y-149781942D01*
X160970550Y-149781942D02*
X160922931Y-149591466D01*
X160922931Y-149591466D02*
X160922931Y-149353371D01*
X160922931Y-149353371D02*
X160970550Y-149162895D01*
X160970550Y-149162895D02*
X161018169Y-149067657D01*
X161018169Y-149067657D02*
X161065788Y-149020038D01*
X161065788Y-149020038D02*
X161161026Y-148972419D01*
D11*
X126833333Y-118859580D02*
X126785714Y-118907200D01*
X126785714Y-118907200D02*
X126642857Y-118954819D01*
X126642857Y-118954819D02*
X126547619Y-118954819D01*
X126547619Y-118954819D02*
X126404762Y-118907200D01*
X126404762Y-118907200D02*
X126309524Y-118811961D01*
X126309524Y-118811961D02*
X126261905Y-118716723D01*
X126261905Y-118716723D02*
X126214286Y-118526247D01*
X126214286Y-118526247D02*
X126214286Y-118383390D01*
X126214286Y-118383390D02*
X126261905Y-118192914D01*
X126261905Y-118192914D02*
X126309524Y-118097676D01*
X126309524Y-118097676D02*
X126404762Y-118002438D01*
X126404762Y-118002438D02*
X126547619Y-117954819D01*
X126547619Y-117954819D02*
X126642857Y-117954819D01*
X126642857Y-117954819D02*
X126785714Y-118002438D01*
X126785714Y-118002438D02*
X126833333Y-118050057D01*
X127785714Y-118954819D02*
X127214286Y-118954819D01*
X127500000Y-118954819D02*
X127500000Y-117954819D01*
X127500000Y-117954819D02*
X127404762Y-118097676D01*
X127404762Y-118097676D02*
X127309524Y-118192914D01*
X127309524Y-118192914D02*
X127214286Y-118240533D01*
X123833333Y-108454819D02*
X123500000Y-107978628D01*
X123261905Y-108454819D02*
X123261905Y-107454819D01*
X123261905Y-107454819D02*
X123642857Y-107454819D01*
X123642857Y-107454819D02*
X123738095Y-107502438D01*
X123738095Y-107502438D02*
X123785714Y-107550057D01*
X123785714Y-107550057D02*
X123833333Y-107645295D01*
X123833333Y-107645295D02*
X123833333Y-107788152D01*
X123833333Y-107788152D02*
X123785714Y-107883390D01*
X123785714Y-107883390D02*
X123738095Y-107931009D01*
X123738095Y-107931009D02*
X123642857Y-107978628D01*
X123642857Y-107978628D02*
X123261905Y-107978628D01*
X124785714Y-108454819D02*
X124214286Y-108454819D01*
X124500000Y-108454819D02*
X124500000Y-107454819D01*
X124500000Y-107454819D02*
X124404762Y-107597676D01*
X124404762Y-107597676D02*
X124309524Y-107692914D01*
X124309524Y-107692914D02*
X124214286Y-107740533D01*
X171261905Y-133954819D02*
X171261905Y-132954819D01*
X171261905Y-132954819D02*
X171500000Y-132954819D01*
X171500000Y-132954819D02*
X171642857Y-133002438D01*
X171642857Y-133002438D02*
X171738095Y-133097676D01*
X171738095Y-133097676D02*
X171785714Y-133192914D01*
X171785714Y-133192914D02*
X171833333Y-133383390D01*
X171833333Y-133383390D02*
X171833333Y-133526247D01*
X171833333Y-133526247D02*
X171785714Y-133716723D01*
X171785714Y-133716723D02*
X171738095Y-133811961D01*
X171738095Y-133811961D02*
X171642857Y-133907200D01*
X171642857Y-133907200D02*
X171500000Y-133954819D01*
X171500000Y-133954819D02*
X171261905Y-133954819D01*
X172690476Y-133288152D02*
X172690476Y-133954819D01*
X172452381Y-132907200D02*
X172214286Y-133621485D01*
X172214286Y-133621485D02*
X172833333Y-133621485D01*
X166285714Y-128254819D02*
X165714286Y-128254819D01*
X166000000Y-128254819D02*
X166000000Y-127254819D01*
X166000000Y-127254819D02*
X165904762Y-127397676D01*
X165904762Y-127397676D02*
X165809524Y-127492914D01*
X165809524Y-127492914D02*
X165714286Y-127540533D01*
X118333333Y-153859580D02*
X118285714Y-153907200D01*
X118285714Y-153907200D02*
X118142857Y-153954819D01*
X118142857Y-153954819D02*
X118047619Y-153954819D01*
X118047619Y-153954819D02*
X117904762Y-153907200D01*
X117904762Y-153907200D02*
X117809524Y-153811961D01*
X117809524Y-153811961D02*
X117761905Y-153716723D01*
X117761905Y-153716723D02*
X117714286Y-153526247D01*
X117714286Y-153526247D02*
X117714286Y-153383390D01*
X117714286Y-153383390D02*
X117761905Y-153192914D01*
X117761905Y-153192914D02*
X117809524Y-153097676D01*
X117809524Y-153097676D02*
X117904762Y-153002438D01*
X117904762Y-153002438D02*
X118047619Y-152954819D01*
X118047619Y-152954819D02*
X118142857Y-152954819D01*
X118142857Y-152954819D02*
X118285714Y-153002438D01*
X118285714Y-153002438D02*
X118333333Y-153050057D01*
X118809524Y-153954819D02*
X119000000Y-153954819D01*
X119000000Y-153954819D02*
X119095238Y-153907200D01*
X119095238Y-153907200D02*
X119142857Y-153859580D01*
X119142857Y-153859580D02*
X119238095Y-153716723D01*
X119238095Y-153716723D02*
X119285714Y-153526247D01*
X119285714Y-153526247D02*
X119285714Y-153145295D01*
X119285714Y-153145295D02*
X119238095Y-153050057D01*
X119238095Y-153050057D02*
X119190476Y-153002438D01*
X119190476Y-153002438D02*
X119095238Y-152954819D01*
X119095238Y-152954819D02*
X118904762Y-152954819D01*
X118904762Y-152954819D02*
X118809524Y-153002438D01*
X118809524Y-153002438D02*
X118761905Y-153050057D01*
X118761905Y-153050057D02*
X118714286Y-153145295D01*
X118714286Y-153145295D02*
X118714286Y-153383390D01*
X118714286Y-153383390D02*
X118761905Y-153478628D01*
X118761905Y-153478628D02*
X118809524Y-153526247D01*
X118809524Y-153526247D02*
X118904762Y-153573866D01*
X118904762Y-153573866D02*
X119095238Y-153573866D01*
X119095238Y-153573866D02*
X119190476Y-153526247D01*
X119190476Y-153526247D02*
X119238095Y-153478628D01*
X119238095Y-153478628D02*
X119285714Y-153383390D01*
X151735714Y-148954819D02*
X151735714Y-147954819D01*
X151735714Y-147954819D02*
X151973809Y-147954819D01*
X151973809Y-147954819D02*
X152116666Y-148002438D01*
X152116666Y-148002438D02*
X152211904Y-148097676D01*
X152211904Y-148097676D02*
X152259523Y-148192914D01*
X152259523Y-148192914D02*
X152307142Y-148383390D01*
X152307142Y-148383390D02*
X152307142Y-148526247D01*
X152307142Y-148526247D02*
X152259523Y-148716723D01*
X152259523Y-148716723D02*
X152211904Y-148811961D01*
X152211904Y-148811961D02*
X152116666Y-148907200D01*
X152116666Y-148907200D02*
X151973809Y-148954819D01*
X151973809Y-148954819D02*
X151735714Y-148954819D01*
X153259523Y-148954819D02*
X152688095Y-148954819D01*
X152973809Y-148954819D02*
X152973809Y-147954819D01*
X152973809Y-147954819D02*
X152878571Y-148097676D01*
X152878571Y-148097676D02*
X152783333Y-148192914D01*
X152783333Y-148192914D02*
X152688095Y-148240533D01*
X153592857Y-147954819D02*
X154211904Y-147954819D01*
X154211904Y-147954819D02*
X153878571Y-148335771D01*
X153878571Y-148335771D02*
X154021428Y-148335771D01*
X154021428Y-148335771D02*
X154116666Y-148383390D01*
X154116666Y-148383390D02*
X154164285Y-148431009D01*
X154164285Y-148431009D02*
X154211904Y-148526247D01*
X154211904Y-148526247D02*
X154211904Y-148764342D01*
X154211904Y-148764342D02*
X154164285Y-148859580D01*
X154164285Y-148859580D02*
X154116666Y-148907200D01*
X154116666Y-148907200D02*
X154021428Y-148954819D01*
X154021428Y-148954819D02*
X153735714Y-148954819D01*
X153735714Y-148954819D02*
X153640476Y-148907200D01*
X153640476Y-148907200D02*
X153592857Y-148859580D01*
X149085714Y-143204819D02*
X148514286Y-143204819D01*
X148800000Y-143204819D02*
X148800000Y-142204819D01*
X148800000Y-142204819D02*
X148704762Y-142347676D01*
X148704762Y-142347676D02*
X148609524Y-142442914D01*
X148609524Y-142442914D02*
X148514286Y-142490533D01*
X121761905Y-169454819D02*
X121761905Y-168454819D01*
X121761905Y-168454819D02*
X122000000Y-168454819D01*
X122000000Y-168454819D02*
X122142857Y-168502438D01*
X122142857Y-168502438D02*
X122238095Y-168597676D01*
X122238095Y-168597676D02*
X122285714Y-168692914D01*
X122285714Y-168692914D02*
X122333333Y-168883390D01*
X122333333Y-168883390D02*
X122333333Y-169026247D01*
X122333333Y-169026247D02*
X122285714Y-169216723D01*
X122285714Y-169216723D02*
X122238095Y-169311961D01*
X122238095Y-169311961D02*
X122142857Y-169407200D01*
X122142857Y-169407200D02*
X122000000Y-169454819D01*
X122000000Y-169454819D02*
X121761905Y-169454819D01*
X122904762Y-168883390D02*
X122809524Y-168835771D01*
X122809524Y-168835771D02*
X122761905Y-168788152D01*
X122761905Y-168788152D02*
X122714286Y-168692914D01*
X122714286Y-168692914D02*
X122714286Y-168645295D01*
X122714286Y-168645295D02*
X122761905Y-168550057D01*
X122761905Y-168550057D02*
X122809524Y-168502438D01*
X122809524Y-168502438D02*
X122904762Y-168454819D01*
X122904762Y-168454819D02*
X123095238Y-168454819D01*
X123095238Y-168454819D02*
X123190476Y-168502438D01*
X123190476Y-168502438D02*
X123238095Y-168550057D01*
X123238095Y-168550057D02*
X123285714Y-168645295D01*
X123285714Y-168645295D02*
X123285714Y-168692914D01*
X123285714Y-168692914D02*
X123238095Y-168788152D01*
X123238095Y-168788152D02*
X123190476Y-168835771D01*
X123190476Y-168835771D02*
X123095238Y-168883390D01*
X123095238Y-168883390D02*
X122904762Y-168883390D01*
X122904762Y-168883390D02*
X122809524Y-168931009D01*
X122809524Y-168931009D02*
X122761905Y-168978628D01*
X122761905Y-168978628D02*
X122714286Y-169073866D01*
X122714286Y-169073866D02*
X122714286Y-169264342D01*
X122714286Y-169264342D02*
X122761905Y-169359580D01*
X122761905Y-169359580D02*
X122809524Y-169407200D01*
X122809524Y-169407200D02*
X122904762Y-169454819D01*
X122904762Y-169454819D02*
X123095238Y-169454819D01*
X123095238Y-169454819D02*
X123190476Y-169407200D01*
X123190476Y-169407200D02*
X123238095Y-169359580D01*
X123238095Y-169359580D02*
X123285714Y-169264342D01*
X123285714Y-169264342D02*
X123285714Y-169073866D01*
X123285714Y-169073866D02*
X123238095Y-168978628D01*
X123238095Y-168978628D02*
X123190476Y-168931009D01*
X123190476Y-168931009D02*
X123095238Y-168883390D01*
X118585714Y-163704819D02*
X118014286Y-163704819D01*
X118300000Y-163704819D02*
X118300000Y-162704819D01*
X118300000Y-162704819D02*
X118204762Y-162847676D01*
X118204762Y-162847676D02*
X118109524Y-162942914D01*
X118109524Y-162942914D02*
X118014286Y-162990533D01*
X146833333Y-112859580D02*
X146785714Y-112907200D01*
X146785714Y-112907200D02*
X146642857Y-112954819D01*
X146642857Y-112954819D02*
X146547619Y-112954819D01*
X146547619Y-112954819D02*
X146404762Y-112907200D01*
X146404762Y-112907200D02*
X146309524Y-112811961D01*
X146309524Y-112811961D02*
X146261905Y-112716723D01*
X146261905Y-112716723D02*
X146214286Y-112526247D01*
X146214286Y-112526247D02*
X146214286Y-112383390D01*
X146214286Y-112383390D02*
X146261905Y-112192914D01*
X146261905Y-112192914D02*
X146309524Y-112097676D01*
X146309524Y-112097676D02*
X146404762Y-112002438D01*
X146404762Y-112002438D02*
X146547619Y-111954819D01*
X146547619Y-111954819D02*
X146642857Y-111954819D01*
X146642857Y-111954819D02*
X146785714Y-112002438D01*
X146785714Y-112002438D02*
X146833333Y-112050057D01*
X147214286Y-112050057D02*
X147261905Y-112002438D01*
X147261905Y-112002438D02*
X147357143Y-111954819D01*
X147357143Y-111954819D02*
X147595238Y-111954819D01*
X147595238Y-111954819D02*
X147690476Y-112002438D01*
X147690476Y-112002438D02*
X147738095Y-112050057D01*
X147738095Y-112050057D02*
X147785714Y-112145295D01*
X147785714Y-112145295D02*
X147785714Y-112240533D01*
X147785714Y-112240533D02*
X147738095Y-112383390D01*
X147738095Y-112383390D02*
X147166667Y-112954819D01*
X147166667Y-112954819D02*
X147785714Y-112954819D01*
X138261905Y-112954819D02*
X138261905Y-111954819D01*
X138261905Y-111954819D02*
X138500000Y-111954819D01*
X138500000Y-111954819D02*
X138642857Y-112002438D01*
X138642857Y-112002438D02*
X138738095Y-112097676D01*
X138738095Y-112097676D02*
X138785714Y-112192914D01*
X138785714Y-112192914D02*
X138833333Y-112383390D01*
X138833333Y-112383390D02*
X138833333Y-112526247D01*
X138833333Y-112526247D02*
X138785714Y-112716723D01*
X138785714Y-112716723D02*
X138738095Y-112811961D01*
X138738095Y-112811961D02*
X138642857Y-112907200D01*
X138642857Y-112907200D02*
X138500000Y-112954819D01*
X138500000Y-112954819D02*
X138261905Y-112954819D01*
X139214286Y-112050057D02*
X139261905Y-112002438D01*
X139261905Y-112002438D02*
X139357143Y-111954819D01*
X139357143Y-111954819D02*
X139595238Y-111954819D01*
X139595238Y-111954819D02*
X139690476Y-112002438D01*
X139690476Y-112002438D02*
X139738095Y-112050057D01*
X139738095Y-112050057D02*
X139785714Y-112145295D01*
X139785714Y-112145295D02*
X139785714Y-112240533D01*
X139785714Y-112240533D02*
X139738095Y-112383390D01*
X139738095Y-112383390D02*
X139166667Y-112954819D01*
X139166667Y-112954819D02*
X139785714Y-112954819D01*
X144435714Y-110554819D02*
X143864286Y-110554819D01*
X144150000Y-110554819D02*
X144150000Y-109554819D01*
X144150000Y-109554819D02*
X144054762Y-109697676D01*
X144054762Y-109697676D02*
X143959524Y-109792914D01*
X143959524Y-109792914D02*
X143864286Y-109840533D01*
X128785714Y-133454819D02*
X128785714Y-132454819D01*
X128785714Y-132454819D02*
X129023809Y-132454819D01*
X129023809Y-132454819D02*
X129166666Y-132502438D01*
X129166666Y-132502438D02*
X129261904Y-132597676D01*
X129261904Y-132597676D02*
X129309523Y-132692914D01*
X129309523Y-132692914D02*
X129357142Y-132883390D01*
X129357142Y-132883390D02*
X129357142Y-133026247D01*
X129357142Y-133026247D02*
X129309523Y-133216723D01*
X129309523Y-133216723D02*
X129261904Y-133311961D01*
X129261904Y-133311961D02*
X129166666Y-133407200D01*
X129166666Y-133407200D02*
X129023809Y-133454819D01*
X129023809Y-133454819D02*
X128785714Y-133454819D01*
X130309523Y-133454819D02*
X129738095Y-133454819D01*
X130023809Y-133454819D02*
X130023809Y-132454819D01*
X130023809Y-132454819D02*
X129928571Y-132597676D01*
X129928571Y-132597676D02*
X129833333Y-132692914D01*
X129833333Y-132692914D02*
X129738095Y-132740533D01*
X131261904Y-133454819D02*
X130690476Y-133454819D01*
X130976190Y-133454819D02*
X130976190Y-132454819D01*
X130976190Y-132454819D02*
X130880952Y-132597676D01*
X130880952Y-132597676D02*
X130785714Y-132692914D01*
X130785714Y-132692914D02*
X130690476Y-132740533D01*
X136485714Y-130904819D02*
X135914286Y-130904819D01*
X136200000Y-130904819D02*
X136200000Y-129904819D01*
X136200000Y-129904819D02*
X136104762Y-130047676D01*
X136104762Y-130047676D02*
X136009524Y-130142914D01*
X136009524Y-130142914D02*
X135914286Y-130190533D01*
X144785714Y-133454819D02*
X144785714Y-132454819D01*
X144785714Y-132454819D02*
X145023809Y-132454819D01*
X145023809Y-132454819D02*
X145166666Y-132502438D01*
X145166666Y-132502438D02*
X145261904Y-132597676D01*
X145261904Y-132597676D02*
X145309523Y-132692914D01*
X145309523Y-132692914D02*
X145357142Y-132883390D01*
X145357142Y-132883390D02*
X145357142Y-133026247D01*
X145357142Y-133026247D02*
X145309523Y-133216723D01*
X145309523Y-133216723D02*
X145261904Y-133311961D01*
X145261904Y-133311961D02*
X145166666Y-133407200D01*
X145166666Y-133407200D02*
X145023809Y-133454819D01*
X145023809Y-133454819D02*
X144785714Y-133454819D01*
X146309523Y-133454819D02*
X145738095Y-133454819D01*
X146023809Y-133454819D02*
X146023809Y-132454819D01*
X146023809Y-132454819D02*
X145928571Y-132597676D01*
X145928571Y-132597676D02*
X145833333Y-132692914D01*
X145833333Y-132692914D02*
X145738095Y-132740533D01*
X146690476Y-132550057D02*
X146738095Y-132502438D01*
X146738095Y-132502438D02*
X146833333Y-132454819D01*
X146833333Y-132454819D02*
X147071428Y-132454819D01*
X147071428Y-132454819D02*
X147166666Y-132502438D01*
X147166666Y-132502438D02*
X147214285Y-132550057D01*
X147214285Y-132550057D02*
X147261904Y-132645295D01*
X147261904Y-132645295D02*
X147261904Y-132740533D01*
X147261904Y-132740533D02*
X147214285Y-132883390D01*
X147214285Y-132883390D02*
X146642857Y-133454819D01*
X146642857Y-133454819D02*
X147261904Y-133454819D01*
X152435714Y-131054819D02*
X151864286Y-131054819D01*
X152150000Y-131054819D02*
X152150000Y-130054819D01*
X152150000Y-130054819D02*
X152054762Y-130197676D01*
X152054762Y-130197676D02*
X151959524Y-130292914D01*
X151959524Y-130292914D02*
X151864286Y-130340533D01*
X123285714Y-148454819D02*
X123285714Y-147454819D01*
X123285714Y-147454819D02*
X123523809Y-147454819D01*
X123523809Y-147454819D02*
X123666666Y-147502438D01*
X123666666Y-147502438D02*
X123761904Y-147597676D01*
X123761904Y-147597676D02*
X123809523Y-147692914D01*
X123809523Y-147692914D02*
X123857142Y-147883390D01*
X123857142Y-147883390D02*
X123857142Y-148026247D01*
X123857142Y-148026247D02*
X123809523Y-148216723D01*
X123809523Y-148216723D02*
X123761904Y-148311961D01*
X123761904Y-148311961D02*
X123666666Y-148407200D01*
X123666666Y-148407200D02*
X123523809Y-148454819D01*
X123523809Y-148454819D02*
X123285714Y-148454819D01*
X124809523Y-148454819D02*
X124238095Y-148454819D01*
X124523809Y-148454819D02*
X124523809Y-147454819D01*
X124523809Y-147454819D02*
X124428571Y-147597676D01*
X124428571Y-147597676D02*
X124333333Y-147692914D01*
X124333333Y-147692914D02*
X124238095Y-147740533D01*
X125714285Y-147454819D02*
X125238095Y-147454819D01*
X125238095Y-147454819D02*
X125190476Y-147931009D01*
X125190476Y-147931009D02*
X125238095Y-147883390D01*
X125238095Y-147883390D02*
X125333333Y-147835771D01*
X125333333Y-147835771D02*
X125571428Y-147835771D01*
X125571428Y-147835771D02*
X125666666Y-147883390D01*
X125666666Y-147883390D02*
X125714285Y-147931009D01*
X125714285Y-147931009D02*
X125761904Y-148026247D01*
X125761904Y-148026247D02*
X125761904Y-148264342D01*
X125761904Y-148264342D02*
X125714285Y-148359580D01*
X125714285Y-148359580D02*
X125666666Y-148407200D01*
X125666666Y-148407200D02*
X125571428Y-148454819D01*
X125571428Y-148454819D02*
X125333333Y-148454819D01*
X125333333Y-148454819D02*
X125238095Y-148407200D01*
X125238095Y-148407200D02*
X125190476Y-148359580D01*
X131385714Y-145904819D02*
X130814286Y-145904819D01*
X131100000Y-145904819D02*
X131100000Y-144904819D01*
X131100000Y-144904819D02*
X131004762Y-145047676D01*
X131004762Y-145047676D02*
X130909524Y-145142914D01*
X130909524Y-145142914D02*
X130814286Y-145190533D01*
X135833333Y-167359580D02*
X135785714Y-167407200D01*
X135785714Y-167407200D02*
X135642857Y-167454819D01*
X135642857Y-167454819D02*
X135547619Y-167454819D01*
X135547619Y-167454819D02*
X135404762Y-167407200D01*
X135404762Y-167407200D02*
X135309524Y-167311961D01*
X135309524Y-167311961D02*
X135261905Y-167216723D01*
X135261905Y-167216723D02*
X135214286Y-167026247D01*
X135214286Y-167026247D02*
X135214286Y-166883390D01*
X135214286Y-166883390D02*
X135261905Y-166692914D01*
X135261905Y-166692914D02*
X135309524Y-166597676D01*
X135309524Y-166597676D02*
X135404762Y-166502438D01*
X135404762Y-166502438D02*
X135547619Y-166454819D01*
X135547619Y-166454819D02*
X135642857Y-166454819D01*
X135642857Y-166454819D02*
X135785714Y-166502438D01*
X135785714Y-166502438D02*
X135833333Y-166550057D01*
X136166667Y-166454819D02*
X136833333Y-166454819D01*
X136833333Y-166454819D02*
X136404762Y-167454819D01*
X116407142Y-130679580D02*
X116359523Y-130727200D01*
X116359523Y-130727200D02*
X116216666Y-130774819D01*
X116216666Y-130774819D02*
X116121428Y-130774819D01*
X116121428Y-130774819D02*
X115978571Y-130727200D01*
X115978571Y-130727200D02*
X115883333Y-130631961D01*
X115883333Y-130631961D02*
X115835714Y-130536723D01*
X115835714Y-130536723D02*
X115788095Y-130346247D01*
X115788095Y-130346247D02*
X115788095Y-130203390D01*
X115788095Y-130203390D02*
X115835714Y-130012914D01*
X115835714Y-130012914D02*
X115883333Y-129917676D01*
X115883333Y-129917676D02*
X115978571Y-129822438D01*
X115978571Y-129822438D02*
X116121428Y-129774819D01*
X116121428Y-129774819D02*
X116216666Y-129774819D01*
X116216666Y-129774819D02*
X116359523Y-129822438D01*
X116359523Y-129822438D02*
X116407142Y-129870057D01*
X117359523Y-130774819D02*
X116788095Y-130774819D01*
X117073809Y-130774819D02*
X117073809Y-129774819D01*
X117073809Y-129774819D02*
X116978571Y-129917676D01*
X116978571Y-129917676D02*
X116883333Y-130012914D01*
X116883333Y-130012914D02*
X116788095Y-130060533D01*
X117978571Y-129774819D02*
X118073809Y-129774819D01*
X118073809Y-129774819D02*
X118169047Y-129822438D01*
X118169047Y-129822438D02*
X118216666Y-129870057D01*
X118216666Y-129870057D02*
X118264285Y-129965295D01*
X118264285Y-129965295D02*
X118311904Y-130155771D01*
X118311904Y-130155771D02*
X118311904Y-130393866D01*
X118311904Y-130393866D02*
X118264285Y-130584342D01*
X118264285Y-130584342D02*
X118216666Y-130679580D01*
X118216666Y-130679580D02*
X118169047Y-130727200D01*
X118169047Y-130727200D02*
X118073809Y-130774819D01*
X118073809Y-130774819D02*
X117978571Y-130774819D01*
X117978571Y-130774819D02*
X117883333Y-130727200D01*
X117883333Y-130727200D02*
X117835714Y-130679580D01*
X117835714Y-130679580D02*
X117788095Y-130584342D01*
X117788095Y-130584342D02*
X117740476Y-130393866D01*
X117740476Y-130393866D02*
X117740476Y-130155771D01*
X117740476Y-130155771D02*
X117788095Y-129965295D01*
X117788095Y-129965295D02*
X117835714Y-129870057D01*
X117835714Y-129870057D02*
X117883333Y-129822438D01*
X117883333Y-129822438D02*
X117978571Y-129774819D01*
X136957142Y-132959580D02*
X136909523Y-133007200D01*
X136909523Y-133007200D02*
X136766666Y-133054819D01*
X136766666Y-133054819D02*
X136671428Y-133054819D01*
X136671428Y-133054819D02*
X136528571Y-133007200D01*
X136528571Y-133007200D02*
X136433333Y-132911961D01*
X136433333Y-132911961D02*
X136385714Y-132816723D01*
X136385714Y-132816723D02*
X136338095Y-132626247D01*
X136338095Y-132626247D02*
X136338095Y-132483390D01*
X136338095Y-132483390D02*
X136385714Y-132292914D01*
X136385714Y-132292914D02*
X136433333Y-132197676D01*
X136433333Y-132197676D02*
X136528571Y-132102438D01*
X136528571Y-132102438D02*
X136671428Y-132054819D01*
X136671428Y-132054819D02*
X136766666Y-132054819D01*
X136766666Y-132054819D02*
X136909523Y-132102438D01*
X136909523Y-132102438D02*
X136957142Y-132150057D01*
X137909523Y-133054819D02*
X137338095Y-133054819D01*
X137623809Y-133054819D02*
X137623809Y-132054819D01*
X137623809Y-132054819D02*
X137528571Y-132197676D01*
X137528571Y-132197676D02*
X137433333Y-132292914D01*
X137433333Y-132292914D02*
X137338095Y-132340533D01*
X138861904Y-133054819D02*
X138290476Y-133054819D01*
X138576190Y-133054819D02*
X138576190Y-132054819D01*
X138576190Y-132054819D02*
X138480952Y-132197676D01*
X138480952Y-132197676D02*
X138385714Y-132292914D01*
X138385714Y-132292914D02*
X138290476Y-132340533D01*
X158261905Y-168954819D02*
X158261905Y-167954819D01*
X158261905Y-167954819D02*
X158500000Y-167954819D01*
X158500000Y-167954819D02*
X158642857Y-168002438D01*
X158642857Y-168002438D02*
X158738095Y-168097676D01*
X158738095Y-168097676D02*
X158785714Y-168192914D01*
X158785714Y-168192914D02*
X158833333Y-168383390D01*
X158833333Y-168383390D02*
X158833333Y-168526247D01*
X158833333Y-168526247D02*
X158785714Y-168716723D01*
X158785714Y-168716723D02*
X158738095Y-168811961D01*
X158738095Y-168811961D02*
X158642857Y-168907200D01*
X158642857Y-168907200D02*
X158500000Y-168954819D01*
X158500000Y-168954819D02*
X158261905Y-168954819D01*
X159690476Y-167954819D02*
X159500000Y-167954819D01*
X159500000Y-167954819D02*
X159404762Y-168002438D01*
X159404762Y-168002438D02*
X159357143Y-168050057D01*
X159357143Y-168050057D02*
X159261905Y-168192914D01*
X159261905Y-168192914D02*
X159214286Y-168383390D01*
X159214286Y-168383390D02*
X159214286Y-168764342D01*
X159214286Y-168764342D02*
X159261905Y-168859580D01*
X159261905Y-168859580D02*
X159309524Y-168907200D01*
X159309524Y-168907200D02*
X159404762Y-168954819D01*
X159404762Y-168954819D02*
X159595238Y-168954819D01*
X159595238Y-168954819D02*
X159690476Y-168907200D01*
X159690476Y-168907200D02*
X159738095Y-168859580D01*
X159738095Y-168859580D02*
X159785714Y-168764342D01*
X159785714Y-168764342D02*
X159785714Y-168526247D01*
X159785714Y-168526247D02*
X159738095Y-168431009D01*
X159738095Y-168431009D02*
X159690476Y-168383390D01*
X159690476Y-168383390D02*
X159595238Y-168335771D01*
X159595238Y-168335771D02*
X159404762Y-168335771D01*
X159404762Y-168335771D02*
X159309524Y-168383390D01*
X159309524Y-168383390D02*
X159261905Y-168431009D01*
X159261905Y-168431009D02*
X159214286Y-168526247D01*
X155135714Y-163354819D02*
X154564286Y-163354819D01*
X154850000Y-163354819D02*
X154850000Y-162354819D01*
X154850000Y-162354819D02*
X154754762Y-162497676D01*
X154754762Y-162497676D02*
X154659524Y-162592914D01*
X154659524Y-162592914D02*
X154564286Y-162640533D01*
X150357142Y-138179580D02*
X150309523Y-138227200D01*
X150309523Y-138227200D02*
X150166666Y-138274819D01*
X150166666Y-138274819D02*
X150071428Y-138274819D01*
X150071428Y-138274819D02*
X149928571Y-138227200D01*
X149928571Y-138227200D02*
X149833333Y-138131961D01*
X149833333Y-138131961D02*
X149785714Y-138036723D01*
X149785714Y-138036723D02*
X149738095Y-137846247D01*
X149738095Y-137846247D02*
X149738095Y-137703390D01*
X149738095Y-137703390D02*
X149785714Y-137512914D01*
X149785714Y-137512914D02*
X149833333Y-137417676D01*
X149833333Y-137417676D02*
X149928571Y-137322438D01*
X149928571Y-137322438D02*
X150071428Y-137274819D01*
X150071428Y-137274819D02*
X150166666Y-137274819D01*
X150166666Y-137274819D02*
X150309523Y-137322438D01*
X150309523Y-137322438D02*
X150357142Y-137370057D01*
X151309523Y-138274819D02*
X150738095Y-138274819D01*
X151023809Y-138274819D02*
X151023809Y-137274819D01*
X151023809Y-137274819D02*
X150928571Y-137417676D01*
X150928571Y-137417676D02*
X150833333Y-137512914D01*
X150833333Y-137512914D02*
X150738095Y-137560533D01*
X151642857Y-137274819D02*
X152261904Y-137274819D01*
X152261904Y-137274819D02*
X151928571Y-137655771D01*
X151928571Y-137655771D02*
X152071428Y-137655771D01*
X152071428Y-137655771D02*
X152166666Y-137703390D01*
X152166666Y-137703390D02*
X152214285Y-137751009D01*
X152214285Y-137751009D02*
X152261904Y-137846247D01*
X152261904Y-137846247D02*
X152261904Y-138084342D01*
X152261904Y-138084342D02*
X152214285Y-138179580D01*
X152214285Y-138179580D02*
X152166666Y-138227200D01*
X152166666Y-138227200D02*
X152071428Y-138274819D01*
X152071428Y-138274819D02*
X151785714Y-138274819D01*
X151785714Y-138274819D02*
X151690476Y-138227200D01*
X151690476Y-138227200D02*
X151642857Y-138179580D01*
X136857142Y-145359580D02*
X136809523Y-145407200D01*
X136809523Y-145407200D02*
X136666666Y-145454819D01*
X136666666Y-145454819D02*
X136571428Y-145454819D01*
X136571428Y-145454819D02*
X136428571Y-145407200D01*
X136428571Y-145407200D02*
X136333333Y-145311961D01*
X136333333Y-145311961D02*
X136285714Y-145216723D01*
X136285714Y-145216723D02*
X136238095Y-145026247D01*
X136238095Y-145026247D02*
X136238095Y-144883390D01*
X136238095Y-144883390D02*
X136285714Y-144692914D01*
X136285714Y-144692914D02*
X136333333Y-144597676D01*
X136333333Y-144597676D02*
X136428571Y-144502438D01*
X136428571Y-144502438D02*
X136571428Y-144454819D01*
X136571428Y-144454819D02*
X136666666Y-144454819D01*
X136666666Y-144454819D02*
X136809523Y-144502438D01*
X136809523Y-144502438D02*
X136857142Y-144550057D01*
X137809523Y-145454819D02*
X137238095Y-145454819D01*
X137523809Y-145454819D02*
X137523809Y-144454819D01*
X137523809Y-144454819D02*
X137428571Y-144597676D01*
X137428571Y-144597676D02*
X137333333Y-144692914D01*
X137333333Y-144692914D02*
X137238095Y-144740533D01*
X138142857Y-144454819D02*
X138809523Y-144454819D01*
X138809523Y-144454819D02*
X138380952Y-145454819D01*
X137233333Y-139854819D02*
X136900000Y-139378628D01*
X136661905Y-139854819D02*
X136661905Y-138854819D01*
X136661905Y-138854819D02*
X137042857Y-138854819D01*
X137042857Y-138854819D02*
X137138095Y-138902438D01*
X137138095Y-138902438D02*
X137185714Y-138950057D01*
X137185714Y-138950057D02*
X137233333Y-139045295D01*
X137233333Y-139045295D02*
X137233333Y-139188152D01*
X137233333Y-139188152D02*
X137185714Y-139283390D01*
X137185714Y-139283390D02*
X137138095Y-139331009D01*
X137138095Y-139331009D02*
X137042857Y-139378628D01*
X137042857Y-139378628D02*
X136661905Y-139378628D01*
X137566667Y-138854819D02*
X138185714Y-138854819D01*
X138185714Y-138854819D02*
X137852381Y-139235771D01*
X137852381Y-139235771D02*
X137995238Y-139235771D01*
X137995238Y-139235771D02*
X138090476Y-139283390D01*
X138090476Y-139283390D02*
X138138095Y-139331009D01*
X138138095Y-139331009D02*
X138185714Y-139426247D01*
X138185714Y-139426247D02*
X138185714Y-139664342D01*
X138185714Y-139664342D02*
X138138095Y-139759580D01*
X138138095Y-139759580D02*
X138090476Y-139807200D01*
X138090476Y-139807200D02*
X137995238Y-139854819D01*
X137995238Y-139854819D02*
X137709524Y-139854819D01*
X137709524Y-139854819D02*
X137614286Y-139807200D01*
X137614286Y-139807200D02*
X137566667Y-139759580D01*
X130857142Y-148359580D02*
X130809523Y-148407200D01*
X130809523Y-148407200D02*
X130666666Y-148454819D01*
X130666666Y-148454819D02*
X130571428Y-148454819D01*
X130571428Y-148454819D02*
X130428571Y-148407200D01*
X130428571Y-148407200D02*
X130333333Y-148311961D01*
X130333333Y-148311961D02*
X130285714Y-148216723D01*
X130285714Y-148216723D02*
X130238095Y-148026247D01*
X130238095Y-148026247D02*
X130238095Y-147883390D01*
X130238095Y-147883390D02*
X130285714Y-147692914D01*
X130285714Y-147692914D02*
X130333333Y-147597676D01*
X130333333Y-147597676D02*
X130428571Y-147502438D01*
X130428571Y-147502438D02*
X130571428Y-147454819D01*
X130571428Y-147454819D02*
X130666666Y-147454819D01*
X130666666Y-147454819D02*
X130809523Y-147502438D01*
X130809523Y-147502438D02*
X130857142Y-147550057D01*
X131809523Y-148454819D02*
X131238095Y-148454819D01*
X131523809Y-148454819D02*
X131523809Y-147454819D01*
X131523809Y-147454819D02*
X131428571Y-147597676D01*
X131428571Y-147597676D02*
X131333333Y-147692914D01*
X131333333Y-147692914D02*
X131238095Y-147740533D01*
X132714285Y-147454819D02*
X132238095Y-147454819D01*
X132238095Y-147454819D02*
X132190476Y-147931009D01*
X132190476Y-147931009D02*
X132238095Y-147883390D01*
X132238095Y-147883390D02*
X132333333Y-147835771D01*
X132333333Y-147835771D02*
X132571428Y-147835771D01*
X132571428Y-147835771D02*
X132666666Y-147883390D01*
X132666666Y-147883390D02*
X132714285Y-147931009D01*
X132714285Y-147931009D02*
X132761904Y-148026247D01*
X132761904Y-148026247D02*
X132761904Y-148264342D01*
X132761904Y-148264342D02*
X132714285Y-148359580D01*
X132714285Y-148359580D02*
X132666666Y-148407200D01*
X132666666Y-148407200D02*
X132571428Y-148454819D01*
X132571428Y-148454819D02*
X132333333Y-148454819D01*
X132333333Y-148454819D02*
X132238095Y-148407200D01*
X132238095Y-148407200D02*
X132190476Y-148359580D01*
X138335714Y-158454819D02*
X138335714Y-157454819D01*
X138335714Y-157454819D02*
X138573809Y-157454819D01*
X138573809Y-157454819D02*
X138716666Y-157502438D01*
X138716666Y-157502438D02*
X138811904Y-157597676D01*
X138811904Y-157597676D02*
X138859523Y-157692914D01*
X138859523Y-157692914D02*
X138907142Y-157883390D01*
X138907142Y-157883390D02*
X138907142Y-158026247D01*
X138907142Y-158026247D02*
X138859523Y-158216723D01*
X138859523Y-158216723D02*
X138811904Y-158311961D01*
X138811904Y-158311961D02*
X138716666Y-158407200D01*
X138716666Y-158407200D02*
X138573809Y-158454819D01*
X138573809Y-158454819D02*
X138335714Y-158454819D01*
X139859523Y-158454819D02*
X139288095Y-158454819D01*
X139573809Y-158454819D02*
X139573809Y-157454819D01*
X139573809Y-157454819D02*
X139478571Y-157597676D01*
X139478571Y-157597676D02*
X139383333Y-157692914D01*
X139383333Y-157692914D02*
X139288095Y-157740533D01*
X140716666Y-157788152D02*
X140716666Y-158454819D01*
X140478571Y-157407200D02*
X140240476Y-158121485D01*
X140240476Y-158121485D02*
X140859523Y-158121485D01*
X135685714Y-152704819D02*
X135114286Y-152704819D01*
X135400000Y-152704819D02*
X135400000Y-151704819D01*
X135400000Y-151704819D02*
X135304762Y-151847676D01*
X135304762Y-151847676D02*
X135209524Y-151942914D01*
X135209524Y-151942914D02*
X135114286Y-151990533D01*
X159333333Y-121039580D02*
X159285714Y-121087200D01*
X159285714Y-121087200D02*
X159142857Y-121134819D01*
X159142857Y-121134819D02*
X159047619Y-121134819D01*
X159047619Y-121134819D02*
X158904762Y-121087200D01*
X158904762Y-121087200D02*
X158809524Y-120991961D01*
X158809524Y-120991961D02*
X158761905Y-120896723D01*
X158761905Y-120896723D02*
X158714286Y-120706247D01*
X158714286Y-120706247D02*
X158714286Y-120563390D01*
X158714286Y-120563390D02*
X158761905Y-120372914D01*
X158761905Y-120372914D02*
X158809524Y-120277676D01*
X158809524Y-120277676D02*
X158904762Y-120182438D01*
X158904762Y-120182438D02*
X159047619Y-120134819D01*
X159047619Y-120134819D02*
X159142857Y-120134819D01*
X159142857Y-120134819D02*
X159285714Y-120182438D01*
X159285714Y-120182438D02*
X159333333Y-120230057D01*
X159666667Y-120134819D02*
X160285714Y-120134819D01*
X160285714Y-120134819D02*
X159952381Y-120515771D01*
X159952381Y-120515771D02*
X160095238Y-120515771D01*
X160095238Y-120515771D02*
X160190476Y-120563390D01*
X160190476Y-120563390D02*
X160238095Y-120611009D01*
X160238095Y-120611009D02*
X160285714Y-120706247D01*
X160285714Y-120706247D02*
X160285714Y-120944342D01*
X160285714Y-120944342D02*
X160238095Y-121039580D01*
X160238095Y-121039580D02*
X160190476Y-121087200D01*
X160190476Y-121087200D02*
X160095238Y-121134819D01*
X160095238Y-121134819D02*
X159809524Y-121134819D01*
X159809524Y-121134819D02*
X159714286Y-121087200D01*
X159714286Y-121087200D02*
X159666667Y-121039580D01*
X152357142Y-134359580D02*
X152309523Y-134407200D01*
X152309523Y-134407200D02*
X152166666Y-134454819D01*
X152166666Y-134454819D02*
X152071428Y-134454819D01*
X152071428Y-134454819D02*
X151928571Y-134407200D01*
X151928571Y-134407200D02*
X151833333Y-134311961D01*
X151833333Y-134311961D02*
X151785714Y-134216723D01*
X151785714Y-134216723D02*
X151738095Y-134026247D01*
X151738095Y-134026247D02*
X151738095Y-133883390D01*
X151738095Y-133883390D02*
X151785714Y-133692914D01*
X151785714Y-133692914D02*
X151833333Y-133597676D01*
X151833333Y-133597676D02*
X151928571Y-133502438D01*
X151928571Y-133502438D02*
X152071428Y-133454819D01*
X152071428Y-133454819D02*
X152166666Y-133454819D01*
X152166666Y-133454819D02*
X152309523Y-133502438D01*
X152309523Y-133502438D02*
X152357142Y-133550057D01*
X153309523Y-134454819D02*
X152738095Y-134454819D01*
X153023809Y-134454819D02*
X153023809Y-133454819D01*
X153023809Y-133454819D02*
X152928571Y-133597676D01*
X152928571Y-133597676D02*
X152833333Y-133692914D01*
X152833333Y-133692914D02*
X152738095Y-133740533D01*
X153690476Y-133550057D02*
X153738095Y-133502438D01*
X153738095Y-133502438D02*
X153833333Y-133454819D01*
X153833333Y-133454819D02*
X154071428Y-133454819D01*
X154071428Y-133454819D02*
X154166666Y-133502438D01*
X154166666Y-133502438D02*
X154214285Y-133550057D01*
X154214285Y-133550057D02*
X154261904Y-133645295D01*
X154261904Y-133645295D02*
X154261904Y-133740533D01*
X154261904Y-133740533D02*
X154214285Y-133883390D01*
X154214285Y-133883390D02*
X153642857Y-134454819D01*
X153642857Y-134454819D02*
X154261904Y-134454819D01*
X171333333Y-144859580D02*
X171285714Y-144907200D01*
X171285714Y-144907200D02*
X171142857Y-144954819D01*
X171142857Y-144954819D02*
X171047619Y-144954819D01*
X171047619Y-144954819D02*
X170904762Y-144907200D01*
X170904762Y-144907200D02*
X170809524Y-144811961D01*
X170809524Y-144811961D02*
X170761905Y-144716723D01*
X170761905Y-144716723D02*
X170714286Y-144526247D01*
X170714286Y-144526247D02*
X170714286Y-144383390D01*
X170714286Y-144383390D02*
X170761905Y-144192914D01*
X170761905Y-144192914D02*
X170809524Y-144097676D01*
X170809524Y-144097676D02*
X170904762Y-144002438D01*
X170904762Y-144002438D02*
X171047619Y-143954819D01*
X171047619Y-143954819D02*
X171142857Y-143954819D01*
X171142857Y-143954819D02*
X171285714Y-144002438D01*
X171285714Y-144002438D02*
X171333333Y-144050057D01*
X172238095Y-143954819D02*
X171761905Y-143954819D01*
X171761905Y-143954819D02*
X171714286Y-144431009D01*
X171714286Y-144431009D02*
X171761905Y-144383390D01*
X171761905Y-144383390D02*
X171857143Y-144335771D01*
X171857143Y-144335771D02*
X172095238Y-144335771D01*
X172095238Y-144335771D02*
X172190476Y-144383390D01*
X172190476Y-144383390D02*
X172238095Y-144431009D01*
X172238095Y-144431009D02*
X172285714Y-144526247D01*
X172285714Y-144526247D02*
X172285714Y-144764342D01*
X172285714Y-144764342D02*
X172238095Y-144859580D01*
X172238095Y-144859580D02*
X172190476Y-144907200D01*
X172190476Y-144907200D02*
X172095238Y-144954819D01*
X172095238Y-144954819D02*
X171857143Y-144954819D01*
X171857143Y-144954819D02*
X171761905Y-144907200D01*
X171761905Y-144907200D02*
X171714286Y-144859580D01*
X144861905Y-171254819D02*
X144861905Y-170254819D01*
X144861905Y-170254819D02*
X145100000Y-170254819D01*
X145100000Y-170254819D02*
X145242857Y-170302438D01*
X145242857Y-170302438D02*
X145338095Y-170397676D01*
X145338095Y-170397676D02*
X145385714Y-170492914D01*
X145385714Y-170492914D02*
X145433333Y-170683390D01*
X145433333Y-170683390D02*
X145433333Y-170826247D01*
X145433333Y-170826247D02*
X145385714Y-171016723D01*
X145385714Y-171016723D02*
X145338095Y-171111961D01*
X145338095Y-171111961D02*
X145242857Y-171207200D01*
X145242857Y-171207200D02*
X145100000Y-171254819D01*
X145100000Y-171254819D02*
X144861905Y-171254819D01*
X145766667Y-170254819D02*
X146433333Y-170254819D01*
X146433333Y-170254819D02*
X146004762Y-171254819D01*
X136685714Y-169704819D02*
X136114286Y-169704819D01*
X136400000Y-169704819D02*
X136400000Y-168704819D01*
X136400000Y-168704819D02*
X136304762Y-168847676D01*
X136304762Y-168847676D02*
X136209524Y-168942914D01*
X136209524Y-168942914D02*
X136114286Y-168990533D01*
X117833333Y-160759580D02*
X117785714Y-160807200D01*
X117785714Y-160807200D02*
X117642857Y-160854819D01*
X117642857Y-160854819D02*
X117547619Y-160854819D01*
X117547619Y-160854819D02*
X117404762Y-160807200D01*
X117404762Y-160807200D02*
X117309524Y-160711961D01*
X117309524Y-160711961D02*
X117261905Y-160616723D01*
X117261905Y-160616723D02*
X117214286Y-160426247D01*
X117214286Y-160426247D02*
X117214286Y-160283390D01*
X117214286Y-160283390D02*
X117261905Y-160092914D01*
X117261905Y-160092914D02*
X117309524Y-159997676D01*
X117309524Y-159997676D02*
X117404762Y-159902438D01*
X117404762Y-159902438D02*
X117547619Y-159854819D01*
X117547619Y-159854819D02*
X117642857Y-159854819D01*
X117642857Y-159854819D02*
X117785714Y-159902438D01*
X117785714Y-159902438D02*
X117833333Y-159950057D01*
X118404762Y-160283390D02*
X118309524Y-160235771D01*
X118309524Y-160235771D02*
X118261905Y-160188152D01*
X118261905Y-160188152D02*
X118214286Y-160092914D01*
X118214286Y-160092914D02*
X118214286Y-160045295D01*
X118214286Y-160045295D02*
X118261905Y-159950057D01*
X118261905Y-159950057D02*
X118309524Y-159902438D01*
X118309524Y-159902438D02*
X118404762Y-159854819D01*
X118404762Y-159854819D02*
X118595238Y-159854819D01*
X118595238Y-159854819D02*
X118690476Y-159902438D01*
X118690476Y-159902438D02*
X118738095Y-159950057D01*
X118738095Y-159950057D02*
X118785714Y-160045295D01*
X118785714Y-160045295D02*
X118785714Y-160092914D01*
X118785714Y-160092914D02*
X118738095Y-160188152D01*
X118738095Y-160188152D02*
X118690476Y-160235771D01*
X118690476Y-160235771D02*
X118595238Y-160283390D01*
X118595238Y-160283390D02*
X118404762Y-160283390D01*
X118404762Y-160283390D02*
X118309524Y-160331009D01*
X118309524Y-160331009D02*
X118261905Y-160378628D01*
X118261905Y-160378628D02*
X118214286Y-160473866D01*
X118214286Y-160473866D02*
X118214286Y-160664342D01*
X118214286Y-160664342D02*
X118261905Y-160759580D01*
X118261905Y-160759580D02*
X118309524Y-160807200D01*
X118309524Y-160807200D02*
X118404762Y-160854819D01*
X118404762Y-160854819D02*
X118595238Y-160854819D01*
X118595238Y-160854819D02*
X118690476Y-160807200D01*
X118690476Y-160807200D02*
X118738095Y-160759580D01*
X118738095Y-160759580D02*
X118785714Y-160664342D01*
X118785714Y-160664342D02*
X118785714Y-160473866D01*
X118785714Y-160473866D02*
X118738095Y-160378628D01*
X118738095Y-160378628D02*
X118690476Y-160331009D01*
X118690476Y-160331009D02*
X118595238Y-160283390D01*
X171333333Y-126359580D02*
X171285714Y-126407200D01*
X171285714Y-126407200D02*
X171142857Y-126454819D01*
X171142857Y-126454819D02*
X171047619Y-126454819D01*
X171047619Y-126454819D02*
X170904762Y-126407200D01*
X170904762Y-126407200D02*
X170809524Y-126311961D01*
X170809524Y-126311961D02*
X170761905Y-126216723D01*
X170761905Y-126216723D02*
X170714286Y-126026247D01*
X170714286Y-126026247D02*
X170714286Y-125883390D01*
X170714286Y-125883390D02*
X170761905Y-125692914D01*
X170761905Y-125692914D02*
X170809524Y-125597676D01*
X170809524Y-125597676D02*
X170904762Y-125502438D01*
X170904762Y-125502438D02*
X171047619Y-125454819D01*
X171047619Y-125454819D02*
X171142857Y-125454819D01*
X171142857Y-125454819D02*
X171285714Y-125502438D01*
X171285714Y-125502438D02*
X171333333Y-125550057D01*
X172190476Y-125788152D02*
X172190476Y-126454819D01*
X171952381Y-125407200D02*
X171714286Y-126121485D01*
X171714286Y-126121485D02*
X172333333Y-126121485D01*
X110261905Y-153954819D02*
X110261905Y-152954819D01*
X110261905Y-152954819D02*
X110500000Y-152954819D01*
X110500000Y-152954819D02*
X110642857Y-153002438D01*
X110642857Y-153002438D02*
X110738095Y-153097676D01*
X110738095Y-153097676D02*
X110785714Y-153192914D01*
X110785714Y-153192914D02*
X110833333Y-153383390D01*
X110833333Y-153383390D02*
X110833333Y-153526247D01*
X110833333Y-153526247D02*
X110785714Y-153716723D01*
X110785714Y-153716723D02*
X110738095Y-153811961D01*
X110738095Y-153811961D02*
X110642857Y-153907200D01*
X110642857Y-153907200D02*
X110500000Y-153954819D01*
X110500000Y-153954819D02*
X110261905Y-153954819D01*
X111309524Y-153954819D02*
X111500000Y-153954819D01*
X111500000Y-153954819D02*
X111595238Y-153907200D01*
X111595238Y-153907200D02*
X111642857Y-153859580D01*
X111642857Y-153859580D02*
X111738095Y-153716723D01*
X111738095Y-153716723D02*
X111785714Y-153526247D01*
X111785714Y-153526247D02*
X111785714Y-153145295D01*
X111785714Y-153145295D02*
X111738095Y-153050057D01*
X111738095Y-153050057D02*
X111690476Y-153002438D01*
X111690476Y-153002438D02*
X111595238Y-152954819D01*
X111595238Y-152954819D02*
X111404762Y-152954819D01*
X111404762Y-152954819D02*
X111309524Y-153002438D01*
X111309524Y-153002438D02*
X111261905Y-153050057D01*
X111261905Y-153050057D02*
X111214286Y-153145295D01*
X111214286Y-153145295D02*
X111214286Y-153383390D01*
X111214286Y-153383390D02*
X111261905Y-153478628D01*
X111261905Y-153478628D02*
X111309524Y-153526247D01*
X111309524Y-153526247D02*
X111404762Y-153573866D01*
X111404762Y-153573866D02*
X111595238Y-153573866D01*
X111595238Y-153573866D02*
X111690476Y-153526247D01*
X111690476Y-153526247D02*
X111738095Y-153478628D01*
X111738095Y-153478628D02*
X111785714Y-153383390D01*
X115435714Y-151554819D02*
X114864286Y-151554819D01*
X115150000Y-151554819D02*
X115150000Y-150554819D01*
X115150000Y-150554819D02*
X115054762Y-150697676D01*
X115054762Y-150697676D02*
X114959524Y-150792914D01*
X114959524Y-150792914D02*
X114864286Y-150840533D01*
X137238095Y-137454819D02*
X137238095Y-138264342D01*
X137238095Y-138264342D02*
X137285714Y-138359580D01*
X137285714Y-138359580D02*
X137333333Y-138407200D01*
X137333333Y-138407200D02*
X137428571Y-138454819D01*
X137428571Y-138454819D02*
X137619047Y-138454819D01*
X137619047Y-138454819D02*
X137714285Y-138407200D01*
X137714285Y-138407200D02*
X137761904Y-138359580D01*
X137761904Y-138359580D02*
X137809523Y-138264342D01*
X137809523Y-138264342D02*
X137809523Y-137454819D01*
X138714285Y-137454819D02*
X138523809Y-137454819D01*
X138523809Y-137454819D02*
X138428571Y-137502438D01*
X138428571Y-137502438D02*
X138380952Y-137550057D01*
X138380952Y-137550057D02*
X138285714Y-137692914D01*
X138285714Y-137692914D02*
X138238095Y-137883390D01*
X138238095Y-137883390D02*
X138238095Y-138264342D01*
X138238095Y-138264342D02*
X138285714Y-138359580D01*
X138285714Y-138359580D02*
X138333333Y-138407200D01*
X138333333Y-138407200D02*
X138428571Y-138454819D01*
X138428571Y-138454819D02*
X138619047Y-138454819D01*
X138619047Y-138454819D02*
X138714285Y-138407200D01*
X138714285Y-138407200D02*
X138761904Y-138359580D01*
X138761904Y-138359580D02*
X138809523Y-138264342D01*
X138809523Y-138264342D02*
X138809523Y-138026247D01*
X138809523Y-138026247D02*
X138761904Y-137931009D01*
X138761904Y-137931009D02*
X138714285Y-137883390D01*
X138714285Y-137883390D02*
X138619047Y-137835771D01*
X138619047Y-137835771D02*
X138428571Y-137835771D01*
X138428571Y-137835771D02*
X138333333Y-137883390D01*
X138333333Y-137883390D02*
X138285714Y-137931009D01*
X138285714Y-137931009D02*
X138238095Y-138026247D01*
X155761905Y-118454819D02*
X155761905Y-117454819D01*
X155761905Y-117454819D02*
X156000000Y-117454819D01*
X156000000Y-117454819D02*
X156142857Y-117502438D01*
X156142857Y-117502438D02*
X156238095Y-117597676D01*
X156238095Y-117597676D02*
X156285714Y-117692914D01*
X156285714Y-117692914D02*
X156333333Y-117883390D01*
X156333333Y-117883390D02*
X156333333Y-118026247D01*
X156333333Y-118026247D02*
X156285714Y-118216723D01*
X156285714Y-118216723D02*
X156238095Y-118311961D01*
X156238095Y-118311961D02*
X156142857Y-118407200D01*
X156142857Y-118407200D02*
X156000000Y-118454819D01*
X156000000Y-118454819D02*
X155761905Y-118454819D01*
X156666667Y-117454819D02*
X157285714Y-117454819D01*
X157285714Y-117454819D02*
X156952381Y-117835771D01*
X156952381Y-117835771D02*
X157095238Y-117835771D01*
X157095238Y-117835771D02*
X157190476Y-117883390D01*
X157190476Y-117883390D02*
X157238095Y-117931009D01*
X157238095Y-117931009D02*
X157285714Y-118026247D01*
X157285714Y-118026247D02*
X157285714Y-118264342D01*
X157285714Y-118264342D02*
X157238095Y-118359580D01*
X157238095Y-118359580D02*
X157190476Y-118407200D01*
X157190476Y-118407200D02*
X157095238Y-118454819D01*
X157095238Y-118454819D02*
X156809524Y-118454819D01*
X156809524Y-118454819D02*
X156714286Y-118407200D01*
X156714286Y-118407200D02*
X156666667Y-118359580D01*
X163435714Y-116054819D02*
X162864286Y-116054819D01*
X163150000Y-116054819D02*
X163150000Y-115054819D01*
X163150000Y-115054819D02*
X163054762Y-115197676D01*
X163054762Y-115197676D02*
X162959524Y-115292914D01*
X162959524Y-115292914D02*
X162864286Y-115340533D01*
X109735714Y-133804819D02*
X109735714Y-132804819D01*
X109735714Y-132804819D02*
X109973809Y-132804819D01*
X109973809Y-132804819D02*
X110116666Y-132852438D01*
X110116666Y-132852438D02*
X110211904Y-132947676D01*
X110211904Y-132947676D02*
X110259523Y-133042914D01*
X110259523Y-133042914D02*
X110307142Y-133233390D01*
X110307142Y-133233390D02*
X110307142Y-133376247D01*
X110307142Y-133376247D02*
X110259523Y-133566723D01*
X110259523Y-133566723D02*
X110211904Y-133661961D01*
X110211904Y-133661961D02*
X110116666Y-133757200D01*
X110116666Y-133757200D02*
X109973809Y-133804819D01*
X109973809Y-133804819D02*
X109735714Y-133804819D01*
X111259523Y-133804819D02*
X110688095Y-133804819D01*
X110973809Y-133804819D02*
X110973809Y-132804819D01*
X110973809Y-132804819D02*
X110878571Y-132947676D01*
X110878571Y-132947676D02*
X110783333Y-133042914D01*
X110783333Y-133042914D02*
X110688095Y-133090533D01*
X111878571Y-132804819D02*
X111973809Y-132804819D01*
X111973809Y-132804819D02*
X112069047Y-132852438D01*
X112069047Y-132852438D02*
X112116666Y-132900057D01*
X112116666Y-132900057D02*
X112164285Y-132995295D01*
X112164285Y-132995295D02*
X112211904Y-133185771D01*
X112211904Y-133185771D02*
X112211904Y-133423866D01*
X112211904Y-133423866D02*
X112164285Y-133614342D01*
X112164285Y-133614342D02*
X112116666Y-133709580D01*
X112116666Y-133709580D02*
X112069047Y-133757200D01*
X112069047Y-133757200D02*
X111973809Y-133804819D01*
X111973809Y-133804819D02*
X111878571Y-133804819D01*
X111878571Y-133804819D02*
X111783333Y-133757200D01*
X111783333Y-133757200D02*
X111735714Y-133709580D01*
X111735714Y-133709580D02*
X111688095Y-133614342D01*
X111688095Y-133614342D02*
X111640476Y-133423866D01*
X111640476Y-133423866D02*
X111640476Y-133185771D01*
X111640476Y-133185771D02*
X111688095Y-132995295D01*
X111688095Y-132995295D02*
X111735714Y-132900057D01*
X111735714Y-132900057D02*
X111783333Y-132852438D01*
X111783333Y-132852438D02*
X111878571Y-132804819D01*
X115385714Y-131904819D02*
X114814286Y-131904819D01*
X115100000Y-131904819D02*
X115100000Y-130904819D01*
X115100000Y-130904819D02*
X115004762Y-131047676D01*
X115004762Y-131047676D02*
X114909524Y-131142914D01*
X114909524Y-131142914D02*
X114814286Y-131190533D01*
X169761905Y-153454819D02*
X169761905Y-152454819D01*
X169761905Y-152454819D02*
X170000000Y-152454819D01*
X170000000Y-152454819D02*
X170142857Y-152502438D01*
X170142857Y-152502438D02*
X170238095Y-152597676D01*
X170238095Y-152597676D02*
X170285714Y-152692914D01*
X170285714Y-152692914D02*
X170333333Y-152883390D01*
X170333333Y-152883390D02*
X170333333Y-153026247D01*
X170333333Y-153026247D02*
X170285714Y-153216723D01*
X170285714Y-153216723D02*
X170238095Y-153311961D01*
X170238095Y-153311961D02*
X170142857Y-153407200D01*
X170142857Y-153407200D02*
X170000000Y-153454819D01*
X170000000Y-153454819D02*
X169761905Y-153454819D01*
X171238095Y-152454819D02*
X170761905Y-152454819D01*
X170761905Y-152454819D02*
X170714286Y-152931009D01*
X170714286Y-152931009D02*
X170761905Y-152883390D01*
X170761905Y-152883390D02*
X170857143Y-152835771D01*
X170857143Y-152835771D02*
X171095238Y-152835771D01*
X171095238Y-152835771D02*
X171190476Y-152883390D01*
X171190476Y-152883390D02*
X171238095Y-152931009D01*
X171238095Y-152931009D02*
X171285714Y-153026247D01*
X171285714Y-153026247D02*
X171285714Y-153264342D01*
X171285714Y-153264342D02*
X171238095Y-153359580D01*
X171238095Y-153359580D02*
X171190476Y-153407200D01*
X171190476Y-153407200D02*
X171095238Y-153454819D01*
X171095238Y-153454819D02*
X170857143Y-153454819D01*
X170857143Y-153454819D02*
X170761905Y-153407200D01*
X170761905Y-153407200D02*
X170714286Y-153359580D01*
X166185714Y-147704819D02*
X165614286Y-147704819D01*
X165900000Y-147704819D02*
X165900000Y-146704819D01*
X165900000Y-146704819D02*
X165804762Y-146847676D01*
X165804762Y-146847676D02*
X165709524Y-146942914D01*
X165709524Y-146942914D02*
X165614286Y-146990533D01*
X135857142Y-147359580D02*
X135809523Y-147407200D01*
X135809523Y-147407200D02*
X135666666Y-147454819D01*
X135666666Y-147454819D02*
X135571428Y-147454819D01*
X135571428Y-147454819D02*
X135428571Y-147407200D01*
X135428571Y-147407200D02*
X135333333Y-147311961D01*
X135333333Y-147311961D02*
X135285714Y-147216723D01*
X135285714Y-147216723D02*
X135238095Y-147026247D01*
X135238095Y-147026247D02*
X135238095Y-146883390D01*
X135238095Y-146883390D02*
X135285714Y-146692914D01*
X135285714Y-146692914D02*
X135333333Y-146597676D01*
X135333333Y-146597676D02*
X135428571Y-146502438D01*
X135428571Y-146502438D02*
X135571428Y-146454819D01*
X135571428Y-146454819D02*
X135666666Y-146454819D01*
X135666666Y-146454819D02*
X135809523Y-146502438D01*
X135809523Y-146502438D02*
X135857142Y-146550057D01*
X136809523Y-147454819D02*
X136238095Y-147454819D01*
X136523809Y-147454819D02*
X136523809Y-146454819D01*
X136523809Y-146454819D02*
X136428571Y-146597676D01*
X136428571Y-146597676D02*
X136333333Y-146692914D01*
X136333333Y-146692914D02*
X136238095Y-146740533D01*
X137666666Y-146788152D02*
X137666666Y-147454819D01*
X137428571Y-146407200D02*
X137190476Y-147121485D01*
X137190476Y-147121485D02*
X137809523Y-147121485D01*
X143857142Y-145359580D02*
X143809523Y-145407200D01*
X143809523Y-145407200D02*
X143666666Y-145454819D01*
X143666666Y-145454819D02*
X143571428Y-145454819D01*
X143571428Y-145454819D02*
X143428571Y-145407200D01*
X143428571Y-145407200D02*
X143333333Y-145311961D01*
X143333333Y-145311961D02*
X143285714Y-145216723D01*
X143285714Y-145216723D02*
X143238095Y-145026247D01*
X143238095Y-145026247D02*
X143238095Y-144883390D01*
X143238095Y-144883390D02*
X143285714Y-144692914D01*
X143285714Y-144692914D02*
X143333333Y-144597676D01*
X143333333Y-144597676D02*
X143428571Y-144502438D01*
X143428571Y-144502438D02*
X143571428Y-144454819D01*
X143571428Y-144454819D02*
X143666666Y-144454819D01*
X143666666Y-144454819D02*
X143809523Y-144502438D01*
X143809523Y-144502438D02*
X143857142Y-144550057D01*
X144809523Y-145454819D02*
X144238095Y-145454819D01*
X144523809Y-145454819D02*
X144523809Y-144454819D01*
X144523809Y-144454819D02*
X144428571Y-144597676D01*
X144428571Y-144597676D02*
X144333333Y-144692914D01*
X144333333Y-144692914D02*
X144238095Y-144740533D01*
X145380952Y-144883390D02*
X145285714Y-144835771D01*
X145285714Y-144835771D02*
X145238095Y-144788152D01*
X145238095Y-144788152D02*
X145190476Y-144692914D01*
X145190476Y-144692914D02*
X145190476Y-144645295D01*
X145190476Y-144645295D02*
X145238095Y-144550057D01*
X145238095Y-144550057D02*
X145285714Y-144502438D01*
X145285714Y-144502438D02*
X145380952Y-144454819D01*
X145380952Y-144454819D02*
X145571428Y-144454819D01*
X145571428Y-144454819D02*
X145666666Y-144502438D01*
X145666666Y-144502438D02*
X145714285Y-144550057D01*
X145714285Y-144550057D02*
X145761904Y-144645295D01*
X145761904Y-144645295D02*
X145761904Y-144692914D01*
X145761904Y-144692914D02*
X145714285Y-144788152D01*
X145714285Y-144788152D02*
X145666666Y-144835771D01*
X145666666Y-144835771D02*
X145571428Y-144883390D01*
X145571428Y-144883390D02*
X145380952Y-144883390D01*
X145380952Y-144883390D02*
X145285714Y-144931009D01*
X145285714Y-144931009D02*
X145238095Y-144978628D01*
X145238095Y-144978628D02*
X145190476Y-145073866D01*
X145190476Y-145073866D02*
X145190476Y-145264342D01*
X145190476Y-145264342D02*
X145238095Y-145359580D01*
X145238095Y-145359580D02*
X145285714Y-145407200D01*
X145285714Y-145407200D02*
X145380952Y-145454819D01*
X145380952Y-145454819D02*
X145571428Y-145454819D01*
X145571428Y-145454819D02*
X145666666Y-145407200D01*
X145666666Y-145407200D02*
X145714285Y-145359580D01*
X145714285Y-145359580D02*
X145761904Y-145264342D01*
X145761904Y-145264342D02*
X145761904Y-145073866D01*
X145761904Y-145073866D02*
X145714285Y-144978628D01*
X145714285Y-144978628D02*
X145666666Y-144931009D01*
X145666666Y-144931009D02*
X145571428Y-144883390D01*
X157333333Y-158679580D02*
X157285714Y-158727200D01*
X157285714Y-158727200D02*
X157142857Y-158774819D01*
X157142857Y-158774819D02*
X157047619Y-158774819D01*
X157047619Y-158774819D02*
X156904762Y-158727200D01*
X156904762Y-158727200D02*
X156809524Y-158631961D01*
X156809524Y-158631961D02*
X156761905Y-158536723D01*
X156761905Y-158536723D02*
X156714286Y-158346247D01*
X156714286Y-158346247D02*
X156714286Y-158203390D01*
X156714286Y-158203390D02*
X156761905Y-158012914D01*
X156761905Y-158012914D02*
X156809524Y-157917676D01*
X156809524Y-157917676D02*
X156904762Y-157822438D01*
X156904762Y-157822438D02*
X157047619Y-157774819D01*
X157047619Y-157774819D02*
X157142857Y-157774819D01*
X157142857Y-157774819D02*
X157285714Y-157822438D01*
X157285714Y-157822438D02*
X157333333Y-157870057D01*
X158190476Y-157774819D02*
X158000000Y-157774819D01*
X158000000Y-157774819D02*
X157904762Y-157822438D01*
X157904762Y-157822438D02*
X157857143Y-157870057D01*
X157857143Y-157870057D02*
X157761905Y-158012914D01*
X157761905Y-158012914D02*
X157714286Y-158203390D01*
X157714286Y-158203390D02*
X157714286Y-158584342D01*
X157714286Y-158584342D02*
X157761905Y-158679580D01*
X157761905Y-158679580D02*
X157809524Y-158727200D01*
X157809524Y-158727200D02*
X157904762Y-158774819D01*
X157904762Y-158774819D02*
X158095238Y-158774819D01*
X158095238Y-158774819D02*
X158190476Y-158727200D01*
X158190476Y-158727200D02*
X158238095Y-158679580D01*
X158238095Y-158679580D02*
X158285714Y-158584342D01*
X158285714Y-158584342D02*
X158285714Y-158346247D01*
X158285714Y-158346247D02*
X158238095Y-158251009D01*
X158238095Y-158251009D02*
X158190476Y-158203390D01*
X158190476Y-158203390D02*
X158095238Y-158155771D01*
X158095238Y-158155771D02*
X157904762Y-158155771D01*
X157904762Y-158155771D02*
X157809524Y-158203390D01*
X157809524Y-158203390D02*
X157761905Y-158251009D01*
X157761905Y-158251009D02*
X157714286Y-158346247D01*
X120761905Y-118954819D02*
X120761905Y-117954819D01*
X120761905Y-117954819D02*
X121000000Y-117954819D01*
X121000000Y-117954819D02*
X121142857Y-118002438D01*
X121142857Y-118002438D02*
X121238095Y-118097676D01*
X121238095Y-118097676D02*
X121285714Y-118192914D01*
X121285714Y-118192914D02*
X121333333Y-118383390D01*
X121333333Y-118383390D02*
X121333333Y-118526247D01*
X121333333Y-118526247D02*
X121285714Y-118716723D01*
X121285714Y-118716723D02*
X121238095Y-118811961D01*
X121238095Y-118811961D02*
X121142857Y-118907200D01*
X121142857Y-118907200D02*
X121000000Y-118954819D01*
X121000000Y-118954819D02*
X120761905Y-118954819D01*
X122285714Y-118954819D02*
X121714286Y-118954819D01*
X122000000Y-118954819D02*
X122000000Y-117954819D01*
X122000000Y-117954819D02*
X121904762Y-118097676D01*
X121904762Y-118097676D02*
X121809524Y-118192914D01*
X121809524Y-118192914D02*
X121714286Y-118240533D01*
X126435714Y-116554819D02*
X125864286Y-116554819D01*
X126150000Y-116554819D02*
X126150000Y-115554819D01*
X126150000Y-115554819D02*
X126054762Y-115697676D01*
X126054762Y-115697676D02*
X125959524Y-115792914D01*
X125959524Y-115792914D02*
X125864286Y-115840533D01*
D12*
G04 #@! TO.C,C1*
X128238748Y-115765000D02*
X128761252Y-115765000D01*
X128238748Y-117235000D02*
X128761252Y-117235000D01*
G04 #@! TO.C,R1*
X124139564Y-109265000D02*
X123685436Y-109265000D01*
X124139564Y-110735000D02*
X123685436Y-110735000D01*
G04 #@! TO.C,D4*
X166850000Y-126750000D02*
X174150000Y-126750000D01*
X166850000Y-132250000D02*
X174150000Y-132250000D01*
X174150000Y-132250000D02*
X174150000Y-131100000D01*
G04 #@! TO.C,C9*
X117238748Y-150765000D02*
X117761252Y-150765000D01*
X117238748Y-152235000D02*
X117761252Y-152235000D01*
G04 #@! TO.C,D13*
X149300000Y-141600000D02*
X156600000Y-141600000D01*
X149300000Y-147100000D02*
X156600000Y-147100000D01*
X156600000Y-147100000D02*
X156600000Y-145950000D01*
G04 #@! TO.C,D8*
X118800000Y-162100000D02*
X126100000Y-162100000D01*
X118800000Y-167600000D02*
X126100000Y-167600000D01*
X126100000Y-167600000D02*
X126100000Y-166450000D01*
G04 #@! TO.C,C2*
X146238748Y-109265000D02*
X146761252Y-109265000D01*
X146238748Y-110735000D02*
X146761252Y-110735000D01*
G04 #@! TO.C,D2*
X136350000Y-105750000D02*
X136350000Y-106900000D01*
X143650000Y-105750000D02*
X136350000Y-105750000D01*
X143650000Y-111250000D02*
X136350000Y-111250000D01*
G04 #@! TO.C,D11*
X128400000Y-126100000D02*
X128400000Y-127250000D01*
X135700000Y-126100000D02*
X128400000Y-126100000D01*
X135700000Y-131600000D02*
X128400000Y-131600000D01*
G04 #@! TO.C,D12*
X144350000Y-126250000D02*
X144350000Y-127400000D01*
X151650000Y-126250000D02*
X144350000Y-126250000D01*
X151650000Y-131750000D02*
X144350000Y-131750000D01*
G04 #@! TO.C,D15*
X123300000Y-141100000D02*
X123300000Y-142250000D01*
X130600000Y-141100000D02*
X123300000Y-141100000D01*
X130600000Y-146600000D02*
X123300000Y-146600000D01*
G04 #@! TO.C,C7*
X138738748Y-165265000D02*
X139261252Y-165265000D01*
X138738748Y-166735000D02*
X139261252Y-166735000D01*
G04 #@! TO.C,C10*
X116788748Y-131265000D02*
X117311252Y-131265000D01*
X116788748Y-132735000D02*
X117311252Y-132735000D01*
G04 #@! TO.C,C11*
X138288748Y-129765000D02*
X138811252Y-129765000D01*
X138288748Y-131235000D02*
X138811252Y-131235000D01*
G04 #@! TO.C,D6*
X155350000Y-161750000D02*
X162650000Y-161750000D01*
X155350000Y-167250000D02*
X162650000Y-167250000D01*
X162650000Y-167250000D02*
X162650000Y-166100000D01*
G04 #@! TO.C,C13*
X150738748Y-138765000D02*
X151261252Y-138765000D01*
X150738748Y-140235000D02*
X151261252Y-140235000D01*
G04 #@! TO.C,C17*
X139165000Y-143588748D02*
X139165000Y-144111252D01*
X140635000Y-143588748D02*
X140635000Y-144111252D01*
G04 #@! TO.C,R3*
X136765000Y-141772936D02*
X136765000Y-142227064D01*
X138235000Y-141772936D02*
X138235000Y-142227064D01*
G04 #@! TO.C,C15*
X132738748Y-144765000D02*
X133261252Y-144765000D01*
X132738748Y-146235000D02*
X133261252Y-146235000D01*
G04 #@! TO.C,D14*
X135900000Y-151100000D02*
X143200000Y-151100000D01*
X135900000Y-156600000D02*
X143200000Y-156600000D01*
X143200000Y-156600000D02*
X143200000Y-155450000D01*
G04 #@! TO.C,C3*
X160761252Y-118265000D02*
X160238748Y-118265000D01*
X160761252Y-119735000D02*
X160238748Y-119735000D01*
G04 #@! TO.C,C12*
X149761252Y-133265000D02*
X149238748Y-133265000D01*
X149761252Y-134735000D02*
X149238748Y-134735000D01*
G04 #@! TO.C,C5*
X168238748Y-143765000D02*
X168761252Y-143765000D01*
X168238748Y-145235000D02*
X168761252Y-145235000D01*
G04 #@! TO.C,D7*
X136900000Y-168100000D02*
X144200000Y-168100000D01*
X136900000Y-173600000D02*
X144200000Y-173600000D01*
X144200000Y-173600000D02*
X144200000Y-172450000D01*
G04 #@! TO.C,C8*
X120738748Y-159265000D02*
X121261252Y-159265000D01*
X120738748Y-160735000D02*
X121261252Y-160735000D01*
G04 #@! TO.C,C4*
X168738748Y-124265000D02*
X169261252Y-124265000D01*
X168738748Y-125735000D02*
X169261252Y-125735000D01*
G04 #@! TO.C,D9*
X107350000Y-146750000D02*
X107350000Y-147900000D01*
X114650000Y-146750000D02*
X107350000Y-146750000D01*
X114650000Y-152250000D02*
X107350000Y-152250000D01*
G04 #@! TO.C,U6*
X139190000Y-138752500D02*
X139190000Y-141612500D01*
X142610000Y-138752500D02*
X142610000Y-141612500D01*
X139300000Y-138512500D02*
X139020000Y-138512500D01*
X139300000Y-138232500D01*
X139300000Y-138512500D01*
G36*
X139300000Y-138512500D02*
G01*
X139020000Y-138512500D01*
X139300000Y-138232500D01*
X139300000Y-138512500D01*
G37*
G04 #@! TO.C,D3*
X155350000Y-111250000D02*
X155350000Y-112400000D01*
X162650000Y-111250000D02*
X155350000Y-111250000D01*
X162650000Y-116750000D02*
X155350000Y-116750000D01*
G04 #@! TO.C,D10*
X107300000Y-127100000D02*
X107300000Y-128250000D01*
X114600000Y-127100000D02*
X107300000Y-127100000D01*
X114600000Y-132600000D02*
X107300000Y-132600000D01*
G04 #@! TO.C,D5*
X166400000Y-146100000D02*
X173700000Y-146100000D01*
X166400000Y-151600000D02*
X173700000Y-151600000D01*
X173700000Y-151600000D02*
X173700000Y-150450000D01*
G04 #@! TO.C,C14*
X137738748Y-148265000D02*
X138261252Y-148265000D01*
X137738748Y-149735000D02*
X138261252Y-149735000D01*
G04 #@! TO.C,C18*
X141265000Y-143588748D02*
X141265000Y-144111252D01*
X142735000Y-143588748D02*
X142735000Y-144111252D01*
G04 #@! TO.C,C6*
X157238748Y-159265000D02*
X157761252Y-159265000D01*
X157238748Y-160735000D02*
X157761252Y-160735000D01*
G04 #@! TO.C,D1*
X118350000Y-111750000D02*
X118350000Y-112900000D01*
X125650000Y-111750000D02*
X118350000Y-111750000D01*
X125650000Y-117250000D02*
X118350000Y-117250000D01*
G04 #@! TD*
%LPC*%
D13*
G04 #@! TO.C,SW2*
X114388252Y-167462782D03*
X116686385Y-169391144D03*
G04 #@! TD*
D14*
G04 #@! TO.C,C1*
X127550000Y-116500000D03*
X129450000Y-116500000D03*
G04 #@! TD*
D15*
G04 #@! TO.C,R1*
X124825000Y-110000000D03*
X123000000Y-110000000D03*
G04 #@! TD*
D16*
G04 #@! TO.C,D4*
X168050000Y-127850000D03*
X168050000Y-131150000D03*
X172950000Y-131150000D03*
X172950000Y-127850000D03*
G04 #@! TD*
D14*
G04 #@! TO.C,C9*
X116550000Y-151500000D03*
X118450000Y-151500000D03*
G04 #@! TD*
D17*
G04 #@! TO.C,H3*
X150300000Y-153800000D03*
G04 #@! TD*
G04 #@! TO.C,H2*
X130000000Y-153800000D03*
G04 #@! TD*
D16*
G04 #@! TO.C,D13*
X150500000Y-142700000D03*
X150500000Y-146000000D03*
X155400000Y-146000000D03*
X155400000Y-142700000D03*
G04 #@! TD*
D17*
G04 #@! TO.C,H1*
X140000000Y-122600000D03*
G04 #@! TD*
D16*
G04 #@! TO.C,D8*
X120000000Y-163200000D03*
X120000000Y-166500000D03*
X124900000Y-166500000D03*
X124900000Y-163200000D03*
G04 #@! TD*
D14*
G04 #@! TO.C,C2*
X145550000Y-110000000D03*
X147450000Y-110000000D03*
G04 #@! TD*
D16*
G04 #@! TO.C,D2*
X142450000Y-110150000D03*
X142450000Y-106850000D03*
X137550000Y-106850000D03*
X137550000Y-110150000D03*
G04 #@! TD*
G04 #@! TO.C,D11*
X134500000Y-130500000D03*
X134500000Y-127200000D03*
X129600000Y-127200000D03*
X129600000Y-130500000D03*
G04 #@! TD*
G04 #@! TO.C,D12*
X150450000Y-130650000D03*
X150450000Y-127350000D03*
X145550000Y-127350000D03*
X145550000Y-130650000D03*
G04 #@! TD*
G04 #@! TO.C,D15*
X129400000Y-145500000D03*
X129400000Y-142200000D03*
X124500000Y-142200000D03*
X124500000Y-145500000D03*
G04 #@! TD*
D14*
G04 #@! TO.C,C7*
X138050000Y-166000000D03*
X139950000Y-166000000D03*
G04 #@! TD*
G04 #@! TO.C,C10*
X116100000Y-132000000D03*
X118000000Y-132000000D03*
G04 #@! TD*
G04 #@! TO.C,C11*
X137600000Y-130500000D03*
X139500000Y-130500000D03*
G04 #@! TD*
D16*
G04 #@! TO.C,D6*
X156550000Y-162850000D03*
X156550000Y-166150000D03*
X161450000Y-166150000D03*
X161450000Y-162850000D03*
G04 #@! TD*
D14*
G04 #@! TO.C,C13*
X150050000Y-139500000D03*
X151950000Y-139500000D03*
G04 #@! TD*
D18*
G04 #@! TO.C,C17*
X139900000Y-142900000D03*
X139900000Y-144800000D03*
G04 #@! TD*
D19*
G04 #@! TO.C,R3*
X137500000Y-141087500D03*
X137500000Y-142912500D03*
G04 #@! TD*
D14*
G04 #@! TO.C,C15*
X132050000Y-145500000D03*
X133950000Y-145500000D03*
G04 #@! TD*
D16*
G04 #@! TO.C,D14*
X137100000Y-152200000D03*
X137100000Y-155500000D03*
X142000000Y-155500000D03*
X142000000Y-152200000D03*
G04 #@! TD*
D20*
G04 #@! TO.C,C3*
X161450000Y-119000000D03*
X159550000Y-119000000D03*
G04 #@! TD*
G04 #@! TO.C,C12*
X150450000Y-134000000D03*
X148550000Y-134000000D03*
G04 #@! TD*
D14*
G04 #@! TO.C,C5*
X167550000Y-144500000D03*
X169450000Y-144500000D03*
G04 #@! TD*
D16*
G04 #@! TO.C,D7*
X138100000Y-169200000D03*
X138100000Y-172500000D03*
X143000000Y-172500000D03*
X143000000Y-169200000D03*
G04 #@! TD*
D14*
G04 #@! TO.C,C8*
X120050000Y-160000000D03*
X121950000Y-160000000D03*
G04 #@! TD*
G04 #@! TO.C,C4*
X168050000Y-125000000D03*
X169950000Y-125000000D03*
G04 #@! TD*
D16*
G04 #@! TO.C,D9*
X113450000Y-151150000D03*
X113450000Y-147850000D03*
X108550000Y-147850000D03*
X108550000Y-151150000D03*
G04 #@! TD*
D21*
G04 #@! TO.C,U6*
X139700000Y-138925000D03*
X140500000Y-138925000D03*
X141300000Y-138925000D03*
X142100000Y-138925000D03*
X142100000Y-141300000D03*
X141300000Y-141300000D03*
X140500000Y-141300000D03*
X139700000Y-141300000D03*
G04 #@! TD*
D16*
G04 #@! TO.C,D3*
X161450000Y-115650000D03*
X161450000Y-112350000D03*
X156550000Y-112350000D03*
X156550000Y-115650000D03*
G04 #@! TD*
G04 #@! TO.C,D10*
X113400000Y-131500000D03*
X113400000Y-128200000D03*
X108500000Y-128200000D03*
X108500000Y-131500000D03*
G04 #@! TD*
G04 #@! TO.C,D5*
X167600000Y-147200000D03*
X167600000Y-150500000D03*
X172500000Y-150500000D03*
X172500000Y-147200000D03*
G04 #@! TD*
D14*
G04 #@! TO.C,C14*
X137050000Y-149000000D03*
X138950000Y-149000000D03*
G04 #@! TD*
D18*
G04 #@! TO.C,C18*
X142000000Y-142900000D03*
X142000000Y-144800000D03*
G04 #@! TD*
D14*
G04 #@! TO.C,C6*
X156550000Y-160000000D03*
X158450000Y-160000000D03*
G04 #@! TD*
D16*
G04 #@! TO.C,D1*
X124450000Y-116150000D03*
X124450000Y-112850000D03*
X119550000Y-112850000D03*
X119550000Y-116150000D03*
G04 #@! TD*
D22*
G04 #@! TO.C,J3*
X118500000Y-136000000D03*
D23*
X116500000Y-136000000D03*
G04 #@! TD*
D24*
G04 #@! TO.C,J1*
X168900000Y-136520000D03*
D25*
X168900000Y-139060000D03*
X168900000Y-141600000D03*
G04 #@! TD*
D26*
G04 #@! TO.C,J2*
X143070000Y-174350000D03*
X137290000Y-174350000D03*
D27*
X144500000Y-178000000D03*
D28*
X144500000Y-173820000D03*
D27*
X135860000Y-178000000D03*
D28*
X135860000Y-173820000D03*
G04 #@! TD*
%LPD*%
M02*
