G04 #@! TF.GenerationSoftware,KiCad,Pcbnew,8.0.4*
G04 #@! TF.CreationDate,2024-08-11T22:53:45+02:00*
G04 #@! TF.ProjectId,Haibadge_B,48616962-6164-4676-955f-422e6b696361,rev?*
G04 #@! TF.SameCoordinates,Original*
G04 #@! TF.FileFunction,AssemblyDrawing,Bot*
%FSLAX46Y46*%
G04 Gerber Fmt 4.6, Leading zero omitted, Abs format (unit mm)*
G04 Created by KiCad (PCBNEW 8.0.4) date 2024-08-11 22:53:45*
%MOMM*%
%LPD*%
G01*
G04 APERTURE LIST*
%ADD10C,0.150000*%
%ADD11C,0.050000*%
%ADD12C,0.120000*%
%ADD13C,0.080000*%
%ADD14C,0.075000*%
%ADD15C,0.060000*%
%ADD16C,0.100000*%
G04 APERTURE END LIST*
D10*
X114130294Y-174474631D02*
X113990251Y-174419282D01*
X113990251Y-174419282D02*
X113807859Y-174266238D01*
X113807859Y-174266238D02*
X113765511Y-174168542D01*
X113765511Y-174168542D02*
X113759642Y-174101454D01*
X113759642Y-174101454D02*
X113784382Y-173997889D01*
X113784382Y-173997889D02*
X113845599Y-173924932D01*
X113845599Y-173924932D02*
X113943296Y-173882584D01*
X113943296Y-173882584D02*
X114010383Y-173876715D01*
X114010383Y-173876715D02*
X114113948Y-173901455D01*
X114113948Y-173901455D02*
X114290471Y-173987412D01*
X114290471Y-173987412D02*
X114394036Y-174012152D01*
X114394036Y-174012152D02*
X114461123Y-174006282D01*
X114461123Y-174006282D02*
X114558820Y-173963935D01*
X114558820Y-173963935D02*
X114620037Y-173890978D01*
X114620037Y-173890978D02*
X114644777Y-173787412D01*
X114644777Y-173787412D02*
X114638908Y-173720325D01*
X114638908Y-173720325D02*
X114596560Y-173622629D01*
X114596560Y-173622629D02*
X114414168Y-173469584D01*
X114414168Y-173469584D02*
X114274125Y-173414236D01*
X114049385Y-173163495D02*
X113224206Y-173776495D01*
X113224206Y-173776495D02*
X113537427Y-173106884D01*
X113537427Y-173106884D02*
X112932380Y-173531623D01*
X112932380Y-173531623D02*
X113392776Y-172612534D01*
X112579335Y-173359709D02*
X111995683Y-172869966D01*
X111874509Y-172643964D02*
X112517296Y-171877920D01*
X112517296Y-171877920D02*
X112225470Y-171633048D01*
X112225470Y-171633048D02*
X112121904Y-171608309D01*
X112121904Y-171608309D02*
X112054817Y-171614178D01*
X112054817Y-171614178D02*
X111957121Y-171656526D01*
X111957121Y-171656526D02*
X111865294Y-171765961D01*
X111865294Y-171765961D02*
X111840555Y-171869526D01*
X111840555Y-171869526D02*
X111846424Y-171936613D01*
X111846424Y-171936613D02*
X111888772Y-172034310D01*
X111888772Y-172034310D02*
X112180598Y-172279181D01*
X111824209Y-171296350D02*
X110999029Y-171909350D01*
X110999029Y-171909350D02*
X111312250Y-171239739D01*
X111312250Y-171239739D02*
X110707203Y-171664478D01*
X110707203Y-171664478D02*
X111167599Y-170745389D01*
X109795245Y-170899255D02*
X110356683Y-170748734D01*
X110232985Y-171266562D02*
X110875773Y-170500518D01*
X110875773Y-170500518D02*
X110583946Y-170255646D01*
X110583946Y-170255646D02*
X110480381Y-170230907D01*
X110480381Y-170230907D02*
X110413293Y-170236776D01*
X110413293Y-170236776D02*
X110315597Y-170279124D01*
X110315597Y-170279124D02*
X110223770Y-170388559D01*
X110223770Y-170388559D02*
X110199031Y-170492124D01*
X110199031Y-170492124D02*
X110204900Y-170559212D01*
X110204900Y-170559212D02*
X110247248Y-170656908D01*
X110247248Y-170656908D02*
X110539074Y-170901779D01*
X116586222Y-169251226D02*
X116446178Y-169195877D01*
X116446178Y-169195877D02*
X116263786Y-169042832D01*
X116263786Y-169042832D02*
X116221439Y-168945136D01*
X116221439Y-168945136D02*
X116215569Y-168878049D01*
X116215569Y-168878049D02*
X116240309Y-168774483D01*
X116240309Y-168774483D02*
X116301527Y-168701527D01*
X116301527Y-168701527D02*
X116399223Y-168659179D01*
X116399223Y-168659179D02*
X116466310Y-168653310D01*
X116466310Y-168653310D02*
X116569876Y-168678049D01*
X116569876Y-168678049D02*
X116746398Y-168764007D01*
X116746398Y-168764007D02*
X116849963Y-168788746D01*
X116849963Y-168788746D02*
X116917050Y-168782877D01*
X116917050Y-168782877D02*
X117014747Y-168740529D01*
X117014747Y-168740529D02*
X117075965Y-168667573D01*
X117075965Y-168667573D02*
X117100704Y-168564007D01*
X117100704Y-168564007D02*
X117094835Y-168496920D01*
X117094835Y-168496920D02*
X117052487Y-168399224D01*
X117052487Y-168399224D02*
X116870095Y-168246179D01*
X116870095Y-168246179D02*
X116730052Y-168190831D01*
X116505312Y-167940090D02*
X115680133Y-168553089D01*
X115680133Y-168553089D02*
X115993354Y-167883479D01*
X115993354Y-167883479D02*
X115388307Y-168308218D01*
X115388307Y-168308218D02*
X115848703Y-167389129D01*
X115532137Y-167247823D02*
X115526268Y-167180736D01*
X115526268Y-167180736D02*
X115483920Y-167083040D01*
X115483920Y-167083040D02*
X115301528Y-166929995D01*
X115301528Y-166929995D02*
X115197963Y-166905255D01*
X115197963Y-166905255D02*
X115130876Y-166911125D01*
X115130876Y-166911125D02*
X115033179Y-166953472D01*
X115033179Y-166953472D02*
X114971962Y-167026429D01*
X114971962Y-167026429D02*
X114916613Y-167166473D01*
X114916613Y-167166473D02*
X114987046Y-167971520D01*
X114987046Y-167971520D02*
X114512828Y-167573604D01*
X108591071Y-144900057D02*
X108686309Y-144852438D01*
X108686309Y-144852438D02*
X108781547Y-144757200D01*
X108781547Y-144757200D02*
X108924404Y-144614342D01*
X108924404Y-144614342D02*
X109019642Y-144566723D01*
X109019642Y-144566723D02*
X109114880Y-144566723D01*
X109067261Y-144804819D02*
X109162499Y-144757200D01*
X109162499Y-144757200D02*
X109257737Y-144661961D01*
X109257737Y-144661961D02*
X109305356Y-144471485D01*
X109305356Y-144471485D02*
X109305356Y-144138152D01*
X109305356Y-144138152D02*
X109257737Y-143947676D01*
X109257737Y-143947676D02*
X109162499Y-143852438D01*
X109162499Y-143852438D02*
X109067261Y-143804819D01*
X109067261Y-143804819D02*
X108876785Y-143804819D01*
X108876785Y-143804819D02*
X108781547Y-143852438D01*
X108781547Y-143852438D02*
X108686309Y-143947676D01*
X108686309Y-143947676D02*
X108638690Y-144138152D01*
X108638690Y-144138152D02*
X108638690Y-144471485D01*
X108638690Y-144471485D02*
X108686309Y-144661961D01*
X108686309Y-144661961D02*
X108781547Y-144757200D01*
X108781547Y-144757200D02*
X108876785Y-144804819D01*
X108876785Y-144804819D02*
X109067261Y-144804819D01*
X108448214Y-144900057D02*
X107686309Y-144900057D01*
X107448213Y-144804819D02*
X107448213Y-143804819D01*
X107448213Y-143804819D02*
X107067261Y-143804819D01*
X107067261Y-143804819D02*
X106972023Y-143852438D01*
X106972023Y-143852438D02*
X106924404Y-143900057D01*
X106924404Y-143900057D02*
X106876785Y-143995295D01*
X106876785Y-143995295D02*
X106876785Y-144138152D01*
X106876785Y-144138152D02*
X106924404Y-144233390D01*
X106924404Y-144233390D02*
X106972023Y-144281009D01*
X106972023Y-144281009D02*
X107067261Y-144328628D01*
X107067261Y-144328628D02*
X107448213Y-144328628D01*
X106448213Y-144804819D02*
X106448213Y-143804819D01*
X106448213Y-143804819D02*
X106114880Y-144519104D01*
X106114880Y-144519104D02*
X105781547Y-143804819D01*
X105781547Y-143804819D02*
X105781547Y-144804819D01*
X105114880Y-143804819D02*
X104924404Y-143804819D01*
X104924404Y-143804819D02*
X104829166Y-143852438D01*
X104829166Y-143852438D02*
X104733928Y-143947676D01*
X104733928Y-143947676D02*
X104686309Y-144138152D01*
X104686309Y-144138152D02*
X104686309Y-144471485D01*
X104686309Y-144471485D02*
X104733928Y-144661961D01*
X104733928Y-144661961D02*
X104829166Y-144757200D01*
X104829166Y-144757200D02*
X104924404Y-144804819D01*
X104924404Y-144804819D02*
X105114880Y-144804819D01*
X105114880Y-144804819D02*
X105210118Y-144757200D01*
X105210118Y-144757200D02*
X105305356Y-144661961D01*
X105305356Y-144661961D02*
X105352975Y-144471485D01*
X105352975Y-144471485D02*
X105352975Y-144138152D01*
X105352975Y-144138152D02*
X105305356Y-143947676D01*
X105305356Y-143947676D02*
X105210118Y-143852438D01*
X105210118Y-143852438D02*
X105114880Y-143804819D01*
X104305356Y-144757200D02*
X104162499Y-144804819D01*
X104162499Y-144804819D02*
X103924404Y-144804819D01*
X103924404Y-144804819D02*
X103829166Y-144757200D01*
X103829166Y-144757200D02*
X103781547Y-144709580D01*
X103781547Y-144709580D02*
X103733928Y-144614342D01*
X103733928Y-144614342D02*
X103733928Y-144519104D01*
X103733928Y-144519104D02*
X103781547Y-144423866D01*
X103781547Y-144423866D02*
X103829166Y-144376247D01*
X103829166Y-144376247D02*
X103924404Y-144328628D01*
X103924404Y-144328628D02*
X104114880Y-144281009D01*
X104114880Y-144281009D02*
X104210118Y-144233390D01*
X104210118Y-144233390D02*
X104257737Y-144185771D01*
X104257737Y-144185771D02*
X104305356Y-144090533D01*
X104305356Y-144090533D02*
X104305356Y-143995295D01*
X104305356Y-143995295D02*
X104257737Y-143900057D01*
X104257737Y-143900057D02*
X104210118Y-143852438D01*
X104210118Y-143852438D02*
X104114880Y-143804819D01*
X104114880Y-143804819D02*
X103876785Y-143804819D01*
X103876785Y-143804819D02*
X103733928Y-143852438D01*
X103543452Y-144900057D02*
X102781547Y-144900057D01*
X102019642Y-143852438D02*
X102114880Y-143804819D01*
X102114880Y-143804819D02*
X102257737Y-143804819D01*
X102257737Y-143804819D02*
X102400594Y-143852438D01*
X102400594Y-143852438D02*
X102495832Y-143947676D01*
X102495832Y-143947676D02*
X102543451Y-144042914D01*
X102543451Y-144042914D02*
X102591070Y-144233390D01*
X102591070Y-144233390D02*
X102591070Y-144376247D01*
X102591070Y-144376247D02*
X102543451Y-144566723D01*
X102543451Y-144566723D02*
X102495832Y-144661961D01*
X102495832Y-144661961D02*
X102400594Y-144757200D01*
X102400594Y-144757200D02*
X102257737Y-144804819D01*
X102257737Y-144804819D02*
X102162499Y-144804819D01*
X102162499Y-144804819D02*
X102019642Y-144757200D01*
X102019642Y-144757200D02*
X101972023Y-144709580D01*
X101972023Y-144709580D02*
X101972023Y-144376247D01*
X101972023Y-144376247D02*
X102162499Y-144376247D01*
X101591070Y-144757200D02*
X101448213Y-144804819D01*
X101448213Y-144804819D02*
X101210118Y-144804819D01*
X101210118Y-144804819D02*
X101114880Y-144757200D01*
X101114880Y-144757200D02*
X101067261Y-144709580D01*
X101067261Y-144709580D02*
X101019642Y-144614342D01*
X101019642Y-144614342D02*
X101019642Y-144519104D01*
X101019642Y-144519104D02*
X101067261Y-144423866D01*
X101067261Y-144423866D02*
X101114880Y-144376247D01*
X101114880Y-144376247D02*
X101210118Y-144328628D01*
X101210118Y-144328628D02*
X101400594Y-144281009D01*
X101400594Y-144281009D02*
X101495832Y-144233390D01*
X101495832Y-144233390D02*
X101543451Y-144185771D01*
X101543451Y-144185771D02*
X101591070Y-144090533D01*
X101591070Y-144090533D02*
X101591070Y-143995295D01*
X101591070Y-143995295D02*
X101543451Y-143900057D01*
X101543451Y-143900057D02*
X101495832Y-143852438D01*
X101495832Y-143852438D02*
X101400594Y-143804819D01*
X101400594Y-143804819D02*
X101162499Y-143804819D01*
X101162499Y-143804819D02*
X101019642Y-143852438D01*
X100591070Y-144804819D02*
X100591070Y-143804819D01*
X100591070Y-143804819D02*
X100352975Y-143804819D01*
X100352975Y-143804819D02*
X100210118Y-143852438D01*
X100210118Y-143852438D02*
X100114880Y-143947676D01*
X100114880Y-143947676D02*
X100067261Y-144042914D01*
X100067261Y-144042914D02*
X100019642Y-144233390D01*
X100019642Y-144233390D02*
X100019642Y-144376247D01*
X100019642Y-144376247D02*
X100067261Y-144566723D01*
X100067261Y-144566723D02*
X100114880Y-144661961D01*
X100114880Y-144661961D02*
X100210118Y-144757200D01*
X100210118Y-144757200D02*
X100352975Y-144804819D01*
X100352975Y-144804819D02*
X100591070Y-144804819D01*
D11*
X104692976Y-142125914D02*
X104723452Y-142110676D01*
X104723452Y-142110676D02*
X104753928Y-142080200D01*
X104753928Y-142080200D02*
X104799642Y-142034485D01*
X104799642Y-142034485D02*
X104830119Y-142019247D01*
X104830119Y-142019247D02*
X104860595Y-142019247D01*
X104845357Y-142095438D02*
X104875833Y-142080200D01*
X104875833Y-142080200D02*
X104906309Y-142049723D01*
X104906309Y-142049723D02*
X104921547Y-141988771D01*
X104921547Y-141988771D02*
X104921547Y-141882104D01*
X104921547Y-141882104D02*
X104906309Y-141821152D01*
X104906309Y-141821152D02*
X104875833Y-141790676D01*
X104875833Y-141790676D02*
X104845357Y-141775438D01*
X104845357Y-141775438D02*
X104784404Y-141775438D01*
X104784404Y-141775438D02*
X104753928Y-141790676D01*
X104753928Y-141790676D02*
X104723452Y-141821152D01*
X104723452Y-141821152D02*
X104708214Y-141882104D01*
X104708214Y-141882104D02*
X104708214Y-141988771D01*
X104708214Y-141988771D02*
X104723452Y-142049723D01*
X104723452Y-142049723D02*
X104753928Y-142080200D01*
X104753928Y-142080200D02*
X104784404Y-142095438D01*
X104784404Y-142095438D02*
X104845357Y-142095438D01*
X104601547Y-141775438D02*
X104403452Y-141775438D01*
X104403452Y-141775438D02*
X104510119Y-141897342D01*
X104510119Y-141897342D02*
X104464404Y-141897342D01*
X104464404Y-141897342D02*
X104433928Y-141912580D01*
X104433928Y-141912580D02*
X104418690Y-141927819D01*
X104418690Y-141927819D02*
X104403452Y-141958295D01*
X104403452Y-141958295D02*
X104403452Y-142034485D01*
X104403452Y-142034485D02*
X104418690Y-142064961D01*
X104418690Y-142064961D02*
X104433928Y-142080200D01*
X104433928Y-142080200D02*
X104464404Y-142095438D01*
X104464404Y-142095438D02*
X104555833Y-142095438D01*
X104555833Y-142095438D02*
X104586309Y-142080200D01*
X104586309Y-142080200D02*
X104601547Y-142064961D01*
D10*
X114192857Y-156274819D02*
X114669047Y-156274819D01*
X114669047Y-156274819D02*
X114669047Y-155274819D01*
X113859523Y-155751009D02*
X113526190Y-155751009D01*
X113383333Y-156274819D02*
X113859523Y-156274819D01*
X113859523Y-156274819D02*
X113859523Y-155274819D01*
X113859523Y-155274819D02*
X113383333Y-155274819D01*
X112954761Y-156274819D02*
X112954761Y-155274819D01*
X112954761Y-155274819D02*
X112716666Y-155274819D01*
X112716666Y-155274819D02*
X112573809Y-155322438D01*
X112573809Y-155322438D02*
X112478571Y-155417676D01*
X112478571Y-155417676D02*
X112430952Y-155512914D01*
X112430952Y-155512914D02*
X112383333Y-155703390D01*
X112383333Y-155703390D02*
X112383333Y-155846247D01*
X112383333Y-155846247D02*
X112430952Y-156036723D01*
X112430952Y-156036723D02*
X112478571Y-156131961D01*
X112478571Y-156131961D02*
X112573809Y-156227200D01*
X112573809Y-156227200D02*
X112716666Y-156274819D01*
X112716666Y-156274819D02*
X112954761Y-156274819D01*
D12*
X114521428Y-154363855D02*
X114521428Y-153563855D01*
X114521428Y-153563855D02*
X114330952Y-153563855D01*
X114330952Y-153563855D02*
X114216666Y-153601950D01*
X114216666Y-153601950D02*
X114140476Y-153678140D01*
X114140476Y-153678140D02*
X114102381Y-153754331D01*
X114102381Y-153754331D02*
X114064285Y-153906712D01*
X114064285Y-153906712D02*
X114064285Y-154020998D01*
X114064285Y-154020998D02*
X114102381Y-154173379D01*
X114102381Y-154173379D02*
X114140476Y-154249569D01*
X114140476Y-154249569D02*
X114216666Y-154325760D01*
X114216666Y-154325760D02*
X114330952Y-154363855D01*
X114330952Y-154363855D02*
X114521428Y-154363855D01*
X113302381Y-154363855D02*
X113759524Y-154363855D01*
X113530952Y-154363855D02*
X113530952Y-153563855D01*
X113530952Y-153563855D02*
X113607143Y-153678140D01*
X113607143Y-153678140D02*
X113683333Y-153754331D01*
X113683333Y-153754331D02*
X113759524Y-153792426D01*
X112616666Y-153563855D02*
X112769047Y-153563855D01*
X112769047Y-153563855D02*
X112845238Y-153601950D01*
X112845238Y-153601950D02*
X112883333Y-153640045D01*
X112883333Y-153640045D02*
X112959523Y-153754331D01*
X112959523Y-153754331D02*
X112997619Y-153906712D01*
X112997619Y-153906712D02*
X112997619Y-154211474D01*
X112997619Y-154211474D02*
X112959523Y-154287664D01*
X112959523Y-154287664D02*
X112921428Y-154325760D01*
X112921428Y-154325760D02*
X112845238Y-154363855D01*
X112845238Y-154363855D02*
X112692857Y-154363855D01*
X112692857Y-154363855D02*
X112616666Y-154325760D01*
X112616666Y-154325760D02*
X112578571Y-154287664D01*
X112578571Y-154287664D02*
X112540476Y-154211474D01*
X112540476Y-154211474D02*
X112540476Y-154020998D01*
X112540476Y-154020998D02*
X112578571Y-153944807D01*
X112578571Y-153944807D02*
X112616666Y-153906712D01*
X112616666Y-153906712D02*
X112692857Y-153868617D01*
X112692857Y-153868617D02*
X112845238Y-153868617D01*
X112845238Y-153868617D02*
X112921428Y-153906712D01*
X112921428Y-153906712D02*
X112959523Y-153944807D01*
X112959523Y-153944807D02*
X112997619Y-154020998D01*
D10*
X135704819Y-125779761D02*
X135704819Y-125208333D01*
X135704819Y-125494047D02*
X134704819Y-125494047D01*
X134704819Y-125494047D02*
X134847676Y-125398809D01*
X134847676Y-125398809D02*
X134942914Y-125303571D01*
X134942914Y-125303571D02*
X134990533Y-125208333D01*
X134704819Y-126398809D02*
X134704819Y-126494047D01*
X134704819Y-126494047D02*
X134752438Y-126589285D01*
X134752438Y-126589285D02*
X134800057Y-126636904D01*
X134800057Y-126636904D02*
X134895295Y-126684523D01*
X134895295Y-126684523D02*
X135085771Y-126732142D01*
X135085771Y-126732142D02*
X135323866Y-126732142D01*
X135323866Y-126732142D02*
X135514342Y-126684523D01*
X135514342Y-126684523D02*
X135609580Y-126636904D01*
X135609580Y-126636904D02*
X135657200Y-126589285D01*
X135657200Y-126589285D02*
X135704819Y-126494047D01*
X135704819Y-126494047D02*
X135704819Y-126398809D01*
X135704819Y-126398809D02*
X135657200Y-126303571D01*
X135657200Y-126303571D02*
X135609580Y-126255952D01*
X135609580Y-126255952D02*
X135514342Y-126208333D01*
X135514342Y-126208333D02*
X135323866Y-126160714D01*
X135323866Y-126160714D02*
X135085771Y-126160714D01*
X135085771Y-126160714D02*
X134895295Y-126208333D01*
X134895295Y-126208333D02*
X134800057Y-126255952D01*
X134800057Y-126255952D02*
X134752438Y-126303571D01*
X134752438Y-126303571D02*
X134704819Y-126398809D01*
X135704819Y-127160714D02*
X134704819Y-127160714D01*
X135323866Y-127255952D02*
X135704819Y-127541666D01*
X135038152Y-127541666D02*
X135419104Y-127160714D01*
D13*
X133827149Y-126053571D02*
X133589054Y-125886905D01*
X133827149Y-125767857D02*
X133327149Y-125767857D01*
X133327149Y-125767857D02*
X133327149Y-125958333D01*
X133327149Y-125958333D02*
X133350959Y-126005952D01*
X133350959Y-126005952D02*
X133374768Y-126029762D01*
X133374768Y-126029762D02*
X133422387Y-126053571D01*
X133422387Y-126053571D02*
X133493816Y-126053571D01*
X133493816Y-126053571D02*
X133541435Y-126029762D01*
X133541435Y-126029762D02*
X133565244Y-126005952D01*
X133565244Y-126005952D02*
X133589054Y-125958333D01*
X133589054Y-125958333D02*
X133589054Y-125767857D01*
X133827149Y-126529762D02*
X133827149Y-126244048D01*
X133827149Y-126386905D02*
X133327149Y-126386905D01*
X133327149Y-126386905D02*
X133398578Y-126339286D01*
X133398578Y-126339286D02*
X133446197Y-126291667D01*
X133446197Y-126291667D02*
X133470006Y-126244048D01*
X133327149Y-126839285D02*
X133327149Y-126886904D01*
X133327149Y-126886904D02*
X133350959Y-126934523D01*
X133350959Y-126934523D02*
X133374768Y-126958333D01*
X133374768Y-126958333D02*
X133422387Y-126982142D01*
X133422387Y-126982142D02*
X133517625Y-127005952D01*
X133517625Y-127005952D02*
X133636673Y-127005952D01*
X133636673Y-127005952D02*
X133731911Y-126982142D01*
X133731911Y-126982142D02*
X133779530Y-126958333D01*
X133779530Y-126958333D02*
X133803340Y-126934523D01*
X133803340Y-126934523D02*
X133827149Y-126886904D01*
X133827149Y-126886904D02*
X133827149Y-126839285D01*
X133827149Y-126839285D02*
X133803340Y-126791666D01*
X133803340Y-126791666D02*
X133779530Y-126767857D01*
X133779530Y-126767857D02*
X133731911Y-126744047D01*
X133731911Y-126744047D02*
X133636673Y-126720238D01*
X133636673Y-126720238D02*
X133517625Y-126720238D01*
X133517625Y-126720238D02*
X133422387Y-126744047D01*
X133422387Y-126744047D02*
X133374768Y-126767857D01*
X133374768Y-126767857D02*
X133350959Y-126791666D01*
X133350959Y-126791666D02*
X133327149Y-126839285D01*
D10*
X137047619Y-102774819D02*
X137619047Y-102774819D01*
X137333333Y-102774819D02*
X137333333Y-101774819D01*
X137333333Y-101774819D02*
X137428571Y-101917676D01*
X137428571Y-101917676D02*
X137523809Y-102012914D01*
X137523809Y-102012914D02*
X137619047Y-102060533D01*
X136428571Y-101774819D02*
X136333333Y-101774819D01*
X136333333Y-101774819D02*
X136238095Y-101822438D01*
X136238095Y-101822438D02*
X136190476Y-101870057D01*
X136190476Y-101870057D02*
X136142857Y-101965295D01*
X136142857Y-101965295D02*
X136095238Y-102155771D01*
X136095238Y-102155771D02*
X136095238Y-102393866D01*
X136095238Y-102393866D02*
X136142857Y-102584342D01*
X136142857Y-102584342D02*
X136190476Y-102679580D01*
X136190476Y-102679580D02*
X136238095Y-102727200D01*
X136238095Y-102727200D02*
X136333333Y-102774819D01*
X136333333Y-102774819D02*
X136428571Y-102774819D01*
X136428571Y-102774819D02*
X136523809Y-102727200D01*
X136523809Y-102727200D02*
X136571428Y-102679580D01*
X136571428Y-102679580D02*
X136619047Y-102584342D01*
X136619047Y-102584342D02*
X136666666Y-102393866D01*
X136666666Y-102393866D02*
X136666666Y-102155771D01*
X136666666Y-102155771D02*
X136619047Y-101965295D01*
X136619047Y-101965295D02*
X136571428Y-101870057D01*
X136571428Y-101870057D02*
X136523809Y-101822438D01*
X136523809Y-101822438D02*
X136428571Y-101774819D01*
X135476190Y-101774819D02*
X135380952Y-101774819D01*
X135380952Y-101774819D02*
X135285714Y-101822438D01*
X135285714Y-101822438D02*
X135238095Y-101870057D01*
X135238095Y-101870057D02*
X135190476Y-101965295D01*
X135190476Y-101965295D02*
X135142857Y-102155771D01*
X135142857Y-102155771D02*
X135142857Y-102393866D01*
X135142857Y-102393866D02*
X135190476Y-102584342D01*
X135190476Y-102584342D02*
X135238095Y-102679580D01*
X135238095Y-102679580D02*
X135285714Y-102727200D01*
X135285714Y-102727200D02*
X135380952Y-102774819D01*
X135380952Y-102774819D02*
X135476190Y-102774819D01*
X135476190Y-102774819D02*
X135571428Y-102727200D01*
X135571428Y-102727200D02*
X135619047Y-102679580D01*
X135619047Y-102679580D02*
X135666666Y-102584342D01*
X135666666Y-102584342D02*
X135714285Y-102393866D01*
X135714285Y-102393866D02*
X135714285Y-102155771D01*
X135714285Y-102155771D02*
X135666666Y-101965295D01*
X135666666Y-101965295D02*
X135619047Y-101870057D01*
X135619047Y-101870057D02*
X135571428Y-101822438D01*
X135571428Y-101822438D02*
X135476190Y-101774819D01*
X134714285Y-102108152D02*
X134714285Y-102774819D01*
X134714285Y-102203390D02*
X134666666Y-102155771D01*
X134666666Y-102155771D02*
X134571428Y-102108152D01*
X134571428Y-102108152D02*
X134428571Y-102108152D01*
X134428571Y-102108152D02*
X134333333Y-102155771D01*
X134333333Y-102155771D02*
X134285714Y-102251009D01*
X134285714Y-102251009D02*
X134285714Y-102774819D01*
X133476190Y-102251009D02*
X133809523Y-102251009D01*
X133809523Y-102774819D02*
X133809523Y-101774819D01*
X133809523Y-101774819D02*
X133333333Y-101774819D01*
D13*
X135821428Y-104179530D02*
X135845237Y-104203340D01*
X135845237Y-104203340D02*
X135916666Y-104227149D01*
X135916666Y-104227149D02*
X135964285Y-104227149D01*
X135964285Y-104227149D02*
X136035713Y-104203340D01*
X136035713Y-104203340D02*
X136083332Y-104155720D01*
X136083332Y-104155720D02*
X136107142Y-104108101D01*
X136107142Y-104108101D02*
X136130951Y-104012863D01*
X136130951Y-104012863D02*
X136130951Y-103941435D01*
X136130951Y-103941435D02*
X136107142Y-103846197D01*
X136107142Y-103846197D02*
X136083332Y-103798578D01*
X136083332Y-103798578D02*
X136035713Y-103750959D01*
X136035713Y-103750959D02*
X135964285Y-103727149D01*
X135964285Y-103727149D02*
X135916666Y-103727149D01*
X135916666Y-103727149D02*
X135845237Y-103750959D01*
X135845237Y-103750959D02*
X135821428Y-103774768D01*
X135630951Y-103774768D02*
X135607142Y-103750959D01*
X135607142Y-103750959D02*
X135559523Y-103727149D01*
X135559523Y-103727149D02*
X135440475Y-103727149D01*
X135440475Y-103727149D02*
X135392856Y-103750959D01*
X135392856Y-103750959D02*
X135369047Y-103774768D01*
X135369047Y-103774768D02*
X135345237Y-103822387D01*
X135345237Y-103822387D02*
X135345237Y-103870006D01*
X135345237Y-103870006D02*
X135369047Y-103941435D01*
X135369047Y-103941435D02*
X135654761Y-104227149D01*
X135654761Y-104227149D02*
X135345237Y-104227149D01*
X135154761Y-103774768D02*
X135130952Y-103750959D01*
X135130952Y-103750959D02*
X135083333Y-103727149D01*
X135083333Y-103727149D02*
X134964285Y-103727149D01*
X134964285Y-103727149D02*
X134916666Y-103750959D01*
X134916666Y-103750959D02*
X134892857Y-103774768D01*
X134892857Y-103774768D02*
X134869047Y-103822387D01*
X134869047Y-103822387D02*
X134869047Y-103870006D01*
X134869047Y-103870006D02*
X134892857Y-103941435D01*
X134892857Y-103941435D02*
X135178571Y-104227149D01*
X135178571Y-104227149D02*
X134869047Y-104227149D01*
D10*
X108981547Y-156154819D02*
X109552975Y-156154819D01*
X109267261Y-156154819D02*
X109267261Y-155154819D01*
X109267261Y-155154819D02*
X109362499Y-155297676D01*
X109362499Y-155297676D02*
X109457737Y-155392914D01*
X109457737Y-155392914D02*
X109552975Y-155440533D01*
X108552975Y-156154819D02*
X108552975Y-155154819D01*
X108457737Y-155773866D02*
X108172023Y-156154819D01*
X108172023Y-155488152D02*
X108552975Y-155869104D01*
D13*
X108945833Y-154277149D02*
X109112499Y-154039054D01*
X109231547Y-154277149D02*
X109231547Y-153777149D01*
X109231547Y-153777149D02*
X109041071Y-153777149D01*
X109041071Y-153777149D02*
X108993452Y-153800959D01*
X108993452Y-153800959D02*
X108969642Y-153824768D01*
X108969642Y-153824768D02*
X108945833Y-153872387D01*
X108945833Y-153872387D02*
X108945833Y-153943816D01*
X108945833Y-153943816D02*
X108969642Y-153991435D01*
X108969642Y-153991435D02*
X108993452Y-154015244D01*
X108993452Y-154015244D02*
X109041071Y-154039054D01*
X109041071Y-154039054D02*
X109231547Y-154039054D01*
X108517261Y-153943816D02*
X108517261Y-154277149D01*
X108636309Y-153753340D02*
X108755356Y-154110482D01*
X108755356Y-154110482D02*
X108445833Y-154110482D01*
D10*
X114877975Y-155100057D02*
X114830356Y-155052438D01*
X114830356Y-155052438D02*
X114735118Y-155004819D01*
X114735118Y-155004819D02*
X114497023Y-155004819D01*
X114497023Y-155004819D02*
X114401785Y-155052438D01*
X114401785Y-155052438D02*
X114354166Y-155100057D01*
X114354166Y-155100057D02*
X114306547Y-155195295D01*
X114306547Y-155195295D02*
X114306547Y-155290533D01*
X114306547Y-155290533D02*
X114354166Y-155433390D01*
X114354166Y-155433390D02*
X114925594Y-156004819D01*
X114925594Y-156004819D02*
X114306547Y-156004819D01*
X113877975Y-156004819D02*
X113877975Y-155004819D01*
X113782737Y-155623866D02*
X113497023Y-156004819D01*
X113497023Y-155338152D02*
X113877975Y-155719104D01*
D13*
X114508928Y-157427149D02*
X114675594Y-157189054D01*
X114794642Y-157427149D02*
X114794642Y-156927149D01*
X114794642Y-156927149D02*
X114604166Y-156927149D01*
X114604166Y-156927149D02*
X114556547Y-156950959D01*
X114556547Y-156950959D02*
X114532737Y-156974768D01*
X114532737Y-156974768D02*
X114508928Y-157022387D01*
X114508928Y-157022387D02*
X114508928Y-157093816D01*
X114508928Y-157093816D02*
X114532737Y-157141435D01*
X114532737Y-157141435D02*
X114556547Y-157165244D01*
X114556547Y-157165244D02*
X114604166Y-157189054D01*
X114604166Y-157189054D02*
X114794642Y-157189054D01*
X114032737Y-157427149D02*
X114318451Y-157427149D01*
X114175594Y-157427149D02*
X114175594Y-156927149D01*
X114175594Y-156927149D02*
X114223213Y-156998578D01*
X114223213Y-156998578D02*
X114270832Y-157046197D01*
X114270832Y-157046197D02*
X114318451Y-157070006D01*
X113842261Y-156974768D02*
X113818452Y-156950959D01*
X113818452Y-156950959D02*
X113770833Y-156927149D01*
X113770833Y-156927149D02*
X113651785Y-156927149D01*
X113651785Y-156927149D02*
X113604166Y-156950959D01*
X113604166Y-156950959D02*
X113580357Y-156974768D01*
X113580357Y-156974768D02*
X113556547Y-157022387D01*
X113556547Y-157022387D02*
X113556547Y-157070006D01*
X113556547Y-157070006D02*
X113580357Y-157141435D01*
X113580357Y-157141435D02*
X113866071Y-157427149D01*
X113866071Y-157427149D02*
X113556547Y-157427149D01*
D10*
X116724404Y-141104819D02*
X116724404Y-140104819D01*
X116724404Y-140104819D02*
X116391071Y-140819104D01*
X116391071Y-140819104D02*
X116057738Y-140104819D01*
X116057738Y-140104819D02*
X116057738Y-141104819D01*
X115010119Y-141009580D02*
X115057738Y-141057200D01*
X115057738Y-141057200D02*
X115200595Y-141104819D01*
X115200595Y-141104819D02*
X115295833Y-141104819D01*
X115295833Y-141104819D02*
X115438690Y-141057200D01*
X115438690Y-141057200D02*
X115533928Y-140961961D01*
X115533928Y-140961961D02*
X115581547Y-140866723D01*
X115581547Y-140866723D02*
X115629166Y-140676247D01*
X115629166Y-140676247D02*
X115629166Y-140533390D01*
X115629166Y-140533390D02*
X115581547Y-140342914D01*
X115581547Y-140342914D02*
X115533928Y-140247676D01*
X115533928Y-140247676D02*
X115438690Y-140152438D01*
X115438690Y-140152438D02*
X115295833Y-140104819D01*
X115295833Y-140104819D02*
X115200595Y-140104819D01*
X115200595Y-140104819D02*
X115057738Y-140152438D01*
X115057738Y-140152438D02*
X115010119Y-140200057D01*
X114581547Y-141104819D02*
X114581547Y-140104819D01*
X114581547Y-140104819D02*
X114200595Y-140104819D01*
X114200595Y-140104819D02*
X114105357Y-140152438D01*
X114105357Y-140152438D02*
X114057738Y-140200057D01*
X114057738Y-140200057D02*
X114010119Y-140295295D01*
X114010119Y-140295295D02*
X114010119Y-140438152D01*
X114010119Y-140438152D02*
X114057738Y-140533390D01*
X114057738Y-140533390D02*
X114105357Y-140581009D01*
X114105357Y-140581009D02*
X114200595Y-140628628D01*
X114200595Y-140628628D02*
X114581547Y-140628628D01*
X113057738Y-141104819D02*
X113629166Y-141104819D01*
X113343452Y-141104819D02*
X113343452Y-140104819D01*
X113343452Y-140104819D02*
X113438690Y-140247676D01*
X113438690Y-140247676D02*
X113533928Y-140342914D01*
X113533928Y-140342914D02*
X113629166Y-140390533D01*
X112724404Y-140104819D02*
X112057738Y-140104819D01*
X112057738Y-140104819D02*
X112486309Y-141104819D01*
X111486309Y-140104819D02*
X111391071Y-140104819D01*
X111391071Y-140104819D02*
X111295833Y-140152438D01*
X111295833Y-140152438D02*
X111248214Y-140200057D01*
X111248214Y-140200057D02*
X111200595Y-140295295D01*
X111200595Y-140295295D02*
X111152976Y-140485771D01*
X111152976Y-140485771D02*
X111152976Y-140723866D01*
X111152976Y-140723866D02*
X111200595Y-140914342D01*
X111200595Y-140914342D02*
X111248214Y-141009580D01*
X111248214Y-141009580D02*
X111295833Y-141057200D01*
X111295833Y-141057200D02*
X111391071Y-141104819D01*
X111391071Y-141104819D02*
X111486309Y-141104819D01*
X111486309Y-141104819D02*
X111581547Y-141057200D01*
X111581547Y-141057200D02*
X111629166Y-141009580D01*
X111629166Y-141009580D02*
X111676785Y-140914342D01*
X111676785Y-140914342D02*
X111724404Y-140723866D01*
X111724404Y-140723866D02*
X111724404Y-140485771D01*
X111724404Y-140485771D02*
X111676785Y-140295295D01*
X111676785Y-140295295D02*
X111629166Y-140200057D01*
X111629166Y-140200057D02*
X111581547Y-140152438D01*
X111581547Y-140152438D02*
X111486309Y-140104819D01*
X110533928Y-140104819D02*
X110438690Y-140104819D01*
X110438690Y-140104819D02*
X110343452Y-140152438D01*
X110343452Y-140152438D02*
X110295833Y-140200057D01*
X110295833Y-140200057D02*
X110248214Y-140295295D01*
X110248214Y-140295295D02*
X110200595Y-140485771D01*
X110200595Y-140485771D02*
X110200595Y-140723866D01*
X110200595Y-140723866D02*
X110248214Y-140914342D01*
X110248214Y-140914342D02*
X110295833Y-141009580D01*
X110295833Y-141009580D02*
X110343452Y-141057200D01*
X110343452Y-141057200D02*
X110438690Y-141104819D01*
X110438690Y-141104819D02*
X110533928Y-141104819D01*
X110533928Y-141104819D02*
X110629166Y-141057200D01*
X110629166Y-141057200D02*
X110676785Y-141009580D01*
X110676785Y-141009580D02*
X110724404Y-140914342D01*
X110724404Y-140914342D02*
X110772023Y-140723866D01*
X110772023Y-140723866D02*
X110772023Y-140485771D01*
X110772023Y-140485771D02*
X110724404Y-140295295D01*
X110724404Y-140295295D02*
X110676785Y-140200057D01*
X110676785Y-140200057D02*
X110629166Y-140152438D01*
X110629166Y-140152438D02*
X110533928Y-140104819D01*
X109867261Y-141104819D02*
X109343452Y-140438152D01*
X109867261Y-140438152D02*
X109343452Y-141104819D01*
X108962499Y-140723866D02*
X108200595Y-140723866D01*
X107819642Y-140104819D02*
X107200595Y-140104819D01*
X107200595Y-140104819D02*
X107533928Y-140485771D01*
X107533928Y-140485771D02*
X107391071Y-140485771D01*
X107391071Y-140485771D02*
X107295833Y-140533390D01*
X107295833Y-140533390D02*
X107248214Y-140581009D01*
X107248214Y-140581009D02*
X107200595Y-140676247D01*
X107200595Y-140676247D02*
X107200595Y-140914342D01*
X107200595Y-140914342D02*
X107248214Y-141009580D01*
X107248214Y-141009580D02*
X107295833Y-141057200D01*
X107295833Y-141057200D02*
X107391071Y-141104819D01*
X107391071Y-141104819D02*
X107676785Y-141104819D01*
X107676785Y-141104819D02*
X107772023Y-141057200D01*
X107772023Y-141057200D02*
X107819642Y-141009580D01*
X106867261Y-140104819D02*
X106248214Y-140104819D01*
X106248214Y-140104819D02*
X106581547Y-140485771D01*
X106581547Y-140485771D02*
X106438690Y-140485771D01*
X106438690Y-140485771D02*
X106343452Y-140533390D01*
X106343452Y-140533390D02*
X106295833Y-140581009D01*
X106295833Y-140581009D02*
X106248214Y-140676247D01*
X106248214Y-140676247D02*
X106248214Y-140914342D01*
X106248214Y-140914342D02*
X106295833Y-141009580D01*
X106295833Y-141009580D02*
X106343452Y-141057200D01*
X106343452Y-141057200D02*
X106438690Y-141104819D01*
X106438690Y-141104819D02*
X106724404Y-141104819D01*
X106724404Y-141104819D02*
X106819642Y-141057200D01*
X106819642Y-141057200D02*
X106867261Y-141009580D01*
X105629166Y-140104819D02*
X105533928Y-140104819D01*
X105533928Y-140104819D02*
X105438690Y-140152438D01*
X105438690Y-140152438D02*
X105391071Y-140200057D01*
X105391071Y-140200057D02*
X105343452Y-140295295D01*
X105343452Y-140295295D02*
X105295833Y-140485771D01*
X105295833Y-140485771D02*
X105295833Y-140723866D01*
X105295833Y-140723866D02*
X105343452Y-140914342D01*
X105343452Y-140914342D02*
X105391071Y-141009580D01*
X105391071Y-141009580D02*
X105438690Y-141057200D01*
X105438690Y-141057200D02*
X105533928Y-141104819D01*
X105533928Y-141104819D02*
X105629166Y-141104819D01*
X105629166Y-141104819D02*
X105724404Y-141057200D01*
X105724404Y-141057200D02*
X105772023Y-141009580D01*
X105772023Y-141009580D02*
X105819642Y-140914342D01*
X105819642Y-140914342D02*
X105867261Y-140723866D01*
X105867261Y-140723866D02*
X105867261Y-140485771D01*
X105867261Y-140485771D02*
X105819642Y-140295295D01*
X105819642Y-140295295D02*
X105772023Y-140200057D01*
X105772023Y-140200057D02*
X105724404Y-140152438D01*
X105724404Y-140152438D02*
X105629166Y-140104819D01*
X104962499Y-141104819D02*
X104438690Y-140438152D01*
X104962499Y-140438152D02*
X104438690Y-141104819D01*
X104152975Y-141104819D02*
X103629166Y-140438152D01*
X104152975Y-140438152D02*
X103629166Y-141104819D01*
X103391070Y-140104819D02*
X102819642Y-140104819D01*
X103105356Y-141104819D02*
X103105356Y-140104819D01*
X102629165Y-140104819D02*
X102057737Y-140104819D01*
X102343451Y-141104819D02*
X102343451Y-140104819D01*
D11*
X109706309Y-138075438D02*
X109706309Y-138334485D01*
X109706309Y-138334485D02*
X109691071Y-138364961D01*
X109691071Y-138364961D02*
X109675833Y-138380200D01*
X109675833Y-138380200D02*
X109645357Y-138395438D01*
X109645357Y-138395438D02*
X109584404Y-138395438D01*
X109584404Y-138395438D02*
X109553928Y-138380200D01*
X109553928Y-138380200D02*
X109538690Y-138364961D01*
X109538690Y-138364961D02*
X109523452Y-138334485D01*
X109523452Y-138334485D02*
X109523452Y-138075438D01*
X109233928Y-138182104D02*
X109233928Y-138395438D01*
X109310119Y-138060200D02*
X109386309Y-138288771D01*
X109386309Y-138288771D02*
X109188214Y-138288771D01*
D10*
X136095238Y-105274819D02*
X136666666Y-105274819D01*
X136380952Y-105274819D02*
X136380952Y-104274819D01*
X136380952Y-104274819D02*
X136476190Y-104417676D01*
X136476190Y-104417676D02*
X136571428Y-104512914D01*
X136571428Y-104512914D02*
X136666666Y-104560533D01*
X135238095Y-104608152D02*
X135238095Y-105274819D01*
X135666666Y-104608152D02*
X135666666Y-105131961D01*
X135666666Y-105131961D02*
X135619047Y-105227200D01*
X135619047Y-105227200D02*
X135523809Y-105274819D01*
X135523809Y-105274819D02*
X135380952Y-105274819D01*
X135380952Y-105274819D02*
X135285714Y-105227200D01*
X135285714Y-105227200D02*
X135238095Y-105179580D01*
X134428571Y-104751009D02*
X134761904Y-104751009D01*
X134761904Y-105274819D02*
X134761904Y-104274819D01*
X134761904Y-104274819D02*
X134285714Y-104274819D01*
D13*
X135821428Y-106679530D02*
X135845237Y-106703340D01*
X135845237Y-106703340D02*
X135916666Y-106727149D01*
X135916666Y-106727149D02*
X135964285Y-106727149D01*
X135964285Y-106727149D02*
X136035713Y-106703340D01*
X136035713Y-106703340D02*
X136083332Y-106655720D01*
X136083332Y-106655720D02*
X136107142Y-106608101D01*
X136107142Y-106608101D02*
X136130951Y-106512863D01*
X136130951Y-106512863D02*
X136130951Y-106441435D01*
X136130951Y-106441435D02*
X136107142Y-106346197D01*
X136107142Y-106346197D02*
X136083332Y-106298578D01*
X136083332Y-106298578D02*
X136035713Y-106250959D01*
X136035713Y-106250959D02*
X135964285Y-106227149D01*
X135964285Y-106227149D02*
X135916666Y-106227149D01*
X135916666Y-106227149D02*
X135845237Y-106250959D01*
X135845237Y-106250959D02*
X135821428Y-106274768D01*
X135630951Y-106274768D02*
X135607142Y-106250959D01*
X135607142Y-106250959D02*
X135559523Y-106227149D01*
X135559523Y-106227149D02*
X135440475Y-106227149D01*
X135440475Y-106227149D02*
X135392856Y-106250959D01*
X135392856Y-106250959D02*
X135369047Y-106274768D01*
X135369047Y-106274768D02*
X135345237Y-106322387D01*
X135345237Y-106322387D02*
X135345237Y-106370006D01*
X135345237Y-106370006D02*
X135369047Y-106441435D01*
X135369047Y-106441435D02*
X135654761Y-106727149D01*
X135654761Y-106727149D02*
X135345237Y-106727149D01*
X135178571Y-106227149D02*
X134869047Y-106227149D01*
X134869047Y-106227149D02*
X135035714Y-106417625D01*
X135035714Y-106417625D02*
X134964285Y-106417625D01*
X134964285Y-106417625D02*
X134916666Y-106441435D01*
X134916666Y-106441435D02*
X134892857Y-106465244D01*
X134892857Y-106465244D02*
X134869047Y-106512863D01*
X134869047Y-106512863D02*
X134869047Y-106631911D01*
X134869047Y-106631911D02*
X134892857Y-106679530D01*
X134892857Y-106679530D02*
X134916666Y-106703340D01*
X134916666Y-106703340D02*
X134964285Y-106727149D01*
X134964285Y-106727149D02*
X135107142Y-106727149D01*
X135107142Y-106727149D02*
X135154761Y-106703340D01*
X135154761Y-106703340D02*
X135178571Y-106679530D01*
D10*
X112534819Y-141254761D02*
X112534819Y-140683333D01*
X112534819Y-140969047D02*
X111534819Y-140969047D01*
X111534819Y-140969047D02*
X111677676Y-140873809D01*
X111677676Y-140873809D02*
X111772914Y-140778571D01*
X111772914Y-140778571D02*
X111820533Y-140683333D01*
X111868152Y-142111904D02*
X112534819Y-142111904D01*
X111868152Y-141683333D02*
X112391961Y-141683333D01*
X112391961Y-141683333D02*
X112487200Y-141730952D01*
X112487200Y-141730952D02*
X112534819Y-141826190D01*
X112534819Y-141826190D02*
X112534819Y-141969047D01*
X112534819Y-141969047D02*
X112487200Y-142064285D01*
X112487200Y-142064285D02*
X112439580Y-142111904D01*
X112011009Y-142921428D02*
X112011009Y-142588095D01*
X112534819Y-142588095D02*
X111534819Y-142588095D01*
X111534819Y-142588095D02*
X111534819Y-143064285D01*
D13*
X110579530Y-141528571D02*
X110603340Y-141504762D01*
X110603340Y-141504762D02*
X110627149Y-141433333D01*
X110627149Y-141433333D02*
X110627149Y-141385714D01*
X110627149Y-141385714D02*
X110603340Y-141314286D01*
X110603340Y-141314286D02*
X110555720Y-141266667D01*
X110555720Y-141266667D02*
X110508101Y-141242857D01*
X110508101Y-141242857D02*
X110412863Y-141219048D01*
X110412863Y-141219048D02*
X110341435Y-141219048D01*
X110341435Y-141219048D02*
X110246197Y-141242857D01*
X110246197Y-141242857D02*
X110198578Y-141266667D01*
X110198578Y-141266667D02*
X110150959Y-141314286D01*
X110150959Y-141314286D02*
X110127149Y-141385714D01*
X110127149Y-141385714D02*
X110127149Y-141433333D01*
X110127149Y-141433333D02*
X110150959Y-141504762D01*
X110150959Y-141504762D02*
X110174768Y-141528571D01*
X110627149Y-142004762D02*
X110627149Y-141719048D01*
X110627149Y-141861905D02*
X110127149Y-141861905D01*
X110127149Y-141861905D02*
X110198578Y-141814286D01*
X110198578Y-141814286D02*
X110246197Y-141766667D01*
X110246197Y-141766667D02*
X110270006Y-141719048D01*
X110627149Y-142242857D02*
X110627149Y-142338095D01*
X110627149Y-142338095D02*
X110603340Y-142385714D01*
X110603340Y-142385714D02*
X110579530Y-142409523D01*
X110579530Y-142409523D02*
X110508101Y-142457142D01*
X110508101Y-142457142D02*
X110412863Y-142480952D01*
X110412863Y-142480952D02*
X110222387Y-142480952D01*
X110222387Y-142480952D02*
X110174768Y-142457142D01*
X110174768Y-142457142D02*
X110150959Y-142433333D01*
X110150959Y-142433333D02*
X110127149Y-142385714D01*
X110127149Y-142385714D02*
X110127149Y-142290476D01*
X110127149Y-142290476D02*
X110150959Y-142242857D01*
X110150959Y-142242857D02*
X110174768Y-142219047D01*
X110174768Y-142219047D02*
X110222387Y-142195238D01*
X110222387Y-142195238D02*
X110341435Y-142195238D01*
X110341435Y-142195238D02*
X110389054Y-142219047D01*
X110389054Y-142219047D02*
X110412863Y-142242857D01*
X110412863Y-142242857D02*
X110436673Y-142290476D01*
X110436673Y-142290476D02*
X110436673Y-142385714D01*
X110436673Y-142385714D02*
X110412863Y-142433333D01*
X110412863Y-142433333D02*
X110389054Y-142457142D01*
X110389054Y-142457142D02*
X110341435Y-142480952D01*
D10*
X136950057Y-168625595D02*
X136902438Y-168673214D01*
X136902438Y-168673214D02*
X136854819Y-168768452D01*
X136854819Y-168768452D02*
X136854819Y-169006547D01*
X136854819Y-169006547D02*
X136902438Y-169101785D01*
X136902438Y-169101785D02*
X136950057Y-169149404D01*
X136950057Y-169149404D02*
X137045295Y-169197023D01*
X137045295Y-169197023D02*
X137140533Y-169197023D01*
X137140533Y-169197023D02*
X137283390Y-169149404D01*
X137283390Y-169149404D02*
X137854819Y-168577976D01*
X137854819Y-168577976D02*
X137854819Y-169197023D01*
X136950057Y-169577976D02*
X136902438Y-169625595D01*
X136902438Y-169625595D02*
X136854819Y-169720833D01*
X136854819Y-169720833D02*
X136854819Y-169958928D01*
X136854819Y-169958928D02*
X136902438Y-170054166D01*
X136902438Y-170054166D02*
X136950057Y-170101785D01*
X136950057Y-170101785D02*
X137045295Y-170149404D01*
X137045295Y-170149404D02*
X137140533Y-170149404D01*
X137140533Y-170149404D02*
X137283390Y-170101785D01*
X137283390Y-170101785D02*
X137854819Y-169530357D01*
X137854819Y-169530357D02*
X137854819Y-170149404D01*
D13*
X139277149Y-169304166D02*
X139039054Y-169137500D01*
X139277149Y-169018452D02*
X138777149Y-169018452D01*
X138777149Y-169018452D02*
X138777149Y-169208928D01*
X138777149Y-169208928D02*
X138800959Y-169256547D01*
X138800959Y-169256547D02*
X138824768Y-169280357D01*
X138824768Y-169280357D02*
X138872387Y-169304166D01*
X138872387Y-169304166D02*
X138943816Y-169304166D01*
X138943816Y-169304166D02*
X138991435Y-169280357D01*
X138991435Y-169280357D02*
X139015244Y-169256547D01*
X139015244Y-169256547D02*
X139039054Y-169208928D01*
X139039054Y-169208928D02*
X139039054Y-169018452D01*
X138777149Y-169470833D02*
X138777149Y-169804166D01*
X138777149Y-169804166D02*
X139277149Y-169589881D01*
D10*
X152875629Y-114003394D02*
X152725091Y-114007165D01*
X152725091Y-114007165D02*
X152497400Y-113937553D01*
X152497400Y-113937553D02*
X152420246Y-113864170D01*
X152420246Y-113864170D02*
X152388630Y-113804709D01*
X152388630Y-113804709D02*
X152370936Y-113699710D01*
X152370936Y-113699710D02*
X152398781Y-113608633D01*
X152398781Y-113608633D02*
X152472165Y-113531479D01*
X152472165Y-113531479D02*
X152531625Y-113499863D01*
X152531625Y-113499863D02*
X152636624Y-113482170D01*
X152636624Y-113482170D02*
X152832700Y-113492321D01*
X152832700Y-113492321D02*
X152937699Y-113474628D01*
X152937699Y-113474628D02*
X152997160Y-113443012D01*
X152997160Y-113443012D02*
X153070543Y-113365858D01*
X153070543Y-113365858D02*
X153098388Y-113274781D01*
X153098388Y-113274781D02*
X153080695Y-113169782D01*
X153080695Y-113169782D02*
X153049079Y-113110321D01*
X153049079Y-113110321D02*
X152971925Y-113036938D01*
X152971925Y-113036938D02*
X152744233Y-112967326D01*
X152744233Y-112967326D02*
X152593696Y-112971097D01*
X152288850Y-112828101D02*
X151768787Y-113714794D01*
X151768787Y-113714794D02*
X151795470Y-112976029D01*
X151795470Y-112976029D02*
X151404480Y-113603414D01*
X151404480Y-113603414D02*
X151469160Y-112577497D01*
X151012329Y-113583111D02*
X150283716Y-113360352D01*
X150083869Y-113199663D02*
X150376240Y-112243358D01*
X150376240Y-112243358D02*
X150011934Y-112131978D01*
X150011934Y-112131978D02*
X149906935Y-112149671D01*
X149906935Y-112149671D02*
X149847474Y-112181287D01*
X149847474Y-112181287D02*
X149774091Y-112258442D01*
X149774091Y-112258442D02*
X149732323Y-112395056D01*
X149732323Y-112395056D02*
X149750017Y-112500056D01*
X149750017Y-112500056D02*
X149781632Y-112559516D01*
X149781632Y-112559516D02*
X149858787Y-112632900D01*
X149858787Y-112632900D02*
X150223093Y-112744279D01*
X148912633Y-112144452D02*
X148717719Y-112781989D01*
X149322478Y-112269754D02*
X149169331Y-112770676D01*
X149169331Y-112770676D02*
X149095948Y-112847830D01*
X149095948Y-112847830D02*
X148990949Y-112865523D01*
X148990949Y-112865523D02*
X148854334Y-112823756D01*
X148854334Y-112823756D02*
X148777180Y-112750373D01*
X148777180Y-112750373D02*
X148745564Y-112690912D01*
X148321796Y-112611148D02*
X148216797Y-112628842D01*
X148216797Y-112628842D02*
X148034644Y-112573152D01*
X148034644Y-112573152D02*
X147957490Y-112499768D01*
X147957490Y-112499768D02*
X147939796Y-112394769D01*
X147939796Y-112394769D02*
X147953719Y-112349231D01*
X147953719Y-112349231D02*
X148027102Y-112272077D01*
X148027102Y-112272077D02*
X148132101Y-112254383D01*
X148132101Y-112254383D02*
X148268716Y-112296151D01*
X148268716Y-112296151D02*
X148373715Y-112278457D01*
X148373715Y-112278457D02*
X148447099Y-112201303D01*
X148447099Y-112201303D02*
X148461021Y-112155765D01*
X148461021Y-112155765D02*
X148443328Y-112050766D01*
X148443328Y-112050766D02*
X148366173Y-111977383D01*
X148366173Y-111977383D02*
X148229559Y-111935615D01*
X148229559Y-111935615D02*
X148124559Y-111953309D01*
X147488184Y-112406082D02*
X147780556Y-111449777D01*
X147078339Y-112280780D02*
X147231486Y-111779858D01*
X147231486Y-111779858D02*
X147304869Y-111702704D01*
X147304869Y-111702704D02*
X147409869Y-111685011D01*
X147409869Y-111685011D02*
X147546484Y-111726778D01*
X147546484Y-111726778D02*
X147623638Y-111800161D01*
X147623638Y-111800161D02*
X147655254Y-111859622D01*
X146822802Y-112302244D02*
X146094189Y-112079485D01*
X145894342Y-111918796D02*
X146186714Y-110962491D01*
X146186714Y-110962491D02*
X145959023Y-110892879D01*
X145959023Y-110892879D02*
X145808485Y-110896650D01*
X145808485Y-110896650D02*
X145689564Y-110959881D01*
X145689564Y-110959881D02*
X145616180Y-111037036D01*
X145616180Y-111037036D02*
X145514952Y-111205266D01*
X145514952Y-111205266D02*
X145473185Y-111341881D01*
X145473185Y-111341881D02*
X145463033Y-111537957D01*
X145463033Y-111537957D02*
X145480727Y-111642956D01*
X145480727Y-111642956D02*
X145543958Y-111761878D01*
X145543958Y-111761878D02*
X145666651Y-111849184D01*
X145666651Y-111849184D02*
X145894342Y-111918796D01*
X144723107Y-110863585D02*
X144528193Y-111501122D01*
X145132952Y-110988888D02*
X144979805Y-111489809D01*
X144979805Y-111489809D02*
X144906422Y-111566963D01*
X144906422Y-111566963D02*
X144801423Y-111584657D01*
X144801423Y-111584657D02*
X144664808Y-111542889D01*
X144664808Y-111542889D02*
X144587654Y-111469506D01*
X144587654Y-111469506D02*
X144556038Y-111410045D01*
X143662965Y-111236595D02*
X143816112Y-110735674D01*
X143816112Y-110735674D02*
X143889495Y-110658519D01*
X143889495Y-110658519D02*
X143994494Y-110640826D01*
X143994494Y-110640826D02*
X144176647Y-110696516D01*
X144176647Y-110696516D02*
X144253801Y-110769899D01*
X143676887Y-111191057D02*
X143754041Y-111264440D01*
X143754041Y-111264440D02*
X143981733Y-111334052D01*
X143981733Y-111334052D02*
X144086732Y-111316359D01*
X144086732Y-111316359D02*
X144160115Y-111239205D01*
X144160115Y-111239205D02*
X144187960Y-111148128D01*
X144187960Y-111148128D02*
X144170267Y-111043129D01*
X144170267Y-111043129D02*
X144093113Y-110969746D01*
X144093113Y-110969746D02*
X143865421Y-110900134D01*
X143865421Y-110900134D02*
X143788267Y-110826750D01*
X143070966Y-111055603D02*
X143175965Y-111037910D01*
X143175965Y-111037910D02*
X143249349Y-110960756D01*
X143249349Y-110960756D02*
X143499953Y-110141066D01*
X148839542Y-114337978D02*
X148689005Y-114341749D01*
X148689005Y-114341749D02*
X148461313Y-114272136D01*
X148461313Y-114272136D02*
X148384159Y-114198753D01*
X148384159Y-114198753D02*
X148352543Y-114139292D01*
X148352543Y-114139292D02*
X148334850Y-114034293D01*
X148334850Y-114034293D02*
X148362695Y-113943216D01*
X148362695Y-113943216D02*
X148436078Y-113866062D01*
X148436078Y-113866062D02*
X148495539Y-113834446D01*
X148495539Y-113834446D02*
X148600538Y-113816753D01*
X148600538Y-113816753D02*
X148796614Y-113826905D01*
X148796614Y-113826905D02*
X148901613Y-113809211D01*
X148901613Y-113809211D02*
X148961073Y-113777595D01*
X148961073Y-113777595D02*
X149034457Y-113700441D01*
X149034457Y-113700441D02*
X149062302Y-113609364D01*
X149062302Y-113609364D02*
X149044608Y-113504365D01*
X149044608Y-113504365D02*
X149012992Y-113444905D01*
X149012992Y-113444905D02*
X148935838Y-113371521D01*
X148935838Y-113371521D02*
X148708147Y-113301909D01*
X148708147Y-113301909D02*
X148557609Y-113305680D01*
X148252763Y-113162684D02*
X147732700Y-114049377D01*
X147732700Y-114049377D02*
X147759384Y-113310612D01*
X147759384Y-113310612D02*
X147368393Y-113937997D01*
X147368393Y-113937997D02*
X147433074Y-112912080D01*
X146275474Y-113603858D02*
X146821934Y-113770928D01*
X146548704Y-113687393D02*
X146841075Y-112731088D01*
X146841075Y-112731088D02*
X146890385Y-112895548D01*
X146890385Y-112895548D02*
X146953616Y-113014470D01*
X146953616Y-113014470D02*
X147030771Y-113087853D01*
X147047619Y-109274819D02*
X147619047Y-109274819D01*
X147333333Y-109274819D02*
X147333333Y-108274819D01*
X147333333Y-108274819D02*
X147428571Y-108417676D01*
X147428571Y-108417676D02*
X147523809Y-108512914D01*
X147523809Y-108512914D02*
X147619047Y-108560533D01*
X146428571Y-108274819D02*
X146333333Y-108274819D01*
X146333333Y-108274819D02*
X146238095Y-108322438D01*
X146238095Y-108322438D02*
X146190476Y-108370057D01*
X146190476Y-108370057D02*
X146142857Y-108465295D01*
X146142857Y-108465295D02*
X146095238Y-108655771D01*
X146095238Y-108655771D02*
X146095238Y-108893866D01*
X146095238Y-108893866D02*
X146142857Y-109084342D01*
X146142857Y-109084342D02*
X146190476Y-109179580D01*
X146190476Y-109179580D02*
X146238095Y-109227200D01*
X146238095Y-109227200D02*
X146333333Y-109274819D01*
X146333333Y-109274819D02*
X146428571Y-109274819D01*
X146428571Y-109274819D02*
X146523809Y-109227200D01*
X146523809Y-109227200D02*
X146571428Y-109179580D01*
X146571428Y-109179580D02*
X146619047Y-109084342D01*
X146619047Y-109084342D02*
X146666666Y-108893866D01*
X146666666Y-108893866D02*
X146666666Y-108655771D01*
X146666666Y-108655771D02*
X146619047Y-108465295D01*
X146619047Y-108465295D02*
X146571428Y-108370057D01*
X146571428Y-108370057D02*
X146523809Y-108322438D01*
X146523809Y-108322438D02*
X146428571Y-108274819D01*
X145476190Y-108274819D02*
X145380952Y-108274819D01*
X145380952Y-108274819D02*
X145285714Y-108322438D01*
X145285714Y-108322438D02*
X145238095Y-108370057D01*
X145238095Y-108370057D02*
X145190476Y-108465295D01*
X145190476Y-108465295D02*
X145142857Y-108655771D01*
X145142857Y-108655771D02*
X145142857Y-108893866D01*
X145142857Y-108893866D02*
X145190476Y-109084342D01*
X145190476Y-109084342D02*
X145238095Y-109179580D01*
X145238095Y-109179580D02*
X145285714Y-109227200D01*
X145285714Y-109227200D02*
X145380952Y-109274819D01*
X145380952Y-109274819D02*
X145476190Y-109274819D01*
X145476190Y-109274819D02*
X145571428Y-109227200D01*
X145571428Y-109227200D02*
X145619047Y-109179580D01*
X145619047Y-109179580D02*
X145666666Y-109084342D01*
X145666666Y-109084342D02*
X145714285Y-108893866D01*
X145714285Y-108893866D02*
X145714285Y-108655771D01*
X145714285Y-108655771D02*
X145666666Y-108465295D01*
X145666666Y-108465295D02*
X145619047Y-108370057D01*
X145619047Y-108370057D02*
X145571428Y-108322438D01*
X145571428Y-108322438D02*
X145476190Y-108274819D01*
X144714285Y-108608152D02*
X144714285Y-109274819D01*
X144714285Y-108703390D02*
X144666666Y-108655771D01*
X144666666Y-108655771D02*
X144571428Y-108608152D01*
X144571428Y-108608152D02*
X144428571Y-108608152D01*
X144428571Y-108608152D02*
X144333333Y-108655771D01*
X144333333Y-108655771D02*
X144285714Y-108751009D01*
X144285714Y-108751009D02*
X144285714Y-109274819D01*
X143476190Y-108751009D02*
X143809523Y-108751009D01*
X143809523Y-109274819D02*
X143809523Y-108274819D01*
X143809523Y-108274819D02*
X143333333Y-108274819D01*
D13*
X145821428Y-110679530D02*
X145845237Y-110703340D01*
X145845237Y-110703340D02*
X145916666Y-110727149D01*
X145916666Y-110727149D02*
X145964285Y-110727149D01*
X145964285Y-110727149D02*
X146035713Y-110703340D01*
X146035713Y-110703340D02*
X146083332Y-110655720D01*
X146083332Y-110655720D02*
X146107142Y-110608101D01*
X146107142Y-110608101D02*
X146130951Y-110512863D01*
X146130951Y-110512863D02*
X146130951Y-110441435D01*
X146130951Y-110441435D02*
X146107142Y-110346197D01*
X146107142Y-110346197D02*
X146083332Y-110298578D01*
X146083332Y-110298578D02*
X146035713Y-110250959D01*
X146035713Y-110250959D02*
X145964285Y-110227149D01*
X145964285Y-110227149D02*
X145916666Y-110227149D01*
X145916666Y-110227149D02*
X145845237Y-110250959D01*
X145845237Y-110250959D02*
X145821428Y-110274768D01*
X145345237Y-110727149D02*
X145630951Y-110727149D01*
X145488094Y-110727149D02*
X145488094Y-110227149D01*
X145488094Y-110227149D02*
X145535713Y-110298578D01*
X145535713Y-110298578D02*
X145583332Y-110346197D01*
X145583332Y-110346197D02*
X145630951Y-110370006D01*
X144916666Y-110227149D02*
X145011904Y-110227149D01*
X145011904Y-110227149D02*
X145059523Y-110250959D01*
X145059523Y-110250959D02*
X145083333Y-110274768D01*
X145083333Y-110274768D02*
X145130952Y-110346197D01*
X145130952Y-110346197D02*
X145154761Y-110441435D01*
X145154761Y-110441435D02*
X145154761Y-110631911D01*
X145154761Y-110631911D02*
X145130952Y-110679530D01*
X145130952Y-110679530D02*
X145107142Y-110703340D01*
X145107142Y-110703340D02*
X145059523Y-110727149D01*
X145059523Y-110727149D02*
X144964285Y-110727149D01*
X144964285Y-110727149D02*
X144916666Y-110703340D01*
X144916666Y-110703340D02*
X144892857Y-110679530D01*
X144892857Y-110679530D02*
X144869047Y-110631911D01*
X144869047Y-110631911D02*
X144869047Y-110512863D01*
X144869047Y-110512863D02*
X144892857Y-110465244D01*
X144892857Y-110465244D02*
X144916666Y-110441435D01*
X144916666Y-110441435D02*
X144964285Y-110417625D01*
X144964285Y-110417625D02*
X145059523Y-110417625D01*
X145059523Y-110417625D02*
X145107142Y-110441435D01*
X145107142Y-110441435D02*
X145130952Y-110465244D01*
X145130952Y-110465244D02*
X145154761Y-110512863D01*
D10*
X144530951Y-154104819D02*
X144530951Y-154914342D01*
X144530951Y-154914342D02*
X144483332Y-155009580D01*
X144483332Y-155009580D02*
X144435713Y-155057200D01*
X144435713Y-155057200D02*
X144340475Y-155104819D01*
X144340475Y-155104819D02*
X144149999Y-155104819D01*
X144149999Y-155104819D02*
X144054761Y-155057200D01*
X144054761Y-155057200D02*
X144007142Y-155009580D01*
X144007142Y-155009580D02*
X143959523Y-154914342D01*
X143959523Y-154914342D02*
X143959523Y-154104819D01*
X143483332Y-155104819D02*
X143483332Y-154104819D01*
X143483332Y-154104819D02*
X143149999Y-154819104D01*
X143149999Y-154819104D02*
X142816666Y-154104819D01*
X142816666Y-154104819D02*
X142816666Y-155104819D01*
X142340475Y-155104819D02*
X142340475Y-154104819D01*
X142340475Y-154581009D02*
X141769047Y-154581009D01*
X141769047Y-155104819D02*
X141769047Y-154104819D01*
X141388094Y-154104819D02*
X140769047Y-154104819D01*
X140769047Y-154104819D02*
X141102380Y-154485771D01*
X141102380Y-154485771D02*
X140959523Y-154485771D01*
X140959523Y-154485771D02*
X140864285Y-154533390D01*
X140864285Y-154533390D02*
X140816666Y-154581009D01*
X140816666Y-154581009D02*
X140769047Y-154676247D01*
X140769047Y-154676247D02*
X140769047Y-154914342D01*
X140769047Y-154914342D02*
X140816666Y-155009580D01*
X140816666Y-155009580D02*
X140864285Y-155057200D01*
X140864285Y-155057200D02*
X140959523Y-155104819D01*
X140959523Y-155104819D02*
X141245237Y-155104819D01*
X141245237Y-155104819D02*
X141340475Y-155057200D01*
X141340475Y-155057200D02*
X141388094Y-155009580D01*
X140340475Y-155104819D02*
X140340475Y-154104819D01*
X140340475Y-154104819D02*
X139769047Y-155104819D01*
X139769047Y-155104819D02*
X139769047Y-154104819D01*
D14*
X142425028Y-156602380D02*
X142401219Y-156554761D01*
X142401219Y-156554761D02*
X142353600Y-156507142D01*
X142353600Y-156507142D02*
X142282171Y-156435714D01*
X142282171Y-156435714D02*
X142258361Y-156388095D01*
X142258361Y-156388095D02*
X142258361Y-156340476D01*
X142377409Y-156364285D02*
X142353600Y-156316666D01*
X142353600Y-156316666D02*
X142305980Y-156269047D01*
X142305980Y-156269047D02*
X142210742Y-156245238D01*
X142210742Y-156245238D02*
X142044076Y-156245238D01*
X142044076Y-156245238D02*
X141948838Y-156269047D01*
X141948838Y-156269047D02*
X141901219Y-156316666D01*
X141901219Y-156316666D02*
X141877409Y-156364285D01*
X141877409Y-156364285D02*
X141877409Y-156459523D01*
X141877409Y-156459523D02*
X141901219Y-156507142D01*
X141901219Y-156507142D02*
X141948838Y-156554761D01*
X141948838Y-156554761D02*
X142044076Y-156578571D01*
X142044076Y-156578571D02*
X142210742Y-156578571D01*
X142210742Y-156578571D02*
X142305980Y-156554761D01*
X142305980Y-156554761D02*
X142353600Y-156507142D01*
X142353600Y-156507142D02*
X142377409Y-156459523D01*
X142377409Y-156459523D02*
X142377409Y-156364285D01*
X142377409Y-157054762D02*
X142377409Y-156769048D01*
X142377409Y-156911905D02*
X141877409Y-156911905D01*
X141877409Y-156911905D02*
X141948838Y-156864286D01*
X141948838Y-156864286D02*
X141996457Y-156816667D01*
X141996457Y-156816667D02*
X142020266Y-156769048D01*
D10*
X135014580Y-160857142D02*
X135062200Y-160809523D01*
X135062200Y-160809523D02*
X135109819Y-160666666D01*
X135109819Y-160666666D02*
X135109819Y-160571428D01*
X135109819Y-160571428D02*
X135062200Y-160428571D01*
X135062200Y-160428571D02*
X134966961Y-160333333D01*
X134966961Y-160333333D02*
X134871723Y-160285714D01*
X134871723Y-160285714D02*
X134681247Y-160238095D01*
X134681247Y-160238095D02*
X134538390Y-160238095D01*
X134538390Y-160238095D02*
X134347914Y-160285714D01*
X134347914Y-160285714D02*
X134252676Y-160333333D01*
X134252676Y-160333333D02*
X134157438Y-160428571D01*
X134157438Y-160428571D02*
X134109819Y-160571428D01*
X134109819Y-160571428D02*
X134109819Y-160666666D01*
X134109819Y-160666666D02*
X134157438Y-160809523D01*
X134157438Y-160809523D02*
X134205057Y-160857142D01*
X135109819Y-161285714D02*
X134109819Y-161285714D01*
X134586009Y-161285714D02*
X134586009Y-161857142D01*
X135109819Y-161857142D02*
X134109819Y-161857142D01*
X134109819Y-162238095D02*
X134109819Y-162857142D01*
X134109819Y-162857142D02*
X134490771Y-162523809D01*
X134490771Y-162523809D02*
X134490771Y-162666666D01*
X134490771Y-162666666D02*
X134538390Y-162761904D01*
X134538390Y-162761904D02*
X134586009Y-162809523D01*
X134586009Y-162809523D02*
X134681247Y-162857142D01*
X134681247Y-162857142D02*
X134919342Y-162857142D01*
X134919342Y-162857142D02*
X135014580Y-162809523D01*
X135014580Y-162809523D02*
X135062200Y-162761904D01*
X135062200Y-162761904D02*
X135109819Y-162666666D01*
X135109819Y-162666666D02*
X135109819Y-162380952D01*
X135109819Y-162380952D02*
X135062200Y-162285714D01*
X135062200Y-162285714D02*
X135014580Y-162238095D01*
X134443152Y-163714285D02*
X135109819Y-163714285D01*
X134062200Y-163476190D02*
X134776485Y-163238095D01*
X134776485Y-163238095D02*
X134776485Y-163857142D01*
X134109819Y-164428571D02*
X134109819Y-164523809D01*
X134109819Y-164523809D02*
X134157438Y-164619047D01*
X134157438Y-164619047D02*
X134205057Y-164666666D01*
X134205057Y-164666666D02*
X134300295Y-164714285D01*
X134300295Y-164714285D02*
X134490771Y-164761904D01*
X134490771Y-164761904D02*
X134728866Y-164761904D01*
X134728866Y-164761904D02*
X134919342Y-164714285D01*
X134919342Y-164714285D02*
X135014580Y-164666666D01*
X135014580Y-164666666D02*
X135062200Y-164619047D01*
X135062200Y-164619047D02*
X135109819Y-164523809D01*
X135109819Y-164523809D02*
X135109819Y-164428571D01*
X135109819Y-164428571D02*
X135062200Y-164333333D01*
X135062200Y-164333333D02*
X135014580Y-164285714D01*
X135014580Y-164285714D02*
X134919342Y-164238095D01*
X134919342Y-164238095D02*
X134728866Y-164190476D01*
X134728866Y-164190476D02*
X134490771Y-164190476D01*
X134490771Y-164190476D02*
X134300295Y-164238095D01*
X134300295Y-164238095D02*
X134205057Y-164285714D01*
X134205057Y-164285714D02*
X134157438Y-164333333D01*
X134157438Y-164333333D02*
X134109819Y-164428571D01*
X135014580Y-165761904D02*
X135062200Y-165714285D01*
X135062200Y-165714285D02*
X135109819Y-165571428D01*
X135109819Y-165571428D02*
X135109819Y-165476190D01*
X135109819Y-165476190D02*
X135062200Y-165333333D01*
X135062200Y-165333333D02*
X134966961Y-165238095D01*
X134966961Y-165238095D02*
X134871723Y-165190476D01*
X134871723Y-165190476D02*
X134681247Y-165142857D01*
X134681247Y-165142857D02*
X134538390Y-165142857D01*
X134538390Y-165142857D02*
X134347914Y-165190476D01*
X134347914Y-165190476D02*
X134252676Y-165238095D01*
X134252676Y-165238095D02*
X134157438Y-165333333D01*
X134157438Y-165333333D02*
X134109819Y-165476190D01*
X134109819Y-165476190D02*
X134109819Y-165571428D01*
X134109819Y-165571428D02*
X134157438Y-165714285D01*
X134157438Y-165714285D02*
X134205057Y-165761904D01*
X140020566Y-162253333D02*
X140813900Y-162253333D01*
X140813900Y-162253333D02*
X140907233Y-162300000D01*
X140907233Y-162300000D02*
X140953900Y-162346666D01*
X140953900Y-162346666D02*
X141000566Y-162440000D01*
X141000566Y-162440000D02*
X141000566Y-162626666D01*
X141000566Y-162626666D02*
X140953900Y-162720000D01*
X140953900Y-162720000D02*
X140907233Y-162766666D01*
X140907233Y-162766666D02*
X140813900Y-162813333D01*
X140813900Y-162813333D02*
X140020566Y-162813333D01*
X140113900Y-163233333D02*
X140067233Y-163280000D01*
X140067233Y-163280000D02*
X140020566Y-163373333D01*
X140020566Y-163373333D02*
X140020566Y-163606667D01*
X140020566Y-163606667D02*
X140067233Y-163700000D01*
X140067233Y-163700000D02*
X140113900Y-163746667D01*
X140113900Y-163746667D02*
X140207233Y-163793333D01*
X140207233Y-163793333D02*
X140300566Y-163793333D01*
X140300566Y-163793333D02*
X140440566Y-163746667D01*
X140440566Y-163746667D02*
X141000566Y-163186667D01*
X141000566Y-163186667D02*
X141000566Y-163793333D01*
X120992319Y-149716667D02*
X119992319Y-149716667D01*
X119992319Y-149716667D02*
X120706604Y-150050000D01*
X120706604Y-150050000D02*
X119992319Y-150383333D01*
X119992319Y-150383333D02*
X120992319Y-150383333D01*
X120897080Y-151430952D02*
X120944700Y-151383333D01*
X120944700Y-151383333D02*
X120992319Y-151240476D01*
X120992319Y-151240476D02*
X120992319Y-151145238D01*
X120992319Y-151145238D02*
X120944700Y-151002381D01*
X120944700Y-151002381D02*
X120849461Y-150907143D01*
X120849461Y-150907143D02*
X120754223Y-150859524D01*
X120754223Y-150859524D02*
X120563747Y-150811905D01*
X120563747Y-150811905D02*
X120420890Y-150811905D01*
X120420890Y-150811905D02*
X120230414Y-150859524D01*
X120230414Y-150859524D02*
X120135176Y-150907143D01*
X120135176Y-150907143D02*
X120039938Y-151002381D01*
X120039938Y-151002381D02*
X119992319Y-151145238D01*
X119992319Y-151145238D02*
X119992319Y-151240476D01*
X119992319Y-151240476D02*
X120039938Y-151383333D01*
X120039938Y-151383333D02*
X120087557Y-151430952D01*
X120992319Y-151859524D02*
X119992319Y-151859524D01*
X119992319Y-151859524D02*
X119992319Y-152240476D01*
X119992319Y-152240476D02*
X120039938Y-152335714D01*
X120039938Y-152335714D02*
X120087557Y-152383333D01*
X120087557Y-152383333D02*
X120182795Y-152430952D01*
X120182795Y-152430952D02*
X120325652Y-152430952D01*
X120325652Y-152430952D02*
X120420890Y-152383333D01*
X120420890Y-152383333D02*
X120468509Y-152335714D01*
X120468509Y-152335714D02*
X120516128Y-152240476D01*
X120516128Y-152240476D02*
X120516128Y-151859524D01*
X119992319Y-152764286D02*
X119992319Y-153430952D01*
X119992319Y-153430952D02*
X120992319Y-153002381D01*
X119992319Y-153716667D02*
X119992319Y-154335714D01*
X119992319Y-154335714D02*
X120373271Y-154002381D01*
X120373271Y-154002381D02*
X120373271Y-154145238D01*
X120373271Y-154145238D02*
X120420890Y-154240476D01*
X120420890Y-154240476D02*
X120468509Y-154288095D01*
X120468509Y-154288095D02*
X120563747Y-154335714D01*
X120563747Y-154335714D02*
X120801842Y-154335714D01*
X120801842Y-154335714D02*
X120897080Y-154288095D01*
X120897080Y-154288095D02*
X120944700Y-154240476D01*
X120944700Y-154240476D02*
X120992319Y-154145238D01*
X120992319Y-154145238D02*
X120992319Y-153859524D01*
X120992319Y-153859524D02*
X120944700Y-153764286D01*
X120944700Y-153764286D02*
X120897080Y-153716667D01*
X120420890Y-154907143D02*
X120373271Y-154811905D01*
X120373271Y-154811905D02*
X120325652Y-154764286D01*
X120325652Y-154764286D02*
X120230414Y-154716667D01*
X120230414Y-154716667D02*
X120182795Y-154716667D01*
X120182795Y-154716667D02*
X120087557Y-154764286D01*
X120087557Y-154764286D02*
X120039938Y-154811905D01*
X120039938Y-154811905D02*
X119992319Y-154907143D01*
X119992319Y-154907143D02*
X119992319Y-155097619D01*
X119992319Y-155097619D02*
X120039938Y-155192857D01*
X120039938Y-155192857D02*
X120087557Y-155240476D01*
X120087557Y-155240476D02*
X120182795Y-155288095D01*
X120182795Y-155288095D02*
X120230414Y-155288095D01*
X120230414Y-155288095D02*
X120325652Y-155240476D01*
X120325652Y-155240476D02*
X120373271Y-155192857D01*
X120373271Y-155192857D02*
X120420890Y-155097619D01*
X120420890Y-155097619D02*
X120420890Y-154907143D01*
X120420890Y-154907143D02*
X120468509Y-154811905D01*
X120468509Y-154811905D02*
X120516128Y-154764286D01*
X120516128Y-154764286D02*
X120611366Y-154716667D01*
X120611366Y-154716667D02*
X120801842Y-154716667D01*
X120801842Y-154716667D02*
X120897080Y-154764286D01*
X120897080Y-154764286D02*
X120944700Y-154811905D01*
X120944700Y-154811905D02*
X120992319Y-154907143D01*
X120992319Y-154907143D02*
X120992319Y-155097619D01*
X120992319Y-155097619D02*
X120944700Y-155192857D01*
X120944700Y-155192857D02*
X120897080Y-155240476D01*
X120897080Y-155240476D02*
X120801842Y-155288095D01*
X120801842Y-155288095D02*
X120611366Y-155288095D01*
X120611366Y-155288095D02*
X120516128Y-155240476D01*
X120516128Y-155240476D02*
X120468509Y-155192857D01*
X120468509Y-155192857D02*
X120420890Y-155097619D01*
X119992319Y-155621429D02*
X119992319Y-156240476D01*
X119992319Y-156240476D02*
X120373271Y-155907143D01*
X120373271Y-155907143D02*
X120373271Y-156050000D01*
X120373271Y-156050000D02*
X120420890Y-156145238D01*
X120420890Y-156145238D02*
X120468509Y-156192857D01*
X120468509Y-156192857D02*
X120563747Y-156240476D01*
X120563747Y-156240476D02*
X120801842Y-156240476D01*
X120801842Y-156240476D02*
X120897080Y-156192857D01*
X120897080Y-156192857D02*
X120944700Y-156145238D01*
X120944700Y-156145238D02*
X120992319Y-156050000D01*
X120992319Y-156050000D02*
X120992319Y-155764286D01*
X120992319Y-155764286D02*
X120944700Y-155669048D01*
X120944700Y-155669048D02*
X120897080Y-155621429D01*
X120992319Y-157192857D02*
X120992319Y-156621429D01*
X120992319Y-156907143D02*
X119992319Y-156907143D01*
X119992319Y-156907143D02*
X120135176Y-156811905D01*
X120135176Y-156811905D02*
X120230414Y-156716667D01*
X120230414Y-156716667D02*
X120278033Y-156621429D01*
X120611366Y-157621429D02*
X120611366Y-158383334D01*
X120087557Y-158811905D02*
X120039938Y-158859524D01*
X120039938Y-158859524D02*
X119992319Y-158954762D01*
X119992319Y-158954762D02*
X119992319Y-159192857D01*
X119992319Y-159192857D02*
X120039938Y-159288095D01*
X120039938Y-159288095D02*
X120087557Y-159335714D01*
X120087557Y-159335714D02*
X120182795Y-159383333D01*
X120182795Y-159383333D02*
X120278033Y-159383333D01*
X120278033Y-159383333D02*
X120420890Y-159335714D01*
X120420890Y-159335714D02*
X120992319Y-158764286D01*
X120992319Y-158764286D02*
X120992319Y-159383333D01*
X120611366Y-159811905D02*
X120611366Y-160573810D01*
X119992319Y-161240476D02*
X119992319Y-161430952D01*
X119992319Y-161430952D02*
X120039938Y-161526190D01*
X120039938Y-161526190D02*
X120135176Y-161621428D01*
X120135176Y-161621428D02*
X120325652Y-161669047D01*
X120325652Y-161669047D02*
X120658985Y-161669047D01*
X120658985Y-161669047D02*
X120849461Y-161621428D01*
X120849461Y-161621428D02*
X120944700Y-161526190D01*
X120944700Y-161526190D02*
X120992319Y-161430952D01*
X120992319Y-161430952D02*
X120992319Y-161240476D01*
X120992319Y-161240476D02*
X120944700Y-161145238D01*
X120944700Y-161145238D02*
X120849461Y-161050000D01*
X120849461Y-161050000D02*
X120658985Y-161002381D01*
X120658985Y-161002381D02*
X120325652Y-161002381D01*
X120325652Y-161002381D02*
X120135176Y-161050000D01*
X120135176Y-161050000D02*
X120039938Y-161145238D01*
X120039938Y-161145238D02*
X119992319Y-161240476D01*
X119992319Y-161954762D02*
X119992319Y-162526190D01*
X120992319Y-162240476D02*
X119992319Y-162240476D01*
D15*
X117919427Y-155745238D02*
X118243237Y-155745238D01*
X118243237Y-155745238D02*
X118281332Y-155764285D01*
X118281332Y-155764285D02*
X118300380Y-155783333D01*
X118300380Y-155783333D02*
X118319427Y-155821428D01*
X118319427Y-155821428D02*
X118319427Y-155897619D01*
X118319427Y-155897619D02*
X118300380Y-155935714D01*
X118300380Y-155935714D02*
X118281332Y-155954761D01*
X118281332Y-155954761D02*
X118243237Y-155973809D01*
X118243237Y-155973809D02*
X117919427Y-155973809D01*
X117919427Y-156126190D02*
X117919427Y-156373809D01*
X117919427Y-156373809D02*
X118071808Y-156240476D01*
X118071808Y-156240476D02*
X118071808Y-156297619D01*
X118071808Y-156297619D02*
X118090856Y-156335714D01*
X118090856Y-156335714D02*
X118109903Y-156354762D01*
X118109903Y-156354762D02*
X118147999Y-156373809D01*
X118147999Y-156373809D02*
X118243237Y-156373809D01*
X118243237Y-156373809D02*
X118281332Y-156354762D01*
X118281332Y-156354762D02*
X118300380Y-156335714D01*
X118300380Y-156335714D02*
X118319427Y-156297619D01*
X118319427Y-156297619D02*
X118319427Y-156183333D01*
X118319427Y-156183333D02*
X118300380Y-156145238D01*
X118300380Y-156145238D02*
X118281332Y-156126190D01*
D10*
X138104819Y-168744642D02*
X138104819Y-168268452D01*
X138104819Y-168268452D02*
X138581009Y-168220833D01*
X138581009Y-168220833D02*
X138533390Y-168268452D01*
X138533390Y-168268452D02*
X138485771Y-168363690D01*
X138485771Y-168363690D02*
X138485771Y-168601785D01*
X138485771Y-168601785D02*
X138533390Y-168697023D01*
X138533390Y-168697023D02*
X138581009Y-168744642D01*
X138581009Y-168744642D02*
X138676247Y-168792261D01*
X138676247Y-168792261D02*
X138914342Y-168792261D01*
X138914342Y-168792261D02*
X139009580Y-168744642D01*
X139009580Y-168744642D02*
X139057200Y-168697023D01*
X139057200Y-168697023D02*
X139104819Y-168601785D01*
X139104819Y-168601785D02*
X139104819Y-168363690D01*
X139104819Y-168363690D02*
X139057200Y-168268452D01*
X139057200Y-168268452D02*
X139009580Y-168220833D01*
X139104819Y-169220833D02*
X138104819Y-169220833D01*
X138723866Y-169316071D02*
X139104819Y-169601785D01*
X138438152Y-169601785D02*
X138819104Y-169220833D01*
X139104819Y-170554166D02*
X139104819Y-169982738D01*
X139104819Y-170268452D02*
X138104819Y-170268452D01*
X138104819Y-170268452D02*
X138247676Y-170173214D01*
X138247676Y-170173214D02*
X138342914Y-170077976D01*
X138342914Y-170077976D02*
X138390533Y-169982738D01*
D13*
X137227149Y-169304166D02*
X136989054Y-169137500D01*
X137227149Y-169018452D02*
X136727149Y-169018452D01*
X136727149Y-169018452D02*
X136727149Y-169208928D01*
X136727149Y-169208928D02*
X136750959Y-169256547D01*
X136750959Y-169256547D02*
X136774768Y-169280357D01*
X136774768Y-169280357D02*
X136822387Y-169304166D01*
X136822387Y-169304166D02*
X136893816Y-169304166D01*
X136893816Y-169304166D02*
X136941435Y-169280357D01*
X136941435Y-169280357D02*
X136965244Y-169256547D01*
X136965244Y-169256547D02*
X136989054Y-169208928D01*
X136989054Y-169208928D02*
X136989054Y-169018452D01*
X136727149Y-169732738D02*
X136727149Y-169637500D01*
X136727149Y-169637500D02*
X136750959Y-169589881D01*
X136750959Y-169589881D02*
X136774768Y-169566071D01*
X136774768Y-169566071D02*
X136846197Y-169518452D01*
X136846197Y-169518452D02*
X136941435Y-169494643D01*
X136941435Y-169494643D02*
X137131911Y-169494643D01*
X137131911Y-169494643D02*
X137179530Y-169518452D01*
X137179530Y-169518452D02*
X137203340Y-169542262D01*
X137203340Y-169542262D02*
X137227149Y-169589881D01*
X137227149Y-169589881D02*
X137227149Y-169685119D01*
X137227149Y-169685119D02*
X137203340Y-169732738D01*
X137203340Y-169732738D02*
X137179530Y-169756547D01*
X137179530Y-169756547D02*
X137131911Y-169780357D01*
X137131911Y-169780357D02*
X137012863Y-169780357D01*
X137012863Y-169780357D02*
X136965244Y-169756547D01*
X136965244Y-169756547D02*
X136941435Y-169732738D01*
X136941435Y-169732738D02*
X136917625Y-169685119D01*
X136917625Y-169685119D02*
X136917625Y-169589881D01*
X136917625Y-169589881D02*
X136941435Y-169542262D01*
X136941435Y-169542262D02*
X136965244Y-169518452D01*
X136965244Y-169518452D02*
X137012863Y-169494643D01*
D10*
X119608152Y-155095238D02*
X120274819Y-155095238D01*
X119227200Y-154857143D02*
X119941485Y-154619048D01*
X119941485Y-154619048D02*
X119941485Y-155238095D01*
X120179580Y-155619048D02*
X120227200Y-155666667D01*
X120227200Y-155666667D02*
X120274819Y-155619048D01*
X120274819Y-155619048D02*
X120227200Y-155571429D01*
X120227200Y-155571429D02*
X120179580Y-155619048D01*
X120179580Y-155619048D02*
X120274819Y-155619048D01*
X119274819Y-156000000D02*
X119274819Y-156666666D01*
X119274819Y-156666666D02*
X120274819Y-156238095D01*
X119608152Y-157476190D02*
X120274819Y-157476190D01*
X119608152Y-157047619D02*
X120131961Y-157047619D01*
X120131961Y-157047619D02*
X120227200Y-157095238D01*
X120227200Y-157095238D02*
X120274819Y-157190476D01*
X120274819Y-157190476D02*
X120274819Y-157333333D01*
X120274819Y-157333333D02*
X120227200Y-157428571D01*
X120227200Y-157428571D02*
X120179580Y-157476190D01*
X119751009Y-158285714D02*
X119751009Y-157952381D01*
X120274819Y-157952381D02*
X119274819Y-157952381D01*
X119274819Y-157952381D02*
X119274819Y-158428571D01*
D13*
X121679530Y-156178571D02*
X121703340Y-156154762D01*
X121703340Y-156154762D02*
X121727149Y-156083333D01*
X121727149Y-156083333D02*
X121727149Y-156035714D01*
X121727149Y-156035714D02*
X121703340Y-155964286D01*
X121703340Y-155964286D02*
X121655720Y-155916667D01*
X121655720Y-155916667D02*
X121608101Y-155892857D01*
X121608101Y-155892857D02*
X121512863Y-155869048D01*
X121512863Y-155869048D02*
X121441435Y-155869048D01*
X121441435Y-155869048D02*
X121346197Y-155892857D01*
X121346197Y-155892857D02*
X121298578Y-155916667D01*
X121298578Y-155916667D02*
X121250959Y-155964286D01*
X121250959Y-155964286D02*
X121227149Y-156035714D01*
X121227149Y-156035714D02*
X121227149Y-156083333D01*
X121227149Y-156083333D02*
X121250959Y-156154762D01*
X121250959Y-156154762D02*
X121274768Y-156178571D01*
X121274768Y-156369048D02*
X121250959Y-156392857D01*
X121250959Y-156392857D02*
X121227149Y-156440476D01*
X121227149Y-156440476D02*
X121227149Y-156559524D01*
X121227149Y-156559524D02*
X121250959Y-156607143D01*
X121250959Y-156607143D02*
X121274768Y-156630952D01*
X121274768Y-156630952D02*
X121322387Y-156654762D01*
X121322387Y-156654762D02*
X121370006Y-156654762D01*
X121370006Y-156654762D02*
X121441435Y-156630952D01*
X121441435Y-156630952D02*
X121727149Y-156345238D01*
X121727149Y-156345238D02*
X121727149Y-156654762D01*
X121727149Y-157130952D02*
X121727149Y-156845238D01*
X121727149Y-156988095D02*
X121227149Y-156988095D01*
X121227149Y-156988095D02*
X121298578Y-156940476D01*
X121298578Y-156940476D02*
X121346197Y-156892857D01*
X121346197Y-156892857D02*
X121370006Y-156845238D01*
D10*
X122404762Y-143904819D02*
X122880952Y-143904819D01*
X122880952Y-143904819D02*
X122880952Y-142904819D01*
X122071428Y-143904819D02*
X122071428Y-143238152D01*
X122071428Y-142904819D02*
X122119047Y-142952438D01*
X122119047Y-142952438D02*
X122071428Y-143000057D01*
X122071428Y-143000057D02*
X122023809Y-142952438D01*
X122023809Y-142952438D02*
X122071428Y-142904819D01*
X122071428Y-142904819D02*
X122071428Y-143000057D01*
X121595238Y-143238152D02*
X121595238Y-144238152D01*
X121595238Y-143285771D02*
X121500000Y-143238152D01*
X121500000Y-143238152D02*
X121309524Y-143238152D01*
X121309524Y-143238152D02*
X121214286Y-143285771D01*
X121214286Y-143285771D02*
X121166667Y-143333390D01*
X121166667Y-143333390D02*
X121119048Y-143428628D01*
X121119048Y-143428628D02*
X121119048Y-143714342D01*
X121119048Y-143714342D02*
X121166667Y-143809580D01*
X121166667Y-143809580D02*
X121214286Y-143857200D01*
X121214286Y-143857200D02*
X121309524Y-143904819D01*
X121309524Y-143904819D02*
X121500000Y-143904819D01*
X121500000Y-143904819D02*
X121595238Y-143857200D01*
X120547619Y-143904819D02*
X120642857Y-143857200D01*
X120642857Y-143857200D02*
X120690476Y-143809580D01*
X120690476Y-143809580D02*
X120738095Y-143714342D01*
X120738095Y-143714342D02*
X120738095Y-143428628D01*
X120738095Y-143428628D02*
X120690476Y-143333390D01*
X120690476Y-143333390D02*
X120642857Y-143285771D01*
X120642857Y-143285771D02*
X120547619Y-143238152D01*
X120547619Y-143238152D02*
X120404762Y-143238152D01*
X120404762Y-143238152D02*
X120309524Y-143285771D01*
X120309524Y-143285771D02*
X120261905Y-143333390D01*
X120261905Y-143333390D02*
X120214286Y-143428628D01*
X120214286Y-143428628D02*
X120214286Y-143714342D01*
X120214286Y-143714342D02*
X120261905Y-143809580D01*
X120261905Y-143809580D02*
X120309524Y-143857200D01*
X120309524Y-143857200D02*
X120404762Y-143904819D01*
X120404762Y-143904819D02*
X120547619Y-143904819D01*
X118595238Y-143857200D02*
X118690476Y-143904819D01*
X118690476Y-143904819D02*
X118880952Y-143904819D01*
X118880952Y-143904819D02*
X118976190Y-143857200D01*
X118976190Y-143857200D02*
X119023809Y-143809580D01*
X119023809Y-143809580D02*
X119071428Y-143714342D01*
X119071428Y-143714342D02*
X119071428Y-143428628D01*
X119071428Y-143428628D02*
X119023809Y-143333390D01*
X119023809Y-143333390D02*
X118976190Y-143285771D01*
X118976190Y-143285771D02*
X118880952Y-143238152D01*
X118880952Y-143238152D02*
X118690476Y-143238152D01*
X118690476Y-143238152D02*
X118595238Y-143285771D01*
X118023809Y-143904819D02*
X118119047Y-143857200D01*
X118119047Y-143857200D02*
X118166666Y-143809580D01*
X118166666Y-143809580D02*
X118214285Y-143714342D01*
X118214285Y-143714342D02*
X118214285Y-143428628D01*
X118214285Y-143428628D02*
X118166666Y-143333390D01*
X118166666Y-143333390D02*
X118119047Y-143285771D01*
X118119047Y-143285771D02*
X118023809Y-143238152D01*
X118023809Y-143238152D02*
X117880952Y-143238152D01*
X117880952Y-143238152D02*
X117785714Y-143285771D01*
X117785714Y-143285771D02*
X117738095Y-143333390D01*
X117738095Y-143333390D02*
X117690476Y-143428628D01*
X117690476Y-143428628D02*
X117690476Y-143714342D01*
X117690476Y-143714342D02*
X117738095Y-143809580D01*
X117738095Y-143809580D02*
X117785714Y-143857200D01*
X117785714Y-143857200D02*
X117880952Y-143904819D01*
X117880952Y-143904819D02*
X118023809Y-143904819D01*
X117261904Y-143238152D02*
X117261904Y-143904819D01*
X117261904Y-143333390D02*
X117214285Y-143285771D01*
X117214285Y-143285771D02*
X117119047Y-143238152D01*
X117119047Y-143238152D02*
X116976190Y-143238152D01*
X116976190Y-143238152D02*
X116880952Y-143285771D01*
X116880952Y-143285771D02*
X116833333Y-143381009D01*
X116833333Y-143381009D02*
X116833333Y-143904819D01*
X116357142Y-143238152D02*
X116357142Y-143904819D01*
X116357142Y-143333390D02*
X116309523Y-143285771D01*
X116309523Y-143285771D02*
X116214285Y-143238152D01*
X116214285Y-143238152D02*
X116071428Y-143238152D01*
X116071428Y-143238152D02*
X115976190Y-143285771D01*
X115976190Y-143285771D02*
X115928571Y-143381009D01*
X115928571Y-143381009D02*
X115928571Y-143904819D01*
X115071428Y-143857200D02*
X115166666Y-143904819D01*
X115166666Y-143904819D02*
X115357142Y-143904819D01*
X115357142Y-143904819D02*
X115452380Y-143857200D01*
X115452380Y-143857200D02*
X115499999Y-143761961D01*
X115499999Y-143761961D02*
X115499999Y-143381009D01*
X115499999Y-143381009D02*
X115452380Y-143285771D01*
X115452380Y-143285771D02*
X115357142Y-143238152D01*
X115357142Y-143238152D02*
X115166666Y-143238152D01*
X115166666Y-143238152D02*
X115071428Y-143285771D01*
X115071428Y-143285771D02*
X115023809Y-143381009D01*
X115023809Y-143381009D02*
X115023809Y-143476247D01*
X115023809Y-143476247D02*
X115499999Y-143571485D01*
X114166666Y-143857200D02*
X114261904Y-143904819D01*
X114261904Y-143904819D02*
X114452380Y-143904819D01*
X114452380Y-143904819D02*
X114547618Y-143857200D01*
X114547618Y-143857200D02*
X114595237Y-143809580D01*
X114595237Y-143809580D02*
X114642856Y-143714342D01*
X114642856Y-143714342D02*
X114642856Y-143428628D01*
X114642856Y-143428628D02*
X114595237Y-143333390D01*
X114595237Y-143333390D02*
X114547618Y-143285771D01*
X114547618Y-143285771D02*
X114452380Y-143238152D01*
X114452380Y-143238152D02*
X114261904Y-143238152D01*
X114261904Y-143238152D02*
X114166666Y-143285771D01*
X113880951Y-143238152D02*
X113499999Y-143238152D01*
X113738094Y-142904819D02*
X113738094Y-143761961D01*
X113738094Y-143761961D02*
X113690475Y-143857200D01*
X113690475Y-143857200D02*
X113595237Y-143904819D01*
X113595237Y-143904819D02*
X113499999Y-143904819D01*
X113023808Y-143904819D02*
X113119046Y-143857200D01*
X113119046Y-143857200D02*
X113166665Y-143809580D01*
X113166665Y-143809580D02*
X113214284Y-143714342D01*
X113214284Y-143714342D02*
X113214284Y-143428628D01*
X113214284Y-143428628D02*
X113166665Y-143333390D01*
X113166665Y-143333390D02*
X113119046Y-143285771D01*
X113119046Y-143285771D02*
X113023808Y-143238152D01*
X113023808Y-143238152D02*
X112880951Y-143238152D01*
X112880951Y-143238152D02*
X112785713Y-143285771D01*
X112785713Y-143285771D02*
X112738094Y-143333390D01*
X112738094Y-143333390D02*
X112690475Y-143428628D01*
X112690475Y-143428628D02*
X112690475Y-143714342D01*
X112690475Y-143714342D02*
X112738094Y-143809580D01*
X112738094Y-143809580D02*
X112785713Y-143857200D01*
X112785713Y-143857200D02*
X112880951Y-143904819D01*
X112880951Y-143904819D02*
X113023808Y-143904819D01*
X112261903Y-143904819D02*
X112261903Y-143238152D01*
X112261903Y-143428628D02*
X112214284Y-143333390D01*
X112214284Y-143333390D02*
X112166665Y-143285771D01*
X112166665Y-143285771D02*
X112071427Y-143238152D01*
X112071427Y-143238152D02*
X111976189Y-143238152D01*
X117833333Y-137954819D02*
X117833333Y-138669104D01*
X117833333Y-138669104D02*
X117880952Y-138811961D01*
X117880952Y-138811961D02*
X117976190Y-138907200D01*
X117976190Y-138907200D02*
X118119047Y-138954819D01*
X118119047Y-138954819D02*
X118214285Y-138954819D01*
X117452380Y-137954819D02*
X116833333Y-137954819D01*
X116833333Y-137954819D02*
X117166666Y-138335771D01*
X117166666Y-138335771D02*
X117023809Y-138335771D01*
X117023809Y-138335771D02*
X116928571Y-138383390D01*
X116928571Y-138383390D02*
X116880952Y-138431009D01*
X116880952Y-138431009D02*
X116833333Y-138526247D01*
X116833333Y-138526247D02*
X116833333Y-138764342D01*
X116833333Y-138764342D02*
X116880952Y-138859580D01*
X116880952Y-138859580D02*
X116928571Y-138907200D01*
X116928571Y-138907200D02*
X117023809Y-138954819D01*
X117023809Y-138954819D02*
X117309523Y-138954819D01*
X117309523Y-138954819D02*
X117404761Y-138907200D01*
X117404761Y-138907200D02*
X117452380Y-138859580D01*
X133204819Y-126779761D02*
X133204819Y-126208333D01*
X133204819Y-126494047D02*
X132204819Y-126494047D01*
X132204819Y-126494047D02*
X132347676Y-126398809D01*
X132347676Y-126398809D02*
X132442914Y-126303571D01*
X132442914Y-126303571D02*
X132490533Y-126208333D01*
X132204819Y-127398809D02*
X132204819Y-127494047D01*
X132204819Y-127494047D02*
X132252438Y-127589285D01*
X132252438Y-127589285D02*
X132300057Y-127636904D01*
X132300057Y-127636904D02*
X132395295Y-127684523D01*
X132395295Y-127684523D02*
X132585771Y-127732142D01*
X132585771Y-127732142D02*
X132823866Y-127732142D01*
X132823866Y-127732142D02*
X133014342Y-127684523D01*
X133014342Y-127684523D02*
X133109580Y-127636904D01*
X133109580Y-127636904D02*
X133157200Y-127589285D01*
X133157200Y-127589285D02*
X133204819Y-127494047D01*
X133204819Y-127494047D02*
X133204819Y-127398809D01*
X133204819Y-127398809D02*
X133157200Y-127303571D01*
X133157200Y-127303571D02*
X133109580Y-127255952D01*
X133109580Y-127255952D02*
X133014342Y-127208333D01*
X133014342Y-127208333D02*
X132823866Y-127160714D01*
X132823866Y-127160714D02*
X132585771Y-127160714D01*
X132585771Y-127160714D02*
X132395295Y-127208333D01*
X132395295Y-127208333D02*
X132300057Y-127255952D01*
X132300057Y-127255952D02*
X132252438Y-127303571D01*
X132252438Y-127303571D02*
X132204819Y-127398809D01*
X133204819Y-128160714D02*
X132204819Y-128160714D01*
X132823866Y-128255952D02*
X133204819Y-128541666D01*
X132538152Y-128541666D02*
X132919104Y-128160714D01*
D13*
X131327149Y-127291666D02*
X131089054Y-127125000D01*
X131327149Y-127005952D02*
X130827149Y-127005952D01*
X130827149Y-127005952D02*
X130827149Y-127196428D01*
X130827149Y-127196428D02*
X130850959Y-127244047D01*
X130850959Y-127244047D02*
X130874768Y-127267857D01*
X130874768Y-127267857D02*
X130922387Y-127291666D01*
X130922387Y-127291666D02*
X130993816Y-127291666D01*
X130993816Y-127291666D02*
X131041435Y-127267857D01*
X131041435Y-127267857D02*
X131065244Y-127244047D01*
X131065244Y-127244047D02*
X131089054Y-127196428D01*
X131089054Y-127196428D02*
X131089054Y-127005952D01*
X131327149Y-127529762D02*
X131327149Y-127625000D01*
X131327149Y-127625000D02*
X131303340Y-127672619D01*
X131303340Y-127672619D02*
X131279530Y-127696428D01*
X131279530Y-127696428D02*
X131208101Y-127744047D01*
X131208101Y-127744047D02*
X131112863Y-127767857D01*
X131112863Y-127767857D02*
X130922387Y-127767857D01*
X130922387Y-127767857D02*
X130874768Y-127744047D01*
X130874768Y-127744047D02*
X130850959Y-127720238D01*
X130850959Y-127720238D02*
X130827149Y-127672619D01*
X130827149Y-127672619D02*
X130827149Y-127577381D01*
X130827149Y-127577381D02*
X130850959Y-127529762D01*
X130850959Y-127529762D02*
X130874768Y-127505952D01*
X130874768Y-127505952D02*
X130922387Y-127482143D01*
X130922387Y-127482143D02*
X131041435Y-127482143D01*
X131041435Y-127482143D02*
X131089054Y-127505952D01*
X131089054Y-127505952D02*
X131112863Y-127529762D01*
X131112863Y-127529762D02*
X131136673Y-127577381D01*
X131136673Y-127577381D02*
X131136673Y-127672619D01*
X131136673Y-127672619D02*
X131112863Y-127720238D01*
X131112863Y-127720238D02*
X131089054Y-127744047D01*
X131089054Y-127744047D02*
X131041435Y-127767857D01*
D10*
X110434819Y-141254761D02*
X110434819Y-140683333D01*
X110434819Y-140969047D02*
X109434819Y-140969047D01*
X109434819Y-140969047D02*
X109577676Y-140873809D01*
X109577676Y-140873809D02*
X109672914Y-140778571D01*
X109672914Y-140778571D02*
X109720533Y-140683333D01*
X109768152Y-142111904D02*
X110434819Y-142111904D01*
X109768152Y-141683333D02*
X110291961Y-141683333D01*
X110291961Y-141683333D02*
X110387200Y-141730952D01*
X110387200Y-141730952D02*
X110434819Y-141826190D01*
X110434819Y-141826190D02*
X110434819Y-141969047D01*
X110434819Y-141969047D02*
X110387200Y-142064285D01*
X110387200Y-142064285D02*
X110339580Y-142111904D01*
X109911009Y-142921428D02*
X109911009Y-142588095D01*
X110434819Y-142588095D02*
X109434819Y-142588095D01*
X109434819Y-142588095D02*
X109434819Y-143064285D01*
D13*
X108479530Y-141528571D02*
X108503340Y-141504762D01*
X108503340Y-141504762D02*
X108527149Y-141433333D01*
X108527149Y-141433333D02*
X108527149Y-141385714D01*
X108527149Y-141385714D02*
X108503340Y-141314286D01*
X108503340Y-141314286D02*
X108455720Y-141266667D01*
X108455720Y-141266667D02*
X108408101Y-141242857D01*
X108408101Y-141242857D02*
X108312863Y-141219048D01*
X108312863Y-141219048D02*
X108241435Y-141219048D01*
X108241435Y-141219048D02*
X108146197Y-141242857D01*
X108146197Y-141242857D02*
X108098578Y-141266667D01*
X108098578Y-141266667D02*
X108050959Y-141314286D01*
X108050959Y-141314286D02*
X108027149Y-141385714D01*
X108027149Y-141385714D02*
X108027149Y-141433333D01*
X108027149Y-141433333D02*
X108050959Y-141504762D01*
X108050959Y-141504762D02*
X108074768Y-141528571D01*
X108074768Y-141719048D02*
X108050959Y-141742857D01*
X108050959Y-141742857D02*
X108027149Y-141790476D01*
X108027149Y-141790476D02*
X108027149Y-141909524D01*
X108027149Y-141909524D02*
X108050959Y-141957143D01*
X108050959Y-141957143D02*
X108074768Y-141980952D01*
X108074768Y-141980952D02*
X108122387Y-142004762D01*
X108122387Y-142004762D02*
X108170006Y-142004762D01*
X108170006Y-142004762D02*
X108241435Y-141980952D01*
X108241435Y-141980952D02*
X108527149Y-141695238D01*
X108527149Y-141695238D02*
X108527149Y-142004762D01*
X108027149Y-142314285D02*
X108027149Y-142361904D01*
X108027149Y-142361904D02*
X108050959Y-142409523D01*
X108050959Y-142409523D02*
X108074768Y-142433333D01*
X108074768Y-142433333D02*
X108122387Y-142457142D01*
X108122387Y-142457142D02*
X108217625Y-142480952D01*
X108217625Y-142480952D02*
X108336673Y-142480952D01*
X108336673Y-142480952D02*
X108431911Y-142457142D01*
X108431911Y-142457142D02*
X108479530Y-142433333D01*
X108479530Y-142433333D02*
X108503340Y-142409523D01*
X108503340Y-142409523D02*
X108527149Y-142361904D01*
X108527149Y-142361904D02*
X108527149Y-142314285D01*
X108527149Y-142314285D02*
X108503340Y-142266666D01*
X108503340Y-142266666D02*
X108479530Y-142242857D01*
X108479530Y-142242857D02*
X108431911Y-142219047D01*
X108431911Y-142219047D02*
X108336673Y-142195238D01*
X108336673Y-142195238D02*
X108217625Y-142195238D01*
X108217625Y-142195238D02*
X108122387Y-142219047D01*
X108122387Y-142219047D02*
X108074768Y-142242857D01*
X108074768Y-142242857D02*
X108050959Y-142266666D01*
X108050959Y-142266666D02*
X108027149Y-142314285D01*
D10*
X145774819Y-159477380D02*
X145774819Y-158905952D01*
X145774819Y-159191666D02*
X144774819Y-159191666D01*
X144774819Y-159191666D02*
X144917676Y-159096428D01*
X144917676Y-159096428D02*
X145012914Y-159001190D01*
X145012914Y-159001190D02*
X145060533Y-158905952D01*
X144774819Y-160096428D02*
X144774819Y-160191666D01*
X144774819Y-160191666D02*
X144822438Y-160286904D01*
X144822438Y-160286904D02*
X144870057Y-160334523D01*
X144870057Y-160334523D02*
X144965295Y-160382142D01*
X144965295Y-160382142D02*
X145155771Y-160429761D01*
X145155771Y-160429761D02*
X145393866Y-160429761D01*
X145393866Y-160429761D02*
X145584342Y-160382142D01*
X145584342Y-160382142D02*
X145679580Y-160334523D01*
X145679580Y-160334523D02*
X145727200Y-160286904D01*
X145727200Y-160286904D02*
X145774819Y-160191666D01*
X145774819Y-160191666D02*
X145774819Y-160096428D01*
X145774819Y-160096428D02*
X145727200Y-160001190D01*
X145727200Y-160001190D02*
X145679580Y-159953571D01*
X145679580Y-159953571D02*
X145584342Y-159905952D01*
X145584342Y-159905952D02*
X145393866Y-159858333D01*
X145393866Y-159858333D02*
X145155771Y-159858333D01*
X145155771Y-159858333D02*
X144965295Y-159905952D01*
X144965295Y-159905952D02*
X144870057Y-159953571D01*
X144870057Y-159953571D02*
X144822438Y-160001190D01*
X144822438Y-160001190D02*
X144774819Y-160096428D01*
X144774819Y-161048809D02*
X144774819Y-161144047D01*
X144774819Y-161144047D02*
X144822438Y-161239285D01*
X144822438Y-161239285D02*
X144870057Y-161286904D01*
X144870057Y-161286904D02*
X144965295Y-161334523D01*
X144965295Y-161334523D02*
X145155771Y-161382142D01*
X145155771Y-161382142D02*
X145393866Y-161382142D01*
X145393866Y-161382142D02*
X145584342Y-161334523D01*
X145584342Y-161334523D02*
X145679580Y-161286904D01*
X145679580Y-161286904D02*
X145727200Y-161239285D01*
X145727200Y-161239285D02*
X145774819Y-161144047D01*
X145774819Y-161144047D02*
X145774819Y-161048809D01*
X145774819Y-161048809D02*
X145727200Y-160953571D01*
X145727200Y-160953571D02*
X145679580Y-160905952D01*
X145679580Y-160905952D02*
X145584342Y-160858333D01*
X145584342Y-160858333D02*
X145393866Y-160810714D01*
X145393866Y-160810714D02*
X145155771Y-160810714D01*
X145155771Y-160810714D02*
X144965295Y-160858333D01*
X144965295Y-160858333D02*
X144870057Y-160905952D01*
X144870057Y-160905952D02*
X144822438Y-160953571D01*
X144822438Y-160953571D02*
X144774819Y-161048809D01*
X145108152Y-161810714D02*
X145774819Y-161810714D01*
X145203390Y-161810714D02*
X145155771Y-161858333D01*
X145155771Y-161858333D02*
X145108152Y-161953571D01*
X145108152Y-161953571D02*
X145108152Y-162096428D01*
X145108152Y-162096428D02*
X145155771Y-162191666D01*
X145155771Y-162191666D02*
X145251009Y-162239285D01*
X145251009Y-162239285D02*
X145774819Y-162239285D01*
X145251009Y-163048809D02*
X145251009Y-162715476D01*
X145774819Y-162715476D02*
X144774819Y-162715476D01*
X144774819Y-162715476D02*
X144774819Y-163191666D01*
D13*
X147179530Y-160703571D02*
X147203340Y-160679762D01*
X147203340Y-160679762D02*
X147227149Y-160608333D01*
X147227149Y-160608333D02*
X147227149Y-160560714D01*
X147227149Y-160560714D02*
X147203340Y-160489286D01*
X147203340Y-160489286D02*
X147155720Y-160441667D01*
X147155720Y-160441667D02*
X147108101Y-160417857D01*
X147108101Y-160417857D02*
X147012863Y-160394048D01*
X147012863Y-160394048D02*
X146941435Y-160394048D01*
X146941435Y-160394048D02*
X146846197Y-160417857D01*
X146846197Y-160417857D02*
X146798578Y-160441667D01*
X146798578Y-160441667D02*
X146750959Y-160489286D01*
X146750959Y-160489286D02*
X146727149Y-160560714D01*
X146727149Y-160560714D02*
X146727149Y-160608333D01*
X146727149Y-160608333D02*
X146750959Y-160679762D01*
X146750959Y-160679762D02*
X146774768Y-160703571D01*
X146774768Y-160894048D02*
X146750959Y-160917857D01*
X146750959Y-160917857D02*
X146727149Y-160965476D01*
X146727149Y-160965476D02*
X146727149Y-161084524D01*
X146727149Y-161084524D02*
X146750959Y-161132143D01*
X146750959Y-161132143D02*
X146774768Y-161155952D01*
X146774768Y-161155952D02*
X146822387Y-161179762D01*
X146822387Y-161179762D02*
X146870006Y-161179762D01*
X146870006Y-161179762D02*
X146941435Y-161155952D01*
X146941435Y-161155952D02*
X147227149Y-160870238D01*
X147227149Y-160870238D02*
X147227149Y-161179762D01*
X146727149Y-161632142D02*
X146727149Y-161394047D01*
X146727149Y-161394047D02*
X146965244Y-161370238D01*
X146965244Y-161370238D02*
X146941435Y-161394047D01*
X146941435Y-161394047D02*
X146917625Y-161441666D01*
X146917625Y-161441666D02*
X146917625Y-161560714D01*
X146917625Y-161560714D02*
X146941435Y-161608333D01*
X146941435Y-161608333D02*
X146965244Y-161632142D01*
X146965244Y-161632142D02*
X147012863Y-161655952D01*
X147012863Y-161655952D02*
X147131911Y-161655952D01*
X147131911Y-161655952D02*
X147179530Y-161632142D01*
X147179530Y-161632142D02*
X147203340Y-161608333D01*
X147203340Y-161608333D02*
X147227149Y-161560714D01*
X147227149Y-161560714D02*
X147227149Y-161441666D01*
X147227149Y-161441666D02*
X147203340Y-161394047D01*
X147203340Y-161394047D02*
X147179530Y-161370238D01*
D10*
X140804819Y-168744642D02*
X140804819Y-168268452D01*
X140804819Y-168268452D02*
X141281009Y-168220833D01*
X141281009Y-168220833D02*
X141233390Y-168268452D01*
X141233390Y-168268452D02*
X141185771Y-168363690D01*
X141185771Y-168363690D02*
X141185771Y-168601785D01*
X141185771Y-168601785D02*
X141233390Y-168697023D01*
X141233390Y-168697023D02*
X141281009Y-168744642D01*
X141281009Y-168744642D02*
X141376247Y-168792261D01*
X141376247Y-168792261D02*
X141614342Y-168792261D01*
X141614342Y-168792261D02*
X141709580Y-168744642D01*
X141709580Y-168744642D02*
X141757200Y-168697023D01*
X141757200Y-168697023D02*
X141804819Y-168601785D01*
X141804819Y-168601785D02*
X141804819Y-168363690D01*
X141804819Y-168363690D02*
X141757200Y-168268452D01*
X141757200Y-168268452D02*
X141709580Y-168220833D01*
X141804819Y-169220833D02*
X140804819Y-169220833D01*
X141423866Y-169316071D02*
X141804819Y-169601785D01*
X141138152Y-169601785D02*
X141519104Y-169220833D01*
X141804819Y-170554166D02*
X141804819Y-169982738D01*
X141804819Y-170268452D02*
X140804819Y-170268452D01*
X140804819Y-170268452D02*
X140947676Y-170173214D01*
X140947676Y-170173214D02*
X141042914Y-170077976D01*
X141042914Y-170077976D02*
X141090533Y-169982738D01*
D13*
X143227149Y-169304166D02*
X142989054Y-169137500D01*
X143227149Y-169018452D02*
X142727149Y-169018452D01*
X142727149Y-169018452D02*
X142727149Y-169208928D01*
X142727149Y-169208928D02*
X142750959Y-169256547D01*
X142750959Y-169256547D02*
X142774768Y-169280357D01*
X142774768Y-169280357D02*
X142822387Y-169304166D01*
X142822387Y-169304166D02*
X142893816Y-169304166D01*
X142893816Y-169304166D02*
X142941435Y-169280357D01*
X142941435Y-169280357D02*
X142965244Y-169256547D01*
X142965244Y-169256547D02*
X142989054Y-169208928D01*
X142989054Y-169208928D02*
X142989054Y-169018452D01*
X142727149Y-169756547D02*
X142727149Y-169518452D01*
X142727149Y-169518452D02*
X142965244Y-169494643D01*
X142965244Y-169494643D02*
X142941435Y-169518452D01*
X142941435Y-169518452D02*
X142917625Y-169566071D01*
X142917625Y-169566071D02*
X142917625Y-169685119D01*
X142917625Y-169685119D02*
X142941435Y-169732738D01*
X142941435Y-169732738D02*
X142965244Y-169756547D01*
X142965244Y-169756547D02*
X143012863Y-169780357D01*
X143012863Y-169780357D02*
X143131911Y-169780357D01*
X143131911Y-169780357D02*
X143179530Y-169756547D01*
X143179530Y-169756547D02*
X143203340Y-169732738D01*
X143203340Y-169732738D02*
X143227149Y-169685119D01*
X143227149Y-169685119D02*
X143227149Y-169566071D01*
X143227149Y-169566071D02*
X143203340Y-169518452D01*
X143203340Y-169518452D02*
X143179530Y-169494643D01*
D10*
X130704819Y-127779761D02*
X130704819Y-127208333D01*
X130704819Y-127494047D02*
X129704819Y-127494047D01*
X129704819Y-127494047D02*
X129847676Y-127398809D01*
X129847676Y-127398809D02*
X129942914Y-127303571D01*
X129942914Y-127303571D02*
X129990533Y-127208333D01*
X129704819Y-128398809D02*
X129704819Y-128494047D01*
X129704819Y-128494047D02*
X129752438Y-128589285D01*
X129752438Y-128589285D02*
X129800057Y-128636904D01*
X129800057Y-128636904D02*
X129895295Y-128684523D01*
X129895295Y-128684523D02*
X130085771Y-128732142D01*
X130085771Y-128732142D02*
X130323866Y-128732142D01*
X130323866Y-128732142D02*
X130514342Y-128684523D01*
X130514342Y-128684523D02*
X130609580Y-128636904D01*
X130609580Y-128636904D02*
X130657200Y-128589285D01*
X130657200Y-128589285D02*
X130704819Y-128494047D01*
X130704819Y-128494047D02*
X130704819Y-128398809D01*
X130704819Y-128398809D02*
X130657200Y-128303571D01*
X130657200Y-128303571D02*
X130609580Y-128255952D01*
X130609580Y-128255952D02*
X130514342Y-128208333D01*
X130514342Y-128208333D02*
X130323866Y-128160714D01*
X130323866Y-128160714D02*
X130085771Y-128160714D01*
X130085771Y-128160714D02*
X129895295Y-128208333D01*
X129895295Y-128208333D02*
X129800057Y-128255952D01*
X129800057Y-128255952D02*
X129752438Y-128303571D01*
X129752438Y-128303571D02*
X129704819Y-128398809D01*
X130704819Y-129160714D02*
X129704819Y-129160714D01*
X130323866Y-129255952D02*
X130704819Y-129541666D01*
X130038152Y-129541666D02*
X130419104Y-129160714D01*
D13*
X128827149Y-128053571D02*
X128589054Y-127886905D01*
X128827149Y-127767857D02*
X128327149Y-127767857D01*
X128327149Y-127767857D02*
X128327149Y-127958333D01*
X128327149Y-127958333D02*
X128350959Y-128005952D01*
X128350959Y-128005952D02*
X128374768Y-128029762D01*
X128374768Y-128029762D02*
X128422387Y-128053571D01*
X128422387Y-128053571D02*
X128493816Y-128053571D01*
X128493816Y-128053571D02*
X128541435Y-128029762D01*
X128541435Y-128029762D02*
X128565244Y-128005952D01*
X128565244Y-128005952D02*
X128589054Y-127958333D01*
X128589054Y-127958333D02*
X128589054Y-127767857D01*
X128827149Y-128529762D02*
X128827149Y-128244048D01*
X128827149Y-128386905D02*
X128327149Y-128386905D01*
X128327149Y-128386905D02*
X128398578Y-128339286D01*
X128398578Y-128339286D02*
X128446197Y-128291667D01*
X128446197Y-128291667D02*
X128470006Y-128244048D01*
X128827149Y-129005952D02*
X128827149Y-128720238D01*
X128827149Y-128863095D02*
X128327149Y-128863095D01*
X128327149Y-128863095D02*
X128398578Y-128815476D01*
X128398578Y-128815476D02*
X128446197Y-128767857D01*
X128446197Y-128767857D02*
X128470006Y-128720238D01*
D10*
X179684762Y-144777200D02*
X179541905Y-144824819D01*
X179541905Y-144824819D02*
X179303810Y-144824819D01*
X179303810Y-144824819D02*
X179208572Y-144777200D01*
X179208572Y-144777200D02*
X179160953Y-144729580D01*
X179160953Y-144729580D02*
X179113334Y-144634342D01*
X179113334Y-144634342D02*
X179113334Y-144539104D01*
X179113334Y-144539104D02*
X179160953Y-144443866D01*
X179160953Y-144443866D02*
X179208572Y-144396247D01*
X179208572Y-144396247D02*
X179303810Y-144348628D01*
X179303810Y-144348628D02*
X179494286Y-144301009D01*
X179494286Y-144301009D02*
X179589524Y-144253390D01*
X179589524Y-144253390D02*
X179637143Y-144205771D01*
X179637143Y-144205771D02*
X179684762Y-144110533D01*
X179684762Y-144110533D02*
X179684762Y-144015295D01*
X179684762Y-144015295D02*
X179637143Y-143920057D01*
X179637143Y-143920057D02*
X179589524Y-143872438D01*
X179589524Y-143872438D02*
X179494286Y-143824819D01*
X179494286Y-143824819D02*
X179256191Y-143824819D01*
X179256191Y-143824819D02*
X179113334Y-143872438D01*
X178303810Y-144777200D02*
X178399048Y-144824819D01*
X178399048Y-144824819D02*
X178589524Y-144824819D01*
X178589524Y-144824819D02*
X178684762Y-144777200D01*
X178684762Y-144777200D02*
X178732381Y-144681961D01*
X178732381Y-144681961D02*
X178732381Y-144301009D01*
X178732381Y-144301009D02*
X178684762Y-144205771D01*
X178684762Y-144205771D02*
X178589524Y-144158152D01*
X178589524Y-144158152D02*
X178399048Y-144158152D01*
X178399048Y-144158152D02*
X178303810Y-144205771D01*
X178303810Y-144205771D02*
X178256191Y-144301009D01*
X178256191Y-144301009D02*
X178256191Y-144396247D01*
X178256191Y-144396247D02*
X178732381Y-144491485D01*
X177827619Y-144158152D02*
X177827619Y-144824819D01*
X177827619Y-144253390D02*
X177780000Y-144205771D01*
X177780000Y-144205771D02*
X177684762Y-144158152D01*
X177684762Y-144158152D02*
X177541905Y-144158152D01*
X177541905Y-144158152D02*
X177446667Y-144205771D01*
X177446667Y-144205771D02*
X177399048Y-144301009D01*
X177399048Y-144301009D02*
X177399048Y-144824819D01*
X176970476Y-144777200D02*
X176875238Y-144824819D01*
X176875238Y-144824819D02*
X176684762Y-144824819D01*
X176684762Y-144824819D02*
X176589524Y-144777200D01*
X176589524Y-144777200D02*
X176541905Y-144681961D01*
X176541905Y-144681961D02*
X176541905Y-144634342D01*
X176541905Y-144634342D02*
X176589524Y-144539104D01*
X176589524Y-144539104D02*
X176684762Y-144491485D01*
X176684762Y-144491485D02*
X176827619Y-144491485D01*
X176827619Y-144491485D02*
X176922857Y-144443866D01*
X176922857Y-144443866D02*
X176970476Y-144348628D01*
X176970476Y-144348628D02*
X176970476Y-144301009D01*
X176970476Y-144301009D02*
X176922857Y-144205771D01*
X176922857Y-144205771D02*
X176827619Y-144158152D01*
X176827619Y-144158152D02*
X176684762Y-144158152D01*
X176684762Y-144158152D02*
X176589524Y-144205771D01*
X175970476Y-144824819D02*
X176065714Y-144777200D01*
X176065714Y-144777200D02*
X176113333Y-144729580D01*
X176113333Y-144729580D02*
X176160952Y-144634342D01*
X176160952Y-144634342D02*
X176160952Y-144348628D01*
X176160952Y-144348628D02*
X176113333Y-144253390D01*
X176113333Y-144253390D02*
X176065714Y-144205771D01*
X176065714Y-144205771D02*
X175970476Y-144158152D01*
X175970476Y-144158152D02*
X175827619Y-144158152D01*
X175827619Y-144158152D02*
X175732381Y-144205771D01*
X175732381Y-144205771D02*
X175684762Y-144253390D01*
X175684762Y-144253390D02*
X175637143Y-144348628D01*
X175637143Y-144348628D02*
X175637143Y-144634342D01*
X175637143Y-144634342D02*
X175684762Y-144729580D01*
X175684762Y-144729580D02*
X175732381Y-144777200D01*
X175732381Y-144777200D02*
X175827619Y-144824819D01*
X175827619Y-144824819D02*
X175970476Y-144824819D01*
X175208571Y-144824819D02*
X175208571Y-144158152D01*
X175208571Y-144348628D02*
X175160952Y-144253390D01*
X175160952Y-144253390D02*
X175113333Y-144205771D01*
X175113333Y-144205771D02*
X175018095Y-144158152D01*
X175018095Y-144158152D02*
X174922857Y-144158152D01*
X173399047Y-144777200D02*
X173494285Y-144824819D01*
X173494285Y-144824819D02*
X173684761Y-144824819D01*
X173684761Y-144824819D02*
X173779999Y-144777200D01*
X173779999Y-144777200D02*
X173827618Y-144729580D01*
X173827618Y-144729580D02*
X173875237Y-144634342D01*
X173875237Y-144634342D02*
X173875237Y-144348628D01*
X173875237Y-144348628D02*
X173827618Y-144253390D01*
X173827618Y-144253390D02*
X173779999Y-144205771D01*
X173779999Y-144205771D02*
X173684761Y-144158152D01*
X173684761Y-144158152D02*
X173494285Y-144158152D01*
X173494285Y-144158152D02*
X173399047Y-144205771D01*
X172827618Y-144824819D02*
X172922856Y-144777200D01*
X172922856Y-144777200D02*
X172970475Y-144729580D01*
X172970475Y-144729580D02*
X173018094Y-144634342D01*
X173018094Y-144634342D02*
X173018094Y-144348628D01*
X173018094Y-144348628D02*
X172970475Y-144253390D01*
X172970475Y-144253390D02*
X172922856Y-144205771D01*
X172922856Y-144205771D02*
X172827618Y-144158152D01*
X172827618Y-144158152D02*
X172684761Y-144158152D01*
X172684761Y-144158152D02*
X172589523Y-144205771D01*
X172589523Y-144205771D02*
X172541904Y-144253390D01*
X172541904Y-144253390D02*
X172494285Y-144348628D01*
X172494285Y-144348628D02*
X172494285Y-144634342D01*
X172494285Y-144634342D02*
X172541904Y-144729580D01*
X172541904Y-144729580D02*
X172589523Y-144777200D01*
X172589523Y-144777200D02*
X172684761Y-144824819D01*
X172684761Y-144824819D02*
X172827618Y-144824819D01*
X172065713Y-144158152D02*
X172065713Y-144824819D01*
X172065713Y-144253390D02*
X172018094Y-144205771D01*
X172018094Y-144205771D02*
X171922856Y-144158152D01*
X171922856Y-144158152D02*
X171779999Y-144158152D01*
X171779999Y-144158152D02*
X171684761Y-144205771D01*
X171684761Y-144205771D02*
X171637142Y-144301009D01*
X171637142Y-144301009D02*
X171637142Y-144824819D01*
X171160951Y-144158152D02*
X171160951Y-144824819D01*
X171160951Y-144253390D02*
X171113332Y-144205771D01*
X171113332Y-144205771D02*
X171018094Y-144158152D01*
X171018094Y-144158152D02*
X170875237Y-144158152D01*
X170875237Y-144158152D02*
X170779999Y-144205771D01*
X170779999Y-144205771D02*
X170732380Y-144301009D01*
X170732380Y-144301009D02*
X170732380Y-144824819D01*
X169875237Y-144777200D02*
X169970475Y-144824819D01*
X169970475Y-144824819D02*
X170160951Y-144824819D01*
X170160951Y-144824819D02*
X170256189Y-144777200D01*
X170256189Y-144777200D02*
X170303808Y-144681961D01*
X170303808Y-144681961D02*
X170303808Y-144301009D01*
X170303808Y-144301009D02*
X170256189Y-144205771D01*
X170256189Y-144205771D02*
X170160951Y-144158152D01*
X170160951Y-144158152D02*
X169970475Y-144158152D01*
X169970475Y-144158152D02*
X169875237Y-144205771D01*
X169875237Y-144205771D02*
X169827618Y-144301009D01*
X169827618Y-144301009D02*
X169827618Y-144396247D01*
X169827618Y-144396247D02*
X170303808Y-144491485D01*
X168970475Y-144777200D02*
X169065713Y-144824819D01*
X169065713Y-144824819D02*
X169256189Y-144824819D01*
X169256189Y-144824819D02*
X169351427Y-144777200D01*
X169351427Y-144777200D02*
X169399046Y-144729580D01*
X169399046Y-144729580D02*
X169446665Y-144634342D01*
X169446665Y-144634342D02*
X169446665Y-144348628D01*
X169446665Y-144348628D02*
X169399046Y-144253390D01*
X169399046Y-144253390D02*
X169351427Y-144205771D01*
X169351427Y-144205771D02*
X169256189Y-144158152D01*
X169256189Y-144158152D02*
X169065713Y-144158152D01*
X169065713Y-144158152D02*
X168970475Y-144205771D01*
X168684760Y-144158152D02*
X168303808Y-144158152D01*
X168541903Y-143824819D02*
X168541903Y-144681961D01*
X168541903Y-144681961D02*
X168494284Y-144777200D01*
X168494284Y-144777200D02*
X168399046Y-144824819D01*
X168399046Y-144824819D02*
X168303808Y-144824819D01*
X167827617Y-144824819D02*
X167922855Y-144777200D01*
X167922855Y-144777200D02*
X167970474Y-144729580D01*
X167970474Y-144729580D02*
X168018093Y-144634342D01*
X168018093Y-144634342D02*
X168018093Y-144348628D01*
X168018093Y-144348628D02*
X167970474Y-144253390D01*
X167970474Y-144253390D02*
X167922855Y-144205771D01*
X167922855Y-144205771D02*
X167827617Y-144158152D01*
X167827617Y-144158152D02*
X167684760Y-144158152D01*
X167684760Y-144158152D02*
X167589522Y-144205771D01*
X167589522Y-144205771D02*
X167541903Y-144253390D01*
X167541903Y-144253390D02*
X167494284Y-144348628D01*
X167494284Y-144348628D02*
X167494284Y-144634342D01*
X167494284Y-144634342D02*
X167541903Y-144729580D01*
X167541903Y-144729580D02*
X167589522Y-144777200D01*
X167589522Y-144777200D02*
X167684760Y-144824819D01*
X167684760Y-144824819D02*
X167827617Y-144824819D01*
X167065712Y-144824819D02*
X167065712Y-144158152D01*
X167065712Y-144348628D02*
X167018093Y-144253390D01*
X167018093Y-144253390D02*
X166970474Y-144205771D01*
X166970474Y-144205771D02*
X166875236Y-144158152D01*
X166875236Y-144158152D02*
X166779998Y-144158152D01*
X175008333Y-138514819D02*
X175008333Y-139229104D01*
X175008333Y-139229104D02*
X175055952Y-139371961D01*
X175055952Y-139371961D02*
X175151190Y-139467200D01*
X175151190Y-139467200D02*
X175294047Y-139514819D01*
X175294047Y-139514819D02*
X175389285Y-139514819D01*
X174008333Y-139514819D02*
X174579761Y-139514819D01*
X174294047Y-139514819D02*
X174294047Y-138514819D01*
X174294047Y-138514819D02*
X174389285Y-138657676D01*
X174389285Y-138657676D02*
X174484523Y-138752914D01*
X174484523Y-138752914D02*
X174579761Y-138800533D01*
X105711904Y-141354819D02*
X105711904Y-140354819D01*
X105711904Y-140354819D02*
X105473809Y-140354819D01*
X105473809Y-140354819D02*
X105330952Y-140402438D01*
X105330952Y-140402438D02*
X105235714Y-140497676D01*
X105235714Y-140497676D02*
X105188095Y-140592914D01*
X105188095Y-140592914D02*
X105140476Y-140783390D01*
X105140476Y-140783390D02*
X105140476Y-140926247D01*
X105140476Y-140926247D02*
X105188095Y-141116723D01*
X105188095Y-141116723D02*
X105235714Y-141211961D01*
X105235714Y-141211961D02*
X105330952Y-141307200D01*
X105330952Y-141307200D02*
X105473809Y-141354819D01*
X105473809Y-141354819D02*
X105711904Y-141354819D01*
X106764285Y-137604819D02*
X106764285Y-136604819D01*
X106764285Y-136604819D02*
X106526190Y-136604819D01*
X106526190Y-136604819D02*
X106383333Y-136652438D01*
X106383333Y-136652438D02*
X106288095Y-136747676D01*
X106288095Y-136747676D02*
X106240476Y-136842914D01*
X106240476Y-136842914D02*
X106192857Y-137033390D01*
X106192857Y-137033390D02*
X106192857Y-137176247D01*
X106192857Y-137176247D02*
X106240476Y-137366723D01*
X106240476Y-137366723D02*
X106288095Y-137461961D01*
X106288095Y-137461961D02*
X106383333Y-137557200D01*
X106383333Y-137557200D02*
X106526190Y-137604819D01*
X106526190Y-137604819D02*
X106764285Y-137604819D01*
X105240476Y-137604819D02*
X105811904Y-137604819D01*
X105526190Y-137604819D02*
X105526190Y-136604819D01*
X105526190Y-136604819D02*
X105621428Y-136747676D01*
X105621428Y-136747676D02*
X105716666Y-136842914D01*
X105716666Y-136842914D02*
X105811904Y-136890533D01*
X104907142Y-136604819D02*
X104240476Y-136604819D01*
X104240476Y-136604819D02*
X104669047Y-137604819D01*
X136134819Y-163002380D02*
X136134819Y-162430952D01*
X136134819Y-162716666D02*
X135134819Y-162716666D01*
X135134819Y-162716666D02*
X135277676Y-162621428D01*
X135277676Y-162621428D02*
X135372914Y-162526190D01*
X135372914Y-162526190D02*
X135420533Y-162430952D01*
X135134819Y-163621428D02*
X135134819Y-163716666D01*
X135134819Y-163716666D02*
X135182438Y-163811904D01*
X135182438Y-163811904D02*
X135230057Y-163859523D01*
X135230057Y-163859523D02*
X135325295Y-163907142D01*
X135325295Y-163907142D02*
X135515771Y-163954761D01*
X135515771Y-163954761D02*
X135753866Y-163954761D01*
X135753866Y-163954761D02*
X135944342Y-163907142D01*
X135944342Y-163907142D02*
X136039580Y-163859523D01*
X136039580Y-163859523D02*
X136087200Y-163811904D01*
X136087200Y-163811904D02*
X136134819Y-163716666D01*
X136134819Y-163716666D02*
X136134819Y-163621428D01*
X136134819Y-163621428D02*
X136087200Y-163526190D01*
X136087200Y-163526190D02*
X136039580Y-163478571D01*
X136039580Y-163478571D02*
X135944342Y-163430952D01*
X135944342Y-163430952D02*
X135753866Y-163383333D01*
X135753866Y-163383333D02*
X135515771Y-163383333D01*
X135515771Y-163383333D02*
X135325295Y-163430952D01*
X135325295Y-163430952D02*
X135230057Y-163478571D01*
X135230057Y-163478571D02*
X135182438Y-163526190D01*
X135182438Y-163526190D02*
X135134819Y-163621428D01*
X135134819Y-164573809D02*
X135134819Y-164669047D01*
X135134819Y-164669047D02*
X135182438Y-164764285D01*
X135182438Y-164764285D02*
X135230057Y-164811904D01*
X135230057Y-164811904D02*
X135325295Y-164859523D01*
X135325295Y-164859523D02*
X135515771Y-164907142D01*
X135515771Y-164907142D02*
X135753866Y-164907142D01*
X135753866Y-164907142D02*
X135944342Y-164859523D01*
X135944342Y-164859523D02*
X136039580Y-164811904D01*
X136039580Y-164811904D02*
X136087200Y-164764285D01*
X136087200Y-164764285D02*
X136134819Y-164669047D01*
X136134819Y-164669047D02*
X136134819Y-164573809D01*
X136134819Y-164573809D02*
X136087200Y-164478571D01*
X136087200Y-164478571D02*
X136039580Y-164430952D01*
X136039580Y-164430952D02*
X135944342Y-164383333D01*
X135944342Y-164383333D02*
X135753866Y-164335714D01*
X135753866Y-164335714D02*
X135515771Y-164335714D01*
X135515771Y-164335714D02*
X135325295Y-164383333D01*
X135325295Y-164383333D02*
X135230057Y-164430952D01*
X135230057Y-164430952D02*
X135182438Y-164478571D01*
X135182438Y-164478571D02*
X135134819Y-164573809D01*
X135468152Y-165335714D02*
X136134819Y-165335714D01*
X135563390Y-165335714D02*
X135515771Y-165383333D01*
X135515771Y-165383333D02*
X135468152Y-165478571D01*
X135468152Y-165478571D02*
X135468152Y-165621428D01*
X135468152Y-165621428D02*
X135515771Y-165716666D01*
X135515771Y-165716666D02*
X135611009Y-165764285D01*
X135611009Y-165764285D02*
X136134819Y-165764285D01*
X135611009Y-166573809D02*
X135611009Y-166240476D01*
X136134819Y-166240476D02*
X135134819Y-166240476D01*
X135134819Y-166240476D02*
X135134819Y-166716666D01*
D13*
X134179530Y-164228571D02*
X134203340Y-164204762D01*
X134203340Y-164204762D02*
X134227149Y-164133333D01*
X134227149Y-164133333D02*
X134227149Y-164085714D01*
X134227149Y-164085714D02*
X134203340Y-164014286D01*
X134203340Y-164014286D02*
X134155720Y-163966667D01*
X134155720Y-163966667D02*
X134108101Y-163942857D01*
X134108101Y-163942857D02*
X134012863Y-163919048D01*
X134012863Y-163919048D02*
X133941435Y-163919048D01*
X133941435Y-163919048D02*
X133846197Y-163942857D01*
X133846197Y-163942857D02*
X133798578Y-163966667D01*
X133798578Y-163966667D02*
X133750959Y-164014286D01*
X133750959Y-164014286D02*
X133727149Y-164085714D01*
X133727149Y-164085714D02*
X133727149Y-164133333D01*
X133727149Y-164133333D02*
X133750959Y-164204762D01*
X133750959Y-164204762D02*
X133774768Y-164228571D01*
X133774768Y-164419048D02*
X133750959Y-164442857D01*
X133750959Y-164442857D02*
X133727149Y-164490476D01*
X133727149Y-164490476D02*
X133727149Y-164609524D01*
X133727149Y-164609524D02*
X133750959Y-164657143D01*
X133750959Y-164657143D02*
X133774768Y-164680952D01*
X133774768Y-164680952D02*
X133822387Y-164704762D01*
X133822387Y-164704762D02*
X133870006Y-164704762D01*
X133870006Y-164704762D02*
X133941435Y-164680952D01*
X133941435Y-164680952D02*
X134227149Y-164395238D01*
X134227149Y-164395238D02*
X134227149Y-164704762D01*
X133893816Y-165133333D02*
X134227149Y-165133333D01*
X133703340Y-165014285D02*
X134060482Y-164895238D01*
X134060482Y-164895238D02*
X134060482Y-165204761D01*
D10*
X138004819Y-124692261D02*
X138004819Y-124120833D01*
X138004819Y-124406547D02*
X137004819Y-124406547D01*
X137004819Y-124406547D02*
X137147676Y-124311309D01*
X137147676Y-124311309D02*
X137242914Y-124216071D01*
X137242914Y-124216071D02*
X137290533Y-124120833D01*
X137004819Y-125311309D02*
X137004819Y-125406547D01*
X137004819Y-125406547D02*
X137052438Y-125501785D01*
X137052438Y-125501785D02*
X137100057Y-125549404D01*
X137100057Y-125549404D02*
X137195295Y-125597023D01*
X137195295Y-125597023D02*
X137385771Y-125644642D01*
X137385771Y-125644642D02*
X137623866Y-125644642D01*
X137623866Y-125644642D02*
X137814342Y-125597023D01*
X137814342Y-125597023D02*
X137909580Y-125549404D01*
X137909580Y-125549404D02*
X137957200Y-125501785D01*
X137957200Y-125501785D02*
X138004819Y-125406547D01*
X138004819Y-125406547D02*
X138004819Y-125311309D01*
X138004819Y-125311309D02*
X137957200Y-125216071D01*
X137957200Y-125216071D02*
X137909580Y-125168452D01*
X137909580Y-125168452D02*
X137814342Y-125120833D01*
X137814342Y-125120833D02*
X137623866Y-125073214D01*
X137623866Y-125073214D02*
X137385771Y-125073214D01*
X137385771Y-125073214D02*
X137195295Y-125120833D01*
X137195295Y-125120833D02*
X137100057Y-125168452D01*
X137100057Y-125168452D02*
X137052438Y-125216071D01*
X137052438Y-125216071D02*
X137004819Y-125311309D01*
X138004819Y-126073214D02*
X137004819Y-126073214D01*
X137623866Y-126168452D02*
X138004819Y-126454166D01*
X137338152Y-126454166D02*
X137719104Y-126073214D01*
D13*
X136127149Y-125204166D02*
X135889054Y-125037500D01*
X136127149Y-124918452D02*
X135627149Y-124918452D01*
X135627149Y-124918452D02*
X135627149Y-125108928D01*
X135627149Y-125108928D02*
X135650959Y-125156547D01*
X135650959Y-125156547D02*
X135674768Y-125180357D01*
X135674768Y-125180357D02*
X135722387Y-125204166D01*
X135722387Y-125204166D02*
X135793816Y-125204166D01*
X135793816Y-125204166D02*
X135841435Y-125180357D01*
X135841435Y-125180357D02*
X135865244Y-125156547D01*
X135865244Y-125156547D02*
X135889054Y-125108928D01*
X135889054Y-125108928D02*
X135889054Y-124918452D01*
X135674768Y-125394643D02*
X135650959Y-125418452D01*
X135650959Y-125418452D02*
X135627149Y-125466071D01*
X135627149Y-125466071D02*
X135627149Y-125585119D01*
X135627149Y-125585119D02*
X135650959Y-125632738D01*
X135650959Y-125632738D02*
X135674768Y-125656547D01*
X135674768Y-125656547D02*
X135722387Y-125680357D01*
X135722387Y-125680357D02*
X135770006Y-125680357D01*
X135770006Y-125680357D02*
X135841435Y-125656547D01*
X135841435Y-125656547D02*
X136127149Y-125370833D01*
X136127149Y-125370833D02*
X136127149Y-125680357D01*
D10*
X142200057Y-168625595D02*
X142152438Y-168673214D01*
X142152438Y-168673214D02*
X142104819Y-168768452D01*
X142104819Y-168768452D02*
X142104819Y-169006547D01*
X142104819Y-169006547D02*
X142152438Y-169101785D01*
X142152438Y-169101785D02*
X142200057Y-169149404D01*
X142200057Y-169149404D02*
X142295295Y-169197023D01*
X142295295Y-169197023D02*
X142390533Y-169197023D01*
X142390533Y-169197023D02*
X142533390Y-169149404D01*
X142533390Y-169149404D02*
X143104819Y-168577976D01*
X143104819Y-168577976D02*
X143104819Y-169197023D01*
X142200057Y-169577976D02*
X142152438Y-169625595D01*
X142152438Y-169625595D02*
X142104819Y-169720833D01*
X142104819Y-169720833D02*
X142104819Y-169958928D01*
X142104819Y-169958928D02*
X142152438Y-170054166D01*
X142152438Y-170054166D02*
X142200057Y-170101785D01*
X142200057Y-170101785D02*
X142295295Y-170149404D01*
X142295295Y-170149404D02*
X142390533Y-170149404D01*
X142390533Y-170149404D02*
X142533390Y-170101785D01*
X142533390Y-170101785D02*
X143104819Y-169530357D01*
X143104819Y-169530357D02*
X143104819Y-170149404D01*
D13*
X141227149Y-169304166D02*
X140989054Y-169137500D01*
X141227149Y-169018452D02*
X140727149Y-169018452D01*
X140727149Y-169018452D02*
X140727149Y-169208928D01*
X140727149Y-169208928D02*
X140750959Y-169256547D01*
X140750959Y-169256547D02*
X140774768Y-169280357D01*
X140774768Y-169280357D02*
X140822387Y-169304166D01*
X140822387Y-169304166D02*
X140893816Y-169304166D01*
X140893816Y-169304166D02*
X140941435Y-169280357D01*
X140941435Y-169280357D02*
X140965244Y-169256547D01*
X140965244Y-169256547D02*
X140989054Y-169208928D01*
X140989054Y-169208928D02*
X140989054Y-169018452D01*
X140941435Y-169589881D02*
X140917625Y-169542262D01*
X140917625Y-169542262D02*
X140893816Y-169518452D01*
X140893816Y-169518452D02*
X140846197Y-169494643D01*
X140846197Y-169494643D02*
X140822387Y-169494643D01*
X140822387Y-169494643D02*
X140774768Y-169518452D01*
X140774768Y-169518452D02*
X140750959Y-169542262D01*
X140750959Y-169542262D02*
X140727149Y-169589881D01*
X140727149Y-169589881D02*
X140727149Y-169685119D01*
X140727149Y-169685119D02*
X140750959Y-169732738D01*
X140750959Y-169732738D02*
X140774768Y-169756547D01*
X140774768Y-169756547D02*
X140822387Y-169780357D01*
X140822387Y-169780357D02*
X140846197Y-169780357D01*
X140846197Y-169780357D02*
X140893816Y-169756547D01*
X140893816Y-169756547D02*
X140917625Y-169732738D01*
X140917625Y-169732738D02*
X140941435Y-169685119D01*
X140941435Y-169685119D02*
X140941435Y-169589881D01*
X140941435Y-169589881D02*
X140965244Y-169542262D01*
X140965244Y-169542262D02*
X140989054Y-169518452D01*
X140989054Y-169518452D02*
X141036673Y-169494643D01*
X141036673Y-169494643D02*
X141131911Y-169494643D01*
X141131911Y-169494643D02*
X141179530Y-169518452D01*
X141179530Y-169518452D02*
X141203340Y-169542262D01*
X141203340Y-169542262D02*
X141227149Y-169589881D01*
X141227149Y-169589881D02*
X141227149Y-169685119D01*
X141227149Y-169685119D02*
X141203340Y-169732738D01*
X141203340Y-169732738D02*
X141179530Y-169756547D01*
X141179530Y-169756547D02*
X141131911Y-169780357D01*
X141131911Y-169780357D02*
X141036673Y-169780357D01*
X141036673Y-169780357D02*
X140989054Y-169756547D01*
X140989054Y-169756547D02*
X140965244Y-169732738D01*
X140965244Y-169732738D02*
X140941435Y-169685119D01*
D10*
X149870476Y-181504819D02*
X149870476Y-182314342D01*
X149870476Y-182314342D02*
X149822857Y-182409580D01*
X149822857Y-182409580D02*
X149775238Y-182457200D01*
X149775238Y-182457200D02*
X149680000Y-182504819D01*
X149680000Y-182504819D02*
X149489524Y-182504819D01*
X149489524Y-182504819D02*
X149394286Y-182457200D01*
X149394286Y-182457200D02*
X149346667Y-182409580D01*
X149346667Y-182409580D02*
X149299048Y-182314342D01*
X149299048Y-182314342D02*
X149299048Y-181504819D01*
X148870476Y-182457200D02*
X148727619Y-182504819D01*
X148727619Y-182504819D02*
X148489524Y-182504819D01*
X148489524Y-182504819D02*
X148394286Y-182457200D01*
X148394286Y-182457200D02*
X148346667Y-182409580D01*
X148346667Y-182409580D02*
X148299048Y-182314342D01*
X148299048Y-182314342D02*
X148299048Y-182219104D01*
X148299048Y-182219104D02*
X148346667Y-182123866D01*
X148346667Y-182123866D02*
X148394286Y-182076247D01*
X148394286Y-182076247D02*
X148489524Y-182028628D01*
X148489524Y-182028628D02*
X148680000Y-181981009D01*
X148680000Y-181981009D02*
X148775238Y-181933390D01*
X148775238Y-181933390D02*
X148822857Y-181885771D01*
X148822857Y-181885771D02*
X148870476Y-181790533D01*
X148870476Y-181790533D02*
X148870476Y-181695295D01*
X148870476Y-181695295D02*
X148822857Y-181600057D01*
X148822857Y-181600057D02*
X148775238Y-181552438D01*
X148775238Y-181552438D02*
X148680000Y-181504819D01*
X148680000Y-181504819D02*
X148441905Y-181504819D01*
X148441905Y-181504819D02*
X148299048Y-181552438D01*
X147537143Y-181981009D02*
X147394286Y-182028628D01*
X147394286Y-182028628D02*
X147346667Y-182076247D01*
X147346667Y-182076247D02*
X147299048Y-182171485D01*
X147299048Y-182171485D02*
X147299048Y-182314342D01*
X147299048Y-182314342D02*
X147346667Y-182409580D01*
X147346667Y-182409580D02*
X147394286Y-182457200D01*
X147394286Y-182457200D02*
X147489524Y-182504819D01*
X147489524Y-182504819D02*
X147870476Y-182504819D01*
X147870476Y-182504819D02*
X147870476Y-181504819D01*
X147870476Y-181504819D02*
X147537143Y-181504819D01*
X147537143Y-181504819D02*
X147441905Y-181552438D01*
X147441905Y-181552438D02*
X147394286Y-181600057D01*
X147394286Y-181600057D02*
X147346667Y-181695295D01*
X147346667Y-181695295D02*
X147346667Y-181790533D01*
X147346667Y-181790533D02*
X147394286Y-181885771D01*
X147394286Y-181885771D02*
X147441905Y-181933390D01*
X147441905Y-181933390D02*
X147537143Y-181981009D01*
X147537143Y-181981009D02*
X147870476Y-181981009D01*
X147108572Y-182600057D02*
X146346667Y-182600057D01*
X145537143Y-182409580D02*
X145584762Y-182457200D01*
X145584762Y-182457200D02*
X145727619Y-182504819D01*
X145727619Y-182504819D02*
X145822857Y-182504819D01*
X145822857Y-182504819D02*
X145965714Y-182457200D01*
X145965714Y-182457200D02*
X146060952Y-182361961D01*
X146060952Y-182361961D02*
X146108571Y-182266723D01*
X146108571Y-182266723D02*
X146156190Y-182076247D01*
X146156190Y-182076247D02*
X146156190Y-181933390D01*
X146156190Y-181933390D02*
X146108571Y-181742914D01*
X146108571Y-181742914D02*
X146060952Y-181647676D01*
X146060952Y-181647676D02*
X145965714Y-181552438D01*
X145965714Y-181552438D02*
X145822857Y-181504819D01*
X145822857Y-181504819D02*
X145727619Y-181504819D01*
X145727619Y-181504819D02*
X145584762Y-181552438D01*
X145584762Y-181552438D02*
X145537143Y-181600057D01*
X145346667Y-182600057D02*
X144584762Y-182600057D01*
X143775238Y-182504819D02*
X144108571Y-182028628D01*
X144346666Y-182504819D02*
X144346666Y-181504819D01*
X144346666Y-181504819D02*
X143965714Y-181504819D01*
X143965714Y-181504819D02*
X143870476Y-181552438D01*
X143870476Y-181552438D02*
X143822857Y-181600057D01*
X143822857Y-181600057D02*
X143775238Y-181695295D01*
X143775238Y-181695295D02*
X143775238Y-181838152D01*
X143775238Y-181838152D02*
X143822857Y-181933390D01*
X143822857Y-181933390D02*
X143870476Y-181981009D01*
X143870476Y-181981009D02*
X143965714Y-182028628D01*
X143965714Y-182028628D02*
X144346666Y-182028628D01*
X142965714Y-182457200D02*
X143060952Y-182504819D01*
X143060952Y-182504819D02*
X143251428Y-182504819D01*
X143251428Y-182504819D02*
X143346666Y-182457200D01*
X143346666Y-182457200D02*
X143394285Y-182361961D01*
X143394285Y-182361961D02*
X143394285Y-181981009D01*
X143394285Y-181981009D02*
X143346666Y-181885771D01*
X143346666Y-181885771D02*
X143251428Y-181838152D01*
X143251428Y-181838152D02*
X143060952Y-181838152D01*
X143060952Y-181838152D02*
X142965714Y-181885771D01*
X142965714Y-181885771D02*
X142918095Y-181981009D01*
X142918095Y-181981009D02*
X142918095Y-182076247D01*
X142918095Y-182076247D02*
X143394285Y-182171485D01*
X142060952Y-182457200D02*
X142156190Y-182504819D01*
X142156190Y-182504819D02*
X142346666Y-182504819D01*
X142346666Y-182504819D02*
X142441904Y-182457200D01*
X142441904Y-182457200D02*
X142489523Y-182409580D01*
X142489523Y-182409580D02*
X142537142Y-182314342D01*
X142537142Y-182314342D02*
X142537142Y-182028628D01*
X142537142Y-182028628D02*
X142489523Y-181933390D01*
X142489523Y-181933390D02*
X142441904Y-181885771D01*
X142441904Y-181885771D02*
X142346666Y-181838152D01*
X142346666Y-181838152D02*
X142156190Y-181838152D01*
X142156190Y-181838152D02*
X142060952Y-181885771D01*
X141251428Y-182457200D02*
X141346666Y-182504819D01*
X141346666Y-182504819D02*
X141537142Y-182504819D01*
X141537142Y-182504819D02*
X141632380Y-182457200D01*
X141632380Y-182457200D02*
X141679999Y-182361961D01*
X141679999Y-182361961D02*
X141679999Y-181981009D01*
X141679999Y-181981009D02*
X141632380Y-181885771D01*
X141632380Y-181885771D02*
X141537142Y-181838152D01*
X141537142Y-181838152D02*
X141346666Y-181838152D01*
X141346666Y-181838152D02*
X141251428Y-181885771D01*
X141251428Y-181885771D02*
X141203809Y-181981009D01*
X141203809Y-181981009D02*
X141203809Y-182076247D01*
X141203809Y-182076247D02*
X141679999Y-182171485D01*
X140775237Y-181838152D02*
X140775237Y-182838152D01*
X140775237Y-181885771D02*
X140679999Y-181838152D01*
X140679999Y-181838152D02*
X140489523Y-181838152D01*
X140489523Y-181838152D02*
X140394285Y-181885771D01*
X140394285Y-181885771D02*
X140346666Y-181933390D01*
X140346666Y-181933390D02*
X140299047Y-182028628D01*
X140299047Y-182028628D02*
X140299047Y-182314342D01*
X140299047Y-182314342D02*
X140346666Y-182409580D01*
X140346666Y-182409580D02*
X140394285Y-182457200D01*
X140394285Y-182457200D02*
X140489523Y-182504819D01*
X140489523Y-182504819D02*
X140679999Y-182504819D01*
X140679999Y-182504819D02*
X140775237Y-182457200D01*
X140013332Y-181838152D02*
X139632380Y-181838152D01*
X139870475Y-181504819D02*
X139870475Y-182361961D01*
X139870475Y-182361961D02*
X139822856Y-182457200D01*
X139822856Y-182457200D02*
X139727618Y-182504819D01*
X139727618Y-182504819D02*
X139632380Y-182504819D01*
X138870475Y-182504819D02*
X138870475Y-181981009D01*
X138870475Y-181981009D02*
X138918094Y-181885771D01*
X138918094Y-181885771D02*
X139013332Y-181838152D01*
X139013332Y-181838152D02*
X139203808Y-181838152D01*
X139203808Y-181838152D02*
X139299046Y-181885771D01*
X138870475Y-182457200D02*
X138965713Y-182504819D01*
X138965713Y-182504819D02*
X139203808Y-182504819D01*
X139203808Y-182504819D02*
X139299046Y-182457200D01*
X139299046Y-182457200D02*
X139346665Y-182361961D01*
X139346665Y-182361961D02*
X139346665Y-182266723D01*
X139346665Y-182266723D02*
X139299046Y-182171485D01*
X139299046Y-182171485D02*
X139203808Y-182123866D01*
X139203808Y-182123866D02*
X138965713Y-182123866D01*
X138965713Y-182123866D02*
X138870475Y-182076247D01*
X137965713Y-182457200D02*
X138060951Y-182504819D01*
X138060951Y-182504819D02*
X138251427Y-182504819D01*
X138251427Y-182504819D02*
X138346665Y-182457200D01*
X138346665Y-182457200D02*
X138394284Y-182409580D01*
X138394284Y-182409580D02*
X138441903Y-182314342D01*
X138441903Y-182314342D02*
X138441903Y-182028628D01*
X138441903Y-182028628D02*
X138394284Y-181933390D01*
X138394284Y-181933390D02*
X138346665Y-181885771D01*
X138346665Y-181885771D02*
X138251427Y-181838152D01*
X138251427Y-181838152D02*
X138060951Y-181838152D01*
X138060951Y-181838152D02*
X137965713Y-181885771D01*
X137394284Y-182504819D02*
X137489522Y-182457200D01*
X137489522Y-182457200D02*
X137537141Y-182361961D01*
X137537141Y-182361961D02*
X137537141Y-181504819D01*
X136632379Y-182457200D02*
X136727617Y-182504819D01*
X136727617Y-182504819D02*
X136918093Y-182504819D01*
X136918093Y-182504819D02*
X137013331Y-182457200D01*
X137013331Y-182457200D02*
X137060950Y-182361961D01*
X137060950Y-182361961D02*
X137060950Y-181981009D01*
X137060950Y-181981009D02*
X137013331Y-181885771D01*
X137013331Y-181885771D02*
X136918093Y-181838152D01*
X136918093Y-181838152D02*
X136727617Y-181838152D01*
X136727617Y-181838152D02*
X136632379Y-181885771D01*
X136632379Y-181885771D02*
X136584760Y-181981009D01*
X136584760Y-181981009D02*
X136584760Y-182076247D01*
X136584760Y-182076247D02*
X137060950Y-182171485D01*
X136394284Y-182600057D02*
X135632379Y-182600057D01*
X135394283Y-181504819D02*
X135394283Y-182314342D01*
X135394283Y-182314342D02*
X135346664Y-182409580D01*
X135346664Y-182409580D02*
X135299045Y-182457200D01*
X135299045Y-182457200D02*
X135203807Y-182504819D01*
X135203807Y-182504819D02*
X135013331Y-182504819D01*
X135013331Y-182504819D02*
X134918093Y-182457200D01*
X134918093Y-182457200D02*
X134870474Y-182409580D01*
X134870474Y-182409580D02*
X134822855Y-182314342D01*
X134822855Y-182314342D02*
X134822855Y-181504819D01*
X134394283Y-182457200D02*
X134251426Y-182504819D01*
X134251426Y-182504819D02*
X134013331Y-182504819D01*
X134013331Y-182504819D02*
X133918093Y-182457200D01*
X133918093Y-182457200D02*
X133870474Y-182409580D01*
X133870474Y-182409580D02*
X133822855Y-182314342D01*
X133822855Y-182314342D02*
X133822855Y-182219104D01*
X133822855Y-182219104D02*
X133870474Y-182123866D01*
X133870474Y-182123866D02*
X133918093Y-182076247D01*
X133918093Y-182076247D02*
X134013331Y-182028628D01*
X134013331Y-182028628D02*
X134203807Y-181981009D01*
X134203807Y-181981009D02*
X134299045Y-181933390D01*
X134299045Y-181933390D02*
X134346664Y-181885771D01*
X134346664Y-181885771D02*
X134394283Y-181790533D01*
X134394283Y-181790533D02*
X134394283Y-181695295D01*
X134394283Y-181695295D02*
X134346664Y-181600057D01*
X134346664Y-181600057D02*
X134299045Y-181552438D01*
X134299045Y-181552438D02*
X134203807Y-181504819D01*
X134203807Y-181504819D02*
X133965712Y-181504819D01*
X133965712Y-181504819D02*
X133822855Y-181552438D01*
X133060950Y-181981009D02*
X132918093Y-182028628D01*
X132918093Y-182028628D02*
X132870474Y-182076247D01*
X132870474Y-182076247D02*
X132822855Y-182171485D01*
X132822855Y-182171485D02*
X132822855Y-182314342D01*
X132822855Y-182314342D02*
X132870474Y-182409580D01*
X132870474Y-182409580D02*
X132918093Y-182457200D01*
X132918093Y-182457200D02*
X133013331Y-182504819D01*
X133013331Y-182504819D02*
X133394283Y-182504819D01*
X133394283Y-182504819D02*
X133394283Y-181504819D01*
X133394283Y-181504819D02*
X133060950Y-181504819D01*
X133060950Y-181504819D02*
X132965712Y-181552438D01*
X132965712Y-181552438D02*
X132918093Y-181600057D01*
X132918093Y-181600057D02*
X132870474Y-181695295D01*
X132870474Y-181695295D02*
X132870474Y-181790533D01*
X132870474Y-181790533D02*
X132918093Y-181885771D01*
X132918093Y-181885771D02*
X132965712Y-181933390D01*
X132965712Y-181933390D02*
X133060950Y-181981009D01*
X133060950Y-181981009D02*
X133394283Y-181981009D01*
X132441902Y-181600057D02*
X132394283Y-181552438D01*
X132394283Y-181552438D02*
X132299045Y-181504819D01*
X132299045Y-181504819D02*
X132060950Y-181504819D01*
X132060950Y-181504819D02*
X131965712Y-181552438D01*
X131965712Y-181552438D02*
X131918093Y-181600057D01*
X131918093Y-181600057D02*
X131870474Y-181695295D01*
X131870474Y-181695295D02*
X131870474Y-181790533D01*
X131870474Y-181790533D02*
X131918093Y-181933390D01*
X131918093Y-181933390D02*
X132489521Y-182504819D01*
X132489521Y-182504819D02*
X131870474Y-182504819D01*
X131441902Y-182409580D02*
X131394283Y-182457200D01*
X131394283Y-182457200D02*
X131441902Y-182504819D01*
X131441902Y-182504819D02*
X131489521Y-182457200D01*
X131489521Y-182457200D02*
X131441902Y-182409580D01*
X131441902Y-182409580D02*
X131441902Y-182504819D01*
X130775236Y-181504819D02*
X130679998Y-181504819D01*
X130679998Y-181504819D02*
X130584760Y-181552438D01*
X130584760Y-181552438D02*
X130537141Y-181600057D01*
X130537141Y-181600057D02*
X130489522Y-181695295D01*
X130489522Y-181695295D02*
X130441903Y-181885771D01*
X130441903Y-181885771D02*
X130441903Y-182123866D01*
X130441903Y-182123866D02*
X130489522Y-182314342D01*
X130489522Y-182314342D02*
X130537141Y-182409580D01*
X130537141Y-182409580D02*
X130584760Y-182457200D01*
X130584760Y-182457200D02*
X130679998Y-182504819D01*
X130679998Y-182504819D02*
X130775236Y-182504819D01*
X130775236Y-182504819D02*
X130870474Y-182457200D01*
X130870474Y-182457200D02*
X130918093Y-182409580D01*
X130918093Y-182409580D02*
X130965712Y-182314342D01*
X130965712Y-182314342D02*
X131013331Y-182123866D01*
X131013331Y-182123866D02*
X131013331Y-181885771D01*
X131013331Y-181885771D02*
X130965712Y-181695295D01*
X130965712Y-181695295D02*
X130918093Y-181600057D01*
X130918093Y-181600057D02*
X130870474Y-181552438D01*
X130870474Y-181552438D02*
X130775236Y-181504819D01*
X140513333Y-176404819D02*
X140513333Y-177119104D01*
X140513333Y-177119104D02*
X140560952Y-177261961D01*
X140560952Y-177261961D02*
X140656190Y-177357200D01*
X140656190Y-177357200D02*
X140799047Y-177404819D01*
X140799047Y-177404819D02*
X140894285Y-177404819D01*
X140084761Y-176500057D02*
X140037142Y-176452438D01*
X140037142Y-176452438D02*
X139941904Y-176404819D01*
X139941904Y-176404819D02*
X139703809Y-176404819D01*
X139703809Y-176404819D02*
X139608571Y-176452438D01*
X139608571Y-176452438D02*
X139560952Y-176500057D01*
X139560952Y-176500057D02*
X139513333Y-176595295D01*
X139513333Y-176595295D02*
X139513333Y-176690533D01*
X139513333Y-176690533D02*
X139560952Y-176833390D01*
X139560952Y-176833390D02*
X140132380Y-177404819D01*
X140132380Y-177404819D02*
X139513333Y-177404819D01*
X106082738Y-139004819D02*
X106654166Y-139004819D01*
X106368452Y-139004819D02*
X106368452Y-138004819D01*
X106368452Y-138004819D02*
X106463690Y-138147676D01*
X106463690Y-138147676D02*
X106558928Y-138242914D01*
X106558928Y-138242914D02*
X106654166Y-138290533D01*
X105463690Y-138004819D02*
X105368452Y-138004819D01*
X105368452Y-138004819D02*
X105273214Y-138052438D01*
X105273214Y-138052438D02*
X105225595Y-138100057D01*
X105225595Y-138100057D02*
X105177976Y-138195295D01*
X105177976Y-138195295D02*
X105130357Y-138385771D01*
X105130357Y-138385771D02*
X105130357Y-138623866D01*
X105130357Y-138623866D02*
X105177976Y-138814342D01*
X105177976Y-138814342D02*
X105225595Y-138909580D01*
X105225595Y-138909580D02*
X105273214Y-138957200D01*
X105273214Y-138957200D02*
X105368452Y-139004819D01*
X105368452Y-139004819D02*
X105463690Y-139004819D01*
X105463690Y-139004819D02*
X105558928Y-138957200D01*
X105558928Y-138957200D02*
X105606547Y-138909580D01*
X105606547Y-138909580D02*
X105654166Y-138814342D01*
X105654166Y-138814342D02*
X105701785Y-138623866D01*
X105701785Y-138623866D02*
X105701785Y-138385771D01*
X105701785Y-138385771D02*
X105654166Y-138195295D01*
X105654166Y-138195295D02*
X105606547Y-138100057D01*
X105606547Y-138100057D02*
X105558928Y-138052438D01*
X105558928Y-138052438D02*
X105463690Y-138004819D01*
X104701785Y-139004819D02*
X104701785Y-138004819D01*
X104606547Y-138623866D02*
X104320833Y-139004819D01*
X104320833Y-138338152D02*
X104701785Y-138719104D01*
D13*
X105808928Y-137127149D02*
X105975594Y-136889054D01*
X106094642Y-137127149D02*
X106094642Y-136627149D01*
X106094642Y-136627149D02*
X105904166Y-136627149D01*
X105904166Y-136627149D02*
X105856547Y-136650959D01*
X105856547Y-136650959D02*
X105832737Y-136674768D01*
X105832737Y-136674768D02*
X105808928Y-136722387D01*
X105808928Y-136722387D02*
X105808928Y-136793816D01*
X105808928Y-136793816D02*
X105832737Y-136841435D01*
X105832737Y-136841435D02*
X105856547Y-136865244D01*
X105856547Y-136865244D02*
X105904166Y-136889054D01*
X105904166Y-136889054D02*
X106094642Y-136889054D01*
X105332737Y-137127149D02*
X105618451Y-137127149D01*
X105475594Y-137127149D02*
X105475594Y-136627149D01*
X105475594Y-136627149D02*
X105523213Y-136698578D01*
X105523213Y-136698578D02*
X105570832Y-136746197D01*
X105570832Y-136746197D02*
X105618451Y-136770006D01*
X105166071Y-136627149D02*
X104856547Y-136627149D01*
X104856547Y-136627149D02*
X105023214Y-136817625D01*
X105023214Y-136817625D02*
X104951785Y-136817625D01*
X104951785Y-136817625D02*
X104904166Y-136841435D01*
X104904166Y-136841435D02*
X104880357Y-136865244D01*
X104880357Y-136865244D02*
X104856547Y-136912863D01*
X104856547Y-136912863D02*
X104856547Y-137031911D01*
X104856547Y-137031911D02*
X104880357Y-137079530D01*
X104880357Y-137079530D02*
X104904166Y-137103340D01*
X104904166Y-137103340D02*
X104951785Y-137127149D01*
X104951785Y-137127149D02*
X105094642Y-137127149D01*
X105094642Y-137127149D02*
X105142261Y-137103340D01*
X105142261Y-137103340D02*
X105166071Y-137079530D01*
D10*
X114300174Y-126755402D02*
X114133507Y-126466727D01*
X113608446Y-126604914D02*
X113846542Y-127017307D01*
X113846542Y-127017307D02*
X114712567Y-126517307D01*
X114712567Y-126517307D02*
X114474472Y-126104914D01*
X113459209Y-126251190D02*
X113346541Y-126151282D01*
X113346541Y-126151282D02*
X113227494Y-125945085D01*
X113227494Y-125945085D02*
X113221114Y-125838797D01*
X113221114Y-125838797D02*
X113238544Y-125773748D01*
X113238544Y-125773748D02*
X113297213Y-125684890D01*
X113297213Y-125684890D02*
X113379692Y-125637271D01*
X113379692Y-125637271D02*
X113485980Y-125630891D01*
X113485980Y-125630891D02*
X113551029Y-125648321D01*
X113551029Y-125648321D02*
X113639887Y-125706990D01*
X113639887Y-125706990D02*
X113776364Y-125848138D01*
X113776364Y-125848138D02*
X113865223Y-125906807D01*
X113865223Y-125906807D02*
X113930271Y-125924236D01*
X113930271Y-125924236D02*
X114036560Y-125917857D01*
X114036560Y-125917857D02*
X114119038Y-125870238D01*
X114119038Y-125870238D02*
X114177707Y-125781379D01*
X114177707Y-125781379D02*
X114195137Y-125716330D01*
X114195137Y-125716330D02*
X114188757Y-125610042D01*
X114188757Y-125610042D02*
X114069710Y-125403846D01*
X114069710Y-125403846D02*
X113957042Y-125303937D01*
X112917970Y-125408974D02*
X113783995Y-124908974D01*
X113783995Y-124908974D02*
X113593519Y-124579060D01*
X113593519Y-124579060D02*
X113504661Y-124520391D01*
X113504661Y-124520391D02*
X113439612Y-124502961D01*
X113439612Y-124502961D02*
X113333324Y-124509341D01*
X113333324Y-124509341D02*
X113209606Y-124580769D01*
X113209606Y-124580769D02*
X113150937Y-124669627D01*
X113150937Y-124669627D02*
X113133507Y-124734676D01*
X113133507Y-124734676D02*
X113139887Y-124840964D01*
X113139887Y-124840964D02*
X113330363Y-125170879D01*
X112747884Y-124352473D02*
X112366932Y-123692644D01*
X111537018Y-123017095D02*
X111822732Y-123511966D01*
X111679875Y-123264530D02*
X112545900Y-122764530D01*
X112545900Y-122764530D02*
X112469801Y-122918438D01*
X112469801Y-122918438D02*
X112434942Y-123048535D01*
X112434942Y-123048535D02*
X112441322Y-123154823D01*
X112130088Y-122234799D02*
X112147518Y-122169750D01*
X112147518Y-122169750D02*
X112141138Y-122063462D01*
X112141138Y-122063462D02*
X112022091Y-121857266D01*
X112022091Y-121857266D02*
X111933232Y-121798597D01*
X111933232Y-121798597D02*
X111868184Y-121781167D01*
X111868184Y-121781167D02*
X111761895Y-121787547D01*
X111761895Y-121787547D02*
X111679417Y-121835166D01*
X111679417Y-121835166D02*
X111579508Y-121947834D01*
X111579508Y-121947834D02*
X111370351Y-122728419D01*
X111370351Y-122728419D02*
X111060827Y-122192309D01*
X111300174Y-121559250D02*
X111133507Y-121270575D01*
X110608446Y-121408762D02*
X110846542Y-121821155D01*
X110846542Y-121821155D02*
X111712567Y-121321155D01*
X111712567Y-121321155D02*
X111474472Y-120908762D01*
X124136362Y-118879797D02*
X123435294Y-119284559D01*
X123435294Y-119284559D02*
X123329006Y-119290939D01*
X123329006Y-119290939D02*
X123263957Y-119273509D01*
X123263957Y-119273509D02*
X123175099Y-119214840D01*
X123175099Y-119214840D02*
X123079861Y-119049882D01*
X123079861Y-119049882D02*
X123073481Y-118943594D01*
X123073481Y-118943594D02*
X123090911Y-118878546D01*
X123090911Y-118878546D02*
X123149580Y-118789687D01*
X123149580Y-118789687D02*
X123850648Y-118384925D01*
X122484623Y-118018900D02*
X122770337Y-118513772D01*
X122627480Y-118266336D02*
X123493505Y-117766336D01*
X123493505Y-117766336D02*
X123417406Y-117920243D01*
X123417406Y-117920243D02*
X123382547Y-118050341D01*
X123382547Y-118050341D02*
X123388927Y-118156629D01*
D15*
G04 #@! TO.C,SW2*
X120033567Y-169093830D02*
G75*
G02*
X119973569Y-169093830I-29999J0D01*
G01*
X119973569Y-169093830D02*
G75*
G02*
X120033567Y-169093830I29999J0D01*
G01*
D16*
G04 #@! TO.C,Q3*
X104987500Y-140500000D02*
X105312500Y-140825000D01*
X105312500Y-140825000D02*
X105312500Y-143400000D01*
X104012500Y-140500000D02*
X104987500Y-140500000D01*
X104012500Y-143400000D02*
X104012500Y-140500000D01*
X105312500Y-143400000D02*
X104012500Y-143400000D01*
G04 #@! TO.C,D16*
X115150000Y-154800000D02*
X115150000Y-153600000D01*
X111950000Y-154800000D02*
X115150000Y-154800000D01*
X115150000Y-153600000D02*
X114750000Y-153200000D01*
X114750000Y-153200000D02*
X111950000Y-153200000D01*
X111950000Y-153200000D02*
X111950000Y-154800000D01*
G04 #@! TO.C,R10*
X132975000Y-125375000D02*
X134225000Y-125375000D01*
X132975000Y-127375000D02*
X132975000Y-125375000D01*
X134225000Y-125375000D02*
X134225000Y-127375000D01*
X134225000Y-127375000D02*
X132975000Y-127375000D01*
G04 #@! TO.C,C22*
X134500000Y-103375000D02*
X136500000Y-103375000D01*
X134500000Y-104625000D02*
X134500000Y-103375000D01*
X136500000Y-103375000D02*
X136500000Y-104625000D01*
X136500000Y-104625000D02*
X134500000Y-104625000D01*
G04 #@! TO.C,R4*
X107862500Y-153425000D02*
X109862500Y-153425000D01*
X107862500Y-154675000D02*
X107862500Y-153425000D01*
X109862500Y-153425000D02*
X109862500Y-154675000D01*
X109862500Y-154675000D02*
X107862500Y-154675000D01*
G04 #@! TO.C,R12*
X113187500Y-156575000D02*
X115187500Y-156575000D01*
X113187500Y-157825000D02*
X113187500Y-156575000D01*
X115187500Y-156575000D02*
X115187500Y-157825000D01*
X115187500Y-157825000D02*
X113187500Y-157825000D01*
G04 #@! TO.C,U4*
X110112500Y-139700000D02*
X108812500Y-139700000D01*
X110112500Y-137125000D02*
X110112500Y-139700000D01*
X109787500Y-136800000D02*
X110112500Y-137125000D01*
X108812500Y-139700000D02*
X108812500Y-136800000D01*
X108812500Y-136800000D02*
X109787500Y-136800000D01*
G04 #@! TO.C,C23*
X134500000Y-105875000D02*
X136500000Y-105875000D01*
X134500000Y-107125000D02*
X134500000Y-105875000D01*
X136500000Y-105875000D02*
X136500000Y-107125000D01*
X136500000Y-107125000D02*
X134500000Y-107125000D01*
G04 #@! TO.C,C19*
X109775000Y-140850000D02*
X111025000Y-140850000D01*
X109775000Y-142850000D02*
X109775000Y-140850000D01*
X111025000Y-140850000D02*
X111025000Y-142850000D01*
X111025000Y-142850000D02*
X109775000Y-142850000D01*
G04 #@! TO.C,R7*
X138425000Y-168387500D02*
X139675000Y-168387500D01*
X138425000Y-170387500D02*
X138425000Y-168387500D01*
X139675000Y-168387500D02*
X139675000Y-170387500D01*
X139675000Y-170387500D02*
X138425000Y-170387500D01*
G04 #@! TO.C,C16*
X144500000Y-109875000D02*
X146500000Y-109875000D01*
X144500000Y-111125000D02*
X144500000Y-109875000D01*
X146500000Y-109875000D02*
X146500000Y-111125000D01*
X146500000Y-111125000D02*
X144500000Y-111125000D01*
G04 #@! TO.C,Q1*
X141475000Y-155550000D02*
X141475000Y-157250000D01*
X141475000Y-155550000D02*
X142825000Y-155550000D01*
X141475000Y-157250000D02*
X141975000Y-157750000D01*
X141975000Y-157750000D02*
X142825000Y-157750000D01*
X142825000Y-155550000D02*
X142825000Y-157750000D01*
G04 #@! TO.C,U2*
X135605000Y-161050000D02*
X145505000Y-161050000D01*
X135605000Y-164950000D02*
X135605000Y-161050000D01*
X144530000Y-164950000D02*
X135605000Y-164950000D01*
X145505000Y-161050000D02*
X145505000Y-163975000D01*
X145505000Y-163975000D02*
X144530000Y-164950000D01*
G04 #@! TO.C,U3*
X119587500Y-156850000D02*
X116687500Y-156850000D01*
X119587500Y-155250000D02*
X119587500Y-156850000D01*
X117087500Y-155250000D02*
X119587500Y-155250000D01*
X116687500Y-156850000D02*
X116687500Y-155650000D01*
X116687500Y-155650000D02*
X117087500Y-155250000D01*
G04 #@! TO.C,R6*
X136375000Y-168387500D02*
X137625000Y-168387500D01*
X136375000Y-170387500D02*
X136375000Y-168387500D01*
X137625000Y-168387500D02*
X137625000Y-170387500D01*
X137625000Y-170387500D02*
X136375000Y-170387500D01*
G04 #@! TO.C,C21*
X120875000Y-155500000D02*
X122125000Y-155500000D01*
X120875000Y-157500000D02*
X120875000Y-155500000D01*
X122125000Y-155500000D02*
X122125000Y-157500000D01*
X122125000Y-157500000D02*
X120875000Y-157500000D01*
G04 #@! TO.C,J3*
X114550000Y-134650000D02*
X114550000Y-142250000D01*
X114550000Y-142250000D02*
X120450000Y-142250000D01*
X115250000Y-134650000D02*
X114550000Y-134650000D01*
X115250000Y-136250000D02*
X115250000Y-134650000D01*
X118000000Y-137375000D02*
X119000000Y-137375000D01*
X118500000Y-136875000D02*
X118000000Y-137375000D01*
X119000000Y-137375000D02*
X118500000Y-136875000D01*
X119750000Y-134650000D02*
X119750000Y-136250000D01*
X119750000Y-136250000D02*
X115250000Y-136250000D01*
X120450000Y-134650000D02*
X119750000Y-134650000D01*
X120450000Y-142250000D02*
X120450000Y-134650000D01*
G04 #@! TO.C,R9*
X130475000Y-126375000D02*
X131725000Y-126375000D01*
X130475000Y-128375000D02*
X130475000Y-126375000D01*
X131725000Y-126375000D02*
X131725000Y-128375000D01*
X131725000Y-128375000D02*
X130475000Y-128375000D01*
G04 #@! TO.C,C20*
X107675000Y-140850000D02*
X108925000Y-140850000D01*
X107675000Y-142850000D02*
X107675000Y-140850000D01*
X108925000Y-140850000D02*
X108925000Y-142850000D01*
X108925000Y-142850000D02*
X107675000Y-142850000D01*
G04 #@! TO.C,C25*
X146375000Y-160025000D02*
X147625000Y-160025000D01*
X146375000Y-162025000D02*
X146375000Y-160025000D01*
X147625000Y-160025000D02*
X147625000Y-162025000D01*
X147625000Y-162025000D02*
X146375000Y-162025000D01*
G04 #@! TO.C,R5*
X142375000Y-168387500D02*
X143625000Y-168387500D01*
X142375000Y-170387500D02*
X142375000Y-168387500D01*
X143625000Y-168387500D02*
X143625000Y-170387500D01*
X143625000Y-170387500D02*
X142375000Y-170387500D01*
G04 #@! TO.C,R11*
X127975000Y-127375000D02*
X129225000Y-127375000D01*
X127975000Y-129375000D02*
X127975000Y-127375000D01*
X129225000Y-127375000D02*
X129225000Y-129375000D01*
X129225000Y-129375000D02*
X127975000Y-129375000D01*
G04 #@! TO.C,J1*
X168900000Y-136220000D02*
X168900000Y-136820000D01*
X168900000Y-136820000D02*
X170420000Y-136820000D01*
X168900000Y-138760000D02*
X168900000Y-139360000D01*
X168900000Y-139360000D02*
X170420000Y-139360000D01*
X168900000Y-141300000D02*
X168900000Y-141900000D01*
X168900000Y-141900000D02*
X170420000Y-141900000D01*
X170420000Y-136220000D02*
X168900000Y-136220000D01*
X170420000Y-136220000D02*
X171390000Y-135250000D01*
X170420000Y-138760000D02*
X168900000Y-138760000D01*
X170420000Y-141300000D02*
X168900000Y-141300000D01*
X170420000Y-142870000D02*
X170420000Y-136220000D01*
X171390000Y-135250000D02*
X178930000Y-135250000D01*
X178930000Y-135250000D02*
X178930000Y-142870000D01*
X178930000Y-142870000D02*
X170420000Y-142870000D01*
G04 #@! TO.C,D17*
X106450000Y-139700000D02*
X104650000Y-139700000D01*
X106450000Y-138300000D02*
X106450000Y-139700000D01*
X106050000Y-139000000D02*
X105850000Y-139000000D01*
X105850000Y-139350000D02*
X105850000Y-138650000D01*
X105850000Y-139000000D02*
X105350000Y-139350000D01*
X105350000Y-139350000D02*
X105350000Y-138650000D01*
X105350000Y-138650000D02*
X105850000Y-139000000D01*
X105100000Y-139000000D02*
X105350000Y-139000000D01*
X104650000Y-139700000D02*
X104650000Y-138300000D01*
X104650000Y-138300000D02*
X106450000Y-138300000D01*
G04 #@! TO.C,C24*
X133375000Y-163550000D02*
X134625000Y-163550000D01*
X133375000Y-165550000D02*
X133375000Y-163550000D01*
X134625000Y-163550000D02*
X134625000Y-165550000D01*
X134625000Y-165550000D02*
X133375000Y-165550000D01*
G04 #@! TO.C,R2*
X135275000Y-124287500D02*
X136525000Y-124287500D01*
X135275000Y-126287500D02*
X135275000Y-124287500D01*
X136525000Y-124287500D02*
X136525000Y-126287500D01*
X136525000Y-126287500D02*
X135275000Y-126287500D01*
G04 #@! TO.C,R8*
X140375000Y-168387500D02*
X141625000Y-168387500D01*
X140375000Y-170387500D02*
X140375000Y-168387500D01*
X141625000Y-168387500D02*
X141625000Y-170387500D01*
X141625000Y-170387500D02*
X140375000Y-170387500D01*
G04 #@! TO.C,J2*
X135710000Y-173300000D02*
X144650000Y-173300000D01*
X135710000Y-180600000D02*
X135710000Y-173300000D01*
X135710000Y-180600000D02*
X144650000Y-180600000D01*
X144650000Y-180600000D02*
X144650000Y-173300000D01*
G04 #@! TO.C,R13*
X106487500Y-137525000D02*
X104487500Y-137525000D01*
X106487500Y-136275000D02*
X106487500Y-137525000D01*
X104487500Y-137525000D02*
X104487500Y-136275000D01*
X104487500Y-136275000D02*
X106487500Y-136275000D01*
G04 #@! TO.C,U1*
X109338784Y-116740004D02*
X116266987Y-112740004D01*
X116266987Y-112740004D02*
X116950000Y-112923016D01*
X116950000Y-112923016D02*
X117133013Y-112240004D01*
X117133013Y-112240004D02*
X130123394Y-104740004D01*
X117338784Y-130596410D02*
X109338784Y-116740004D01*
X130123394Y-104740004D02*
X138123394Y-118596410D01*
X138123394Y-118596410D02*
X117338784Y-130596410D01*
G04 #@! TD*
M02*
