G04 #@! TF.GenerationSoftware,KiCad,Pcbnew,8.0.4*
G04 #@! TF.CreationDate,2024-08-11T22:53:45+02:00*
G04 #@! TF.ProjectId,Haibadge_B,48616962-6164-4676-955f-422e6b696361,rev?*
G04 #@! TF.SameCoordinates,Original*
G04 #@! TF.FileFunction,Other,Comment*
%FSLAX46Y46*%
G04 Gerber Fmt 4.6, Leading zero omitted, Abs format (unit mm)*
G04 Created by KiCad (PCBNEW 8.0.4) date 2024-08-11 22:53:45*
%MOMM*%
%LPD*%
G01*
G04 APERTURE LIST*
%ADD10C,0.150000*%
%ADD11C,0.400000*%
G04 APERTURE END LIST*
D10*
X112045946Y-117438585D02*
X112911972Y-116938585D01*
X112331661Y-117933457D02*
X112612247Y-117276589D01*
X113197686Y-117433457D02*
X112417100Y-117224300D01*
X112999579Y-118042706D02*
X113166245Y-118331381D01*
X112784042Y-118717004D02*
X112545946Y-118304611D01*
X112545946Y-118304611D02*
X113411972Y-117804611D01*
X113411972Y-117804611D02*
X113650067Y-118217004D01*
X113451960Y-118826253D02*
X113618626Y-119114928D01*
X113236423Y-119500551D02*
X112998327Y-119088158D01*
X112998327Y-119088158D02*
X113864353Y-118588158D01*
X113864353Y-118588158D02*
X114102448Y-119000551D01*
X113450708Y-119871705D02*
X114316734Y-119371705D01*
X114316734Y-119371705D02*
X114507210Y-119701619D01*
X114507210Y-119701619D02*
X114513590Y-119807907D01*
X114513590Y-119807907D02*
X114496160Y-119872956D01*
X114496160Y-119872956D02*
X114437491Y-119961814D01*
X114437491Y-119961814D02*
X114313773Y-120033243D01*
X114313773Y-120033243D02*
X114207485Y-120039623D01*
X114207485Y-120039623D02*
X114142436Y-120022193D01*
X114142436Y-120022193D02*
X114053578Y-119963524D01*
X114053578Y-119963524D02*
X113863101Y-119633609D01*
X114280623Y-120547254D02*
X114661575Y-121207083D01*
X115531019Y-121474909D02*
X115626257Y-121639866D01*
X115626257Y-121639866D02*
X115632637Y-121746154D01*
X115632637Y-121746154D02*
X115597778Y-121876252D01*
X115597778Y-121876252D02*
X115456630Y-122012729D01*
X115456630Y-122012729D02*
X115167955Y-122179396D01*
X115167955Y-122179396D02*
X114979188Y-122233395D01*
X114979188Y-122233395D02*
X114849090Y-122198535D01*
X114849090Y-122198535D02*
X114760232Y-122139866D01*
X114760232Y-122139866D02*
X114664994Y-121974909D01*
X114664994Y-121974909D02*
X114658614Y-121868621D01*
X114658614Y-121868621D02*
X114693474Y-121738523D01*
X114693474Y-121738523D02*
X114834621Y-121602046D01*
X114834621Y-121602046D02*
X115123297Y-121435379D01*
X115123297Y-121435379D02*
X115312063Y-121381380D01*
X115312063Y-121381380D02*
X115442161Y-121416240D01*
X115442161Y-121416240D02*
X115531019Y-121474909D01*
X115959591Y-122217216D02*
X115258522Y-122621978D01*
X115258522Y-122621978D02*
X115199853Y-122710837D01*
X115199853Y-122710837D02*
X115182424Y-122775886D01*
X115182424Y-122775886D02*
X115188803Y-122882174D01*
X115188803Y-122882174D02*
X115284041Y-123047131D01*
X115284041Y-123047131D02*
X115372900Y-123105800D01*
X115372900Y-123105800D02*
X115437949Y-123123230D01*
X115437949Y-123123230D02*
X115544237Y-123116850D01*
X115544237Y-123116850D02*
X116245305Y-122712088D01*
X116411972Y-123000763D02*
X116697686Y-123495635D01*
X115688803Y-123748199D02*
X116554829Y-123248199D01*
X117197686Y-124361661D02*
X117531019Y-124939011D01*
X117531019Y-124939011D02*
X116331661Y-124861661D01*
X116331661Y-124861661D02*
X116664994Y-125439011D01*
X117816734Y-125433883D02*
X117911972Y-125598840D01*
X117911972Y-125598840D02*
X117918352Y-125705128D01*
X117918352Y-125705128D02*
X117883492Y-125835226D01*
X117883492Y-125835226D02*
X117742344Y-125971703D01*
X117742344Y-125971703D02*
X117453669Y-126138370D01*
X117453669Y-126138370D02*
X117264902Y-126192368D01*
X117264902Y-126192368D02*
X117134805Y-126157509D01*
X117134805Y-126157509D02*
X117045946Y-126098840D01*
X117045946Y-126098840D02*
X116950708Y-125933883D01*
X116950708Y-125933883D02*
X116944329Y-125827594D01*
X116944329Y-125827594D02*
X116979188Y-125697497D01*
X116979188Y-125697497D02*
X117120336Y-125561019D01*
X117120336Y-125561019D02*
X117409011Y-125394353D01*
X117409011Y-125394353D02*
X117597778Y-125340354D01*
X117597778Y-125340354D02*
X117727875Y-125375214D01*
X117727875Y-125375214D02*
X117816734Y-125433883D01*
X117379280Y-126676190D02*
X118245305Y-126176190D01*
X118245305Y-126176190D02*
X117664994Y-127171062D01*
X117664994Y-127171062D02*
X118531019Y-126671062D01*
X118356722Y-127321550D02*
X118523388Y-127610225D01*
X118141185Y-127995848D02*
X117903089Y-127583455D01*
X117903089Y-127583455D02*
X118769115Y-127083455D01*
X118769115Y-127083455D02*
X119007210Y-127495848D01*
X116111509Y-118808917D02*
X116349604Y-119221310D01*
X115816454Y-118869296D02*
X116849146Y-118657971D01*
X116849146Y-118657971D02*
X116149788Y-119446646D01*
X116893805Y-119401988D02*
X116316454Y-119735321D01*
X116811326Y-119449607D02*
X116876375Y-119467037D01*
X116876375Y-119467037D02*
X116965233Y-119525706D01*
X116965233Y-119525706D02*
X117036662Y-119649424D01*
X117036662Y-119649424D02*
X117043041Y-119755712D01*
X117043041Y-119755712D02*
X116984372Y-119844570D01*
X116984372Y-119844570D02*
X116530740Y-120106475D01*
X117274757Y-120061817D02*
X117465233Y-120391731D01*
X117634861Y-120018868D02*
X116892553Y-120447440D01*
X116892553Y-120447440D02*
X116833884Y-120536298D01*
X116833884Y-120536298D02*
X116840264Y-120642586D01*
X116840264Y-120642586D02*
X116887883Y-120725065D01*
X117286265Y-121319845D02*
X117197407Y-121261176D01*
X117197407Y-121261176D02*
X117102169Y-121096219D01*
X117102169Y-121096219D02*
X117095789Y-120989931D01*
X117095789Y-120989931D02*
X117154458Y-120901072D01*
X117154458Y-120901072D02*
X117484373Y-120710596D01*
X117484373Y-120710596D02*
X117590661Y-120704216D01*
X117590661Y-120704216D02*
X117679519Y-120762885D01*
X117679519Y-120762885D02*
X117774757Y-120927843D01*
X117774757Y-120927843D02*
X117781137Y-121034131D01*
X117781137Y-121034131D02*
X117722468Y-121122989D01*
X117722468Y-121122989D02*
X117639989Y-121170608D01*
X117639989Y-121170608D02*
X117319415Y-120805834D01*
X118060472Y-121422714D02*
X117483121Y-121756048D01*
X117977993Y-121470333D02*
X118043042Y-121487763D01*
X118043042Y-121487763D02*
X118131900Y-121546432D01*
X118131900Y-121546432D02*
X118203329Y-121670150D01*
X118203329Y-121670150D02*
X118209708Y-121776438D01*
X118209708Y-121776438D02*
X118151039Y-121865297D01*
X118151039Y-121865297D02*
X117697407Y-122127201D01*
X118512853Y-122206261D02*
X117935502Y-122539595D01*
X118430374Y-122253880D02*
X118495423Y-122271310D01*
X118495423Y-122271310D02*
X118584281Y-122329979D01*
X118584281Y-122329979D02*
X118655710Y-122453697D01*
X118655710Y-122453697D02*
X118662089Y-122559985D01*
X118662089Y-122559985D02*
X118603420Y-122648844D01*
X118603420Y-122648844D02*
X118149788Y-122910748D01*
X118602169Y-123694295D02*
X119055801Y-123432390D01*
X119055801Y-123432390D02*
X119114470Y-123343532D01*
X119114470Y-123343532D02*
X119108091Y-123237244D01*
X119108091Y-123237244D02*
X119012853Y-123072287D01*
X119012853Y-123072287D02*
X118923994Y-123013618D01*
X118643408Y-123670486D02*
X118554550Y-123611817D01*
X118554550Y-123611817D02*
X118435502Y-123405620D01*
X118435502Y-123405620D02*
X118429123Y-123299332D01*
X118429123Y-123299332D02*
X118487792Y-123210474D01*
X118487792Y-123210474D02*
X118570270Y-123162855D01*
X118570270Y-123162855D02*
X118676558Y-123156475D01*
X118676558Y-123156475D02*
X118765417Y-123215144D01*
X118765417Y-123215144D02*
X118884464Y-123421340D01*
X118884464Y-123421340D02*
X118973323Y-123480010D01*
D11*
G04 #@! TO.C,SW2*
X116886385Y-169391144D02*
G75*
G02*
X116486385Y-169391144I-200000J0D01*
G01*
X116486385Y-169391144D02*
G75*
G02*
X116886385Y-169391144I200000J0D01*
G01*
X114588252Y-167462782D02*
G75*
G02*
X114188252Y-167462782I-200000J0D01*
G01*
X114188252Y-167462782D02*
G75*
G02*
X114588252Y-167462782I200000J0D01*
G01*
D10*
G04 #@! TO.C,H3*
X153000000Y-153800000D02*
G75*
G02*
X147600000Y-153800000I-2700000J0D01*
G01*
X147600000Y-153800000D02*
G75*
G02*
X153000000Y-153800000I2700000J0D01*
G01*
G04 #@! TO.C,H2*
X132700000Y-153800000D02*
G75*
G02*
X127300000Y-153800000I-2700000J0D01*
G01*
X127300000Y-153800000D02*
G75*
G02*
X132700000Y-153800000I2700000J0D01*
G01*
G04 #@! TO.C,H1*
X142700000Y-122600000D02*
G75*
G02*
X137300000Y-122600000I-2700000J0D01*
G01*
X137300000Y-122600000D02*
G75*
G02*
X142700000Y-122600000I2700000J0D01*
G01*
G04 #@! TD*
M02*
