G04 #@! TF.GenerationSoftware,KiCad,Pcbnew,8.0.4*
G04 #@! TF.CreationDate,2024-08-11T22:53:44+02:00*
G04 #@! TF.ProjectId,Haibadge_B,48616962-6164-4676-955f-422e6b696361,rev?*
G04 #@! TF.SameCoordinates,Original*
G04 #@! TF.FileFunction,Soldermask,Bot*
G04 #@! TF.FilePolarity,Negative*
%FSLAX46Y46*%
G04 Gerber Fmt 4.6, Leading zero omitted, Abs format (unit mm)*
G04 Created by KiCad (PCBNEW 8.0.4) date 2024-08-11 22:53:44*
%MOMM*%
%LPD*%
G01*
G04 APERTURE LIST*
G04 Aperture macros list*
%AMRoundRect*
0 Rectangle with rounded corners*
0 $1 Rounding radius*
0 $2 $3 $4 $5 $6 $7 $8 $9 X,Y pos of 4 corners*
0 Add a 4 corners polygon primitive as box body*
4,1,4,$2,$3,$4,$5,$6,$7,$8,$9,$2,$3,0*
0 Add four circle primitives for the rounded corners*
1,1,$1+$1,$2,$3*
1,1,$1+$1,$4,$5*
1,1,$1+$1,$6,$7*
1,1,$1+$1,$8,$9*
0 Add four rect primitives between the rounded corners*
20,1,$1+$1,$2,$3,$4,$5,0*
20,1,$1+$1,$4,$5,$6,$7,0*
20,1,$1+$1,$6,$7,$8,$9,0*
20,1,$1+$1,$8,$9,$2,$3,0*%
%AMRotRect*
0 Rectangle, with rotation*
0 The origin of the aperture is its center*
0 $1 length*
0 $2 width*
0 $3 Rotation angle, in degrees counterclockwise*
0 Add horizontal line*
21,1,$1,$2,0,0,$3*%
G04 Aperture macros list end*
%ADD10RotRect,0.900000X1.800000X140.000000*%
%ADD11RotRect,1.100000X0.930000X140.000000*%
%ADD12C,0.850000*%
%ADD13RoundRect,0.150000X0.587500X0.150000X-0.587500X0.150000X-0.587500X-0.150000X0.587500X-0.150000X0*%
%ADD14RoundRect,0.250000X0.375000X0.625000X-0.375000X0.625000X-0.375000X-0.625000X0.375000X-0.625000X0*%
%ADD15C,2.700000*%
%ADD16RoundRect,0.250000X-0.450000X0.262500X-0.450000X-0.262500X0.450000X-0.262500X0.450000X0.262500X0*%
%ADD17RoundRect,0.250000X-0.250000X-0.475000X0.250000X-0.475000X0.250000X0.475000X-0.250000X0.475000X0*%
%ADD18RoundRect,0.250000X0.262500X0.450000X-0.262500X0.450000X-0.262500X-0.450000X0.262500X-0.450000X0*%
%ADD19RoundRect,0.250000X-0.262500X-0.450000X0.262500X-0.450000X0.262500X0.450000X-0.262500X0.450000X0*%
%ADD20RoundRect,0.250000X-0.475000X0.250000X-0.475000X-0.250000X0.475000X-0.250000X0.475000X0.250000X0*%
%ADD21RoundRect,0.250000X0.450000X-0.262500X0.450000X0.262500X-0.450000X0.262500X-0.450000X-0.262500X0*%
%ADD22RotRect,2.000000X1.000000X163.000000*%
%ADD23RoundRect,0.100000X-0.225000X-0.100000X0.225000X-0.100000X0.225000X0.100000X-0.225000X0.100000X0*%
%ADD24RoundRect,0.150000X0.150000X-0.825000X0.150000X0.825000X-0.150000X0.825000X-0.150000X-0.825000X0*%
%ADD25RoundRect,0.150000X-0.150000X0.512500X-0.150000X-0.512500X0.150000X-0.512500X0.150000X0.512500X0*%
%ADD26RoundRect,0.250000X0.475000X-0.250000X0.475000X0.250000X-0.475000X0.250000X-0.475000X-0.250000X0*%
%ADD27RoundRect,0.250000X0.350000X0.625000X-0.350000X0.625000X-0.350000X-0.625000X0.350000X-0.625000X0*%
%ADD28O,1.200000X1.750000*%
%ADD29R,1.700000X1.700000*%
%ADD30O,1.700000X1.700000*%
%ADD31RoundRect,0.112500X0.187500X0.112500X-0.187500X0.112500X-0.187500X-0.112500X0.187500X-0.112500X0*%
%ADD32C,0.650000*%
%ADD33R,0.600000X1.450000*%
%ADD34R,0.300000X1.450000*%
%ADD35O,1.000000X1.600000*%
%ADD36O,1.000000X2.100000*%
%ADD37RotRect,2.500000X1.000000X300.000000*%
%ADD38RotRect,1.000000X1.800000X300.000000*%
G04 APERTURE END LIST*
D10*
G04 #@! TO.C,SW2*
X118565777Y-168318165D03*
X116267644Y-166389802D03*
X115118577Y-165425621D03*
D11*
X113359128Y-165111079D03*
X111900000Y-166850000D03*
X117721937Y-171735186D03*
X119181065Y-169996265D03*
D12*
X114388252Y-167462782D03*
X116686385Y-169391144D03*
G04 #@! TD*
D13*
G04 #@! TO.C,Q3*
X105600000Y-141000000D03*
X105600000Y-142900000D03*
X103725000Y-141950000D03*
G04 #@! TD*
D14*
G04 #@! TO.C,D16*
X114950000Y-154000000D03*
X112150000Y-154000000D03*
G04 #@! TD*
D15*
G04 #@! TO.C,H3*
X150300000Y-153800000D03*
G04 #@! TD*
G04 #@! TO.C,H2*
X130000000Y-153800000D03*
G04 #@! TD*
G04 #@! TO.C,H1*
X140000000Y-122600000D03*
G04 #@! TD*
D16*
G04 #@! TO.C,R10*
X133600000Y-125462500D03*
X133600000Y-127287500D03*
G04 #@! TD*
D17*
G04 #@! TO.C,C22*
X134550000Y-104000000D03*
X136450000Y-104000000D03*
G04 #@! TD*
D18*
G04 #@! TO.C,R4*
X109775000Y-154050000D03*
X107950000Y-154050000D03*
G04 #@! TD*
D19*
G04 #@! TO.C,R12*
X113275000Y-157200000D03*
X115100000Y-157200000D03*
G04 #@! TD*
D13*
G04 #@! TO.C,U4*
X108525000Y-138250000D03*
X110400000Y-139200000D03*
X110400000Y-137300000D03*
G04 #@! TD*
D17*
G04 #@! TO.C,C23*
X134550000Y-106500000D03*
X136450000Y-106500000D03*
G04 #@! TD*
D20*
G04 #@! TO.C,C19*
X110400000Y-140900000D03*
X110400000Y-142800000D03*
G04 #@! TD*
D21*
G04 #@! TO.C,R7*
X139050000Y-170300000D03*
X139050000Y-168475000D03*
G04 #@! TD*
D22*
G04 #@! TO.C,SW1*
X155315672Y-105696629D03*
X145752625Y-102772912D03*
X153999999Y-110000000D03*
X144436952Y-107076283D03*
G04 #@! TD*
D17*
G04 #@! TO.C,C16*
X144550000Y-110500000D03*
X146450000Y-110500000D03*
G04 #@! TD*
D23*
G04 #@! TO.C,Q1*
X141200000Y-157300000D03*
X141200000Y-156650000D03*
X141200000Y-156000000D03*
X143100000Y-156000000D03*
X143100000Y-156650000D03*
X143100000Y-157300000D03*
G04 #@! TD*
D24*
G04 #@! TO.C,U2*
X145000000Y-165475000D03*
X143730000Y-165475000D03*
X142460000Y-165475000D03*
X141190000Y-165475000D03*
X139920000Y-165475000D03*
X138650000Y-165475000D03*
X137380000Y-165475000D03*
X136110000Y-165475000D03*
X136110000Y-160525000D03*
X137380000Y-160525000D03*
X138650000Y-160525000D03*
X139920000Y-160525000D03*
X141190000Y-160525000D03*
X142460000Y-160525000D03*
X143730000Y-160525000D03*
X145000000Y-160525000D03*
G04 #@! TD*
D25*
G04 #@! TO.C,U3*
X117187500Y-157187500D03*
X119087500Y-157187500D03*
X119087500Y-154912500D03*
X118137500Y-154912500D03*
X117187500Y-154912500D03*
G04 #@! TD*
D16*
G04 #@! TO.C,R6*
X137000000Y-168475000D03*
X137000000Y-170300000D03*
G04 #@! TD*
D26*
G04 #@! TO.C,C21*
X121500000Y-157450000D03*
X121500000Y-155550000D03*
G04 #@! TD*
D27*
G04 #@! TO.C,J3*
X118500000Y-136000000D03*
D28*
X116500000Y-136000000D03*
G04 #@! TD*
D16*
G04 #@! TO.C,R9*
X131100000Y-126462500D03*
X131100000Y-128287500D03*
G04 #@! TD*
D20*
G04 #@! TO.C,C20*
X108300000Y-140900000D03*
X108300000Y-142800000D03*
G04 #@! TD*
D26*
G04 #@! TO.C,C25*
X147000000Y-161975000D03*
X147000000Y-160075000D03*
G04 #@! TD*
D21*
G04 #@! TO.C,R5*
X143000000Y-170300000D03*
X143000000Y-168475000D03*
G04 #@! TD*
D16*
G04 #@! TO.C,R11*
X128600000Y-127462500D03*
X128600000Y-129287500D03*
G04 #@! TD*
D29*
G04 #@! TO.C,J1*
X168900000Y-136520000D03*
D30*
X168900000Y-139060000D03*
X168900000Y-141600000D03*
G04 #@! TD*
D31*
G04 #@! TO.C,D17*
X104500000Y-139000000D03*
X106600000Y-139000000D03*
G04 #@! TD*
D20*
G04 #@! TO.C,C24*
X134000000Y-163600000D03*
X134000000Y-165500000D03*
G04 #@! TD*
D16*
G04 #@! TO.C,R2*
X135900000Y-124375000D03*
X135900000Y-126200000D03*
G04 #@! TD*
G04 #@! TO.C,R8*
X141000000Y-168475000D03*
X141000000Y-170300000D03*
G04 #@! TD*
D32*
G04 #@! TO.C,J2*
X143070000Y-174350000D03*
X137290000Y-174350000D03*
D33*
X143430000Y-172905000D03*
X142630000Y-172905000D03*
D34*
X141430000Y-172905000D03*
X140430000Y-172905000D03*
X139930000Y-172905000D03*
X138930000Y-172905000D03*
D33*
X137730000Y-172905000D03*
X136930000Y-172905000D03*
X136930000Y-172905000D03*
X137730000Y-172905000D03*
D34*
X138430000Y-172905000D03*
X139430000Y-172905000D03*
X140930000Y-172905000D03*
X141930000Y-172905000D03*
D33*
X142630000Y-172905000D03*
X143430000Y-172905000D03*
D35*
X144500000Y-178000000D03*
D36*
X144500000Y-173820000D03*
D35*
X135860000Y-178000000D03*
D36*
X135860000Y-173820000D03*
G04 #@! TD*
D18*
G04 #@! TO.C,R13*
X104575000Y-136900000D03*
X106400000Y-136900000D03*
G04 #@! TD*
D37*
G04 #@! TO.C,U1*
X116900000Y-112836414D03*
X118632051Y-111836414D03*
X120364102Y-110836414D03*
X122096153Y-109836414D03*
X123828203Y-108836414D03*
X125560254Y-107836414D03*
X127292305Y-106836414D03*
X129024356Y-105836414D03*
D38*
X131623394Y-107338080D03*
X132623394Y-109070131D03*
X133623394Y-110802182D03*
X134623394Y-112534232D03*
X135623394Y-114266283D03*
X136623394Y-115998334D03*
D37*
X136624356Y-119000000D03*
X134892305Y-120000000D03*
X133160254Y-121000000D03*
X131428203Y-122000000D03*
X129696153Y-123000000D03*
X127964102Y-124000000D03*
X126232051Y-125000000D03*
X124500000Y-126000000D03*
G04 #@! TD*
M02*
