G04 #@! TF.GenerationSoftware,KiCad,Pcbnew,8.0.4*
G04 #@! TF.CreationDate,2024-08-11T22:53:45+02:00*
G04 #@! TF.ProjectId,Haibadge_B,48616962-6164-4676-955f-422e6b696361,rev?*
G04 #@! TF.SameCoordinates,Original*
G04 #@! TF.FileFunction,Other,User*
%FSLAX46Y46*%
G04 Gerber Fmt 4.6, Leading zero omitted, Abs format (unit mm)*
G04 Created by KiCad (PCBNEW 8.0.4) date 2024-08-11 22:53:45*
%MOMM*%
%LPD*%
G01*
G04 APERTURE LIST*
%ADD10C,0.050000*%
G04 APERTURE END LIST*
D10*
G04 #@! TO.C,Q3*
X106582500Y-143650000D02*
X106582500Y-140250000D01*
X102742500Y-143650000D02*
X106582500Y-143650000D01*
X106582500Y-140250000D02*
X102742500Y-140250000D01*
X102742500Y-140250000D02*
X102742500Y-143650000D01*
G04 #@! TO.C,D16*
X111270000Y-152880000D02*
X115830000Y-152880000D01*
X115830000Y-152880000D02*
X115830000Y-155120000D01*
X111270000Y-155120000D02*
X111270000Y-152880000D01*
X115830000Y-155120000D02*
X111270000Y-155120000D01*
G04 #@! TO.C,R10*
X132650000Y-124695000D02*
X134550000Y-124695000D01*
X132650000Y-128055000D02*
X132650000Y-124695000D01*
X134550000Y-124695000D02*
X134550000Y-128055000D01*
X134550000Y-128055000D02*
X132650000Y-128055000D01*
G04 #@! TO.C,C22*
X133800000Y-103020000D02*
X137200000Y-103020000D01*
X133800000Y-104980000D02*
X133800000Y-103020000D01*
X137200000Y-103020000D02*
X137200000Y-104980000D01*
X137200000Y-104980000D02*
X133800000Y-104980000D01*
G04 #@! TO.C,R4*
X107182500Y-153100000D02*
X110542500Y-153100000D01*
X107182500Y-155000000D02*
X107182500Y-153100000D01*
X110542500Y-153100000D02*
X110542500Y-155000000D01*
X110542500Y-155000000D02*
X107182500Y-155000000D01*
G04 #@! TO.C,R12*
X112507500Y-156250000D02*
X115867500Y-156250000D01*
X112507500Y-158150000D02*
X112507500Y-156250000D01*
X115867500Y-156250000D02*
X115867500Y-158150000D01*
X115867500Y-158150000D02*
X112507500Y-158150000D01*
G04 #@! TO.C,U4*
X111382500Y-139950000D02*
X111382500Y-136550000D01*
X111382500Y-136550000D02*
X107542500Y-136550000D01*
X107542500Y-139950000D02*
X111382500Y-139950000D01*
X107542500Y-136550000D02*
X107542500Y-139950000D01*
G04 #@! TO.C,C23*
X133800000Y-105520000D02*
X137200000Y-105520000D01*
X133800000Y-107480000D02*
X133800000Y-105520000D01*
X137200000Y-105520000D02*
X137200000Y-107480000D01*
X137200000Y-107480000D02*
X133800000Y-107480000D01*
G04 #@! TO.C,C19*
X109420000Y-140150000D02*
X111380000Y-140150000D01*
X109420000Y-143550000D02*
X109420000Y-140150000D01*
X111380000Y-140150000D02*
X111380000Y-143550000D01*
X111380000Y-143550000D02*
X109420000Y-143550000D01*
G04 #@! TO.C,R7*
X138100000Y-167707500D02*
X140000000Y-167707500D01*
X138100000Y-171067500D02*
X138100000Y-167707500D01*
X140000000Y-167707500D02*
X140000000Y-171067500D01*
X140000000Y-171067500D02*
X138100000Y-171067500D01*
G04 #@! TO.C,C16*
X143800000Y-109520000D02*
X147200000Y-109520000D01*
X143800000Y-111480000D02*
X143800000Y-109520000D01*
X147200000Y-109520000D02*
X147200000Y-111480000D01*
X147200000Y-111480000D02*
X143800000Y-111480000D01*
G04 #@! TO.C,Q1*
X140550000Y-155250000D02*
X140550000Y-158050000D01*
X143750000Y-155250000D02*
X140550000Y-155250000D01*
X143750000Y-158050000D02*
X140550000Y-158050000D01*
X143750000Y-158050000D02*
X143750000Y-155250000D01*
G04 #@! TO.C,U2*
X135355000Y-159300000D02*
X135355000Y-166700000D01*
X135355000Y-166700000D02*
X145755000Y-166700000D01*
X145755000Y-159300000D02*
X135355000Y-159300000D01*
X145755000Y-166700000D02*
X145755000Y-159300000D01*
G04 #@! TO.C,U3*
X119837500Y-158100000D02*
X119837500Y-154000000D01*
X119837500Y-154000000D02*
X116437500Y-154000000D01*
X116437500Y-158100000D02*
X119837500Y-158100000D01*
X116437500Y-154000000D02*
X116437500Y-158100000D01*
G04 #@! TO.C,R6*
X136050000Y-167707500D02*
X137950000Y-167707500D01*
X136050000Y-171067500D02*
X136050000Y-167707500D01*
X137950000Y-167707500D02*
X137950000Y-171067500D01*
X137950000Y-171067500D02*
X136050000Y-171067500D01*
G04 #@! TO.C,C21*
X120520000Y-154800000D02*
X122480000Y-154800000D01*
X120520000Y-158200000D02*
X120520000Y-154800000D01*
X122480000Y-154800000D02*
X122480000Y-158200000D01*
X122480000Y-158200000D02*
X120520000Y-158200000D01*
G04 #@! TO.C,J3*
X114050000Y-134150000D02*
X114050000Y-142750000D01*
X114050000Y-142750000D02*
X120950000Y-142750000D01*
X120950000Y-134150000D02*
X114050000Y-134150000D01*
X120950000Y-142750000D02*
X120950000Y-134150000D01*
G04 #@! TO.C,R9*
X130150000Y-125695000D02*
X132050000Y-125695000D01*
X130150000Y-129055000D02*
X130150000Y-125695000D01*
X132050000Y-125695000D02*
X132050000Y-129055000D01*
X132050000Y-129055000D02*
X130150000Y-129055000D01*
G04 #@! TO.C,C20*
X107320000Y-140150000D02*
X109280000Y-140150000D01*
X107320000Y-143550000D02*
X107320000Y-140150000D01*
X109280000Y-140150000D02*
X109280000Y-143550000D01*
X109280000Y-143550000D02*
X107320000Y-143550000D01*
G04 #@! TO.C,C25*
X146020000Y-159325000D02*
X147980000Y-159325000D01*
X146020000Y-162725000D02*
X146020000Y-159325000D01*
X147980000Y-159325000D02*
X147980000Y-162725000D01*
X147980000Y-162725000D02*
X146020000Y-162725000D01*
G04 #@! TO.C,R5*
X142050000Y-167707500D02*
X143950000Y-167707500D01*
X142050000Y-171067500D02*
X142050000Y-167707500D01*
X143950000Y-167707500D02*
X143950000Y-171067500D01*
X143950000Y-171067500D02*
X142050000Y-171067500D01*
G04 #@! TO.C,R11*
X127650000Y-126695000D02*
X129550000Y-126695000D01*
X127650000Y-130055000D02*
X127650000Y-126695000D01*
X129550000Y-126695000D02*
X129550000Y-130055000D01*
X129550000Y-130055000D02*
X127650000Y-130055000D01*
G04 #@! TO.C,J1*
X167150000Y-134720000D02*
X167150000Y-143370000D01*
X167150000Y-143370000D02*
X179450000Y-143370000D01*
X179450000Y-134720000D02*
X167150000Y-134720000D01*
X179450000Y-143370000D02*
X179450000Y-134720000D01*
G04 #@! TO.C,D17*
X107150000Y-139950000D02*
X107150000Y-138050000D01*
X103950000Y-139950000D02*
X107150000Y-139950000D01*
X103950000Y-139950000D02*
X103950000Y-138050000D01*
X103950000Y-138050000D02*
X107150000Y-138050000D01*
G04 #@! TO.C,C24*
X133020000Y-162850000D02*
X134980000Y-162850000D01*
X133020000Y-166250000D02*
X133020000Y-162850000D01*
X134980000Y-162850000D02*
X134980000Y-166250000D01*
X134980000Y-166250000D02*
X133020000Y-166250000D01*
G04 #@! TO.C,R2*
X134950000Y-123607500D02*
X136850000Y-123607500D01*
X134950000Y-126967500D02*
X134950000Y-123607500D01*
X136850000Y-123607500D02*
X136850000Y-126967500D01*
X136850000Y-126967500D02*
X134950000Y-126967500D01*
G04 #@! TO.C,R8*
X140050000Y-167707500D02*
X141950000Y-167707500D01*
X140050000Y-171067500D02*
X140050000Y-167707500D01*
X141950000Y-167707500D02*
X141950000Y-171067500D01*
X141950000Y-171067500D02*
X140050000Y-171067500D01*
G04 #@! TO.C,J2*
X134860000Y-171680000D02*
X145500000Y-171680000D01*
X134860000Y-181100000D02*
X134860000Y-171680000D01*
X134860000Y-181100000D02*
X145500000Y-181100000D01*
X145500000Y-181100000D02*
X145500000Y-171680000D01*
G04 #@! TO.C,R13*
X107167500Y-137850000D02*
X103807500Y-137850000D01*
X107167500Y-135950000D02*
X107167500Y-137850000D01*
X103807500Y-137850000D02*
X103807500Y-135950000D01*
X103807500Y-135950000D02*
X107167500Y-135950000D01*
G04 #@! TO.C,U1*
X108640579Y-115930677D02*
X130551022Y-103280677D01*
X117690579Y-131605737D02*
X108640579Y-115930677D01*
X130551022Y-103280677D02*
X139601022Y-118955737D01*
X139601022Y-118955737D02*
X117690579Y-131605737D01*
G04 #@! TD*
M02*
