%TF.GenerationSoftware,KiCad,Pcbnew,8.0.8*%
%TF.CreationDate,2025-04-01T18:27:43+02:00*%
%TF.ProjectId,Blahaj_Pentagramm_Badge_Front,426c6168-616a-45f5-9065-6e7461677261,rev?*%
%TF.SameCoordinates,Original*%
%TF.FileFunction,Drillmap*%
%TF.FilePolarity,Positive*%
%FSLAX45Y45*%
G04 Gerber Fmt 4.5, Leading zero omitted, Abs format (unit mm)*
G04 Created by KiCad (PCBNEW 8.0.8) date 2025-04-01 18:27:43*
%MOMM*%
%LPD*%
G01*
G04 APERTURE LIST*
%ADD10C,1.000000*%
%ADD11C,0.200000*%
%ADD12C,0.270000*%
G04 APERTURE END LIST*
D10*
X14079800Y-10001400D02*
X14168100Y-10004600D01*
X14255900Y-10009800D01*
X14343200Y-10016800D01*
X14430000Y-10025700D01*
X14516200Y-10036500D01*
X14601800Y-10049000D01*
X14686800Y-10063400D01*
X14771200Y-10079500D01*
X14855000Y-10097500D01*
X14938100Y-10117100D01*
X15020500Y-10138500D01*
X15102200Y-10161600D01*
X15183200Y-10186400D01*
X15263500Y-10212800D01*
X15343000Y-10240900D01*
X15421700Y-10270600D01*
X15499600Y-10301900D01*
X15576700Y-10334700D01*
X15653000Y-10369200D01*
X15728400Y-10405100D01*
X15802900Y-10442600D01*
X15876500Y-10481700D01*
X15949200Y-10522100D01*
X16021000Y-10564100D01*
X16091800Y-10607500D01*
X16161600Y-10652300D01*
X16230400Y-10698500D01*
X16298200Y-10746100D01*
X16364900Y-10795000D01*
X16430600Y-10845300D01*
X16495200Y-10896900D01*
X16558700Y-10949800D01*
X16621100Y-11004000D01*
X16682300Y-11059400D01*
X16742400Y-11116100D01*
X16801200Y-11174000D01*
X16858900Y-11233100D01*
X16915400Y-11293400D01*
X16970600Y-11354900D01*
X17024600Y-11417500D01*
X17077200Y-11481200D01*
X17128600Y-11546000D01*
X17178600Y-11611800D01*
X17227300Y-11678800D01*
X17274700Y-11746800D01*
X17320600Y-11815800D01*
X17365200Y-11885700D01*
X17408300Y-11956700D01*
X17450000Y-12028600D01*
X17490200Y-12101500D01*
X17528900Y-12175300D01*
X17566100Y-12250000D01*
X17601800Y-12325500D01*
X17636000Y-12402000D01*
X17668600Y-12479200D01*
X17699600Y-12557300D01*
X17728900Y-12636100D01*
X17756700Y-12715800D01*
X17782800Y-12796200D01*
X17807300Y-12877300D01*
X17830100Y-12959200D01*
X17851100Y-13041700D01*
X17870500Y-13125000D01*
X17888100Y-13208800D01*
X17903900Y-13293400D01*
X17917900Y-13378500D01*
X17930200Y-13464200D01*
X17940600Y-13550500D01*
X17949100Y-13637400D01*
X17955800Y-13724800D01*
X17960600Y-13812700D01*
X17963500Y-13901100D01*
X17964500Y-13990000D01*
X17964500Y-14006500D01*
X17963100Y-14095300D01*
X17959900Y-14183600D01*
X17954700Y-14271400D01*
X17947700Y-14358700D01*
X17938800Y-14445500D01*
X17928000Y-14531700D01*
X17915500Y-14617300D01*
X17901100Y-14702300D01*
X17884900Y-14786700D01*
X17867000Y-14870500D01*
X17847400Y-14953600D01*
X17826000Y-15036000D01*
X17802900Y-15117700D01*
X17778100Y-15198700D01*
X17751700Y-15279000D01*
X17723600Y-15358500D01*
X17693900Y-15437200D01*
X17662600Y-15515100D01*
X17629800Y-15592200D01*
X17595300Y-15668500D01*
X17559300Y-15743900D01*
X17521800Y-15818400D01*
X17482800Y-15892000D01*
X17442400Y-15964700D01*
X17400400Y-16036500D01*
X17357000Y-16107300D01*
X17312200Y-16177100D01*
X17266000Y-16245900D01*
X17218400Y-16313700D01*
X17169500Y-16380400D01*
X17119200Y-16446100D01*
X17067600Y-16510700D01*
X17014700Y-16574200D01*
X16960500Y-16636600D01*
X16905000Y-16697800D01*
X16848400Y-16757900D01*
X16790500Y-16816700D01*
X16731300Y-16874400D01*
X16671100Y-16930900D01*
X16609600Y-16986100D01*
X16547000Y-17040100D01*
X16483300Y-17092700D01*
X16418500Y-17144100D01*
X16352700Y-17194100D01*
X16285700Y-17242800D01*
X16217700Y-17290200D01*
X16148700Y-17336100D01*
X16078700Y-17380700D01*
X16007800Y-17423800D01*
X15935800Y-17465500D01*
X15863000Y-17505700D01*
X15789200Y-17544400D01*
X15714500Y-17581600D01*
X15639000Y-17617300D01*
X15562500Y-17651500D01*
X15485300Y-17684000D01*
X15407200Y-17715100D01*
X15328300Y-17744400D01*
X15248700Y-17772200D01*
X15168300Y-17798300D01*
X15087200Y-17822800D01*
X15005300Y-17845600D01*
X14922800Y-17866600D01*
X14839500Y-17886000D01*
X14755700Y-17903600D01*
X14671100Y-17919400D01*
X14586000Y-17933400D01*
X14500300Y-17945700D01*
X14414000Y-17956100D01*
X14327100Y-17964600D01*
X14239700Y-17971300D01*
X14151800Y-17976100D01*
X14063400Y-17979000D01*
X13974500Y-17980000D01*
X13958000Y-17980000D01*
X13869200Y-17978600D01*
X13780900Y-17975400D01*
X13693100Y-17970200D01*
X13605800Y-17963200D01*
X13519000Y-17954300D01*
X13432800Y-17943500D01*
X13347200Y-17931000D01*
X13262200Y-17916600D01*
X13177800Y-17900400D01*
X13094000Y-17882500D01*
X13010900Y-17862900D01*
X12928500Y-17841500D01*
X12846800Y-17818400D01*
X12765800Y-17793600D01*
X12685500Y-17767200D01*
X12606000Y-17739100D01*
X12527300Y-17709400D01*
X12449400Y-17678100D01*
X12372300Y-17645300D01*
X12296000Y-17610800D01*
X12220600Y-17574800D01*
X12146100Y-17537300D01*
X12072500Y-17498300D01*
X11999800Y-17457900D01*
X11928000Y-17415900D01*
X11857200Y-17372500D01*
X11787400Y-17327700D01*
X11718600Y-17281500D01*
X11650800Y-17233900D01*
X11584100Y-17185000D01*
X11518400Y-17134700D01*
X11453800Y-17083100D01*
X11390300Y-17030200D01*
X11327900Y-16976000D01*
X11266700Y-16920500D01*
X11206600Y-16863900D01*
X11147700Y-16805900D01*
X11090100Y-16746800D01*
X11033600Y-16686600D01*
X10978400Y-16625100D01*
X10924400Y-16562500D01*
X10871800Y-16498800D01*
X10820400Y-16434000D01*
X10770400Y-16368100D01*
X10721700Y-16301200D01*
X10674300Y-16233200D01*
X10628400Y-16164200D01*
X10583800Y-16094200D01*
X10540700Y-16023300D01*
X10499000Y-15951300D01*
X10458800Y-15878500D01*
X10420100Y-15804700D01*
X10382900Y-15730000D01*
X10347200Y-15654500D01*
X10313000Y-15578000D01*
X10280400Y-15500800D01*
X10249400Y-15422700D01*
X10220100Y-15343800D01*
X10192300Y-15264200D01*
X10166200Y-15183800D01*
X10141700Y-15102700D01*
X10118900Y-15020800D01*
X10097900Y-14938300D01*
X10078500Y-14855000D01*
X10060900Y-14771100D01*
X10045100Y-14686600D01*
X10031100Y-14601500D01*
X10018800Y-14515800D01*
X10008400Y-14429500D01*
X9999900Y-14342600D01*
X9993200Y-14255200D01*
X9988400Y-14167300D01*
X9985500Y-14078900D01*
X9984500Y-13990000D01*
X9984500Y-13973500D01*
X9985900Y-13884700D01*
X9989100Y-13796400D01*
X9994300Y-13708600D01*
X10001300Y-13621300D01*
X10010200Y-13534500D01*
X10021000Y-13448300D01*
X10033500Y-13362700D01*
X10047900Y-13277700D01*
X10064100Y-13193300D01*
X10082000Y-13109500D01*
X10101600Y-13026400D01*
X10123000Y-12944000D01*
X10146100Y-12862300D01*
X10170900Y-12781300D01*
X10197300Y-12701000D01*
X10225400Y-12621500D01*
X10255100Y-12542800D01*
X10286400Y-12464900D01*
X10319200Y-12387800D01*
X10353700Y-12311500D01*
X10389600Y-12236100D01*
X10427200Y-12161600D01*
X10466200Y-12088000D01*
X10506600Y-12015300D01*
X10548600Y-11943500D01*
X10592000Y-11872700D01*
X10636800Y-11802900D01*
X10683000Y-11734100D01*
X10730600Y-11666300D01*
X10779500Y-11599600D01*
X10829800Y-11533900D01*
X10881400Y-11469300D01*
X10934300Y-11405800D01*
X10988500Y-11343400D01*
X11044000Y-11282200D01*
X11100600Y-11222100D01*
X11158500Y-11163200D01*
X11217700Y-11105600D01*
X11277900Y-11049100D01*
X11339400Y-10993900D01*
X11402000Y-10939900D01*
X11465700Y-10887300D01*
X11530500Y-10835900D01*
X11596300Y-10785900D01*
X11663300Y-10737200D01*
X11731300Y-10689800D01*
X11800300Y-10643900D01*
X11870200Y-10599300D01*
X11941200Y-10556200D01*
X12013100Y-10514500D01*
X12086000Y-10474300D01*
X12159800Y-10435600D01*
X12234500Y-10398400D01*
X12310000Y-10362700D01*
X12386500Y-10328500D01*
X12463700Y-10295900D01*
X12541800Y-10264900D01*
X12620600Y-10235600D01*
X12700300Y-10207800D01*
X12780700Y-10181700D01*
X12861800Y-10157200D01*
X12943700Y-10134400D01*
X13026200Y-10113400D01*
X13109500Y-10094000D01*
X13193300Y-10076400D01*
X13277900Y-10060600D01*
X13363000Y-10046600D01*
X13448700Y-10034300D01*
X13535000Y-10023900D01*
X13621900Y-10015400D01*
X13709300Y-10008700D01*
X13797200Y-10003900D01*
X13885600Y-10001000D01*
X13974500Y-10000000D01*
X13991000Y-10000000D01*
X14079800Y-10001400D01*
D11*
D12*
X12865000Y-15245000D02*
X13135000Y-15515000D01*
X13135000Y-15245000D02*
X12865000Y-15515000D01*
X13865000Y-12125000D02*
X14135000Y-12395000D01*
X14135000Y-12125000D02*
X13865000Y-12395000D01*
X14895000Y-15255000D02*
X15165000Y-15525000D01*
X15165000Y-15255000D02*
X14895000Y-15525000D01*
D11*
X10195277Y-18341484D02*
X10195277Y-18141484D01*
X10195277Y-18141484D02*
X10242896Y-18141484D01*
X10242896Y-18141484D02*
X10271467Y-18151008D01*
X10271467Y-18151008D02*
X10290515Y-18170055D01*
X10290515Y-18170055D02*
X10300039Y-18189103D01*
X10300039Y-18189103D02*
X10309563Y-18227198D01*
X10309563Y-18227198D02*
X10309563Y-18255770D01*
X10309563Y-18255770D02*
X10300039Y-18293865D01*
X10300039Y-18293865D02*
X10290515Y-18312912D01*
X10290515Y-18312912D02*
X10271467Y-18331960D01*
X10271467Y-18331960D02*
X10242896Y-18341484D01*
X10242896Y-18341484D02*
X10195277Y-18341484D01*
X10395277Y-18341484D02*
X10395277Y-18208150D01*
X10395277Y-18246246D02*
X10404801Y-18227198D01*
X10404801Y-18227198D02*
X10414324Y-18217674D01*
X10414324Y-18217674D02*
X10433372Y-18208150D01*
X10433372Y-18208150D02*
X10452420Y-18208150D01*
X10519086Y-18341484D02*
X10519086Y-18208150D01*
X10519086Y-18141484D02*
X10509563Y-18151008D01*
X10509563Y-18151008D02*
X10519086Y-18160531D01*
X10519086Y-18160531D02*
X10528610Y-18151008D01*
X10528610Y-18151008D02*
X10519086Y-18141484D01*
X10519086Y-18141484D02*
X10519086Y-18160531D01*
X10642896Y-18341484D02*
X10623848Y-18331960D01*
X10623848Y-18331960D02*
X10614324Y-18312912D01*
X10614324Y-18312912D02*
X10614324Y-18141484D01*
X10747658Y-18341484D02*
X10728610Y-18331960D01*
X10728610Y-18331960D02*
X10719086Y-18312912D01*
X10719086Y-18312912D02*
X10719086Y-18141484D01*
X10976229Y-18341484D02*
X10976229Y-18141484D01*
X10976229Y-18141484D02*
X11042896Y-18284341D01*
X11042896Y-18284341D02*
X11109563Y-18141484D01*
X11109563Y-18141484D02*
X11109563Y-18341484D01*
X11290515Y-18341484D02*
X11290515Y-18236722D01*
X11290515Y-18236722D02*
X11280991Y-18217674D01*
X11280991Y-18217674D02*
X11261943Y-18208150D01*
X11261943Y-18208150D02*
X11223848Y-18208150D01*
X11223848Y-18208150D02*
X11204801Y-18217674D01*
X11290515Y-18331960D02*
X11271467Y-18341484D01*
X11271467Y-18341484D02*
X11223848Y-18341484D01*
X11223848Y-18341484D02*
X11204801Y-18331960D01*
X11204801Y-18331960D02*
X11195277Y-18312912D01*
X11195277Y-18312912D02*
X11195277Y-18293865D01*
X11195277Y-18293865D02*
X11204801Y-18274817D01*
X11204801Y-18274817D02*
X11223848Y-18265293D01*
X11223848Y-18265293D02*
X11271467Y-18265293D01*
X11271467Y-18265293D02*
X11290515Y-18255770D01*
X11385753Y-18208150D02*
X11385753Y-18408150D01*
X11385753Y-18217674D02*
X11404801Y-18208150D01*
X11404801Y-18208150D02*
X11442896Y-18208150D01*
X11442896Y-18208150D02*
X11461943Y-18217674D01*
X11461943Y-18217674D02*
X11471467Y-18227198D01*
X11471467Y-18227198D02*
X11480991Y-18246246D01*
X11480991Y-18246246D02*
X11480991Y-18303389D01*
X11480991Y-18303389D02*
X11471467Y-18322436D01*
X11471467Y-18322436D02*
X11461943Y-18331960D01*
X11461943Y-18331960D02*
X11442896Y-18341484D01*
X11442896Y-18341484D02*
X11404801Y-18341484D01*
X11404801Y-18341484D02*
X11385753Y-18331960D01*
X11566705Y-18322436D02*
X11576229Y-18331960D01*
X11576229Y-18331960D02*
X11566705Y-18341484D01*
X11566705Y-18341484D02*
X11557182Y-18331960D01*
X11557182Y-18331960D02*
X11566705Y-18322436D01*
X11566705Y-18322436D02*
X11566705Y-18341484D01*
X11566705Y-18217674D02*
X11576229Y-18227198D01*
X11576229Y-18227198D02*
X11566705Y-18236722D01*
X11566705Y-18236722D02*
X11557182Y-18227198D01*
X11557182Y-18227198D02*
X11566705Y-18217674D01*
X11566705Y-18217674D02*
X11566705Y-18236722D01*
X9734500Y-18570000D02*
X9934500Y-18770000D01*
X9934500Y-18570000D02*
X9734500Y-18770000D01*
X10185753Y-18580531D02*
X10195277Y-18571008D01*
X10195277Y-18571008D02*
X10214324Y-18561484D01*
X10214324Y-18561484D02*
X10261944Y-18561484D01*
X10261944Y-18561484D02*
X10280991Y-18571008D01*
X10280991Y-18571008D02*
X10290515Y-18580531D01*
X10290515Y-18580531D02*
X10300039Y-18599579D01*
X10300039Y-18599579D02*
X10300039Y-18618627D01*
X10300039Y-18618627D02*
X10290515Y-18647198D01*
X10290515Y-18647198D02*
X10176229Y-18761484D01*
X10176229Y-18761484D02*
X10300039Y-18761484D01*
X10385753Y-18742436D02*
X10395277Y-18751960D01*
X10395277Y-18751960D02*
X10385753Y-18761484D01*
X10385753Y-18761484D02*
X10376229Y-18751960D01*
X10376229Y-18751960D02*
X10385753Y-18742436D01*
X10385753Y-18742436D02*
X10385753Y-18761484D01*
X10461944Y-18561484D02*
X10595277Y-18561484D01*
X10595277Y-18561484D02*
X10509563Y-18761484D01*
X10709563Y-18561484D02*
X10728610Y-18561484D01*
X10728610Y-18561484D02*
X10747658Y-18571008D01*
X10747658Y-18571008D02*
X10757182Y-18580531D01*
X10757182Y-18580531D02*
X10766705Y-18599579D01*
X10766705Y-18599579D02*
X10776229Y-18637674D01*
X10776229Y-18637674D02*
X10776229Y-18685293D01*
X10776229Y-18685293D02*
X10766705Y-18723389D01*
X10766705Y-18723389D02*
X10757182Y-18742436D01*
X10757182Y-18742436D02*
X10747658Y-18751960D01*
X10747658Y-18751960D02*
X10728610Y-18761484D01*
X10728610Y-18761484D02*
X10709563Y-18761484D01*
X10709563Y-18761484D02*
X10690515Y-18751960D01*
X10690515Y-18751960D02*
X10680991Y-18742436D01*
X10680991Y-18742436D02*
X10671467Y-18723389D01*
X10671467Y-18723389D02*
X10661944Y-18685293D01*
X10661944Y-18685293D02*
X10661944Y-18637674D01*
X10661944Y-18637674D02*
X10671467Y-18599579D01*
X10671467Y-18599579D02*
X10680991Y-18580531D01*
X10680991Y-18580531D02*
X10690515Y-18571008D01*
X10690515Y-18571008D02*
X10709563Y-18561484D01*
X10900039Y-18561484D02*
X10919086Y-18561484D01*
X10919086Y-18561484D02*
X10938134Y-18571008D01*
X10938134Y-18571008D02*
X10947658Y-18580531D01*
X10947658Y-18580531D02*
X10957182Y-18599579D01*
X10957182Y-18599579D02*
X10966705Y-18637674D01*
X10966705Y-18637674D02*
X10966705Y-18685293D01*
X10966705Y-18685293D02*
X10957182Y-18723389D01*
X10957182Y-18723389D02*
X10947658Y-18742436D01*
X10947658Y-18742436D02*
X10938134Y-18751960D01*
X10938134Y-18751960D02*
X10919086Y-18761484D01*
X10919086Y-18761484D02*
X10900039Y-18761484D01*
X10900039Y-18761484D02*
X10880991Y-18751960D01*
X10880991Y-18751960D02*
X10871467Y-18742436D01*
X10871467Y-18742436D02*
X10861944Y-18723389D01*
X10861944Y-18723389D02*
X10852420Y-18685293D01*
X10852420Y-18685293D02*
X10852420Y-18637674D01*
X10852420Y-18637674D02*
X10861944Y-18599579D01*
X10861944Y-18599579D02*
X10871467Y-18580531D01*
X10871467Y-18580531D02*
X10880991Y-18571008D01*
X10880991Y-18571008D02*
X10900039Y-18561484D01*
X11052420Y-18761484D02*
X11052420Y-18628150D01*
X11052420Y-18647198D02*
X11061944Y-18637674D01*
X11061944Y-18637674D02*
X11080991Y-18628150D01*
X11080991Y-18628150D02*
X11109563Y-18628150D01*
X11109563Y-18628150D02*
X11128610Y-18637674D01*
X11128610Y-18637674D02*
X11138134Y-18656722D01*
X11138134Y-18656722D02*
X11138134Y-18761484D01*
X11138134Y-18656722D02*
X11147658Y-18637674D01*
X11147658Y-18637674D02*
X11166705Y-18628150D01*
X11166705Y-18628150D02*
X11195277Y-18628150D01*
X11195277Y-18628150D02*
X11214324Y-18637674D01*
X11214324Y-18637674D02*
X11223848Y-18656722D01*
X11223848Y-18656722D02*
X11223848Y-18761484D01*
X11319086Y-18761484D02*
X11319086Y-18628150D01*
X11319086Y-18647198D02*
X11328610Y-18637674D01*
X11328610Y-18637674D02*
X11347658Y-18628150D01*
X11347658Y-18628150D02*
X11376229Y-18628150D01*
X11376229Y-18628150D02*
X11395277Y-18637674D01*
X11395277Y-18637674D02*
X11404801Y-18656722D01*
X11404801Y-18656722D02*
X11404801Y-18761484D01*
X11404801Y-18656722D02*
X11414324Y-18637674D01*
X11414324Y-18637674D02*
X11433372Y-18628150D01*
X11433372Y-18628150D02*
X11461943Y-18628150D01*
X11461943Y-18628150D02*
X11480991Y-18637674D01*
X11480991Y-18637674D02*
X11490515Y-18656722D01*
X11490515Y-18656722D02*
X11490515Y-18761484D01*
X11880991Y-18551960D02*
X11709563Y-18809103D01*
X12138134Y-18561484D02*
X12157182Y-18561484D01*
X12157182Y-18561484D02*
X12176229Y-18571008D01*
X12176229Y-18571008D02*
X12185753Y-18580531D01*
X12185753Y-18580531D02*
X12195277Y-18599579D01*
X12195277Y-18599579D02*
X12204801Y-18637674D01*
X12204801Y-18637674D02*
X12204801Y-18685293D01*
X12204801Y-18685293D02*
X12195277Y-18723389D01*
X12195277Y-18723389D02*
X12185753Y-18742436D01*
X12185753Y-18742436D02*
X12176229Y-18751960D01*
X12176229Y-18751960D02*
X12157182Y-18761484D01*
X12157182Y-18761484D02*
X12138134Y-18761484D01*
X12138134Y-18761484D02*
X12119086Y-18751960D01*
X12119086Y-18751960D02*
X12109563Y-18742436D01*
X12109563Y-18742436D02*
X12100039Y-18723389D01*
X12100039Y-18723389D02*
X12090515Y-18685293D01*
X12090515Y-18685293D02*
X12090515Y-18637674D01*
X12090515Y-18637674D02*
X12100039Y-18599579D01*
X12100039Y-18599579D02*
X12109563Y-18580531D01*
X12109563Y-18580531D02*
X12119086Y-18571008D01*
X12119086Y-18571008D02*
X12138134Y-18561484D01*
X12290515Y-18742436D02*
X12300039Y-18751960D01*
X12300039Y-18751960D02*
X12290515Y-18761484D01*
X12290515Y-18761484D02*
X12280991Y-18751960D01*
X12280991Y-18751960D02*
X12290515Y-18742436D01*
X12290515Y-18742436D02*
X12290515Y-18761484D01*
X12490515Y-18761484D02*
X12376229Y-18761484D01*
X12433372Y-18761484D02*
X12433372Y-18561484D01*
X12433372Y-18561484D02*
X12414325Y-18590055D01*
X12414325Y-18590055D02*
X12395277Y-18609103D01*
X12395277Y-18609103D02*
X12376229Y-18618627D01*
X12614325Y-18561484D02*
X12633372Y-18561484D01*
X12633372Y-18561484D02*
X12652420Y-18571008D01*
X12652420Y-18571008D02*
X12661944Y-18580531D01*
X12661944Y-18580531D02*
X12671467Y-18599579D01*
X12671467Y-18599579D02*
X12680991Y-18637674D01*
X12680991Y-18637674D02*
X12680991Y-18685293D01*
X12680991Y-18685293D02*
X12671467Y-18723389D01*
X12671467Y-18723389D02*
X12661944Y-18742436D01*
X12661944Y-18742436D02*
X12652420Y-18751960D01*
X12652420Y-18751960D02*
X12633372Y-18761484D01*
X12633372Y-18761484D02*
X12614325Y-18761484D01*
X12614325Y-18761484D02*
X12595277Y-18751960D01*
X12595277Y-18751960D02*
X12585753Y-18742436D01*
X12585753Y-18742436D02*
X12576229Y-18723389D01*
X12576229Y-18723389D02*
X12566706Y-18685293D01*
X12566706Y-18685293D02*
X12566706Y-18637674D01*
X12566706Y-18637674D02*
X12576229Y-18599579D01*
X12576229Y-18599579D02*
X12585753Y-18580531D01*
X12585753Y-18580531D02*
X12595277Y-18571008D01*
X12595277Y-18571008D02*
X12614325Y-18561484D01*
X12852420Y-18561484D02*
X12814325Y-18561484D01*
X12814325Y-18561484D02*
X12795277Y-18571008D01*
X12795277Y-18571008D02*
X12785753Y-18580531D01*
X12785753Y-18580531D02*
X12766706Y-18609103D01*
X12766706Y-18609103D02*
X12757182Y-18647198D01*
X12757182Y-18647198D02*
X12757182Y-18723389D01*
X12757182Y-18723389D02*
X12766706Y-18742436D01*
X12766706Y-18742436D02*
X12776229Y-18751960D01*
X12776229Y-18751960D02*
X12795277Y-18761484D01*
X12795277Y-18761484D02*
X12833372Y-18761484D01*
X12833372Y-18761484D02*
X12852420Y-18751960D01*
X12852420Y-18751960D02*
X12861944Y-18742436D01*
X12861944Y-18742436D02*
X12871467Y-18723389D01*
X12871467Y-18723389D02*
X12871467Y-18675770D01*
X12871467Y-18675770D02*
X12861944Y-18656722D01*
X12861944Y-18656722D02*
X12852420Y-18647198D01*
X12852420Y-18647198D02*
X12833372Y-18637674D01*
X12833372Y-18637674D02*
X12795277Y-18637674D01*
X12795277Y-18637674D02*
X12776229Y-18647198D01*
X12776229Y-18647198D02*
X12766706Y-18656722D01*
X12766706Y-18656722D02*
X12757182Y-18675770D01*
X12938134Y-18561484D02*
X13061944Y-18561484D01*
X13061944Y-18561484D02*
X12995277Y-18637674D01*
X12995277Y-18637674D02*
X13023848Y-18637674D01*
X13023848Y-18637674D02*
X13042896Y-18647198D01*
X13042896Y-18647198D02*
X13052420Y-18656722D01*
X13052420Y-18656722D02*
X13061944Y-18675770D01*
X13061944Y-18675770D02*
X13061944Y-18723389D01*
X13061944Y-18723389D02*
X13052420Y-18742436D01*
X13052420Y-18742436D02*
X13042896Y-18751960D01*
X13042896Y-18751960D02*
X13023848Y-18761484D01*
X13023848Y-18761484D02*
X12966706Y-18761484D01*
X12966706Y-18761484D02*
X12947658Y-18751960D01*
X12947658Y-18751960D02*
X12938134Y-18742436D01*
X13138134Y-18561484D02*
X13138134Y-18599579D01*
X13214325Y-18561484D02*
X13214325Y-18599579D01*
X13509563Y-18837674D02*
X13500039Y-18828150D01*
X13500039Y-18828150D02*
X13480991Y-18799579D01*
X13480991Y-18799579D02*
X13471468Y-18780531D01*
X13471468Y-18780531D02*
X13461944Y-18751960D01*
X13461944Y-18751960D02*
X13452420Y-18704341D01*
X13452420Y-18704341D02*
X13452420Y-18666246D01*
X13452420Y-18666246D02*
X13461944Y-18618627D01*
X13461944Y-18618627D02*
X13471468Y-18590055D01*
X13471468Y-18590055D02*
X13480991Y-18571008D01*
X13480991Y-18571008D02*
X13500039Y-18542436D01*
X13500039Y-18542436D02*
X13509563Y-18532912D01*
X13566706Y-18561484D02*
X13690515Y-18561484D01*
X13690515Y-18561484D02*
X13623848Y-18637674D01*
X13623848Y-18637674D02*
X13652420Y-18637674D01*
X13652420Y-18637674D02*
X13671468Y-18647198D01*
X13671468Y-18647198D02*
X13680991Y-18656722D01*
X13680991Y-18656722D02*
X13690515Y-18675770D01*
X13690515Y-18675770D02*
X13690515Y-18723389D01*
X13690515Y-18723389D02*
X13680991Y-18742436D01*
X13680991Y-18742436D02*
X13671468Y-18751960D01*
X13671468Y-18751960D02*
X13652420Y-18761484D01*
X13652420Y-18761484D02*
X13595277Y-18761484D01*
X13595277Y-18761484D02*
X13576229Y-18751960D01*
X13576229Y-18751960D02*
X13566706Y-18742436D01*
X13928610Y-18761484D02*
X13928610Y-18561484D01*
X14014325Y-18761484D02*
X14014325Y-18656722D01*
X14014325Y-18656722D02*
X14004801Y-18637674D01*
X14004801Y-18637674D02*
X13985753Y-18628150D01*
X13985753Y-18628150D02*
X13957182Y-18628150D01*
X13957182Y-18628150D02*
X13938134Y-18637674D01*
X13938134Y-18637674D02*
X13928610Y-18647198D01*
X14138134Y-18761484D02*
X14119087Y-18751960D01*
X14119087Y-18751960D02*
X14109563Y-18742436D01*
X14109563Y-18742436D02*
X14100039Y-18723389D01*
X14100039Y-18723389D02*
X14100039Y-18666246D01*
X14100039Y-18666246D02*
X14109563Y-18647198D01*
X14109563Y-18647198D02*
X14119087Y-18637674D01*
X14119087Y-18637674D02*
X14138134Y-18628150D01*
X14138134Y-18628150D02*
X14166706Y-18628150D01*
X14166706Y-18628150D02*
X14185753Y-18637674D01*
X14185753Y-18637674D02*
X14195277Y-18647198D01*
X14195277Y-18647198D02*
X14204801Y-18666246D01*
X14204801Y-18666246D02*
X14204801Y-18723389D01*
X14204801Y-18723389D02*
X14195277Y-18742436D01*
X14195277Y-18742436D02*
X14185753Y-18751960D01*
X14185753Y-18751960D02*
X14166706Y-18761484D01*
X14166706Y-18761484D02*
X14138134Y-18761484D01*
X14319087Y-18761484D02*
X14300039Y-18751960D01*
X14300039Y-18751960D02*
X14290515Y-18732912D01*
X14290515Y-18732912D02*
X14290515Y-18561484D01*
X14471468Y-18751960D02*
X14452420Y-18761484D01*
X14452420Y-18761484D02*
X14414325Y-18761484D01*
X14414325Y-18761484D02*
X14395277Y-18751960D01*
X14395277Y-18751960D02*
X14385753Y-18732912D01*
X14385753Y-18732912D02*
X14385753Y-18656722D01*
X14385753Y-18656722D02*
X14395277Y-18637674D01*
X14395277Y-18637674D02*
X14414325Y-18628150D01*
X14414325Y-18628150D02*
X14452420Y-18628150D01*
X14452420Y-18628150D02*
X14471468Y-18637674D01*
X14471468Y-18637674D02*
X14480991Y-18656722D01*
X14480991Y-18656722D02*
X14480991Y-18675770D01*
X14480991Y-18675770D02*
X14385753Y-18694817D01*
X14557182Y-18751960D02*
X14576230Y-18761484D01*
X14576230Y-18761484D02*
X14614325Y-18761484D01*
X14614325Y-18761484D02*
X14633372Y-18751960D01*
X14633372Y-18751960D02*
X14642896Y-18732912D01*
X14642896Y-18732912D02*
X14642896Y-18723389D01*
X14642896Y-18723389D02*
X14633372Y-18704341D01*
X14633372Y-18704341D02*
X14614325Y-18694817D01*
X14614325Y-18694817D02*
X14585753Y-18694817D01*
X14585753Y-18694817D02*
X14566706Y-18685293D01*
X14566706Y-18685293D02*
X14557182Y-18666246D01*
X14557182Y-18666246D02*
X14557182Y-18656722D01*
X14557182Y-18656722D02*
X14566706Y-18637674D01*
X14566706Y-18637674D02*
X14585753Y-18628150D01*
X14585753Y-18628150D02*
X14614325Y-18628150D01*
X14614325Y-18628150D02*
X14633372Y-18637674D01*
X14709563Y-18837674D02*
X14719087Y-18828150D01*
X14719087Y-18828150D02*
X14738134Y-18799579D01*
X14738134Y-18799579D02*
X14747658Y-18780531D01*
X14747658Y-18780531D02*
X14757182Y-18751960D01*
X14757182Y-18751960D02*
X14766706Y-18704341D01*
X14766706Y-18704341D02*
X14766706Y-18666246D01*
X14766706Y-18666246D02*
X14757182Y-18618627D01*
X14757182Y-18618627D02*
X14747658Y-18590055D01*
X14747658Y-18590055D02*
X14738134Y-18571008D01*
X14738134Y-18571008D02*
X14719087Y-18542436D01*
X14719087Y-18542436D02*
X14709563Y-18532912D01*
X15071468Y-18837674D02*
X15061944Y-18828150D01*
X15061944Y-18828150D02*
X15042896Y-18799579D01*
X15042896Y-18799579D02*
X15033372Y-18780531D01*
X15033372Y-18780531D02*
X15023849Y-18751960D01*
X15023849Y-18751960D02*
X15014325Y-18704341D01*
X15014325Y-18704341D02*
X15014325Y-18666246D01*
X15014325Y-18666246D02*
X15023849Y-18618627D01*
X15023849Y-18618627D02*
X15033372Y-18590055D01*
X15033372Y-18590055D02*
X15042896Y-18571008D01*
X15042896Y-18571008D02*
X15061944Y-18542436D01*
X15061944Y-18542436D02*
X15071468Y-18532912D01*
X15147658Y-18628150D02*
X15147658Y-18761484D01*
X15147658Y-18647198D02*
X15157182Y-18637674D01*
X15157182Y-18637674D02*
X15176230Y-18628150D01*
X15176230Y-18628150D02*
X15204801Y-18628150D01*
X15204801Y-18628150D02*
X15223849Y-18637674D01*
X15223849Y-18637674D02*
X15233372Y-18656722D01*
X15233372Y-18656722D02*
X15233372Y-18761484D01*
X15357182Y-18761484D02*
X15338134Y-18751960D01*
X15338134Y-18751960D02*
X15328611Y-18742436D01*
X15328611Y-18742436D02*
X15319087Y-18723389D01*
X15319087Y-18723389D02*
X15319087Y-18666246D01*
X15319087Y-18666246D02*
X15328611Y-18647198D01*
X15328611Y-18647198D02*
X15338134Y-18637674D01*
X15338134Y-18637674D02*
X15357182Y-18628150D01*
X15357182Y-18628150D02*
X15385753Y-18628150D01*
X15385753Y-18628150D02*
X15404801Y-18637674D01*
X15404801Y-18637674D02*
X15414325Y-18647198D01*
X15414325Y-18647198D02*
X15423849Y-18666246D01*
X15423849Y-18666246D02*
X15423849Y-18723389D01*
X15423849Y-18723389D02*
X15414325Y-18742436D01*
X15414325Y-18742436D02*
X15404801Y-18751960D01*
X15404801Y-18751960D02*
X15385753Y-18761484D01*
X15385753Y-18761484D02*
X15357182Y-18761484D01*
X15480992Y-18628150D02*
X15557182Y-18628150D01*
X15509563Y-18561484D02*
X15509563Y-18732912D01*
X15509563Y-18732912D02*
X15519087Y-18751960D01*
X15519087Y-18751960D02*
X15538134Y-18761484D01*
X15538134Y-18761484D02*
X15557182Y-18761484D01*
X15776230Y-18628150D02*
X15776230Y-18828150D01*
X15776230Y-18637674D02*
X15795277Y-18628150D01*
X15795277Y-18628150D02*
X15833373Y-18628150D01*
X15833373Y-18628150D02*
X15852420Y-18637674D01*
X15852420Y-18637674D02*
X15861944Y-18647198D01*
X15861944Y-18647198D02*
X15871468Y-18666246D01*
X15871468Y-18666246D02*
X15871468Y-18723389D01*
X15871468Y-18723389D02*
X15861944Y-18742436D01*
X15861944Y-18742436D02*
X15852420Y-18751960D01*
X15852420Y-18751960D02*
X15833373Y-18761484D01*
X15833373Y-18761484D02*
X15795277Y-18761484D01*
X15795277Y-18761484D02*
X15776230Y-18751960D01*
X15985753Y-18761484D02*
X15966706Y-18751960D01*
X15966706Y-18751960D02*
X15957182Y-18732912D01*
X15957182Y-18732912D02*
X15957182Y-18561484D01*
X16147658Y-18761484D02*
X16147658Y-18656722D01*
X16147658Y-18656722D02*
X16138134Y-18637674D01*
X16138134Y-18637674D02*
X16119087Y-18628150D01*
X16119087Y-18628150D02*
X16080992Y-18628150D01*
X16080992Y-18628150D02*
X16061944Y-18637674D01*
X16147658Y-18751960D02*
X16128611Y-18761484D01*
X16128611Y-18761484D02*
X16080992Y-18761484D01*
X16080992Y-18761484D02*
X16061944Y-18751960D01*
X16061944Y-18751960D02*
X16052420Y-18732912D01*
X16052420Y-18732912D02*
X16052420Y-18713865D01*
X16052420Y-18713865D02*
X16061944Y-18694817D01*
X16061944Y-18694817D02*
X16080992Y-18685293D01*
X16080992Y-18685293D02*
X16128611Y-18685293D01*
X16128611Y-18685293D02*
X16147658Y-18675770D01*
X16214325Y-18628150D02*
X16290515Y-18628150D01*
X16242896Y-18561484D02*
X16242896Y-18732912D01*
X16242896Y-18732912D02*
X16252420Y-18751960D01*
X16252420Y-18751960D02*
X16271468Y-18761484D01*
X16271468Y-18761484D02*
X16290515Y-18761484D01*
X16433373Y-18751960D02*
X16414325Y-18761484D01*
X16414325Y-18761484D02*
X16376230Y-18761484D01*
X16376230Y-18761484D02*
X16357182Y-18751960D01*
X16357182Y-18751960D02*
X16347658Y-18732912D01*
X16347658Y-18732912D02*
X16347658Y-18656722D01*
X16347658Y-18656722D02*
X16357182Y-18637674D01*
X16357182Y-18637674D02*
X16376230Y-18628150D01*
X16376230Y-18628150D02*
X16414325Y-18628150D01*
X16414325Y-18628150D02*
X16433373Y-18637674D01*
X16433373Y-18637674D02*
X16442896Y-18656722D01*
X16442896Y-18656722D02*
X16442896Y-18675770D01*
X16442896Y-18675770D02*
X16347658Y-18694817D01*
X16614325Y-18761484D02*
X16614325Y-18561484D01*
X16614325Y-18751960D02*
X16595277Y-18761484D01*
X16595277Y-18761484D02*
X16557182Y-18761484D01*
X16557182Y-18761484D02*
X16538134Y-18751960D01*
X16538134Y-18751960D02*
X16528611Y-18742436D01*
X16528611Y-18742436D02*
X16519087Y-18723389D01*
X16519087Y-18723389D02*
X16519087Y-18666246D01*
X16519087Y-18666246D02*
X16528611Y-18647198D01*
X16528611Y-18647198D02*
X16538134Y-18637674D01*
X16538134Y-18637674D02*
X16557182Y-18628150D01*
X16557182Y-18628150D02*
X16595277Y-18628150D01*
X16595277Y-18628150D02*
X16614325Y-18637674D01*
X16690515Y-18837674D02*
X16700039Y-18828150D01*
X16700039Y-18828150D02*
X16719087Y-18799579D01*
X16719087Y-18799579D02*
X16728611Y-18780531D01*
X16728611Y-18780531D02*
X16738134Y-18751960D01*
X16738134Y-18751960D02*
X16747658Y-18704341D01*
X16747658Y-18704341D02*
X16747658Y-18666246D01*
X16747658Y-18666246D02*
X16738134Y-18618627D01*
X16738134Y-18618627D02*
X16728611Y-18590055D01*
X16728611Y-18590055D02*
X16719087Y-18571008D01*
X16719087Y-18571008D02*
X16700039Y-18542436D01*
X16700039Y-18542436D02*
X16690515Y-18532912D01*
M02*
