%TF.GenerationSoftware,KiCad,Pcbnew,8.0.8*%
%TF.CreationDate,2025-06-19T20:30:19+02:00*%
%TF.ProjectId,Blahaj_Pentagramm_Badge_Front,426c6168-616a-45f5-9065-6e7461677261,rev?*%
%TF.SameCoordinates,Original*%
%TF.FileFunction,Profile,NP*%
%FSLAX46Y46*%
G04 Gerber Fmt 4.6, Leading zero omitted, Abs format (unit mm)*
G04 Created by KiCad (PCBNEW 8.0.8) date 2025-06-19 20:30:19*
%MOMM*%
%LPD*%
G01*
G04 APERTURE LIST*
%TA.AperFunction,Profile*%
%ADD10C,1.000000*%
%TD*%
G04 APERTURE END LIST*
D10*
X140953000Y-100014000D02*
X141836000Y-100046000D01*
X142714000Y-100098000D01*
X143587000Y-100168000D01*
X144455000Y-100257000D01*
X145317000Y-100365000D01*
X146173000Y-100490000D01*
X147023000Y-100634000D01*
X147867000Y-100795000D01*
X148705000Y-100975000D01*
X149536000Y-101171000D01*
X150360000Y-101385000D01*
X151177000Y-101616000D01*
X151987000Y-101864000D01*
X152790000Y-102128000D01*
X153585000Y-102409000D01*
X154372000Y-102706000D01*
X155151000Y-103019000D01*
X155922000Y-103347000D01*
X156685000Y-103692000D01*
X157439000Y-104051000D01*
X158184000Y-104426000D01*
X158920000Y-104817000D01*
X159647000Y-105221000D01*
X160365000Y-105641000D01*
X161073000Y-106075000D01*
X161771000Y-106523000D01*
X162459000Y-106985000D01*
X163137000Y-107461000D01*
X163804000Y-107950000D01*
X164461000Y-108453000D01*
X165107000Y-108969000D01*
X165742000Y-109498000D01*
X166366000Y-110040000D01*
X166978000Y-110594000D01*
X167579000Y-111161000D01*
X168167000Y-111740000D01*
X168744000Y-112331000D01*
X169309000Y-112934000D01*
X169861000Y-113549000D01*
X170401000Y-114175000D01*
X170927000Y-114812000D01*
X171441000Y-115460000D01*
X171941000Y-116118000D01*
X172428000Y-116788000D01*
X172902000Y-117468000D01*
X173361000Y-118158000D01*
X173807000Y-118857000D01*
X174238000Y-119567000D01*
X174655000Y-120286000D01*
X175057000Y-121015000D01*
X175444000Y-121753000D01*
X175816000Y-122500000D01*
X176173000Y-123255000D01*
X176515000Y-124020000D01*
X176841000Y-124792000D01*
X177151000Y-125573000D01*
X177444000Y-126361000D01*
X177722000Y-127158000D01*
X177983000Y-127962000D01*
X178228000Y-128773000D01*
X178456000Y-129592000D01*
X178666000Y-130417000D01*
X178860000Y-131250000D01*
X179036000Y-132088000D01*
X179194000Y-132934000D01*
X179334000Y-133785000D01*
X179457000Y-134642000D01*
X179561000Y-135505000D01*
X179646000Y-136374000D01*
X179713000Y-137248000D01*
X179761000Y-138127000D01*
X179790000Y-139011000D01*
X179800000Y-139900000D01*
X179800000Y-140065000D01*
X179786000Y-140953000D01*
X179754000Y-141836000D01*
X179702000Y-142714000D01*
X179632000Y-143587000D01*
X179543000Y-144455000D01*
X179435000Y-145317000D01*
X179310000Y-146173000D01*
X179166000Y-147023000D01*
X179004000Y-147867000D01*
X178825000Y-148705000D01*
X178629000Y-149536000D01*
X178415000Y-150360000D01*
X178184000Y-151177000D01*
X177936000Y-151987000D01*
X177672000Y-152790000D01*
X177391000Y-153585000D01*
X177094000Y-154372000D01*
X176781000Y-155151000D01*
X176453000Y-155922000D01*
X176108000Y-156685000D01*
X175748000Y-157439000D01*
X175373000Y-158184000D01*
X174983000Y-158920000D01*
X174579000Y-159647000D01*
X174159000Y-160365000D01*
X173725000Y-161073000D01*
X173277000Y-161771000D01*
X172815000Y-162459000D01*
X172339000Y-163137000D01*
X171850000Y-163804000D01*
X171347000Y-164461000D01*
X170831000Y-165107000D01*
X170302000Y-165742000D01*
X169760000Y-166366000D01*
X169205000Y-166978000D01*
X168639000Y-167579000D01*
X168060000Y-168167000D01*
X167468000Y-168744000D01*
X166866000Y-169309000D01*
X166251000Y-169861000D01*
X165625000Y-170401000D01*
X164988000Y-170927000D01*
X164340000Y-171441000D01*
X163682000Y-171941000D01*
X163012000Y-172428000D01*
X162332000Y-172902000D01*
X161642000Y-173361000D01*
X160942000Y-173807000D01*
X160233000Y-174238000D01*
X159513000Y-174655000D01*
X158785000Y-175057000D01*
X158047000Y-175444000D01*
X157300000Y-175816000D01*
X156545000Y-176173000D01*
X155780000Y-176515000D01*
X155008000Y-176840000D01*
X154227000Y-177151000D01*
X153438000Y-177444000D01*
X152642000Y-177722000D01*
X151838000Y-177983000D01*
X151027000Y-178228000D01*
X150208000Y-178456000D01*
X149383000Y-178666000D01*
X148550000Y-178860000D01*
X147712000Y-179036000D01*
X146866000Y-179194000D01*
X146015000Y-179334000D01*
X145158000Y-179457000D01*
X144295000Y-179561000D01*
X143426000Y-179646000D01*
X142552000Y-179713000D01*
X141673000Y-179761000D01*
X140789000Y-179790000D01*
X139900000Y-179800000D01*
X139735000Y-179800000D01*
X138847000Y-179786000D01*
X137964000Y-179754000D01*
X137086000Y-179702000D01*
X136213000Y-179632000D01*
X135345000Y-179543000D01*
X134483000Y-179435000D01*
X133627000Y-179310000D01*
X132777000Y-179166000D01*
X131933000Y-179004000D01*
X131095000Y-178825000D01*
X130264000Y-178629000D01*
X129440000Y-178415000D01*
X128623000Y-178184000D01*
X127813000Y-177936000D01*
X127010000Y-177672000D01*
X126215000Y-177391000D01*
X125428000Y-177094000D01*
X124649000Y-176781000D01*
X123878000Y-176453000D01*
X123115000Y-176108000D01*
X122361000Y-175748000D01*
X121616000Y-175373000D01*
X120880000Y-174983000D01*
X120153000Y-174579000D01*
X119435000Y-174159000D01*
X118727000Y-173725000D01*
X118029000Y-173277000D01*
X117341000Y-172815000D01*
X116663000Y-172339000D01*
X115996000Y-171850000D01*
X115339000Y-171347000D01*
X114693000Y-170831000D01*
X114058000Y-170302000D01*
X113434000Y-169760000D01*
X112822000Y-169205000D01*
X112221000Y-168639000D01*
X111632000Y-168059000D01*
X111056000Y-167468000D01*
X110491000Y-166866000D01*
X109939000Y-166251000D01*
X109399000Y-165625000D01*
X108873000Y-164988000D01*
X108359000Y-164340000D01*
X107859000Y-163681000D01*
X107372000Y-163012000D01*
X106898000Y-162332000D01*
X106439000Y-161642000D01*
X105993000Y-160942000D01*
X105562000Y-160233000D01*
X105145000Y-159513000D01*
X104743000Y-158785000D01*
X104356000Y-158047000D01*
X103984000Y-157300000D01*
X103627000Y-156545000D01*
X103285000Y-155780000D01*
X102959000Y-155008000D01*
X102649000Y-154227000D01*
X102356000Y-153438000D01*
X102078000Y-152642000D01*
X101817000Y-151838000D01*
X101572000Y-151027000D01*
X101344000Y-150208000D01*
X101134000Y-149383000D01*
X100940000Y-148550000D01*
X100764000Y-147711000D01*
X100606000Y-146866000D01*
X100466000Y-146015000D01*
X100343000Y-145158000D01*
X100239000Y-144295000D01*
X100154000Y-143426000D01*
X100087000Y-142552000D01*
X100039000Y-141673000D01*
X100010000Y-140789000D01*
X100000000Y-139900000D01*
X100000000Y-139735000D01*
X100014000Y-138847000D01*
X100046000Y-137964000D01*
X100098000Y-137086000D01*
X100168000Y-136213000D01*
X100257000Y-135345000D01*
X100365000Y-134483000D01*
X100490000Y-133627000D01*
X100634000Y-132777000D01*
X100796000Y-131933000D01*
X100975000Y-131095000D01*
X101171000Y-130264000D01*
X101385000Y-129440000D01*
X101616000Y-128623000D01*
X101864000Y-127813000D01*
X102128000Y-127010000D01*
X102409000Y-126215000D01*
X102706000Y-125428000D01*
X103019000Y-124649000D01*
X103347000Y-123878000D01*
X103692000Y-123115000D01*
X104051000Y-122361000D01*
X104427000Y-121616000D01*
X104817000Y-120880000D01*
X105221000Y-120153000D01*
X105641000Y-119435000D01*
X106075000Y-118727000D01*
X106523000Y-118029000D01*
X106985000Y-117341000D01*
X107461000Y-116663000D01*
X107950000Y-115996000D01*
X108453000Y-115339000D01*
X108969000Y-114693000D01*
X109498000Y-114058000D01*
X110040000Y-113434000D01*
X110595000Y-112822000D01*
X111161000Y-112221000D01*
X111740000Y-111632000D01*
X112332000Y-111056000D01*
X112934000Y-110491000D01*
X113549000Y-109939000D01*
X114175000Y-109399000D01*
X114812000Y-108873000D01*
X115460000Y-108359000D01*
X116118000Y-107859000D01*
X116788000Y-107372000D01*
X117468000Y-106898000D01*
X118158000Y-106439000D01*
X118857000Y-105993000D01*
X119567000Y-105562000D01*
X120286000Y-105145000D01*
X121015000Y-104743000D01*
X121753000Y-104356000D01*
X122500000Y-103984000D01*
X123255000Y-103627000D01*
X124020000Y-103285000D01*
X124792000Y-102959000D01*
X125573000Y-102649000D01*
X126361000Y-102356000D01*
X127158000Y-102078000D01*
X127962000Y-101817000D01*
X128773000Y-101572000D01*
X129592000Y-101344000D01*
X130417000Y-101134000D01*
X131250000Y-100940000D01*
X132088000Y-100764000D01*
X132934000Y-100606000D01*
X133785000Y-100466000D01*
X134642000Y-100343000D01*
X135505000Y-100239000D01*
X136374000Y-100154000D01*
X137248000Y-100087000D01*
X138127000Y-100039000D01*
X139011000Y-100010000D01*
X139900000Y-100000000D01*
X140065000Y-100000000D01*
X140953000Y-100014000D01*
X140953000Y-100014000D02*
X141836000Y-100046000D01*
X142714000Y-100098000D01*
X143587000Y-100168000D01*
X144455000Y-100257000D01*
X145317000Y-100365000D01*
X146173000Y-100490000D01*
X147023000Y-100634000D01*
X147867000Y-100795000D01*
X148705000Y-100975000D01*
X149536000Y-101171000D01*
X150360000Y-101385000D01*
X151177000Y-101616000D01*
X151987000Y-101864000D01*
X152790000Y-102128000D01*
X153585000Y-102409000D01*
X154372000Y-102706000D01*
X155151000Y-103019000D01*
X155922000Y-103347000D01*
X156685000Y-103692000D01*
X157439000Y-104051000D01*
X158184000Y-104426000D01*
X158920000Y-104817000D01*
X159647000Y-105221000D01*
X160365000Y-105641000D01*
X161073000Y-106075000D01*
X161771000Y-106523000D01*
X162459000Y-106985000D01*
X163137000Y-107461000D01*
X163804000Y-107950000D01*
X164461000Y-108453000D01*
X165107000Y-108969000D01*
X165742000Y-109498000D01*
X166366000Y-110040000D01*
X166978000Y-110594000D01*
X167579000Y-111161000D01*
X168167000Y-111740000D01*
X168744000Y-112331000D01*
X169309000Y-112934000D01*
X169861000Y-113549000D01*
X170401000Y-114175000D01*
X170927000Y-114812000D01*
X171441000Y-115460000D01*
X171941000Y-116118000D01*
X172428000Y-116788000D01*
X172902000Y-117468000D01*
X173361000Y-118158000D01*
X173807000Y-118857000D01*
X174238000Y-119567000D01*
X174655000Y-120286000D01*
X175057000Y-121015000D01*
X175444000Y-121753000D01*
X175816000Y-122500000D01*
X176173000Y-123255000D01*
X176515000Y-124020000D01*
X176841000Y-124792000D01*
X177151000Y-125573000D01*
X177444000Y-126361000D01*
X177722000Y-127158000D01*
X177983000Y-127962000D01*
X178228000Y-128773000D01*
X178456000Y-129592000D01*
X178666000Y-130417000D01*
X178860000Y-131250000D01*
X179036000Y-132088000D01*
X179194000Y-132934000D01*
X179334000Y-133785000D01*
X179457000Y-134642000D01*
X179561000Y-135505000D01*
X179646000Y-136374000D01*
X179713000Y-137248000D01*
X179761000Y-138127000D01*
X179790000Y-139011000D01*
X179800000Y-139900000D01*
X179800000Y-140065000D01*
X179786000Y-140953000D01*
X179754000Y-141836000D01*
X179702000Y-142714000D01*
X179632000Y-143587000D01*
X179543000Y-144455000D01*
X179435000Y-145317000D01*
X179310000Y-146173000D01*
X179166000Y-147023000D01*
X179004000Y-147867000D01*
X178825000Y-148705000D01*
X178629000Y-149536000D01*
X178415000Y-150360000D01*
X178184000Y-151177000D01*
X177936000Y-151987000D01*
X177672000Y-152790000D01*
X177391000Y-153585000D01*
X177094000Y-154372000D01*
X176781000Y-155151000D01*
X176453000Y-155922000D01*
X176108000Y-156685000D01*
X175748000Y-157439000D01*
X175373000Y-158184000D01*
X174983000Y-158920000D01*
X174579000Y-159647000D01*
X174159000Y-160365000D01*
X173725000Y-161073000D01*
X173277000Y-161771000D01*
X172815000Y-162459000D01*
X172339000Y-163137000D01*
X171850000Y-163804000D01*
X171347000Y-164461000D01*
X170831000Y-165107000D01*
X170302000Y-165742000D01*
X169760000Y-166366000D01*
X169205000Y-166978000D01*
X168639000Y-167579000D01*
X168060000Y-168167000D01*
X167468000Y-168744000D01*
X166866000Y-169309000D01*
X166251000Y-169861000D01*
X165625000Y-170401000D01*
X164988000Y-170927000D01*
X164340000Y-171441000D01*
X163682000Y-171941000D01*
X163012000Y-172428000D01*
X162332000Y-172902000D01*
X161642000Y-173361000D01*
X160942000Y-173807000D01*
X160233000Y-174238000D01*
X159513000Y-174655000D01*
X158785000Y-175057000D01*
X158047000Y-175444000D01*
X157300000Y-175816000D01*
X156545000Y-176173000D01*
X155780000Y-176515000D01*
X155008000Y-176840000D01*
X154227000Y-177151000D01*
X153438000Y-177444000D01*
X152642000Y-177722000D01*
X151838000Y-177983000D01*
X151027000Y-178228000D01*
X150208000Y-178456000D01*
X149383000Y-178666000D01*
X148550000Y-178860000D01*
X147712000Y-179036000D01*
X146866000Y-179194000D01*
X146015000Y-179334000D01*
X145158000Y-179457000D01*
X144295000Y-179561000D01*
X143426000Y-179646000D01*
X142552000Y-179713000D01*
X141673000Y-179761000D01*
X140789000Y-179790000D01*
X139900000Y-179800000D01*
X139735000Y-179800000D01*
X138847000Y-179786000D01*
X137964000Y-179754000D01*
X137086000Y-179702000D01*
X136213000Y-179632000D01*
X135345000Y-179543000D01*
X134483000Y-179435000D01*
X133627000Y-179310000D01*
X132777000Y-179166000D01*
X131933000Y-179004000D01*
X131095000Y-178825000D01*
X130264000Y-178629000D01*
X129440000Y-178415000D01*
X128623000Y-178184000D01*
X127813000Y-177936000D01*
X127010000Y-177672000D01*
X126215000Y-177391000D01*
X125428000Y-177094000D01*
X124649000Y-176781000D01*
X123878000Y-176453000D01*
X123115000Y-176108000D01*
X122361000Y-175748000D01*
X121616000Y-175373000D01*
X120880000Y-174983000D01*
X120153000Y-174579000D01*
X119435000Y-174159000D01*
X118727000Y-173725000D01*
X118029000Y-173277000D01*
X117341000Y-172815000D01*
X116663000Y-172339000D01*
X115996000Y-171850000D01*
X115339000Y-171347000D01*
X114693000Y-170831000D01*
X114058000Y-170302000D01*
X113434000Y-169760000D01*
X112822000Y-169205000D01*
X112221000Y-168639000D01*
X111632000Y-168059000D01*
X111056000Y-167468000D01*
X110491000Y-166866000D01*
X109939000Y-166251000D01*
X109399000Y-165625000D01*
X108873000Y-164988000D01*
X108359000Y-164340000D01*
X107859000Y-163681000D01*
X107372000Y-163012000D01*
X106898000Y-162332000D01*
X106439000Y-161642000D01*
X105993000Y-160942000D01*
X105562000Y-160233000D01*
X105145000Y-159513000D01*
X104743000Y-158785000D01*
X104356000Y-158047000D01*
X103984000Y-157300000D01*
X103627000Y-156545000D01*
X103285000Y-155780000D01*
X102959000Y-155008000D01*
X102649000Y-154227000D01*
X102356000Y-153438000D01*
X102078000Y-152642000D01*
X101817000Y-151838000D01*
X101572000Y-151027000D01*
X101344000Y-150208000D01*
X101134000Y-149383000D01*
X100940000Y-148550000D01*
X100764000Y-147711000D01*
X100606000Y-146866000D01*
X100466000Y-146015000D01*
X100343000Y-145158000D01*
X100239000Y-144295000D01*
X100154000Y-143426000D01*
X100087000Y-142552000D01*
X100039000Y-141673000D01*
X100010000Y-140789000D01*
X100000000Y-139900000D01*
X100000000Y-139735000D01*
X100014000Y-138847000D01*
X100046000Y-137964000D01*
X100098000Y-137086000D01*
X100168000Y-136213000D01*
X100257000Y-135345000D01*
X100365000Y-134483000D01*
X100490000Y-133627000D01*
X100634000Y-132777000D01*
X100796000Y-131933000D01*
X100975000Y-131095000D01*
X101171000Y-130264000D01*
X101385000Y-129440000D01*
X101616000Y-128623000D01*
X101864000Y-127813000D01*
X102128000Y-127010000D01*
X102409000Y-126215000D01*
X102706000Y-125428000D01*
X103019000Y-124649000D01*
X103347000Y-123878000D01*
X103692000Y-123115000D01*
X104051000Y-122361000D01*
X104427000Y-121616000D01*
X104817000Y-120880000D01*
X105221000Y-120153000D01*
X105641000Y-119435000D01*
X106075000Y-118727000D01*
X106523000Y-118029000D01*
X106985000Y-117341000D01*
X107461000Y-116663000D01*
X107950000Y-115996000D01*
X108453000Y-115339000D01*
X108969000Y-114693000D01*
X109498000Y-114058000D01*
X110040000Y-113434000D01*
X110595000Y-112822000D01*
X111161000Y-112221000D01*
X111740000Y-111632000D01*
X112332000Y-111056000D01*
X112934000Y-110491000D01*
X113549000Y-109939000D01*
X114175000Y-109399000D01*
X114812000Y-108873000D01*
X115460000Y-108359000D01*
X116118000Y-107859000D01*
X116788000Y-107372000D01*
X117468000Y-106898000D01*
X118158000Y-106439000D01*
X118857000Y-105993000D01*
X119567000Y-105562000D01*
X120286000Y-105145000D01*
X121015000Y-104743000D01*
X121753000Y-104356000D01*
X122500000Y-103984000D01*
X123255000Y-103627000D01*
X124020000Y-103285000D01*
X124792000Y-102959000D01*
X125573000Y-102649000D01*
X126361000Y-102356000D01*
X127158000Y-102078000D01*
X127962000Y-101817000D01*
X128773000Y-101572000D01*
X129592000Y-101344000D01*
X130417000Y-101134000D01*
X131250000Y-100940000D01*
X132088000Y-100764000D01*
X132934000Y-100606000D01*
X133785000Y-100466000D01*
X134642000Y-100343000D01*
X135505000Y-100239000D01*
X136374000Y-100154000D01*
X137248000Y-100087000D01*
X138127000Y-100039000D01*
X139011000Y-100010000D01*
X139900000Y-100000000D01*
X140065000Y-100000000D01*
X140953000Y-100014000D01*
X140953000Y-100014000D02*
X141836000Y-100046000D01*
X142714000Y-100098000D01*
X143587000Y-100168000D01*
X144455000Y-100257000D01*
X145317000Y-100365000D01*
X146173000Y-100490000D01*
X147023000Y-100634000D01*
X147867000Y-100795000D01*
X148705000Y-100975000D01*
X149536000Y-101171000D01*
X150360000Y-101385000D01*
X151177000Y-101616000D01*
X151987000Y-101864000D01*
X152790000Y-102128000D01*
X153585000Y-102409000D01*
X154372000Y-102706000D01*
X155151000Y-103019000D01*
X155922000Y-103347000D01*
X156685000Y-103692000D01*
X157439000Y-104051000D01*
X158184000Y-104426000D01*
X158920000Y-104817000D01*
X159647000Y-105221000D01*
X160365000Y-105641000D01*
X161073000Y-106075000D01*
X161771000Y-106523000D01*
X162459000Y-106985000D01*
X163137000Y-107461000D01*
X163804000Y-107950000D01*
X164461000Y-108453000D01*
X165107000Y-108969000D01*
X165742000Y-109498000D01*
X166366000Y-110040000D01*
X166978000Y-110594000D01*
X167579000Y-111161000D01*
X168167000Y-111740000D01*
X168744000Y-112331000D01*
X169309000Y-112934000D01*
X169861000Y-113549000D01*
X170401000Y-114175000D01*
X170927000Y-114812000D01*
X171441000Y-115460000D01*
X171941000Y-116118000D01*
X172428000Y-116788000D01*
X172902000Y-117468000D01*
X173361000Y-118158000D01*
X173807000Y-118857000D01*
X174238000Y-119567000D01*
X174655000Y-120286000D01*
X175057000Y-121015000D01*
X175444000Y-121753000D01*
X175816000Y-122500000D01*
X176173000Y-123255000D01*
X176515000Y-124020000D01*
X176841000Y-124792000D01*
X177151000Y-125573000D01*
X177444000Y-126361000D01*
X177722000Y-127158000D01*
X177983000Y-127962000D01*
X178228000Y-128773000D01*
X178456000Y-129592000D01*
X178666000Y-130417000D01*
X178860000Y-131250000D01*
X179036000Y-132088000D01*
X179194000Y-132934000D01*
X179334000Y-133785000D01*
X179457000Y-134642000D01*
X179561000Y-135505000D01*
X179646000Y-136374000D01*
X179713000Y-137248000D01*
X179761000Y-138127000D01*
X179790000Y-139011000D01*
X179800000Y-139900000D01*
X179800000Y-140065000D01*
X179786000Y-140953000D01*
X179754000Y-141836000D01*
X179702000Y-142714000D01*
X179632000Y-143587000D01*
X179543000Y-144455000D01*
X179435000Y-145317000D01*
X179310000Y-146173000D01*
X179166000Y-147023000D01*
X179004000Y-147867000D01*
X178825000Y-148705000D01*
X178629000Y-149536000D01*
X178415000Y-150360000D01*
X178184000Y-151177000D01*
X177936000Y-151987000D01*
X177672000Y-152790000D01*
X177391000Y-153585000D01*
X177094000Y-154372000D01*
X176781000Y-155151000D01*
X176453000Y-155922000D01*
X176108000Y-156685000D01*
X175748000Y-157439000D01*
X175373000Y-158184000D01*
X174983000Y-158920000D01*
X174579000Y-159647000D01*
X174159000Y-160365000D01*
X173725000Y-161073000D01*
X173277000Y-161771000D01*
X172815000Y-162459000D01*
X172339000Y-163137000D01*
X171850000Y-163804000D01*
X171347000Y-164461000D01*
X170831000Y-165107000D01*
X170302000Y-165742000D01*
X169760000Y-166366000D01*
X169205000Y-166978000D01*
X168639000Y-167579000D01*
X168060000Y-168167000D01*
X167468000Y-168744000D01*
X166866000Y-169309000D01*
X166251000Y-169861000D01*
X165625000Y-170401000D01*
X164988000Y-170927000D01*
X164340000Y-171441000D01*
X163682000Y-171941000D01*
X163012000Y-172428000D01*
X162332000Y-172902000D01*
X161642000Y-173361000D01*
X160942000Y-173807000D01*
X160233000Y-174238000D01*
X159513000Y-174655000D01*
X158785000Y-175057000D01*
X158047000Y-175444000D01*
X157300000Y-175816000D01*
X156545000Y-176173000D01*
X155780000Y-176515000D01*
X155008000Y-176840000D01*
X154227000Y-177151000D01*
X153438000Y-177444000D01*
X152642000Y-177722000D01*
X151838000Y-177983000D01*
X151027000Y-178228000D01*
X150208000Y-178456000D01*
X149383000Y-178666000D01*
X148550000Y-178860000D01*
X147712000Y-179036000D01*
X146866000Y-179194000D01*
X146015000Y-179334000D01*
X145158000Y-179457000D01*
X144295000Y-179561000D01*
X143426000Y-179646000D01*
X142552000Y-179713000D01*
X141673000Y-179761000D01*
X140789000Y-179790000D01*
X139900000Y-179800000D01*
X139735000Y-179800000D01*
X138847000Y-179786000D01*
X137964000Y-179754000D01*
X137086000Y-179702000D01*
X136213000Y-179632000D01*
X135345000Y-179543000D01*
X134483000Y-179435000D01*
X133627000Y-179310000D01*
X132777000Y-179166000D01*
X131933000Y-179004000D01*
X131095000Y-178825000D01*
X130264000Y-178629000D01*
X129440000Y-178415000D01*
X128623000Y-178184000D01*
X127813000Y-177936000D01*
X127010000Y-177672000D01*
X126215000Y-177391000D01*
X125428000Y-177094000D01*
X124649000Y-176781000D01*
X123878000Y-176453000D01*
X123115000Y-176108000D01*
X122361000Y-175748000D01*
X121616000Y-175373000D01*
X120880000Y-174983000D01*
X120153000Y-174579000D01*
X119435000Y-174159000D01*
X118727000Y-173725000D01*
X118029000Y-173277000D01*
X117341000Y-172815000D01*
X116663000Y-172339000D01*
X115996000Y-171850000D01*
X115339000Y-171347000D01*
X114693000Y-170831000D01*
X114058000Y-170302000D01*
X113434000Y-169760000D01*
X112822000Y-169205000D01*
X112221000Y-168639000D01*
X111632000Y-168059000D01*
X111056000Y-167468000D01*
X110491000Y-166866000D01*
X109939000Y-166251000D01*
X109399000Y-165625000D01*
X108873000Y-164988000D01*
X108359000Y-164340000D01*
X107859000Y-163681000D01*
X107372000Y-163012000D01*
X106898000Y-162332000D01*
X106439000Y-161642000D01*
X105993000Y-160942000D01*
X105562000Y-160233000D01*
X105145000Y-159513000D01*
X104743000Y-158785000D01*
X104356000Y-158047000D01*
X103984000Y-157300000D01*
X103627000Y-156545000D01*
X103285000Y-155780000D01*
X102959000Y-155008000D01*
X102649000Y-154227000D01*
X102356000Y-153438000D01*
X102078000Y-152642000D01*
X101817000Y-151838000D01*
X101572000Y-151027000D01*
X101344000Y-150208000D01*
X101134000Y-149383000D01*
X100940000Y-148550000D01*
X100764000Y-147711000D01*
X100606000Y-146866000D01*
X100466000Y-146015000D01*
X100343000Y-145158000D01*
X100239000Y-144295000D01*
X100154000Y-143426000D01*
X100087000Y-142552000D01*
X100039000Y-141673000D01*
X100010000Y-140789000D01*
X100000000Y-139900000D01*
X100000000Y-139735000D01*
X100014000Y-138847000D01*
X100046000Y-137964000D01*
X100098000Y-137086000D01*
X100168000Y-136213000D01*
X100257000Y-135345000D01*
X100365000Y-134483000D01*
X100490000Y-133627000D01*
X100634000Y-132777000D01*
X100796000Y-131933000D01*
X100975000Y-131095000D01*
X101171000Y-130264000D01*
X101385000Y-129440000D01*
X101616000Y-128623000D01*
X101864000Y-127813000D01*
X102128000Y-127010000D01*
X102409000Y-126215000D01*
X102706000Y-125428000D01*
X103019000Y-124649000D01*
X103347000Y-123878000D01*
X103692000Y-123115000D01*
X104051000Y-122361000D01*
X104427000Y-121616000D01*
X104817000Y-120880000D01*
X105221000Y-120153000D01*
X105641000Y-119435000D01*
X106075000Y-118727000D01*
X106523000Y-118029000D01*
X106985000Y-117341000D01*
X107461000Y-116663000D01*
X107950000Y-115996000D01*
X108453000Y-115339000D01*
X108969000Y-114693000D01*
X109498000Y-114058000D01*
X110040000Y-113434000D01*
X110595000Y-112822000D01*
X111161000Y-112221000D01*
X111740000Y-111632000D01*
X112332000Y-111056000D01*
X112934000Y-110491000D01*
X113549000Y-109939000D01*
X114175000Y-109399000D01*
X114812000Y-108873000D01*
X115460000Y-108359000D01*
X116118000Y-107859000D01*
X116788000Y-107372000D01*
X117468000Y-106898000D01*
X118158000Y-106439000D01*
X118857000Y-105993000D01*
X119567000Y-105562000D01*
X120286000Y-105145000D01*
X121015000Y-104743000D01*
X121753000Y-104356000D01*
X122500000Y-103984000D01*
X123255000Y-103627000D01*
X124020000Y-103285000D01*
X124792000Y-102959000D01*
X125573000Y-102649000D01*
X126361000Y-102356000D01*
X127158000Y-102078000D01*
X127962000Y-101817000D01*
X128773000Y-101572000D01*
X129592000Y-101344000D01*
X130417000Y-101134000D01*
X131250000Y-100940000D01*
X132088000Y-100764000D01*
X132934000Y-100606000D01*
X133785000Y-100466000D01*
X134642000Y-100343000D01*
X135505000Y-100239000D01*
X136374000Y-100154000D01*
X137248000Y-100087000D01*
X138127000Y-100039000D01*
X139011000Y-100010000D01*
X139900000Y-100000000D01*
X140065000Y-100000000D01*
X140953000Y-100014000D01*
X140953000Y-100014000D02*
X141836000Y-100046000D01*
X142714000Y-100098000D01*
X143587000Y-100168000D01*
X144455000Y-100257000D01*
X145317000Y-100365000D01*
X146173000Y-100490000D01*
X147023000Y-100634000D01*
X147867000Y-100795000D01*
X148705000Y-100975000D01*
X149536000Y-101171000D01*
X150360000Y-101385000D01*
X151177000Y-101616000D01*
X151987000Y-101864000D01*
X152790000Y-102128000D01*
X153585000Y-102409000D01*
X154372000Y-102706000D01*
X155151000Y-103019000D01*
X155922000Y-103347000D01*
X156685000Y-103692000D01*
X157439000Y-104051000D01*
X158184000Y-104426000D01*
X158920000Y-104817000D01*
X159647000Y-105221000D01*
X160365000Y-105641000D01*
X161073000Y-106075000D01*
X161771000Y-106523000D01*
X162459000Y-106985000D01*
X163137000Y-107461000D01*
X163804000Y-107950000D01*
X164461000Y-108453000D01*
X165107000Y-108969000D01*
X165742000Y-109498000D01*
X166366000Y-110040000D01*
X166978000Y-110594000D01*
X167579000Y-111161000D01*
X168167000Y-111740000D01*
X168744000Y-112331000D01*
X169309000Y-112934000D01*
X169861000Y-113549000D01*
X170401000Y-114175000D01*
X170927000Y-114812000D01*
X171441000Y-115460000D01*
X171941000Y-116118000D01*
X172428000Y-116788000D01*
X172902000Y-117468000D01*
X173361000Y-118158000D01*
X173807000Y-118857000D01*
X174238000Y-119567000D01*
X174655000Y-120286000D01*
X175057000Y-121015000D01*
X175444000Y-121753000D01*
X175816000Y-122500000D01*
X176173000Y-123255000D01*
X176515000Y-124020000D01*
X176841000Y-124792000D01*
X177151000Y-125573000D01*
X177444000Y-126361000D01*
X177722000Y-127158000D01*
X177983000Y-127962000D01*
X178228000Y-128773000D01*
X178456000Y-129592000D01*
X178666000Y-130417000D01*
X178860000Y-131250000D01*
X179036000Y-132088000D01*
X179194000Y-132934000D01*
X179334000Y-133785000D01*
X179457000Y-134642000D01*
X179561000Y-135505000D01*
X179646000Y-136374000D01*
X179713000Y-137248000D01*
X179761000Y-138127000D01*
X179790000Y-139011000D01*
X179800000Y-139900000D01*
X179800000Y-140065000D01*
X179786000Y-140953000D01*
X179754000Y-141836000D01*
X179702000Y-142714000D01*
X179632000Y-143587000D01*
X179543000Y-144455000D01*
X179435000Y-145317000D01*
X179310000Y-146173000D01*
X179166000Y-147023000D01*
X179004000Y-147867000D01*
X178825000Y-148705000D01*
X178629000Y-149536000D01*
X178415000Y-150360000D01*
X178184000Y-151177000D01*
X177936000Y-151987000D01*
X177672000Y-152790000D01*
X177391000Y-153585000D01*
X177094000Y-154372000D01*
X176781000Y-155151000D01*
X176453000Y-155922000D01*
X176108000Y-156685000D01*
X175748000Y-157439000D01*
X175373000Y-158184000D01*
X174983000Y-158920000D01*
X174579000Y-159647000D01*
X174159000Y-160365000D01*
X173725000Y-161073000D01*
X173277000Y-161771000D01*
X172815000Y-162459000D01*
X172339000Y-163137000D01*
X171850000Y-163804000D01*
X171347000Y-164461000D01*
X170831000Y-165107000D01*
X170302000Y-165742000D01*
X169760000Y-166366000D01*
X169205000Y-166978000D01*
X168639000Y-167579000D01*
X168060000Y-168167000D01*
X167468000Y-168744000D01*
X166866000Y-169309000D01*
X166251000Y-169861000D01*
X165625000Y-170401000D01*
X164988000Y-170927000D01*
X164340000Y-171441000D01*
X163682000Y-171941000D01*
X163012000Y-172428000D01*
X162332000Y-172902000D01*
X161642000Y-173361000D01*
X160942000Y-173807000D01*
X160233000Y-174238000D01*
X159513000Y-174655000D01*
X158785000Y-175057000D01*
X158047000Y-175444000D01*
X157300000Y-175816000D01*
X156545000Y-176173000D01*
X155780000Y-176515000D01*
X155008000Y-176840000D01*
X154227000Y-177151000D01*
X153438000Y-177444000D01*
X152642000Y-177722000D01*
X151838000Y-177983000D01*
X151027000Y-178228000D01*
X150208000Y-178456000D01*
X149383000Y-178666000D01*
X148550000Y-178860000D01*
X147712000Y-179036000D01*
X146866000Y-179194000D01*
X146015000Y-179334000D01*
X145158000Y-179457000D01*
X144295000Y-179561000D01*
X143426000Y-179646000D01*
X142552000Y-179713000D01*
X141673000Y-179761000D01*
X140789000Y-179790000D01*
X139900000Y-179800000D01*
X139735000Y-179800000D01*
X138847000Y-179786000D01*
X137964000Y-179754000D01*
X137086000Y-179702000D01*
X136213000Y-179632000D01*
X135345000Y-179543000D01*
X134483000Y-179435000D01*
X133627000Y-179310000D01*
X132777000Y-179166000D01*
X131933000Y-179004000D01*
X131095000Y-178825000D01*
X130264000Y-178629000D01*
X129440000Y-178415000D01*
X128623000Y-178184000D01*
X127813000Y-177936000D01*
X127010000Y-177672000D01*
X126215000Y-177391000D01*
X125428000Y-177094000D01*
X124649000Y-176781000D01*
X123878000Y-176453000D01*
X123115000Y-176108000D01*
X122361000Y-175748000D01*
X121616000Y-175373000D01*
X120880000Y-174983000D01*
X120153000Y-174579000D01*
X119435000Y-174159000D01*
X118727000Y-173725000D01*
X118029000Y-173277000D01*
X117341000Y-172815000D01*
X116663000Y-172339000D01*
X115996000Y-171850000D01*
X115339000Y-171347000D01*
X114693000Y-170831000D01*
X114058000Y-170302000D01*
X113434000Y-169760000D01*
X112822000Y-169205000D01*
X112221000Y-168639000D01*
X111632000Y-168059000D01*
X111056000Y-167468000D01*
X110491000Y-166866000D01*
X109939000Y-166251000D01*
X109399000Y-165625000D01*
X108873000Y-164988000D01*
X108359000Y-164340000D01*
X107859000Y-163681000D01*
X107372000Y-163012000D01*
X106898000Y-162332000D01*
X106439000Y-161642000D01*
X105993000Y-160942000D01*
X105562000Y-160233000D01*
X105145000Y-159513000D01*
X104743000Y-158785000D01*
X104356000Y-158047000D01*
X103984000Y-157300000D01*
X103627000Y-156545000D01*
X103285000Y-155780000D01*
X102959000Y-155008000D01*
X102649000Y-154227000D01*
X102356000Y-153438000D01*
X102078000Y-152642000D01*
X101817000Y-151838000D01*
X101572000Y-151027000D01*
X101344000Y-150208000D01*
X101134000Y-149383000D01*
X100940000Y-148550000D01*
X100764000Y-147711000D01*
X100606000Y-146866000D01*
X100466000Y-146015000D01*
X100343000Y-145158000D01*
X100239000Y-144295000D01*
X100154000Y-143426000D01*
X100087000Y-142552000D01*
X100039000Y-141673000D01*
X100010000Y-140789000D01*
X100000000Y-139900000D01*
X100000000Y-139735000D01*
X100014000Y-138847000D01*
X100046000Y-137964000D01*
X100098000Y-137086000D01*
X100168000Y-136213000D01*
X100257000Y-135345000D01*
X100365000Y-134483000D01*
X100490000Y-133627000D01*
X100634000Y-132777000D01*
X100796000Y-131933000D01*
X100975000Y-131095000D01*
X101171000Y-130264000D01*
X101385000Y-129440000D01*
X101616000Y-128623000D01*
X101864000Y-127813000D01*
X102128000Y-127010000D01*
X102409000Y-126215000D01*
X102706000Y-125428000D01*
X103019000Y-124649000D01*
X103347000Y-123878000D01*
X103692000Y-123115000D01*
X104051000Y-122361000D01*
X104427000Y-121616000D01*
X104817000Y-120880000D01*
X105221000Y-120153000D01*
X105641000Y-119435000D01*
X106075000Y-118727000D01*
X106523000Y-118029000D01*
X106985000Y-117341000D01*
X107461000Y-116663000D01*
X107950000Y-115996000D01*
X108453000Y-115339000D01*
X108969000Y-114693000D01*
X109498000Y-114058000D01*
X110040000Y-113434000D01*
X110595000Y-112822000D01*
X111161000Y-112221000D01*
X111740000Y-111632000D01*
X112332000Y-111056000D01*
X112934000Y-110491000D01*
X113549000Y-109939000D01*
X114175000Y-109399000D01*
X114812000Y-108873000D01*
X115460000Y-108359000D01*
X116118000Y-107859000D01*
X116788000Y-107372000D01*
X117468000Y-106898000D01*
X118158000Y-106439000D01*
X118857000Y-105993000D01*
X119567000Y-105562000D01*
X120286000Y-105145000D01*
X121015000Y-104743000D01*
X121753000Y-104356000D01*
X122500000Y-103984000D01*
X123255000Y-103627000D01*
X124020000Y-103285000D01*
X124792000Y-102959000D01*
X125573000Y-102649000D01*
X126361000Y-102356000D01*
X127158000Y-102078000D01*
X127962000Y-101817000D01*
X128773000Y-101572000D01*
X129592000Y-101344000D01*
X130417000Y-101134000D01*
X131250000Y-100940000D01*
X132088000Y-100764000D01*
X132934000Y-100606000D01*
X133785000Y-100466000D01*
X134642000Y-100343000D01*
X135505000Y-100239000D01*
X136374000Y-100154000D01*
X137248000Y-100087000D01*
X138127000Y-100039000D01*
X139011000Y-100010000D01*
X139900000Y-100000000D01*
X140065000Y-100000000D01*
X140953000Y-100014000D01*
X140953000Y-100014000D02*
X141836000Y-100046000D01*
X142714000Y-100098000D01*
X143587000Y-100168000D01*
X144455000Y-100257000D01*
X145317000Y-100365000D01*
X146173000Y-100490000D01*
X147023000Y-100634000D01*
X147867000Y-100795000D01*
X148705000Y-100975000D01*
X149536000Y-101171000D01*
X150360000Y-101385000D01*
X151177000Y-101616000D01*
X151987000Y-101864000D01*
X152790000Y-102128000D01*
X153585000Y-102409000D01*
X154372000Y-102706000D01*
X155151000Y-103019000D01*
X155922000Y-103347000D01*
X156685000Y-103692000D01*
X157439000Y-104051000D01*
X158184000Y-104426000D01*
X158920000Y-104817000D01*
X159647000Y-105221000D01*
X160365000Y-105641000D01*
X161073000Y-106075000D01*
X161771000Y-106523000D01*
X162459000Y-106985000D01*
X163137000Y-107461000D01*
X163804000Y-107950000D01*
X164461000Y-108453000D01*
X165107000Y-108969000D01*
X165742000Y-109498000D01*
X166366000Y-110040000D01*
X166978000Y-110594000D01*
X167579000Y-111161000D01*
X168167000Y-111740000D01*
X168744000Y-112331000D01*
X169309000Y-112934000D01*
X169861000Y-113549000D01*
X170401000Y-114175000D01*
X170927000Y-114812000D01*
X171441000Y-115460000D01*
X171941000Y-116118000D01*
X172428000Y-116788000D01*
X172902000Y-117468000D01*
X173361000Y-118158000D01*
X173807000Y-118857000D01*
X174238000Y-119567000D01*
X174655000Y-120286000D01*
X175057000Y-121015000D01*
X175444000Y-121753000D01*
X175816000Y-122500000D01*
X176173000Y-123255000D01*
X176515000Y-124020000D01*
X176841000Y-124792000D01*
X177151000Y-125573000D01*
X177444000Y-126361000D01*
X177722000Y-127158000D01*
X177983000Y-127962000D01*
X178228000Y-128773000D01*
X178456000Y-129592000D01*
X178666000Y-130417000D01*
X178860000Y-131250000D01*
X179036000Y-132088000D01*
X179194000Y-132934000D01*
X179334000Y-133785000D01*
X179457000Y-134642000D01*
X179561000Y-135505000D01*
X179646000Y-136374000D01*
X179713000Y-137248000D01*
X179761000Y-138127000D01*
X179790000Y-139011000D01*
X179800000Y-139900000D01*
X179800000Y-140065000D01*
X179786000Y-140953000D01*
X179754000Y-141836000D01*
X179702000Y-142714000D01*
X179632000Y-143587000D01*
X179543000Y-144455000D01*
X179435000Y-145317000D01*
X179310000Y-146173000D01*
X179166000Y-147023000D01*
X179004000Y-147867000D01*
X178825000Y-148705000D01*
X178629000Y-149536000D01*
X178415000Y-150360000D01*
X178184000Y-151177000D01*
X177936000Y-151987000D01*
X177672000Y-152790000D01*
X177391000Y-153585000D01*
X177094000Y-154372000D01*
X176781000Y-155151000D01*
X176453000Y-155922000D01*
X176108000Y-156685000D01*
X175748000Y-157439000D01*
X175373000Y-158184000D01*
X174983000Y-158920000D01*
X174579000Y-159647000D01*
X174159000Y-160365000D01*
X173725000Y-161073000D01*
X173277000Y-161771000D01*
X172815000Y-162459000D01*
X172339000Y-163137000D01*
X171850000Y-163804000D01*
X171347000Y-164461000D01*
X170831000Y-165107000D01*
X170302000Y-165742000D01*
X169760000Y-166366000D01*
X169205000Y-166978000D01*
X168639000Y-167579000D01*
X168060000Y-168167000D01*
X167468000Y-168744000D01*
X166866000Y-169309000D01*
X166251000Y-169861000D01*
X165625000Y-170401000D01*
X164988000Y-170927000D01*
X164340000Y-171441000D01*
X163682000Y-171941000D01*
X163012000Y-172428000D01*
X162332000Y-172902000D01*
X161642000Y-173361000D01*
X160942000Y-173807000D01*
X160233000Y-174238000D01*
X159513000Y-174655000D01*
X158785000Y-175057000D01*
X158047000Y-175444000D01*
X157300000Y-175816000D01*
X156545000Y-176173000D01*
X155780000Y-176515000D01*
X155008000Y-176840000D01*
X154227000Y-177151000D01*
X153438000Y-177444000D01*
X152642000Y-177722000D01*
X151838000Y-177983000D01*
X151027000Y-178228000D01*
X150208000Y-178456000D01*
X149383000Y-178666000D01*
X148550000Y-178860000D01*
X147712000Y-179036000D01*
X146866000Y-179194000D01*
X146015000Y-179334000D01*
X145158000Y-179457000D01*
X144295000Y-179561000D01*
X143426000Y-179646000D01*
X142552000Y-179713000D01*
X141673000Y-179761000D01*
X140789000Y-179790000D01*
X139900000Y-179800000D01*
X139735000Y-179800000D01*
X138847000Y-179786000D01*
X137964000Y-179754000D01*
X137086000Y-179702000D01*
X136213000Y-179632000D01*
X135345000Y-179543000D01*
X134483000Y-179435000D01*
X133627000Y-179310000D01*
X132777000Y-179166000D01*
X131933000Y-179004000D01*
X131095000Y-178825000D01*
X130264000Y-178629000D01*
X129440000Y-178415000D01*
X128623000Y-178184000D01*
X127813000Y-177936000D01*
X127010000Y-177672000D01*
X126215000Y-177391000D01*
X125428000Y-177094000D01*
X124649000Y-176781000D01*
X123878000Y-176453000D01*
X123115000Y-176108000D01*
X122361000Y-175748000D01*
X121616000Y-175373000D01*
X120880000Y-174983000D01*
X120153000Y-174579000D01*
X119435000Y-174159000D01*
X118727000Y-173725000D01*
X118029000Y-173277000D01*
X117341000Y-172815000D01*
X116663000Y-172339000D01*
X115996000Y-171850000D01*
X115339000Y-171347000D01*
X114693000Y-170831000D01*
X114058000Y-170302000D01*
X113434000Y-169760000D01*
X112822000Y-169205000D01*
X112221000Y-168639000D01*
X111632000Y-168059000D01*
X111056000Y-167468000D01*
X110491000Y-166866000D01*
X109939000Y-166251000D01*
X109399000Y-165625000D01*
X108873000Y-164988000D01*
X108359000Y-164340000D01*
X107859000Y-163681000D01*
X107372000Y-163012000D01*
X106898000Y-162332000D01*
X106439000Y-161642000D01*
X105993000Y-160942000D01*
X105562000Y-160233000D01*
X105145000Y-159513000D01*
X104743000Y-158785000D01*
X104356000Y-158047000D01*
X103984000Y-157300000D01*
X103627000Y-156545000D01*
X103285000Y-155780000D01*
X102959000Y-155008000D01*
X102649000Y-154227000D01*
X102356000Y-153438000D01*
X102078000Y-152642000D01*
X101817000Y-151838000D01*
X101572000Y-151027000D01*
X101344000Y-150208000D01*
X101134000Y-149383000D01*
X100940000Y-148550000D01*
X100764000Y-147711000D01*
X100606000Y-146866000D01*
X100466000Y-146015000D01*
X100343000Y-145158000D01*
X100239000Y-144295000D01*
X100154000Y-143426000D01*
X100087000Y-142552000D01*
X100039000Y-141673000D01*
X100010000Y-140789000D01*
X100000000Y-139900000D01*
X100000000Y-139735000D01*
X100014000Y-138847000D01*
X100046000Y-137964000D01*
X100098000Y-137086000D01*
X100168000Y-136213000D01*
X100257000Y-135345000D01*
X100365000Y-134483000D01*
X100490000Y-133627000D01*
X100634000Y-132777000D01*
X100796000Y-131933000D01*
X100975000Y-131095000D01*
X101171000Y-130264000D01*
X101385000Y-129440000D01*
X101616000Y-128623000D01*
X101864000Y-127813000D01*
X102128000Y-127010000D01*
X102409000Y-126215000D01*
X102706000Y-125428000D01*
X103019000Y-124649000D01*
X103347000Y-123878000D01*
X103692000Y-123115000D01*
X104051000Y-122361000D01*
X104427000Y-121616000D01*
X104817000Y-120880000D01*
X105221000Y-120153000D01*
X105641000Y-119435000D01*
X106075000Y-118727000D01*
X106523000Y-118029000D01*
X106985000Y-117341000D01*
X107461000Y-116663000D01*
X107950000Y-115996000D01*
X108453000Y-115339000D01*
X108969000Y-114693000D01*
X109498000Y-114058000D01*
X110040000Y-113434000D01*
X110595000Y-112822000D01*
X111161000Y-112221000D01*
X111740000Y-111632000D01*
X112332000Y-111056000D01*
X112934000Y-110491000D01*
X113549000Y-109939000D01*
X114175000Y-109399000D01*
X114812000Y-108873000D01*
X115460000Y-108359000D01*
X116118000Y-107859000D01*
X116788000Y-107372000D01*
X117468000Y-106898000D01*
X118158000Y-106439000D01*
X118857000Y-105993000D01*
X119567000Y-105562000D01*
X120286000Y-105145000D01*
X121015000Y-104743000D01*
X121753000Y-104356000D01*
X122500000Y-103984000D01*
X123255000Y-103627000D01*
X124020000Y-103285000D01*
X124792000Y-102959000D01*
X125573000Y-102649000D01*
X126361000Y-102356000D01*
X127158000Y-102078000D01*
X127962000Y-101817000D01*
X128773000Y-101572000D01*
X129592000Y-101344000D01*
X130417000Y-101134000D01*
X131250000Y-100940000D01*
X132088000Y-100764000D01*
X132934000Y-100606000D01*
X133785000Y-100466000D01*
X134642000Y-100343000D01*
X135505000Y-100239000D01*
X136374000Y-100154000D01*
X137248000Y-100087000D01*
X138127000Y-100039000D01*
X139011000Y-100010000D01*
X139900000Y-100000000D01*
X140065000Y-100000000D01*
X140953000Y-100014000D01*
X140798000Y-100014000D02*
X141681000Y-100046000D01*
X142559000Y-100098000D01*
X143432000Y-100168000D01*
X144300000Y-100257000D01*
X145162000Y-100365000D01*
X146018000Y-100490000D01*
X146868000Y-100634000D01*
X147712000Y-100795000D01*
X148550000Y-100975000D01*
X149381000Y-101171000D01*
X150205000Y-101385000D01*
X151022000Y-101616000D01*
X151832000Y-101864000D01*
X152635000Y-102128000D01*
X153430000Y-102409000D01*
X154217000Y-102706000D01*
X154996000Y-103019000D01*
X155767000Y-103347000D01*
X156530000Y-103692000D01*
X157284000Y-104051000D01*
X158029000Y-104426000D01*
X158765000Y-104817000D01*
X159492000Y-105221000D01*
X160210000Y-105641000D01*
X160918000Y-106075000D01*
X161616000Y-106523000D01*
X162304000Y-106985000D01*
X162982000Y-107461000D01*
X163649000Y-107950000D01*
X164306000Y-108453000D01*
X164952000Y-108969000D01*
X165587000Y-109498000D01*
X166211000Y-110040000D01*
X166823000Y-110594000D01*
X167424000Y-111161000D01*
X168012000Y-111740000D01*
X168589000Y-112331000D01*
X169154000Y-112934000D01*
X169706000Y-113549000D01*
X170246000Y-114175000D01*
X170772000Y-114812000D01*
X171286000Y-115460000D01*
X171786000Y-116118000D01*
X172273000Y-116788000D01*
X172747000Y-117468000D01*
X173206000Y-118158000D01*
X173652000Y-118857000D01*
X174083000Y-119567000D01*
X174500000Y-120286000D01*
X174902000Y-121015000D01*
X175289000Y-121753000D01*
X175661000Y-122500000D01*
X176018000Y-123255000D01*
X176360000Y-124020000D01*
X176686000Y-124792000D01*
X176996000Y-125573000D01*
X177289000Y-126361000D01*
X177567000Y-127158000D01*
X177828000Y-127962000D01*
X178073000Y-128773000D01*
X178301000Y-129592000D01*
X178511000Y-130417000D01*
X178705000Y-131250000D01*
X178881000Y-132088000D01*
X179039000Y-132934000D01*
X179179000Y-133785000D01*
X179302000Y-134642000D01*
X179406000Y-135505000D01*
X179491000Y-136374000D01*
X179558000Y-137248000D01*
X179606000Y-138127000D01*
X179635000Y-139011000D01*
X179645000Y-139900000D01*
X179645000Y-140065000D01*
X179631000Y-140953000D01*
X179599000Y-141836000D01*
X179547000Y-142714000D01*
X179477000Y-143587000D01*
X179388000Y-144455000D01*
X179280000Y-145317000D01*
X179155000Y-146173000D01*
X179011000Y-147023000D01*
X178849000Y-147867000D01*
X178670000Y-148705000D01*
X178474000Y-149536000D01*
X178260000Y-150360000D01*
X178029000Y-151177000D01*
X177781000Y-151987000D01*
X177517000Y-152790000D01*
X177236000Y-153585000D01*
X176939000Y-154372000D01*
X176626000Y-155151000D01*
X176298000Y-155922000D01*
X175953000Y-156685000D01*
X175593000Y-157439000D01*
X175218000Y-158184000D01*
X174828000Y-158920000D01*
X174424000Y-159647000D01*
X174004000Y-160365000D01*
X173570000Y-161073000D01*
X173122000Y-161771000D01*
X172660000Y-162459000D01*
X172184000Y-163137000D01*
X171695000Y-163804000D01*
X171192000Y-164461000D01*
X170676000Y-165107000D01*
X170147000Y-165742000D01*
X169605000Y-166366000D01*
X169050000Y-166978000D01*
X168484000Y-167579000D01*
X167905000Y-168167000D01*
X167313000Y-168744000D01*
X166711000Y-169309000D01*
X166096000Y-169861000D01*
X165470000Y-170401000D01*
X164833000Y-170927000D01*
X164185000Y-171441000D01*
X163527000Y-171941000D01*
X162857000Y-172428000D01*
X162177000Y-172902000D01*
X161487000Y-173361000D01*
X160787000Y-173807000D01*
X160078000Y-174238000D01*
X159358000Y-174655000D01*
X158630000Y-175057000D01*
X157892000Y-175444000D01*
X157145000Y-175816000D01*
X156390000Y-176173000D01*
X155625000Y-176515000D01*
X154853000Y-176840000D01*
X154072000Y-177151000D01*
X153283000Y-177444000D01*
X152487000Y-177722000D01*
X151683000Y-177983000D01*
X150872000Y-178228000D01*
X150053000Y-178456000D01*
X149228000Y-178666000D01*
X148395000Y-178860000D01*
X147557000Y-179036000D01*
X146711000Y-179194000D01*
X145860000Y-179334000D01*
X145003000Y-179457000D01*
X144140000Y-179561000D01*
X143271000Y-179646000D01*
X142397000Y-179713000D01*
X141518000Y-179761000D01*
X140634000Y-179790000D01*
X139745000Y-179800000D01*
X139580000Y-179800000D01*
X138692000Y-179786000D01*
X137809000Y-179754000D01*
X136931000Y-179702000D01*
X136058000Y-179632000D01*
X135190000Y-179543000D01*
X134328000Y-179435000D01*
X133472000Y-179310000D01*
X132622000Y-179166000D01*
X131778000Y-179004000D01*
X130940000Y-178825000D01*
X130109000Y-178629000D01*
X129285000Y-178415000D01*
X128468000Y-178184000D01*
X127658000Y-177936000D01*
X126855000Y-177672000D01*
X126060000Y-177391000D01*
X125273000Y-177094000D01*
X124494000Y-176781000D01*
X123723000Y-176453000D01*
X122960000Y-176108000D01*
X122206000Y-175748000D01*
X121461000Y-175373000D01*
X120725000Y-174983000D01*
X119998000Y-174579000D01*
X119280000Y-174159000D01*
X118572000Y-173725000D01*
X117874000Y-173277000D01*
X117186000Y-172815000D01*
X116508000Y-172339000D01*
X115841000Y-171850000D01*
X115184000Y-171347000D01*
X114538000Y-170831000D01*
X113903000Y-170302000D01*
X113279000Y-169760000D01*
X112667000Y-169205000D01*
X112066000Y-168639000D01*
X111477000Y-168059000D01*
X110901000Y-167468000D01*
X110336000Y-166866000D01*
X109784000Y-166251000D01*
X109244000Y-165625000D01*
X108718000Y-164988000D01*
X108204000Y-164340000D01*
X107704000Y-163681000D01*
X107217000Y-163012000D01*
X106743000Y-162332000D01*
X106284000Y-161642000D01*
X105838000Y-160942000D01*
X105407000Y-160233000D01*
X104990000Y-159513000D01*
X104588000Y-158785000D01*
X104201000Y-158047000D01*
X103829000Y-157300000D01*
X103472000Y-156545000D01*
X103130000Y-155780000D01*
X102804000Y-155008000D01*
X102494000Y-154227000D01*
X102201000Y-153438000D01*
X101923000Y-152642000D01*
X101662000Y-151838000D01*
X101417000Y-151027000D01*
X101189000Y-150208000D01*
X100979000Y-149383000D01*
X100785000Y-148550000D01*
X100609000Y-147711000D01*
X100451000Y-146866000D01*
X100311000Y-146015000D01*
X100188000Y-145158000D01*
X100084000Y-144295000D01*
X99999000Y-143426000D01*
X99932000Y-142552000D01*
X99884000Y-141673000D01*
X99855000Y-140789000D01*
X99845000Y-139900000D01*
X99845000Y-139735000D01*
X99859000Y-138847000D01*
X99891000Y-137964000D01*
X99943000Y-137086000D01*
X100013000Y-136213000D01*
X100102000Y-135345000D01*
X100210000Y-134483000D01*
X100335000Y-133627000D01*
X100479000Y-132777000D01*
X100641000Y-131933000D01*
X100820000Y-131095000D01*
X101016000Y-130264000D01*
X101230000Y-129440000D01*
X101461000Y-128623000D01*
X101709000Y-127813000D01*
X101973000Y-127010000D01*
X102254000Y-126215000D01*
X102551000Y-125428000D01*
X102864000Y-124649000D01*
X103192000Y-123878000D01*
X103537000Y-123115000D01*
X103896000Y-122361000D01*
X104272000Y-121616000D01*
X104662000Y-120880000D01*
X105066000Y-120153000D01*
X105486000Y-119435000D01*
X105920000Y-118727000D01*
X106368000Y-118029000D01*
X106830000Y-117341000D01*
X107306000Y-116663000D01*
X107795000Y-115996000D01*
X108298000Y-115339000D01*
X108814000Y-114693000D01*
X109343000Y-114058000D01*
X109885000Y-113434000D01*
X110440000Y-112822000D01*
X111006000Y-112221000D01*
X111585000Y-111632000D01*
X112177000Y-111056000D01*
X112779000Y-110491000D01*
X113394000Y-109939000D01*
X114020000Y-109399000D01*
X114657000Y-108873000D01*
X115305000Y-108359000D01*
X115963000Y-107859000D01*
X116633000Y-107372000D01*
X117313000Y-106898000D01*
X118003000Y-106439000D01*
X118702000Y-105993000D01*
X119412000Y-105562000D01*
X120131000Y-105145000D01*
X120860000Y-104743000D01*
X121598000Y-104356000D01*
X122345000Y-103984000D01*
X123100000Y-103627000D01*
X123865000Y-103285000D01*
X124637000Y-102959000D01*
X125418000Y-102649000D01*
X126206000Y-102356000D01*
X127003000Y-102078000D01*
X127807000Y-101817000D01*
X128618000Y-101572000D01*
X129437000Y-101344000D01*
X130262000Y-101134000D01*
X131095000Y-100940000D01*
X131933000Y-100764000D01*
X132779000Y-100606000D01*
X133630000Y-100466000D01*
X134487000Y-100343000D01*
X135350000Y-100239000D01*
X136219000Y-100154000D01*
X137093000Y-100087000D01*
X137972000Y-100039000D01*
X138856000Y-100010000D01*
X139745000Y-100000000D01*
X139910000Y-100000000D01*
X140798000Y-100014000D01*
X140953000Y-100014000D02*
X141836000Y-100046000D01*
X142714000Y-100098000D01*
X143587000Y-100168000D01*
X144455000Y-100257000D01*
X145317000Y-100365000D01*
X146173000Y-100490000D01*
X147023000Y-100634000D01*
X147867000Y-100795000D01*
X148705000Y-100975000D01*
X149536000Y-101171000D01*
X150360000Y-101385000D01*
X151177000Y-101616000D01*
X151987000Y-101864000D01*
X152790000Y-102128000D01*
X153585000Y-102409000D01*
X154372000Y-102706000D01*
X155151000Y-103019000D01*
X155922000Y-103347000D01*
X156685000Y-103692000D01*
X157439000Y-104051000D01*
X158184000Y-104426000D01*
X158920000Y-104817000D01*
X159647000Y-105221000D01*
X160365000Y-105641000D01*
X161073000Y-106075000D01*
X161771000Y-106523000D01*
X162459000Y-106985000D01*
X163137000Y-107461000D01*
X163804000Y-107950000D01*
X164461000Y-108453000D01*
X165107000Y-108969000D01*
X165742000Y-109498000D01*
X166366000Y-110040000D01*
X166978000Y-110594000D01*
X167579000Y-111161000D01*
X168167000Y-111740000D01*
X168744000Y-112331000D01*
X169309000Y-112934000D01*
X169861000Y-113549000D01*
X170401000Y-114175000D01*
X170927000Y-114812000D01*
X171441000Y-115460000D01*
X171941000Y-116118000D01*
X172428000Y-116788000D01*
X172902000Y-117468000D01*
X173361000Y-118158000D01*
X173807000Y-118857000D01*
X174238000Y-119567000D01*
X174655000Y-120286000D01*
X175057000Y-121015000D01*
X175444000Y-121753000D01*
X175816000Y-122500000D01*
X176173000Y-123255000D01*
X176515000Y-124020000D01*
X176841000Y-124792000D01*
X177151000Y-125573000D01*
X177444000Y-126361000D01*
X177722000Y-127158000D01*
X177983000Y-127962000D01*
X178228000Y-128773000D01*
X178456000Y-129592000D01*
X178666000Y-130417000D01*
X178860000Y-131250000D01*
X179036000Y-132088000D01*
X179194000Y-132934000D01*
X179334000Y-133785000D01*
X179457000Y-134642000D01*
X179561000Y-135505000D01*
X179646000Y-136374000D01*
X179713000Y-137248000D01*
X179761000Y-138127000D01*
X179790000Y-139011000D01*
X179800000Y-139900000D01*
X179800000Y-140065000D01*
X179786000Y-140953000D01*
X179754000Y-141836000D01*
X179702000Y-142714000D01*
X179632000Y-143587000D01*
X179543000Y-144455000D01*
X179435000Y-145317000D01*
X179310000Y-146173000D01*
X179166000Y-147023000D01*
X179004000Y-147867000D01*
X178825000Y-148705000D01*
X178629000Y-149536000D01*
X178415000Y-150360000D01*
X178184000Y-151177000D01*
X177936000Y-151987000D01*
X177672000Y-152790000D01*
X177391000Y-153585000D01*
X177094000Y-154372000D01*
X176781000Y-155151000D01*
X176453000Y-155922000D01*
X176108000Y-156685000D01*
X175748000Y-157439000D01*
X175373000Y-158184000D01*
X174983000Y-158920000D01*
X174579000Y-159647000D01*
X174159000Y-160365000D01*
X173725000Y-161073000D01*
X173277000Y-161771000D01*
X172815000Y-162459000D01*
X172339000Y-163137000D01*
X171850000Y-163804000D01*
X171347000Y-164461000D01*
X170831000Y-165107000D01*
X170302000Y-165742000D01*
X169760000Y-166366000D01*
X169205000Y-166978000D01*
X168639000Y-167579000D01*
X168060000Y-168167000D01*
X167468000Y-168744000D01*
X166866000Y-169309000D01*
X166251000Y-169861000D01*
X165625000Y-170401000D01*
X164988000Y-170927000D01*
X164340000Y-171441000D01*
X163682000Y-171941000D01*
X163012000Y-172428000D01*
X162332000Y-172902000D01*
X161642000Y-173361000D01*
X160942000Y-173807000D01*
X160233000Y-174238000D01*
X159513000Y-174655000D01*
X158785000Y-175057000D01*
X158047000Y-175444000D01*
X157300000Y-175816000D01*
X156545000Y-176173000D01*
X155780000Y-176515000D01*
X155008000Y-176840000D01*
X154227000Y-177151000D01*
X153438000Y-177444000D01*
X152642000Y-177722000D01*
X151838000Y-177983000D01*
X151027000Y-178228000D01*
X150208000Y-178456000D01*
X149383000Y-178666000D01*
X148550000Y-178860000D01*
X147712000Y-179036000D01*
X146866000Y-179194000D01*
X146015000Y-179334000D01*
X145158000Y-179457000D01*
X144295000Y-179561000D01*
X143426000Y-179646000D01*
X142552000Y-179713000D01*
X141673000Y-179761000D01*
X140789000Y-179790000D01*
X139900000Y-179800000D01*
X139735000Y-179800000D01*
X138847000Y-179786000D01*
X137964000Y-179754000D01*
X137086000Y-179702000D01*
X136213000Y-179632000D01*
X135345000Y-179543000D01*
X134483000Y-179435000D01*
X133627000Y-179310000D01*
X132777000Y-179166000D01*
X131933000Y-179004000D01*
X131095000Y-178825000D01*
X130264000Y-178629000D01*
X129440000Y-178415000D01*
X128623000Y-178184000D01*
X127813000Y-177936000D01*
X127010000Y-177672000D01*
X126215000Y-177391000D01*
X125428000Y-177094000D01*
X124649000Y-176781000D01*
X123878000Y-176453000D01*
X123115000Y-176108000D01*
X122361000Y-175748000D01*
X121616000Y-175373000D01*
X120880000Y-174983000D01*
X120153000Y-174579000D01*
X119435000Y-174159000D01*
X118727000Y-173725000D01*
X118029000Y-173277000D01*
X117341000Y-172815000D01*
X116663000Y-172339000D01*
X115996000Y-171850000D01*
X115339000Y-171347000D01*
X114693000Y-170831000D01*
X114058000Y-170302000D01*
X113434000Y-169760000D01*
X112822000Y-169205000D01*
X112221000Y-168639000D01*
X111632000Y-168059000D01*
X111056000Y-167468000D01*
X110491000Y-166866000D01*
X109939000Y-166251000D01*
X109399000Y-165625000D01*
X108873000Y-164988000D01*
X108359000Y-164340000D01*
X107859000Y-163681000D01*
X107372000Y-163012000D01*
X106898000Y-162332000D01*
X106439000Y-161642000D01*
X105993000Y-160942000D01*
X105562000Y-160233000D01*
X105145000Y-159513000D01*
X104743000Y-158785000D01*
X104356000Y-158047000D01*
X103984000Y-157300000D01*
X103627000Y-156545000D01*
X103285000Y-155780000D01*
X102959000Y-155008000D01*
X102649000Y-154227000D01*
X102356000Y-153438000D01*
X102078000Y-152642000D01*
X101817000Y-151838000D01*
X101572000Y-151027000D01*
X101344000Y-150208000D01*
X101134000Y-149383000D01*
X100940000Y-148550000D01*
X100764000Y-147711000D01*
X100606000Y-146866000D01*
X100466000Y-146015000D01*
X100343000Y-145158000D01*
X100239000Y-144295000D01*
X100154000Y-143426000D01*
X100087000Y-142552000D01*
X100039000Y-141673000D01*
X100010000Y-140789000D01*
X100000000Y-139900000D01*
X100000000Y-139735000D01*
X100014000Y-138847000D01*
X100046000Y-137964000D01*
X100098000Y-137086000D01*
X100168000Y-136213000D01*
X100257000Y-135345000D01*
X100365000Y-134483000D01*
X100490000Y-133627000D01*
X100634000Y-132777000D01*
X100796000Y-131933000D01*
X100975000Y-131095000D01*
X101171000Y-130264000D01*
X101385000Y-129440000D01*
X101616000Y-128623000D01*
X101864000Y-127813000D01*
X102128000Y-127010000D01*
X102409000Y-126215000D01*
X102706000Y-125428000D01*
X103019000Y-124649000D01*
X103347000Y-123878000D01*
X103692000Y-123115000D01*
X104051000Y-122361000D01*
X104427000Y-121616000D01*
X104817000Y-120880000D01*
X105221000Y-120153000D01*
X105641000Y-119435000D01*
X106075000Y-118727000D01*
X106523000Y-118029000D01*
X106985000Y-117341000D01*
X107461000Y-116663000D01*
X107950000Y-115996000D01*
X108453000Y-115339000D01*
X108969000Y-114693000D01*
X109498000Y-114058000D01*
X110040000Y-113434000D01*
X110595000Y-112822000D01*
X111161000Y-112221000D01*
X111740000Y-111632000D01*
X112332000Y-111056000D01*
X112934000Y-110491000D01*
X113549000Y-109939000D01*
X114175000Y-109399000D01*
X114812000Y-108873000D01*
X115460000Y-108359000D01*
X116118000Y-107859000D01*
X116788000Y-107372000D01*
X117468000Y-106898000D01*
X118158000Y-106439000D01*
X118857000Y-105993000D01*
X119567000Y-105562000D01*
X120286000Y-105145000D01*
X121015000Y-104743000D01*
X121753000Y-104356000D01*
X122500000Y-103984000D01*
X123255000Y-103627000D01*
X124020000Y-103285000D01*
X124792000Y-102959000D01*
X125573000Y-102649000D01*
X126361000Y-102356000D01*
X127158000Y-102078000D01*
X127962000Y-101817000D01*
X128773000Y-101572000D01*
X129592000Y-101344000D01*
X130417000Y-101134000D01*
X131250000Y-100940000D01*
X132088000Y-100764000D01*
X132934000Y-100606000D01*
X133785000Y-100466000D01*
X134642000Y-100343000D01*
X135505000Y-100239000D01*
X136374000Y-100154000D01*
X137248000Y-100087000D01*
X138127000Y-100039000D01*
X139011000Y-100010000D01*
X139900000Y-100000000D01*
X140065000Y-100000000D01*
X140953000Y-100014000D01*
X140953000Y-100014000D02*
X141836000Y-100046000D01*
X142714000Y-100098000D01*
X143587000Y-100168000D01*
X144455000Y-100257000D01*
X145317000Y-100365000D01*
X146173000Y-100490000D01*
X147023000Y-100634000D01*
X147867000Y-100795000D01*
X148705000Y-100975000D01*
X149536000Y-101171000D01*
X150360000Y-101385000D01*
X151177000Y-101616000D01*
X151987000Y-101864000D01*
X152790000Y-102128000D01*
X153585000Y-102409000D01*
X154372000Y-102706000D01*
X155151000Y-103019000D01*
X155922000Y-103347000D01*
X156685000Y-103692000D01*
X157439000Y-104051000D01*
X158184000Y-104426000D01*
X158920000Y-104817000D01*
X159647000Y-105221000D01*
X160365000Y-105641000D01*
X161073000Y-106075000D01*
X161771000Y-106523000D01*
X162459000Y-106985000D01*
X163137000Y-107461000D01*
X163804000Y-107950000D01*
X164461000Y-108453000D01*
X165107000Y-108969000D01*
X165742000Y-109498000D01*
X166366000Y-110040000D01*
X166978000Y-110594000D01*
X167579000Y-111161000D01*
X168167000Y-111740000D01*
X168744000Y-112331000D01*
X169309000Y-112934000D01*
X169861000Y-113549000D01*
X170401000Y-114175000D01*
X170927000Y-114812000D01*
X171441000Y-115460000D01*
X171941000Y-116118000D01*
X172428000Y-116788000D01*
X172902000Y-117468000D01*
X173361000Y-118158000D01*
X173807000Y-118857000D01*
X174238000Y-119567000D01*
X174655000Y-120286000D01*
X175057000Y-121015000D01*
X175444000Y-121753000D01*
X175816000Y-122500000D01*
X176173000Y-123255000D01*
X176515000Y-124020000D01*
X176841000Y-124792000D01*
X177151000Y-125573000D01*
X177444000Y-126361000D01*
X177722000Y-127158000D01*
X177983000Y-127962000D01*
X178228000Y-128773000D01*
X178456000Y-129592000D01*
X178666000Y-130417000D01*
X178860000Y-131250000D01*
X179036000Y-132088000D01*
X179194000Y-132934000D01*
X179334000Y-133785000D01*
X179457000Y-134642000D01*
X179561000Y-135505000D01*
X179646000Y-136374000D01*
X179713000Y-137248000D01*
X179761000Y-138127000D01*
X179790000Y-139011000D01*
X179800000Y-139900000D01*
X179800000Y-140065000D01*
X179786000Y-140953000D01*
X179754000Y-141836000D01*
X179702000Y-142714000D01*
X179632000Y-143587000D01*
X179543000Y-144455000D01*
X179435000Y-145317000D01*
X179310000Y-146173000D01*
X179166000Y-147023000D01*
X179004000Y-147867000D01*
X178825000Y-148705000D01*
X178629000Y-149536000D01*
X178415000Y-150360000D01*
X178184000Y-151177000D01*
X177936000Y-151987000D01*
X177672000Y-152790000D01*
X177391000Y-153585000D01*
X177094000Y-154372000D01*
X176781000Y-155151000D01*
X176453000Y-155922000D01*
X176108000Y-156685000D01*
X175748000Y-157439000D01*
X175373000Y-158184000D01*
X174983000Y-158920000D01*
X174579000Y-159647000D01*
X174159000Y-160365000D01*
X173725000Y-161073000D01*
X173277000Y-161771000D01*
X172815000Y-162459000D01*
X172339000Y-163137000D01*
X171850000Y-163804000D01*
X171347000Y-164461000D01*
X170831000Y-165107000D01*
X170302000Y-165742000D01*
X169760000Y-166366000D01*
X169205000Y-166978000D01*
X168639000Y-167579000D01*
X168060000Y-168167000D01*
X167468000Y-168744000D01*
X166866000Y-169309000D01*
X166251000Y-169861000D01*
X165625000Y-170401000D01*
X164988000Y-170927000D01*
X164340000Y-171441000D01*
X163682000Y-171941000D01*
X163012000Y-172428000D01*
X162332000Y-172902000D01*
X161642000Y-173361000D01*
X160942000Y-173807000D01*
X160233000Y-174238000D01*
X159513000Y-174655000D01*
X158785000Y-175057000D01*
X158047000Y-175444000D01*
X157300000Y-175816000D01*
X156545000Y-176173000D01*
X155780000Y-176515000D01*
X155008000Y-176840000D01*
X154227000Y-177151000D01*
X153438000Y-177444000D01*
X152642000Y-177722000D01*
X151838000Y-177983000D01*
X151027000Y-178228000D01*
X150208000Y-178456000D01*
X149383000Y-178666000D01*
X148550000Y-178860000D01*
X147712000Y-179036000D01*
X146866000Y-179194000D01*
X146015000Y-179334000D01*
X145158000Y-179457000D01*
X144295000Y-179561000D01*
X143426000Y-179646000D01*
X142552000Y-179713000D01*
X141673000Y-179761000D01*
X140789000Y-179790000D01*
X139900000Y-179800000D01*
X139735000Y-179800000D01*
X138847000Y-179786000D01*
X137964000Y-179754000D01*
X137086000Y-179702000D01*
X136213000Y-179632000D01*
X135345000Y-179543000D01*
X134483000Y-179435000D01*
X133627000Y-179310000D01*
X132777000Y-179166000D01*
X131933000Y-179004000D01*
X131095000Y-178825000D01*
X130264000Y-178629000D01*
X129440000Y-178415000D01*
X128623000Y-178184000D01*
X127813000Y-177936000D01*
X127010000Y-177672000D01*
X126215000Y-177391000D01*
X125428000Y-177094000D01*
X124649000Y-176781000D01*
X123878000Y-176453000D01*
X123115000Y-176108000D01*
X122361000Y-175748000D01*
X121616000Y-175373000D01*
X120880000Y-174983000D01*
X120153000Y-174579000D01*
X119435000Y-174159000D01*
X118727000Y-173725000D01*
X118029000Y-173277000D01*
X117341000Y-172815000D01*
X116663000Y-172339000D01*
X115996000Y-171850000D01*
X115339000Y-171347000D01*
X114693000Y-170831000D01*
X114058000Y-170302000D01*
X113434000Y-169760000D01*
X112822000Y-169205000D01*
X112221000Y-168639000D01*
X111632000Y-168059000D01*
X111056000Y-167468000D01*
X110491000Y-166866000D01*
X109939000Y-166251000D01*
X109399000Y-165625000D01*
X108873000Y-164988000D01*
X108359000Y-164340000D01*
X107859000Y-163681000D01*
X107372000Y-163012000D01*
X106898000Y-162332000D01*
X106439000Y-161642000D01*
X105993000Y-160942000D01*
X105562000Y-160233000D01*
X105145000Y-159513000D01*
X104743000Y-158785000D01*
X104356000Y-158047000D01*
X103984000Y-157300000D01*
X103627000Y-156545000D01*
X103285000Y-155780000D01*
X102959000Y-155008000D01*
X102649000Y-154227000D01*
X102356000Y-153438000D01*
X102078000Y-152642000D01*
X101817000Y-151838000D01*
X101572000Y-151027000D01*
X101344000Y-150208000D01*
X101134000Y-149383000D01*
X100940000Y-148550000D01*
X100764000Y-147711000D01*
X100606000Y-146866000D01*
X100466000Y-146015000D01*
X100343000Y-145158000D01*
X100239000Y-144295000D01*
X100154000Y-143426000D01*
X100087000Y-142552000D01*
X100039000Y-141673000D01*
X100010000Y-140789000D01*
X100000000Y-139900000D01*
X100000000Y-139735000D01*
X100014000Y-138847000D01*
X100046000Y-137964000D01*
X100098000Y-137086000D01*
X100168000Y-136213000D01*
X100257000Y-135345000D01*
X100365000Y-134483000D01*
X100490000Y-133627000D01*
X100634000Y-132777000D01*
X100796000Y-131933000D01*
X100975000Y-131095000D01*
X101171000Y-130264000D01*
X101385000Y-129440000D01*
X101616000Y-128623000D01*
X101864000Y-127813000D01*
X102128000Y-127010000D01*
X102409000Y-126215000D01*
X102706000Y-125428000D01*
X103019000Y-124649000D01*
X103347000Y-123878000D01*
X103692000Y-123115000D01*
X104051000Y-122361000D01*
X104427000Y-121616000D01*
X104817000Y-120880000D01*
X105221000Y-120153000D01*
X105641000Y-119435000D01*
X106075000Y-118727000D01*
X106523000Y-118029000D01*
X106985000Y-117341000D01*
X107461000Y-116663000D01*
X107950000Y-115996000D01*
X108453000Y-115339000D01*
X108969000Y-114693000D01*
X109498000Y-114058000D01*
X110040000Y-113434000D01*
X110595000Y-112822000D01*
X111161000Y-112221000D01*
X111740000Y-111632000D01*
X112332000Y-111056000D01*
X112934000Y-110491000D01*
X113549000Y-109939000D01*
X114175000Y-109399000D01*
X114812000Y-108873000D01*
X115460000Y-108359000D01*
X116118000Y-107859000D01*
X116788000Y-107372000D01*
X117468000Y-106898000D01*
X118158000Y-106439000D01*
X118857000Y-105993000D01*
X119567000Y-105562000D01*
X120286000Y-105145000D01*
X121015000Y-104743000D01*
X121753000Y-104356000D01*
X122500000Y-103984000D01*
X123255000Y-103627000D01*
X124020000Y-103285000D01*
X124792000Y-102959000D01*
X125573000Y-102649000D01*
X126361000Y-102356000D01*
X127158000Y-102078000D01*
X127962000Y-101817000D01*
X128773000Y-101572000D01*
X129592000Y-101344000D01*
X130417000Y-101134000D01*
X131250000Y-100940000D01*
X132088000Y-100764000D01*
X132934000Y-100606000D01*
X133785000Y-100466000D01*
X134642000Y-100343000D01*
X135505000Y-100239000D01*
X136374000Y-100154000D01*
X137248000Y-100087000D01*
X138127000Y-100039000D01*
X139011000Y-100010000D01*
X139900000Y-100000000D01*
X140065000Y-100000000D01*
X140953000Y-100014000D01*
X140953000Y-100014000D02*
X141836000Y-100046000D01*
X142714000Y-100098000D01*
X143587000Y-100168000D01*
X144455000Y-100257000D01*
X145317000Y-100365000D01*
X146173000Y-100490000D01*
X147023000Y-100634000D01*
X147867000Y-100795000D01*
X148705000Y-100975000D01*
X149536000Y-101171000D01*
X150360000Y-101385000D01*
X151177000Y-101616000D01*
X151987000Y-101864000D01*
X152790000Y-102128000D01*
X153585000Y-102409000D01*
X154372000Y-102706000D01*
X155151000Y-103019000D01*
X155922000Y-103347000D01*
X156685000Y-103692000D01*
X157439000Y-104051000D01*
X158184000Y-104426000D01*
X158920000Y-104817000D01*
X159647000Y-105221000D01*
X160365000Y-105641000D01*
X161073000Y-106075000D01*
X161771000Y-106523000D01*
X162459000Y-106985000D01*
X163137000Y-107461000D01*
X163804000Y-107950000D01*
X164461000Y-108453000D01*
X165107000Y-108969000D01*
X165742000Y-109498000D01*
X166366000Y-110040000D01*
X166978000Y-110594000D01*
X167579000Y-111161000D01*
X168167000Y-111740000D01*
X168744000Y-112331000D01*
X169309000Y-112934000D01*
X169861000Y-113549000D01*
X170401000Y-114175000D01*
X170927000Y-114812000D01*
X171441000Y-115460000D01*
X171941000Y-116118000D01*
X172428000Y-116788000D01*
X172902000Y-117468000D01*
X173361000Y-118158000D01*
X173807000Y-118857000D01*
X174238000Y-119567000D01*
X174655000Y-120286000D01*
X175057000Y-121015000D01*
X175444000Y-121753000D01*
X175816000Y-122500000D01*
X176173000Y-123255000D01*
X176515000Y-124020000D01*
X176841000Y-124792000D01*
X177151000Y-125573000D01*
X177444000Y-126361000D01*
X177722000Y-127158000D01*
X177983000Y-127962000D01*
X178228000Y-128773000D01*
X178456000Y-129592000D01*
X178666000Y-130417000D01*
X178860000Y-131250000D01*
X179036000Y-132088000D01*
X179194000Y-132934000D01*
X179334000Y-133785000D01*
X179457000Y-134642000D01*
X179561000Y-135505000D01*
X179646000Y-136374000D01*
X179713000Y-137248000D01*
X179761000Y-138127000D01*
X179790000Y-139011000D01*
X179800000Y-139900000D01*
X179800000Y-140065000D01*
X179786000Y-140953000D01*
X179754000Y-141836000D01*
X179702000Y-142714000D01*
X179632000Y-143587000D01*
X179543000Y-144455000D01*
X179435000Y-145317000D01*
X179310000Y-146173000D01*
X179166000Y-147023000D01*
X179004000Y-147867000D01*
X178825000Y-148705000D01*
X178629000Y-149536000D01*
X178415000Y-150360000D01*
X178184000Y-151177000D01*
X177936000Y-151987000D01*
X177672000Y-152790000D01*
X177391000Y-153585000D01*
X177094000Y-154372000D01*
X176781000Y-155151000D01*
X176453000Y-155922000D01*
X176108000Y-156685000D01*
X175748000Y-157439000D01*
X175373000Y-158184000D01*
X174983000Y-158920000D01*
X174579000Y-159647000D01*
X174159000Y-160365000D01*
X173725000Y-161073000D01*
X173277000Y-161771000D01*
X172815000Y-162459000D01*
X172339000Y-163137000D01*
X171850000Y-163804000D01*
X171347000Y-164461000D01*
X170831000Y-165107000D01*
X170302000Y-165742000D01*
X169760000Y-166366000D01*
X169205000Y-166978000D01*
X168639000Y-167579000D01*
X168060000Y-168167000D01*
X167468000Y-168744000D01*
X166866000Y-169309000D01*
X166251000Y-169861000D01*
X165625000Y-170401000D01*
X164988000Y-170927000D01*
X164340000Y-171441000D01*
X163682000Y-171941000D01*
X163012000Y-172428000D01*
X162332000Y-172902000D01*
X161642000Y-173361000D01*
X160942000Y-173807000D01*
X160233000Y-174238000D01*
X159513000Y-174655000D01*
X158785000Y-175057000D01*
X158047000Y-175444000D01*
X157300000Y-175816000D01*
X156545000Y-176173000D01*
X155780000Y-176515000D01*
X155008000Y-176840000D01*
X154227000Y-177151000D01*
X153438000Y-177444000D01*
X152642000Y-177722000D01*
X151838000Y-177983000D01*
X151027000Y-178228000D01*
X150208000Y-178456000D01*
X149383000Y-178666000D01*
X148550000Y-178860000D01*
X147712000Y-179036000D01*
X146866000Y-179194000D01*
X146015000Y-179334000D01*
X145158000Y-179457000D01*
X144295000Y-179561000D01*
X143426000Y-179646000D01*
X142552000Y-179713000D01*
X141673000Y-179761000D01*
X140789000Y-179790000D01*
X139900000Y-179800000D01*
X139735000Y-179800000D01*
X138847000Y-179786000D01*
X137964000Y-179754000D01*
X137086000Y-179702000D01*
X136213000Y-179632000D01*
X135345000Y-179543000D01*
X134483000Y-179435000D01*
X133627000Y-179310000D01*
X132777000Y-179166000D01*
X131933000Y-179004000D01*
X131095000Y-178825000D01*
X130264000Y-178629000D01*
X129440000Y-178415000D01*
X128623000Y-178184000D01*
X127813000Y-177936000D01*
X127010000Y-177672000D01*
X126215000Y-177391000D01*
X125428000Y-177094000D01*
X124649000Y-176781000D01*
X123878000Y-176453000D01*
X123115000Y-176108000D01*
X122361000Y-175748000D01*
X121616000Y-175373000D01*
X120880000Y-174983000D01*
X120153000Y-174579000D01*
X119435000Y-174159000D01*
X118727000Y-173725000D01*
X118029000Y-173277000D01*
X117341000Y-172815000D01*
X116663000Y-172339000D01*
X115996000Y-171850000D01*
X115339000Y-171347000D01*
X114693000Y-170831000D01*
X114058000Y-170302000D01*
X113434000Y-169760000D01*
X112822000Y-169205000D01*
X112221000Y-168639000D01*
X111632000Y-168059000D01*
X111056000Y-167468000D01*
X110491000Y-166866000D01*
X109939000Y-166251000D01*
X109399000Y-165625000D01*
X108873000Y-164988000D01*
X108359000Y-164340000D01*
X107859000Y-163681000D01*
X107372000Y-163012000D01*
X106898000Y-162332000D01*
X106439000Y-161642000D01*
X105993000Y-160942000D01*
X105562000Y-160233000D01*
X105145000Y-159513000D01*
X104743000Y-158785000D01*
X104356000Y-158047000D01*
X103984000Y-157300000D01*
X103627000Y-156545000D01*
X103285000Y-155780000D01*
X102959000Y-155008000D01*
X102649000Y-154227000D01*
X102356000Y-153438000D01*
X102078000Y-152642000D01*
X101817000Y-151838000D01*
X101572000Y-151027000D01*
X101344000Y-150208000D01*
X101134000Y-149383000D01*
X100940000Y-148550000D01*
X100764000Y-147711000D01*
X100606000Y-146866000D01*
X100466000Y-146015000D01*
X100343000Y-145158000D01*
X100239000Y-144295000D01*
X100154000Y-143426000D01*
X100087000Y-142552000D01*
X100039000Y-141673000D01*
X100010000Y-140789000D01*
X100000000Y-139900000D01*
X100000000Y-139735000D01*
X100014000Y-138847000D01*
X100046000Y-137964000D01*
X100098000Y-137086000D01*
X100168000Y-136213000D01*
X100257000Y-135345000D01*
X100365000Y-134483000D01*
X100490000Y-133627000D01*
X100634000Y-132777000D01*
X100796000Y-131933000D01*
X100975000Y-131095000D01*
X101171000Y-130264000D01*
X101385000Y-129440000D01*
X101616000Y-128623000D01*
X101864000Y-127813000D01*
X102128000Y-127010000D01*
X102409000Y-126215000D01*
X102706000Y-125428000D01*
X103019000Y-124649000D01*
X103347000Y-123878000D01*
X103692000Y-123115000D01*
X104051000Y-122361000D01*
X104427000Y-121616000D01*
X104817000Y-120880000D01*
X105221000Y-120153000D01*
X105641000Y-119435000D01*
X106075000Y-118727000D01*
X106523000Y-118029000D01*
X106985000Y-117341000D01*
X107461000Y-116663000D01*
X107950000Y-115996000D01*
X108453000Y-115339000D01*
X108969000Y-114693000D01*
X109498000Y-114058000D01*
X110040000Y-113434000D01*
X110595000Y-112822000D01*
X111161000Y-112221000D01*
X111740000Y-111632000D01*
X112332000Y-111056000D01*
X112934000Y-110491000D01*
X113549000Y-109939000D01*
X114175000Y-109399000D01*
X114812000Y-108873000D01*
X115460000Y-108359000D01*
X116118000Y-107859000D01*
X116788000Y-107372000D01*
X117468000Y-106898000D01*
X118158000Y-106439000D01*
X118857000Y-105993000D01*
X119567000Y-105562000D01*
X120286000Y-105145000D01*
X121015000Y-104743000D01*
X121753000Y-104356000D01*
X122500000Y-103984000D01*
X123255000Y-103627000D01*
X124020000Y-103285000D01*
X124792000Y-102959000D01*
X125573000Y-102649000D01*
X126361000Y-102356000D01*
X127158000Y-102078000D01*
X127962000Y-101817000D01*
X128773000Y-101572000D01*
X129592000Y-101344000D01*
X130417000Y-101134000D01*
X131250000Y-100940000D01*
X132088000Y-100764000D01*
X132934000Y-100606000D01*
X133785000Y-100466000D01*
X134642000Y-100343000D01*
X135505000Y-100239000D01*
X136374000Y-100154000D01*
X137248000Y-100087000D01*
X138127000Y-100039000D01*
X139011000Y-100010000D01*
X139900000Y-100000000D01*
X140065000Y-100000000D01*
X140953000Y-100014000D01*
M02*
