%TF.GenerationSoftware,KiCad,Pcbnew,8.0.8*%
%TF.CreationDate,2025-04-01T18:22:34+02:00*%
%TF.ProjectId,Haibadge_B,48616962-6164-4676-955f-422e6b696361,rev?*%
%TF.SameCoordinates,Original*%
%TF.FileFunction,Soldermask,Top*%
%TF.FilePolarity,Negative*%
%FSLAX46Y46*%
G04 Gerber Fmt 4.6, Leading zero omitted, Abs format (unit mm)*
G04 Created by KiCad (PCBNEW 8.0.8) date 2025-04-01 18:22:34*
%MOMM*%
%LPD*%
G01*
G04 APERTURE LIST*
G04 Aperture macros list*
%AMRoundRect*
0 Rectangle with rounded corners*
0 $1 Rounding radius*
0 $2 $3 $4 $5 $6 $7 $8 $9 X,Y pos of 4 corners*
0 Add a 4 corners polygon primitive as box body*
4,1,4,$2,$3,$4,$5,$6,$7,$8,$9,$2,$3,0*
0 Add four circle primitives for the rounded corners*
1,1,$1+$1,$2,$3*
1,1,$1+$1,$4,$5*
1,1,$1+$1,$6,$7*
1,1,$1+$1,$8,$9*
0 Add four rect primitives between the rounded corners*
20,1,$1+$1,$2,$3,$4,$5,0*
20,1,$1+$1,$4,$5,$6,$7,0*
20,1,$1+$1,$6,$7,$8,$9,0*
20,1,$1+$1,$8,$9,$2,$3,0*%
G04 Aperture macros list end*
%ADD10C,0.000000*%
%ADD11RoundRect,0.250000X-0.250000X-0.475000X0.250000X-0.475000X0.250000X0.475000X-0.250000X0.475000X0*%
%ADD12RoundRect,0.250000X0.262500X0.450000X-0.262500X0.450000X-0.262500X-0.450000X0.262500X-0.450000X0*%
%ADD13R,1.500000X0.900000*%
%ADD14C,2.700000*%
%ADD15RoundRect,0.250000X0.250000X0.475000X-0.250000X0.475000X-0.250000X-0.475000X0.250000X-0.475000X0*%
%ADD16RoundRect,0.250000X0.350000X0.625000X-0.350000X0.625000X-0.350000X-0.625000X0.350000X-0.625000X0*%
%ADD17O,1.200000X1.750000*%
%ADD18C,0.850000*%
%ADD19C,0.650000*%
%ADD20O,1.000000X1.600000*%
%ADD21O,1.000000X2.100000*%
G04 APERTURE END LIST*
D10*
%TO.C,*%
G36*
X225647000Y-108895000D02*
G01*
X225899000Y-108900000D01*
X226096000Y-109491000D01*
X226191000Y-109775000D01*
X226264000Y-109995000D01*
X226302000Y-110110000D01*
X226305000Y-110118000D01*
X226299000Y-110135000D01*
X226249000Y-110145000D01*
X226122000Y-110151000D01*
X225888000Y-110152000D01*
X225645000Y-110153000D01*
X224974000Y-110153000D01*
X225184000Y-109521000D01*
X225395000Y-108889000D01*
X225647000Y-108895000D01*
G37*
G36*
X196851000Y-130578000D02*
G01*
X196951000Y-130584000D01*
X196984000Y-130597000D01*
X196984000Y-130610000D01*
X196928000Y-130768000D01*
X196842000Y-131024000D01*
X196745000Y-131324000D01*
X196655000Y-131613000D01*
X196652000Y-131622000D01*
X196580000Y-131851000D01*
X196529000Y-132002000D01*
X196514000Y-132037000D01*
X196448000Y-131994000D01*
X196283000Y-131880000D01*
X196051000Y-131716000D01*
X195968000Y-131657000D01*
X195434000Y-131276000D01*
X195469000Y-131161000D01*
X195518000Y-131003000D01*
X195579000Y-130810000D01*
X195653000Y-130575000D01*
X196325000Y-130575000D01*
X196653000Y-130575000D01*
X196851000Y-130578000D01*
G37*
G36*
X244485000Y-165119000D02*
G01*
X244580000Y-165408000D01*
X244652000Y-165631000D01*
X244689000Y-165751000D01*
X244691000Y-165761000D01*
X244635000Y-165816000D01*
X244504000Y-165923000D01*
X244352000Y-166040000D01*
X244233000Y-166124000D01*
X244220000Y-166132000D01*
X244150000Y-166094000D01*
X243983000Y-165983000D01*
X243750000Y-165821000D01*
X243669000Y-165763000D01*
X243424000Y-165585000D01*
X243239000Y-165448000D01*
X243144000Y-165373000D01*
X243138000Y-165366000D01*
X243197000Y-165314000D01*
X243352000Y-165193000D01*
X243569000Y-165031000D01*
X243813000Y-164850000D01*
X244023000Y-164695000D01*
X244139000Y-164608000D01*
X244279000Y-164502000D01*
X244485000Y-165119000D01*
G37*
G36*
X254945000Y-130579000D02*
G01*
X255057000Y-130579000D01*
X255722000Y-130585000D01*
X255817000Y-130875000D01*
X255878000Y-131071000D01*
X255911000Y-131190000D01*
X255912000Y-131200000D01*
X255847000Y-131267000D01*
X255651000Y-131419000D01*
X255398000Y-131602000D01*
X255153000Y-131776000D01*
X254965000Y-131910000D01*
X254866000Y-131979000D01*
X254859000Y-131984000D01*
X254816000Y-131924000D01*
X254793000Y-131852000D01*
X254747000Y-131706000D01*
X254669000Y-131459000D01*
X254574000Y-131165000D01*
X254570000Y-131153000D01*
X254483000Y-130882000D01*
X254419000Y-130681000D01*
X254391000Y-130588000D01*
X254391000Y-130586000D01*
X254465000Y-130581000D01*
X254662000Y-130578000D01*
X254945000Y-130579000D01*
G37*
G36*
X207100000Y-164508000D02*
G01*
X207249000Y-164618000D01*
X207327000Y-164678000D01*
X207580000Y-164870000D01*
X207853000Y-165072000D01*
X207906000Y-165111000D01*
X208084000Y-165241000D01*
X208194000Y-165322000D01*
X208211000Y-165334000D01*
X208155000Y-165379000D01*
X208005000Y-165489000D01*
X207796000Y-165639000D01*
X207567000Y-165801000D01*
X207353000Y-165951000D01*
X207193000Y-166061000D01*
X207122000Y-166106000D01*
X207053000Y-166062000D01*
X206910000Y-165956000D01*
X206894000Y-165944000D01*
X206738000Y-165825000D01*
X206646000Y-165756000D01*
X206643000Y-165754000D01*
X206626000Y-165734000D01*
X206628000Y-165684000D01*
X206658000Y-165573000D01*
X206722000Y-165370000D01*
X206813000Y-165095000D01*
X206911000Y-164807000D01*
X206987000Y-164587000D01*
X207031000Y-164473000D01*
X207036000Y-164464000D01*
X207100000Y-164508000D01*
G37*
G36*
X242742000Y-131510000D02*
G01*
X242964000Y-131962000D01*
X243166000Y-132535000D01*
X243336000Y-133192000D01*
X243464000Y-133894000D01*
X243517000Y-134322000D01*
X243546000Y-134675000D01*
X243569000Y-135055000D01*
X243582000Y-135406000D01*
X243583000Y-135672000D01*
X243581000Y-135732000D01*
X243529000Y-136085000D01*
X243433000Y-136358000D01*
X243347000Y-136477000D01*
X243298000Y-136492000D01*
X243264000Y-136457000D01*
X243206000Y-136365000D01*
X243094000Y-136171000D01*
X242950000Y-135913000D01*
X242920000Y-135859000D01*
X242668000Y-135411000D01*
X242460000Y-135076000D01*
X242273000Y-134822000D01*
X242084000Y-134618000D01*
X241881000Y-134441000D01*
X241582000Y-134220000D01*
X241257000Y-134027000D01*
X240846000Y-133826000D01*
X240768000Y-133790000D01*
X240580000Y-133702000D01*
X240476000Y-133646000D01*
X240467000Y-133637000D01*
X240522000Y-133578000D01*
X240673000Y-133423000D01*
X240902000Y-133189000D01*
X241192000Y-132893000D01*
X241527000Y-132554000D01*
X241572000Y-132508000D01*
X242672000Y-131394000D01*
X242742000Y-131510000D01*
G37*
G36*
X243496000Y-121746000D02*
G01*
X243667000Y-121826000D01*
X243870000Y-121952000D01*
X244045000Y-122083000D01*
X244128000Y-122173000D01*
X244143000Y-122238000D01*
X244064000Y-122194000D01*
X244035000Y-122171000D01*
X243919000Y-122083000D01*
X243729000Y-122108000D01*
X243539000Y-122132000D01*
X243428000Y-122051000D01*
X243296000Y-121953000D01*
X243255000Y-121922000D01*
X243192000Y-121875000D01*
X243026000Y-122016000D01*
X242897000Y-122120000D01*
X242840000Y-122157000D01*
X242757000Y-122144000D01*
X242579000Y-122111000D01*
X242551000Y-122106000D01*
X242356000Y-122072000D01*
X242255000Y-122084000D01*
X242183000Y-122164000D01*
X242134000Y-122244000D01*
X242059000Y-122356000D01*
X242037000Y-122382000D01*
X241951000Y-122393000D01*
X241770000Y-122397000D01*
X241755000Y-122397000D01*
X241494000Y-122398000D01*
X241405000Y-122533000D01*
X241294000Y-122710000D01*
X241248000Y-122786000D01*
X241179000Y-122904000D01*
X241055000Y-122891000D01*
X240943000Y-122888000D01*
X240878000Y-122936000D01*
X240870000Y-122944000D01*
X240772000Y-123060000D01*
X240715000Y-123134000D01*
X240633000Y-123237000D01*
X240610000Y-123260000D01*
X240633000Y-123202000D01*
X240665000Y-123144000D01*
X241078000Y-122567000D01*
X241183000Y-122457000D01*
X241509000Y-122175000D01*
X241856000Y-121979000D01*
X242275000Y-121847000D01*
X242657000Y-121776000D01*
X243096000Y-121726000D01*
X243394000Y-121726000D01*
X243496000Y-121746000D01*
G37*
G36*
X227860000Y-173042000D02*
G01*
X227780000Y-173186000D01*
X227747000Y-173344000D01*
X227740000Y-173480000D01*
X227742000Y-173734000D01*
X227766000Y-174025000D01*
X227818000Y-174399000D01*
X227859000Y-174648000D01*
X227907000Y-174966000D01*
X227936000Y-175212000D01*
X227941000Y-175298000D01*
X227886000Y-175668000D01*
X227795000Y-175923000D01*
X227753000Y-176049000D01*
X227805000Y-176086000D01*
X227839000Y-176087000D01*
X227980000Y-176114000D01*
X228181000Y-176176000D01*
X228352000Y-176245000D01*
X228354000Y-176246000D01*
X228655000Y-176451000D01*
X228809000Y-176614000D01*
X228904000Y-176753000D01*
X228968000Y-176866000D01*
X228975000Y-176896000D01*
X228909000Y-176868000D01*
X228818000Y-176825000D01*
X228643000Y-176748000D01*
X228466000Y-176699000D01*
X228242000Y-176672000D01*
X227926000Y-176660000D01*
X227696000Y-176657000D01*
X227224000Y-176647000D01*
X226881000Y-176619000D01*
X226636000Y-176565000D01*
X226458000Y-176476000D01*
X226317000Y-176344000D01*
X226259000Y-176272000D01*
X226170000Y-176138000D01*
X226081000Y-175985000D01*
X226034000Y-175884000D01*
X226033000Y-175877000D01*
X226058000Y-175882000D01*
X226226000Y-175953000D01*
X226518000Y-176013000D01*
X226898000Y-176054000D01*
X227002000Y-176060000D01*
X227255000Y-176074000D01*
X227255000Y-175825000D01*
X227238000Y-175463000D01*
X227181000Y-175031000D01*
X227124000Y-174713000D01*
X227079000Y-174441000D01*
X227056000Y-174234000D01*
X227055000Y-174200000D01*
X227133000Y-173778000D01*
X227363000Y-173401000D01*
X227742000Y-173074000D01*
X227826000Y-173021000D01*
X227906000Y-172972000D01*
X227860000Y-173042000D01*
G37*
G36*
X242281000Y-123491000D02*
G01*
X242411000Y-123589000D01*
X242462000Y-123628000D01*
X242522000Y-123606000D01*
X242613000Y-123523000D01*
X242721000Y-123425000D01*
X242760000Y-123400000D01*
X242837000Y-123438000D01*
X242890000Y-123472000D01*
X243055000Y-123568000D01*
X243103000Y-123592000D01*
X243209000Y-123638000D01*
X243342000Y-123539000D01*
X243475000Y-123439000D01*
X243608000Y-123585000D01*
X243736000Y-123725000D01*
X243801000Y-123797000D01*
X243859000Y-123863000D01*
X244013000Y-123815000D01*
X244166000Y-123766000D01*
X244268000Y-123869000D01*
X244370000Y-123972000D01*
X244370000Y-124200000D01*
X244370000Y-124427000D01*
X244265000Y-124338000D01*
X244089000Y-124204000D01*
X243872000Y-124057000D01*
X243710000Y-123962000D01*
X243405000Y-123841000D01*
X243069000Y-123760000D01*
X242866000Y-123741000D01*
X242686000Y-123755000D01*
X242420000Y-123790000D01*
X242140000Y-123836000D01*
X241915000Y-123881000D01*
X241866000Y-123893000D01*
X241475000Y-124054000D01*
X241028000Y-124332000D01*
X240983000Y-124363000D01*
X240731000Y-124542000D01*
X240491000Y-124707000D01*
X240299000Y-124834000D01*
X240192000Y-124899000D01*
X240182000Y-124903000D01*
X240154000Y-124858000D01*
X240144000Y-124710000D01*
X240157000Y-124513000D01*
X240169000Y-124443000D01*
X240192000Y-124334000D01*
X240302000Y-124308000D01*
X240575000Y-124303000D01*
X240738000Y-124345000D01*
X240863000Y-124385000D01*
X241010000Y-124228000D01*
X241151000Y-124076000D01*
X241234000Y-123985000D01*
X241328000Y-123911000D01*
X241445000Y-123939000D01*
X241474000Y-123953000D01*
X241540000Y-123967000D01*
X241592000Y-123917000D01*
X241811000Y-123672000D01*
X241984000Y-123495000D01*
X242036000Y-123448000D01*
X242126000Y-123375000D01*
X242281000Y-123491000D01*
G37*
G36*
X191559000Y-142459000D02*
G01*
X191712000Y-142478000D01*
X191965000Y-142563000D01*
X192219000Y-142686000D01*
X192233000Y-142694000D01*
X192611000Y-142957000D01*
X193034000Y-143313000D01*
X193363000Y-143627000D01*
X193570000Y-143836000D01*
X193509000Y-144068000D01*
X193357000Y-144525000D01*
X193144000Y-144918000D01*
X193062000Y-145037000D01*
X192685000Y-145434000D01*
X192222000Y-145699000D01*
X192143000Y-145727000D01*
X191782000Y-145798000D01*
X191419000Y-145786000D01*
X191332000Y-145768000D01*
X190978000Y-145642000D01*
X190652000Y-145442000D01*
X190639000Y-145433000D01*
X190381000Y-145211000D01*
X190099000Y-144920000D01*
X189856000Y-144624000D01*
X189842000Y-144605000D01*
X189796000Y-144531000D01*
X189780000Y-144439000D01*
X189780000Y-144401000D01*
X190285000Y-144401000D01*
X190309000Y-144648000D01*
X190455000Y-144999000D01*
X190695000Y-145225000D01*
X190941000Y-145319000D01*
X191168000Y-145337000D01*
X191429000Y-145318000D01*
X191563000Y-145288000D01*
X191944000Y-145097000D01*
X192258000Y-144837000D01*
X192569000Y-144459000D01*
X192807000Y-143986000D01*
X192874000Y-143799000D01*
X192944000Y-143591000D01*
X192789000Y-143444000D01*
X192454000Y-143171000D01*
X192251000Y-143055000D01*
X192153000Y-143013000D01*
X192057000Y-142995000D01*
X191895000Y-142991000D01*
X191813000Y-142992000D01*
X191602000Y-142996000D01*
X191475000Y-143012000D01*
X191364000Y-143047000D01*
X190960000Y-143273000D01*
X190620000Y-143629000D01*
X190367000Y-144086000D01*
X190358000Y-144111000D01*
X190285000Y-144401000D01*
X189780000Y-144401000D01*
X189778000Y-144292000D01*
X189843000Y-143743000D01*
X190045000Y-143258000D01*
X190119000Y-143140000D01*
X190456000Y-142778000D01*
X190878000Y-142539000D01*
X191091000Y-142477000D01*
X191306000Y-142456000D01*
X191559000Y-142459000D01*
G37*
G36*
X248849000Y-112864000D02*
G01*
X249044000Y-112886000D01*
X249228000Y-112942000D01*
X249461000Y-113046000D01*
X249675000Y-113172000D01*
X249800000Y-113322000D01*
X249835000Y-113389000D01*
X249882000Y-113529000D01*
X249898000Y-113702000D01*
X249865000Y-114069000D01*
X249730000Y-114316000D01*
X249534000Y-114436000D01*
X249368000Y-114465000D01*
X249118000Y-114479000D01*
X248862000Y-114475000D01*
X248809000Y-114471000D01*
X248685000Y-114456000D01*
X248669000Y-114447000D01*
X249003000Y-114333000D01*
X249212000Y-114139000D01*
X249263000Y-114026000D01*
X249288000Y-113792000D01*
X249260000Y-113550000D01*
X249253000Y-113526000D01*
X249161000Y-113340000D01*
X249028000Y-113150000D01*
X249019000Y-113140000D01*
X248977000Y-113090000D01*
X248883000Y-113140000D01*
X248703000Y-113275000D01*
X248481000Y-113499000D01*
X248267000Y-113762000D01*
X247973000Y-114162000D01*
X247756000Y-114452000D01*
X247601000Y-114651000D01*
X247492000Y-114779000D01*
X247413000Y-114857000D01*
X247384000Y-114880000D01*
X247038000Y-115072000D01*
X246886000Y-115125000D01*
X246765000Y-115158000D01*
X246832000Y-115196000D01*
X247358000Y-115565000D01*
X247748000Y-116007000D01*
X247964000Y-116411000D01*
X247996000Y-116486000D01*
X247871000Y-116482000D01*
X247704000Y-116474000D01*
X247497000Y-116460000D01*
X247322000Y-116445000D01*
X247241000Y-116436000D01*
X247219000Y-116368000D01*
X247205000Y-116313000D01*
X247061000Y-116015000D01*
X246785000Y-115686000D01*
X246396000Y-115346000D01*
X246159000Y-115174000D01*
X246014000Y-115076000D01*
X246155000Y-115040000D01*
X246546000Y-114866000D01*
X246918000Y-114545000D01*
X247277000Y-114073000D01*
X247475000Y-113736000D01*
X247787000Y-113313000D01*
X248193000Y-113016000D01*
X248228000Y-112998000D01*
X248516000Y-112887000D01*
X248801000Y-112862000D01*
X248849000Y-112864000D01*
G37*
G36*
X196554000Y-156580000D02*
G01*
X196733000Y-156620000D01*
X197020000Y-156698000D01*
X197343000Y-156798000D01*
X197631000Y-156897000D01*
X197777000Y-156954000D01*
X197889000Y-157004000D01*
X197924000Y-157192000D01*
X197983000Y-157642000D01*
X197974000Y-158036000D01*
X197932000Y-158300000D01*
X197876000Y-158524000D01*
X197832000Y-158656000D01*
X197617000Y-159041000D01*
X197310000Y-159377000D01*
X197187000Y-159472000D01*
X196787000Y-159655000D01*
X196320000Y-159721000D01*
X196118000Y-159711000D01*
X195654000Y-159608000D01*
X195264000Y-159462000D01*
X194930000Y-159310000D01*
X194747000Y-159205000D01*
X194714000Y-159175000D01*
X194670000Y-159085000D01*
X194601000Y-158923000D01*
X194565000Y-158803000D01*
X195099000Y-158803000D01*
X195165000Y-158937000D01*
X195308000Y-159144000D01*
X195495000Y-159325000D01*
X195570000Y-159375000D01*
X195900000Y-159461000D01*
X196215000Y-159414000D01*
X196599000Y-159212000D01*
X196914000Y-158866000D01*
X197065000Y-158598000D01*
X197222000Y-158105000D01*
X197268000Y-157558000D01*
X197257000Y-157382000D01*
X197234000Y-157168000D01*
X197205000Y-157061000D01*
X197141000Y-157011000D01*
X197026000Y-156971000D01*
X196584000Y-156855000D01*
X196250000Y-156843000D01*
X196218000Y-156848000D01*
X196056000Y-156900000D01*
X195921000Y-156958000D01*
X195538000Y-157228000D01*
X195263000Y-157614000D01*
X195147000Y-157916000D01*
X195117000Y-158042000D01*
X195103000Y-158185000D01*
X195100000Y-158413000D01*
X195100000Y-158442000D01*
X195099000Y-158803000D01*
X194565000Y-158803000D01*
X194465000Y-158469000D01*
X194441000Y-158042000D01*
X194448000Y-157963000D01*
X194501000Y-157644000D01*
X194601000Y-157375000D01*
X194608000Y-157359000D01*
X194883000Y-156969000D01*
X195274000Y-156677000D01*
X195279000Y-156674000D01*
X195638000Y-156545000D01*
X196052000Y-156514000D01*
X196554000Y-156580000D01*
G37*
G36*
X226063000Y-113447000D02*
G01*
X226230000Y-113502000D01*
X226419000Y-113599000D01*
X226603000Y-113711000D01*
X226892000Y-113870000D01*
X227074000Y-113918000D01*
X227134000Y-113895000D01*
X227153000Y-113904000D01*
X227148000Y-114001000D01*
X227080000Y-114298000D01*
X226995000Y-114429000D01*
X226917000Y-114497000D01*
X226817000Y-114511000D01*
X226781000Y-114511000D01*
X226626000Y-114492000D01*
X226461000Y-114423000D01*
X226262000Y-114301000D01*
X226028000Y-114165000D01*
X225833000Y-114103000D01*
X225669000Y-114086000D01*
X225240000Y-114130000D01*
X224891000Y-114302000D01*
X224641000Y-114590000D01*
X224520000Y-114914000D01*
X224490000Y-115229000D01*
X224513000Y-115555000D01*
X224530000Y-115635000D01*
X224636000Y-115922000D01*
X224800000Y-116240000D01*
X224911000Y-116412000D01*
X225312000Y-116844000D01*
X225842000Y-117213000D01*
X226222000Y-117401000D01*
X226360000Y-117452000D01*
X226407000Y-117459000D01*
X226482000Y-117409000D01*
X226634000Y-117298000D01*
X226676000Y-117266000D01*
X226832000Y-117151000D01*
X226917000Y-117092000D01*
X226923000Y-117090000D01*
X227022000Y-117232000D01*
X227045000Y-117296000D01*
X227034000Y-117317000D01*
X226951000Y-117385000D01*
X226785000Y-117514000D01*
X226571000Y-117676000D01*
X226347000Y-117844000D01*
X226150000Y-117990000D01*
X226017000Y-118086000D01*
X225983000Y-118107000D01*
X225902000Y-118082000D01*
X225730000Y-118021000D01*
X225692000Y-118007000D01*
X225107000Y-117726000D01*
X224612000Y-117353000D01*
X224232000Y-116909000D01*
X224067000Y-116613000D01*
X223918000Y-116146000D01*
X223876000Y-115684000D01*
X223887000Y-115561000D01*
X224016000Y-115084000D01*
X224263000Y-114628000D01*
X224337000Y-114531000D01*
X224592000Y-114252000D01*
X224907000Y-113961000D01*
X225153000Y-113767000D01*
X225487000Y-113552000D01*
X225751000Y-113445000D01*
X225982000Y-113432000D01*
X226063000Y-113447000D01*
G37*
G36*
X213841000Y-106526000D02*
G01*
X213959000Y-106565000D01*
X213995000Y-106582000D01*
X214253000Y-106796000D01*
X214448000Y-107154000D01*
X214449000Y-107156000D01*
X214457000Y-107195000D01*
X214389000Y-107139000D01*
X214387000Y-107137000D01*
X214120000Y-106993000D01*
X213840000Y-106993000D01*
X213763000Y-107009000D01*
X213776000Y-107148000D01*
X213823000Y-107408000D01*
X213924000Y-107682000D01*
X214096000Y-108019000D01*
X214185000Y-108173000D01*
X214421000Y-108596000D01*
X214572000Y-108921000D01*
X214651000Y-109179000D01*
X214669000Y-109365000D01*
X214601000Y-109738000D01*
X214410000Y-110036000D01*
X214117000Y-110228000D01*
X214048000Y-110252000D01*
X213865000Y-110297000D01*
X213732000Y-110298000D01*
X213697000Y-110293000D01*
X213482000Y-110222000D01*
X213359000Y-110125000D01*
X213298000Y-110034000D01*
X213340000Y-110053000D01*
X213358000Y-110067000D01*
X213586000Y-110163000D01*
X213818000Y-110134000D01*
X214006000Y-110002000D01*
X214104000Y-109789000D01*
X214108000Y-109726000D01*
X214052000Y-109425000D01*
X213888000Y-109025000D01*
X213734000Y-108733000D01*
X213514000Y-108317000D01*
X213382000Y-107996000D01*
X213327000Y-107740000D01*
X213323000Y-107658000D01*
X213369000Y-107352000D01*
X213457000Y-107159000D01*
X213505000Y-107083000D01*
X213507000Y-107078000D01*
X213441000Y-107091000D01*
X213322000Y-107120000D01*
X213163000Y-107155000D01*
X213005000Y-107162000D01*
X212886000Y-107159000D01*
X212668000Y-107142000D01*
X212517000Y-107117000D01*
X212209000Y-106982000D01*
X212022000Y-106845000D01*
X211914000Y-106747000D01*
X211984000Y-106761000D01*
X212105000Y-106771000D01*
X212311000Y-106775000D01*
X212345000Y-106775000D01*
X212527000Y-106772000D01*
X212683000Y-106754000D01*
X212863000Y-106712000D01*
X213122000Y-106635000D01*
X213267000Y-106590000D01*
X213464000Y-106535000D01*
X213621000Y-106518000D01*
X213681000Y-106518000D01*
X213841000Y-106526000D01*
G37*
G36*
X228611000Y-109034000D02*
G01*
X228816000Y-109051000D01*
X229108000Y-109081000D01*
X229449000Y-109120000D01*
X229804000Y-109163000D01*
X230135000Y-109207000D01*
X230171000Y-109212000D01*
X232361000Y-109602000D01*
X234498000Y-110138000D01*
X236597000Y-110825000D01*
X238673000Y-111668000D01*
X238889000Y-111766000D01*
X239188000Y-111907000D01*
X239576000Y-112097000D01*
X239999000Y-112309000D01*
X240405000Y-112516000D01*
X240740000Y-112693000D01*
X240843000Y-112749000D01*
X242773000Y-113904000D01*
X244578000Y-115156000D01*
X246244000Y-116493000D01*
X247924000Y-118043000D01*
X249472000Y-119685000D01*
X250892000Y-121421000D01*
X252184000Y-123254000D01*
X253353000Y-125187000D01*
X253363000Y-125204000D01*
X253547000Y-125545000D01*
X253767000Y-125971000D01*
X254005000Y-126445000D01*
X254243000Y-126929000D01*
X254463000Y-127388000D01*
X254646000Y-127783000D01*
X254775000Y-128077000D01*
X254786000Y-128104000D01*
X254757000Y-128117000D01*
X254642000Y-128125000D01*
X254415000Y-128129000D01*
X254101000Y-128129000D01*
X253406000Y-128129000D01*
X253330000Y-127964000D01*
X252312000Y-125954000D01*
X251171000Y-124042000D01*
X249906000Y-122233000D01*
X248520000Y-120528000D01*
X247015000Y-118929000D01*
X245393000Y-117438000D01*
X243759000Y-116135000D01*
X243444000Y-115903000D01*
X243158000Y-115697000D01*
X242836000Y-115472000D01*
X242642000Y-115338000D01*
X242362000Y-115151000D01*
X241999000Y-114918000D01*
X241610000Y-114674000D01*
X241251000Y-114455000D01*
X241194000Y-114421000D01*
X239266000Y-113364000D01*
X237302000Y-112461000D01*
X235290000Y-111707000D01*
X233221000Y-111099000D01*
X232334000Y-110886000D01*
X231102000Y-110635000D01*
X229867000Y-110438000D01*
X229159000Y-110348000D01*
X228949000Y-110323000D01*
X228733000Y-109683000D01*
X228637000Y-109391000D01*
X228565000Y-109167000D01*
X228530000Y-109045000D01*
X228528000Y-109033000D01*
X228611000Y-109034000D01*
G37*
G36*
X247236000Y-111334000D02*
G01*
X247309000Y-111582000D01*
X247498000Y-111771000D01*
X247553000Y-111799000D01*
X247688000Y-111842000D01*
X247861000Y-111882000D01*
X247954000Y-111897000D01*
X247904000Y-111927000D01*
X247794000Y-111984000D01*
X247332000Y-112281000D01*
X246939000Y-112655000D01*
X246855000Y-112761000D01*
X246740000Y-112936000D01*
X246611000Y-113161000D01*
X246597000Y-113188000D01*
X246382000Y-113574000D01*
X246205000Y-113838000D01*
X246047000Y-114007000D01*
X246030000Y-114021000D01*
X245861000Y-114115000D01*
X245619000Y-114203000D01*
X245558000Y-114221000D01*
X245476000Y-114248000D01*
X245473000Y-114251000D01*
X245496000Y-114321000D01*
X245525000Y-114401000D01*
X245605000Y-114553000D01*
X245741000Y-114654000D01*
X245847000Y-114703000D01*
X245984000Y-114761000D01*
X245683000Y-114761000D01*
X245456000Y-114756000D01*
X245321000Y-114738000D01*
X245275000Y-114724000D01*
X245094000Y-114630000D01*
X244998000Y-114473000D01*
X244961000Y-114332000D01*
X244892000Y-114108000D01*
X244780000Y-114000000D01*
X244655000Y-113969000D01*
X244566000Y-113953000D01*
X244601000Y-113936000D01*
X244717000Y-113920000D01*
X244912000Y-113907000D01*
X244914000Y-113906000D01*
X245114000Y-113902000D01*
X245231000Y-113918000D01*
X245264000Y-113929000D01*
X245362000Y-113963000D01*
X245458000Y-113857000D01*
X245649000Y-113610000D01*
X245868000Y-113256000D01*
X246127000Y-112774000D01*
X246160000Y-112708000D01*
X246385000Y-112341000D01*
X246627000Y-112104000D01*
X246809000Y-112006000D01*
X246903000Y-111956000D01*
X246912000Y-111944000D01*
X246850000Y-111891000D01*
X246788000Y-111848000D01*
X246631000Y-111713000D01*
X246583000Y-111658000D01*
X246494000Y-111529000D01*
X246412000Y-111391000D01*
X246376000Y-111309000D01*
X246377000Y-111306000D01*
X246454000Y-111301000D01*
X246643000Y-111295000D01*
X246810000Y-111290000D01*
X247236000Y-111281000D01*
X247236000Y-111334000D01*
G37*
G36*
X251095000Y-114833000D02*
G01*
X251341000Y-114907000D01*
X251548000Y-115019000D01*
X251677000Y-115093000D01*
X251719000Y-115112000D01*
X251849000Y-115222000D01*
X251954000Y-115439000D01*
X251989000Y-115575000D01*
X251990000Y-115870000D01*
X251905000Y-116156000D01*
X251793000Y-116320000D01*
X251641000Y-116423000D01*
X251434000Y-116461000D01*
X251235000Y-116457000D01*
X251001000Y-116438000D01*
X250833000Y-116418000D01*
X250673000Y-116394000D01*
X250820000Y-116369000D01*
X251129000Y-116255000D01*
X251316000Y-116038000D01*
X251380000Y-115761000D01*
X251323000Y-115398000D01*
X251219000Y-115200000D01*
X251124000Y-115090000D01*
X251022000Y-115096000D01*
X250927000Y-115149000D01*
X250758000Y-115275000D01*
X250540000Y-115484000D01*
X250254000Y-115796000D01*
X250117000Y-115952000D01*
X249841000Y-116268000D01*
X249642000Y-116484000D01*
X249494000Y-116626000D01*
X249372000Y-116719000D01*
X249260000Y-116782000D01*
X249053000Y-116866000D01*
X248934000Y-116901000D01*
X248808000Y-116935000D01*
X248779000Y-116947000D01*
X248836000Y-116997000D01*
X248973000Y-117102000D01*
X248985000Y-117111000D01*
X249424000Y-117517000D01*
X249727000Y-117988000D01*
X249824000Y-118227000D01*
X249858000Y-118336000D01*
X249861000Y-118353000D01*
X249849000Y-118365000D01*
X249785000Y-118361000D01*
X249628000Y-118337000D01*
X249466000Y-118309000D01*
X249260000Y-118271000D01*
X249137000Y-118246000D01*
X249124000Y-118241000D01*
X249099000Y-118165000D01*
X249093000Y-118125000D01*
X248998000Y-117850000D01*
X248779000Y-117527000D01*
X248459000Y-117180000D01*
X248156000Y-116913000D01*
X248014000Y-116799000D01*
X248186000Y-116765000D01*
X248516000Y-116654000D01*
X248830000Y-116446000D01*
X248997000Y-116297000D01*
X249256000Y-116015000D01*
X249525000Y-115649000D01*
X249557000Y-115602000D01*
X249899000Y-115200000D01*
X250302000Y-114937000D01*
X250581000Y-114840000D01*
X250878000Y-114805000D01*
X251095000Y-114833000D01*
G37*
G36*
X258264000Y-143775000D02*
G01*
X258606000Y-144005000D01*
X259053000Y-144139000D01*
X259619000Y-144181000D01*
X259692000Y-144180000D01*
X260096000Y-144174000D01*
X260380000Y-144178000D01*
X260583000Y-144198000D01*
X260745000Y-144237000D01*
X260906000Y-144301000D01*
X261001000Y-144346000D01*
X261370000Y-144601000D01*
X261613000Y-144947000D01*
X261694000Y-145196000D01*
X261751000Y-145534000D01*
X261754000Y-145740000D01*
X261747000Y-145769000D01*
X261580000Y-146059000D01*
X261286000Y-146280000D01*
X261159000Y-146336000D01*
X260876000Y-146384000D01*
X260714000Y-146340000D01*
X260566000Y-146237000D01*
X260537000Y-146208000D01*
X260411000Y-146042000D01*
X260259000Y-145809000D01*
X260181000Y-145677000D01*
X260115000Y-145559000D01*
X260234000Y-145655000D01*
X260393000Y-145765000D01*
X260460000Y-145801000D01*
X260722000Y-145840000D01*
X260990000Y-145746000D01*
X261224000Y-145539000D01*
X261336000Y-145358000D01*
X261401000Y-145202000D01*
X261419000Y-145137000D01*
X261430000Y-145064000D01*
X261303000Y-145006000D01*
X261119000Y-144940000D01*
X260887000Y-144891000D01*
X260572000Y-144855000D01*
X260137000Y-144826000D01*
X260082000Y-144823000D01*
X259640000Y-144797000D01*
X259321000Y-144765000D01*
X259089000Y-144719000D01*
X258908000Y-144649000D01*
X258741000Y-144546000D01*
X258618000Y-144453000D01*
X258507000Y-144366000D01*
X258506000Y-144700000D01*
X258501000Y-144948000D01*
X258483000Y-145118000D01*
X258460000Y-145224000D01*
X258248000Y-145789000D01*
X258205000Y-145866000D01*
X258113000Y-146024000D01*
X258054000Y-146071000D01*
X257989000Y-145998000D01*
X257880000Y-145798000D01*
X257877000Y-145793000D01*
X257774000Y-145600000D01*
X257710000Y-145476000D01*
X257702000Y-145456000D01*
X257742000Y-145386000D01*
X257775000Y-145348000D01*
X257942000Y-145075000D01*
X258067000Y-144682000D01*
X258142000Y-144206000D01*
X258158000Y-143834000D01*
X258158000Y-143676000D01*
X258264000Y-143775000D01*
G37*
G36*
X243298000Y-122392000D02*
G01*
X243432000Y-122499000D01*
X243536000Y-122519000D01*
X243664000Y-122483000D01*
X243826000Y-122430000D01*
X243993000Y-122578000D01*
X244120000Y-122691000D01*
X244177000Y-122741000D01*
X244195000Y-122818000D01*
X244221000Y-122989000D01*
X244248000Y-123190000D01*
X244266000Y-123356000D01*
X244269000Y-123402000D01*
X244224000Y-123438000D01*
X244131000Y-123457000D01*
X243995000Y-123477000D01*
X243959000Y-123480000D01*
X243886000Y-123430000D01*
X243748000Y-123305000D01*
X243712000Y-123270000D01*
X243497000Y-123061000D01*
X243347000Y-123160000D01*
X243222000Y-123238000D01*
X243178000Y-123259000D01*
X243105000Y-123220000D01*
X242984000Y-123139000D01*
X242849000Y-123050000D01*
X242792000Y-123019000D01*
X242723000Y-123061000D01*
X242655000Y-123111000D01*
X242524000Y-123207000D01*
X242442000Y-123211000D01*
X242327000Y-123122000D01*
X242313000Y-123110000D01*
X242185000Y-123011000D01*
X242127000Y-122979000D01*
X242048000Y-123024000D01*
X241973000Y-123084000D01*
X241821000Y-123215000D01*
X241665000Y-123348000D01*
X241479000Y-123506000D01*
X241375000Y-123473000D01*
X241273000Y-123443000D01*
X241260000Y-123440000D01*
X241206000Y-123493000D01*
X241080000Y-123628000D01*
X241005000Y-123710000D01*
X240760000Y-123981000D01*
X240568000Y-123981000D01*
X240377000Y-123981000D01*
X240530000Y-123816000D01*
X240694000Y-123625000D01*
X240840000Y-123440000D01*
X240996000Y-123229000D01*
X241167000Y-123235000D01*
X241337000Y-123241000D01*
X241444000Y-123065000D01*
X241559000Y-122885000D01*
X241630000Y-122781000D01*
X241705000Y-122693000D01*
X241768000Y-122686000D01*
X241772000Y-122687000D01*
X241896000Y-122702000D01*
X242015000Y-122711000D01*
X242196000Y-122722000D01*
X242272000Y-122615000D01*
X242363000Y-122488000D01*
X242431000Y-122449000D01*
X242554000Y-122469000D01*
X242630000Y-122487000D01*
X242857000Y-122538000D01*
X243027000Y-122420000D01*
X243198000Y-122302000D01*
X243298000Y-122392000D01*
G37*
G36*
X200873000Y-114696000D02*
G01*
X201119000Y-114852000D01*
X201231000Y-115045000D01*
X201259000Y-115222000D01*
X201252000Y-115479000D01*
X201233000Y-115671000D01*
X201207000Y-115870000D01*
X201188000Y-115946000D01*
X201182000Y-115893000D01*
X201123000Y-115640000D01*
X200982000Y-115418000D01*
X200947000Y-115385000D01*
X200762000Y-115288000D01*
X200501000Y-115266000D01*
X200481000Y-115267000D01*
X200313000Y-115281000D01*
X200188000Y-115324000D01*
X200137000Y-115348000D01*
X199982000Y-115436000D01*
X199922000Y-115478000D01*
X199854000Y-115535000D01*
X199905000Y-115635000D01*
X199994000Y-115777000D01*
X200070000Y-115882000D01*
X200135000Y-115958000D01*
X200223000Y-116048000D01*
X200357000Y-116170000D01*
X200560000Y-116346000D01*
X200853000Y-116595000D01*
X201029000Y-116744000D01*
X201229000Y-116918000D01*
X201391000Y-117068000D01*
X201433000Y-117111000D01*
X201621000Y-117395000D01*
X201738000Y-117715000D01*
X201775000Y-117871000D01*
X201866000Y-117735000D01*
X202251000Y-117266000D01*
X202697000Y-116934000D01*
X203043000Y-116778000D01*
X203191000Y-116725000D01*
X203179000Y-116801000D01*
X203160000Y-116924000D01*
X203130000Y-117133000D01*
X203123000Y-117180000D01*
X203080000Y-117484000D01*
X202961000Y-117507000D01*
X202623000Y-117637000D01*
X202268000Y-117904000D01*
X201881000Y-118315000D01*
X201881000Y-118316000D01*
X201727000Y-118500000D01*
X201651000Y-118586000D01*
X201625000Y-118596000D01*
X201623000Y-118555000D01*
X201623000Y-118545000D01*
X201586000Y-118358000D01*
X201497000Y-118129000D01*
X201446000Y-118033000D01*
X201160000Y-117664000D01*
X200931000Y-117451000D01*
X200782000Y-117330000D01*
X200635000Y-117224000D01*
X200431000Y-117087000D01*
X200356000Y-117039000D01*
X200012000Y-116737000D01*
X199753000Y-116356000D01*
X199618000Y-115954000D01*
X199620000Y-115608000D01*
X199743000Y-115234000D01*
X199845000Y-115038000D01*
X199950000Y-114868000D01*
X200033000Y-114782000D01*
X200060000Y-114763000D01*
X200381000Y-114646000D01*
X200526000Y-114638000D01*
X200873000Y-114696000D01*
G37*
G36*
X223584000Y-148647000D02*
G01*
X223924000Y-148661000D01*
X224119000Y-148678000D01*
X224483000Y-148732000D01*
X224815000Y-148798000D01*
X225164000Y-148890000D01*
X225578000Y-149019000D01*
X225964000Y-149149000D01*
X226470000Y-149314000D01*
X226886000Y-149427000D01*
X227269000Y-149502000D01*
X227673000Y-149550000D01*
X227696000Y-149552000D01*
X227881000Y-149561000D01*
X228184000Y-149567000D01*
X228563000Y-149571000D01*
X228976000Y-149572000D01*
X229382000Y-149570000D01*
X229738000Y-149565000D01*
X230003000Y-149557000D01*
X230051000Y-149555000D01*
X230238000Y-149545000D01*
X230335000Y-149543000D01*
X230338000Y-149544000D01*
X230280000Y-149589000D01*
X230120000Y-149706000D01*
X229885000Y-149874000D01*
X229741000Y-149977000D01*
X229454000Y-150180000D01*
X229268000Y-150307000D01*
X229153000Y-150377000D01*
X229081000Y-150409000D01*
X229034000Y-150418000D01*
X228906000Y-150424000D01*
X228673000Y-150428000D01*
X228392000Y-150430000D01*
X228117000Y-150428000D01*
X227905000Y-150425000D01*
X227836000Y-150422000D01*
X227542000Y-150394000D01*
X227222000Y-150356000D01*
X226964000Y-150318000D01*
X226935000Y-150312000D01*
X226706000Y-150265000D01*
X226477000Y-150207000D01*
X226206000Y-150127000D01*
X225851000Y-150013000D01*
X225582000Y-149924000D01*
X225037000Y-149749000D01*
X224589000Y-149627000D01*
X224186000Y-149550000D01*
X223779000Y-149509000D01*
X223316000Y-149496000D01*
X222968000Y-149499000D01*
X222549000Y-149510000D01*
X222232000Y-149527000D01*
X222095000Y-149540000D01*
X221878000Y-149575000D01*
X221630000Y-149622000D01*
X221416000Y-149667000D01*
X221308000Y-149696000D01*
X221265000Y-149692000D01*
X221180000Y-149646000D01*
X221021000Y-149538000D01*
X220824000Y-149398000D01*
X220604000Y-149239000D01*
X220448000Y-149124000D01*
X220389000Y-149078000D01*
X220464000Y-149052000D01*
X220638000Y-148999000D01*
X220856000Y-148935000D01*
X221063000Y-148876000D01*
X221158000Y-148851000D01*
X221503000Y-148775000D01*
X221923000Y-148704000D01*
X222185000Y-148668000D01*
X222431000Y-148650000D01*
X222783000Y-148641000D01*
X223186000Y-148640000D01*
X223584000Y-148647000D01*
G37*
G36*
X193169000Y-139564000D02*
G01*
X193328000Y-139775000D01*
X193287000Y-139831000D01*
X193072000Y-140007000D01*
X192800000Y-140085000D01*
X192684000Y-140100000D01*
X192664000Y-140106000D01*
X192709000Y-140169000D01*
X192824000Y-140322000D01*
X192952000Y-140490000D01*
X193129000Y-140723000D01*
X193282000Y-140924000D01*
X193351000Y-141015000D01*
X193463000Y-141165000D01*
X193422000Y-141239000D01*
X193338000Y-141355000D01*
X193260000Y-141447000D01*
X192881000Y-141752000D01*
X192421000Y-141920000D01*
X191963000Y-141953000D01*
X191752000Y-141938000D01*
X191590000Y-141901000D01*
X191524000Y-141880000D01*
X190989000Y-141625000D01*
X190836000Y-141521000D01*
X190623000Y-141382000D01*
X190468000Y-141324000D01*
X190386000Y-141317000D01*
X190216000Y-141374000D01*
X190151000Y-141484000D01*
X190150000Y-141667000D01*
X190256000Y-141788000D01*
X190341000Y-141807000D01*
X190423000Y-141807000D01*
X190366000Y-141852000D01*
X190138000Y-141942000D01*
X190003000Y-141936000D01*
X189803000Y-141837000D01*
X189726000Y-141724000D01*
X189662000Y-141457000D01*
X189703000Y-141293000D01*
X189772000Y-141177000D01*
X189881000Y-141016000D01*
X189992000Y-140866000D01*
X190066000Y-140780000D01*
X190074000Y-140775000D01*
X190142000Y-140817000D01*
X190235000Y-140884000D01*
X190639000Y-141124000D01*
X191071000Y-141298000D01*
X191436000Y-141364000D01*
X191835000Y-141363000D01*
X192053000Y-141327000D01*
X192378000Y-141196000D01*
X192683000Y-140995000D01*
X192834000Y-140848000D01*
X192909000Y-140756000D01*
X192662000Y-140425000D01*
X192415000Y-140094000D01*
X191282000Y-140094000D01*
X190149000Y-140094000D01*
X190047000Y-140142000D01*
X189926000Y-140220000D01*
X189904000Y-140242000D01*
X189853000Y-140294000D01*
X189852000Y-140294000D01*
X189801000Y-140238000D01*
X189694000Y-140102000D01*
X189686000Y-140091000D01*
X189532000Y-139888000D01*
X189569000Y-139819000D01*
X189735000Y-139650000D01*
X189799000Y-139615000D01*
X189841000Y-139603000D01*
X189924000Y-139594000D01*
X190070000Y-139588000D01*
X190302000Y-139582000D01*
X190643000Y-139578000D01*
X191114000Y-139574000D01*
X191302000Y-139573000D01*
X192735000Y-139563000D01*
X192831000Y-139515000D01*
X192951000Y-139432000D01*
X192969000Y-139411000D01*
X193011000Y-139354000D01*
X193169000Y-139564000D01*
G37*
G36*
X197969000Y-160176000D02*
G01*
X198254000Y-160312000D01*
X198235000Y-160379000D01*
X198218000Y-160566000D01*
X198236000Y-160667000D01*
X198257000Y-160721000D01*
X198355000Y-160629000D01*
X198584000Y-160454000D01*
X198853000Y-160297000D01*
X198927000Y-160264000D01*
X199054000Y-160221000D01*
X199195000Y-160207000D01*
X199288000Y-160207000D01*
X199605000Y-160234000D01*
X199639000Y-160243000D01*
X199822000Y-160308000D01*
X199985000Y-160388000D01*
X200044000Y-160432000D01*
X200045000Y-160449000D01*
X200022000Y-160437000D01*
X199855000Y-160416000D01*
X199635000Y-160466000D01*
X199567000Y-160495000D01*
X199377000Y-160627000D01*
X199118000Y-160863000D01*
X198835000Y-161160000D01*
X198696000Y-161313000D01*
X198868000Y-161506000D01*
X198980000Y-161637000D01*
X199024000Y-161697000D01*
X199023000Y-161698000D01*
X198949000Y-161665000D01*
X198792000Y-161585000D01*
X198779000Y-161578000D01*
X198551000Y-161459000D01*
X198449000Y-161552000D01*
X198142000Y-161771000D01*
X197794000Y-161929000D01*
X197472000Y-161998000D01*
X197441000Y-161999000D01*
X197357000Y-162004000D01*
X197354000Y-162006000D01*
X197381000Y-162074000D01*
X197411000Y-162141000D01*
X197501000Y-162382000D01*
X197539000Y-162614000D01*
X197543000Y-162810000D01*
X197540000Y-163008000D01*
X197523000Y-163130000D01*
X197480000Y-163258000D01*
X197478000Y-163264000D01*
X197415000Y-163415000D01*
X197385000Y-163474000D01*
X197358000Y-163485000D01*
X197344000Y-163411000D01*
X197256000Y-163040000D01*
X197174000Y-162842000D01*
X197089000Y-162694000D01*
X196947000Y-162468000D01*
X196809000Y-162257000D01*
X196557000Y-161865000D01*
X196397000Y-161565000D01*
X196318000Y-161324000D01*
X196310000Y-161112000D01*
X196364000Y-160896000D01*
X196371000Y-160877000D01*
X196453000Y-160682000D01*
X196502000Y-160586000D01*
X196559000Y-160495000D01*
X196572000Y-160515000D01*
X196572000Y-160528000D01*
X196614000Y-160713000D01*
X196726000Y-160984000D01*
X196757000Y-161047000D01*
X196878000Y-161275000D01*
X196991000Y-161468000D01*
X197070000Y-161580000D01*
X197084000Y-161591000D01*
X197174000Y-161565000D01*
X197337000Y-161482000D01*
X197482000Y-161392000D01*
X197624000Y-161285000D01*
X197803000Y-161137000D01*
X197808000Y-161133000D01*
X198016000Y-160953000D01*
X197948000Y-160860000D01*
X197802000Y-160603000D01*
X197703000Y-160325000D01*
X197678000Y-160118000D01*
X197685000Y-160040000D01*
X197969000Y-160176000D01*
G37*
G36*
X214279000Y-170909000D02*
G01*
X214784000Y-171237000D01*
X215391000Y-171505000D01*
X215922000Y-171660000D01*
X216122000Y-171705000D01*
X216019000Y-171752000D01*
X215775000Y-171829000D01*
X215455000Y-171881000D01*
X215365000Y-171889000D01*
X215169000Y-171903000D01*
X215130000Y-171980000D01*
X215095000Y-172089000D01*
X215035000Y-172314000D01*
X214961000Y-172613000D01*
X214930000Y-172745000D01*
X214849000Y-173087000D01*
X214791000Y-173313000D01*
X214745000Y-173463000D01*
X214699000Y-173576000D01*
X214678000Y-173620000D01*
X214433000Y-173966000D01*
X214148000Y-174161000D01*
X213983000Y-174239000D01*
X214187000Y-174344000D01*
X214362000Y-174445000D01*
X214512000Y-174571000D01*
X214580000Y-174638000D01*
X214822000Y-174939000D01*
X214949000Y-175262000D01*
X214962000Y-175323000D01*
X214984000Y-175459000D01*
X214987000Y-175496000D01*
X214936000Y-175451000D01*
X214860000Y-175371000D01*
X214527000Y-175086000D01*
X214388000Y-175005000D01*
X214252000Y-174944000D01*
X214030000Y-174850000D01*
X213897000Y-174796000D01*
X213437000Y-174597000D01*
X213111000Y-174422000D01*
X212897000Y-174259000D01*
X212780000Y-174109000D01*
X212705000Y-173905000D01*
X212650000Y-173641000D01*
X212639000Y-173550000D01*
X212630000Y-173428000D01*
X212716000Y-173515000D01*
X212894000Y-173657000D01*
X213175000Y-173826000D01*
X213407000Y-173949000D01*
X213717000Y-174108000D01*
X213795000Y-174020000D01*
X213955000Y-173771000D01*
X214093000Y-173400000D01*
X214124000Y-173288000D01*
X214185000Y-173063000D01*
X214031000Y-172973000D01*
X213829000Y-172865000D01*
X213693000Y-172824000D01*
X213639000Y-172821000D01*
X213531000Y-172846000D01*
X213480000Y-172892000D01*
X213417000Y-172947000D01*
X213400000Y-172917000D01*
X213405000Y-172678000D01*
X213549000Y-172504000D01*
X213612000Y-172471000D01*
X213793000Y-172439000D01*
X214007000Y-172506000D01*
X214076000Y-172540000D01*
X214219000Y-172614000D01*
X214276000Y-172641000D01*
X214304000Y-172574000D01*
X214349000Y-172435000D01*
X214456000Y-172145000D01*
X214572000Y-171969000D01*
X214726000Y-171863000D01*
X214738000Y-171858000D01*
X214796000Y-171816000D01*
X214789000Y-171812000D01*
X214698000Y-171784000D01*
X214586000Y-171750000D01*
X214375000Y-171672000D01*
X214215000Y-171600000D01*
X214003000Y-171481000D01*
X213762000Y-171330000D01*
X213571000Y-171195000D01*
X213542000Y-171172000D01*
X213487000Y-171126000D01*
X213662000Y-171061000D01*
X213885000Y-170979000D01*
X214028000Y-170928000D01*
X214219000Y-170860000D01*
X214279000Y-170909000D01*
G37*
G36*
X220454000Y-172570000D02*
G01*
X220569000Y-172622000D01*
X221170000Y-172836000D01*
X221837000Y-172958000D01*
X222255000Y-172982000D01*
X222415000Y-172982000D01*
X222365000Y-173022000D01*
X222122000Y-173160000D01*
X221775000Y-173290000D01*
X221591000Y-173342000D01*
X221511000Y-173380000D01*
X221486000Y-173458000D01*
X221474000Y-173577000D01*
X221460000Y-173813000D01*
X221447000Y-174123000D01*
X221443000Y-174244000D01*
X221426000Y-174669000D01*
X221408000Y-174947000D01*
X221390000Y-175076000D01*
X221248000Y-175443000D01*
X221015000Y-175739000D01*
X220917000Y-175817000D01*
X220839000Y-175881000D01*
X220836000Y-175893000D01*
X220916000Y-175920000D01*
X221008000Y-175946000D01*
X221214000Y-176013000D01*
X221380000Y-176101000D01*
X221486000Y-176171000D01*
X221783000Y-176424000D01*
X221894000Y-176577000D01*
X221957000Y-176705000D01*
X222016000Y-176851000D01*
X222040000Y-176939000D01*
X222038000Y-176942000D01*
X221993000Y-176906000D01*
X221850000Y-176794000D01*
X221637000Y-176674000D01*
X221492000Y-176610000D01*
X221307000Y-176557000D01*
X221048000Y-176497000D01*
X220945000Y-176476000D01*
X220441000Y-176372000D01*
X220071000Y-176272000D01*
X219808000Y-176160000D01*
X219625000Y-176023000D01*
X219498000Y-175844000D01*
X219399000Y-175609000D01*
X219389000Y-175579000D01*
X219348000Y-175439000D01*
X219339000Y-175394000D01*
X219358000Y-175379000D01*
X219384000Y-175402000D01*
X219539000Y-175493000D01*
X219809000Y-175602000D01*
X220155000Y-175712000D01*
X220359000Y-175767000D01*
X220498000Y-175796000D01*
X220545000Y-175783000D01*
X220680000Y-175473000D01*
X220755000Y-175040000D01*
X220766000Y-174856000D01*
X220771000Y-174697000D01*
X220581000Y-174631000D01*
X220305000Y-174565000D01*
X220125000Y-174600000D01*
X220040000Y-174690000D01*
X220004000Y-174750000D01*
X219973000Y-174689000D01*
X219935000Y-174467000D01*
X220048000Y-174273000D01*
X220097000Y-174234000D01*
X220304000Y-174171000D01*
X220598000Y-174217000D01*
X220767000Y-174275000D01*
X220799000Y-174258000D01*
X220802000Y-174201000D01*
X220813000Y-174059000D01*
X220832000Y-173909000D01*
X220899000Y-173636000D01*
X221025000Y-173454000D01*
X221057000Y-173425000D01*
X221153000Y-173342000D01*
X221030000Y-173342000D01*
X220645000Y-173293000D01*
X220199000Y-173158000D01*
X219922000Y-173040000D01*
X219776000Y-172967000D01*
X219722000Y-172933000D01*
X219801000Y-172881000D01*
X219958000Y-172783000D01*
X220141000Y-172672000D01*
X220297000Y-172581000D01*
X220372000Y-172541000D01*
X220373000Y-172540000D01*
X220454000Y-172570000D01*
G37*
G36*
X254047000Y-157183000D02*
G01*
X254100000Y-157277000D01*
X254152000Y-157381000D01*
X254260000Y-157748000D01*
X254218000Y-158072000D01*
X254031000Y-158339000D01*
X253936000Y-158414000D01*
X253811000Y-158484000D01*
X253605000Y-158585000D01*
X253522000Y-158624000D01*
X253281000Y-158740000D01*
X253156000Y-158825000D01*
X253114000Y-158905000D01*
X253116000Y-158968000D01*
X253164000Y-159118000D01*
X253183000Y-159159000D01*
X253285000Y-159307000D01*
X253395000Y-159424000D01*
X253448000Y-159454000D01*
X253530000Y-159420000D01*
X253723000Y-159330000D01*
X253994000Y-159199000D01*
X254188000Y-159103000D01*
X254506000Y-158948000D01*
X254783000Y-158817000D01*
X254978000Y-158730000D01*
X255037000Y-158708000D01*
X255273000Y-158664000D01*
X255364000Y-158662000D01*
X255521000Y-158669000D01*
X255642000Y-158710000D01*
X255698000Y-158737000D01*
X255978000Y-158949000D01*
X256219000Y-159245000D01*
X256314000Y-159383000D01*
X256337000Y-159741000D01*
X256349000Y-159970000D01*
X256348000Y-160084000D01*
X256332000Y-160126000D01*
X256250000Y-160173000D01*
X256069000Y-160262000D01*
X255934000Y-160326000D01*
X255647000Y-160465000D01*
X255467000Y-160574000D01*
X255355000Y-160684000D01*
X255272000Y-160824000D01*
X255262000Y-160842000D01*
X255160000Y-161202000D01*
X255148000Y-161307000D01*
X255142000Y-161367000D01*
X255118000Y-161312000D01*
X255069000Y-161139000D01*
X255026000Y-160879000D01*
X255000000Y-160604000D01*
X254999000Y-160344000D01*
X255044000Y-160175000D01*
X255155000Y-160031000D01*
X255181000Y-160005000D01*
X255402000Y-159831000D01*
X255708000Y-159671000D01*
X255759000Y-159649000D01*
X255903000Y-159582000D01*
X255954000Y-159550000D01*
X255891000Y-159499000D01*
X255752000Y-159433000D01*
X255664000Y-159403000D01*
X255354000Y-159382000D01*
X255088000Y-159441000D01*
X254952000Y-159498000D01*
X254713000Y-159609000D01*
X254409000Y-159756000D01*
X254209000Y-159855000D01*
X253905000Y-160006000D01*
X253663000Y-160124000D01*
X253511000Y-160195000D01*
X253476000Y-160209000D01*
X253438000Y-160131000D01*
X253357000Y-159945000D01*
X253249000Y-159690000D01*
X253131000Y-159407000D01*
X253020000Y-159136000D01*
X252933000Y-158918000D01*
X252890000Y-158806000D01*
X252820000Y-158564000D01*
X252817000Y-158410000D01*
X252840000Y-158345000D01*
X252956000Y-158181000D01*
X253141000Y-158044000D01*
X253418000Y-157911000D01*
X253679000Y-157785000D01*
X253838000Y-157668000D01*
X253888000Y-157612000D01*
X254007000Y-157369000D01*
X254018000Y-157264000D01*
X254025000Y-157171000D01*
X254047000Y-157183000D01*
G37*
G36*
X234352000Y-146226000D02*
G01*
X234635000Y-146233000D01*
X234736000Y-146238000D01*
X234911000Y-146252000D01*
X234326000Y-146667000D01*
X233741000Y-147083000D01*
X233389000Y-147094000D01*
X232498000Y-147189000D01*
X231603000Y-147427000D01*
X231448000Y-147483000D01*
X230874000Y-147687000D01*
X230402000Y-147835000D01*
X229986000Y-147940000D01*
X229581000Y-148014000D01*
X229380000Y-148041000D01*
X229183000Y-148056000D01*
X228879000Y-148069000D01*
X228525000Y-148079000D01*
X228172000Y-148084000D01*
X227876000Y-148083000D01*
X227726000Y-148078000D01*
X227453000Y-148052000D01*
X227128000Y-148011000D01*
X226833000Y-147964000D01*
X226703000Y-147939000D01*
X226508000Y-147894000D01*
X226392000Y-147868000D01*
X226270000Y-147832000D01*
X226051000Y-147761000D01*
X225861000Y-147697000D01*
X225362000Y-147528000D01*
X224979000Y-147404000D01*
X224676000Y-147316000D01*
X224416000Y-147255000D01*
X224166000Y-147212000D01*
X223898000Y-147177000D01*
X223551000Y-147152000D01*
X223119000Y-147141000D01*
X222673000Y-147145000D01*
X222283000Y-147163000D01*
X222145000Y-147176000D01*
X221717000Y-147239000D01*
X221317000Y-147327000D01*
X220885000Y-147455000D01*
X220422000Y-147617000D01*
X219971000Y-147777000D01*
X219609000Y-147891000D01*
X219279000Y-147975000D01*
X219054000Y-148022000D01*
X218915000Y-148045000D01*
X218851000Y-148035000D01*
X218823000Y-148018000D01*
X218662000Y-147907000D01*
X218454000Y-147758000D01*
X218236000Y-147598000D01*
X218045000Y-147455000D01*
X217920000Y-147356000D01*
X217891000Y-147328000D01*
X217972000Y-147312000D01*
X218167000Y-147283000D01*
X218403000Y-147251000D01*
X218749000Y-147200000D01*
X219055000Y-147145000D01*
X219175000Y-147118000D01*
X219471000Y-147035000D01*
X219823000Y-146923000D01*
X220136000Y-146812000D01*
X220201000Y-146787000D01*
X221122000Y-146493000D01*
X222100000Y-146322000D01*
X222265000Y-146306000D01*
X222584000Y-146291000D01*
X222989000Y-146286000D01*
X223409000Y-146292000D01*
X223772000Y-146307000D01*
X223891000Y-146316000D01*
X224267000Y-146360000D01*
X224616000Y-146421000D01*
X224979000Y-146509000D01*
X225396000Y-146636000D01*
X225910000Y-146810000D01*
X226073000Y-146867000D01*
X226657000Y-147048000D01*
X227224000Y-147162000D01*
X227832000Y-147217000D01*
X228505000Y-147223000D01*
X229084000Y-147199000D01*
X229575000Y-147144000D01*
X230040000Y-147046000D01*
X230544000Y-146893000D01*
X230919000Y-146759000D01*
X231505000Y-146554000D01*
X232007000Y-146411000D01*
X232483000Y-146315000D01*
X232992000Y-146253000D01*
X233077000Y-146245000D01*
X233302000Y-146234000D01*
X233628000Y-146227000D01*
X233997000Y-146224000D01*
X234352000Y-146226000D01*
G37*
G36*
X256704000Y-150683000D02*
G01*
X256834000Y-150995000D01*
X256868000Y-151298000D01*
X256859000Y-151361000D01*
X256841000Y-151455000D01*
X257832000Y-152493000D01*
X258158000Y-152835000D01*
X258451000Y-153140000D01*
X258689000Y-153390000D01*
X258855000Y-153562000D01*
X258923000Y-153632000D01*
X259023000Y-153732000D01*
X259120000Y-153627000D01*
X259264000Y-153385000D01*
X259307000Y-153072000D01*
X259302000Y-152882000D01*
X259294000Y-152790000D01*
X259280000Y-152690000D01*
X259318000Y-152760000D01*
X259393000Y-152943000D01*
X259470000Y-153194000D01*
X259513000Y-153374000D01*
X259539000Y-153684000D01*
X259509000Y-153956000D01*
X259483000Y-154033000D01*
X259298000Y-154264000D01*
X258997000Y-154413000D01*
X258632000Y-154463000D01*
X258477000Y-154451000D01*
X258210000Y-154418000D01*
X257878000Y-154371000D01*
X257530000Y-154317000D01*
X257327000Y-154282000D01*
X256790000Y-154195000D01*
X256301000Y-154131000D01*
X255896000Y-154094000D01*
X255610000Y-154087000D01*
X255603000Y-154087000D01*
X255190000Y-154177000D01*
X254826000Y-154380000D01*
X254747000Y-154449000D01*
X254648000Y-154545000D01*
X254654000Y-154259000D01*
X254662000Y-154062000D01*
X254678000Y-153957000D01*
X254716000Y-153874000D01*
X254720000Y-153866000D01*
X254924000Y-153652000D01*
X255232000Y-153520000D01*
X255357000Y-153499000D01*
X255653000Y-153494000D01*
X256099000Y-153528000D01*
X256690000Y-153601000D01*
X256778000Y-153613000D01*
X256870000Y-153626000D01*
X256873000Y-153584000D01*
X257263000Y-153584000D01*
X257352000Y-153730000D01*
X257386000Y-153750000D01*
X257510000Y-153783000D01*
X257722000Y-153822000D01*
X257908000Y-153849000D01*
X258020000Y-153854000D01*
X258226000Y-153858000D01*
X258298000Y-153859000D01*
X258628000Y-153862000D01*
X258479000Y-153707000D01*
X258260000Y-153481000D01*
X258041000Y-153259000D01*
X257852000Y-153069000D01*
X257721000Y-152940000D01*
X257676000Y-152900000D01*
X257622000Y-152956000D01*
X257516000Y-153089000D01*
X257400000Y-153244000D01*
X257315000Y-153366000D01*
X257303000Y-153388000D01*
X257263000Y-153584000D01*
X256873000Y-153584000D01*
X256880000Y-153469000D01*
X256906000Y-153298000D01*
X256983000Y-153146000D01*
X257102000Y-152989000D01*
X257259000Y-152769000D01*
X257315000Y-152610000D01*
X257316000Y-152585000D01*
X257302000Y-152518000D01*
X257239000Y-152429000D01*
X257131000Y-152308000D01*
X256958000Y-152119000D01*
X256812000Y-151960000D01*
X256677000Y-151812000D01*
X256546000Y-151934000D01*
X256415000Y-152053000D01*
X256349000Y-152064000D01*
X256304000Y-151950000D01*
X256270000Y-151819000D01*
X256199000Y-151542000D01*
X256313000Y-151423000D01*
X256543000Y-151069000D01*
X256632000Y-150712000D01*
X256646000Y-150585000D01*
X256704000Y-150683000D01*
G37*
G36*
X210565000Y-107925000D02*
G01*
X210797000Y-108098000D01*
X210915000Y-108224000D01*
X211126000Y-108475000D01*
X211430000Y-108851000D01*
X211830000Y-109355000D01*
X211882000Y-109421000D01*
X212166000Y-109769000D01*
X212439000Y-110083000D01*
X212663000Y-110318000D01*
X212688000Y-110342000D01*
X213076000Y-110605000D01*
X213515000Y-110727000D01*
X213644000Y-110734000D01*
X213791000Y-110734000D01*
X213624000Y-110916000D01*
X213477000Y-111063000D01*
X213370000Y-111149000D01*
X213123000Y-111212000D01*
X212830000Y-111165000D01*
X212635000Y-111073000D01*
X212492000Y-110956000D01*
X212282000Y-110753000D01*
X212043000Y-110503000D01*
X211812000Y-110241000D01*
X211775000Y-110198000D01*
X211538000Y-109912000D01*
X211455000Y-110001000D01*
X211192000Y-110167000D01*
X210991000Y-110214000D01*
X210700000Y-110271000D01*
X210539000Y-110342000D01*
X210461000Y-110394000D01*
X210461000Y-110889000D01*
X210461000Y-111385000D01*
X210646000Y-111379000D01*
X210802000Y-111382000D01*
X210859000Y-111392000D01*
X210860000Y-111437000D01*
X210804000Y-111563000D01*
X210752000Y-111663000D01*
X210618000Y-111916000D01*
X210494000Y-111917000D01*
X210098000Y-111995000D01*
X209766000Y-112204000D01*
X209678000Y-112276000D01*
X209659000Y-112260000D01*
X209681000Y-112159000D01*
X209709000Y-112063000D01*
X209830000Y-111805000D01*
X209992000Y-111606000D01*
X210018000Y-111586000D01*
X210101000Y-111526000D01*
X210090000Y-111285000D01*
X210085000Y-111117000D01*
X210078000Y-110826000D01*
X210070000Y-110451000D01*
X210061000Y-110030000D01*
X210060000Y-109942000D01*
X210051000Y-109518000D01*
X210043000Y-109133000D01*
X210035000Y-108826000D01*
X210029000Y-108634000D01*
X210028000Y-108612000D01*
X210025000Y-108565000D01*
X210395000Y-108565000D01*
X210408000Y-108933000D01*
X210423000Y-109343000D01*
X210434000Y-109618000D01*
X210443000Y-109786000D01*
X210453000Y-109872000D01*
X210466000Y-109902000D01*
X210484000Y-109904000D01*
X210489000Y-109902000D01*
X210590000Y-109884000D01*
X210775000Y-109853000D01*
X210778000Y-109853000D01*
X211054000Y-109791000D01*
X211202000Y-109707000D01*
X211251000Y-109582000D01*
X211252000Y-109554000D01*
X211241000Y-109471000D01*
X211184000Y-109373000D01*
X211114000Y-109280000D01*
X210985000Y-109128000D01*
X210809000Y-108939000D01*
X210629000Y-108757000D01*
X210488000Y-108625000D01*
X210439000Y-108588000D01*
X210395000Y-108565000D01*
X210025000Y-108565000D01*
X210016000Y-108385000D01*
X209883000Y-108393000D01*
X209653000Y-108447000D01*
X209465000Y-108581000D01*
X209270000Y-108780000D01*
X209225000Y-108837000D01*
X209151000Y-108927000D01*
X209151000Y-108883000D01*
X209185000Y-108785000D01*
X209415000Y-108320000D01*
X209648000Y-108024000D01*
X209931000Y-107833000D01*
X210237000Y-107800000D01*
X210565000Y-107925000D01*
G37*
G36*
X234775000Y-171911000D02*
G01*
X234686000Y-172034000D01*
X234588000Y-172149000D01*
X234443000Y-172284000D01*
X234307000Y-172395000D01*
X234178000Y-172495000D01*
X234134000Y-172555000D01*
X234129000Y-172604000D01*
X234158000Y-172725000D01*
X234242000Y-172979000D01*
X234376000Y-173351000D01*
X234379000Y-173360000D01*
X234516000Y-173738000D01*
X234604000Y-174005000D01*
X234651000Y-174198000D01*
X234668000Y-174354000D01*
X234663000Y-174504000D01*
X234595000Y-174848000D01*
X234476000Y-175062000D01*
X234434000Y-175133000D01*
X234434000Y-175137000D01*
X234509000Y-175135000D01*
X234622000Y-175123000D01*
X235084000Y-175136000D01*
X235510000Y-175269000D01*
X235624000Y-175344000D01*
X235769000Y-175459000D01*
X235894000Y-175571000D01*
X235948000Y-175637000D01*
X235947000Y-175640000D01*
X235875000Y-175629000D01*
X235781000Y-175608000D01*
X235518000Y-175560000D01*
X235253000Y-175558000D01*
X234924000Y-175603000D01*
X234744000Y-175638000D01*
X234401000Y-175707000D01*
X234163000Y-175748000D01*
X233980000Y-175770000D01*
X233829000Y-175778000D01*
X233573000Y-175776000D01*
X233486000Y-175761000D01*
X233334000Y-175695000D01*
X233292000Y-175670000D01*
X233168000Y-175568000D01*
X233015000Y-175420000D01*
X232895000Y-175287000D01*
X232869000Y-175250000D01*
X232866000Y-175218000D01*
X232922000Y-175232000D01*
X233067000Y-175249000D01*
X233304000Y-175250000D01*
X233580000Y-175239000D01*
X233843000Y-175218000D01*
X234040000Y-175191000D01*
X234118000Y-175165000D01*
X234137000Y-175081000D01*
X234145000Y-174989000D01*
X234123000Y-174681000D01*
X234017000Y-174290000D01*
X234013000Y-174276000D01*
X233939000Y-174058000D01*
X233713000Y-174069000D01*
X233511000Y-174088000D01*
X233399000Y-174123000D01*
X233268000Y-174255000D01*
X233247000Y-174344000D01*
X233214000Y-174373000D01*
X233140000Y-174298000D01*
X233068000Y-174096000D01*
X233103000Y-173932000D01*
X233227000Y-173779000D01*
X233432000Y-173700000D01*
X233575000Y-173679000D01*
X233729000Y-173662000D01*
X233784000Y-173654000D01*
X233769000Y-173582000D01*
X233725000Y-173415000D01*
X233719000Y-173392000D01*
X233659000Y-173132000D01*
X233656000Y-172958000D01*
X233710000Y-172804000D01*
X233713000Y-172797000D01*
X233779000Y-172667000D01*
X233668000Y-172706000D01*
X233403000Y-172780000D01*
X233095000Y-172821000D01*
X232797000Y-172835000D01*
X232557000Y-172837000D01*
X232390000Y-172832000D01*
X232349000Y-172827000D01*
X232324000Y-172807000D01*
X232348000Y-172750000D01*
X232442000Y-172614000D01*
X232467000Y-172579000D01*
X232595000Y-172403000D01*
X232687000Y-172280000D01*
X232692000Y-172274000D01*
X232752000Y-172198000D01*
X232984000Y-172211000D01*
X233574000Y-172185000D01*
X234213000Y-172053000D01*
X234597000Y-171926000D01*
X234741000Y-171874000D01*
X234793000Y-171859000D01*
X234775000Y-171911000D01*
G37*
G36*
X209674000Y-156604000D02*
G01*
X209875000Y-156717000D01*
X210130000Y-156823000D01*
X210230000Y-156856000D01*
X210398000Y-156894000D01*
X210616000Y-156923000D01*
X210922000Y-156947000D01*
X211333000Y-156969000D01*
X211832000Y-157004000D01*
X212202000Y-157059000D01*
X212474000Y-157138000D01*
X212563000Y-157178000D01*
X212726000Y-157301000D01*
X212892000Y-157481000D01*
X212920000Y-157520000D01*
X212985000Y-157632000D01*
X213068000Y-157791000D01*
X213138000Y-157936000D01*
X213162000Y-158001000D01*
X213096000Y-157978000D01*
X213036000Y-157950000D01*
X212813000Y-157873000D01*
X212494000Y-157799000D01*
X212141000Y-157739000D01*
X211817000Y-157707000D01*
X211784000Y-157705000D01*
X211633000Y-157700000D01*
X211574000Y-157870000D01*
X211538000Y-157980000D01*
X211521000Y-158085000D01*
X211515000Y-158244000D01*
X211514000Y-158442000D01*
X211516000Y-158698000D01*
X211524000Y-158897000D01*
X211529000Y-158954000D01*
X211545000Y-159067000D01*
X211770000Y-159110000D01*
X212089000Y-159151000D01*
X212292000Y-159117000D01*
X212408000Y-159002000D01*
X212434000Y-158941000D01*
X212460000Y-158866000D01*
X212511000Y-158944000D01*
X212595000Y-159188000D01*
X212521000Y-159415000D01*
X212490000Y-159453000D01*
X212283000Y-159602000D01*
X211994000Y-159636000D01*
X211870000Y-159623000D01*
X211707000Y-159597000D01*
X211639000Y-159584000D01*
X211593000Y-159572000D01*
X211593000Y-159969000D01*
X211589000Y-160244000D01*
X211566000Y-160414000D01*
X211511000Y-160533000D01*
X211419000Y-160646000D01*
X211328000Y-160746000D01*
X211741000Y-160747000D01*
X212002000Y-160750000D01*
X212175000Y-160761000D01*
X212334000Y-160787000D01*
X212412000Y-160804000D01*
X212640000Y-160858000D01*
X212872000Y-160920000D01*
X213048000Y-160973000D01*
X213100000Y-160994000D01*
X213057000Y-161051000D01*
X212897000Y-161194000D01*
X212777000Y-161296000D01*
X212582000Y-161456000D01*
X212445000Y-161566000D01*
X212402000Y-161598000D01*
X212314000Y-161587000D01*
X212276000Y-161574000D01*
X211971000Y-161483000D01*
X211570000Y-161403000D01*
X211521000Y-161396000D01*
X211061000Y-161354000D01*
X210540000Y-161353000D01*
X210050000Y-161392000D01*
X209920000Y-161411000D01*
X209850000Y-161423000D01*
X209890000Y-161378000D01*
X210076000Y-161221000D01*
X210349000Y-161049000D01*
X210646000Y-160901000D01*
X210756000Y-160857000D01*
X210861000Y-160810000D01*
X210891000Y-160743000D01*
X210894000Y-160719000D01*
X210893000Y-160593000D01*
X210872000Y-160326000D01*
X210830000Y-159910000D01*
X210812000Y-159748000D01*
X210768000Y-159329000D01*
X210740000Y-159035000D01*
X210730000Y-158828000D01*
X210734000Y-158675000D01*
X210754000Y-158540000D01*
X210774000Y-158444000D01*
X210833000Y-158260000D01*
X210896000Y-158111000D01*
X211003000Y-157922000D01*
X211133000Y-157777000D01*
X211278000Y-157633000D01*
X211105000Y-157610000D01*
X210814000Y-157558000D01*
X210576000Y-157478000D01*
X210397000Y-157396000D01*
X210202000Y-157294000D01*
X210078000Y-157205000D01*
X209980000Y-157111000D01*
X209757000Y-156831000D01*
X209643000Y-156621000D01*
X209619000Y-156565000D01*
X209674000Y-156604000D01*
G37*
G36*
X258282000Y-139460000D02*
G01*
X258384000Y-139556000D01*
X258615000Y-139870000D01*
X258679000Y-140060000D01*
X258702000Y-140164000D01*
X260078000Y-140840000D01*
X260509000Y-141051000D01*
X260888000Y-141236000D01*
X261192000Y-141385000D01*
X261401000Y-141486000D01*
X261489000Y-141528000D01*
X261490000Y-141528000D01*
X261538000Y-141503000D01*
X261575000Y-141434000D01*
X261626000Y-141147000D01*
X261556000Y-140799000D01*
X261483000Y-140627000D01*
X261436000Y-140520000D01*
X261433000Y-140501000D01*
X261485000Y-140545000D01*
X261593000Y-140671000D01*
X261717000Y-140830000D01*
X261800000Y-140949000D01*
X262003000Y-141346000D01*
X262057000Y-141685000D01*
X261961000Y-141972000D01*
X261715000Y-142209000D01*
X261625000Y-142263000D01*
X261522000Y-142317000D01*
X261408000Y-142364000D01*
X261258000Y-142410000D01*
X261048000Y-142461000D01*
X260751000Y-142523000D01*
X260343000Y-142603000D01*
X259892000Y-142689000D01*
X259320000Y-142804000D01*
X258884000Y-142907000D01*
X258562000Y-143004000D01*
X258330000Y-143103000D01*
X258230000Y-143162000D01*
X257988000Y-143366000D01*
X257800000Y-143598000D01*
X257765000Y-143660000D01*
X257710000Y-143765000D01*
X257698000Y-143781000D01*
X257666000Y-143716000D01*
X257609000Y-143566000D01*
X257534000Y-143319000D01*
X257527000Y-143144000D01*
X257558000Y-143031000D01*
X257635000Y-142893000D01*
X257746000Y-142771000D01*
X257888000Y-142651000D01*
X258060000Y-142559000D01*
X258319000Y-142467000D01*
X258409000Y-142440000D01*
X258579000Y-142393000D01*
X258820000Y-142334000D01*
X259078000Y-142273000D01*
X259300000Y-142224000D01*
X259433000Y-142199000D01*
X259445000Y-142198000D01*
X259465000Y-142178000D01*
X259435000Y-142103000D01*
X259411000Y-141963000D01*
X259793000Y-141963000D01*
X259835000Y-142042000D01*
X259971000Y-142123000D01*
X260042000Y-142129000D01*
X260162000Y-142110000D01*
X260183000Y-142107000D01*
X260407000Y-142060000D01*
X260691000Y-141982000D01*
X260959000Y-141894000D01*
X261131000Y-141824000D01*
X261154000Y-141807000D01*
X261137000Y-141782000D01*
X261054000Y-141734000D01*
X260878000Y-141646000D01*
X260584000Y-141505000D01*
X260582000Y-141505000D01*
X260250000Y-141349000D01*
X260048000Y-141261000D01*
X259964000Y-141237000D01*
X259961000Y-141239000D01*
X259930000Y-141323000D01*
X259874000Y-141501000D01*
X259861000Y-141541000D01*
X259795000Y-141804000D01*
X259793000Y-141963000D01*
X259411000Y-141963000D01*
X259391000Y-141845000D01*
X259464000Y-141504000D01*
X259468000Y-141493000D01*
X259535000Y-141229000D01*
X259533000Y-141047000D01*
X259516000Y-141011000D01*
X259440000Y-140962000D01*
X259272000Y-140868000D01*
X259061000Y-140753000D01*
X258857000Y-140646000D01*
X258708000Y-140572000D01*
X258664000Y-140555000D01*
X258623000Y-140615000D01*
X258612000Y-140641000D01*
X258540000Y-140787000D01*
X258513000Y-140832000D01*
X258448000Y-140936000D01*
X258284000Y-140696000D01*
X258120000Y-140455000D01*
X258169000Y-140350000D01*
X258271000Y-139970000D01*
X258256000Y-139585000D01*
X258248000Y-139549000D01*
X258225000Y-139437000D01*
X258226000Y-139419000D01*
X258282000Y-139460000D01*
G37*
G36*
X199081000Y-116993000D02*
G01*
X199306000Y-117235000D01*
X199359000Y-117328000D01*
X199439000Y-117543000D01*
X199513000Y-117821000D01*
X199551000Y-118051000D01*
X199565000Y-118169000D01*
X199570000Y-118189000D01*
X199630000Y-118148000D01*
X199713000Y-118086000D01*
X200021000Y-117909000D01*
X200288000Y-117873000D01*
X200347000Y-117888000D01*
X200510000Y-118008000D01*
X200704000Y-118263000D01*
X200918000Y-118632000D01*
X201138000Y-119094000D01*
X201184000Y-119201000D01*
X201259000Y-119381000D01*
X201115000Y-119438000D01*
X200618000Y-119719000D01*
X200207000Y-120129000D01*
X199894000Y-120652000D01*
X199788000Y-120926000D01*
X199734000Y-121084000D01*
X199710000Y-121151000D01*
X199694000Y-121089000D01*
X199680000Y-121010000D01*
X199642000Y-120681000D01*
X199658000Y-120375000D01*
X199709000Y-120093000D01*
X199704000Y-120063000D01*
X199662000Y-120017000D01*
X199557000Y-119935000D01*
X199366000Y-119800000D01*
X199095000Y-119613000D01*
X198734000Y-119360000D01*
X198482000Y-119171000D01*
X198322000Y-119032000D01*
X199434000Y-119032000D01*
X199471000Y-119061000D01*
X199592000Y-119162000D01*
X199754000Y-119320000D01*
X199895000Y-119472000D01*
X199920000Y-119503000D01*
X199996000Y-119596000D01*
X200011000Y-119612000D01*
X200065000Y-119563000D01*
X200154000Y-119476000D01*
X200452000Y-119251000D01*
X200636000Y-119178000D01*
X200746000Y-119131000D01*
X200751000Y-119114000D01*
X200678000Y-118991000D01*
X200553000Y-118822000D01*
X200434000Y-118684000D01*
X200204000Y-118518000D01*
X199988000Y-118503000D01*
X199913000Y-118533000D01*
X199665000Y-118707000D01*
X199475000Y-118924000D01*
X199452000Y-118964000D01*
X199434000Y-119032000D01*
X198322000Y-119032000D01*
X198311000Y-119022000D01*
X198193000Y-118892000D01*
X198155000Y-118840000D01*
X197981000Y-118471000D01*
X197951000Y-118336000D01*
X197928000Y-118176000D01*
X197833000Y-118290000D01*
X197568000Y-118535000D01*
X197443000Y-118604000D01*
X197327000Y-118647000D01*
X197185000Y-118660000D01*
X197124000Y-118660000D01*
X196960000Y-118654000D01*
X196848000Y-118622000D01*
X196773000Y-118587000D01*
X196632000Y-118513000D01*
X196582000Y-118481000D01*
X196563000Y-118452000D01*
X196599000Y-118459000D01*
X196759000Y-118451000D01*
X196959000Y-118397000D01*
X197008000Y-118376000D01*
X197149000Y-118287000D01*
X197311000Y-118133000D01*
X197488000Y-117925000D01*
X198146000Y-117925000D01*
X198195000Y-118022000D01*
X198334000Y-118205000D01*
X198568000Y-118425000D01*
X198817000Y-118615000D01*
X198981000Y-118727000D01*
X199074000Y-118786000D01*
X199081000Y-118789000D01*
X199116000Y-118729000D01*
X199136000Y-118679000D01*
X199210000Y-118385000D01*
X199235000Y-118069000D01*
X199208000Y-117803000D01*
X199180000Y-117723000D01*
X199020000Y-117559000D01*
X198832000Y-117520000D01*
X198575000Y-117591000D01*
X198300000Y-117781000D01*
X198283000Y-117797000D01*
X198146000Y-117925000D01*
X197488000Y-117925000D01*
X197522000Y-117886000D01*
X197613000Y-117770000D01*
X197923000Y-117395000D01*
X198175000Y-117137000D01*
X198391000Y-116974000D01*
X198532000Y-116906000D01*
X198813000Y-116878000D01*
X199081000Y-116993000D01*
G37*
G36*
X203055000Y-112362000D02*
G01*
X203466000Y-112462000D01*
X203711000Y-112596000D01*
X203839000Y-112687000D01*
X204054000Y-112849000D01*
X204318000Y-113051000D01*
X204418000Y-113130000D01*
X204917000Y-113516000D01*
X205310000Y-113814000D01*
X205617000Y-114035000D01*
X205857000Y-114192000D01*
X206050000Y-114298000D01*
X206216000Y-114365000D01*
X206372000Y-114406000D01*
X206413000Y-114413000D01*
X206803000Y-114430000D01*
X207007000Y-114391000D01*
X207100000Y-114364000D01*
X207108000Y-114362000D01*
X207076000Y-114423000D01*
X206996000Y-114570000D01*
X206992000Y-114577000D01*
X206836000Y-114817000D01*
X206682000Y-114948000D01*
X206564000Y-114993000D01*
X206217000Y-115006000D01*
X206004000Y-114942000D01*
X205779000Y-114825000D01*
X205472000Y-114631000D01*
X205121000Y-114388000D01*
X205032000Y-114322000D01*
X204853000Y-114191000D01*
X204740000Y-114114000D01*
X204721000Y-114103000D01*
X204685000Y-114168000D01*
X204673000Y-114191000D01*
X204472000Y-114418000D01*
X204258000Y-114521000D01*
X204040000Y-114618000D01*
X203872000Y-114739000D01*
X203807000Y-114847000D01*
X203824000Y-114933000D01*
X203866000Y-115119000D01*
X203921000Y-115351000D01*
X203974000Y-115572000D01*
X204010000Y-115711000D01*
X204047000Y-115777000D01*
X204064000Y-115774000D01*
X204176000Y-115740000D01*
X204326000Y-115705000D01*
X204430000Y-115687000D01*
X204440000Y-115688000D01*
X204431000Y-115764000D01*
X204398000Y-115907000D01*
X204344000Y-116124000D01*
X204311000Y-116230000D01*
X204279000Y-116266000D01*
X204230000Y-116275000D01*
X204226000Y-116276000D01*
X204042000Y-116342000D01*
X203831000Y-116462000D01*
X203734000Y-116535000D01*
X203595000Y-116686000D01*
X203550000Y-116746000D01*
X203470000Y-116866000D01*
X203456000Y-116804000D01*
X203459000Y-116577000D01*
X203531000Y-116308000D01*
X203635000Y-116105000D01*
X203707000Y-116004000D01*
X203303000Y-114491000D01*
X203162000Y-113962000D01*
X203056000Y-113569000D01*
X202978000Y-113293000D01*
X202920000Y-113115000D01*
X202896000Y-113064000D01*
X203314000Y-113064000D01*
X203330000Y-113137000D01*
X203377000Y-113321000D01*
X203444000Y-113570000D01*
X203517000Y-113842000D01*
X203586000Y-114091000D01*
X203638000Y-114274000D01*
X203656000Y-114334000D01*
X203726000Y-114324000D01*
X203884000Y-114268000D01*
X204073000Y-114187000D01*
X204161000Y-114145000D01*
X204318000Y-114025000D01*
X204377000Y-113929000D01*
X204361000Y-113798000D01*
X204237000Y-113645000D01*
X203990000Y-113452000D01*
X203897000Y-113389000D01*
X203698000Y-113263000D01*
X203503000Y-113150000D01*
X203360000Y-113077000D01*
X203314000Y-113064000D01*
X202896000Y-113064000D01*
X202874000Y-113018000D01*
X202833000Y-112981000D01*
X202787000Y-112987000D01*
X202731000Y-113017000D01*
X202695000Y-113035000D01*
X202463000Y-113219000D01*
X202264000Y-113514000D01*
X202194000Y-113675000D01*
X202167000Y-113750000D01*
X202165000Y-113680000D01*
X202192000Y-113449000D01*
X202263000Y-113153000D01*
X202357000Y-112876000D01*
X202414000Y-112754000D01*
X202603000Y-112515000D01*
X202760000Y-112406000D01*
X202869000Y-112365000D01*
X202996000Y-112359000D01*
X203055000Y-112362000D01*
G37*
G36*
X234488000Y-143892000D02*
G01*
X235353000Y-143987000D01*
X236040000Y-144143000D01*
X236211000Y-144198000D01*
X236476000Y-144287000D01*
X236777000Y-144392000D01*
X237058000Y-144492000D01*
X237231000Y-144557000D01*
X237243000Y-144576000D01*
X237195000Y-144625000D01*
X237063000Y-144725000D01*
X236882000Y-144854000D01*
X236668000Y-145005000D01*
X236511000Y-145114000D01*
X236453000Y-145151000D01*
X236353000Y-145140000D01*
X236142000Y-145075000D01*
X235243000Y-144839000D01*
X234309000Y-144734000D01*
X233688000Y-144733000D01*
X233174000Y-144761000D01*
X232729000Y-144814000D01*
X232302000Y-144902000D01*
X231839000Y-145036000D01*
X231288000Y-145228000D01*
X231245000Y-145244000D01*
X230585000Y-145464000D01*
X229986000Y-145610000D01*
X229375000Y-145699000D01*
X229029000Y-145727000D01*
X228461000Y-145742000D01*
X227849000Y-145722000D01*
X227270000Y-145670000D01*
X226965000Y-145624000D01*
X226707000Y-145568000D01*
X226383000Y-145479000D01*
X225963000Y-145347000D01*
X225622000Y-145234000D01*
X225077000Y-145059000D01*
X224628000Y-144937000D01*
X224225000Y-144859000D01*
X223815000Y-144816000D01*
X223349000Y-144799000D01*
X223117000Y-144798000D01*
X222480000Y-144814000D01*
X221934000Y-144872000D01*
X221410000Y-144983000D01*
X220840000Y-145160000D01*
X220602000Y-145245000D01*
X219999000Y-145455000D01*
X219485000Y-145603000D01*
X219008000Y-145703000D01*
X218547000Y-145766000D01*
X218363000Y-145777000D01*
X218076000Y-145787000D01*
X217742000Y-145794000D01*
X217419000Y-145798000D01*
X217165000Y-145796000D01*
X217084000Y-145793000D01*
X216263000Y-145699000D01*
X215478000Y-145515000D01*
X215396000Y-145489000D01*
X215285000Y-145448000D01*
X215175000Y-145391000D01*
X215023000Y-145292000D01*
X214787000Y-145125000D01*
X214771000Y-145114000D01*
X214331000Y-144798000D01*
X214453000Y-144555000D01*
X214535000Y-144391000D01*
X214578000Y-144309000D01*
X214579000Y-144307000D01*
X214624000Y-144318000D01*
X214764000Y-144365000D01*
X215019000Y-144453000D01*
X215361000Y-144573000D01*
X216009000Y-144770000D01*
X216635000Y-144889000D01*
X217303000Y-144938000D01*
X217796000Y-144937000D01*
X218376000Y-144911000D01*
X218867000Y-144854000D01*
X219335000Y-144755000D01*
X219844000Y-144602000D01*
X220171000Y-144487000D01*
X220643000Y-144321000D01*
X221014000Y-144202000D01*
X221332000Y-144118000D01*
X221643000Y-144055000D01*
X221706000Y-144044000D01*
X222516000Y-143954000D01*
X223446000Y-143943000D01*
X223511000Y-143945000D01*
X224004000Y-143972000D01*
X224446000Y-144027000D01*
X224891000Y-144119000D01*
X225390000Y-144260000D01*
X225832000Y-144403000D01*
X226247000Y-144540000D01*
X226550000Y-144636000D01*
X226780000Y-144702000D01*
X226978000Y-144748000D01*
X227183000Y-144786000D01*
X227215000Y-144792000D01*
X227728000Y-144857000D01*
X228282000Y-144881000D01*
X228655000Y-144878000D01*
X229189000Y-144855000D01*
X229647000Y-144805000D01*
X230084000Y-144716000D01*
X230554000Y-144579000D01*
X231112000Y-144381000D01*
X231124000Y-144376000D01*
X231863000Y-144131000D01*
X232553000Y-143977000D01*
X233264000Y-143897000D01*
X233519000Y-143885000D01*
X234488000Y-143892000D01*
G37*
G36*
X237690000Y-170817000D02*
G01*
X237623000Y-170972000D01*
X237537000Y-171147000D01*
X237493000Y-171225000D01*
X237371000Y-171395000D01*
X237273000Y-171508000D01*
X237135000Y-171654000D01*
X237448000Y-172369000D01*
X237605000Y-172735000D01*
X237709000Y-172987000D01*
X237770000Y-173159000D01*
X237798000Y-173269000D01*
X237831000Y-173692000D01*
X237736000Y-174058000D01*
X237694000Y-174165000D01*
X237693000Y-174184000D01*
X237769000Y-174161000D01*
X237846000Y-174135000D01*
X238228000Y-174071000D01*
X238563000Y-174157000D01*
X238835000Y-174385000D01*
X238936000Y-174542000D01*
X238987000Y-174646000D01*
X238991000Y-174665000D01*
X238928000Y-174629000D01*
X238909000Y-174616000D01*
X238695000Y-174523000D01*
X238440000Y-174510000D01*
X238271000Y-174530000D01*
X238082000Y-174577000D01*
X237824000Y-174666000D01*
X237619000Y-174743000D01*
X237160000Y-174897000D01*
X236797000Y-174961000D01*
X236698000Y-174964000D01*
X236512000Y-174953000D01*
X236418000Y-174936000D01*
X236189000Y-174784000D01*
X236048000Y-174514000D01*
X236018000Y-174361000D01*
X236019000Y-174214000D01*
X236049000Y-173983000D01*
X236060000Y-173945000D01*
X236375000Y-173945000D01*
X236432000Y-174147000D01*
X236433000Y-174149000D01*
X236565000Y-174278000D01*
X236705000Y-174336000D01*
X236901000Y-174361000D01*
X237148000Y-174333000D01*
X237313000Y-174292000D01*
X237371000Y-174221000D01*
X237376000Y-174152000D01*
X237355000Y-173963000D01*
X237306000Y-173744000D01*
X237287000Y-173683000D01*
X237227000Y-173529000D01*
X237145000Y-173338000D01*
X237067000Y-173165000D01*
X237017000Y-173068000D01*
X237012000Y-173061000D01*
X236929000Y-173114000D01*
X236794000Y-173241000D01*
X236655000Y-173394000D01*
X236648000Y-173403000D01*
X236445000Y-173704000D01*
X236375000Y-173945000D01*
X236060000Y-173945000D01*
X236123000Y-173728000D01*
X236258000Y-173394000D01*
X236286000Y-173331000D01*
X236233000Y-173319000D01*
X236189000Y-173324000D01*
X235843000Y-173335000D01*
X235587000Y-173266000D01*
X235532000Y-173229000D01*
X235417000Y-173057000D01*
X235362000Y-172775000D01*
X235363000Y-172363000D01*
X235368000Y-172294000D01*
X235388000Y-172076000D01*
X235409000Y-171885000D01*
X235768000Y-171885000D01*
X235778000Y-172137000D01*
X235824000Y-172498000D01*
X235933000Y-172727000D01*
X236021000Y-172803000D01*
X236116000Y-172834000D01*
X236264000Y-172840000D01*
X236448000Y-172831000D01*
X236534000Y-172819000D01*
X236687000Y-172769000D01*
X236741000Y-172747000D01*
X236840000Y-172688000D01*
X236844000Y-172663000D01*
X236738000Y-172305000D01*
X236703000Y-172126000D01*
X236676000Y-171959000D01*
X236663000Y-171886000D01*
X236601000Y-171882000D01*
X236532000Y-171901000D01*
X236183000Y-171953000D01*
X235915000Y-171924000D01*
X235768000Y-171885000D01*
X235409000Y-171885000D01*
X235416000Y-171828000D01*
X235445000Y-171604000D01*
X235468000Y-171456000D01*
X235477000Y-171427000D01*
X235550000Y-171433000D01*
X235683000Y-171452000D01*
X236257000Y-171460000D01*
X236819000Y-171315000D01*
X237348000Y-171023000D01*
X237562000Y-170852000D01*
X237673000Y-170762000D01*
X237709000Y-170743000D01*
X237690000Y-170817000D01*
G37*
G36*
X217093000Y-171490000D02*
G01*
X217265000Y-171579000D01*
X217392000Y-171750000D01*
X217496000Y-172035000D01*
X217537000Y-172193000D01*
X217591000Y-172401000D01*
X217637000Y-172543000D01*
X217799000Y-172827000D01*
X217976000Y-173031000D01*
X218076000Y-173121000D01*
X218111000Y-173125000D01*
X218122000Y-173101000D01*
X218305000Y-172761000D01*
X218356000Y-172693000D01*
X218609000Y-172444000D01*
X218869000Y-172333000D01*
X218927000Y-172326000D01*
X219048000Y-172316000D01*
X218986000Y-172357000D01*
X218854000Y-172485000D01*
X218762000Y-172695000D01*
X218694000Y-173025000D01*
X218689000Y-173054000D01*
X218644000Y-173360000D01*
X218786000Y-173393000D01*
X218969000Y-173425000D01*
X219179000Y-173451000D01*
X219429000Y-173475000D01*
X219304000Y-173539000D01*
X219043000Y-173633000D01*
X218726000Y-173693000D01*
X218724000Y-173693000D01*
X218642000Y-173703000D01*
X218599000Y-173739000D01*
X218574000Y-173847000D01*
X218548000Y-174043000D01*
X218485000Y-174353000D01*
X218389000Y-174660000D01*
X218286000Y-174889000D01*
X218279000Y-174900000D01*
X218020000Y-175171000D01*
X217899000Y-175250000D01*
X217814000Y-175307000D01*
X217827000Y-175329000D01*
X218119000Y-175453000D01*
X218313000Y-175561000D01*
X218465000Y-175686000D01*
X218546000Y-175770000D01*
X218671000Y-175925000D01*
X218726000Y-176014000D01*
X218776000Y-176130000D01*
X218837000Y-176286000D01*
X218883000Y-176413000D01*
X218892000Y-176448000D01*
X218839000Y-176399000D01*
X218737000Y-176301000D01*
X218584000Y-176171000D01*
X218416000Y-176084000D01*
X218407000Y-176080000D01*
X218096000Y-175961000D01*
X217728000Y-175836000D01*
X217495000Y-175765000D01*
X217068000Y-175616000D01*
X216745000Y-175432000D01*
X216551000Y-175266000D01*
X216292000Y-174928000D01*
X216182000Y-174556000D01*
X216179000Y-174354000D01*
X216198000Y-174263000D01*
X216774000Y-174263000D01*
X216826000Y-174617000D01*
X216864000Y-174705000D01*
X217026000Y-174932000D01*
X217269000Y-175101000D01*
X217385000Y-175155000D01*
X217520000Y-175207000D01*
X217588000Y-175171000D01*
X217644000Y-175066000D01*
X217727000Y-174859000D01*
X217814000Y-174571000D01*
X217834000Y-174493000D01*
X217879000Y-174300000D01*
X217928000Y-174061000D01*
X217971000Y-173839000D01*
X217995000Y-173694000D01*
X217996000Y-173674000D01*
X217963000Y-173620000D01*
X217881000Y-173582000D01*
X217511000Y-173377000D01*
X217488000Y-173358000D01*
X217387000Y-173290000D01*
X217366000Y-173282000D01*
X217268000Y-173331000D01*
X217128000Y-173443000D01*
X217060000Y-173510000D01*
X216844000Y-173858000D01*
X216774000Y-174263000D01*
X216198000Y-174263000D01*
X216267000Y-173949000D01*
X216469000Y-173607000D01*
X216598000Y-173481000D01*
X216746000Y-173382000D01*
X216953000Y-173264000D01*
X216974000Y-173253000D01*
X217234000Y-173117000D01*
X217193000Y-173060000D01*
X217054000Y-172768000D01*
X216961000Y-172366000D01*
X216955000Y-172320000D01*
X216903000Y-172051000D01*
X216828000Y-171898000D01*
X216812000Y-171880000D01*
X216718000Y-171823000D01*
X216652000Y-171819000D01*
X216559000Y-171805000D01*
X216553000Y-171798000D01*
X216591000Y-171703000D01*
X216666000Y-171581000D01*
X216697000Y-171545000D01*
X216883000Y-171461000D01*
X217093000Y-171490000D01*
G37*
G36*
X195759000Y-152368000D02*
G01*
X195822000Y-152410000D01*
X195970000Y-152620000D01*
X196008000Y-152785000D01*
X196003000Y-152904000D01*
X195949000Y-153037000D01*
X195944000Y-153047000D01*
X195846000Y-153205000D01*
X195700000Y-153403000D01*
X195678000Y-153431000D01*
X195419000Y-153822000D01*
X195301000Y-154190000D01*
X195290000Y-154344000D01*
X195299000Y-154433000D01*
X195325000Y-154434000D01*
X195424000Y-154406000D01*
X195490000Y-154390000D01*
X195729000Y-154368000D01*
X196007000Y-154386000D01*
X196152000Y-154415000D01*
X196345000Y-154511000D01*
X196482000Y-154637000D01*
X196504000Y-154682000D01*
X196480000Y-154673000D01*
X196320000Y-154647000D01*
X196123000Y-154662000D01*
X196055000Y-154681000D01*
X195915000Y-154745000D01*
X195733000Y-154840000D01*
X195563000Y-154937000D01*
X195460000Y-155004000D01*
X195451000Y-155016000D01*
X195486000Y-155107000D01*
X195573000Y-155274000D01*
X195679000Y-155455000D01*
X195729000Y-155533000D01*
X195804000Y-155650000D01*
X195803000Y-155679000D01*
X195788000Y-155676000D01*
X195601000Y-155581000D01*
X195381000Y-155417000D01*
X195244000Y-155288000D01*
X195156000Y-155200000D01*
X195136000Y-155185000D01*
X195066000Y-155220000D01*
X194911000Y-155307000D01*
X194879000Y-155325000D01*
X194432000Y-155542000D01*
X194047000Y-155651000D01*
X193997000Y-155657000D01*
X193725000Y-155637000D01*
X193474000Y-155558000D01*
X193378000Y-155515000D01*
X193366000Y-155512000D01*
X193387000Y-155580000D01*
X193417000Y-155676000D01*
X193490000Y-156015000D01*
X193487000Y-156292000D01*
X193447000Y-156535000D01*
X193365000Y-156736000D01*
X193274000Y-156888000D01*
X193183000Y-157028000D01*
X193151000Y-157055000D01*
X193152000Y-157029000D01*
X193178000Y-156825000D01*
X193175000Y-156679000D01*
X193165000Y-156606000D01*
X193121000Y-156426000D01*
X193036000Y-156146000D01*
X192925000Y-155816000D01*
X192805000Y-155486000D01*
X192789000Y-155445000D01*
X192672000Y-155056000D01*
X192647000Y-154791000D01*
X193206000Y-154791000D01*
X193223000Y-154975000D01*
X193263000Y-155170000D01*
X193299000Y-155270000D01*
X193384000Y-155273000D01*
X193573000Y-155230000D01*
X193632000Y-155213000D01*
X193950000Y-155095000D01*
X194366000Y-154905000D01*
X194498000Y-154839000D01*
X194692000Y-154742000D01*
X194810000Y-154681000D01*
X194826000Y-154672000D01*
X194814000Y-154601000D01*
X194790000Y-154502000D01*
X194749000Y-154288000D01*
X194732000Y-154137000D01*
X194719000Y-153935000D01*
X194608000Y-153895000D01*
X194369000Y-153850000D01*
X194097000Y-153850000D01*
X193976000Y-153872000D01*
X193605000Y-154047000D01*
X193346000Y-154314000D01*
X193217000Y-154649000D01*
X193206000Y-154791000D01*
X192647000Y-154791000D01*
X192638000Y-154694000D01*
X192702000Y-154243000D01*
X192900000Y-153878000D01*
X193227000Y-153606000D01*
X193352000Y-153542000D01*
X193703000Y-153442000D01*
X193857000Y-153434000D01*
X194034000Y-153447000D01*
X194224000Y-153500000D01*
X194489000Y-153611000D01*
X194493000Y-153613000D01*
X194663000Y-153689000D01*
X194752000Y-153727000D01*
X194755000Y-153728000D01*
X194791000Y-153670000D01*
X194808000Y-153627000D01*
X194969000Y-153342000D01*
X195239000Y-153022000D01*
X195419000Y-152814000D01*
X195496000Y-152669000D01*
X195491000Y-152551000D01*
X195421000Y-152444000D01*
X195418000Y-152441000D01*
X195369000Y-152403000D01*
X195445000Y-152377000D01*
X195591000Y-152352000D01*
X195634000Y-152350000D01*
X195759000Y-152368000D01*
G37*
G36*
X250261000Y-130677000D02*
G01*
X250055000Y-131048000D01*
X249908000Y-131567000D01*
X249820000Y-132233000D01*
X249820000Y-132239000D01*
X249806000Y-132551000D01*
X249810000Y-132929000D01*
X249832000Y-133410000D01*
X249853000Y-133731000D01*
X249872000Y-134143000D01*
X249878000Y-134563000D01*
X249870000Y-134946000D01*
X249850000Y-135244000D01*
X249831000Y-135364000D01*
X249726000Y-135688000D01*
X249550000Y-135946000D01*
X249279000Y-136188000D01*
X249080000Y-136342000D01*
X248917000Y-136470000D01*
X248902000Y-136481000D01*
X248779000Y-136569000D01*
X248695000Y-136581000D01*
X248643000Y-136568000D01*
X248522000Y-136547000D01*
X248336000Y-136525000D01*
X247784000Y-136540000D01*
X247228000Y-136702000D01*
X247171000Y-136726000D01*
X247037000Y-136780000D01*
X246996000Y-136790000D01*
X247040000Y-136711000D01*
X247141000Y-136572000D01*
X247193000Y-136509000D01*
X247364000Y-136342000D01*
X247596000Y-136155000D01*
X247815000Y-136007000D01*
X247864000Y-135980000D01*
X248087000Y-135888000D01*
X248328000Y-135844000D01*
X248532000Y-135831000D01*
X248809000Y-135830000D01*
X249020000Y-135854000D01*
X249174000Y-135877000D01*
X249231000Y-135881000D01*
X249249000Y-135790000D01*
X249266000Y-135584000D01*
X249278000Y-135308000D01*
X249287000Y-135008000D01*
X249288000Y-134730000D01*
X249283000Y-134519000D01*
X249274000Y-134437000D01*
X249258000Y-134361000D01*
X248883000Y-134646000D01*
X248634000Y-134837000D01*
X248403000Y-135019000D01*
X248297000Y-135104000D01*
X248138000Y-135232000D01*
X248036000Y-135310000D01*
X248032000Y-135313000D01*
X247978000Y-135349000D01*
X247815000Y-135231000D01*
X247419000Y-134855000D01*
X247159000Y-134391000D01*
X247032000Y-133840000D01*
X247021000Y-133689000D01*
X247032000Y-133292000D01*
X247111000Y-132932000D01*
X247126000Y-132886000D01*
X247233000Y-132610000D01*
X247378000Y-132345000D01*
X247452000Y-132228000D01*
X247658000Y-131859000D01*
X247735000Y-131578000D01*
X247684000Y-131378000D01*
X247648000Y-131337000D01*
X247492000Y-131281000D01*
X247358000Y-131310000D01*
X247226000Y-131448000D01*
X247211000Y-131550000D01*
X247213000Y-131645000D01*
X247173000Y-131596000D01*
X247055000Y-131345000D01*
X247062000Y-131081000D01*
X247177000Y-130879000D01*
X247416000Y-130742000D01*
X247698000Y-130718000D01*
X247863000Y-130767000D01*
X247974000Y-130836000D01*
X248141000Y-130952000D01*
X248313000Y-131078000D01*
X248441000Y-131179000D01*
X248479000Y-131217000D01*
X248436000Y-131282000D01*
X248371000Y-131365000D01*
X248125000Y-131743000D01*
X247911000Y-132193000D01*
X247805000Y-132505000D01*
X247749000Y-132844000D01*
X247741000Y-133232000D01*
X247773000Y-133525000D01*
X247914000Y-133948000D01*
X248021000Y-134156000D01*
X248113000Y-134280000D01*
X248252000Y-134442000D01*
X248387000Y-134582000D01*
X248458000Y-134642000D01*
X248511000Y-134628000D01*
X248636000Y-134544000D01*
X248830000Y-134399000D01*
X249027000Y-134248000D01*
X249165000Y-134143000D01*
X249205000Y-134113000D01*
X249224000Y-134087000D01*
X249228000Y-134019000D01*
X249217000Y-133866000D01*
X249197000Y-133669000D01*
X249168000Y-133320000D01*
X249154000Y-132949000D01*
X249152000Y-132689000D01*
X249152000Y-132392000D01*
X249156000Y-132209000D01*
X249167000Y-132089000D01*
X249189000Y-131986000D01*
X249205000Y-131927000D01*
X249415000Y-131428000D01*
X249740000Y-130998000D01*
X250148000Y-130676000D01*
X250206000Y-130644000D01*
X250347000Y-130570000D01*
X250261000Y-130677000D01*
G37*
G36*
X207262000Y-109480000D02*
G01*
X207471000Y-109546000D01*
X207623000Y-109658000D01*
X207684000Y-109749000D01*
X207811000Y-109944000D01*
X207981000Y-110210000D01*
X208111000Y-110413000D01*
X208334000Y-110764000D01*
X208559000Y-111119000D01*
X208751000Y-111421000D01*
X208817000Y-111526000D01*
X209001000Y-111811000D01*
X209129000Y-111987000D01*
X209225000Y-112084000D01*
X209318000Y-112130000D01*
X209385000Y-112145000D01*
X209453000Y-112180000D01*
X209452000Y-112183000D01*
X209420000Y-112267000D01*
X209358000Y-112425000D01*
X209274000Y-112643000D01*
X209175000Y-112631000D01*
X208940000Y-112545000D01*
X208759000Y-112395000D01*
X208678000Y-112279000D01*
X208546000Y-112078000D01*
X208437000Y-111909000D01*
X208281000Y-111669000D01*
X208176000Y-111537000D01*
X208091000Y-111483000D01*
X207992000Y-111479000D01*
X207948000Y-111484000D01*
X207812000Y-111518000D01*
X207637000Y-111598000D01*
X207378000Y-111748000D01*
X207361000Y-111759000D01*
X207095000Y-111920000D01*
X207161000Y-112023000D01*
X207243000Y-112152000D01*
X207370000Y-112352000D01*
X207424000Y-112437000D01*
X207594000Y-112704000D01*
X207702000Y-112865000D01*
X207771000Y-112952000D01*
X207825000Y-112996000D01*
X207864000Y-113016000D01*
X207996000Y-113057000D01*
X208018000Y-113059000D01*
X208071000Y-113078000D01*
X208066000Y-113094000D01*
X208031000Y-113187000D01*
X207973000Y-113338000D01*
X207900000Y-113523000D01*
X207857000Y-113602000D01*
X207819000Y-113620000D01*
X207809000Y-113620000D01*
X207666000Y-113646000D01*
X207480000Y-113704000D01*
X207431000Y-113723000D01*
X207209000Y-113863000D01*
X207029000Y-114034000D01*
X206954000Y-114125000D01*
X206954000Y-114038000D01*
X207018000Y-113713000D01*
X207182000Y-113411000D01*
X207228000Y-113357000D01*
X207320000Y-113259000D01*
X207170000Y-113024000D01*
X207030000Y-112802000D01*
X206865000Y-112542000D01*
X206822000Y-112475000D01*
X206623000Y-112162000D01*
X206503000Y-112149000D01*
X206229000Y-112059000D01*
X206052000Y-111935000D01*
X205994000Y-111871000D01*
X206002000Y-111868000D01*
X206234000Y-111876000D01*
X206289000Y-111856000D01*
X206383000Y-111812000D01*
X206393000Y-111805000D01*
X206354000Y-111741000D01*
X206254000Y-111582000D01*
X206172000Y-111452000D01*
X206020000Y-111224000D01*
X205897000Y-111060000D01*
X205862000Y-111021000D01*
X205658000Y-110920000D01*
X205412000Y-110966000D01*
X205365000Y-110987000D01*
X205270000Y-111035000D01*
X205270000Y-110920000D01*
X205298000Y-110763000D01*
X205331000Y-110698000D01*
X205497000Y-110516000D01*
X205719000Y-110391000D01*
X205928000Y-110363000D01*
X206030000Y-110394000D01*
X206125000Y-110461000D01*
X206237000Y-110591000D01*
X206389000Y-110810000D01*
X206553000Y-111065000D01*
X206699000Y-111288000D01*
X206807000Y-111445000D01*
X206853000Y-111501000D01*
X206925000Y-111460000D01*
X207039000Y-111388000D01*
X207250000Y-111260000D01*
X207403000Y-111193000D01*
X207465000Y-111176000D01*
X207662000Y-111154000D01*
X207866000Y-111163000D01*
X207912000Y-111173000D01*
X207968000Y-111181000D01*
X207951000Y-111149000D01*
X207896000Y-111063000D01*
X207781000Y-110881000D01*
X207629000Y-110642000D01*
X207625000Y-110634000D01*
X207466000Y-110388000D01*
X207335000Y-110196000D01*
X207260000Y-110099000D01*
X207260000Y-110098000D01*
X207122000Y-110014000D01*
X207083000Y-110000000D01*
X207009000Y-109975000D01*
X206988000Y-109931000D01*
X207022000Y-109821000D01*
X207079000Y-109674000D01*
X207159000Y-109467000D01*
X207262000Y-109480000D01*
G37*
G36*
X200726000Y-130646000D02*
G01*
X200847000Y-130721000D01*
X201013000Y-130810000D01*
X201211000Y-130876000D01*
X201473000Y-130927000D01*
X201828000Y-130967000D01*
X202311000Y-131003000D01*
X202350000Y-131005000D01*
X202643000Y-131027000D01*
X202894000Y-131051000D01*
X203013000Y-131067000D01*
X203543000Y-131220000D01*
X203970000Y-131474000D01*
X204277000Y-131818000D01*
X204348000Y-131947000D01*
X204466000Y-132309000D01*
X204489000Y-132604000D01*
X204419000Y-133074000D01*
X204210000Y-133470000D01*
X204137000Y-133556000D01*
X204019000Y-133674000D01*
X203848000Y-133833000D01*
X203680000Y-133984000D01*
X203570000Y-134074000D01*
X203611000Y-134121000D01*
X203634000Y-134142000D01*
X203834000Y-134381000D01*
X204026000Y-134722000D01*
X204128000Y-134965000D01*
X204275000Y-135279000D01*
X204432000Y-135443000D01*
X204611000Y-135467000D01*
X204652000Y-135456000D01*
X204740000Y-135434000D01*
X204746000Y-135435000D01*
X204741000Y-135512000D01*
X204708000Y-135653000D01*
X204668000Y-135768000D01*
X204584000Y-135878000D01*
X204577000Y-135883000D01*
X204388000Y-135959000D01*
X204151000Y-135971000D01*
X204078000Y-135959000D01*
X203912000Y-135889000D01*
X203764000Y-135754000D01*
X203608000Y-135524000D01*
X203457000Y-135246000D01*
X203229000Y-134862000D01*
X202990000Y-134592000D01*
X202699000Y-134392000D01*
X202671000Y-134377000D01*
X202527000Y-134301000D01*
X202515000Y-134377000D01*
X202405000Y-134791000D01*
X202349000Y-134913000D01*
X202166000Y-135227000D01*
X202035000Y-135372000D01*
X201867000Y-135470000D01*
X201699000Y-135535000D01*
X201644000Y-135549000D01*
X201712000Y-135477000D01*
X201835000Y-135249000D01*
X201876000Y-135035000D01*
X201877000Y-134853000D01*
X201863000Y-134594000D01*
X201839000Y-134341000D01*
X201831000Y-134277000D01*
X201820000Y-134202000D01*
X201603000Y-134202000D01*
X201319000Y-134219000D01*
X201152000Y-134242000D01*
X200964000Y-134273000D01*
X200894000Y-134277000D01*
X200901000Y-134254000D01*
X200913000Y-134240000D01*
X201097000Y-134093000D01*
X201370000Y-133940000D01*
X201628000Y-133831000D01*
X201765000Y-133768000D01*
X201782000Y-133743000D01*
X201775000Y-133650000D01*
X201756000Y-133463000D01*
X201753000Y-133430000D01*
X201726000Y-133065000D01*
X201734000Y-132769000D01*
X202474000Y-132769000D01*
X202476000Y-133094000D01*
X202482000Y-133367000D01*
X202489000Y-133541000D01*
X202491000Y-133564000D01*
X202507000Y-133698000D01*
X202621000Y-133711000D01*
X202991000Y-133792000D01*
X203189000Y-133868000D01*
X203314000Y-133926000D01*
X203350000Y-133940000D01*
X203406000Y-133890000D01*
X203486000Y-133806000D01*
X203716000Y-133447000D01*
X203822000Y-133042000D01*
X203802000Y-132630000D01*
X203658000Y-132251000D01*
X203466000Y-132009000D01*
X203245000Y-131845000D01*
X202976000Y-131742000D01*
X202682000Y-131688000D01*
X202595000Y-131688000D01*
X202560000Y-131751000D01*
X202519000Y-131879000D01*
X202494000Y-132039000D01*
X202480000Y-132268000D01*
X202475000Y-132604000D01*
X202474000Y-132769000D01*
X201734000Y-132769000D01*
X201735000Y-132759000D01*
X201753000Y-132590000D01*
X201842000Y-132206000D01*
X202010000Y-131912000D01*
X202157000Y-131759000D01*
X202247000Y-131674000D01*
X202244000Y-131634000D01*
X202122000Y-131611000D01*
X202009000Y-131596000D01*
X201719000Y-131536000D01*
X201469000Y-131433000D01*
X201193000Y-131274000D01*
X200982000Y-131079000D01*
X200800000Y-130834000D01*
X200699000Y-130679000D01*
X200653000Y-130602000D01*
X200654000Y-130600000D01*
X200726000Y-130646000D01*
G37*
G36*
X237900000Y-156604000D02*
G01*
X237919000Y-156628000D01*
X238152000Y-156827000D01*
X238377000Y-156934000D01*
X238445000Y-156954000D01*
X238528000Y-156968000D01*
X238659000Y-156975000D01*
X238874000Y-156978000D01*
X239209000Y-156979000D01*
X239280000Y-156979000D01*
X239683000Y-156981000D01*
X239965000Y-156986000D01*
X240163000Y-156998000D01*
X240318000Y-157018000D01*
X240466000Y-157049000D01*
X240482000Y-157053000D01*
X240847000Y-157197000D01*
X241076000Y-157421000D01*
X241124000Y-157520000D01*
X241170000Y-157785000D01*
X241148000Y-158075000D01*
X241136000Y-158121000D01*
X241003000Y-158412000D01*
X240772000Y-158751000D01*
X240564000Y-158996000D01*
X240459000Y-159114000D01*
X240422000Y-159161000D01*
X240467000Y-159173000D01*
X240598000Y-159197000D01*
X240791000Y-159253000D01*
X240956000Y-159314000D01*
X240971000Y-159321000D01*
X241220000Y-159508000D01*
X241321000Y-159755000D01*
X241324000Y-159812000D01*
X241289000Y-160059000D01*
X241194000Y-160390000D01*
X241144000Y-160527000D01*
X241077000Y-160685000D01*
X240974000Y-160911000D01*
X240856000Y-161163000D01*
X240742000Y-161399000D01*
X240651000Y-161578000D01*
X240605000Y-161656000D01*
X240604000Y-161657000D01*
X240533000Y-161625000D01*
X240392000Y-161554000D01*
X239846000Y-161335000D01*
X239298000Y-161245000D01*
X238721000Y-161282000D01*
X238089000Y-161448000D01*
X237767000Y-161570000D01*
X237764000Y-161542000D01*
X237859000Y-161427000D01*
X238034000Y-161245000D01*
X238047000Y-161232000D01*
X238438000Y-160915000D01*
X238644000Y-160806000D01*
X238756000Y-160748000D01*
X238779000Y-160697000D01*
X238777000Y-160671000D01*
X239420000Y-160671000D01*
X239482000Y-160676000D01*
X239499000Y-160676000D01*
X239913000Y-160738000D01*
X240289000Y-160903000D01*
X240324000Y-160926000D01*
X240452000Y-161016000D01*
X240507000Y-160852000D01*
X240570000Y-160639000D01*
X240594000Y-160536000D01*
X240629000Y-160176000D01*
X240564000Y-159910000D01*
X240485000Y-159809000D01*
X240312000Y-159723000D01*
X240059000Y-159654000D01*
X239802000Y-159620000D01*
X239681000Y-159624000D01*
X239581000Y-159640000D01*
X239536000Y-159685000D01*
X239520000Y-159806000D01*
X239514000Y-159960000D01*
X239492000Y-160242000D01*
X239461000Y-160466000D01*
X239430000Y-160617000D01*
X239420000Y-160671000D01*
X238777000Y-160671000D01*
X238773000Y-160601000D01*
X238756000Y-160380000D01*
X238731000Y-160069000D01*
X238707000Y-159774000D01*
X238671000Y-159308000D01*
X238650000Y-158966000D01*
X238645000Y-158764000D01*
X238646000Y-158742000D01*
X238724000Y-158327000D01*
X239421000Y-158327000D01*
X239439000Y-158782000D01*
X239441000Y-158812000D01*
X239459000Y-159034000D01*
X239477000Y-159137000D01*
X239507000Y-159161000D01*
X239555000Y-159150000D01*
X239680000Y-159101000D01*
X239811000Y-159039000D01*
X240188000Y-158815000D01*
X240453000Y-158584000D01*
X240554000Y-158439000D01*
X240599000Y-158306000D01*
X240597000Y-158210000D01*
X240499000Y-157953000D01*
X240258000Y-157766000D01*
X239873000Y-157648000D01*
X239842000Y-157642000D01*
X239658000Y-157614000D01*
X239575000Y-157624000D01*
X239534000Y-157686000D01*
X239523000Y-157715000D01*
X239448000Y-157985000D01*
X239421000Y-158327000D01*
X238724000Y-158327000D01*
X238741000Y-158241000D01*
X238955000Y-157838000D01*
X239066000Y-157710000D01*
X239184000Y-157590000D01*
X238966000Y-157590000D01*
X238622000Y-157557000D01*
X238373000Y-157467000D01*
X238135000Y-157285000D01*
X237971000Y-157062000D01*
X237900000Y-156875000D01*
X237848000Y-156672000D01*
X237837000Y-156583000D01*
X237845000Y-156544000D01*
X237900000Y-156604000D01*
G37*
G36*
X224745000Y-172943000D02*
G01*
X225152000Y-173054000D01*
X225494000Y-173029000D01*
X225617000Y-173007000D01*
X225644000Y-173007000D01*
X225608000Y-173066000D01*
X225502000Y-173176000D01*
X225378000Y-173284000D01*
X225338000Y-173313000D01*
X225137000Y-173413000D01*
X224944000Y-173462000D01*
X224929000Y-173462000D01*
X224863000Y-173502000D01*
X224862000Y-173507000D01*
X224854000Y-173604000D01*
X224841000Y-173818000D01*
X224826000Y-174107000D01*
X224823000Y-174169000D01*
X224794000Y-174786000D01*
X224900000Y-174886000D01*
X225077000Y-175147000D01*
X225122000Y-175296000D01*
X225136000Y-175376000D01*
X225078000Y-175324000D01*
X224939000Y-175235000D01*
X224857000Y-175217000D01*
X224774000Y-175203000D01*
X224759000Y-175440000D01*
X224747000Y-175702000D01*
X224742000Y-175939000D01*
X224743000Y-176122000D01*
X224757000Y-176214000D01*
X224795000Y-176283000D01*
X224795000Y-176284000D01*
X224990000Y-176434000D01*
X225115000Y-176469000D01*
X225216000Y-176493000D01*
X225227000Y-176498000D01*
X225198000Y-176559000D01*
X225113000Y-176651000D01*
X225063000Y-176691000D01*
X224805000Y-176772000D01*
X224585000Y-176768000D01*
X224389000Y-176705000D01*
X224293000Y-176620000D01*
X224238000Y-176546000D01*
X224207000Y-176453000D01*
X224195000Y-176304000D01*
X224200000Y-176061000D01*
X224213000Y-175787000D01*
X224227000Y-175501000D01*
X224236000Y-175290000D01*
X224238000Y-175192000D01*
X224238000Y-175189000D01*
X224163000Y-175181000D01*
X223987000Y-175169000D01*
X223945000Y-175167000D01*
X223723000Y-175149000D01*
X223591000Y-175121000D01*
X223547000Y-175105000D01*
X223277000Y-174946000D01*
X223195000Y-174870000D01*
X223132000Y-174803000D01*
X223120000Y-174939000D01*
X223110000Y-175090000D01*
X223096000Y-175340000D01*
X223084000Y-175562000D01*
X223072000Y-175869000D01*
X223076000Y-176060000D01*
X223101000Y-176175000D01*
X223154000Y-176259000D01*
X223179000Y-176288000D01*
X223249000Y-176366000D01*
X223038000Y-176507000D01*
X222885000Y-176605000D01*
X222802000Y-176649000D01*
X222800000Y-176649000D01*
X222718000Y-176593000D01*
X222613000Y-176473000D01*
X222553000Y-176373000D01*
X222534000Y-176307000D01*
X222528000Y-176208000D01*
X222533000Y-176030000D01*
X222543000Y-175830000D01*
X222578000Y-175152000D01*
X222606000Y-174616000D01*
X222627000Y-174205000D01*
X222641000Y-173901000D01*
X222648000Y-173685000D01*
X222651000Y-173542000D01*
X222649000Y-173452000D01*
X222643000Y-173398000D01*
X222636000Y-173370000D01*
X222558000Y-173226000D01*
X222542000Y-173208000D01*
X222494000Y-173131000D01*
X222498000Y-173126000D01*
X222573000Y-173076000D01*
X222715000Y-172983000D01*
X222868000Y-172888000D01*
X222952000Y-172883000D01*
X223033000Y-172969000D01*
X223052000Y-172993000D01*
X223135000Y-173126000D01*
X223175000Y-173282000D01*
X223184000Y-173517000D01*
X223179000Y-173673000D01*
X223168000Y-173943000D01*
X223157000Y-174178000D01*
X223154000Y-174229000D01*
X223141000Y-174424000D01*
X223218000Y-174494000D01*
X223320000Y-174569000D01*
X223457000Y-174620000D01*
X223667000Y-174656000D01*
X223990000Y-174687000D01*
X224094000Y-174695000D01*
X224231000Y-174701000D01*
X224269000Y-174684000D01*
X224269000Y-174677000D01*
X224273000Y-174588000D01*
X224284000Y-174381000D01*
X224299000Y-174102000D01*
X224300000Y-174083000D01*
X224316000Y-173747000D01*
X224316000Y-173533000D01*
X224296000Y-173402000D01*
X224250000Y-173315000D01*
X224205000Y-173264000D01*
X224159000Y-173190000D01*
X224162000Y-173185000D01*
X224237000Y-173136000D01*
X224388000Y-173036000D01*
X224402000Y-173027000D01*
X224620000Y-172883000D01*
X224745000Y-172943000D01*
G37*
G36*
X258878000Y-146662000D02*
G01*
X259331000Y-146818000D01*
X259583000Y-146975000D01*
X259703000Y-147086000D01*
X259876000Y-147262000D01*
X259950000Y-147341000D01*
X260123000Y-147524000D01*
X260263000Y-147662000D01*
X260299000Y-147694000D01*
X260508000Y-147807000D01*
X260684000Y-147808000D01*
X260790000Y-147705000D01*
X260804000Y-147619000D01*
X260737000Y-147447000D01*
X260624000Y-147387000D01*
X260573000Y-147375000D01*
X260634000Y-147348000D01*
X260760000Y-147323000D01*
X260824000Y-147320000D01*
X260973000Y-147337000D01*
X261048000Y-147374000D01*
X261196000Y-147522000D01*
X261240000Y-147712000D01*
X261236000Y-147879000D01*
X261176000Y-148017000D01*
X261034000Y-148170000D01*
X260846000Y-148328000D01*
X260658000Y-148480000D01*
X260606000Y-148410000D01*
X260435000Y-148218000D01*
X260186000Y-147980000D01*
X259912000Y-147745000D01*
X259674000Y-147565000D01*
X259281000Y-147369000D01*
X258848000Y-147295000D01*
X258359000Y-147333000D01*
X258199000Y-147382000D01*
X258031000Y-147458000D01*
X257871000Y-147549000D01*
X257786000Y-147617000D01*
X257785000Y-147620000D01*
X257804000Y-147705000D01*
X257866000Y-147872000D01*
X257867000Y-147875000D01*
X257961000Y-148103000D01*
X258198000Y-148126000D01*
X258740000Y-148255000D01*
X259239000Y-148526000D01*
X259664000Y-148921000D01*
X259800000Y-149100000D01*
X259888000Y-149188000D01*
X259914000Y-149193000D01*
X260054000Y-149146000D01*
X260289000Y-149018000D01*
X260392000Y-148961000D01*
X260411000Y-148955000D01*
X260445000Y-149029000D01*
X260512000Y-149190000D01*
X260589000Y-149381000D01*
X260653000Y-149544000D01*
X260680000Y-149622000D01*
X260680000Y-149623000D01*
X260563000Y-149687000D01*
X260380000Y-149760000D01*
X260217000Y-149808000D01*
X260177000Y-149814000D01*
X260103000Y-149788000D01*
X260053000Y-149719000D01*
X259918000Y-149552000D01*
X259717000Y-149352000D01*
X259513000Y-149182000D01*
X259474000Y-149154000D01*
X259045000Y-148928000D01*
X258830000Y-148859000D01*
X258645000Y-148818000D01*
X258449000Y-148804000D01*
X258369000Y-148803000D01*
X258090000Y-148816000D01*
X257870000Y-148867000D01*
X257770000Y-148906000D01*
X257619000Y-148981000D01*
X257473000Y-149069000D01*
X257398000Y-149131000D01*
X257397000Y-149135000D01*
X257425000Y-149212000D01*
X257494000Y-149383000D01*
X257583000Y-149597000D01*
X257669000Y-149799000D01*
X257730000Y-149938000D01*
X257746000Y-149969000D01*
X257828000Y-149996000D01*
X258032000Y-150050000D01*
X258322000Y-150123000D01*
X258665000Y-150207000D01*
X259024000Y-150293000D01*
X259366000Y-150373000D01*
X259655000Y-150439000D01*
X259857000Y-150482000D01*
X259934000Y-150495000D01*
X260132000Y-150444000D01*
X260223000Y-150401000D01*
X260232000Y-150399000D01*
X260262000Y-150469000D01*
X260328000Y-150629000D01*
X260333000Y-150641000D01*
X260398000Y-150806000D01*
X260413000Y-150879000D01*
X260393000Y-150916000D01*
X260256000Y-151007000D01*
X260083000Y-151069000D01*
X260034000Y-151075000D01*
X259932000Y-151055000D01*
X259703000Y-151003000D01*
X259373000Y-150924000D01*
X258971000Y-150825000D01*
X258649000Y-150745000D01*
X258087000Y-150604000D01*
X257671000Y-150504000D01*
X257394000Y-150442000D01*
X257249000Y-150417000D01*
X257235000Y-150416000D01*
X257040000Y-150459000D01*
X257027000Y-150466000D01*
X256937000Y-150509000D01*
X256927000Y-150511000D01*
X256898000Y-150442000D01*
X256832000Y-150282000D01*
X256827000Y-150269000D01*
X256759000Y-150097000D01*
X256761000Y-150012000D01*
X256847000Y-149954000D01*
X256910000Y-149922000D01*
X257186000Y-149857000D01*
X257480000Y-149906000D01*
X257474000Y-149855000D01*
X257401000Y-149679000D01*
X257299000Y-149459000D01*
X257172000Y-149186000D01*
X257062000Y-148949000D01*
X257007000Y-148826000D01*
X256929000Y-148650000D01*
X256998000Y-148579000D01*
X257302000Y-148338000D01*
X257645000Y-148181000D01*
X257654000Y-148178000D01*
X257775000Y-148145000D01*
X257724000Y-148032000D01*
X257616000Y-147788000D01*
X257505000Y-147529000D01*
X257410000Y-147300000D01*
X257350000Y-147145000D01*
X257337000Y-147105000D01*
X257401000Y-147016000D01*
X257559000Y-146895000D01*
X257762000Y-146775000D01*
X257940000Y-146697000D01*
X258394000Y-146618000D01*
X258878000Y-146662000D01*
G37*
G36*
X222743000Y-109114000D02*
G01*
X222683000Y-109304000D01*
X222594000Y-109575000D01*
X222556000Y-109689000D01*
X222343000Y-110331000D01*
X222259000Y-110342000D01*
X222135000Y-110358000D01*
X221914000Y-110386000D01*
X221774000Y-110404000D01*
X219680000Y-110749000D01*
X217605000Y-111244000D01*
X215576000Y-111881000D01*
X213616000Y-112655000D01*
X213523000Y-112696000D01*
X213203000Y-112839000D01*
X212925000Y-112965000D01*
X212723000Y-113060000D01*
X212631000Y-113107000D01*
X212629000Y-113108000D01*
X212658000Y-113177000D01*
X212743000Y-113341000D01*
X212802000Y-113453000D01*
X213143000Y-114128000D01*
X213347000Y-114602000D01*
X213429000Y-114810000D01*
X213546000Y-115107000D01*
X213675000Y-115431000D01*
X213688000Y-115464000D01*
X213945000Y-116146000D01*
X214190000Y-116860000D01*
X214399000Y-117541000D01*
X214510000Y-117949000D01*
X214739000Y-119033000D01*
X214861000Y-120072000D01*
X214884000Y-120594000D01*
X214870000Y-121363000D01*
X214786000Y-122041000D01*
X214625000Y-122684000D01*
X214588000Y-122799000D01*
X214417000Y-123216000D01*
X214194000Y-123623000D01*
X213959000Y-123952000D01*
X213927000Y-123989000D01*
X213516000Y-124319000D01*
X212997000Y-124535000D01*
X212377000Y-124635000D01*
X212142000Y-124642000D01*
X211384000Y-124586000D01*
X210613000Y-124411000D01*
X209800000Y-124110000D01*
X209369000Y-123910000D01*
X208155000Y-123226000D01*
X206995000Y-122391000D01*
X206292000Y-121788000D01*
X205972000Y-121488000D01*
X205605000Y-121135000D01*
X205220000Y-120756000D01*
X204845000Y-120379000D01*
X204509000Y-120033000D01*
X204239000Y-119746000D01*
X204088000Y-119576000D01*
X203969000Y-119440000D01*
X203908000Y-119378000D01*
X203907000Y-119378000D01*
X203839000Y-119440000D01*
X203689000Y-119597000D01*
X203480000Y-119823000D01*
X203235000Y-120091000D01*
X202978000Y-120376000D01*
X202733000Y-120653000D01*
X202523000Y-120895000D01*
X202481000Y-120945000D01*
X201425000Y-122270000D01*
X200422000Y-123682000D01*
X199516000Y-125118000D01*
X199343000Y-125414000D01*
X199045000Y-125949000D01*
X198734000Y-126532000D01*
X198439000Y-127110000D01*
X198185000Y-127631000D01*
X198071000Y-127879000D01*
X197964000Y-128119000D01*
X197278000Y-128125000D01*
X196969000Y-128125000D01*
X196733000Y-128122000D01*
X196605000Y-128116000D01*
X196592000Y-128113000D01*
X196622000Y-128036000D01*
X196696000Y-127860000D01*
X196750000Y-127737000D01*
X197702000Y-125767000D01*
X198798000Y-123862000D01*
X200028000Y-122031000D01*
X201385000Y-120285000D01*
X202861000Y-118635000D01*
X202979000Y-118520000D01*
X204764000Y-118520000D01*
X204939000Y-118720000D01*
X205659000Y-119488000D01*
X206411000Y-120185000D01*
X207172000Y-120793000D01*
X207918000Y-121292000D01*
X208624000Y-121663000D01*
X208637000Y-121669000D01*
X209188000Y-121881000D01*
X209714000Y-122030000D01*
X209960000Y-122076000D01*
X210111000Y-122097000D01*
X210160000Y-122104000D01*
X210324000Y-122114000D01*
X210561000Y-122112000D01*
X210783000Y-122102000D01*
X210842000Y-122097000D01*
X211384000Y-121986000D01*
X211830000Y-121803000D01*
X212068000Y-121638000D01*
X212334000Y-121349000D01*
X212588000Y-120981000D01*
X212706000Y-120764000D01*
X212953000Y-120093000D01*
X213076000Y-119332000D01*
X213079000Y-118477000D01*
X212974000Y-117608000D01*
X212778000Y-116726000D01*
X212484000Y-115790000D01*
X212114000Y-114855000D01*
X211698000Y-113996000D01*
X211517000Y-113660000D01*
X211365000Y-113743000D01*
X209860000Y-114612000D01*
X208470000Y-115513000D01*
X207151000Y-116478000D01*
X206733000Y-116807000D01*
X206311000Y-117150000D01*
X205923000Y-117478000D01*
X205523000Y-117829000D01*
X205068000Y-118241000D01*
X204902000Y-118393000D01*
X204764000Y-118520000D01*
X202979000Y-118520000D01*
X204448000Y-117090000D01*
X206137000Y-115660000D01*
X206172000Y-115633000D01*
X207974000Y-114316000D01*
X209845000Y-113137000D01*
X211775000Y-112104000D01*
X213106000Y-111491000D01*
X215168000Y-110683000D01*
X217257000Y-110030000D01*
X219390000Y-109525000D01*
X221586000Y-109164000D01*
X221604000Y-109161000D01*
X221902000Y-109124000D01*
X222209000Y-109090000D01*
X222482000Y-109061000D01*
X222680000Y-109043000D01*
X222762000Y-109040000D01*
X222743000Y-109114000D01*
G37*
G36*
X252996000Y-145759000D02*
G01*
X253077000Y-145811000D01*
X253088000Y-145874000D01*
X253049000Y-145972000D01*
X252927000Y-146045000D01*
X252719000Y-146084000D01*
X252603000Y-146032000D01*
X252547000Y-145979000D01*
X252547000Y-146027000D01*
X252488000Y-146158000D01*
X252367000Y-146256000D01*
X252322000Y-146266000D01*
X252286000Y-146293000D01*
X252225000Y-146375000D01*
X252092000Y-146468000D01*
X251981000Y-146515000D01*
X251926000Y-146556000D01*
X251870000Y-146619000D01*
X251744000Y-146722000D01*
X251613000Y-146814000D01*
X251545000Y-146848000D01*
X251497000Y-146896000D01*
X251429000Y-146990000D01*
X251307000Y-147102000D01*
X251213000Y-147161000D01*
X251164000Y-147222000D01*
X251119000Y-147312000D01*
X251021000Y-147449000D01*
X250924000Y-147559000D01*
X250893000Y-147582000D01*
X250855000Y-147641000D01*
X250803000Y-147745000D01*
X250712000Y-147890000D01*
X250638000Y-147986000D01*
X250636000Y-147987000D01*
X250596000Y-148057000D01*
X250553000Y-148166000D01*
X250481000Y-148323000D01*
X250435000Y-148411000D01*
X250393000Y-148526000D01*
X250376000Y-148593000D01*
X250329000Y-148756000D01*
X250311000Y-148804000D01*
X250281000Y-148918000D01*
X250281000Y-148928000D01*
X250272000Y-149050000D01*
X250244000Y-149211000D01*
X250218000Y-149300000D01*
X250202000Y-149398000D01*
X250192000Y-149566000D01*
X250176000Y-149777000D01*
X250156000Y-149841000D01*
X250146000Y-149911000D01*
X250154000Y-149924000D01*
X250177000Y-150028000D01*
X250182000Y-150190000D01*
X250167000Y-150307000D01*
X250164000Y-150313000D01*
X250182000Y-150403000D01*
X250222000Y-150529000D01*
X250253000Y-150705000D01*
X250258000Y-150831000D01*
X250257000Y-150834000D01*
X250273000Y-150911000D01*
X250327000Y-151046000D01*
X250357000Y-151208000D01*
X250356000Y-151248000D01*
X250374000Y-151338000D01*
X250428000Y-151465000D01*
X250415000Y-151596000D01*
X250387000Y-151678000D01*
X250440000Y-151678000D01*
X250543000Y-151723000D01*
X250646000Y-151883000D01*
X250652000Y-151893000D01*
X250712000Y-152068000D01*
X250666000Y-152157000D01*
X250662000Y-152159000D01*
X250576000Y-152172000D01*
X250483000Y-152116000D01*
X250351000Y-152004000D01*
X250167000Y-151827000D01*
X249985000Y-151640000D01*
X249903000Y-151549000D01*
X249816000Y-151426000D01*
X249801000Y-151385000D01*
X249761000Y-151327000D01*
X249689000Y-151257000D01*
X249591000Y-151122000D01*
X249518000Y-150995000D01*
X249511000Y-150976000D01*
X249458000Y-150890000D01*
X249387000Y-150784000D01*
X249312000Y-150632000D01*
X249280000Y-150529000D01*
X249241000Y-150446000D01*
X249183000Y-150348000D01*
X249113000Y-150182000D01*
X249065000Y-150034000D01*
X249060000Y-149999000D01*
X249031000Y-149908000D01*
X248982000Y-149779000D01*
X248939000Y-149593000D01*
X248925000Y-149455000D01*
X248925000Y-149453000D01*
X248902000Y-149335000D01*
X248877000Y-149220000D01*
X248862000Y-149004000D01*
X248858000Y-148747000D01*
X248867000Y-148509000D01*
X248878000Y-148401000D01*
X248928000Y-148111000D01*
X248964000Y-147949000D01*
X248990000Y-147890000D01*
X249020000Y-147832000D01*
X249056000Y-147745000D01*
X249129000Y-147615000D01*
X249190000Y-147529000D01*
X249191000Y-147529000D01*
X249220000Y-147467000D01*
X249267000Y-147382000D01*
X249375000Y-147247000D01*
X249490000Y-147122000D01*
X249562000Y-147068000D01*
X249601000Y-147036000D01*
X249652000Y-146961000D01*
X249761000Y-146847000D01*
X249864000Y-146761000D01*
X249892000Y-146748000D01*
X249970000Y-146700000D01*
X250028000Y-146650000D01*
X250192000Y-146517000D01*
X250333000Y-146436000D01*
X250368000Y-146427000D01*
X250456000Y-146384000D01*
X250489000Y-146359000D01*
X250628000Y-146268000D01*
X250790000Y-146185000D01*
X250899000Y-146150000D01*
X250903000Y-146150000D01*
X250977000Y-146124000D01*
X251090000Y-146067000D01*
X251257000Y-146008000D01*
X251365000Y-145986000D01*
X251434000Y-145967000D01*
X251515000Y-145927000D01*
X251668000Y-145879000D01*
X251809000Y-145848000D01*
X251838000Y-145846000D01*
X251941000Y-145828000D01*
X251943000Y-145827000D01*
X252047000Y-145802000D01*
X252224000Y-145777000D01*
X252396000Y-145761000D01*
X252485000Y-145764000D01*
X252557000Y-145764000D01*
X252659000Y-145752000D01*
X252798000Y-145747000D01*
X252996000Y-145759000D01*
G37*
G36*
X242972000Y-108690000D02*
G01*
X243112000Y-108768000D01*
X243227000Y-108906000D01*
X243342000Y-109143000D01*
X243404000Y-109296000D01*
X243447000Y-109424000D01*
X243451000Y-109459000D01*
X243377000Y-109490000D01*
X243298000Y-109522000D01*
X243136000Y-109593000D01*
X242956000Y-109692000D01*
X242704000Y-109851000D01*
X242677000Y-109868000D01*
X242347000Y-110099000D01*
X242120000Y-110306000D01*
X241953000Y-110532000D01*
X241876000Y-110674000D01*
X241763000Y-110952000D01*
X241715000Y-111250000D01*
X241710000Y-111345000D01*
X241707000Y-111550000D01*
X241725000Y-111690000D01*
X241743000Y-111766000D01*
X241785000Y-111908000D01*
X241802000Y-111952000D01*
X241847000Y-111967000D01*
X241983000Y-111961000D01*
X242074000Y-111952000D01*
X242331000Y-111926000D01*
X242384000Y-111776000D01*
X242633000Y-111302000D01*
X243006000Y-110897000D01*
X243474000Y-110591000D01*
X243739000Y-110483000D01*
X243876000Y-110433000D01*
X243917000Y-110413000D01*
X243931000Y-110315000D01*
X243912000Y-110133000D01*
X243868000Y-109939000D01*
X243849000Y-109883000D01*
X243854000Y-109831000D01*
X243855000Y-109831000D01*
X243942000Y-109823000D01*
X244132000Y-109803000D01*
X244220000Y-109793000D01*
X244429000Y-109772000D01*
X244552000Y-109761000D01*
X244565000Y-109760000D01*
X244579000Y-109830000D01*
X244590000Y-109903000D01*
X244609000Y-110118000D01*
X244604000Y-110288000D01*
X244586000Y-110347000D01*
X244499000Y-110387000D01*
X244410000Y-110423000D01*
X244155000Y-110533000D01*
X243920000Y-110676000D01*
X243879000Y-110704000D01*
X243481000Y-111063000D01*
X243198000Y-111492000D01*
X243047000Y-111959000D01*
X243028000Y-112199000D01*
X243049000Y-112436000D01*
X243100000Y-112663000D01*
X243115000Y-112705000D01*
X243164000Y-112770000D01*
X243202000Y-112768000D01*
X243312000Y-112755000D01*
X243513000Y-112733000D01*
X243569000Y-112728000D01*
X243791000Y-112705000D01*
X243947000Y-112687000D01*
X243965000Y-112685000D01*
X244050000Y-112673000D01*
X244602000Y-111754000D01*
X244808000Y-111408000D01*
X244984000Y-111111000D01*
X245114000Y-110888000D01*
X245180000Y-110769000D01*
X245185000Y-110760000D01*
X245203000Y-110567000D01*
X245182000Y-110461000D01*
X245188000Y-110426000D01*
X245277000Y-110410000D01*
X245326000Y-110405000D01*
X245512000Y-110388000D01*
X245586000Y-110380000D01*
X245690000Y-110368000D01*
X245729000Y-110446000D01*
X245785000Y-110719000D01*
X245781000Y-110755000D01*
X245749000Y-110833000D01*
X245660000Y-110999000D01*
X245507000Y-111266000D01*
X245282000Y-111646000D01*
X245086000Y-111974000D01*
X244854000Y-112363000D01*
X244648000Y-112711000D01*
X244484000Y-112991000D01*
X244377000Y-113176000D01*
X244345000Y-113235000D01*
X244295000Y-113407000D01*
X244321000Y-113572000D01*
X244323000Y-113600000D01*
X244282000Y-113617000D01*
X244155000Y-113633000D01*
X243956000Y-113652000D01*
X243812000Y-113665000D01*
X243781000Y-113558000D01*
X243756000Y-113265000D01*
X243862000Y-112992000D01*
X243930000Y-112875000D01*
X243875000Y-112886000D01*
X243729000Y-112911000D01*
X243489000Y-112946000D01*
X243204000Y-112985000D01*
X242926000Y-113021000D01*
X242706000Y-113048000D01*
X242595000Y-113058000D01*
X242539000Y-113043000D01*
X242486000Y-112958000D01*
X242460000Y-112903000D01*
X242326000Y-112488000D01*
X242306000Y-112272000D01*
X242306000Y-112113000D01*
X242231000Y-112125000D01*
X242072000Y-112146000D01*
X241825000Y-112176000D01*
X241564000Y-112205000D01*
X241358000Y-112226000D01*
X241329000Y-112228000D01*
X241164000Y-112242000D01*
X241106000Y-112114000D01*
X241000000Y-111792000D01*
X240975000Y-111475000D01*
X241003000Y-111161000D01*
X241101000Y-110858000D01*
X241163000Y-110724000D01*
X241434000Y-110301000D01*
X241567000Y-110164000D01*
X241669000Y-110078000D01*
X241783000Y-110002000D01*
X241953000Y-109908000D01*
X242224000Y-109772000D01*
X242226000Y-109771000D01*
X242497000Y-109632000D01*
X242658000Y-109535000D01*
X242746000Y-109455000D01*
X242788000Y-109389000D01*
X242823000Y-109203000D01*
X242727000Y-109081000D01*
X242558000Y-109058000D01*
X242430000Y-109142000D01*
X242414000Y-109176000D01*
X242395000Y-109200000D01*
X242385000Y-109168000D01*
X242394000Y-108998000D01*
X242462000Y-108832000D01*
X242639000Y-108679000D01*
X242883000Y-108663000D01*
X242972000Y-108690000D01*
G37*
G36*
X198538000Y-145346000D02*
G01*
X198705000Y-145371000D01*
X198777000Y-145389000D01*
X198862000Y-145407000D01*
X198956000Y-145424000D01*
X199124000Y-145468000D01*
X199287000Y-145518000D01*
X199358000Y-145545000D01*
X199398000Y-145581000D01*
X199460000Y-145598000D01*
X199473000Y-145599000D01*
X199606000Y-145636000D01*
X199800000Y-145720000D01*
X199879000Y-145762000D01*
X199966000Y-145806000D01*
X200087000Y-145867000D01*
X200235000Y-145952000D01*
X200295000Y-146001000D01*
X200370000Y-146046000D01*
X200464000Y-146089000D01*
X200611000Y-146184000D01*
X200741000Y-146285000D01*
X200771000Y-146315000D01*
X200873000Y-146397000D01*
X200882000Y-146403000D01*
X200992000Y-146491000D01*
X201115000Y-146616000D01*
X201195000Y-146717000D01*
X201202000Y-146736000D01*
X201230000Y-146768000D01*
X201303000Y-146822000D01*
X201411000Y-146940000D01*
X201494000Y-147057000D01*
X201499000Y-147068000D01*
X201573000Y-147175000D01*
X201576000Y-147178000D01*
X201651000Y-147279000D01*
X201740000Y-147431000D01*
X201798000Y-147555000D01*
X201803000Y-147578000D01*
X201841000Y-147658000D01*
X201908000Y-147779000D01*
X201973000Y-147952000D01*
X201995000Y-148047000D01*
X202022000Y-148374000D01*
X202032000Y-148593000D01*
X202027000Y-148754000D01*
X202022000Y-148802000D01*
X201993000Y-148964000D01*
X201971000Y-149028000D01*
X201953000Y-149111000D01*
X201946000Y-149224000D01*
X201907000Y-149382000D01*
X201865000Y-149477000D01*
X201819000Y-149589000D01*
X201806000Y-149643000D01*
X201755000Y-149812000D01*
X201684000Y-149965000D01*
X201634000Y-150027000D01*
X201603000Y-150075000D01*
X201565000Y-150198000D01*
X201480000Y-150365000D01*
X201387000Y-150504000D01*
X201340000Y-150546000D01*
X201302000Y-150600000D01*
X201261000Y-150684000D01*
X201173000Y-150813000D01*
X201089000Y-150916000D01*
X201062000Y-150936000D01*
X201014000Y-150993000D01*
X201004000Y-151011000D01*
X200912000Y-151141000D01*
X200790000Y-151275000D01*
X200708000Y-151338000D01*
X200661000Y-151386000D01*
X200607000Y-151449000D01*
X200485000Y-151562000D01*
X200351000Y-151674000D01*
X200263000Y-151736000D01*
X200257000Y-151738000D01*
X200188000Y-151782000D01*
X200143000Y-151820000D01*
X199994000Y-151929000D01*
X199838000Y-152016000D01*
X199765000Y-152038000D01*
X199692000Y-152002000D01*
X199667000Y-151863000D01*
X199716000Y-151755000D01*
X199868000Y-151601000D01*
X199981000Y-151581000D01*
X200050000Y-151575000D01*
X200047000Y-151558000D01*
X200030000Y-151375000D01*
X200050000Y-151309000D01*
X200097000Y-151238000D01*
X200102000Y-151237000D01*
X200119000Y-151175000D01*
X200120000Y-151159000D01*
X200182000Y-150941000D01*
X200232000Y-150862000D01*
X200279000Y-150759000D01*
X200280000Y-150751000D01*
X200304000Y-150642000D01*
X200357000Y-150477000D01*
X200409000Y-150345000D01*
X200422000Y-150322000D01*
X200445000Y-150229000D01*
X200450000Y-150165000D01*
X200505000Y-149933000D01*
X200506000Y-149932000D01*
X200545000Y-149817000D01*
X200538000Y-149786000D01*
X200530000Y-149655000D01*
X200539000Y-149543000D01*
X200557000Y-149224000D01*
X200554000Y-148896000D01*
X200530000Y-148643000D01*
X200530000Y-148641000D01*
X200507000Y-148474000D01*
X200504000Y-148408000D01*
X200489000Y-148311000D01*
X200486000Y-148307000D01*
X200441000Y-148207000D01*
X200395000Y-148057000D01*
X200380000Y-147975000D01*
X200340000Y-147873000D01*
X200333000Y-147864000D01*
X200258000Y-147728000D01*
X200195000Y-147569000D01*
X200180000Y-147501000D01*
X200139000Y-147418000D01*
X200067000Y-147319000D01*
X199985000Y-147172000D01*
X199940000Y-147061000D01*
X199939000Y-147055000D01*
X199887000Y-146977000D01*
X199879000Y-146971000D01*
X199773000Y-146856000D01*
X199692000Y-146716000D01*
X199679000Y-146665000D01*
X199637000Y-146604000D01*
X199621000Y-146601000D01*
X199520000Y-146531000D01*
X199431000Y-146433000D01*
X199314000Y-146297000D01*
X199243000Y-146224000D01*
X199158000Y-146156000D01*
X199142000Y-146144000D01*
X199030000Y-146037000D01*
X199005000Y-146000000D01*
X198890000Y-145896000D01*
X198799000Y-145821000D01*
X198765000Y-145751000D01*
X198723000Y-145665000D01*
X198685000Y-145675000D01*
X198566000Y-145698000D01*
X198458000Y-145656000D01*
X198281000Y-145538000D01*
X198240000Y-145437000D01*
X198282000Y-145357000D01*
X198414000Y-145337000D01*
X198538000Y-145346000D01*
G37*
G36*
X212200000Y-115964000D02*
G01*
X212276000Y-116184000D01*
X212304000Y-116335000D01*
X212336000Y-116526000D01*
X212344000Y-116571000D01*
X212364000Y-116773000D01*
X212369000Y-117042000D01*
X212368000Y-117328000D01*
X212366000Y-117504000D01*
X212360000Y-117619000D01*
X212350000Y-117724000D01*
X212341000Y-117802000D01*
X212313000Y-117952000D01*
X212295000Y-118001000D01*
X212279000Y-118109000D01*
X212266000Y-118247000D01*
X212220000Y-118439000D01*
X212167000Y-118580000D01*
X212141000Y-118663000D01*
X212141000Y-118664000D01*
X212118000Y-118755000D01*
X212058000Y-118912000D01*
X211993000Y-119054000D01*
X211964000Y-119101000D01*
X211913000Y-119201000D01*
X211850000Y-119349000D01*
X211753000Y-119507000D01*
X211715000Y-119550000D01*
X211664000Y-119625000D01*
X211663000Y-119628000D01*
X211619000Y-119706000D01*
X211518000Y-119837000D01*
X211411000Y-119960000D01*
X211349000Y-120013000D01*
X211323000Y-120034000D01*
X211271000Y-120110000D01*
X211155000Y-120226000D01*
X211038000Y-120324000D01*
X211010000Y-120341000D01*
X210868000Y-120415000D01*
X210805000Y-120449000D01*
X210681000Y-120508000D01*
X210647000Y-120520000D01*
X210561000Y-120559000D01*
X210447000Y-120603000D01*
X210269000Y-120650000D01*
X210111000Y-120679000D01*
X210061000Y-120680000D01*
X209993000Y-120692000D01*
X209890000Y-120723000D01*
X209727000Y-120744000D01*
X209602000Y-120743000D01*
X209592000Y-120740000D01*
X209493000Y-120736000D01*
X209308000Y-120761000D01*
X209127000Y-120755000D01*
X209108000Y-120751000D01*
X208976000Y-120731000D01*
X208968000Y-120730000D01*
X208771000Y-120715000D01*
X208572000Y-120684000D01*
X208466000Y-120654000D01*
X208365000Y-120627000D01*
X208359000Y-120628000D01*
X208254000Y-120616000D01*
X208097000Y-120573000D01*
X207982000Y-120527000D01*
X207974000Y-120522000D01*
X207879000Y-120494000D01*
X207756000Y-120465000D01*
X207588000Y-120402000D01*
X207475000Y-120343000D01*
X207473000Y-120342000D01*
X207406000Y-120313000D01*
X207313000Y-120278000D01*
X207155000Y-120197000D01*
X207003000Y-120110000D01*
X206929000Y-120056000D01*
X206842000Y-119995000D01*
X206823000Y-119986000D01*
X206708000Y-119918000D01*
X206573000Y-119822000D01*
X206482000Y-119746000D01*
X206473000Y-119732000D01*
X206461000Y-119685000D01*
X206498000Y-119605000D01*
X206500000Y-119603000D01*
X206647000Y-119553000D01*
X206826000Y-119593000D01*
X206961000Y-119700000D01*
X206984000Y-119753000D01*
X206996000Y-119810000D01*
X207067000Y-119761000D01*
X207116000Y-119733000D01*
X207187000Y-119718000D01*
X207323000Y-119711000D01*
X207571000Y-119708000D01*
X207606000Y-119708000D01*
X207740000Y-119719000D01*
X207768000Y-119729000D01*
X207833000Y-119727000D01*
X207925000Y-119705000D01*
X208093000Y-119694000D01*
X208255000Y-119697000D01*
X208324000Y-119710000D01*
X208375000Y-119705000D01*
X208472000Y-119665000D01*
X208633000Y-119638000D01*
X208738000Y-119638000D01*
X208839000Y-119620000D01*
X208924000Y-119579000D01*
X209080000Y-119525000D01*
X209228000Y-119484000D01*
X209285000Y-119478000D01*
X209340000Y-119460000D01*
X209442000Y-119404000D01*
X209597000Y-119342000D01*
X209708000Y-119311000D01*
X209710000Y-119311000D01*
X209779000Y-119281000D01*
X209865000Y-119220000D01*
X210005000Y-119142000D01*
X210114000Y-119093000D01*
X210126000Y-119091000D01*
X210194000Y-119045000D01*
X210287000Y-118955000D01*
X210410000Y-118858000D01*
X210491000Y-118810000D01*
X210492000Y-118810000D01*
X210548000Y-118755000D01*
X210625000Y-118659000D01*
X210746000Y-118540000D01*
X210848000Y-118458000D01*
X210870000Y-118450000D01*
X210902000Y-118413000D01*
X210948000Y-118333000D01*
X211049000Y-118203000D01*
X211152000Y-118089000D01*
X211194000Y-118055000D01*
X211222000Y-118010000D01*
X211265000Y-117913000D01*
X211355000Y-117778000D01*
X211430000Y-117694000D01*
X211483000Y-117600000D01*
X211517000Y-117490000D01*
X211592000Y-117332000D01*
X211662000Y-117218000D01*
X211672000Y-117209000D01*
X211703000Y-117138000D01*
X211735000Y-117002000D01*
X211799000Y-116853000D01*
X211826000Y-116814000D01*
X211874000Y-116689000D01*
X211954000Y-116512000D01*
X212008000Y-116474000D01*
X212066000Y-116444000D01*
X212002000Y-116384000D01*
X211951000Y-116323000D01*
X211948000Y-116229000D01*
X211953000Y-116184000D01*
X211995000Y-115971000D01*
X212075000Y-115888000D01*
X212108000Y-115885000D01*
X212200000Y-115964000D01*
G37*
G36*
X243142000Y-119545000D02*
G01*
X243305000Y-119767000D01*
X243483000Y-120057000D01*
X243590000Y-120260000D01*
X243787000Y-120746000D01*
X243959000Y-121325000D01*
X243960000Y-121328000D01*
X244011000Y-121539000D01*
X244026000Y-121631000D01*
X244004000Y-121640000D01*
X243974000Y-121620000D01*
X243684000Y-121478000D01*
X243319000Y-121421000D01*
X242926000Y-121435000D01*
X242242000Y-121543000D01*
X241678000Y-121737000D01*
X241215000Y-122024000D01*
X241006000Y-122214000D01*
X240485000Y-122842000D01*
X240123000Y-123491000D01*
X240020000Y-123763000D01*
X239950000Y-124000000D01*
X239902000Y-124244000D01*
X239861000Y-124563000D01*
X239851000Y-124656000D01*
X239831000Y-124912000D01*
X239842000Y-125066000D01*
X239891000Y-125174000D01*
X239916000Y-125209000D01*
X239998000Y-125278000D01*
X240051000Y-125283000D01*
X240258000Y-125222000D01*
X240429000Y-125110000D01*
X240594000Y-124989000D01*
X240837000Y-124817000D01*
X241103000Y-124632000D01*
X241314000Y-124488000D01*
X241779000Y-124230000D01*
X242245000Y-124093000D01*
X242696000Y-124058000D01*
X243027000Y-124073000D01*
X243298000Y-124136000D01*
X243420000Y-124181000D01*
X243808000Y-124406000D01*
X244207000Y-124770000D01*
X244295000Y-124869000D01*
X244396000Y-124985000D01*
X244364000Y-125239000D01*
X244349000Y-125349000D01*
X244333000Y-125449000D01*
X244309000Y-125564000D01*
X244269000Y-125722000D01*
X244208000Y-125949000D01*
X244119000Y-126271000D01*
X243994000Y-126715000D01*
X243957000Y-126847000D01*
X243773000Y-127494000D01*
X243616000Y-128024000D01*
X243474000Y-128474000D01*
X243334000Y-128882000D01*
X243184000Y-129285000D01*
X243011000Y-129722000D01*
X242966000Y-129833000D01*
X242855000Y-130106000D01*
X242761000Y-130342000D01*
X242717000Y-130454000D01*
X242622000Y-130687000D01*
X242513000Y-130900000D01*
X242377000Y-131113000D01*
X242196000Y-131345000D01*
X241955000Y-131616000D01*
X241638000Y-131945000D01*
X241230000Y-132351000D01*
X240907000Y-132666000D01*
X240508000Y-133052000D01*
X240208000Y-133332000D01*
X239999000Y-133519000D01*
X239888000Y-133607000D01*
X239678000Y-133762000D01*
X239470000Y-133921000D01*
X238476000Y-134674000D01*
X237527000Y-135344000D01*
X236643000Y-135914000D01*
X236093000Y-136237000D01*
X235923000Y-136329000D01*
X235662000Y-136466000D01*
X235340000Y-136633000D01*
X234984000Y-136817000D01*
X234623000Y-137002000D01*
X234285000Y-137174000D01*
X233998000Y-137318000D01*
X233792000Y-137420000D01*
X233695000Y-137465000D01*
X233691000Y-137466000D01*
X233628000Y-137454000D01*
X233317000Y-137390000D01*
X233110000Y-137317000D01*
X232962000Y-137224000D01*
X232893000Y-137143000D01*
X232887000Y-137081000D01*
X232949000Y-136657000D01*
X233128000Y-136139000D01*
X233389000Y-135598000D01*
X233683000Y-135054000D01*
X233919000Y-134621000D01*
X234117000Y-134270000D01*
X234294000Y-133971000D01*
X234467000Y-133694000D01*
X234654000Y-133408000D01*
X234844000Y-133127000D01*
X235058000Y-132810000D01*
X235267000Y-132498000D01*
X235433000Y-132247000D01*
X235460000Y-132205000D01*
X235679000Y-131868000D01*
X235705000Y-131928000D01*
X235745000Y-132028000D01*
X235823000Y-132235000D01*
X235922000Y-132503000D01*
X235924000Y-132508000D01*
X236066000Y-132883000D01*
X236173000Y-133140000D01*
X236261000Y-133312000D01*
X236346000Y-133434000D01*
X236385000Y-133478000D01*
X236606000Y-133636000D01*
X236863000Y-133647000D01*
X236935000Y-133629000D01*
X237121000Y-133515000D01*
X237334000Y-133296000D01*
X237540000Y-133015000D01*
X237667000Y-132785000D01*
X237838000Y-132349000D01*
X237992000Y-131807000D01*
X238115000Y-131215000D01*
X238149000Y-130995000D01*
X238171000Y-130739000D01*
X238187000Y-130371000D01*
X238194000Y-129938000D01*
X238193000Y-129489000D01*
X238182000Y-129071000D01*
X238179000Y-129002000D01*
X238170000Y-128453000D01*
X238201000Y-127906000D01*
X238275000Y-127343000D01*
X238397000Y-126744000D01*
X238573000Y-126091000D01*
X238807000Y-125365000D01*
X239104000Y-124547000D01*
X239469000Y-123618000D01*
X239731000Y-122979000D01*
X239911000Y-122553000D01*
X240056000Y-122237000D01*
X240184000Y-121990000D01*
X240316000Y-121771000D01*
X240363000Y-121701000D01*
X240649000Y-121306000D01*
X240988000Y-120913000D01*
X241214000Y-120677000D01*
X241698000Y-120213000D01*
X242146000Y-119850000D01*
X242178000Y-119827000D01*
X242469000Y-119643000D01*
X242740000Y-119537000D01*
X242906000Y-119500000D01*
X243074000Y-119468000D01*
X243142000Y-119545000D01*
G37*
G36*
X226557000Y-164948000D02*
G01*
X226737000Y-164968000D01*
X226825000Y-164985000D01*
X226934000Y-165005000D01*
X227060000Y-165032000D01*
X227235000Y-165092000D01*
X227369000Y-165153000D01*
X227385000Y-165165000D01*
X227493000Y-165213000D01*
X227631000Y-165263000D01*
X227780000Y-165342000D01*
X227836000Y-165386000D01*
X227928000Y-165448000D01*
X227977000Y-165472000D01*
X228125000Y-165556000D01*
X228253000Y-165657000D01*
X228297000Y-165717000D01*
X228323000Y-165747000D01*
X228419000Y-165796000D01*
X228560000Y-165908000D01*
X228686000Y-166031000D01*
X228738000Y-166112000D01*
X228770000Y-166147000D01*
X228846000Y-166201000D01*
X228959000Y-166318000D01*
X229047000Y-166436000D01*
X229053000Y-166447000D01*
X229144000Y-166564000D01*
X229158000Y-166577000D01*
X229255000Y-166690000D01*
X229347000Y-166829000D01*
X229380000Y-166907000D01*
X229417000Y-166963000D01*
X229483000Y-167049000D01*
X229575000Y-167211000D01*
X229654000Y-167376000D01*
X229679000Y-167444000D01*
X229714000Y-167534000D01*
X229720000Y-167540000D01*
X229764000Y-167621000D01*
X229820000Y-167772000D01*
X229857000Y-167908000D01*
X229861000Y-167936000D01*
X229814000Y-168040000D01*
X229754000Y-168051000D01*
X229601000Y-167991000D01*
X229485000Y-167851000D01*
X229449000Y-167696000D01*
X229469000Y-167639000D01*
X229503000Y-167586000D01*
X229442000Y-167600000D01*
X229262000Y-167567000D01*
X229189000Y-167510000D01*
X229111000Y-167451000D01*
X229104000Y-167450000D01*
X228989000Y-167403000D01*
X228845000Y-167298000D01*
X228836000Y-167290000D01*
X228748000Y-167217000D01*
X228731000Y-167210000D01*
X228643000Y-167170000D01*
X228500000Y-167083000D01*
X228372000Y-166992000D01*
X228327000Y-166949000D01*
X228269000Y-166920000D01*
X228265000Y-166921000D01*
X228151000Y-166898000D01*
X228002000Y-166825000D01*
X227922000Y-166761000D01*
X227850000Y-166728000D01*
X227838000Y-166732000D01*
X227744000Y-166729000D01*
X227603000Y-166687000D01*
X227456000Y-166633000D01*
X227405000Y-166607000D01*
X227330000Y-166588000D01*
X227319000Y-166588000D01*
X227196000Y-166574000D01*
X227035000Y-166544000D01*
X226932000Y-166516000D01*
X226930000Y-166515000D01*
X226846000Y-166504000D01*
X226714000Y-166496000D01*
X226544000Y-166483000D01*
X226470000Y-166470000D01*
X226373000Y-166473000D01*
X226261000Y-166491000D01*
X226143000Y-166498000D01*
X225977000Y-166511000D01*
X225909000Y-166525000D01*
X225763000Y-166563000D01*
X225594000Y-166589000D01*
X225544000Y-166591000D01*
X225442000Y-166616000D01*
X225312000Y-166669000D01*
X225136000Y-166716000D01*
X225048000Y-166729000D01*
X224957000Y-166766000D01*
X224866000Y-166825000D01*
X224716000Y-166884000D01*
X224605000Y-166905000D01*
X224528000Y-166949000D01*
X224446000Y-167016000D01*
X224303000Y-167108000D01*
X224173000Y-167177000D01*
X224135000Y-167189000D01*
X224069000Y-167236000D01*
X224031000Y-167270000D01*
X223897000Y-167372000D01*
X223779000Y-167429000D01*
X223768000Y-167430000D01*
X223705000Y-167479000D01*
X223686000Y-167499000D01*
X223535000Y-167596000D01*
X223437000Y-167602000D01*
X223398000Y-167610000D01*
X223410000Y-167651000D01*
X223413000Y-167771000D01*
X223311000Y-167914000D01*
X223293000Y-167934000D01*
X223152000Y-168045000D01*
X223053000Y-168036000D01*
X223015000Y-167942000D01*
X223061000Y-167743000D01*
X223068000Y-167725000D01*
X223127000Y-167572000D01*
X223157000Y-167510000D01*
X223194000Y-167429000D01*
X223245000Y-167304000D01*
X223336000Y-167136000D01*
X223424000Y-166996000D01*
X223459000Y-166956000D01*
X223508000Y-166879000D01*
X223547000Y-166793000D01*
X223634000Y-166661000D01*
X223718000Y-166553000D01*
X223749000Y-166528000D01*
X223796000Y-166472000D01*
X223803000Y-166459000D01*
X223878000Y-166356000D01*
X223991000Y-166233000D01*
X224082000Y-166154000D01*
X224097000Y-166147000D01*
X224141000Y-166091000D01*
X224209000Y-166006000D01*
X224335000Y-165884000D01*
X224459000Y-165780000D01*
X224517000Y-165747000D01*
X224578000Y-165696000D01*
X224667000Y-165615000D01*
X224813000Y-165512000D01*
X224944000Y-165438000D01*
X224981000Y-165426000D01*
X225045000Y-165388000D01*
X225136000Y-165319000D01*
X225288000Y-165243000D01*
X225409000Y-165205000D01*
X225412000Y-165205000D01*
X225478000Y-165176000D01*
X225554000Y-165134000D01*
X225709000Y-165079000D01*
X225868000Y-165035000D01*
X225938000Y-165025000D01*
X226049000Y-164998000D01*
X226189000Y-164959000D01*
X226368000Y-164939000D01*
X226383000Y-164939000D01*
X226557000Y-164948000D01*
G37*
G36*
X227160000Y-160364000D02*
G01*
X227708000Y-160622000D01*
X228256000Y-161008000D01*
X228790000Y-161513000D01*
X229295000Y-162128000D01*
X229490000Y-162410000D01*
X230037000Y-163334000D01*
X230504000Y-164333000D01*
X230901000Y-165432000D01*
X231238000Y-166657000D01*
X231274000Y-166811000D01*
X231528000Y-167983000D01*
X231715000Y-169016000D01*
X231825000Y-169835000D01*
X231851000Y-170061000D01*
X231870000Y-170206000D01*
X231875000Y-170232000D01*
X231962000Y-170222000D01*
X232201000Y-170172000D01*
X232590000Y-170082000D01*
X232746000Y-170045000D01*
X234662000Y-169518000D01*
X236557000Y-168861000D01*
X238396000Y-168086000D01*
X240144000Y-167208000D01*
X240550000Y-166982000D01*
X240748000Y-166870000D01*
X240874000Y-166800000D01*
X240897000Y-166789000D01*
X240963000Y-166831000D01*
X241121000Y-166942000D01*
X241335000Y-167095000D01*
X241566000Y-167262000D01*
X241780000Y-167418000D01*
X241938000Y-167536000D01*
X242005000Y-167589000D01*
X242005000Y-167590000D01*
X241939000Y-167643000D01*
X241755000Y-167757000D01*
X241482000Y-167915000D01*
X241144000Y-168104000D01*
X240767000Y-168309000D01*
X240377000Y-168517000D01*
X240000000Y-168712000D01*
X239891000Y-168767000D01*
X238126000Y-169592000D01*
X236366000Y-170287000D01*
X234565000Y-170869000D01*
X232675000Y-171355000D01*
X232536000Y-171386000D01*
X230471000Y-171770000D01*
X228351000Y-172014000D01*
X226167000Y-172118000D01*
X224938000Y-172116000D01*
X223295000Y-172039000D01*
X221630000Y-171872000D01*
X220218000Y-171659000D01*
X218300000Y-171264000D01*
X216464000Y-170769000D01*
X216231000Y-170690000D01*
X215976725Y-170604000D01*
X222285000Y-170604000D01*
X222285000Y-170690000D01*
X222731000Y-170734000D01*
X223618000Y-170808000D01*
X224470000Y-170856000D01*
X224490000Y-170857000D01*
X224841000Y-170865000D01*
X225298000Y-170868000D01*
X225813000Y-170866000D01*
X226339000Y-170860000D01*
X226827000Y-170850000D01*
X227229000Y-170837000D01*
X227406000Y-170828000D01*
X228151000Y-170774000D01*
X228831000Y-170712000D01*
X229079000Y-170685000D01*
X229376000Y-170650000D01*
X229732000Y-170604000D01*
X230091000Y-170555000D01*
X230397000Y-170510000D01*
X230582000Y-170481000D01*
X230672000Y-170464000D01*
X230667000Y-170355000D01*
X230648000Y-170140000D01*
X230612000Y-169831000D01*
X230566000Y-169491000D01*
X230521000Y-169194000D01*
X230286000Y-168029000D01*
X229980000Y-166970000D01*
X229610000Y-166025000D01*
X229179000Y-165204000D01*
X228692000Y-164518000D01*
X228168000Y-163987000D01*
X227683000Y-163647000D01*
X227169000Y-163404000D01*
X226670000Y-163278000D01*
X226544000Y-163267000D01*
X226079000Y-163312000D01*
X225573000Y-163481000D01*
X225067000Y-163760000D01*
X225000000Y-163806000D01*
X224800000Y-163970000D01*
X224551000Y-164202000D01*
X224308000Y-164450000D01*
X224126000Y-164660000D01*
X224115000Y-164674000D01*
X223589000Y-165496000D01*
X223144000Y-166451000D01*
X222780000Y-167535000D01*
X222501000Y-168739000D01*
X222448000Y-169043000D01*
X222401000Y-169361000D01*
X222356000Y-169736000D01*
X222317000Y-170111000D01*
X222292000Y-170429000D01*
X222285000Y-170604000D01*
X215976725Y-170604000D01*
X214661000Y-170159000D01*
X212841000Y-169420000D01*
X212746000Y-169378000D01*
X212412000Y-169225000D01*
X211986000Y-169019000D01*
X211515000Y-168785000D01*
X211047000Y-168546000D01*
X210630000Y-168328000D01*
X210341000Y-168170000D01*
X209948000Y-167947000D01*
X209635000Y-167766000D01*
X209420000Y-167636000D01*
X209323000Y-167571000D01*
X209319000Y-167566000D01*
X209379000Y-167514000D01*
X209534000Y-167398000D01*
X209748000Y-167244000D01*
X209983000Y-167079000D01*
X210203000Y-166928000D01*
X210369000Y-166818000D01*
X210445000Y-166774000D01*
X210446000Y-166774000D01*
X210523000Y-166815000D01*
X210702000Y-166914000D01*
X210946000Y-167049000D01*
X210962000Y-167058000D01*
X211343000Y-167265000D01*
X211809000Y-167507000D01*
X212307000Y-167759000D01*
X212782000Y-167992000D01*
X213180000Y-168180000D01*
X213241000Y-168207000D01*
X215289000Y-169041000D01*
X217376000Y-169720000D01*
X219498000Y-170243000D01*
X220221000Y-170384000D01*
X220594000Y-170451000D01*
X220837000Y-170492000D01*
X220973000Y-170511000D01*
X221031000Y-170511000D01*
X221037000Y-170509000D01*
X221050000Y-170429000D01*
X221072000Y-170229000D01*
X221100000Y-169950000D01*
X221105000Y-169893000D01*
X221169000Y-169273000D01*
X221240000Y-168769000D01*
X221324000Y-168338000D01*
X221365000Y-168166000D01*
X221402000Y-168006000D01*
X221456000Y-167750000D01*
X221505000Y-167515000D01*
X221568000Y-167207000D01*
X221624000Y-166958000D01*
X221685000Y-166714000D01*
X221764000Y-166422000D01*
X221874000Y-166029000D01*
X221874000Y-166027000D01*
X222087000Y-165316000D01*
X222296000Y-164708000D01*
X222522000Y-164149000D01*
X222786000Y-163584000D01*
X222847000Y-163462000D01*
X223380000Y-162524000D01*
X223954000Y-161739000D01*
X224571000Y-161109000D01*
X225228000Y-160632000D01*
X225482000Y-160496000D01*
X225766000Y-160367000D01*
X226013000Y-160290000D01*
X226117000Y-160267000D01*
X226624000Y-160242000D01*
X227160000Y-160364000D01*
G37*
G36*
X226700000Y-100595000D02*
G01*
X228451000Y-100676000D01*
X228558000Y-100684000D01*
X231063000Y-100946000D01*
X233542000Y-101364000D01*
X235983000Y-101936000D01*
X238379000Y-102659000D01*
X239651000Y-103113000D01*
X241792000Y-103986000D01*
X243845000Y-104964000D01*
X245858000Y-106073000D01*
X246164000Y-106254000D01*
X248244000Y-107593000D01*
X250245000Y-109066000D01*
X252157000Y-110665000D01*
X253969000Y-112379000D01*
X255670000Y-114199000D01*
X257249000Y-116114000D01*
X258229000Y-117438000D01*
X259341000Y-119093000D01*
X260354000Y-120775000D01*
X261290000Y-122528000D01*
X262173000Y-124394000D01*
X262222000Y-124502000D01*
X263115000Y-126704000D01*
X263878000Y-128985000D01*
X264504000Y-131324000D01*
X264988000Y-133703000D01*
X265325000Y-136100000D01*
X265362000Y-136457000D01*
X265539000Y-139016000D01*
X265556000Y-141557000D01*
X265415000Y-144075000D01*
X265116000Y-146570000D01*
X264659000Y-149039000D01*
X264044000Y-151480000D01*
X263272000Y-153892000D01*
X262675000Y-155471000D01*
X261665000Y-157770000D01*
X260515000Y-159993000D01*
X259228000Y-162136000D01*
X257808000Y-164195000D01*
X256259000Y-166163000D01*
X254584000Y-168037000D01*
X252787000Y-169812000D01*
X250872000Y-171482000D01*
X250021000Y-172161000D01*
X248751000Y-173101000D01*
X247389000Y-174026000D01*
X246002000Y-174890000D01*
X245452000Y-175211000D01*
X243207000Y-176402000D01*
X240908000Y-177443000D01*
X238557000Y-178333000D01*
X236158000Y-179071000D01*
X233715000Y-179654000D01*
X233217000Y-179753000D01*
X230733000Y-180150000D01*
X228220000Y-180390000D01*
X225675000Y-180473000D01*
X224329000Y-180455000D01*
X222162000Y-180327000D01*
X219964000Y-180076000D01*
X217790000Y-179709000D01*
X216183000Y-179355000D01*
X213760000Y-178683000D01*
X211387000Y-177862000D01*
X209073000Y-176895000D01*
X206828000Y-175788000D01*
X204662000Y-174544000D01*
X203216000Y-173607000D01*
X201175000Y-172123000D01*
X199234000Y-170519000D01*
X197400000Y-168801000D01*
X195680000Y-166977000D01*
X194079000Y-165051000D01*
X192605000Y-163033000D01*
X191419000Y-161187000D01*
X190181000Y-158983000D01*
X189088000Y-156714000D01*
X188142000Y-154386000D01*
X187345000Y-152007000D01*
X186701000Y-149584000D01*
X186343000Y-147869000D01*
X186094000Y-146367000D01*
X185904000Y-144860000D01*
X185768000Y-143292000D01*
X185707000Y-142258000D01*
X185696000Y-141934000D01*
X185688000Y-141494000D01*
X185683000Y-140979000D01*
X185682000Y-140429000D01*
X185682000Y-140423000D01*
X186792000Y-140423000D01*
X186868000Y-142876000D01*
X186944000Y-143912000D01*
X187236000Y-146370000D01*
X187682000Y-148795000D01*
X188282000Y-151179000D01*
X189031000Y-153518000D01*
X189927000Y-155803000D01*
X190968000Y-158029000D01*
X192151000Y-160189000D01*
X193473000Y-162276000D01*
X194931000Y-164285000D01*
X195960000Y-165556000D01*
X197620000Y-167399000D01*
X199391000Y-169129000D01*
X201264000Y-170741000D01*
X203233000Y-172231000D01*
X205290000Y-173592000D01*
X207427000Y-174820000D01*
X209639000Y-175910000D01*
X211916000Y-176856000D01*
X212776000Y-177170000D01*
X215142000Y-177916000D01*
X217547000Y-178507000D01*
X219986000Y-178943000D01*
X222453000Y-179222000D01*
X224944000Y-179343000D01*
X226722000Y-179334000D01*
X229193000Y-179186000D01*
X231652000Y-178880000D01*
X234082000Y-178419000D01*
X234801000Y-178252000D01*
X237189000Y-177589000D01*
X239524000Y-176775000D01*
X241802000Y-175813000D01*
X244016000Y-174705000D01*
X246162000Y-173455000D01*
X248234000Y-172064000D01*
X249210000Y-171340000D01*
X251073000Y-169817000D01*
X252852000Y-168167000D01*
X254531000Y-166408000D01*
X256091000Y-164558000D01*
X257000000Y-163362000D01*
X258413000Y-161287000D01*
X259682000Y-159141000D01*
X260807000Y-156928000D01*
X261785000Y-154649000D01*
X262617000Y-152307000D01*
X262818000Y-151658000D01*
X263454000Y-149263000D01*
X263933000Y-146833000D01*
X264256000Y-144366000D01*
X264370000Y-142960000D01*
X264442000Y-140760000D01*
X264386000Y-138512000D01*
X264204000Y-136260000D01*
X264169000Y-135957000D01*
X263803000Y-133513000D01*
X263283000Y-131109000D01*
X262614000Y-128752000D01*
X261798000Y-126448000D01*
X260840000Y-124204000D01*
X259742000Y-122025000D01*
X258509000Y-119918000D01*
X257143000Y-117889000D01*
X255649000Y-115945000D01*
X254029000Y-114091000D01*
X252287000Y-112335000D01*
X250427000Y-110682000D01*
X249952000Y-110291000D01*
X247982000Y-108802000D01*
X245919000Y-107440000D01*
X243773000Y-106212000D01*
X241556000Y-105122000D01*
X239278000Y-104178000D01*
X238468000Y-103883000D01*
X236095000Y-103134000D01*
X233689000Y-102541000D01*
X231254000Y-102105000D01*
X230121000Y-101957000D01*
X227780000Y-101760000D01*
X225405000Y-101703000D01*
X223034000Y-101785000D01*
X221203000Y-101947000D01*
X218833000Y-102292000D01*
X216478000Y-102786000D01*
X214160000Y-103424000D01*
X211905000Y-104197000D01*
X210973000Y-104565000D01*
X208682000Y-105593000D01*
X206473000Y-106757000D01*
X204351000Y-108055000D01*
X202318000Y-109485000D01*
X200379000Y-111045000D01*
X198537000Y-112731000D01*
X198328000Y-112936000D01*
X196604000Y-114753000D01*
X195015000Y-116654000D01*
X193556000Y-118646000D01*
X192221000Y-120737000D01*
X191197000Y-122568000D01*
X190149000Y-124727000D01*
X189232000Y-126966000D01*
X188454000Y-129265000D01*
X187823000Y-131602000D01*
X187485000Y-133183000D01*
X187100000Y-135592000D01*
X186869000Y-138000000D01*
X186792000Y-140423000D01*
X185682000Y-140423000D01*
X185683000Y-139884000D01*
X185688000Y-139384000D01*
X185696000Y-138969000D01*
X185706000Y-138701000D01*
X185866000Y-136565000D01*
X186116000Y-134529000D01*
X186462000Y-132554000D01*
X186911000Y-130605000D01*
X187200000Y-129542000D01*
X187871000Y-127416000D01*
X188648000Y-125367000D01*
X189551000Y-123339000D01*
X189829000Y-122769000D01*
X190752000Y-121010000D01*
X191733000Y-119351000D01*
X192807000Y-117729000D01*
X193323000Y-117007000D01*
X194833000Y-115066000D01*
X196471000Y-113210000D01*
X198220000Y-111454000D01*
X200065000Y-109814000D01*
X201973000Y-108317000D01*
X204053000Y-106888000D01*
X206217000Y-105594000D01*
X208456000Y-104441000D01*
X210763000Y-103432000D01*
X211386000Y-103189000D01*
X213675000Y-102394000D01*
X215986000Y-101746000D01*
X218341000Y-101240000D01*
X220762000Y-100871000D01*
X221423000Y-100795000D01*
X223123000Y-100655000D01*
X224902000Y-100588000D01*
X226700000Y-100595000D01*
G37*
G36*
X241709000Y-118106000D02*
G01*
X241827000Y-118144000D01*
X241886000Y-118173000D01*
X242102000Y-118313000D01*
X242348000Y-118545000D01*
X242462000Y-118669000D01*
X242593000Y-118826000D01*
X242733000Y-119006000D01*
X242848000Y-119163000D01*
X242904000Y-119253000D01*
X242905000Y-119260000D01*
X242831000Y-119276000D01*
X242742000Y-119289000D01*
X242397000Y-119376000D01*
X242246000Y-119447000D01*
X242005000Y-119609000D01*
X241696000Y-119850000D01*
X241363000Y-120135000D01*
X241048000Y-120427000D01*
X240982000Y-120492000D01*
X240648000Y-120844000D01*
X240361000Y-121192000D01*
X240104000Y-121564000D01*
X239862000Y-121986000D01*
X239617000Y-122488000D01*
X239354000Y-123096000D01*
X239150000Y-123600000D01*
X238795000Y-124517000D01*
X238509000Y-125315000D01*
X238285000Y-126017000D01*
X238117000Y-126645000D01*
X237998000Y-127223000D01*
X237921000Y-127772000D01*
X237894000Y-128092000D01*
X237880000Y-128368000D01*
X237885000Y-128625000D01*
X237898000Y-128853000D01*
X237914000Y-129161000D01*
X237923000Y-129543000D01*
X237927000Y-129953000D01*
X237925000Y-130345000D01*
X237917000Y-130675000D01*
X237903000Y-130896000D01*
X237900000Y-130915000D01*
X237772000Y-131641000D01*
X237596000Y-132280000D01*
X237416000Y-132729000D01*
X237273000Y-132972000D01*
X237099000Y-133194000D01*
X236927000Y-133359000D01*
X236792000Y-133430000D01*
X236766000Y-133428000D01*
X236553000Y-133301000D01*
X236533000Y-133275000D01*
X236494000Y-133211000D01*
X236443000Y-133102000D01*
X236371000Y-132923000D01*
X236267000Y-132652000D01*
X236123000Y-132262000D01*
X236055000Y-132078000D01*
X235933000Y-131751000D01*
X235851000Y-131546000D01*
X235797000Y-131430000D01*
X235757000Y-131375000D01*
X235753000Y-131371000D01*
X235662000Y-131317000D01*
X235654000Y-131316000D01*
X235560000Y-131385000D01*
X235469000Y-131558000D01*
X235454000Y-131601000D01*
X235326000Y-131900000D01*
X235108000Y-132251000D01*
X235011000Y-132388000D01*
X234787000Y-132703000D01*
X234534000Y-133073000D01*
X234286000Y-133445000D01*
X234079000Y-133767000D01*
X233996000Y-133901000D01*
X233856000Y-134142000D01*
X233695000Y-134429000D01*
X233639000Y-134533000D01*
X233485000Y-134815000D01*
X233331000Y-135095000D01*
X233283000Y-135181000D01*
X232990000Y-135743000D01*
X232787000Y-136220000D01*
X232659000Y-136649000D01*
X232608000Y-136929000D01*
X232606000Y-137196000D01*
X232704000Y-137391000D01*
X232930000Y-137558000D01*
X232983000Y-137587000D01*
X233148000Y-137675000D01*
X233087000Y-137712000D01*
X232970000Y-137758000D01*
X232722000Y-137836000D01*
X232369000Y-137941000D01*
X231937000Y-138064000D01*
X231449000Y-138199000D01*
X230932000Y-138340000D01*
X230411000Y-138478000D01*
X229911000Y-138606000D01*
X229620000Y-138679000D01*
X228986000Y-138842000D01*
X228485000Y-138990000D01*
X228091000Y-139131000D01*
X227778000Y-139277000D01*
X227521000Y-139438000D01*
X227314000Y-139605000D01*
X227159000Y-139755000D01*
X227003000Y-139931000D01*
X226815000Y-140172000D01*
X226644000Y-140405000D01*
X226039000Y-141138000D01*
X225305000Y-141849000D01*
X224500000Y-142500000D01*
X224239000Y-142687000D01*
X224053000Y-142801000D01*
X223965000Y-142843000D01*
X223826000Y-142902000D01*
X223780000Y-142920000D01*
X223761000Y-142852000D01*
X223737000Y-142727000D01*
X223715000Y-142556000D01*
X223710000Y-142349000D01*
X223713000Y-142181000D01*
X223733000Y-141853000D01*
X223776000Y-141546000D01*
X223853000Y-141214000D01*
X223973000Y-140808000D01*
X224079000Y-140485000D01*
X224210000Y-140056000D01*
X224284000Y-139693000D01*
X224314000Y-139317000D01*
X224317000Y-139132000D01*
X224317000Y-138887000D01*
X224310000Y-138744000D01*
X224291000Y-138647000D01*
X224263000Y-138563000D01*
X224073000Y-138215000D01*
X223766000Y-137954000D01*
X223720000Y-137926000D01*
X223387000Y-137733000D01*
X223069000Y-137541000D01*
X222808000Y-137377000D01*
X222653000Y-137272000D01*
X222462000Y-137119000D01*
X222258000Y-136939000D01*
X222091000Y-136778000D01*
X222015000Y-136690000D01*
X221953000Y-136574000D01*
X221909000Y-136465000D01*
X221907000Y-136439000D01*
X222222000Y-136249000D01*
X222643000Y-136079000D01*
X223116000Y-135947000D01*
X223481000Y-135883000D01*
X223620000Y-135871000D01*
X223806000Y-135868000D01*
X224078000Y-135873000D01*
X224403000Y-135883000D01*
X224740000Y-135896000D01*
X225025000Y-135910000D01*
X225213000Y-135921000D01*
X225251000Y-135925000D01*
X225805000Y-135988000D01*
X226260000Y-136020000D01*
X226593000Y-136019000D01*
X226703000Y-136007000D01*
X227114000Y-135871000D01*
X227512000Y-135599000D01*
X227678000Y-135445000D01*
X227868000Y-135245000D01*
X228039000Y-135034000D01*
X228212000Y-134783000D01*
X228406000Y-134461000D01*
X228639000Y-134039000D01*
X228778000Y-133781000D01*
X229028000Y-133313000D01*
X229230000Y-132937000D01*
X229405000Y-132617000D01*
X229573000Y-132315000D01*
X229755000Y-131995000D01*
X229971000Y-131620000D01*
X230242000Y-131154000D01*
X230329000Y-131005000D01*
X230623000Y-130497000D01*
X230843000Y-130104000D01*
X231000000Y-129807000D01*
X231103000Y-129585000D01*
X231163000Y-129418000D01*
X231188000Y-129284000D01*
X231191000Y-129212000D01*
X231132000Y-128976000D01*
X230943000Y-128774000D01*
X230884000Y-128732000D01*
X230762000Y-128654000D01*
X230629000Y-128589000D01*
X230437000Y-128516000D01*
X230161000Y-128420000D01*
X229908000Y-128332000D01*
X229714000Y-128260000D01*
X229640000Y-128230000D01*
X229571000Y-128177000D01*
X229573000Y-128124000D01*
X229640000Y-127959000D01*
X229792000Y-127761000D01*
X230185000Y-127392000D01*
X230667000Y-127064000D01*
X230782000Y-127001000D01*
X230956000Y-126916000D01*
X231235000Y-126786000D01*
X231578000Y-126631000D01*
X231941000Y-126469000D01*
X232284000Y-126319000D01*
X232531000Y-126214000D01*
X233114000Y-125927000D01*
X233614000Y-125577000D01*
X234068000Y-125133000D01*
X234512000Y-124565000D01*
X234551000Y-124510000D01*
X234994000Y-123895000D01*
X235465000Y-123289000D01*
X235918000Y-122747000D01*
X236051000Y-122598000D01*
X236204000Y-122435000D01*
X236454000Y-122171000D01*
X236788000Y-121824000D01*
X237192000Y-121407000D01*
X237649000Y-120935000D01*
X238051000Y-120522000D01*
X238541000Y-120028000D01*
X238952000Y-119632000D01*
X239312000Y-119313000D01*
X239650000Y-119051000D01*
X239993000Y-118822000D01*
X240368000Y-118606000D01*
X240775000Y-118394000D01*
X241365000Y-118099000D01*
X241551000Y-118099000D01*
X241709000Y-118106000D01*
G37*
G36*
X194844000Y-133861000D02*
G01*
X195000000Y-133969000D01*
X195212000Y-134120000D01*
X195443000Y-134289000D01*
X195657000Y-134448000D01*
X195818000Y-134572000D01*
X195890000Y-134634000D01*
X195891000Y-134636000D01*
X195878000Y-134725000D01*
X195844000Y-134918000D01*
X195822000Y-135040000D01*
X195596000Y-136458000D01*
X195435000Y-137904000D01*
X195431000Y-137950000D01*
X195362000Y-139048000D01*
X195332000Y-140227000D01*
X195340000Y-141412000D01*
X195389000Y-142528000D01*
X195401000Y-142699000D01*
X195421000Y-142956000D01*
X195447000Y-143251000D01*
X195473000Y-143540000D01*
X195497000Y-143781000D01*
X195514000Y-143930000D01*
X195518000Y-143957000D01*
X195593000Y-143950000D01*
X195778000Y-143928000D01*
X195913000Y-143911000D01*
X196202000Y-143874000D01*
X196467000Y-143840000D01*
X196542000Y-143830000D01*
X196744000Y-143815000D01*
X197066000Y-143801000D01*
X197470000Y-143789000D01*
X197916000Y-143780000D01*
X198365000Y-143774000D01*
X198777000Y-143773000D01*
X199113000Y-143777000D01*
X199268000Y-143782000D01*
X199888000Y-143815000D01*
X200383000Y-143846000D01*
X200786000Y-143879000D01*
X201131000Y-143917000D01*
X201455000Y-143964000D01*
X201790000Y-144023000D01*
X201953000Y-144054000D01*
X202755000Y-144238000D01*
X203507000Y-144464000D01*
X204170000Y-144718000D01*
X204599000Y-144927000D01*
X205276000Y-145354000D01*
X205829000Y-145818000D01*
X206248000Y-146306000D01*
X206520000Y-146807000D01*
X206565000Y-146939000D01*
X206600000Y-147071000D01*
X206616000Y-147206000D01*
X206621000Y-147416000D01*
X206621000Y-147459000D01*
X206613000Y-147770000D01*
X206574000Y-148027000D01*
X206490000Y-148322000D01*
X206471000Y-148381000D01*
X206235000Y-148936000D01*
X205898000Y-149518000D01*
X205493000Y-150066000D01*
X205486000Y-150074000D01*
X205304000Y-150278000D01*
X205072000Y-150520000D01*
X204941000Y-150652000D01*
X203964000Y-151504000D01*
X202869000Y-152269000D01*
X202014000Y-152764000D01*
X201620000Y-152966000D01*
X201131000Y-153201000D01*
X200588000Y-153451000D01*
X200033000Y-153698000D01*
X199507000Y-153924000D01*
X199050000Y-154109000D01*
X198773000Y-154213000D01*
X198618000Y-154268000D01*
X198680000Y-154391000D01*
X198812000Y-154643000D01*
X198995000Y-154979000D01*
X199197000Y-155345000D01*
X199390000Y-155684000D01*
X199413000Y-155724000D01*
X200543000Y-157520000D01*
X201803000Y-159245000D01*
X203173000Y-160869000D01*
X203560000Y-161287000D01*
X203959000Y-161704000D01*
X204346000Y-162096000D01*
X204680000Y-162423000D01*
X204758000Y-162497000D01*
X205018000Y-162739000D01*
X204806000Y-163385000D01*
X204708000Y-163678000D01*
X204629000Y-163904000D01*
X204583000Y-164025000D01*
X204576000Y-164037000D01*
X204514000Y-163989000D01*
X204366000Y-163859000D01*
X204165000Y-163675000D01*
X204158000Y-163669000D01*
X202559000Y-162074000D01*
X201086000Y-160382000D01*
X199740000Y-158598000D01*
X198527000Y-156728000D01*
X197451000Y-154778000D01*
X196516000Y-152755000D01*
X196262000Y-152130000D01*
X195762000Y-150769000D01*
X195321000Y-149377000D01*
X194969000Y-148055000D01*
X194921000Y-147873000D01*
X194877000Y-147777000D01*
X194823000Y-147711000D01*
X194613000Y-147379000D01*
X194502000Y-146959000D01*
X194488000Y-146744000D01*
X194488000Y-146587000D01*
X194370000Y-146587000D01*
X194132000Y-146608000D01*
X193805000Y-146664000D01*
X193454000Y-146742000D01*
X193287000Y-146786000D01*
X193269000Y-146804000D01*
X193307000Y-146854000D01*
X193425000Y-146963000D01*
X193558000Y-147079000D01*
X193764000Y-147259000D01*
X193936000Y-147407000D01*
X193997000Y-147458000D01*
X194131000Y-147572000D01*
X194181000Y-147616000D01*
X194245000Y-147675000D01*
X194205000Y-147777000D01*
X194013000Y-148111000D01*
X193737000Y-148405000D01*
X193634000Y-148482000D01*
X193411000Y-148601000D01*
X193152000Y-148702000D01*
X193089000Y-148721000D01*
X192764000Y-148780000D01*
X192453000Y-148773000D01*
X192094000Y-148696000D01*
X191849000Y-148620000D01*
X191557000Y-148529000D01*
X191369000Y-148492000D01*
X191240000Y-148503000D01*
X191196000Y-148518000D01*
X191067000Y-148638000D01*
X191080000Y-148798000D01*
X191132000Y-148866000D01*
X191216000Y-148928000D01*
X191294000Y-148927000D01*
X191385000Y-148917000D01*
X191319000Y-148985000D01*
X191187000Y-149075000D01*
X191144000Y-149094000D01*
X190902000Y-149113000D01*
X190707000Y-148989000D01*
X190582000Y-148737000D01*
X190579000Y-148726000D01*
X190573000Y-148594000D01*
X190626000Y-148412000D01*
X190731000Y-148175000D01*
X190839000Y-147949000D01*
X190975000Y-148017000D01*
X191435000Y-148188000D01*
X191928000Y-148272000D01*
X192390000Y-148262000D01*
X192534000Y-148233000D01*
X192980000Y-148056000D01*
X193332000Y-147790000D01*
X193375000Y-147742000D01*
X193472000Y-147613000D01*
X193565000Y-147471000D01*
X193606000Y-147387000D01*
X193552000Y-147331000D01*
X193413000Y-147204000D01*
X193317000Y-147120000D01*
X193028000Y-146868000D01*
X192779000Y-146947000D01*
X192282000Y-147095000D01*
X191871000Y-147199000D01*
X191823000Y-147209000D01*
X191286000Y-147250000D01*
X190788000Y-147151000D01*
X190430000Y-146968000D01*
X190278000Y-146846000D01*
X190124000Y-146701000D01*
X190058000Y-146625000D01*
X190017000Y-146568000D01*
X190145000Y-146628000D01*
X190387000Y-146708000D01*
X190700000Y-146744000D01*
X190898000Y-146747000D01*
X191183000Y-146740000D01*
X191459000Y-146712000D01*
X191767000Y-146657000D01*
X192149000Y-146567000D01*
X192604000Y-146447000D01*
X193013000Y-146338000D01*
X193309000Y-146266000D01*
X193533000Y-146224000D01*
X193726000Y-146204000D01*
X193927000Y-146198000D01*
X194238000Y-146196000D01*
X194378000Y-146263000D01*
X194512000Y-146333000D01*
X194553000Y-146361000D01*
X194598000Y-146384000D01*
X194592000Y-146308000D01*
X194564000Y-146133000D01*
X194558000Y-146096000D01*
X194430000Y-145193000D01*
X195695000Y-145193000D01*
X195699000Y-145277000D01*
X195729000Y-145485000D01*
X195780000Y-145783000D01*
X195845000Y-146140000D01*
X195911000Y-146476000D01*
X196412000Y-148588000D01*
X197058000Y-150643000D01*
X197745000Y-152399000D01*
X197919000Y-152803000D01*
X198033000Y-153061000D01*
X198087000Y-153174000D01*
X198091000Y-153180000D01*
X198162000Y-153155000D01*
X198333000Y-153091000D01*
X198422000Y-153058000D01*
X199537000Y-152589000D01*
X200543000Y-152070000D01*
X201425000Y-151510000D01*
X202170000Y-150917000D01*
X202581000Y-150509000D01*
X203061000Y-149911000D01*
X203399000Y-149313000D01*
X203608000Y-148689000D01*
X203617000Y-148652000D01*
X203643000Y-148454000D01*
X203661000Y-148178000D01*
X203661000Y-148170000D01*
X203658000Y-147850000D01*
X203612000Y-147604000D01*
X203507000Y-147348000D01*
X203488000Y-147309000D01*
X203137000Y-146758000D01*
X202668000Y-146287000D01*
X202063000Y-145877000D01*
X202029000Y-145858000D01*
X201330000Y-145541000D01*
X200511000Y-145295000D01*
X199594000Y-145123000D01*
X198606000Y-145028000D01*
X197569000Y-145012000D01*
X196508000Y-145080000D01*
X196135000Y-145123000D01*
X195896000Y-145157000D01*
X195735000Y-145183000D01*
X195695000Y-145193000D01*
X194430000Y-145193000D01*
X194249000Y-143919000D01*
X194093000Y-141709000D01*
X194088000Y-139484000D01*
X194237000Y-137263000D01*
X194520000Y-135166000D01*
X194564000Y-134913000D01*
X194619000Y-134617000D01*
X194676000Y-134318000D01*
X194727000Y-134059000D01*
X194765000Y-133880000D01*
X194779000Y-133824000D01*
X194844000Y-133861000D01*
G37*
G36*
X256595000Y-133796000D02*
G01*
X256610000Y-133876000D01*
X256647000Y-134064000D01*
X256676000Y-134212000D01*
X257010000Y-136200000D01*
X257219000Y-138223000D01*
X257226000Y-138310000D01*
X257286000Y-139641000D01*
X257292000Y-141038000D01*
X257244000Y-142417000D01*
X257186000Y-143250000D01*
X256929000Y-145384000D01*
X256526000Y-147502000D01*
X255983000Y-149584000D01*
X255305000Y-151609000D01*
X254497000Y-153556000D01*
X254276000Y-154028000D01*
X254062000Y-154473000D01*
X254067000Y-154714000D01*
X254063000Y-154938000D01*
X254032000Y-155110000D01*
X253880000Y-155476000D01*
X253720000Y-155720000D01*
X253610000Y-155865000D01*
X253675000Y-155914000D01*
X253844000Y-156028000D01*
X254075000Y-156165000D01*
X254321000Y-156301000D01*
X254535000Y-156409000D01*
X254671000Y-156465000D01*
X254687000Y-156467000D01*
X254702000Y-156422000D01*
X254684000Y-156324000D01*
X254649000Y-156120000D01*
X254621000Y-155951000D01*
X254575000Y-155682000D01*
X254536000Y-155463000D01*
X254521000Y-155384000D01*
X254495000Y-155244000D01*
X254491000Y-155204000D01*
X254561000Y-155133000D01*
X254737000Y-155050000D01*
X254968000Y-154976000D01*
X255183000Y-154933000D01*
X255425000Y-154938000D01*
X255720000Y-154992000D01*
X255854000Y-155031000D01*
X256274000Y-155230000D01*
X256619000Y-155527000D01*
X256927000Y-155952000D01*
X256941000Y-155977000D01*
X257099000Y-156228000D01*
X257219000Y-156375000D01*
X257299000Y-156439000D01*
X257477000Y-156485000D01*
X257613000Y-156401000D01*
X257626000Y-156377000D01*
X257657000Y-156266000D01*
X257657000Y-156264000D01*
X257608000Y-156140000D01*
X257528000Y-156075000D01*
X257491000Y-156045000D01*
X257579000Y-156027000D01*
X257591000Y-156027000D01*
X257847000Y-156091000D01*
X257926000Y-156149000D01*
X258047000Y-156342000D01*
X258029000Y-156600000D01*
X258027000Y-156605000D01*
X257950000Y-156759000D01*
X257795000Y-156887000D01*
X257610000Y-156986000D01*
X257411000Y-157082000D01*
X257311000Y-157112000D01*
X257261000Y-157074000D01*
X257216000Y-156974000D01*
X257026000Y-156639000D01*
X256764000Y-156301000D01*
X256492000Y-156037000D01*
X256485000Y-156032000D01*
X256155000Y-155832000D01*
X255814000Y-155704000D01*
X255460000Y-155665000D01*
X255085000Y-155702000D01*
X254957000Y-155736000D01*
X254826000Y-155787000D01*
X254792000Y-155808000D01*
X254804000Y-155906000D01*
X254835000Y-156091000D01*
X254872000Y-156303000D01*
X254906000Y-156482000D01*
X254926000Y-156567000D01*
X254927000Y-156568000D01*
X255003000Y-156604000D01*
X255179000Y-156680000D01*
X255293000Y-156728000D01*
X255717000Y-156915000D01*
X256070000Y-157091000D01*
X256314000Y-157235000D01*
X256338000Y-157252000D01*
X256693000Y-157603000D01*
X256932000Y-158030000D01*
X257034000Y-158494000D01*
X257036000Y-158574000D01*
X257036000Y-158717000D01*
X256962000Y-158570000D01*
X256766000Y-158296000D01*
X256450000Y-158000000D01*
X256046000Y-157710000D01*
X256021000Y-157694000D01*
X255666000Y-157496000D01*
X255161000Y-157252000D01*
X255022000Y-157189000D01*
X254477000Y-156932000D01*
X254067000Y-156708000D01*
X253772000Y-156504000D01*
X253573000Y-156305000D01*
X253453000Y-156096000D01*
X253403000Y-155926000D01*
X253377000Y-155796000D01*
X253325000Y-155886000D01*
X252692000Y-156958000D01*
X252076000Y-157927000D01*
X251445000Y-158845000D01*
X250763000Y-159761000D01*
X250606000Y-159965000D01*
X249688000Y-161081000D01*
X248677000Y-162203000D01*
X247628000Y-163272000D01*
X246969000Y-163895000D01*
X246824000Y-164025000D01*
X246743000Y-164095000D01*
X246738000Y-164098000D01*
X246709000Y-164030000D01*
X246642000Y-163844000D01*
X246549000Y-163575000D01*
X246508000Y-163452000D01*
X246291000Y-162801000D01*
X247040000Y-162054000D01*
X248278000Y-160757000D01*
X249392000Y-159453000D01*
X250415000Y-158102000D01*
X251235000Y-156888000D01*
X251422000Y-156592000D01*
X251629000Y-156256000D01*
X251838000Y-155909000D01*
X252033000Y-155580000D01*
X252198000Y-155296000D01*
X252314000Y-155087000D01*
X252366000Y-154981000D01*
X252367000Y-154976000D01*
X252306000Y-154937000D01*
X252260000Y-154915000D01*
X252070000Y-154825000D01*
X251791000Y-154688000D01*
X251472000Y-154526000D01*
X251160000Y-154366000D01*
X250903000Y-154230000D01*
X250763000Y-154152000D01*
X250575000Y-154037000D01*
X250314000Y-153870000D01*
X250072000Y-153711000D01*
X249793000Y-153528000D01*
X249528000Y-153355000D01*
X249360000Y-153248000D01*
X249165000Y-153117000D01*
X248885000Y-152919000D01*
X248562000Y-152685000D01*
X248239000Y-152446000D01*
X247956000Y-152232000D01*
X247827000Y-152131000D01*
X247002000Y-151409000D01*
X246232000Y-150614000D01*
X245680000Y-149944000D01*
X245222000Y-149262000D01*
X244868000Y-148570000D01*
X244633000Y-147916000D01*
X247321000Y-147916000D01*
X247323000Y-148120000D01*
X247370000Y-148620000D01*
X247495000Y-149089000D01*
X247707000Y-149583000D01*
X248134000Y-150297000D01*
X248713000Y-151005000D01*
X249434000Y-151698000D01*
X250287000Y-152369000D01*
X251262000Y-153007000D01*
X251475000Y-153132000D01*
X251645000Y-153228000D01*
X251833000Y-153328000D01*
X252070000Y-153448000D01*
X252388000Y-153604000D01*
X252819000Y-153812000D01*
X252828000Y-153816000D01*
X252926000Y-153853000D01*
X252938000Y-153854000D01*
X252980000Y-153785000D01*
X253067000Y-153615000D01*
X253133000Y-153480000D01*
X253989000Y-151493000D01*
X254702000Y-149453000D01*
X255264000Y-147381000D01*
X255280000Y-147309000D01*
X255359000Y-146955000D01*
X255433000Y-146602000D01*
X255496000Y-146286000D01*
X255541000Y-146041000D01*
X255560000Y-145902000D01*
X255559000Y-145884000D01*
X255476000Y-145856000D01*
X255279000Y-145803000D01*
X255012000Y-145737000D01*
X254718000Y-145668000D01*
X254440000Y-145606000D01*
X254396000Y-145597000D01*
X253540000Y-145442000D01*
X252728000Y-145350000D01*
X251864000Y-145311000D01*
X251825000Y-145310000D01*
X251455000Y-145307000D01*
X251192000Y-145310000D01*
X250980000Y-145322000D01*
X250853000Y-145334000D01*
X249950000Y-145481000D01*
X249176000Y-145717000D01*
X248525000Y-146045000D01*
X247990000Y-146469000D01*
X247678000Y-146828000D01*
X247474000Y-147157000D01*
X247361000Y-147501000D01*
X247321000Y-147916000D01*
X244633000Y-147916000D01*
X244624000Y-147890000D01*
X244496000Y-147242000D01*
X244493000Y-146648000D01*
X244551000Y-146331000D01*
X244760000Y-145860000D01*
X245120000Y-145414000D01*
X245623000Y-145002000D01*
X246137000Y-144694000D01*
X246730000Y-144425000D01*
X247374000Y-144216000D01*
X248106000Y-144056000D01*
X248951000Y-143938000D01*
X249153000Y-143918000D01*
X249341000Y-143904000D01*
X249558000Y-143897000D01*
X249846000Y-143893000D01*
X250250000Y-143892000D01*
X250282000Y-143892000D01*
X250737000Y-143894000D01*
X251086000Y-143901000D01*
X251385000Y-143917000D01*
X251687000Y-143944000D01*
X252048000Y-143988000D01*
X252327000Y-144024000D01*
X253189000Y-144150000D01*
X254014000Y-144291000D01*
X254764000Y-144439000D01*
X255400000Y-144588000D01*
X255501000Y-144615000D01*
X255676000Y-144660000D01*
X255762000Y-144679000D01*
X255764000Y-144679000D01*
X255776000Y-144602000D01*
X255800000Y-144412000D01*
X255831000Y-144154000D01*
X255863000Y-143875000D01*
X255891000Y-143620000D01*
X255903000Y-143511000D01*
X256032000Y-141538000D01*
X256032000Y-139531000D01*
X255904000Y-137531000D01*
X255649000Y-135577000D01*
X255532000Y-134916000D01*
X255495000Y-134711000D01*
X255477000Y-134585000D01*
X255477000Y-134572000D01*
X255539000Y-134518000D01*
X255696000Y-134399000D01*
X255909000Y-134243000D01*
X256141000Y-134076000D01*
X256354000Y-133925000D01*
X256512000Y-133818000D01*
X256575000Y-133781000D01*
X256595000Y-133796000D01*
G37*
G36*
X225868000Y-103808000D02*
G01*
X226065000Y-103928000D01*
X226195000Y-104083000D01*
X226223000Y-104166000D01*
X226299000Y-104390000D01*
X226417000Y-104744000D01*
X226575000Y-105218000D01*
X226769000Y-105801000D01*
X226995000Y-106482000D01*
X227250000Y-107249000D01*
X227530000Y-108094000D01*
X227832000Y-109004000D01*
X228152000Y-109968000D01*
X228486000Y-110977000D01*
X228831000Y-112020000D01*
X229183000Y-113084000D01*
X229540000Y-114161000D01*
X229896000Y-115238000D01*
X230249000Y-116306000D01*
X230595000Y-117353000D01*
X230931000Y-118369000D01*
X231253000Y-119342000D01*
X231556000Y-120263000D01*
X231839000Y-121120000D01*
X232097000Y-121902000D01*
X232327000Y-122599000D01*
X232525000Y-123200000D01*
X232687000Y-123694000D01*
X232810000Y-124071000D01*
X232891000Y-124319000D01*
X232926000Y-124428000D01*
X232927000Y-124432000D01*
X232871000Y-124506000D01*
X232735000Y-124629000D01*
X232575000Y-124754000D01*
X232422000Y-124846000D01*
X232206000Y-124959000D01*
X232009000Y-125050000D01*
X231960000Y-125070000D01*
X231942000Y-125057000D01*
X231911000Y-124995000D01*
X231860000Y-124863000D01*
X231783000Y-124641000D01*
X231670000Y-124307000D01*
X231517000Y-123845000D01*
X231201000Y-122886000D01*
X230867000Y-121874000D01*
X230518000Y-120818000D01*
X230159000Y-119730000D01*
X229792000Y-118620000D01*
X229421000Y-117498000D01*
X229050000Y-116374000D01*
X228681000Y-115259000D01*
X228318000Y-114162000D01*
X227966000Y-113095000D01*
X227626000Y-112068000D01*
X227302000Y-111090000D01*
X226999000Y-110173000D01*
X226718000Y-109326000D01*
X226464000Y-108560000D01*
X226241000Y-107886000D01*
X226051000Y-107312000D01*
X225897000Y-106851000D01*
X225784000Y-106512000D01*
X225715000Y-106305000D01*
X225693000Y-106240000D01*
X225668000Y-106313000D01*
X225595000Y-106529000D01*
X225479000Y-106876000D01*
X225323000Y-107345000D01*
X225130000Y-107925000D01*
X224903000Y-108607000D01*
X224646000Y-109379000D01*
X224363000Y-110233000D01*
X224056000Y-111157000D01*
X223730000Y-112142000D01*
X223386000Y-113177000D01*
X223030000Y-114253000D01*
X222664000Y-115358000D01*
X222291000Y-116483000D01*
X221915000Y-117618000D01*
X221539000Y-118752000D01*
X221167000Y-119875000D01*
X220802000Y-120978000D01*
X220448000Y-122049000D01*
X220107000Y-123079000D01*
X219784000Y-124057000D01*
X219481000Y-124974000D01*
X219202000Y-125818000D01*
X218950000Y-126581000D01*
X218729000Y-127251000D01*
X218541000Y-127819000D01*
X218392000Y-128274000D01*
X218283000Y-128607000D01*
X218218000Y-128806000D01*
X218200000Y-128863000D01*
X218216000Y-128868000D01*
X218273000Y-128873000D01*
X218384000Y-128878000D01*
X218557000Y-128881000D01*
X218806000Y-128884000D01*
X219140000Y-128886000D01*
X219570000Y-128888000D01*
X220108000Y-128889000D01*
X220764000Y-128890000D01*
X221550000Y-128891000D01*
X222475000Y-128891000D01*
X223356000Y-128891000D01*
X228519000Y-128891000D01*
X228641000Y-129021000D01*
X228883000Y-129236000D01*
X229177000Y-129400000D01*
X229456000Y-129506000D01*
X229615000Y-129566000D01*
X229679000Y-129603000D01*
X229642000Y-129678000D01*
X229555000Y-129830000D01*
X229553000Y-129833000D01*
X229428000Y-130043000D01*
X223616000Y-130048000D01*
X217804000Y-130053000D01*
X215385000Y-137372000D01*
X215041000Y-138413000D01*
X214711000Y-139410000D01*
X214400000Y-140353000D01*
X214110000Y-141230000D01*
X213845000Y-142032000D01*
X213609000Y-142749000D01*
X213405000Y-143369000D01*
X213236000Y-143883000D01*
X213105000Y-144280000D01*
X213017000Y-144550000D01*
X212974000Y-144681000D01*
X212971000Y-144693000D01*
X213038000Y-144742000D01*
X213226000Y-144875000D01*
X213521000Y-145086000D01*
X213915000Y-145368000D01*
X214395000Y-145711000D01*
X214952000Y-146109000D01*
X215574000Y-146553000D01*
X216250000Y-147037000D01*
X216971000Y-147552000D01*
X217724000Y-148090000D01*
X218499000Y-148644000D01*
X219286000Y-149206000D01*
X220072000Y-149768000D01*
X220849000Y-150323000D01*
X221604000Y-150863000D01*
X222328000Y-151380000D01*
X223008000Y-151867000D01*
X223635000Y-152315000D01*
X224197000Y-152717000D01*
X224685000Y-153065000D01*
X225086000Y-153352000D01*
X225390000Y-153569000D01*
X225586000Y-153709000D01*
X225664000Y-153765000D01*
X225665000Y-153766000D01*
X225734000Y-153722000D01*
X225931000Y-153587000D01*
X226255000Y-153361000D01*
X226702000Y-153045000D01*
X227273000Y-152641000D01*
X227963000Y-152150000D01*
X228772000Y-151574000D01*
X229697000Y-150914000D01*
X230737000Y-150172000D01*
X231890000Y-149348000D01*
X232038000Y-149243000D01*
X232936000Y-148600000D01*
X233796000Y-147985000D01*
X234610000Y-147402000D01*
X235368000Y-146859000D01*
X236063000Y-146362000D01*
X236683000Y-145917000D01*
X237222000Y-145530000D01*
X237670000Y-145208000D01*
X238018000Y-144957000D01*
X238258000Y-144784000D01*
X238380000Y-144695000D01*
X238394000Y-144684000D01*
X238371000Y-144607000D01*
X238303000Y-144392000D01*
X238194000Y-144056000D01*
X238049000Y-143614000D01*
X237875000Y-143081000D01*
X237675000Y-142472000D01*
X237454000Y-141803000D01*
X237269000Y-141242000D01*
X237035000Y-140535000D01*
X236818000Y-139876000D01*
X236621000Y-139280000D01*
X236450000Y-138762000D01*
X236311000Y-138338000D01*
X236208000Y-138024000D01*
X236146000Y-137834000D01*
X236130000Y-137782000D01*
X236158000Y-137738000D01*
X236279000Y-137659000D01*
X236374000Y-137605000D01*
X236631000Y-137457000D01*
X236871000Y-137316000D01*
X237037000Y-137219000D01*
X237128000Y-137169000D01*
X237132000Y-137168000D01*
X237159000Y-137242000D01*
X237232000Y-137452000D01*
X237344000Y-137785000D01*
X237491000Y-138224000D01*
X237668000Y-138754000D01*
X237869000Y-139360000D01*
X238091000Y-140027000D01*
X238269000Y-140566000D01*
X238502000Y-141269000D01*
X238719000Y-141923000D01*
X238915000Y-142512000D01*
X239086000Y-143021000D01*
X239226000Y-143436000D01*
X239330000Y-143740000D01*
X239393000Y-143919000D01*
X239411000Y-143961000D01*
X239477000Y-143915000D01*
X239667000Y-143781000D01*
X239972000Y-143564000D01*
X240387000Y-143268000D01*
X240903000Y-142900000D01*
X241513000Y-142465000D01*
X242212000Y-141966000D01*
X242990000Y-141410000D01*
X243841000Y-140802000D01*
X244758000Y-140147000D01*
X245734000Y-139450000D01*
X246762000Y-138715000D01*
X247834000Y-137949000D01*
X248943000Y-137156000D01*
X249146000Y-137011000D01*
X258862000Y-130063000D01*
X251576000Y-130058000D01*
X250511000Y-130058000D01*
X249492000Y-130057000D01*
X248531000Y-130056000D01*
X247640000Y-130054000D01*
X246830000Y-130053000D01*
X246111000Y-130052000D01*
X245495000Y-130050000D01*
X244994000Y-130049000D01*
X244619000Y-130048000D01*
X244381000Y-130046000D01*
X244291000Y-130045000D01*
X244290000Y-130045000D01*
X244317000Y-129972000D01*
X244387000Y-129791000D01*
X244477000Y-129559000D01*
X244581000Y-129295000D01*
X244662000Y-129085000D01*
X244700000Y-128986000D01*
X244734000Y-128891000D01*
X252774000Y-128891000D01*
X260814000Y-128891000D01*
X260934000Y-128948000D01*
X261165000Y-129135000D01*
X261265000Y-129400000D01*
X261268000Y-129452000D01*
X261204000Y-129736000D01*
X261022000Y-129940000D01*
X260948000Y-129993000D01*
X260751000Y-130134000D01*
X260437000Y-130359000D01*
X260013000Y-130662000D01*
X259487000Y-131039000D01*
X258865000Y-131484000D01*
X258154000Y-131992000D01*
X257362000Y-132559000D01*
X256494000Y-133179000D01*
X255559000Y-133848000D01*
X254562000Y-134560000D01*
X253512000Y-135311000D01*
X252414000Y-136096000D01*
X251276000Y-136910000D01*
X250383000Y-137548000D01*
X249220000Y-138379000D01*
X248092000Y-139185000D01*
X247008000Y-139961000D01*
X245972000Y-140701000D01*
X244993000Y-141401000D01*
X244077000Y-142056000D01*
X243231000Y-142661000D01*
X242461000Y-143211000D01*
X241776000Y-143702000D01*
X241181000Y-144127000D01*
X240684000Y-144483000D01*
X240291000Y-144764000D01*
X240010000Y-144966000D01*
X239847000Y-145083000D01*
X239806000Y-145113000D01*
X239812000Y-145144000D01*
X239838000Y-145235000D01*
X239886000Y-145393000D01*
X239959000Y-145621000D01*
X240057000Y-145928000D01*
X240183000Y-146317000D01*
X240339000Y-146796000D01*
X240527000Y-147369000D01*
X240748000Y-148043000D01*
X241004000Y-148824000D01*
X241299000Y-149717000D01*
X241632000Y-150728000D01*
X242006000Y-151863000D01*
X242424000Y-153127000D01*
X242887000Y-154527000D01*
X243396000Y-156069000D01*
X243873000Y-157510000D01*
X244406000Y-159123000D01*
X244891000Y-160590000D01*
X245331000Y-161919000D01*
X245726000Y-163117000D01*
X246081000Y-164189000D01*
X246396000Y-165144000D01*
X246674000Y-165989000D01*
X246918000Y-166729000D01*
X247129000Y-167372000D01*
X247311000Y-167925000D01*
X247464000Y-168394000D01*
X247592000Y-168788000D01*
X247697000Y-169112000D01*
X247780000Y-169373000D01*
X247845000Y-169578000D01*
X247893000Y-169735000D01*
X247927000Y-169850000D01*
X247949000Y-169929000D01*
X247961000Y-169981000D01*
X247965000Y-170011000D01*
X247965000Y-170017000D01*
X247895000Y-170297000D01*
X247704000Y-170497000D01*
X247428000Y-170584000D01*
X247386000Y-170585000D01*
X247233000Y-170569000D01*
X247136000Y-170525000D01*
X247060000Y-170472000D01*
X246860000Y-170331000D01*
X246543000Y-170107000D01*
X246118000Y-169804000D01*
X245589000Y-169428000D01*
X244964000Y-168983000D01*
X244251000Y-168475000D01*
X243456000Y-167907000D01*
X242585000Y-167286000D01*
X241647000Y-166616000D01*
X240647000Y-165903000D01*
X239593000Y-165150000D01*
X238492000Y-164363000D01*
X237351000Y-163547000D01*
X236367000Y-162844000D01*
X235199000Y-162009000D01*
X234066000Y-161199000D01*
X232975000Y-160419000D01*
X231934000Y-159675000D01*
X230949000Y-158971000D01*
X230028000Y-158313000D01*
X229175000Y-157704000D01*
X228400000Y-157150000D01*
X227708000Y-156656000D01*
X227107000Y-156227000D01*
X226603000Y-155867000D01*
X226203000Y-155581000D01*
X225914000Y-155375000D01*
X225742000Y-155253000D01*
X225694000Y-155219000D01*
X225628000Y-155265000D01*
X225439000Y-155398000D01*
X225133000Y-155616000D01*
X224717000Y-155912000D01*
X224198000Y-156281000D01*
X223583000Y-156720000D01*
X222878000Y-157222000D01*
X222091000Y-157784000D01*
X221228000Y-158400000D01*
X220296000Y-159065000D01*
X219302000Y-159775000D01*
X218253000Y-160525000D01*
X217156000Y-161309000D01*
X216016000Y-162123000D01*
X214999000Y-162850000D01*
X213828000Y-163688000D01*
X212691000Y-164500000D01*
X211597000Y-165282000D01*
X210551000Y-166029000D01*
X209560000Y-166736000D01*
X208632000Y-167398000D01*
X207773000Y-168011000D01*
X206991000Y-168569000D01*
X206291000Y-169067000D01*
X205682000Y-169501000D01*
X205169000Y-169866000D01*
X204760000Y-170156000D01*
X204462000Y-170367000D01*
X204282000Y-170494000D01*
X204226000Y-170532000D01*
X204021000Y-170586000D01*
X203857000Y-170579000D01*
X203590000Y-170432000D01*
X203460000Y-170266000D01*
X203424000Y-170157000D01*
X203418000Y-170015000D01*
X203420000Y-169845000D01*
X203872000Y-168478000D01*
X205109000Y-168478000D01*
X205160000Y-168459000D01*
X205175000Y-168449000D01*
X205247000Y-168397000D01*
X205441000Y-168258000D01*
X205752000Y-168036000D01*
X206172000Y-167736000D01*
X206693000Y-167363000D01*
X207308000Y-166923000D01*
X208011000Y-166421000D01*
X208793000Y-165861000D01*
X209648000Y-165250000D01*
X210569000Y-164592000D01*
X211548000Y-163892000D01*
X212578000Y-163155000D01*
X213652000Y-162387000D01*
X214762000Y-161593000D01*
X214960000Y-161451000D01*
X216075000Y-160654000D01*
X217153000Y-159882000D01*
X218189000Y-159141000D01*
X219173000Y-158436000D01*
X220100000Y-157773000D01*
X220962000Y-157155000D01*
X221752000Y-156588000D01*
X222464000Y-156078000D01*
X223088000Y-155629000D01*
X223620000Y-155248000D01*
X224051000Y-154937000D01*
X224374000Y-154704000D01*
X224582000Y-154553000D01*
X224666000Y-154491000D01*
X226687000Y-154491000D01*
X226746000Y-154535000D01*
X226827000Y-154594000D01*
X227028000Y-154739000D01*
X227341000Y-154963000D01*
X227758000Y-155262000D01*
X228268000Y-155627000D01*
X228865000Y-156054000D01*
X229539000Y-156536000D01*
X230281000Y-157067000D01*
X231082000Y-157640000D01*
X231934000Y-158250000D01*
X232829000Y-158889000D01*
X233757000Y-159553000D01*
X234710000Y-160234000D01*
X235679000Y-160927000D01*
X236655000Y-161624000D01*
X237630000Y-162321000D01*
X238595000Y-163011000D01*
X239541000Y-163687000D01*
X240460000Y-164343000D01*
X241343000Y-164974000D01*
X242181000Y-165572000D01*
X242965000Y-166132000D01*
X243687000Y-166648000D01*
X244337000Y-167112000D01*
X244909000Y-167520000D01*
X245391000Y-167864000D01*
X245777000Y-168139000D01*
X246057000Y-168339000D01*
X246222000Y-168456000D01*
X246266000Y-168487000D01*
X246243000Y-168412000D01*
X246173000Y-168197000D01*
X246062000Y-167857000D01*
X245914000Y-167404000D01*
X245732000Y-166851000D01*
X245521000Y-166211000D01*
X245286000Y-165497000D01*
X245030000Y-164723000D01*
X244759000Y-163901000D01*
X244739000Y-163842000D01*
X244462000Y-163005000D01*
X244143000Y-162039000D01*
X243789000Y-160968000D01*
X243409000Y-159817000D01*
X243009000Y-158608000D01*
X242598000Y-157365000D01*
X242185000Y-156113000D01*
X241775000Y-154875000D01*
X241378000Y-153674000D01*
X241002000Y-152534000D01*
X241000000Y-152529000D01*
X240672000Y-151536000D01*
X240358000Y-150587000D01*
X240062000Y-149693000D01*
X239789000Y-148866000D01*
X239541000Y-148117000D01*
X239322000Y-147455000D01*
X239136000Y-146893000D01*
X238986000Y-146440000D01*
X238876000Y-146108000D01*
X238809000Y-145909000D01*
X238789000Y-145850000D01*
X238725000Y-145895000D01*
X238539000Y-146027000D01*
X238241000Y-146238000D01*
X237840000Y-146524000D01*
X237345000Y-146877000D01*
X236764000Y-147291000D01*
X236108000Y-147759000D01*
X235385000Y-148276000D01*
X234604000Y-148833000D01*
X233774000Y-149426000D01*
X232904000Y-150047000D01*
X232736000Y-150168000D01*
X226687000Y-154491000D01*
X224666000Y-154491000D01*
X224669000Y-154489000D01*
X224671000Y-154487000D01*
X224604000Y-154437000D01*
X224418000Y-154302000D01*
X224124000Y-154091000D01*
X223733000Y-153810000D01*
X223257000Y-153468000D01*
X222705000Y-153073000D01*
X222089000Y-152633000D01*
X221421000Y-152155000D01*
X220711000Y-151648000D01*
X219971000Y-151119000D01*
X219211000Y-150577000D01*
X218443000Y-150029000D01*
X217677000Y-149482000D01*
X216925000Y-148946000D01*
X216198000Y-148428000D01*
X215507000Y-147935000D01*
X214862000Y-147477000D01*
X214276000Y-147059000D01*
X213759000Y-146692000D01*
X213322000Y-146382000D01*
X212976000Y-146137000D01*
X212733000Y-145965000D01*
X212602000Y-145874000D01*
X212583000Y-145862000D01*
X212557000Y-145938000D01*
X212484000Y-146156000D01*
X212368000Y-146506000D01*
X212212000Y-146978000D01*
X212018000Y-147561000D01*
X211792000Y-148245000D01*
X211535000Y-149020000D01*
X211252000Y-149876000D01*
X210945000Y-150802000D01*
X210619000Y-151789000D01*
X210276000Y-152826000D01*
X209920000Y-153903000D01*
X209554000Y-155010000D01*
X209182000Y-156136000D01*
X208806000Y-157271000D01*
X208432000Y-158406000D01*
X208060000Y-159529000D01*
X207696000Y-160631000D01*
X207343000Y-161702000D01*
X207003000Y-162731000D01*
X206681000Y-163708000D01*
X206379000Y-164622000D01*
X206101000Y-165465000D01*
X205850000Y-166224000D01*
X205630000Y-166891000D01*
X205445000Y-167455000D01*
X205296000Y-167906000D01*
X205189000Y-168233000D01*
X205126000Y-168427000D01*
X205109000Y-168478000D01*
X203872000Y-168478000D01*
X206120000Y-161688000D01*
X206740000Y-159814000D01*
X207312000Y-158087000D01*
X207837000Y-156499000D01*
X208318000Y-155047000D01*
X208756000Y-153722000D01*
X209153000Y-152521000D01*
X209512000Y-151436000D01*
X209834000Y-150462000D01*
X210121000Y-149593000D01*
X210375000Y-148823000D01*
X210598000Y-148146000D01*
X210792000Y-147556000D01*
X210960000Y-147048000D01*
X211102000Y-146615000D01*
X211221000Y-146251000D01*
X211318000Y-145951000D01*
X211397000Y-145709000D01*
X211458000Y-145518000D01*
X211503000Y-145373000D01*
X211536000Y-145268000D01*
X211556000Y-145197000D01*
X211568000Y-145155000D01*
X211571000Y-145134000D01*
X211571000Y-145130000D01*
X211505000Y-145081000D01*
X211315000Y-144944000D01*
X211009000Y-144724000D01*
X210592000Y-144425000D01*
X210073000Y-144053000D01*
X209458000Y-143612000D01*
X208754000Y-143107000D01*
X207967000Y-142544000D01*
X207105000Y-141926000D01*
X206174000Y-141260000D01*
X205181000Y-140550000D01*
X204134000Y-139801000D01*
X203038000Y-139017000D01*
X201902000Y-138204000D01*
X200971000Y-137539000D01*
X199805000Y-136705000D01*
X198674000Y-135896000D01*
X197584000Y-135116000D01*
X196542000Y-134371000D01*
X195556000Y-133665000D01*
X194633000Y-133003000D01*
X193779000Y-132391000D01*
X193001000Y-131833000D01*
X192306000Y-131334000D01*
X191702000Y-130900000D01*
X191195000Y-130535000D01*
X190793000Y-130244000D01*
X190543000Y-130063000D01*
X192512000Y-130063000D01*
X202243000Y-137021000D01*
X203358000Y-137819000D01*
X204438000Y-138591000D01*
X205474000Y-139331000D01*
X206460000Y-140036000D01*
X207388000Y-140700000D01*
X208252000Y-141317000D01*
X209044000Y-141882000D01*
X209756000Y-142392000D01*
X210383000Y-142839000D01*
X210916000Y-143220000D01*
X211349000Y-143529000D01*
X211675000Y-143761000D01*
X211885000Y-143911000D01*
X211974000Y-143974000D01*
X211977000Y-143976000D01*
X212002000Y-143901000D01*
X212074000Y-143684000D01*
X212189000Y-143337000D01*
X212344000Y-142869000D01*
X212535000Y-142292000D01*
X212758000Y-141616000D01*
X213011000Y-140852000D01*
X213289000Y-140010000D01*
X213590000Y-139102000D01*
X213909000Y-138137000D01*
X214243000Y-137127000D01*
X214278000Y-137021000D01*
X214613000Y-136006000D01*
X214933000Y-135036000D01*
X215235000Y-134121000D01*
X215515000Y-133272000D01*
X215770000Y-132499000D01*
X215996000Y-131813000D01*
X216189000Y-131224000D01*
X216346000Y-130744000D01*
X216464000Y-130384000D01*
X216539000Y-130153000D01*
X216568000Y-130062000D01*
X216568000Y-130061000D01*
X216488000Y-130060000D01*
X216257000Y-130060000D01*
X215883000Y-130059000D01*
X215375000Y-130058000D01*
X214742000Y-130058000D01*
X213992000Y-130057000D01*
X213135000Y-130057000D01*
X212178000Y-130057000D01*
X211132000Y-130057000D01*
X210004000Y-130057000D01*
X208804000Y-130057000D01*
X207539000Y-130057000D01*
X206220000Y-130058000D01*
X204854000Y-130058000D01*
X204536000Y-130058000D01*
X192512000Y-130063000D01*
X190543000Y-130063000D01*
X190501000Y-130033000D01*
X190327000Y-129906000D01*
X190278000Y-129869000D01*
X190167000Y-129736000D01*
X190130000Y-129645000D01*
X190115000Y-129352000D01*
X190242000Y-129094000D01*
X190425000Y-128946000D01*
X190510000Y-128901000D01*
X203738000Y-128896000D01*
X216965000Y-128891000D01*
X221040000Y-116561000D01*
X221489000Y-115201000D01*
X221925000Y-113883000D01*
X222345000Y-112613000D01*
X222747000Y-111400000D01*
X223127000Y-110252000D01*
X223482000Y-109178000D01*
X223811000Y-108184000D01*
X224111000Y-107280000D01*
X224379000Y-106473000D01*
X224611000Y-105772000D01*
X224807000Y-105184000D01*
X224962000Y-104719000D01*
X225074000Y-104382000D01*
X225141000Y-104184000D01*
X225160000Y-104130000D01*
X225303000Y-103926000D01*
X225412000Y-103851000D01*
X225687000Y-103782000D01*
X225868000Y-103808000D01*
G37*
%TD*%
D11*
%TO.C,C1*%
X127550000Y-116500000D03*
X129450000Y-116500000D03*
%TD*%
D12*
%TO.C,R1*%
X124825000Y-110000000D03*
X123000000Y-110000000D03*
%TD*%
D13*
%TO.C,D4*%
X168050000Y-127850000D03*
X168050000Y-131150000D03*
X172950000Y-131150000D03*
X172950000Y-127850000D03*
%TD*%
D11*
%TO.C,C9*%
X116550000Y-151500000D03*
X118450000Y-151500000D03*
%TD*%
D14*
%TO.C,H3*%
X150300000Y-153800000D03*
%TD*%
%TO.C,H2*%
X130000000Y-153800000D03*
%TD*%
D13*
%TO.C,D13*%
X150500000Y-142700000D03*
X150500000Y-146000000D03*
X155400000Y-146000000D03*
X155400000Y-142700000D03*
%TD*%
D14*
%TO.C,H1*%
X140000000Y-122600000D03*
%TD*%
D13*
%TO.C,D8*%
X120000000Y-163200000D03*
X120000000Y-166500000D03*
X124900000Y-166500000D03*
X124900000Y-163200000D03*
%TD*%
D11*
%TO.C,C2*%
X145550000Y-110000000D03*
X147450000Y-110000000D03*
%TD*%
D13*
%TO.C,D2*%
X142450000Y-110150000D03*
X142450000Y-106850000D03*
X137550000Y-106850000D03*
X137550000Y-110150000D03*
%TD*%
%TO.C,D11*%
X134500000Y-130500000D03*
X134500000Y-127200000D03*
X129600000Y-127200000D03*
X129600000Y-130500000D03*
%TD*%
%TO.C,D12*%
X150450000Y-130650000D03*
X150450000Y-127350000D03*
X145550000Y-127350000D03*
X145550000Y-130650000D03*
%TD*%
%TO.C,D15*%
X129400000Y-145500000D03*
X129400000Y-142200000D03*
X124500000Y-142200000D03*
X124500000Y-145500000D03*
%TD*%
D11*
%TO.C,C7*%
X138050000Y-166000000D03*
X139950000Y-166000000D03*
%TD*%
%TO.C,C10*%
X116100000Y-132000000D03*
X118000000Y-132000000D03*
%TD*%
%TO.C,C11*%
X137600000Y-130500000D03*
X139500000Y-130500000D03*
%TD*%
D13*
%TO.C,D6*%
X156550000Y-162850000D03*
X156550000Y-166150000D03*
X161450000Y-166150000D03*
X161450000Y-162850000D03*
%TD*%
D11*
%TO.C,C13*%
X150050000Y-139500000D03*
X151950000Y-139500000D03*
%TD*%
%TO.C,C15*%
X132050000Y-145500000D03*
X133950000Y-145500000D03*
%TD*%
D13*
%TO.C,D14*%
X137100000Y-152200000D03*
X137100000Y-155500000D03*
X142000000Y-155500000D03*
X142000000Y-152200000D03*
%TD*%
D15*
%TO.C,C3*%
X161450000Y-119000000D03*
X159550000Y-119000000D03*
%TD*%
%TO.C,C12*%
X150450000Y-134000000D03*
X148550000Y-134000000D03*
%TD*%
D11*
%TO.C,C5*%
X167550000Y-144500000D03*
X169450000Y-144500000D03*
%TD*%
D13*
%TO.C,D7*%
X138100000Y-169200000D03*
X138100000Y-172500000D03*
X143000000Y-172500000D03*
X143000000Y-169200000D03*
%TD*%
D11*
%TO.C,C8*%
X120050000Y-160000000D03*
X121950000Y-160000000D03*
%TD*%
%TO.C,C4*%
X168050000Y-125000000D03*
X169950000Y-125000000D03*
%TD*%
D13*
%TO.C,D9*%
X113450000Y-151150000D03*
X113450000Y-147850000D03*
X108550000Y-147850000D03*
X108550000Y-151150000D03*
%TD*%
%TO.C,D3*%
X161450000Y-115650000D03*
X161450000Y-112350000D03*
X156550000Y-112350000D03*
X156550000Y-115650000D03*
%TD*%
%TO.C,D10*%
X113400000Y-131500000D03*
X113400000Y-128200000D03*
X108500000Y-128200000D03*
X108500000Y-131500000D03*
%TD*%
%TO.C,D5*%
X167600000Y-147200000D03*
X167600000Y-150500000D03*
X172500000Y-150500000D03*
X172500000Y-147200000D03*
%TD*%
D11*
%TO.C,C14*%
X137050000Y-149000000D03*
X138950000Y-149000000D03*
%TD*%
%TO.C,C6*%
X156550000Y-160000000D03*
X158450000Y-160000000D03*
%TD*%
D13*
%TO.C,D1*%
X124450000Y-116150000D03*
X124450000Y-112850000D03*
X119550000Y-112850000D03*
X119550000Y-116150000D03*
%TD*%
D16*
%TO.C,J3*%
X118500000Y-136000000D03*
D17*
X116500000Y-136000000D03*
%TD*%
D18*
%TO.C,SW2*%
X116686385Y-169391144D03*
X114388252Y-167462782D03*
%TD*%
D19*
%TO.C,J2*%
X143070000Y-174350000D03*
X137290000Y-174350000D03*
D20*
X144500000Y-178000000D03*
D21*
X144500000Y-173820000D03*
D20*
X135860000Y-178000000D03*
D21*
X135860000Y-173820000D03*
%TD*%
M02*
