M48
; DRILL file {KiCad 8.0.8} date 2025-04-09T13:22:35+0200
; FORMAT={-:-/ absolute / metric / decimal}
; #@! TF.CreationDate,2025-04-09T13:22:35+02:00
; #@! TF.GenerationSoftware,Kicad,Pcbnew,8.0.8
; #@! TF.FileFunction,Plated,1,2,PTH
FMAT,2
METRIC
; #@! TA.AperFunction,Plated,PTH,ViaDrill
T1C0.300
; #@! TA.AperFunction,Plated,PTH,ComponentDrill
T2C0.600
; #@! TA.AperFunction,Plated,PTH,ComponentDrill
T3C0.750
; #@! TA.AperFunction,Plated,PTH,ComponentDrill
T4C0.850
%
G90
G05
T1
X106.4Y-152.45
X106.45Y-143.9
X106.5Y-128.0
X107.0Y-135.5
X107.0Y-148.0
X107.5Y-137.0
X107.5Y-144.5
X108.0Y-146.5
X108.5Y-126.5
X108.5Y-137.0
X108.5Y-139.5
X108.5Y-149.0
X109.5Y-144.5
X110.0Y-148.0
X110.5Y-128.0
X110.9Y-135.9
X111.0Y-144.5
X112.0Y-137.5
X112.0Y-143.0
X112.0Y-157.0
X113.5Y-155.5
X113.5Y-158.5
X114.5Y-141.0
X118.0Y-133.5
X118.0Y-153.5
X118.0Y-156.0
X119.5Y-114.0
X119.5Y-132.0
X119.75Y-164.55
X120.5Y-108.0
X121.0Y-113.0
X121.4Y-129.8
X121.5Y-114.5
X122.0Y-142.5
X122.0Y-143.4
X122.0Y-161.5
X122.4Y-129.0
X122.4Y-129.8
X122.5Y-158.5
X123.0Y-141.0
X123.0Y-166.5
X123.4Y-128.2
X123.4Y-129.0
X123.4Y-129.8
X123.5Y-160.0
X124.5Y-132.0
X124.5Y-140.0
X125.0Y-122.6
X125.0Y-165.0
X125.0Y-168.5
X126.0Y-132.0
X126.0Y-140.0
X126.5Y-142.0
X126.6Y-121.8
X127.0Y-129.0
X127.0Y-166.5
X128.0Y-121.0
X129.4Y-120.2
X129.5Y-125.5
X130.0Y-131.5
X130.0Y-136.5
X132.5Y-132.5
X132.5Y-136.5
X132.5Y-165.5
X133.0Y-104.5
X134.0Y-167.0
X134.6Y-107.9
X135.5Y-128.9
X135.5Y-145.5
X135.6Y-168.4
X136.5Y-144.0
X136.5Y-147.5
X137.0Y-121.0
X137.3Y-133.3
X137.4Y-123.5
X137.5Y-146.5
X137.6Y-171.4
X138.0Y-104.0
X138.0Y-118.0
X138.0Y-144.5
X138.0Y-145.5
X138.3Y-175.0
X138.6Y-131.7
X139.0Y-175.0
X139.434Y-156.066
X139.7Y-171.5
X139.7Y-175.0
X140.0Y-105.0
X140.0Y-145.0
X140.4Y-175.0
X140.5Y-141.0
X140.5Y-154.5
X140.6Y-131.2
X140.8Y-126.1
X140.8Y-128.1
X141.08Y-171.401
X141.1Y-175.0
X141.5Y-148.0
X141.8Y-175.0
X142.0Y-154.0
X142.46Y-171.46
X143.0Y-137.0
X143.0Y-167.2
X144.0Y-130.0
X144.0Y-139.5
X144.7Y-171.9
X145.0Y-126.0
X145.0Y-144.5
X145.0Y-164.0
X145.5Y-129.0
X145.9Y-167.5
X146.5Y-165.0
X147.0Y-134.0
X147.0Y-158.5
X147.5Y-108.5
X148.5Y-132.5
X148.5Y-135.5
X149.0Y-160.0
X149.495Y-170.208
X150.0Y-113.0
X151.5Y-166.983
X151.536Y-175.022
X152.0Y-109.0
X152.0Y-137.5
X152.0Y-141.0
X152.5Y-106.0
X152.62Y-166.932
X153.0Y-105.0
X153.0Y-109.5
X153.0Y-126.0
X153.0Y-175.5
X153.5Y-108.0
X153.5Y-139.5
X154.0Y-146.0
X154.414Y-170.973
X154.5Y-107.0
X154.5Y-112.0
X155.0Y-108.5
X155.0Y-171.5
X155.5Y-147.5
X156.0Y-107.5
X156.0Y-110.5
X156.5Y-114.0
X157.0Y-146.0
X157.5Y-106.5
X158.0Y-119.0
X158.5Y-112.5
X159.5Y-117.5
X159.5Y-120.5
X159.5Y-166.0
X161.5Y-168.0
X164.0Y-166.0
X169.5Y-146.5
X170.0Y-123.5
X170.0Y-126.5
X170.5Y-150.5
X171.0Y-131.0
X171.0Y-144.5
X171.5Y-125.0
X172.5Y-152.5
X173.0Y-129.5
X173.0Y-132.5
X174.5Y-131.0
X174.5Y-150.5
T3
X116.5Y-136.0
X118.5Y-136.0
T4
X114.388Y-167.463
X116.686Y-169.391
T2
X135.86Y-174.37G85X135.86Y-173.27
G05
X135.86Y-178.3G85X135.86Y-177.7
G05
X144.5Y-174.37G85X144.5Y-173.27
G05
X144.5Y-178.3G85X144.5Y-177.7
G05
M30
