%TF.GenerationSoftware,KiCad,Pcbnew,8.0.8*%
%TF.CreationDate,2025-04-01T18:23:48+02:00*%
%TF.ProjectId,Haibadge_B,48616962-6164-4676-955f-422e6b696361,rev?*%
%TF.SameCoordinates,Original*%
%TF.FileFunction,Drillmap*%
%TF.FilePolarity,Positive*%
%FSLAX45Y45*%
G04 Gerber Fmt 4.5, Leading zero omitted, Abs format (unit mm)*
G04 Created by KiCad (PCBNEW 8.0.8) date 2025-04-01 18:23:48*
%MOMM*%
%LPD*%
G01*
G04 APERTURE LIST*
%ADD10C,0.100000*%
%ADD11C,0.200000*%
G04 APERTURE END LIST*
D10*
X14080700Y-10002400D02*
X14169100Y-10005300D01*
X14257000Y-10010100D01*
X14344400Y-10016800D01*
X14431300Y-10025300D01*
X14517600Y-10035700D01*
X14603300Y-10048000D01*
X14688500Y-10062000D01*
X14773000Y-10077800D01*
X14856900Y-10095400D01*
X14940100Y-10114800D01*
X15022700Y-10135800D01*
X15104500Y-10158600D01*
X15185700Y-10183100D01*
X15266100Y-10209200D01*
X15345700Y-10237000D01*
X15424600Y-10266400D01*
X15502700Y-10297400D01*
X15579900Y-10329900D01*
X15656300Y-10364100D01*
X15731900Y-10399800D01*
X15806600Y-10437000D01*
X15880400Y-10475700D01*
X15953200Y-10516000D01*
X16025200Y-10557600D01*
X16096200Y-10600800D01*
X16166200Y-10645300D01*
X16235200Y-10691200D01*
X16303100Y-10738600D01*
X16370100Y-10787300D01*
X16436000Y-10837300D01*
X16500800Y-10888700D01*
X16564500Y-10941400D01*
X16627100Y-10995300D01*
X16688500Y-11050500D01*
X16748800Y-11107000D01*
X16807900Y-11164700D01*
X16865800Y-11223600D01*
X16922500Y-11283600D01*
X16978000Y-11344900D01*
X17032200Y-11407200D01*
X17085100Y-11470700D01*
X17136700Y-11535300D01*
X17187000Y-11601000D01*
X17235900Y-11667800D01*
X17283500Y-11735500D01*
X17329700Y-11804400D01*
X17374500Y-11874200D01*
X17417900Y-11945000D01*
X17459900Y-12016700D01*
X17500400Y-12089400D01*
X17539400Y-12163000D01*
X17576900Y-12237500D01*
X17612900Y-12312900D01*
X17647300Y-12389200D01*
X17680200Y-12466300D01*
X17711500Y-12544200D01*
X17741200Y-12623000D01*
X17769300Y-12702500D01*
X17795700Y-12782700D01*
X17820500Y-12863700D01*
X17843600Y-12945500D01*
X17865000Y-13027900D01*
X17884600Y-13111000D01*
X17902600Y-13194800D01*
X17918700Y-13279200D01*
X17933100Y-13364200D01*
X17945700Y-13449800D01*
X17956400Y-13536000D01*
X17965300Y-13622800D01*
X17972400Y-13710100D01*
X17977500Y-13797900D01*
X17980800Y-13886200D01*
X17982100Y-13975000D01*
X17982200Y-13991800D01*
X17981200Y-14080700D01*
X17978300Y-14169100D01*
X17973500Y-14257000D01*
X17966800Y-14344400D01*
X17958200Y-14431300D01*
X17947800Y-14517600D01*
X17935600Y-14603300D01*
X17921600Y-14688500D01*
X17905700Y-14773000D01*
X17888100Y-14856900D01*
X17868800Y-14940100D01*
X17847700Y-15022700D01*
X17825000Y-15104500D01*
X17800500Y-15185700D01*
X17774400Y-15266100D01*
X17746600Y-15345700D01*
X17717200Y-15424600D01*
X17686200Y-15502700D01*
X17653600Y-15579900D01*
X17619500Y-15656300D01*
X17583800Y-15731900D01*
X17546600Y-15806600D01*
X17507800Y-15880400D01*
X17467600Y-15953200D01*
X17425900Y-16025200D01*
X17382800Y-16096200D01*
X17338300Y-16166200D01*
X17292300Y-16235200D01*
X17245000Y-16303100D01*
X17196300Y-16370100D01*
X17146300Y-16436000D01*
X17094900Y-16500800D01*
X17042200Y-16564500D01*
X16988300Y-16627100D01*
X16933100Y-16688500D01*
X16876600Y-16748800D01*
X16818900Y-16807900D01*
X16760000Y-16865800D01*
X16700000Y-16922500D01*
X16638700Y-16978000D01*
X16576300Y-17032200D01*
X16512800Y-17085100D01*
X16448200Y-17136700D01*
X16382600Y-17187000D01*
X16315800Y-17235900D01*
X16248000Y-17283500D01*
X16179200Y-17329700D01*
X16109400Y-17374500D01*
X16038600Y-17417900D01*
X15966900Y-17459900D01*
X15894200Y-17500400D01*
X15820600Y-17539400D01*
X15746000Y-17576900D01*
X15670600Y-17612900D01*
X15594400Y-17647300D01*
X15517300Y-17680200D01*
X15439300Y-17711500D01*
X15360600Y-17741200D01*
X15281100Y-17769300D01*
X15200900Y-17795700D01*
X15119800Y-17820500D01*
X15038100Y-17843600D01*
X14955700Y-17865000D01*
X14872600Y-17884600D01*
X14788800Y-17902600D01*
X14704400Y-17918700D01*
X14619400Y-17933100D01*
X14533800Y-17945700D01*
X14447600Y-17956400D01*
X14360800Y-17965300D01*
X14273500Y-17972400D01*
X14185700Y-17977500D01*
X14097400Y-17980800D01*
X14008600Y-17982100D01*
X13991800Y-17982200D01*
X13902900Y-17981200D01*
X13814500Y-17978300D01*
X13726600Y-17973500D01*
X13639200Y-17966800D01*
X13552300Y-17958200D01*
X13466000Y-17947800D01*
X13380300Y-17935600D01*
X13295100Y-17921600D01*
X13210600Y-17905700D01*
X13126700Y-17888100D01*
X13043500Y-17868800D01*
X12960900Y-17847700D01*
X12879100Y-17825000D01*
X12797900Y-17800500D01*
X12717500Y-17774400D01*
X12637900Y-17746600D01*
X12559000Y-17717200D01*
X12480900Y-17686200D01*
X12403700Y-17653600D01*
X12327200Y-17619500D01*
X12251700Y-17583800D01*
X12177000Y-17546600D01*
X12103200Y-17507800D01*
X12030300Y-17467600D01*
X11958400Y-17425900D01*
X11887400Y-17382800D01*
X11817400Y-17338300D01*
X11748400Y-17292300D01*
X11680400Y-17245000D01*
X11613500Y-17196300D01*
X11547600Y-17146300D01*
X11482800Y-17094900D01*
X11419100Y-17042200D01*
X11356500Y-16988300D01*
X11295100Y-16933100D01*
X11234800Y-16876600D01*
X11175700Y-16818900D01*
X11117800Y-16760000D01*
X11061100Y-16700000D01*
X11005600Y-16638700D01*
X10951400Y-16576300D01*
X10898500Y-16512800D01*
X10846900Y-16448200D01*
X10796600Y-16382600D01*
X10747700Y-16315800D01*
X10700100Y-16248000D01*
X10653800Y-16179200D01*
X10609000Y-16109400D01*
X10565600Y-16038600D01*
X10523700Y-15966900D01*
X10483200Y-15894200D01*
X10444200Y-15820600D01*
X10406700Y-15746000D01*
X10370700Y-15670600D01*
X10336300Y-15594400D01*
X10303400Y-15517300D01*
X10272100Y-15439300D01*
X10242400Y-15360600D01*
X10214300Y-15281100D01*
X10187900Y-15200900D01*
X10163100Y-15119800D01*
X10140000Y-15038100D01*
X10118600Y-14955700D01*
X10098900Y-14872600D01*
X10081000Y-14788800D01*
X10064900Y-14704400D01*
X10050500Y-14619400D01*
X10037900Y-14533800D01*
X10027200Y-14447600D01*
X10018200Y-14360800D01*
X10011200Y-14273500D01*
X10006000Y-14185700D01*
X10002800Y-14097400D01*
X10001400Y-14008600D01*
X10001400Y-13991800D01*
X10002400Y-13902900D01*
X10005300Y-13814500D01*
X10010100Y-13726600D01*
X10016800Y-13639200D01*
X10025300Y-13552300D01*
X10035700Y-13466000D01*
X10048000Y-13380300D01*
X10062000Y-13295100D01*
X10077800Y-13210600D01*
X10095400Y-13126700D01*
X10114800Y-13043500D01*
X10135800Y-12960900D01*
X10158600Y-12879100D01*
X10183100Y-12797900D01*
X10209200Y-12717500D01*
X10237000Y-12637900D01*
X10266400Y-12559000D01*
X10297400Y-12480900D01*
X10329900Y-12403700D01*
X10364100Y-12327200D01*
X10399800Y-12251700D01*
X10437000Y-12177000D01*
X10475700Y-12103200D01*
X10516000Y-12030300D01*
X10557600Y-11958400D01*
X10600800Y-11887400D01*
X10645300Y-11817400D01*
X10691200Y-11748400D01*
X10738600Y-11680400D01*
X10787300Y-11613500D01*
X10837300Y-11547600D01*
X10888700Y-11482800D01*
X10941400Y-11419100D01*
X10995300Y-11356500D01*
X11050500Y-11295100D01*
X11107000Y-11234800D01*
X11164700Y-11175700D01*
X11223600Y-11117800D01*
X11283600Y-11061100D01*
X11344900Y-11005600D01*
X11407200Y-10951400D01*
X11470700Y-10898500D01*
X11535300Y-10846900D01*
X11601000Y-10796600D01*
X11667800Y-10747700D01*
X11735500Y-10700100D01*
X11804400Y-10653800D01*
X11874200Y-10609000D01*
X11945000Y-10565600D01*
X12016700Y-10523700D01*
X12089400Y-10483200D01*
X12163000Y-10444200D01*
X12237500Y-10406700D01*
X12312900Y-10370700D01*
X12389200Y-10336300D01*
X12466300Y-10303400D01*
X12544200Y-10272100D01*
X12623000Y-10242400D01*
X12702500Y-10214300D01*
X12782700Y-10187900D01*
X12863700Y-10163100D01*
X12945500Y-10140000D01*
X13027900Y-10118600D01*
X13111000Y-10098900D01*
X13194800Y-10081000D01*
X13279200Y-10064900D01*
X13364200Y-10050500D01*
X13449800Y-10037900D01*
X13536000Y-10027200D01*
X13622800Y-10018200D01*
X13710100Y-10011200D01*
X13797900Y-10006000D01*
X13886200Y-10002800D01*
X13975000Y-10001400D01*
X13991800Y-10001400D01*
X14080700Y-10002400D01*
D11*
D10*
X10625000Y-15230000D02*
X10655000Y-15260000D01*
X10655000Y-15230000D02*
X10625000Y-15260000D01*
X10630000Y-14375000D02*
X10660000Y-14405000D01*
X10660000Y-14375000D02*
X10630000Y-14405000D01*
X10635000Y-12785000D02*
X10665000Y-12815000D01*
X10665000Y-12785000D02*
X10635000Y-12815000D01*
X10685000Y-13535000D02*
X10715000Y-13565000D01*
X10715000Y-13535000D02*
X10685000Y-13565000D01*
X10685000Y-14785000D02*
X10715000Y-14815000D01*
X10715000Y-14785000D02*
X10685000Y-14815000D01*
X10735000Y-13685000D02*
X10765000Y-13715000D01*
X10765000Y-13685000D02*
X10735000Y-13715000D01*
X10735000Y-14435000D02*
X10765000Y-14465000D01*
X10765000Y-14435000D02*
X10735000Y-14465000D01*
X10785000Y-14635000D02*
X10815000Y-14665000D01*
X10815000Y-14635000D02*
X10785000Y-14665000D01*
X10835000Y-12635000D02*
X10865000Y-12665000D01*
X10865000Y-12635000D02*
X10835000Y-12665000D01*
X10835000Y-13685000D02*
X10865000Y-13715000D01*
X10865000Y-13685000D02*
X10835000Y-13715000D01*
X10835000Y-13935000D02*
X10865000Y-13965000D01*
X10865000Y-13935000D02*
X10835000Y-13965000D01*
X10835000Y-14885000D02*
X10865000Y-14915000D01*
X10865000Y-14885000D02*
X10835000Y-14915000D01*
X10935000Y-14435000D02*
X10965000Y-14465000D01*
X10965000Y-14435000D02*
X10935000Y-14465000D01*
X10985000Y-14785000D02*
X11015000Y-14815000D01*
X11015000Y-14785000D02*
X10985000Y-14815000D01*
X11035000Y-12785000D02*
X11065000Y-12815000D01*
X11065000Y-12785000D02*
X11035000Y-12815000D01*
X11075000Y-13575000D02*
X11105000Y-13605000D01*
X11105000Y-13575000D02*
X11075000Y-13605000D01*
X11085000Y-14435000D02*
X11115000Y-14465000D01*
X11115000Y-14435000D02*
X11085000Y-14465000D01*
X11185000Y-13735000D02*
X11215000Y-13765000D01*
X11215000Y-13735000D02*
X11185000Y-13765000D01*
X11185000Y-14285000D02*
X11215000Y-14315000D01*
X11215000Y-14285000D02*
X11185000Y-14315000D01*
X11185000Y-15685000D02*
X11215000Y-15715000D01*
X11215000Y-15685000D02*
X11185000Y-15715000D01*
X11335000Y-15535000D02*
X11365000Y-15565000D01*
X11365000Y-15535000D02*
X11335000Y-15565000D01*
X11335000Y-15835000D02*
X11365000Y-15865000D01*
X11365000Y-15835000D02*
X11335000Y-15865000D01*
X11435000Y-14085000D02*
X11465000Y-14115000D01*
X11465000Y-14085000D02*
X11435000Y-14115000D01*
X11785000Y-13335000D02*
X11815000Y-13365000D01*
X11815000Y-13335000D02*
X11785000Y-13365000D01*
X11785000Y-15335000D02*
X11815000Y-15365000D01*
X11815000Y-15335000D02*
X11785000Y-15365000D01*
X11785000Y-15585000D02*
X11815000Y-15615000D01*
X11815000Y-15585000D02*
X11785000Y-15615000D01*
X11935000Y-11385000D02*
X11965000Y-11415000D01*
X11965000Y-11385000D02*
X11935000Y-11415000D01*
X11935000Y-13185000D02*
X11965000Y-13215000D01*
X11965000Y-13185000D02*
X11935000Y-13215000D01*
X11960000Y-16440000D02*
X11990000Y-16470000D01*
X11990000Y-16440000D02*
X11960000Y-16470000D01*
X12035000Y-10785000D02*
X12065000Y-10815000D01*
X12065000Y-10785000D02*
X12035000Y-10815000D01*
X12085000Y-11285000D02*
X12115000Y-11315000D01*
X12115000Y-11285000D02*
X12085000Y-11315000D01*
X12125000Y-12965000D02*
X12155000Y-12995000D01*
X12155000Y-12965000D02*
X12125000Y-12995000D01*
X12135000Y-11435000D02*
X12165000Y-11465000D01*
X12165000Y-11435000D02*
X12135000Y-11465000D01*
X12185000Y-14235000D02*
X12215000Y-14265000D01*
X12215000Y-14235000D02*
X12185000Y-14265000D01*
X12185000Y-14325000D02*
X12215000Y-14355000D01*
X12215000Y-14325000D02*
X12185000Y-14355000D01*
X12185000Y-16135000D02*
X12215000Y-16165000D01*
X12215000Y-16135000D02*
X12185000Y-16165000D01*
X12225000Y-12885000D02*
X12255000Y-12915000D01*
X12255000Y-12885000D02*
X12225000Y-12915000D01*
X12225000Y-12965000D02*
X12255000Y-12995000D01*
X12255000Y-12965000D02*
X12225000Y-12995000D01*
X12235000Y-15835000D02*
X12265000Y-15865000D01*
X12265000Y-15835000D02*
X12235000Y-15865000D01*
X12285000Y-14085000D02*
X12315000Y-14115000D01*
X12315000Y-14085000D02*
X12285000Y-14115000D01*
X12285000Y-16635000D02*
X12315000Y-16665000D01*
X12315000Y-16635000D02*
X12285000Y-16665000D01*
X12325000Y-12805000D02*
X12355000Y-12835000D01*
X12355000Y-12805000D02*
X12325000Y-12835000D01*
X12325000Y-12885000D02*
X12355000Y-12915000D01*
X12355000Y-12885000D02*
X12325000Y-12915000D01*
X12325000Y-12965000D02*
X12355000Y-12995000D01*
X12355000Y-12965000D02*
X12325000Y-12995000D01*
X12335000Y-15985000D02*
X12365000Y-16015000D01*
X12365000Y-15985000D02*
X12335000Y-16015000D01*
X12435000Y-13185000D02*
X12465000Y-13215000D01*
X12465000Y-13185000D02*
X12435000Y-13215000D01*
X12435000Y-13985000D02*
X12465000Y-14015000D01*
X12465000Y-13985000D02*
X12435000Y-14015000D01*
X12485000Y-12245000D02*
X12515000Y-12275000D01*
X12515000Y-12245000D02*
X12485000Y-12275000D01*
X12485000Y-16485000D02*
X12515000Y-16515000D01*
X12515000Y-16485000D02*
X12485000Y-16515000D01*
X12485000Y-16835000D02*
X12515000Y-16865000D01*
X12515000Y-16835000D02*
X12485000Y-16865000D01*
X12585000Y-13185000D02*
X12615000Y-13215000D01*
X12615000Y-13185000D02*
X12585000Y-13215000D01*
X12585000Y-13985000D02*
X12615000Y-14015000D01*
X12615000Y-13985000D02*
X12585000Y-14015000D01*
X12635000Y-14185000D02*
X12665000Y-14215000D01*
X12665000Y-14185000D02*
X12635000Y-14215000D01*
X12645000Y-12165000D02*
X12675000Y-12195000D01*
X12675000Y-12165000D02*
X12645000Y-12195000D01*
X12685000Y-12885000D02*
X12715000Y-12915000D01*
X12715000Y-12885000D02*
X12685000Y-12915000D01*
X12685000Y-16635000D02*
X12715000Y-16665000D01*
X12715000Y-16635000D02*
X12685000Y-16665000D01*
X12785000Y-12085000D02*
X12815000Y-12115000D01*
X12815000Y-12085000D02*
X12785000Y-12115000D01*
X12925000Y-12005000D02*
X12955000Y-12035000D01*
X12955000Y-12005000D02*
X12925000Y-12035000D01*
X12935000Y-12535000D02*
X12965000Y-12565000D01*
X12965000Y-12535000D02*
X12935000Y-12565000D01*
X12985000Y-13135000D02*
X13015000Y-13165000D01*
X13015000Y-13135000D02*
X12985000Y-13165000D01*
X12985000Y-13635000D02*
X13015000Y-13665000D01*
X13015000Y-13635000D02*
X12985000Y-13665000D01*
X13235000Y-13235000D02*
X13265000Y-13265000D01*
X13265000Y-13235000D02*
X13235000Y-13265000D01*
X13235000Y-13635000D02*
X13265000Y-13665000D01*
X13265000Y-13635000D02*
X13235000Y-13665000D01*
X13235000Y-16535000D02*
X13265000Y-16565000D01*
X13265000Y-16535000D02*
X13235000Y-16565000D01*
X13285000Y-10435000D02*
X13315000Y-10465000D01*
X13315000Y-10435000D02*
X13285000Y-10465000D01*
X13385000Y-16685000D02*
X13415000Y-16715000D01*
X13415000Y-16685000D02*
X13385000Y-16715000D01*
X13445000Y-10775000D02*
X13475000Y-10805000D01*
X13475000Y-10775000D02*
X13445000Y-10805000D01*
X13535000Y-12875000D02*
X13565000Y-12905000D01*
X13565000Y-12875000D02*
X13535000Y-12905000D01*
X13535000Y-14535000D02*
X13565000Y-14565000D01*
X13565000Y-14535000D02*
X13535000Y-14565000D01*
X13545000Y-16825000D02*
X13575000Y-16855000D01*
X13575000Y-16825000D02*
X13545000Y-16855000D01*
X13635000Y-14385000D02*
X13665000Y-14415000D01*
X13665000Y-14385000D02*
X13635000Y-14415000D01*
X13635000Y-14735000D02*
X13665000Y-14765000D01*
X13665000Y-14735000D02*
X13635000Y-14765000D01*
X13685000Y-12085000D02*
X13715000Y-12115000D01*
X13715000Y-12085000D02*
X13685000Y-12115000D01*
X13715000Y-13315000D02*
X13745000Y-13345000D01*
X13745000Y-13315000D02*
X13715000Y-13345000D01*
X13725000Y-12335000D02*
X13755000Y-12365000D01*
X13755000Y-12335000D02*
X13725000Y-12365000D01*
X13735000Y-14635000D02*
X13765000Y-14665000D01*
X13765000Y-14635000D02*
X13735000Y-14665000D01*
X13745000Y-17125000D02*
X13775000Y-17155000D01*
X13775000Y-17125000D02*
X13745000Y-17155000D01*
X13785000Y-10385000D02*
X13815000Y-10415000D01*
X13815000Y-10385000D02*
X13785000Y-10415000D01*
X13785000Y-11785000D02*
X13815000Y-11815000D01*
X13815000Y-11785000D02*
X13785000Y-11815000D01*
X13785000Y-14435000D02*
X13815000Y-14465000D01*
X13815000Y-14435000D02*
X13785000Y-14465000D01*
X13785000Y-14535000D02*
X13815000Y-14565000D01*
X13815000Y-14535000D02*
X13785000Y-14565000D01*
X13815000Y-17485000D02*
X13845000Y-17515000D01*
X13845000Y-17485000D02*
X13815000Y-17515000D01*
X13845000Y-13155000D02*
X13875000Y-13185000D01*
X13875000Y-13155000D02*
X13845000Y-13185000D01*
X13885000Y-17485000D02*
X13915000Y-17515000D01*
X13915000Y-17485000D02*
X13885000Y-17515000D01*
X13928431Y-15591569D02*
X13958431Y-15621569D01*
X13958431Y-15591569D02*
X13928431Y-15621569D01*
X13955000Y-17135000D02*
X13985000Y-17165000D01*
X13985000Y-17135000D02*
X13955000Y-17165000D01*
X13955000Y-17485000D02*
X13985000Y-17515000D01*
X13985000Y-17485000D02*
X13955000Y-17515000D01*
X13985000Y-10485000D02*
X14015000Y-10515000D01*
X14015000Y-10485000D02*
X13985000Y-10515000D01*
X13985000Y-14485000D02*
X14015000Y-14515000D01*
X14015000Y-14485000D02*
X13985000Y-14515000D01*
X14025000Y-17485000D02*
X14055000Y-17515000D01*
X14055000Y-17485000D02*
X14025000Y-17515000D01*
X14035000Y-14085000D02*
X14065000Y-14115000D01*
X14065000Y-14085000D02*
X14035000Y-14115000D01*
X14035000Y-15435000D02*
X14065000Y-15465000D01*
X14065000Y-15435000D02*
X14035000Y-15465000D01*
X14045000Y-13105000D02*
X14075000Y-13135000D01*
X14075000Y-13105000D02*
X14045000Y-13135000D01*
X14065000Y-12595000D02*
X14095000Y-12625000D01*
X14095000Y-12595000D02*
X14065000Y-12625000D01*
X14065000Y-12795000D02*
X14095000Y-12825000D01*
X14095000Y-12795000D02*
X14065000Y-12825000D01*
X14093000Y-17125076D02*
X14123000Y-17155076D01*
X14123000Y-17125076D02*
X14093000Y-17155076D01*
X14095000Y-17485000D02*
X14125000Y-17515000D01*
X14125000Y-17485000D02*
X14095000Y-17515000D01*
X14135000Y-14785000D02*
X14165000Y-14815000D01*
X14165000Y-14785000D02*
X14135000Y-14815000D01*
X14165000Y-17485000D02*
X14195000Y-17515000D01*
X14195000Y-17485000D02*
X14165000Y-17515000D01*
X14185000Y-15385000D02*
X14215000Y-15415000D01*
X14215000Y-15385000D02*
X14185000Y-15415000D01*
X14230962Y-17130962D02*
X14260962Y-17160962D01*
X14260962Y-17130962D02*
X14230962Y-17160962D01*
X14285000Y-13685000D02*
X14315000Y-13715000D01*
X14315000Y-13685000D02*
X14285000Y-13715000D01*
X14285000Y-16705000D02*
X14315000Y-16735000D01*
X14315000Y-16705000D02*
X14285000Y-16735000D01*
X14385000Y-12985000D02*
X14415000Y-13015000D01*
X14415000Y-12985000D02*
X14385000Y-13015000D01*
X14385000Y-13935000D02*
X14415000Y-13965000D01*
X14415000Y-13935000D02*
X14385000Y-13965000D01*
X14455000Y-17175000D02*
X14485000Y-17205000D01*
X14485000Y-17175000D02*
X14455000Y-17205000D01*
X14485000Y-12585000D02*
X14515000Y-12615000D01*
X14515000Y-12585000D02*
X14485000Y-12615000D01*
X14485000Y-14435000D02*
X14515000Y-14465000D01*
X14515000Y-14435000D02*
X14485000Y-14465000D01*
X14485000Y-16385000D02*
X14515000Y-16415000D01*
X14515000Y-16385000D02*
X14485000Y-16415000D01*
X14535000Y-12885000D02*
X14565000Y-12915000D01*
X14565000Y-12885000D02*
X14535000Y-12915000D01*
X14575000Y-16735000D02*
X14605000Y-16765000D01*
X14605000Y-16735000D02*
X14575000Y-16765000D01*
X14635000Y-16485000D02*
X14665000Y-16515000D01*
X14665000Y-16485000D02*
X14635000Y-16515000D01*
X14685000Y-13385000D02*
X14715000Y-13415000D01*
X14715000Y-13385000D02*
X14685000Y-13415000D01*
X14685000Y-15835000D02*
X14715000Y-15865000D01*
X14715000Y-15835000D02*
X14685000Y-15865000D01*
X14735000Y-10835000D02*
X14765000Y-10865000D01*
X14765000Y-10835000D02*
X14735000Y-10865000D01*
X14835000Y-13235000D02*
X14865000Y-13265000D01*
X14865000Y-13235000D02*
X14835000Y-13265000D01*
X14835000Y-13535000D02*
X14865000Y-13565000D01*
X14865000Y-13535000D02*
X14835000Y-13565000D01*
X14885000Y-15985000D02*
X14915000Y-16015000D01*
X14915000Y-15985000D02*
X14885000Y-16015000D01*
X14934458Y-17005789D02*
X14964458Y-17035789D01*
X14964458Y-17005789D02*
X14934458Y-17035789D01*
X14985000Y-11285000D02*
X15015000Y-11315000D01*
X15015000Y-11285000D02*
X14985000Y-11315000D01*
X15135000Y-16683326D02*
X15165000Y-16713326D01*
X15165000Y-16683326D02*
X15135000Y-16713326D01*
X15138638Y-17487165D02*
X15168638Y-17517165D01*
X15168638Y-17487165D02*
X15138638Y-17517165D01*
X15185000Y-10885000D02*
X15215000Y-10915000D01*
X15215000Y-10885000D02*
X15185000Y-10915000D01*
X15185000Y-13735000D02*
X15215000Y-13765000D01*
X15215000Y-13735000D02*
X15185000Y-13765000D01*
X15185000Y-14085000D02*
X15215000Y-14115000D01*
X15215000Y-14085000D02*
X15185000Y-14115000D01*
X15235000Y-10585000D02*
X15265000Y-10615000D01*
X15265000Y-10585000D02*
X15235000Y-10615000D01*
X15247038Y-16678232D02*
X15277038Y-16708232D01*
X15277038Y-16678232D02*
X15247038Y-16708232D01*
X15285000Y-10485000D02*
X15315000Y-10515000D01*
X15315000Y-10485000D02*
X15285000Y-10515000D01*
X15285000Y-10935000D02*
X15315000Y-10965000D01*
X15315000Y-10935000D02*
X15285000Y-10965000D01*
X15285000Y-12585000D02*
X15315000Y-12615000D01*
X15315000Y-12585000D02*
X15285000Y-12615000D01*
X15285000Y-17535000D02*
X15315000Y-17565000D01*
X15315000Y-17535000D02*
X15285000Y-17565000D01*
X15335000Y-10785000D02*
X15365000Y-10815000D01*
X15365000Y-10785000D02*
X15335000Y-10815000D01*
X15335000Y-13935000D02*
X15365000Y-13965000D01*
X15365000Y-13935000D02*
X15335000Y-13965000D01*
X15385000Y-14585000D02*
X15415000Y-14615000D01*
X15415000Y-14585000D02*
X15385000Y-14615000D01*
X15426429Y-17082322D02*
X15456429Y-17112322D01*
X15456429Y-17082322D02*
X15426429Y-17112322D01*
X15435000Y-10685000D02*
X15465000Y-10715000D01*
X15465000Y-10685000D02*
X15435000Y-10715000D01*
X15435000Y-11185000D02*
X15465000Y-11215000D01*
X15465000Y-11185000D02*
X15435000Y-11215000D01*
X15485000Y-10835000D02*
X15515000Y-10865000D01*
X15515000Y-10835000D02*
X15485000Y-10865000D01*
X15485000Y-17135000D02*
X15515000Y-17165000D01*
X15515000Y-17135000D02*
X15485000Y-17165000D01*
X15535000Y-14735000D02*
X15565000Y-14765000D01*
X15565000Y-14735000D02*
X15535000Y-14765000D01*
X15585000Y-10735000D02*
X15615000Y-10765000D01*
X15615000Y-10735000D02*
X15585000Y-10765000D01*
X15585000Y-11035000D02*
X15615000Y-11065000D01*
X15615000Y-11035000D02*
X15585000Y-11065000D01*
X15635000Y-11385000D02*
X15665000Y-11415000D01*
X15665000Y-11385000D02*
X15635000Y-11415000D01*
X15685000Y-14585000D02*
X15715000Y-14615000D01*
X15715000Y-14585000D02*
X15685000Y-14615000D01*
X15735000Y-10635000D02*
X15765000Y-10665000D01*
X15765000Y-10635000D02*
X15735000Y-10665000D01*
X15785000Y-11885000D02*
X15815000Y-11915000D01*
X15815000Y-11885000D02*
X15785000Y-11915000D01*
X15835000Y-11235000D02*
X15865000Y-11265000D01*
X15865000Y-11235000D02*
X15835000Y-11265000D01*
X15935000Y-11735000D02*
X15965000Y-11765000D01*
X15965000Y-11735000D02*
X15935000Y-11765000D01*
X15935000Y-12035000D02*
X15965000Y-12065000D01*
X15965000Y-12035000D02*
X15935000Y-12065000D01*
X15935000Y-16585000D02*
X15965000Y-16615000D01*
X15965000Y-16585000D02*
X15935000Y-16615000D01*
X16135000Y-16785000D02*
X16165000Y-16815000D01*
X16165000Y-16785000D02*
X16135000Y-16815000D01*
X16385000Y-16585000D02*
X16415000Y-16615000D01*
X16415000Y-16585000D02*
X16385000Y-16615000D01*
X16935000Y-14635000D02*
X16965000Y-14665000D01*
X16965000Y-14635000D02*
X16935000Y-14665000D01*
X16985000Y-12335000D02*
X17015000Y-12365000D01*
X17015000Y-12335000D02*
X16985000Y-12365000D01*
X16985000Y-12635000D02*
X17015000Y-12665000D01*
X17015000Y-12635000D02*
X16985000Y-12665000D01*
X17035000Y-15035000D02*
X17065000Y-15065000D01*
X17065000Y-15035000D02*
X17035000Y-15065000D01*
X17085000Y-13085000D02*
X17115000Y-13115000D01*
X17115000Y-13085000D02*
X17085000Y-13115000D01*
X17085000Y-14435000D02*
X17115000Y-14465000D01*
X17115000Y-14435000D02*
X17085000Y-14465000D01*
X17135000Y-12485000D02*
X17165000Y-12515000D01*
X17165000Y-12485000D02*
X17135000Y-12515000D01*
X17235000Y-15235000D02*
X17265000Y-15265000D01*
X17265000Y-15235000D02*
X17235000Y-15265000D01*
X17285000Y-12935000D02*
X17315000Y-12965000D01*
X17315000Y-12935000D02*
X17285000Y-12965000D01*
X17285000Y-13235000D02*
X17315000Y-13265000D01*
X17315000Y-13235000D02*
X17285000Y-13265000D01*
X17435000Y-13085000D02*
X17465000Y-13115000D01*
X17465000Y-13085000D02*
X17435000Y-13115000D01*
X17435000Y-15035000D02*
X17465000Y-15065000D01*
X17465000Y-15035000D02*
X17435000Y-15065000D01*
X13616000Y-17382000D02*
G75*
G02*
X13556000Y-17382000I-30000J0D01*
G01*
X13556000Y-17382000D02*
G75*
G02*
X13616000Y-17382000I30000J0D01*
G01*
X13616000Y-17437000D02*
X13616000Y-17327000D01*
X13556000Y-17327000D02*
G75*
G02*
X13616000Y-17327000I30000J0D01*
G01*
X13556000Y-17327000D02*
X13556000Y-17437000D01*
X13556000Y-17437000D02*
G75*
G03*
X13616000Y-17437000I30000J0D01*
G01*
X13616000Y-17800000D02*
G75*
G02*
X13556000Y-17800000I-30000J0D01*
G01*
X13556000Y-17800000D02*
G75*
G02*
X13616000Y-17800000I30000J0D01*
G01*
X13616000Y-17830000D02*
X13616000Y-17770000D01*
X13556000Y-17770000D02*
G75*
G02*
X13616000Y-17770000I30000J0D01*
G01*
X13556000Y-17770000D02*
X13556000Y-17830000D01*
X13556000Y-17830000D02*
G75*
G03*
X13616000Y-17830000I30000J0D01*
G01*
X14480000Y-17382000D02*
G75*
G02*
X14420000Y-17382000I-30000J0D01*
G01*
X14420000Y-17382000D02*
G75*
G02*
X14480000Y-17382000I30000J0D01*
G01*
X14480000Y-17437000D02*
X14480000Y-17327000D01*
X14420000Y-17327000D02*
G75*
G02*
X14480000Y-17327000I30000J0D01*
G01*
X14420000Y-17327000D02*
X14420000Y-17437000D01*
X14420000Y-17437000D02*
G75*
G03*
X14480000Y-17437000I30000J0D01*
G01*
X14480000Y-17800000D02*
G75*
G02*
X14420000Y-17800000I-30000J0D01*
G01*
X14420000Y-17800000D02*
G75*
G02*
X14480000Y-17800000I30000J0D01*
G01*
X14480000Y-17830000D02*
X14480000Y-17770000D01*
X14420000Y-17770000D02*
G75*
G02*
X14480000Y-17770000I30000J0D01*
G01*
X14420000Y-17770000D02*
X14420000Y-17830000D01*
X14420000Y-17830000D02*
G75*
G03*
X14480000Y-17830000I30000J0D01*
G01*
X11650000Y-13562500D02*
X11650000Y-13637500D01*
X11612500Y-13600000D02*
X11687500Y-13600000D01*
X11850000Y-13562500D02*
X11850000Y-13637500D01*
X11812500Y-13600000D02*
X11887500Y-13600000D01*
X11468877Y-16776330D02*
X11468877Y-16716226D01*
X11408773Y-16716226D01*
X11408773Y-16776330D01*
X11468877Y-16776330D01*
X11698691Y-16969167D02*
X11698691Y-16909062D01*
X11638586Y-16909062D01*
X11638586Y-16969167D01*
X11698691Y-16969167D01*
D11*
X10257177Y-18298684D02*
X10257177Y-18098684D01*
X10257177Y-18098684D02*
X10304796Y-18098684D01*
X10304796Y-18098684D02*
X10333367Y-18108208D01*
X10333367Y-18108208D02*
X10352415Y-18127255D01*
X10352415Y-18127255D02*
X10361939Y-18146303D01*
X10361939Y-18146303D02*
X10371463Y-18184398D01*
X10371463Y-18184398D02*
X10371463Y-18212970D01*
X10371463Y-18212970D02*
X10361939Y-18251065D01*
X10361939Y-18251065D02*
X10352415Y-18270112D01*
X10352415Y-18270112D02*
X10333367Y-18289160D01*
X10333367Y-18289160D02*
X10304796Y-18298684D01*
X10304796Y-18298684D02*
X10257177Y-18298684D01*
X10457177Y-18298684D02*
X10457177Y-18165350D01*
X10457177Y-18203446D02*
X10466701Y-18184398D01*
X10466701Y-18184398D02*
X10476224Y-18174874D01*
X10476224Y-18174874D02*
X10495272Y-18165350D01*
X10495272Y-18165350D02*
X10514320Y-18165350D01*
X10580986Y-18298684D02*
X10580986Y-18165350D01*
X10580986Y-18098684D02*
X10571463Y-18108208D01*
X10571463Y-18108208D02*
X10580986Y-18117731D01*
X10580986Y-18117731D02*
X10590510Y-18108208D01*
X10590510Y-18108208D02*
X10580986Y-18098684D01*
X10580986Y-18098684D02*
X10580986Y-18117731D01*
X10704796Y-18298684D02*
X10685748Y-18289160D01*
X10685748Y-18289160D02*
X10676224Y-18270112D01*
X10676224Y-18270112D02*
X10676224Y-18098684D01*
X10809558Y-18298684D02*
X10790510Y-18289160D01*
X10790510Y-18289160D02*
X10780986Y-18270112D01*
X10780986Y-18270112D02*
X10780986Y-18098684D01*
X11038129Y-18298684D02*
X11038129Y-18098684D01*
X11038129Y-18098684D02*
X11104796Y-18241541D01*
X11104796Y-18241541D02*
X11171463Y-18098684D01*
X11171463Y-18098684D02*
X11171463Y-18298684D01*
X11352415Y-18298684D02*
X11352415Y-18193922D01*
X11352415Y-18193922D02*
X11342891Y-18174874D01*
X11342891Y-18174874D02*
X11323843Y-18165350D01*
X11323843Y-18165350D02*
X11285748Y-18165350D01*
X11285748Y-18165350D02*
X11266701Y-18174874D01*
X11352415Y-18289160D02*
X11333367Y-18298684D01*
X11333367Y-18298684D02*
X11285748Y-18298684D01*
X11285748Y-18298684D02*
X11266701Y-18289160D01*
X11266701Y-18289160D02*
X11257177Y-18270112D01*
X11257177Y-18270112D02*
X11257177Y-18251065D01*
X11257177Y-18251065D02*
X11266701Y-18232017D01*
X11266701Y-18232017D02*
X11285748Y-18222493D01*
X11285748Y-18222493D02*
X11333367Y-18222493D01*
X11333367Y-18222493D02*
X11352415Y-18212970D01*
X11447653Y-18165350D02*
X11447653Y-18365350D01*
X11447653Y-18174874D02*
X11466701Y-18165350D01*
X11466701Y-18165350D02*
X11504796Y-18165350D01*
X11504796Y-18165350D02*
X11523843Y-18174874D01*
X11523843Y-18174874D02*
X11533367Y-18184398D01*
X11533367Y-18184398D02*
X11542891Y-18203446D01*
X11542891Y-18203446D02*
X11542891Y-18260589D01*
X11542891Y-18260589D02*
X11533367Y-18279636D01*
X11533367Y-18279636D02*
X11523843Y-18289160D01*
X11523843Y-18289160D02*
X11504796Y-18298684D01*
X11504796Y-18298684D02*
X11466701Y-18298684D01*
X11466701Y-18298684D02*
X11447653Y-18289160D01*
X11628605Y-18279636D02*
X11638129Y-18289160D01*
X11638129Y-18289160D02*
X11628605Y-18298684D01*
X11628605Y-18298684D02*
X11619082Y-18289160D01*
X11619082Y-18289160D02*
X11628605Y-18279636D01*
X11628605Y-18279636D02*
X11628605Y-18298684D01*
X11628605Y-18174874D02*
X11638129Y-18184398D01*
X11638129Y-18184398D02*
X11628605Y-18193922D01*
X11628605Y-18193922D02*
X11619082Y-18184398D01*
X11619082Y-18184398D02*
X11628605Y-18174874D01*
X11628605Y-18174874D02*
X11628605Y-18193922D01*
D10*
X9966400Y-18612200D02*
X9996400Y-18642200D01*
X9996400Y-18612200D02*
X9966400Y-18642200D01*
D11*
X10295272Y-18518684D02*
X10314320Y-18518684D01*
X10314320Y-18518684D02*
X10333367Y-18528208D01*
X10333367Y-18528208D02*
X10342891Y-18537731D01*
X10342891Y-18537731D02*
X10352415Y-18556779D01*
X10352415Y-18556779D02*
X10361939Y-18594874D01*
X10361939Y-18594874D02*
X10361939Y-18642493D01*
X10361939Y-18642493D02*
X10352415Y-18680589D01*
X10352415Y-18680589D02*
X10342891Y-18699636D01*
X10342891Y-18699636D02*
X10333367Y-18709160D01*
X10333367Y-18709160D02*
X10314320Y-18718684D01*
X10314320Y-18718684D02*
X10295272Y-18718684D01*
X10295272Y-18718684D02*
X10276224Y-18709160D01*
X10276224Y-18709160D02*
X10266701Y-18699636D01*
X10266701Y-18699636D02*
X10257177Y-18680589D01*
X10257177Y-18680589D02*
X10247653Y-18642493D01*
X10247653Y-18642493D02*
X10247653Y-18594874D01*
X10247653Y-18594874D02*
X10257177Y-18556779D01*
X10257177Y-18556779D02*
X10266701Y-18537731D01*
X10266701Y-18537731D02*
X10276224Y-18528208D01*
X10276224Y-18528208D02*
X10295272Y-18518684D01*
X10447653Y-18699636D02*
X10457177Y-18709160D01*
X10457177Y-18709160D02*
X10447653Y-18718684D01*
X10447653Y-18718684D02*
X10438129Y-18709160D01*
X10438129Y-18709160D02*
X10447653Y-18699636D01*
X10447653Y-18699636D02*
X10447653Y-18718684D01*
X10523844Y-18518684D02*
X10647653Y-18518684D01*
X10647653Y-18518684D02*
X10580986Y-18594874D01*
X10580986Y-18594874D02*
X10609558Y-18594874D01*
X10609558Y-18594874D02*
X10628605Y-18604398D01*
X10628605Y-18604398D02*
X10638129Y-18613922D01*
X10638129Y-18613922D02*
X10647653Y-18632970D01*
X10647653Y-18632970D02*
X10647653Y-18680589D01*
X10647653Y-18680589D02*
X10638129Y-18699636D01*
X10638129Y-18699636D02*
X10628605Y-18709160D01*
X10628605Y-18709160D02*
X10609558Y-18718684D01*
X10609558Y-18718684D02*
X10552415Y-18718684D01*
X10552415Y-18718684D02*
X10533367Y-18709160D01*
X10533367Y-18709160D02*
X10523844Y-18699636D01*
X10771463Y-18518684D02*
X10790510Y-18518684D01*
X10790510Y-18518684D02*
X10809558Y-18528208D01*
X10809558Y-18528208D02*
X10819082Y-18537731D01*
X10819082Y-18537731D02*
X10828605Y-18556779D01*
X10828605Y-18556779D02*
X10838129Y-18594874D01*
X10838129Y-18594874D02*
X10838129Y-18642493D01*
X10838129Y-18642493D02*
X10828605Y-18680589D01*
X10828605Y-18680589D02*
X10819082Y-18699636D01*
X10819082Y-18699636D02*
X10809558Y-18709160D01*
X10809558Y-18709160D02*
X10790510Y-18718684D01*
X10790510Y-18718684D02*
X10771463Y-18718684D01*
X10771463Y-18718684D02*
X10752415Y-18709160D01*
X10752415Y-18709160D02*
X10742891Y-18699636D01*
X10742891Y-18699636D02*
X10733367Y-18680589D01*
X10733367Y-18680589D02*
X10723844Y-18642493D01*
X10723844Y-18642493D02*
X10723844Y-18594874D01*
X10723844Y-18594874D02*
X10733367Y-18556779D01*
X10733367Y-18556779D02*
X10742891Y-18537731D01*
X10742891Y-18537731D02*
X10752415Y-18528208D01*
X10752415Y-18528208D02*
X10771463Y-18518684D01*
X10961939Y-18518684D02*
X10980986Y-18518684D01*
X10980986Y-18518684D02*
X11000034Y-18528208D01*
X11000034Y-18528208D02*
X11009558Y-18537731D01*
X11009558Y-18537731D02*
X11019082Y-18556779D01*
X11019082Y-18556779D02*
X11028605Y-18594874D01*
X11028605Y-18594874D02*
X11028605Y-18642493D01*
X11028605Y-18642493D02*
X11019082Y-18680589D01*
X11019082Y-18680589D02*
X11009558Y-18699636D01*
X11009558Y-18699636D02*
X11000034Y-18709160D01*
X11000034Y-18709160D02*
X10980986Y-18718684D01*
X10980986Y-18718684D02*
X10961939Y-18718684D01*
X10961939Y-18718684D02*
X10942891Y-18709160D01*
X10942891Y-18709160D02*
X10933367Y-18699636D01*
X10933367Y-18699636D02*
X10923844Y-18680589D01*
X10923844Y-18680589D02*
X10914320Y-18642493D01*
X10914320Y-18642493D02*
X10914320Y-18594874D01*
X10914320Y-18594874D02*
X10923844Y-18556779D01*
X10923844Y-18556779D02*
X10933367Y-18537731D01*
X10933367Y-18537731D02*
X10942891Y-18528208D01*
X10942891Y-18528208D02*
X10961939Y-18518684D01*
X11114320Y-18718684D02*
X11114320Y-18585350D01*
X11114320Y-18604398D02*
X11123844Y-18594874D01*
X11123844Y-18594874D02*
X11142891Y-18585350D01*
X11142891Y-18585350D02*
X11171463Y-18585350D01*
X11171463Y-18585350D02*
X11190510Y-18594874D01*
X11190510Y-18594874D02*
X11200034Y-18613922D01*
X11200034Y-18613922D02*
X11200034Y-18718684D01*
X11200034Y-18613922D02*
X11209558Y-18594874D01*
X11209558Y-18594874D02*
X11228605Y-18585350D01*
X11228605Y-18585350D02*
X11257177Y-18585350D01*
X11257177Y-18585350D02*
X11276224Y-18594874D01*
X11276224Y-18594874D02*
X11285748Y-18613922D01*
X11285748Y-18613922D02*
X11285748Y-18718684D01*
X11380986Y-18718684D02*
X11380986Y-18585350D01*
X11380986Y-18604398D02*
X11390510Y-18594874D01*
X11390510Y-18594874D02*
X11409558Y-18585350D01*
X11409558Y-18585350D02*
X11438129Y-18585350D01*
X11438129Y-18585350D02*
X11457177Y-18594874D01*
X11457177Y-18594874D02*
X11466701Y-18613922D01*
X11466701Y-18613922D02*
X11466701Y-18718684D01*
X11466701Y-18613922D02*
X11476224Y-18594874D01*
X11476224Y-18594874D02*
X11495272Y-18585350D01*
X11495272Y-18585350D02*
X11523843Y-18585350D01*
X11523843Y-18585350D02*
X11542891Y-18594874D01*
X11542891Y-18594874D02*
X11552415Y-18613922D01*
X11552415Y-18613922D02*
X11552415Y-18718684D01*
X11942891Y-18509160D02*
X11771463Y-18766303D01*
X12200034Y-18518684D02*
X12219082Y-18518684D01*
X12219082Y-18518684D02*
X12238129Y-18528208D01*
X12238129Y-18528208D02*
X12247653Y-18537731D01*
X12247653Y-18537731D02*
X12257177Y-18556779D01*
X12257177Y-18556779D02*
X12266701Y-18594874D01*
X12266701Y-18594874D02*
X12266701Y-18642493D01*
X12266701Y-18642493D02*
X12257177Y-18680589D01*
X12257177Y-18680589D02*
X12247653Y-18699636D01*
X12247653Y-18699636D02*
X12238129Y-18709160D01*
X12238129Y-18709160D02*
X12219082Y-18718684D01*
X12219082Y-18718684D02*
X12200034Y-18718684D01*
X12200034Y-18718684D02*
X12180986Y-18709160D01*
X12180986Y-18709160D02*
X12171463Y-18699636D01*
X12171463Y-18699636D02*
X12161939Y-18680589D01*
X12161939Y-18680589D02*
X12152415Y-18642493D01*
X12152415Y-18642493D02*
X12152415Y-18594874D01*
X12152415Y-18594874D02*
X12161939Y-18556779D01*
X12161939Y-18556779D02*
X12171463Y-18537731D01*
X12171463Y-18537731D02*
X12180986Y-18528208D01*
X12180986Y-18528208D02*
X12200034Y-18518684D01*
X12352415Y-18699636D02*
X12361939Y-18709160D01*
X12361939Y-18709160D02*
X12352415Y-18718684D01*
X12352415Y-18718684D02*
X12342891Y-18709160D01*
X12342891Y-18709160D02*
X12352415Y-18699636D01*
X12352415Y-18699636D02*
X12352415Y-18718684D01*
X12485748Y-18518684D02*
X12504796Y-18518684D01*
X12504796Y-18518684D02*
X12523844Y-18528208D01*
X12523844Y-18528208D02*
X12533367Y-18537731D01*
X12533367Y-18537731D02*
X12542891Y-18556779D01*
X12542891Y-18556779D02*
X12552415Y-18594874D01*
X12552415Y-18594874D02*
X12552415Y-18642493D01*
X12552415Y-18642493D02*
X12542891Y-18680589D01*
X12542891Y-18680589D02*
X12533367Y-18699636D01*
X12533367Y-18699636D02*
X12523844Y-18709160D01*
X12523844Y-18709160D02*
X12504796Y-18718684D01*
X12504796Y-18718684D02*
X12485748Y-18718684D01*
X12485748Y-18718684D02*
X12466701Y-18709160D01*
X12466701Y-18709160D02*
X12457177Y-18699636D01*
X12457177Y-18699636D02*
X12447653Y-18680589D01*
X12447653Y-18680589D02*
X12438129Y-18642493D01*
X12438129Y-18642493D02*
X12438129Y-18594874D01*
X12438129Y-18594874D02*
X12447653Y-18556779D01*
X12447653Y-18556779D02*
X12457177Y-18537731D01*
X12457177Y-18537731D02*
X12466701Y-18528208D01*
X12466701Y-18528208D02*
X12485748Y-18518684D01*
X12742891Y-18718684D02*
X12628606Y-18718684D01*
X12685748Y-18718684D02*
X12685748Y-18518684D01*
X12685748Y-18518684D02*
X12666701Y-18547255D01*
X12666701Y-18547255D02*
X12647653Y-18566303D01*
X12647653Y-18566303D02*
X12628606Y-18575827D01*
X12933367Y-18718684D02*
X12819082Y-18718684D01*
X12876225Y-18718684D02*
X12876225Y-18518684D01*
X12876225Y-18518684D02*
X12857177Y-18547255D01*
X12857177Y-18547255D02*
X12838129Y-18566303D01*
X12838129Y-18566303D02*
X12819082Y-18575827D01*
X13047653Y-18604398D02*
X13028606Y-18594874D01*
X13028606Y-18594874D02*
X13019082Y-18585350D01*
X13019082Y-18585350D02*
X13009558Y-18566303D01*
X13009558Y-18566303D02*
X13009558Y-18556779D01*
X13009558Y-18556779D02*
X13019082Y-18537731D01*
X13019082Y-18537731D02*
X13028606Y-18528208D01*
X13028606Y-18528208D02*
X13047653Y-18518684D01*
X13047653Y-18518684D02*
X13085748Y-18518684D01*
X13085748Y-18518684D02*
X13104796Y-18528208D01*
X13104796Y-18528208D02*
X13114320Y-18537731D01*
X13114320Y-18537731D02*
X13123844Y-18556779D01*
X13123844Y-18556779D02*
X13123844Y-18566303D01*
X13123844Y-18566303D02*
X13114320Y-18585350D01*
X13114320Y-18585350D02*
X13104796Y-18594874D01*
X13104796Y-18594874D02*
X13085748Y-18604398D01*
X13085748Y-18604398D02*
X13047653Y-18604398D01*
X13047653Y-18604398D02*
X13028606Y-18613922D01*
X13028606Y-18613922D02*
X13019082Y-18623446D01*
X13019082Y-18623446D02*
X13009558Y-18642493D01*
X13009558Y-18642493D02*
X13009558Y-18680589D01*
X13009558Y-18680589D02*
X13019082Y-18699636D01*
X13019082Y-18699636D02*
X13028606Y-18709160D01*
X13028606Y-18709160D02*
X13047653Y-18718684D01*
X13047653Y-18718684D02*
X13085748Y-18718684D01*
X13085748Y-18718684D02*
X13104796Y-18709160D01*
X13104796Y-18709160D02*
X13114320Y-18699636D01*
X13114320Y-18699636D02*
X13123844Y-18680589D01*
X13123844Y-18680589D02*
X13123844Y-18642493D01*
X13123844Y-18642493D02*
X13114320Y-18623446D01*
X13114320Y-18623446D02*
X13104796Y-18613922D01*
X13104796Y-18613922D02*
X13085748Y-18604398D01*
X13200034Y-18518684D02*
X13200034Y-18556779D01*
X13276225Y-18518684D02*
X13276225Y-18556779D01*
X13571463Y-18794874D02*
X13561939Y-18785350D01*
X13561939Y-18785350D02*
X13542891Y-18756779D01*
X13542891Y-18756779D02*
X13533368Y-18737731D01*
X13533368Y-18737731D02*
X13523844Y-18709160D01*
X13523844Y-18709160D02*
X13514320Y-18661541D01*
X13514320Y-18661541D02*
X13514320Y-18623446D01*
X13514320Y-18623446D02*
X13523844Y-18575827D01*
X13523844Y-18575827D02*
X13533368Y-18547255D01*
X13533368Y-18547255D02*
X13542891Y-18528208D01*
X13542891Y-18528208D02*
X13561939Y-18499636D01*
X13561939Y-18499636D02*
X13571463Y-18490112D01*
X13752415Y-18718684D02*
X13638129Y-18718684D01*
X13695272Y-18718684D02*
X13695272Y-18518684D01*
X13695272Y-18518684D02*
X13676225Y-18547255D01*
X13676225Y-18547255D02*
X13657177Y-18566303D01*
X13657177Y-18566303D02*
X13638129Y-18575827D01*
X13923844Y-18518684D02*
X13885748Y-18518684D01*
X13885748Y-18518684D02*
X13866701Y-18528208D01*
X13866701Y-18528208D02*
X13857177Y-18537731D01*
X13857177Y-18537731D02*
X13838129Y-18566303D01*
X13838129Y-18566303D02*
X13828606Y-18604398D01*
X13828606Y-18604398D02*
X13828606Y-18680589D01*
X13828606Y-18680589D02*
X13838129Y-18699636D01*
X13838129Y-18699636D02*
X13847653Y-18709160D01*
X13847653Y-18709160D02*
X13866701Y-18718684D01*
X13866701Y-18718684D02*
X13904796Y-18718684D01*
X13904796Y-18718684D02*
X13923844Y-18709160D01*
X13923844Y-18709160D02*
X13933368Y-18699636D01*
X13933368Y-18699636D02*
X13942891Y-18680589D01*
X13942891Y-18680589D02*
X13942891Y-18632970D01*
X13942891Y-18632970D02*
X13933368Y-18613922D01*
X13933368Y-18613922D02*
X13923844Y-18604398D01*
X13923844Y-18604398D02*
X13904796Y-18594874D01*
X13904796Y-18594874D02*
X13866701Y-18594874D01*
X13866701Y-18594874D02*
X13847653Y-18604398D01*
X13847653Y-18604398D02*
X13838129Y-18613922D01*
X13838129Y-18613922D02*
X13828606Y-18632970D01*
X14114320Y-18585350D02*
X14114320Y-18718684D01*
X14066701Y-18509160D02*
X14019082Y-18652017D01*
X14019082Y-18652017D02*
X14142891Y-18652017D01*
X14371463Y-18718684D02*
X14371463Y-18518684D01*
X14457177Y-18718684D02*
X14457177Y-18613922D01*
X14457177Y-18613922D02*
X14447653Y-18594874D01*
X14447653Y-18594874D02*
X14428606Y-18585350D01*
X14428606Y-18585350D02*
X14400034Y-18585350D01*
X14400034Y-18585350D02*
X14380987Y-18594874D01*
X14380987Y-18594874D02*
X14371463Y-18604398D01*
X14580987Y-18718684D02*
X14561939Y-18709160D01*
X14561939Y-18709160D02*
X14552415Y-18699636D01*
X14552415Y-18699636D02*
X14542891Y-18680589D01*
X14542891Y-18680589D02*
X14542891Y-18623446D01*
X14542891Y-18623446D02*
X14552415Y-18604398D01*
X14552415Y-18604398D02*
X14561939Y-18594874D01*
X14561939Y-18594874D02*
X14580987Y-18585350D01*
X14580987Y-18585350D02*
X14609558Y-18585350D01*
X14609558Y-18585350D02*
X14628606Y-18594874D01*
X14628606Y-18594874D02*
X14638130Y-18604398D01*
X14638130Y-18604398D02*
X14647653Y-18623446D01*
X14647653Y-18623446D02*
X14647653Y-18680589D01*
X14647653Y-18680589D02*
X14638130Y-18699636D01*
X14638130Y-18699636D02*
X14628606Y-18709160D01*
X14628606Y-18709160D02*
X14609558Y-18718684D01*
X14609558Y-18718684D02*
X14580987Y-18718684D01*
X14761939Y-18718684D02*
X14742891Y-18709160D01*
X14742891Y-18709160D02*
X14733368Y-18690112D01*
X14733368Y-18690112D02*
X14733368Y-18518684D01*
X14914320Y-18709160D02*
X14895272Y-18718684D01*
X14895272Y-18718684D02*
X14857177Y-18718684D01*
X14857177Y-18718684D02*
X14838130Y-18709160D01*
X14838130Y-18709160D02*
X14828606Y-18690112D01*
X14828606Y-18690112D02*
X14828606Y-18613922D01*
X14828606Y-18613922D02*
X14838130Y-18594874D01*
X14838130Y-18594874D02*
X14857177Y-18585350D01*
X14857177Y-18585350D02*
X14895272Y-18585350D01*
X14895272Y-18585350D02*
X14914320Y-18594874D01*
X14914320Y-18594874D02*
X14923844Y-18613922D01*
X14923844Y-18613922D02*
X14923844Y-18632970D01*
X14923844Y-18632970D02*
X14828606Y-18652017D01*
X15000034Y-18709160D02*
X15019082Y-18718684D01*
X15019082Y-18718684D02*
X15057177Y-18718684D01*
X15057177Y-18718684D02*
X15076225Y-18709160D01*
X15076225Y-18709160D02*
X15085749Y-18690112D01*
X15085749Y-18690112D02*
X15085749Y-18680589D01*
X15085749Y-18680589D02*
X15076225Y-18661541D01*
X15076225Y-18661541D02*
X15057177Y-18652017D01*
X15057177Y-18652017D02*
X15028606Y-18652017D01*
X15028606Y-18652017D02*
X15009558Y-18642493D01*
X15009558Y-18642493D02*
X15000034Y-18623446D01*
X15000034Y-18623446D02*
X15000034Y-18613922D01*
X15000034Y-18613922D02*
X15009558Y-18594874D01*
X15009558Y-18594874D02*
X15028606Y-18585350D01*
X15028606Y-18585350D02*
X15057177Y-18585350D01*
X15057177Y-18585350D02*
X15076225Y-18594874D01*
X15152415Y-18794874D02*
X15161939Y-18785350D01*
X15161939Y-18785350D02*
X15180987Y-18756779D01*
X15180987Y-18756779D02*
X15190511Y-18737731D01*
X15190511Y-18737731D02*
X15200034Y-18709160D01*
X15200034Y-18709160D02*
X15209558Y-18661541D01*
X15209558Y-18661541D02*
X15209558Y-18623446D01*
X15209558Y-18623446D02*
X15200034Y-18575827D01*
X15200034Y-18575827D02*
X15190511Y-18547255D01*
X15190511Y-18547255D02*
X15180987Y-18528208D01*
X15180987Y-18528208D02*
X15161939Y-18499636D01*
X15161939Y-18499636D02*
X15152415Y-18490112D01*
D10*
X9996400Y-18891200D02*
G75*
G02*
X9936400Y-18891200I-30000J0D01*
G01*
X9936400Y-18891200D02*
G75*
G02*
X9996400Y-18891200I30000J0D01*
G01*
D11*
X10295272Y-18782684D02*
X10314320Y-18782684D01*
X10314320Y-18782684D02*
X10333367Y-18792208D01*
X10333367Y-18792208D02*
X10342891Y-18801731D01*
X10342891Y-18801731D02*
X10352415Y-18820779D01*
X10352415Y-18820779D02*
X10361939Y-18858874D01*
X10361939Y-18858874D02*
X10361939Y-18906493D01*
X10361939Y-18906493D02*
X10352415Y-18944589D01*
X10352415Y-18944589D02*
X10342891Y-18963636D01*
X10342891Y-18963636D02*
X10333367Y-18973160D01*
X10333367Y-18973160D02*
X10314320Y-18982684D01*
X10314320Y-18982684D02*
X10295272Y-18982684D01*
X10295272Y-18982684D02*
X10276224Y-18973160D01*
X10276224Y-18973160D02*
X10266701Y-18963636D01*
X10266701Y-18963636D02*
X10257177Y-18944589D01*
X10257177Y-18944589D02*
X10247653Y-18906493D01*
X10247653Y-18906493D02*
X10247653Y-18858874D01*
X10247653Y-18858874D02*
X10257177Y-18820779D01*
X10257177Y-18820779D02*
X10266701Y-18801731D01*
X10266701Y-18801731D02*
X10276224Y-18792208D01*
X10276224Y-18792208D02*
X10295272Y-18782684D01*
X10447653Y-18963636D02*
X10457177Y-18973160D01*
X10457177Y-18973160D02*
X10447653Y-18982684D01*
X10447653Y-18982684D02*
X10438129Y-18973160D01*
X10438129Y-18973160D02*
X10447653Y-18963636D01*
X10447653Y-18963636D02*
X10447653Y-18982684D01*
X10628605Y-18782684D02*
X10590510Y-18782684D01*
X10590510Y-18782684D02*
X10571463Y-18792208D01*
X10571463Y-18792208D02*
X10561939Y-18801731D01*
X10561939Y-18801731D02*
X10542891Y-18830303D01*
X10542891Y-18830303D02*
X10533367Y-18868398D01*
X10533367Y-18868398D02*
X10533367Y-18944589D01*
X10533367Y-18944589D02*
X10542891Y-18963636D01*
X10542891Y-18963636D02*
X10552415Y-18973160D01*
X10552415Y-18973160D02*
X10571463Y-18982684D01*
X10571463Y-18982684D02*
X10609558Y-18982684D01*
X10609558Y-18982684D02*
X10628605Y-18973160D01*
X10628605Y-18973160D02*
X10638129Y-18963636D01*
X10638129Y-18963636D02*
X10647653Y-18944589D01*
X10647653Y-18944589D02*
X10647653Y-18896970D01*
X10647653Y-18896970D02*
X10638129Y-18877922D01*
X10638129Y-18877922D02*
X10628605Y-18868398D01*
X10628605Y-18868398D02*
X10609558Y-18858874D01*
X10609558Y-18858874D02*
X10571463Y-18858874D01*
X10571463Y-18858874D02*
X10552415Y-18868398D01*
X10552415Y-18868398D02*
X10542891Y-18877922D01*
X10542891Y-18877922D02*
X10533367Y-18896970D01*
X10771463Y-18782684D02*
X10790510Y-18782684D01*
X10790510Y-18782684D02*
X10809558Y-18792208D01*
X10809558Y-18792208D02*
X10819082Y-18801731D01*
X10819082Y-18801731D02*
X10828605Y-18820779D01*
X10828605Y-18820779D02*
X10838129Y-18858874D01*
X10838129Y-18858874D02*
X10838129Y-18906493D01*
X10838129Y-18906493D02*
X10828605Y-18944589D01*
X10828605Y-18944589D02*
X10819082Y-18963636D01*
X10819082Y-18963636D02*
X10809558Y-18973160D01*
X10809558Y-18973160D02*
X10790510Y-18982684D01*
X10790510Y-18982684D02*
X10771463Y-18982684D01*
X10771463Y-18982684D02*
X10752415Y-18973160D01*
X10752415Y-18973160D02*
X10742891Y-18963636D01*
X10742891Y-18963636D02*
X10733367Y-18944589D01*
X10733367Y-18944589D02*
X10723844Y-18906493D01*
X10723844Y-18906493D02*
X10723844Y-18858874D01*
X10723844Y-18858874D02*
X10733367Y-18820779D01*
X10733367Y-18820779D02*
X10742891Y-18801731D01*
X10742891Y-18801731D02*
X10752415Y-18792208D01*
X10752415Y-18792208D02*
X10771463Y-18782684D01*
X10961939Y-18782684D02*
X10980986Y-18782684D01*
X10980986Y-18782684D02*
X11000034Y-18792208D01*
X11000034Y-18792208D02*
X11009558Y-18801731D01*
X11009558Y-18801731D02*
X11019082Y-18820779D01*
X11019082Y-18820779D02*
X11028605Y-18858874D01*
X11028605Y-18858874D02*
X11028605Y-18906493D01*
X11028605Y-18906493D02*
X11019082Y-18944589D01*
X11019082Y-18944589D02*
X11009558Y-18963636D01*
X11009558Y-18963636D02*
X11000034Y-18973160D01*
X11000034Y-18973160D02*
X10980986Y-18982684D01*
X10980986Y-18982684D02*
X10961939Y-18982684D01*
X10961939Y-18982684D02*
X10942891Y-18973160D01*
X10942891Y-18973160D02*
X10933367Y-18963636D01*
X10933367Y-18963636D02*
X10923844Y-18944589D01*
X10923844Y-18944589D02*
X10914320Y-18906493D01*
X10914320Y-18906493D02*
X10914320Y-18858874D01*
X10914320Y-18858874D02*
X10923844Y-18820779D01*
X10923844Y-18820779D02*
X10933367Y-18801731D01*
X10933367Y-18801731D02*
X10942891Y-18792208D01*
X10942891Y-18792208D02*
X10961939Y-18782684D01*
X11114320Y-18982684D02*
X11114320Y-18849350D01*
X11114320Y-18868398D02*
X11123844Y-18858874D01*
X11123844Y-18858874D02*
X11142891Y-18849350D01*
X11142891Y-18849350D02*
X11171463Y-18849350D01*
X11171463Y-18849350D02*
X11190510Y-18858874D01*
X11190510Y-18858874D02*
X11200034Y-18877922D01*
X11200034Y-18877922D02*
X11200034Y-18982684D01*
X11200034Y-18877922D02*
X11209558Y-18858874D01*
X11209558Y-18858874D02*
X11228605Y-18849350D01*
X11228605Y-18849350D02*
X11257177Y-18849350D01*
X11257177Y-18849350D02*
X11276224Y-18858874D01*
X11276224Y-18858874D02*
X11285748Y-18877922D01*
X11285748Y-18877922D02*
X11285748Y-18982684D01*
X11380986Y-18982684D02*
X11380986Y-18849350D01*
X11380986Y-18868398D02*
X11390510Y-18858874D01*
X11390510Y-18858874D02*
X11409558Y-18849350D01*
X11409558Y-18849350D02*
X11438129Y-18849350D01*
X11438129Y-18849350D02*
X11457177Y-18858874D01*
X11457177Y-18858874D02*
X11466701Y-18877922D01*
X11466701Y-18877922D02*
X11466701Y-18982684D01*
X11466701Y-18877922D02*
X11476224Y-18858874D01*
X11476224Y-18858874D02*
X11495272Y-18849350D01*
X11495272Y-18849350D02*
X11523843Y-18849350D01*
X11523843Y-18849350D02*
X11542891Y-18858874D01*
X11542891Y-18858874D02*
X11552415Y-18877922D01*
X11552415Y-18877922D02*
X11552415Y-18982684D01*
X11942891Y-18773160D02*
X11771463Y-19030303D01*
X12200034Y-18782684D02*
X12219082Y-18782684D01*
X12219082Y-18782684D02*
X12238129Y-18792208D01*
X12238129Y-18792208D02*
X12247653Y-18801731D01*
X12247653Y-18801731D02*
X12257177Y-18820779D01*
X12257177Y-18820779D02*
X12266701Y-18858874D01*
X12266701Y-18858874D02*
X12266701Y-18906493D01*
X12266701Y-18906493D02*
X12257177Y-18944589D01*
X12257177Y-18944589D02*
X12247653Y-18963636D01*
X12247653Y-18963636D02*
X12238129Y-18973160D01*
X12238129Y-18973160D02*
X12219082Y-18982684D01*
X12219082Y-18982684D02*
X12200034Y-18982684D01*
X12200034Y-18982684D02*
X12180986Y-18973160D01*
X12180986Y-18973160D02*
X12171463Y-18963636D01*
X12171463Y-18963636D02*
X12161939Y-18944589D01*
X12161939Y-18944589D02*
X12152415Y-18906493D01*
X12152415Y-18906493D02*
X12152415Y-18858874D01*
X12152415Y-18858874D02*
X12161939Y-18820779D01*
X12161939Y-18820779D02*
X12171463Y-18801731D01*
X12171463Y-18801731D02*
X12180986Y-18792208D01*
X12180986Y-18792208D02*
X12200034Y-18782684D01*
X12352415Y-18963636D02*
X12361939Y-18973160D01*
X12361939Y-18973160D02*
X12352415Y-18982684D01*
X12352415Y-18982684D02*
X12342891Y-18973160D01*
X12342891Y-18973160D02*
X12352415Y-18963636D01*
X12352415Y-18963636D02*
X12352415Y-18982684D01*
X12485748Y-18782684D02*
X12504796Y-18782684D01*
X12504796Y-18782684D02*
X12523844Y-18792208D01*
X12523844Y-18792208D02*
X12533367Y-18801731D01*
X12533367Y-18801731D02*
X12542891Y-18820779D01*
X12542891Y-18820779D02*
X12552415Y-18858874D01*
X12552415Y-18858874D02*
X12552415Y-18906493D01*
X12552415Y-18906493D02*
X12542891Y-18944589D01*
X12542891Y-18944589D02*
X12533367Y-18963636D01*
X12533367Y-18963636D02*
X12523844Y-18973160D01*
X12523844Y-18973160D02*
X12504796Y-18982684D01*
X12504796Y-18982684D02*
X12485748Y-18982684D01*
X12485748Y-18982684D02*
X12466701Y-18973160D01*
X12466701Y-18973160D02*
X12457177Y-18963636D01*
X12457177Y-18963636D02*
X12447653Y-18944589D01*
X12447653Y-18944589D02*
X12438129Y-18906493D01*
X12438129Y-18906493D02*
X12438129Y-18858874D01*
X12438129Y-18858874D02*
X12447653Y-18820779D01*
X12447653Y-18820779D02*
X12457177Y-18801731D01*
X12457177Y-18801731D02*
X12466701Y-18792208D01*
X12466701Y-18792208D02*
X12485748Y-18782684D01*
X12628606Y-18801731D02*
X12638129Y-18792208D01*
X12638129Y-18792208D02*
X12657177Y-18782684D01*
X12657177Y-18782684D02*
X12704796Y-18782684D01*
X12704796Y-18782684D02*
X12723844Y-18792208D01*
X12723844Y-18792208D02*
X12733367Y-18801731D01*
X12733367Y-18801731D02*
X12742891Y-18820779D01*
X12742891Y-18820779D02*
X12742891Y-18839827D01*
X12742891Y-18839827D02*
X12733367Y-18868398D01*
X12733367Y-18868398D02*
X12619082Y-18982684D01*
X12619082Y-18982684D02*
X12742891Y-18982684D01*
X12809558Y-18782684D02*
X12933367Y-18782684D01*
X12933367Y-18782684D02*
X12866701Y-18858874D01*
X12866701Y-18858874D02*
X12895272Y-18858874D01*
X12895272Y-18858874D02*
X12914320Y-18868398D01*
X12914320Y-18868398D02*
X12923844Y-18877922D01*
X12923844Y-18877922D02*
X12933367Y-18896970D01*
X12933367Y-18896970D02*
X12933367Y-18944589D01*
X12933367Y-18944589D02*
X12923844Y-18963636D01*
X12923844Y-18963636D02*
X12914320Y-18973160D01*
X12914320Y-18973160D02*
X12895272Y-18982684D01*
X12895272Y-18982684D02*
X12838129Y-18982684D01*
X12838129Y-18982684D02*
X12819082Y-18973160D01*
X12819082Y-18973160D02*
X12809558Y-18963636D01*
X13104796Y-18782684D02*
X13066701Y-18782684D01*
X13066701Y-18782684D02*
X13047653Y-18792208D01*
X13047653Y-18792208D02*
X13038129Y-18801731D01*
X13038129Y-18801731D02*
X13019082Y-18830303D01*
X13019082Y-18830303D02*
X13009558Y-18868398D01*
X13009558Y-18868398D02*
X13009558Y-18944589D01*
X13009558Y-18944589D02*
X13019082Y-18963636D01*
X13019082Y-18963636D02*
X13028606Y-18973160D01*
X13028606Y-18973160D02*
X13047653Y-18982684D01*
X13047653Y-18982684D02*
X13085748Y-18982684D01*
X13085748Y-18982684D02*
X13104796Y-18973160D01*
X13104796Y-18973160D02*
X13114320Y-18963636D01*
X13114320Y-18963636D02*
X13123844Y-18944589D01*
X13123844Y-18944589D02*
X13123844Y-18896970D01*
X13123844Y-18896970D02*
X13114320Y-18877922D01*
X13114320Y-18877922D02*
X13104796Y-18868398D01*
X13104796Y-18868398D02*
X13085748Y-18858874D01*
X13085748Y-18858874D02*
X13047653Y-18858874D01*
X13047653Y-18858874D02*
X13028606Y-18868398D01*
X13028606Y-18868398D02*
X13019082Y-18877922D01*
X13019082Y-18877922D02*
X13009558Y-18896970D01*
X13200034Y-18782684D02*
X13200034Y-18820779D01*
X13276225Y-18782684D02*
X13276225Y-18820779D01*
X13571463Y-19058874D02*
X13561939Y-19049350D01*
X13561939Y-19049350D02*
X13542891Y-19020779D01*
X13542891Y-19020779D02*
X13533368Y-19001731D01*
X13533368Y-19001731D02*
X13523844Y-18973160D01*
X13523844Y-18973160D02*
X13514320Y-18925541D01*
X13514320Y-18925541D02*
X13514320Y-18887446D01*
X13514320Y-18887446D02*
X13523844Y-18839827D01*
X13523844Y-18839827D02*
X13533368Y-18811255D01*
X13533368Y-18811255D02*
X13542891Y-18792208D01*
X13542891Y-18792208D02*
X13561939Y-18763636D01*
X13561939Y-18763636D02*
X13571463Y-18754112D01*
X13685748Y-18782684D02*
X13704796Y-18782684D01*
X13704796Y-18782684D02*
X13723844Y-18792208D01*
X13723844Y-18792208D02*
X13733368Y-18801731D01*
X13733368Y-18801731D02*
X13742891Y-18820779D01*
X13742891Y-18820779D02*
X13752415Y-18858874D01*
X13752415Y-18858874D02*
X13752415Y-18906493D01*
X13752415Y-18906493D02*
X13742891Y-18944589D01*
X13742891Y-18944589D02*
X13733368Y-18963636D01*
X13733368Y-18963636D02*
X13723844Y-18973160D01*
X13723844Y-18973160D02*
X13704796Y-18982684D01*
X13704796Y-18982684D02*
X13685748Y-18982684D01*
X13685748Y-18982684D02*
X13666701Y-18973160D01*
X13666701Y-18973160D02*
X13657177Y-18963636D01*
X13657177Y-18963636D02*
X13647653Y-18944589D01*
X13647653Y-18944589D02*
X13638129Y-18906493D01*
X13638129Y-18906493D02*
X13638129Y-18858874D01*
X13638129Y-18858874D02*
X13647653Y-18820779D01*
X13647653Y-18820779D02*
X13657177Y-18801731D01*
X13657177Y-18801731D02*
X13666701Y-18792208D01*
X13666701Y-18792208D02*
X13685748Y-18782684D01*
X13990510Y-18982684D02*
X13990510Y-18782684D01*
X14076225Y-18982684D02*
X14076225Y-18877922D01*
X14076225Y-18877922D02*
X14066701Y-18858874D01*
X14066701Y-18858874D02*
X14047653Y-18849350D01*
X14047653Y-18849350D02*
X14019082Y-18849350D01*
X14019082Y-18849350D02*
X14000034Y-18858874D01*
X14000034Y-18858874D02*
X13990510Y-18868398D01*
X14200034Y-18982684D02*
X14180987Y-18973160D01*
X14180987Y-18973160D02*
X14171463Y-18963636D01*
X14171463Y-18963636D02*
X14161939Y-18944589D01*
X14161939Y-18944589D02*
X14161939Y-18887446D01*
X14161939Y-18887446D02*
X14171463Y-18868398D01*
X14171463Y-18868398D02*
X14180987Y-18858874D01*
X14180987Y-18858874D02*
X14200034Y-18849350D01*
X14200034Y-18849350D02*
X14228606Y-18849350D01*
X14228606Y-18849350D02*
X14247653Y-18858874D01*
X14247653Y-18858874D02*
X14257177Y-18868398D01*
X14257177Y-18868398D02*
X14266701Y-18887446D01*
X14266701Y-18887446D02*
X14266701Y-18944589D01*
X14266701Y-18944589D02*
X14257177Y-18963636D01*
X14257177Y-18963636D02*
X14247653Y-18973160D01*
X14247653Y-18973160D02*
X14228606Y-18982684D01*
X14228606Y-18982684D02*
X14200034Y-18982684D01*
X14380987Y-18982684D02*
X14361939Y-18973160D01*
X14361939Y-18973160D02*
X14352415Y-18954112D01*
X14352415Y-18954112D02*
X14352415Y-18782684D01*
X14533368Y-18973160D02*
X14514320Y-18982684D01*
X14514320Y-18982684D02*
X14476225Y-18982684D01*
X14476225Y-18982684D02*
X14457177Y-18973160D01*
X14457177Y-18973160D02*
X14447653Y-18954112D01*
X14447653Y-18954112D02*
X14447653Y-18877922D01*
X14447653Y-18877922D02*
X14457177Y-18858874D01*
X14457177Y-18858874D02*
X14476225Y-18849350D01*
X14476225Y-18849350D02*
X14514320Y-18849350D01*
X14514320Y-18849350D02*
X14533368Y-18858874D01*
X14533368Y-18858874D02*
X14542891Y-18877922D01*
X14542891Y-18877922D02*
X14542891Y-18896970D01*
X14542891Y-18896970D02*
X14447653Y-18916017D01*
X14619082Y-18973160D02*
X14638130Y-18982684D01*
X14638130Y-18982684D02*
X14676225Y-18982684D01*
X14676225Y-18982684D02*
X14695272Y-18973160D01*
X14695272Y-18973160D02*
X14704796Y-18954112D01*
X14704796Y-18954112D02*
X14704796Y-18944589D01*
X14704796Y-18944589D02*
X14695272Y-18925541D01*
X14695272Y-18925541D02*
X14676225Y-18916017D01*
X14676225Y-18916017D02*
X14647653Y-18916017D01*
X14647653Y-18916017D02*
X14628606Y-18906493D01*
X14628606Y-18906493D02*
X14619082Y-18887446D01*
X14619082Y-18887446D02*
X14619082Y-18877922D01*
X14619082Y-18877922D02*
X14628606Y-18858874D01*
X14628606Y-18858874D02*
X14647653Y-18849350D01*
X14647653Y-18849350D02*
X14676225Y-18849350D01*
X14676225Y-18849350D02*
X14695272Y-18858874D01*
X14942892Y-18906493D02*
X15095273Y-18906493D01*
X15019082Y-18982684D02*
X15019082Y-18830303D01*
X15428606Y-18849350D02*
X15428606Y-18982684D01*
X15380987Y-18773160D02*
X15333368Y-18916017D01*
X15333368Y-18916017D02*
X15457177Y-18916017D01*
X15676225Y-18973160D02*
X15695273Y-18982684D01*
X15695273Y-18982684D02*
X15733368Y-18982684D01*
X15733368Y-18982684D02*
X15752415Y-18973160D01*
X15752415Y-18973160D02*
X15761939Y-18954112D01*
X15761939Y-18954112D02*
X15761939Y-18944589D01*
X15761939Y-18944589D02*
X15752415Y-18925541D01*
X15752415Y-18925541D02*
X15733368Y-18916017D01*
X15733368Y-18916017D02*
X15704796Y-18916017D01*
X15704796Y-18916017D02*
X15685749Y-18906493D01*
X15685749Y-18906493D02*
X15676225Y-18887446D01*
X15676225Y-18887446D02*
X15676225Y-18877922D01*
X15676225Y-18877922D02*
X15685749Y-18858874D01*
X15685749Y-18858874D02*
X15704796Y-18849350D01*
X15704796Y-18849350D02*
X15733368Y-18849350D01*
X15733368Y-18849350D02*
X15752415Y-18858874D01*
X15876225Y-18982684D02*
X15857177Y-18973160D01*
X15857177Y-18973160D02*
X15847654Y-18954112D01*
X15847654Y-18954112D02*
X15847654Y-18782684D01*
X15980987Y-18982684D02*
X15961939Y-18973160D01*
X15961939Y-18973160D02*
X15952415Y-18963636D01*
X15952415Y-18963636D02*
X15942892Y-18944589D01*
X15942892Y-18944589D02*
X15942892Y-18887446D01*
X15942892Y-18887446D02*
X15952415Y-18868398D01*
X15952415Y-18868398D02*
X15961939Y-18858874D01*
X15961939Y-18858874D02*
X15980987Y-18849350D01*
X15980987Y-18849350D02*
X16009558Y-18849350D01*
X16009558Y-18849350D02*
X16028606Y-18858874D01*
X16028606Y-18858874D02*
X16038130Y-18868398D01*
X16038130Y-18868398D02*
X16047654Y-18887446D01*
X16047654Y-18887446D02*
X16047654Y-18944589D01*
X16047654Y-18944589D02*
X16038130Y-18963636D01*
X16038130Y-18963636D02*
X16028606Y-18973160D01*
X16028606Y-18973160D02*
X16009558Y-18982684D01*
X16009558Y-18982684D02*
X15980987Y-18982684D01*
X16104796Y-18849350D02*
X16180987Y-18849350D01*
X16133368Y-18782684D02*
X16133368Y-18954112D01*
X16133368Y-18954112D02*
X16142892Y-18973160D01*
X16142892Y-18973160D02*
X16161939Y-18982684D01*
X16161939Y-18982684D02*
X16180987Y-18982684D01*
X16238130Y-18973160D02*
X16257177Y-18982684D01*
X16257177Y-18982684D02*
X16295273Y-18982684D01*
X16295273Y-18982684D02*
X16314320Y-18973160D01*
X16314320Y-18973160D02*
X16323844Y-18954112D01*
X16323844Y-18954112D02*
X16323844Y-18944589D01*
X16323844Y-18944589D02*
X16314320Y-18925541D01*
X16314320Y-18925541D02*
X16295273Y-18916017D01*
X16295273Y-18916017D02*
X16266701Y-18916017D01*
X16266701Y-18916017D02*
X16247654Y-18906493D01*
X16247654Y-18906493D02*
X16238130Y-18887446D01*
X16238130Y-18887446D02*
X16238130Y-18877922D01*
X16238130Y-18877922D02*
X16247654Y-18858874D01*
X16247654Y-18858874D02*
X16266701Y-18849350D01*
X16266701Y-18849350D02*
X16295273Y-18849350D01*
X16295273Y-18849350D02*
X16314320Y-18858874D01*
X16390511Y-19058874D02*
X16400035Y-19049350D01*
X16400035Y-19049350D02*
X16419082Y-19020779D01*
X16419082Y-19020779D02*
X16428606Y-19001731D01*
X16428606Y-19001731D02*
X16438130Y-18973160D01*
X16438130Y-18973160D02*
X16447654Y-18925541D01*
X16447654Y-18925541D02*
X16447654Y-18887446D01*
X16447654Y-18887446D02*
X16438130Y-18839827D01*
X16438130Y-18839827D02*
X16428606Y-18811255D01*
X16428606Y-18811255D02*
X16419082Y-18792208D01*
X16419082Y-18792208D02*
X16400035Y-18763636D01*
X16400035Y-18763636D02*
X16390511Y-18754112D01*
D10*
X9958900Y-19117700D02*
X9958900Y-19192700D01*
X9921400Y-19155200D02*
X9996400Y-19155200D01*
D11*
X10295272Y-19046684D02*
X10314320Y-19046684D01*
X10314320Y-19046684D02*
X10333367Y-19056208D01*
X10333367Y-19056208D02*
X10342891Y-19065731D01*
X10342891Y-19065731D02*
X10352415Y-19084779D01*
X10352415Y-19084779D02*
X10361939Y-19122874D01*
X10361939Y-19122874D02*
X10361939Y-19170493D01*
X10361939Y-19170493D02*
X10352415Y-19208589D01*
X10352415Y-19208589D02*
X10342891Y-19227636D01*
X10342891Y-19227636D02*
X10333367Y-19237160D01*
X10333367Y-19237160D02*
X10314320Y-19246684D01*
X10314320Y-19246684D02*
X10295272Y-19246684D01*
X10295272Y-19246684D02*
X10276224Y-19237160D01*
X10276224Y-19237160D02*
X10266701Y-19227636D01*
X10266701Y-19227636D02*
X10257177Y-19208589D01*
X10257177Y-19208589D02*
X10247653Y-19170493D01*
X10247653Y-19170493D02*
X10247653Y-19122874D01*
X10247653Y-19122874D02*
X10257177Y-19084779D01*
X10257177Y-19084779D02*
X10266701Y-19065731D01*
X10266701Y-19065731D02*
X10276224Y-19056208D01*
X10276224Y-19056208D02*
X10295272Y-19046684D01*
X10447653Y-19227636D02*
X10457177Y-19237160D01*
X10457177Y-19237160D02*
X10447653Y-19246684D01*
X10447653Y-19246684D02*
X10438129Y-19237160D01*
X10438129Y-19237160D02*
X10447653Y-19227636D01*
X10447653Y-19227636D02*
X10447653Y-19246684D01*
X10523844Y-19046684D02*
X10657177Y-19046684D01*
X10657177Y-19046684D02*
X10571463Y-19246684D01*
X10828605Y-19046684D02*
X10733367Y-19046684D01*
X10733367Y-19046684D02*
X10723844Y-19141922D01*
X10723844Y-19141922D02*
X10733367Y-19132398D01*
X10733367Y-19132398D02*
X10752415Y-19122874D01*
X10752415Y-19122874D02*
X10800034Y-19122874D01*
X10800034Y-19122874D02*
X10819082Y-19132398D01*
X10819082Y-19132398D02*
X10828605Y-19141922D01*
X10828605Y-19141922D02*
X10838129Y-19160970D01*
X10838129Y-19160970D02*
X10838129Y-19208589D01*
X10838129Y-19208589D02*
X10828605Y-19227636D01*
X10828605Y-19227636D02*
X10819082Y-19237160D01*
X10819082Y-19237160D02*
X10800034Y-19246684D01*
X10800034Y-19246684D02*
X10752415Y-19246684D01*
X10752415Y-19246684D02*
X10733367Y-19237160D01*
X10733367Y-19237160D02*
X10723844Y-19227636D01*
X10961939Y-19046684D02*
X10980986Y-19046684D01*
X10980986Y-19046684D02*
X11000034Y-19056208D01*
X11000034Y-19056208D02*
X11009558Y-19065731D01*
X11009558Y-19065731D02*
X11019082Y-19084779D01*
X11019082Y-19084779D02*
X11028605Y-19122874D01*
X11028605Y-19122874D02*
X11028605Y-19170493D01*
X11028605Y-19170493D02*
X11019082Y-19208589D01*
X11019082Y-19208589D02*
X11009558Y-19227636D01*
X11009558Y-19227636D02*
X11000034Y-19237160D01*
X11000034Y-19237160D02*
X10980986Y-19246684D01*
X10980986Y-19246684D02*
X10961939Y-19246684D01*
X10961939Y-19246684D02*
X10942891Y-19237160D01*
X10942891Y-19237160D02*
X10933367Y-19227636D01*
X10933367Y-19227636D02*
X10923844Y-19208589D01*
X10923844Y-19208589D02*
X10914320Y-19170493D01*
X10914320Y-19170493D02*
X10914320Y-19122874D01*
X10914320Y-19122874D02*
X10923844Y-19084779D01*
X10923844Y-19084779D02*
X10933367Y-19065731D01*
X10933367Y-19065731D02*
X10942891Y-19056208D01*
X10942891Y-19056208D02*
X10961939Y-19046684D01*
X11114320Y-19246684D02*
X11114320Y-19113350D01*
X11114320Y-19132398D02*
X11123844Y-19122874D01*
X11123844Y-19122874D02*
X11142891Y-19113350D01*
X11142891Y-19113350D02*
X11171463Y-19113350D01*
X11171463Y-19113350D02*
X11190510Y-19122874D01*
X11190510Y-19122874D02*
X11200034Y-19141922D01*
X11200034Y-19141922D02*
X11200034Y-19246684D01*
X11200034Y-19141922D02*
X11209558Y-19122874D01*
X11209558Y-19122874D02*
X11228605Y-19113350D01*
X11228605Y-19113350D02*
X11257177Y-19113350D01*
X11257177Y-19113350D02*
X11276224Y-19122874D01*
X11276224Y-19122874D02*
X11285748Y-19141922D01*
X11285748Y-19141922D02*
X11285748Y-19246684D01*
X11380986Y-19246684D02*
X11380986Y-19113350D01*
X11380986Y-19132398D02*
X11390510Y-19122874D01*
X11390510Y-19122874D02*
X11409558Y-19113350D01*
X11409558Y-19113350D02*
X11438129Y-19113350D01*
X11438129Y-19113350D02*
X11457177Y-19122874D01*
X11457177Y-19122874D02*
X11466701Y-19141922D01*
X11466701Y-19141922D02*
X11466701Y-19246684D01*
X11466701Y-19141922D02*
X11476224Y-19122874D01*
X11476224Y-19122874D02*
X11495272Y-19113350D01*
X11495272Y-19113350D02*
X11523843Y-19113350D01*
X11523843Y-19113350D02*
X11542891Y-19122874D01*
X11542891Y-19122874D02*
X11552415Y-19141922D01*
X11552415Y-19141922D02*
X11552415Y-19246684D01*
X11942891Y-19037160D02*
X11771463Y-19294303D01*
X12200034Y-19046684D02*
X12219082Y-19046684D01*
X12219082Y-19046684D02*
X12238129Y-19056208D01*
X12238129Y-19056208D02*
X12247653Y-19065731D01*
X12247653Y-19065731D02*
X12257177Y-19084779D01*
X12257177Y-19084779D02*
X12266701Y-19122874D01*
X12266701Y-19122874D02*
X12266701Y-19170493D01*
X12266701Y-19170493D02*
X12257177Y-19208589D01*
X12257177Y-19208589D02*
X12247653Y-19227636D01*
X12247653Y-19227636D02*
X12238129Y-19237160D01*
X12238129Y-19237160D02*
X12219082Y-19246684D01*
X12219082Y-19246684D02*
X12200034Y-19246684D01*
X12200034Y-19246684D02*
X12180986Y-19237160D01*
X12180986Y-19237160D02*
X12171463Y-19227636D01*
X12171463Y-19227636D02*
X12161939Y-19208589D01*
X12161939Y-19208589D02*
X12152415Y-19170493D01*
X12152415Y-19170493D02*
X12152415Y-19122874D01*
X12152415Y-19122874D02*
X12161939Y-19084779D01*
X12161939Y-19084779D02*
X12171463Y-19065731D01*
X12171463Y-19065731D02*
X12180986Y-19056208D01*
X12180986Y-19056208D02*
X12200034Y-19046684D01*
X12352415Y-19227636D02*
X12361939Y-19237160D01*
X12361939Y-19237160D02*
X12352415Y-19246684D01*
X12352415Y-19246684D02*
X12342891Y-19237160D01*
X12342891Y-19237160D02*
X12352415Y-19227636D01*
X12352415Y-19227636D02*
X12352415Y-19246684D01*
X12485748Y-19046684D02*
X12504796Y-19046684D01*
X12504796Y-19046684D02*
X12523844Y-19056208D01*
X12523844Y-19056208D02*
X12533367Y-19065731D01*
X12533367Y-19065731D02*
X12542891Y-19084779D01*
X12542891Y-19084779D02*
X12552415Y-19122874D01*
X12552415Y-19122874D02*
X12552415Y-19170493D01*
X12552415Y-19170493D02*
X12542891Y-19208589D01*
X12542891Y-19208589D02*
X12533367Y-19227636D01*
X12533367Y-19227636D02*
X12523844Y-19237160D01*
X12523844Y-19237160D02*
X12504796Y-19246684D01*
X12504796Y-19246684D02*
X12485748Y-19246684D01*
X12485748Y-19246684D02*
X12466701Y-19237160D01*
X12466701Y-19237160D02*
X12457177Y-19227636D01*
X12457177Y-19227636D02*
X12447653Y-19208589D01*
X12447653Y-19208589D02*
X12438129Y-19170493D01*
X12438129Y-19170493D02*
X12438129Y-19122874D01*
X12438129Y-19122874D02*
X12447653Y-19084779D01*
X12447653Y-19084779D02*
X12457177Y-19065731D01*
X12457177Y-19065731D02*
X12466701Y-19056208D01*
X12466701Y-19056208D02*
X12485748Y-19046684D01*
X12628606Y-19065731D02*
X12638129Y-19056208D01*
X12638129Y-19056208D02*
X12657177Y-19046684D01*
X12657177Y-19046684D02*
X12704796Y-19046684D01*
X12704796Y-19046684D02*
X12723844Y-19056208D01*
X12723844Y-19056208D02*
X12733367Y-19065731D01*
X12733367Y-19065731D02*
X12742891Y-19084779D01*
X12742891Y-19084779D02*
X12742891Y-19103827D01*
X12742891Y-19103827D02*
X12733367Y-19132398D01*
X12733367Y-19132398D02*
X12619082Y-19246684D01*
X12619082Y-19246684D02*
X12742891Y-19246684D01*
X12838129Y-19246684D02*
X12876225Y-19246684D01*
X12876225Y-19246684D02*
X12895272Y-19237160D01*
X12895272Y-19237160D02*
X12904796Y-19227636D01*
X12904796Y-19227636D02*
X12923844Y-19199065D01*
X12923844Y-19199065D02*
X12933367Y-19160970D01*
X12933367Y-19160970D02*
X12933367Y-19084779D01*
X12933367Y-19084779D02*
X12923844Y-19065731D01*
X12923844Y-19065731D02*
X12914320Y-19056208D01*
X12914320Y-19056208D02*
X12895272Y-19046684D01*
X12895272Y-19046684D02*
X12857177Y-19046684D01*
X12857177Y-19046684D02*
X12838129Y-19056208D01*
X12838129Y-19056208D02*
X12828606Y-19065731D01*
X12828606Y-19065731D02*
X12819082Y-19084779D01*
X12819082Y-19084779D02*
X12819082Y-19132398D01*
X12819082Y-19132398D02*
X12828606Y-19151446D01*
X12828606Y-19151446D02*
X12838129Y-19160970D01*
X12838129Y-19160970D02*
X12857177Y-19170493D01*
X12857177Y-19170493D02*
X12895272Y-19170493D01*
X12895272Y-19170493D02*
X12914320Y-19160970D01*
X12914320Y-19160970D02*
X12923844Y-19151446D01*
X12923844Y-19151446D02*
X12933367Y-19132398D01*
X13114320Y-19046684D02*
X13019082Y-19046684D01*
X13019082Y-19046684D02*
X13009558Y-19141922D01*
X13009558Y-19141922D02*
X13019082Y-19132398D01*
X13019082Y-19132398D02*
X13038129Y-19122874D01*
X13038129Y-19122874D02*
X13085748Y-19122874D01*
X13085748Y-19122874D02*
X13104796Y-19132398D01*
X13104796Y-19132398D02*
X13114320Y-19141922D01*
X13114320Y-19141922D02*
X13123844Y-19160970D01*
X13123844Y-19160970D02*
X13123844Y-19208589D01*
X13123844Y-19208589D02*
X13114320Y-19227636D01*
X13114320Y-19227636D02*
X13104796Y-19237160D01*
X13104796Y-19237160D02*
X13085748Y-19246684D01*
X13085748Y-19246684D02*
X13038129Y-19246684D01*
X13038129Y-19246684D02*
X13019082Y-19237160D01*
X13019082Y-19237160D02*
X13009558Y-19227636D01*
X13200034Y-19046684D02*
X13200034Y-19084779D01*
X13276225Y-19046684D02*
X13276225Y-19084779D01*
X13571463Y-19322874D02*
X13561939Y-19313350D01*
X13561939Y-19313350D02*
X13542891Y-19284779D01*
X13542891Y-19284779D02*
X13533368Y-19265731D01*
X13533368Y-19265731D02*
X13523844Y-19237160D01*
X13523844Y-19237160D02*
X13514320Y-19189541D01*
X13514320Y-19189541D02*
X13514320Y-19151446D01*
X13514320Y-19151446D02*
X13523844Y-19103827D01*
X13523844Y-19103827D02*
X13533368Y-19075255D01*
X13533368Y-19075255D02*
X13542891Y-19056208D01*
X13542891Y-19056208D02*
X13561939Y-19027636D01*
X13561939Y-19027636D02*
X13571463Y-19018112D01*
X13638129Y-19065731D02*
X13647653Y-19056208D01*
X13647653Y-19056208D02*
X13666701Y-19046684D01*
X13666701Y-19046684D02*
X13714320Y-19046684D01*
X13714320Y-19046684D02*
X13733368Y-19056208D01*
X13733368Y-19056208D02*
X13742891Y-19065731D01*
X13742891Y-19065731D02*
X13752415Y-19084779D01*
X13752415Y-19084779D02*
X13752415Y-19103827D01*
X13752415Y-19103827D02*
X13742891Y-19132398D01*
X13742891Y-19132398D02*
X13628606Y-19246684D01*
X13628606Y-19246684D02*
X13752415Y-19246684D01*
X13990510Y-19246684D02*
X13990510Y-19046684D01*
X14076225Y-19246684D02*
X14076225Y-19141922D01*
X14076225Y-19141922D02*
X14066701Y-19122874D01*
X14066701Y-19122874D02*
X14047653Y-19113350D01*
X14047653Y-19113350D02*
X14019082Y-19113350D01*
X14019082Y-19113350D02*
X14000034Y-19122874D01*
X14000034Y-19122874D02*
X13990510Y-19132398D01*
X14200034Y-19246684D02*
X14180987Y-19237160D01*
X14180987Y-19237160D02*
X14171463Y-19227636D01*
X14171463Y-19227636D02*
X14161939Y-19208589D01*
X14161939Y-19208589D02*
X14161939Y-19151446D01*
X14161939Y-19151446D02*
X14171463Y-19132398D01*
X14171463Y-19132398D02*
X14180987Y-19122874D01*
X14180987Y-19122874D02*
X14200034Y-19113350D01*
X14200034Y-19113350D02*
X14228606Y-19113350D01*
X14228606Y-19113350D02*
X14247653Y-19122874D01*
X14247653Y-19122874D02*
X14257177Y-19132398D01*
X14257177Y-19132398D02*
X14266701Y-19151446D01*
X14266701Y-19151446D02*
X14266701Y-19208589D01*
X14266701Y-19208589D02*
X14257177Y-19227636D01*
X14257177Y-19227636D02*
X14247653Y-19237160D01*
X14247653Y-19237160D02*
X14228606Y-19246684D01*
X14228606Y-19246684D02*
X14200034Y-19246684D01*
X14380987Y-19246684D02*
X14361939Y-19237160D01*
X14361939Y-19237160D02*
X14352415Y-19218112D01*
X14352415Y-19218112D02*
X14352415Y-19046684D01*
X14533368Y-19237160D02*
X14514320Y-19246684D01*
X14514320Y-19246684D02*
X14476225Y-19246684D01*
X14476225Y-19246684D02*
X14457177Y-19237160D01*
X14457177Y-19237160D02*
X14447653Y-19218112D01*
X14447653Y-19218112D02*
X14447653Y-19141922D01*
X14447653Y-19141922D02*
X14457177Y-19122874D01*
X14457177Y-19122874D02*
X14476225Y-19113350D01*
X14476225Y-19113350D02*
X14514320Y-19113350D01*
X14514320Y-19113350D02*
X14533368Y-19122874D01*
X14533368Y-19122874D02*
X14542891Y-19141922D01*
X14542891Y-19141922D02*
X14542891Y-19160970D01*
X14542891Y-19160970D02*
X14447653Y-19180017D01*
X14619082Y-19237160D02*
X14638130Y-19246684D01*
X14638130Y-19246684D02*
X14676225Y-19246684D01*
X14676225Y-19246684D02*
X14695272Y-19237160D01*
X14695272Y-19237160D02*
X14704796Y-19218112D01*
X14704796Y-19218112D02*
X14704796Y-19208589D01*
X14704796Y-19208589D02*
X14695272Y-19189541D01*
X14695272Y-19189541D02*
X14676225Y-19180017D01*
X14676225Y-19180017D02*
X14647653Y-19180017D01*
X14647653Y-19180017D02*
X14628606Y-19170493D01*
X14628606Y-19170493D02*
X14619082Y-19151446D01*
X14619082Y-19151446D02*
X14619082Y-19141922D01*
X14619082Y-19141922D02*
X14628606Y-19122874D01*
X14628606Y-19122874D02*
X14647653Y-19113350D01*
X14647653Y-19113350D02*
X14676225Y-19113350D01*
X14676225Y-19113350D02*
X14695272Y-19122874D01*
X14771463Y-19322874D02*
X14780987Y-19313350D01*
X14780987Y-19313350D02*
X14800034Y-19284779D01*
X14800034Y-19284779D02*
X14809558Y-19265731D01*
X14809558Y-19265731D02*
X14819082Y-19237160D01*
X14819082Y-19237160D02*
X14828606Y-19189541D01*
X14828606Y-19189541D02*
X14828606Y-19151446D01*
X14828606Y-19151446D02*
X14819082Y-19103827D01*
X14819082Y-19103827D02*
X14809558Y-19075255D01*
X14809558Y-19075255D02*
X14800034Y-19056208D01*
X14800034Y-19056208D02*
X14780987Y-19027636D01*
X14780987Y-19027636D02*
X14771463Y-19018112D01*
D10*
X9983952Y-19449252D02*
X9983952Y-19389148D01*
X9923848Y-19389148D01*
X9923848Y-19449252D01*
X9983952Y-19449252D01*
D11*
X10295272Y-19310684D02*
X10314320Y-19310684D01*
X10314320Y-19310684D02*
X10333367Y-19320208D01*
X10333367Y-19320208D02*
X10342891Y-19329731D01*
X10342891Y-19329731D02*
X10352415Y-19348779D01*
X10352415Y-19348779D02*
X10361939Y-19386874D01*
X10361939Y-19386874D02*
X10361939Y-19434493D01*
X10361939Y-19434493D02*
X10352415Y-19472589D01*
X10352415Y-19472589D02*
X10342891Y-19491636D01*
X10342891Y-19491636D02*
X10333367Y-19501160D01*
X10333367Y-19501160D02*
X10314320Y-19510684D01*
X10314320Y-19510684D02*
X10295272Y-19510684D01*
X10295272Y-19510684D02*
X10276224Y-19501160D01*
X10276224Y-19501160D02*
X10266701Y-19491636D01*
X10266701Y-19491636D02*
X10257177Y-19472589D01*
X10257177Y-19472589D02*
X10247653Y-19434493D01*
X10247653Y-19434493D02*
X10247653Y-19386874D01*
X10247653Y-19386874D02*
X10257177Y-19348779D01*
X10257177Y-19348779D02*
X10266701Y-19329731D01*
X10266701Y-19329731D02*
X10276224Y-19320208D01*
X10276224Y-19320208D02*
X10295272Y-19310684D01*
X10447653Y-19491636D02*
X10457177Y-19501160D01*
X10457177Y-19501160D02*
X10447653Y-19510684D01*
X10447653Y-19510684D02*
X10438129Y-19501160D01*
X10438129Y-19501160D02*
X10447653Y-19491636D01*
X10447653Y-19491636D02*
X10447653Y-19510684D01*
X10571463Y-19396398D02*
X10552415Y-19386874D01*
X10552415Y-19386874D02*
X10542891Y-19377350D01*
X10542891Y-19377350D02*
X10533367Y-19358303D01*
X10533367Y-19358303D02*
X10533367Y-19348779D01*
X10533367Y-19348779D02*
X10542891Y-19329731D01*
X10542891Y-19329731D02*
X10552415Y-19320208D01*
X10552415Y-19320208D02*
X10571463Y-19310684D01*
X10571463Y-19310684D02*
X10609558Y-19310684D01*
X10609558Y-19310684D02*
X10628605Y-19320208D01*
X10628605Y-19320208D02*
X10638129Y-19329731D01*
X10638129Y-19329731D02*
X10647653Y-19348779D01*
X10647653Y-19348779D02*
X10647653Y-19358303D01*
X10647653Y-19358303D02*
X10638129Y-19377350D01*
X10638129Y-19377350D02*
X10628605Y-19386874D01*
X10628605Y-19386874D02*
X10609558Y-19396398D01*
X10609558Y-19396398D02*
X10571463Y-19396398D01*
X10571463Y-19396398D02*
X10552415Y-19405922D01*
X10552415Y-19405922D02*
X10542891Y-19415446D01*
X10542891Y-19415446D02*
X10533367Y-19434493D01*
X10533367Y-19434493D02*
X10533367Y-19472589D01*
X10533367Y-19472589D02*
X10542891Y-19491636D01*
X10542891Y-19491636D02*
X10552415Y-19501160D01*
X10552415Y-19501160D02*
X10571463Y-19510684D01*
X10571463Y-19510684D02*
X10609558Y-19510684D01*
X10609558Y-19510684D02*
X10628605Y-19501160D01*
X10628605Y-19501160D02*
X10638129Y-19491636D01*
X10638129Y-19491636D02*
X10647653Y-19472589D01*
X10647653Y-19472589D02*
X10647653Y-19434493D01*
X10647653Y-19434493D02*
X10638129Y-19415446D01*
X10638129Y-19415446D02*
X10628605Y-19405922D01*
X10628605Y-19405922D02*
X10609558Y-19396398D01*
X10828605Y-19310684D02*
X10733367Y-19310684D01*
X10733367Y-19310684D02*
X10723844Y-19405922D01*
X10723844Y-19405922D02*
X10733367Y-19396398D01*
X10733367Y-19396398D02*
X10752415Y-19386874D01*
X10752415Y-19386874D02*
X10800034Y-19386874D01*
X10800034Y-19386874D02*
X10819082Y-19396398D01*
X10819082Y-19396398D02*
X10828605Y-19405922D01*
X10828605Y-19405922D02*
X10838129Y-19424970D01*
X10838129Y-19424970D02*
X10838129Y-19472589D01*
X10838129Y-19472589D02*
X10828605Y-19491636D01*
X10828605Y-19491636D02*
X10819082Y-19501160D01*
X10819082Y-19501160D02*
X10800034Y-19510684D01*
X10800034Y-19510684D02*
X10752415Y-19510684D01*
X10752415Y-19510684D02*
X10733367Y-19501160D01*
X10733367Y-19501160D02*
X10723844Y-19491636D01*
X10961939Y-19310684D02*
X10980986Y-19310684D01*
X10980986Y-19310684D02*
X11000034Y-19320208D01*
X11000034Y-19320208D02*
X11009558Y-19329731D01*
X11009558Y-19329731D02*
X11019082Y-19348779D01*
X11019082Y-19348779D02*
X11028605Y-19386874D01*
X11028605Y-19386874D02*
X11028605Y-19434493D01*
X11028605Y-19434493D02*
X11019082Y-19472589D01*
X11019082Y-19472589D02*
X11009558Y-19491636D01*
X11009558Y-19491636D02*
X11000034Y-19501160D01*
X11000034Y-19501160D02*
X10980986Y-19510684D01*
X10980986Y-19510684D02*
X10961939Y-19510684D01*
X10961939Y-19510684D02*
X10942891Y-19501160D01*
X10942891Y-19501160D02*
X10933367Y-19491636D01*
X10933367Y-19491636D02*
X10923844Y-19472589D01*
X10923844Y-19472589D02*
X10914320Y-19434493D01*
X10914320Y-19434493D02*
X10914320Y-19386874D01*
X10914320Y-19386874D02*
X10923844Y-19348779D01*
X10923844Y-19348779D02*
X10933367Y-19329731D01*
X10933367Y-19329731D02*
X10942891Y-19320208D01*
X10942891Y-19320208D02*
X10961939Y-19310684D01*
X11114320Y-19510684D02*
X11114320Y-19377350D01*
X11114320Y-19396398D02*
X11123844Y-19386874D01*
X11123844Y-19386874D02*
X11142891Y-19377350D01*
X11142891Y-19377350D02*
X11171463Y-19377350D01*
X11171463Y-19377350D02*
X11190510Y-19386874D01*
X11190510Y-19386874D02*
X11200034Y-19405922D01*
X11200034Y-19405922D02*
X11200034Y-19510684D01*
X11200034Y-19405922D02*
X11209558Y-19386874D01*
X11209558Y-19386874D02*
X11228605Y-19377350D01*
X11228605Y-19377350D02*
X11257177Y-19377350D01*
X11257177Y-19377350D02*
X11276224Y-19386874D01*
X11276224Y-19386874D02*
X11285748Y-19405922D01*
X11285748Y-19405922D02*
X11285748Y-19510684D01*
X11380986Y-19510684D02*
X11380986Y-19377350D01*
X11380986Y-19396398D02*
X11390510Y-19386874D01*
X11390510Y-19386874D02*
X11409558Y-19377350D01*
X11409558Y-19377350D02*
X11438129Y-19377350D01*
X11438129Y-19377350D02*
X11457177Y-19386874D01*
X11457177Y-19386874D02*
X11466701Y-19405922D01*
X11466701Y-19405922D02*
X11466701Y-19510684D01*
X11466701Y-19405922D02*
X11476224Y-19386874D01*
X11476224Y-19386874D02*
X11495272Y-19377350D01*
X11495272Y-19377350D02*
X11523843Y-19377350D01*
X11523843Y-19377350D02*
X11542891Y-19386874D01*
X11542891Y-19386874D02*
X11552415Y-19405922D01*
X11552415Y-19405922D02*
X11552415Y-19510684D01*
X11942891Y-19301160D02*
X11771463Y-19558303D01*
X12200034Y-19310684D02*
X12219082Y-19310684D01*
X12219082Y-19310684D02*
X12238129Y-19320208D01*
X12238129Y-19320208D02*
X12247653Y-19329731D01*
X12247653Y-19329731D02*
X12257177Y-19348779D01*
X12257177Y-19348779D02*
X12266701Y-19386874D01*
X12266701Y-19386874D02*
X12266701Y-19434493D01*
X12266701Y-19434493D02*
X12257177Y-19472589D01*
X12257177Y-19472589D02*
X12247653Y-19491636D01*
X12247653Y-19491636D02*
X12238129Y-19501160D01*
X12238129Y-19501160D02*
X12219082Y-19510684D01*
X12219082Y-19510684D02*
X12200034Y-19510684D01*
X12200034Y-19510684D02*
X12180986Y-19501160D01*
X12180986Y-19501160D02*
X12171463Y-19491636D01*
X12171463Y-19491636D02*
X12161939Y-19472589D01*
X12161939Y-19472589D02*
X12152415Y-19434493D01*
X12152415Y-19434493D02*
X12152415Y-19386874D01*
X12152415Y-19386874D02*
X12161939Y-19348779D01*
X12161939Y-19348779D02*
X12171463Y-19329731D01*
X12171463Y-19329731D02*
X12180986Y-19320208D01*
X12180986Y-19320208D02*
X12200034Y-19310684D01*
X12352415Y-19491636D02*
X12361939Y-19501160D01*
X12361939Y-19501160D02*
X12352415Y-19510684D01*
X12352415Y-19510684D02*
X12342891Y-19501160D01*
X12342891Y-19501160D02*
X12352415Y-19491636D01*
X12352415Y-19491636D02*
X12352415Y-19510684D01*
X12485748Y-19310684D02*
X12504796Y-19310684D01*
X12504796Y-19310684D02*
X12523844Y-19320208D01*
X12523844Y-19320208D02*
X12533367Y-19329731D01*
X12533367Y-19329731D02*
X12542891Y-19348779D01*
X12542891Y-19348779D02*
X12552415Y-19386874D01*
X12552415Y-19386874D02*
X12552415Y-19434493D01*
X12552415Y-19434493D02*
X12542891Y-19472589D01*
X12542891Y-19472589D02*
X12533367Y-19491636D01*
X12533367Y-19491636D02*
X12523844Y-19501160D01*
X12523844Y-19501160D02*
X12504796Y-19510684D01*
X12504796Y-19510684D02*
X12485748Y-19510684D01*
X12485748Y-19510684D02*
X12466701Y-19501160D01*
X12466701Y-19501160D02*
X12457177Y-19491636D01*
X12457177Y-19491636D02*
X12447653Y-19472589D01*
X12447653Y-19472589D02*
X12438129Y-19434493D01*
X12438129Y-19434493D02*
X12438129Y-19386874D01*
X12438129Y-19386874D02*
X12447653Y-19348779D01*
X12447653Y-19348779D02*
X12457177Y-19329731D01*
X12457177Y-19329731D02*
X12466701Y-19320208D01*
X12466701Y-19320208D02*
X12485748Y-19310684D01*
X12619082Y-19310684D02*
X12742891Y-19310684D01*
X12742891Y-19310684D02*
X12676225Y-19386874D01*
X12676225Y-19386874D02*
X12704796Y-19386874D01*
X12704796Y-19386874D02*
X12723844Y-19396398D01*
X12723844Y-19396398D02*
X12733367Y-19405922D01*
X12733367Y-19405922D02*
X12742891Y-19424970D01*
X12742891Y-19424970D02*
X12742891Y-19472589D01*
X12742891Y-19472589D02*
X12733367Y-19491636D01*
X12733367Y-19491636D02*
X12723844Y-19501160D01*
X12723844Y-19501160D02*
X12704796Y-19510684D01*
X12704796Y-19510684D02*
X12647653Y-19510684D01*
X12647653Y-19510684D02*
X12628606Y-19501160D01*
X12628606Y-19501160D02*
X12619082Y-19491636D01*
X12809558Y-19310684D02*
X12933367Y-19310684D01*
X12933367Y-19310684D02*
X12866701Y-19386874D01*
X12866701Y-19386874D02*
X12895272Y-19386874D01*
X12895272Y-19386874D02*
X12914320Y-19396398D01*
X12914320Y-19396398D02*
X12923844Y-19405922D01*
X12923844Y-19405922D02*
X12933367Y-19424970D01*
X12933367Y-19424970D02*
X12933367Y-19472589D01*
X12933367Y-19472589D02*
X12923844Y-19491636D01*
X12923844Y-19491636D02*
X12914320Y-19501160D01*
X12914320Y-19501160D02*
X12895272Y-19510684D01*
X12895272Y-19510684D02*
X12838129Y-19510684D01*
X12838129Y-19510684D02*
X12819082Y-19501160D01*
X12819082Y-19501160D02*
X12809558Y-19491636D01*
X13114320Y-19310684D02*
X13019082Y-19310684D01*
X13019082Y-19310684D02*
X13009558Y-19405922D01*
X13009558Y-19405922D02*
X13019082Y-19396398D01*
X13019082Y-19396398D02*
X13038129Y-19386874D01*
X13038129Y-19386874D02*
X13085748Y-19386874D01*
X13085748Y-19386874D02*
X13104796Y-19396398D01*
X13104796Y-19396398D02*
X13114320Y-19405922D01*
X13114320Y-19405922D02*
X13123844Y-19424970D01*
X13123844Y-19424970D02*
X13123844Y-19472589D01*
X13123844Y-19472589D02*
X13114320Y-19491636D01*
X13114320Y-19491636D02*
X13104796Y-19501160D01*
X13104796Y-19501160D02*
X13085748Y-19510684D01*
X13085748Y-19510684D02*
X13038129Y-19510684D01*
X13038129Y-19510684D02*
X13019082Y-19501160D01*
X13019082Y-19501160D02*
X13009558Y-19491636D01*
X13200034Y-19310684D02*
X13200034Y-19348779D01*
X13276225Y-19310684D02*
X13276225Y-19348779D01*
X13571463Y-19586874D02*
X13561939Y-19577350D01*
X13561939Y-19577350D02*
X13542891Y-19548779D01*
X13542891Y-19548779D02*
X13533368Y-19529731D01*
X13533368Y-19529731D02*
X13523844Y-19501160D01*
X13523844Y-19501160D02*
X13514320Y-19453541D01*
X13514320Y-19453541D02*
X13514320Y-19415446D01*
X13514320Y-19415446D02*
X13523844Y-19367827D01*
X13523844Y-19367827D02*
X13533368Y-19339255D01*
X13533368Y-19339255D02*
X13542891Y-19320208D01*
X13542891Y-19320208D02*
X13561939Y-19291636D01*
X13561939Y-19291636D02*
X13571463Y-19282112D01*
X13638129Y-19329731D02*
X13647653Y-19320208D01*
X13647653Y-19320208D02*
X13666701Y-19310684D01*
X13666701Y-19310684D02*
X13714320Y-19310684D01*
X13714320Y-19310684D02*
X13733368Y-19320208D01*
X13733368Y-19320208D02*
X13742891Y-19329731D01*
X13742891Y-19329731D02*
X13752415Y-19348779D01*
X13752415Y-19348779D02*
X13752415Y-19367827D01*
X13752415Y-19367827D02*
X13742891Y-19396398D01*
X13742891Y-19396398D02*
X13628606Y-19510684D01*
X13628606Y-19510684D02*
X13752415Y-19510684D01*
X13990510Y-19510684D02*
X13990510Y-19310684D01*
X14076225Y-19510684D02*
X14076225Y-19405922D01*
X14076225Y-19405922D02*
X14066701Y-19386874D01*
X14066701Y-19386874D02*
X14047653Y-19377350D01*
X14047653Y-19377350D02*
X14019082Y-19377350D01*
X14019082Y-19377350D02*
X14000034Y-19386874D01*
X14000034Y-19386874D02*
X13990510Y-19396398D01*
X14200034Y-19510684D02*
X14180987Y-19501160D01*
X14180987Y-19501160D02*
X14171463Y-19491636D01*
X14171463Y-19491636D02*
X14161939Y-19472589D01*
X14161939Y-19472589D02*
X14161939Y-19415446D01*
X14161939Y-19415446D02*
X14171463Y-19396398D01*
X14171463Y-19396398D02*
X14180987Y-19386874D01*
X14180987Y-19386874D02*
X14200034Y-19377350D01*
X14200034Y-19377350D02*
X14228606Y-19377350D01*
X14228606Y-19377350D02*
X14247653Y-19386874D01*
X14247653Y-19386874D02*
X14257177Y-19396398D01*
X14257177Y-19396398D02*
X14266701Y-19415446D01*
X14266701Y-19415446D02*
X14266701Y-19472589D01*
X14266701Y-19472589D02*
X14257177Y-19491636D01*
X14257177Y-19491636D02*
X14247653Y-19501160D01*
X14247653Y-19501160D02*
X14228606Y-19510684D01*
X14228606Y-19510684D02*
X14200034Y-19510684D01*
X14380987Y-19510684D02*
X14361939Y-19501160D01*
X14361939Y-19501160D02*
X14352415Y-19482112D01*
X14352415Y-19482112D02*
X14352415Y-19310684D01*
X14533368Y-19501160D02*
X14514320Y-19510684D01*
X14514320Y-19510684D02*
X14476225Y-19510684D01*
X14476225Y-19510684D02*
X14457177Y-19501160D01*
X14457177Y-19501160D02*
X14447653Y-19482112D01*
X14447653Y-19482112D02*
X14447653Y-19405922D01*
X14447653Y-19405922D02*
X14457177Y-19386874D01*
X14457177Y-19386874D02*
X14476225Y-19377350D01*
X14476225Y-19377350D02*
X14514320Y-19377350D01*
X14514320Y-19377350D02*
X14533368Y-19386874D01*
X14533368Y-19386874D02*
X14542891Y-19405922D01*
X14542891Y-19405922D02*
X14542891Y-19424970D01*
X14542891Y-19424970D02*
X14447653Y-19444017D01*
X14619082Y-19501160D02*
X14638130Y-19510684D01*
X14638130Y-19510684D02*
X14676225Y-19510684D01*
X14676225Y-19510684D02*
X14695272Y-19501160D01*
X14695272Y-19501160D02*
X14704796Y-19482112D01*
X14704796Y-19482112D02*
X14704796Y-19472589D01*
X14704796Y-19472589D02*
X14695272Y-19453541D01*
X14695272Y-19453541D02*
X14676225Y-19444017D01*
X14676225Y-19444017D02*
X14647653Y-19444017D01*
X14647653Y-19444017D02*
X14628606Y-19434493D01*
X14628606Y-19434493D02*
X14619082Y-19415446D01*
X14619082Y-19415446D02*
X14619082Y-19405922D01*
X14619082Y-19405922D02*
X14628606Y-19386874D01*
X14628606Y-19386874D02*
X14647653Y-19377350D01*
X14647653Y-19377350D02*
X14676225Y-19377350D01*
X14676225Y-19377350D02*
X14695272Y-19386874D01*
X14771463Y-19586874D02*
X14780987Y-19577350D01*
X14780987Y-19577350D02*
X14800034Y-19548779D01*
X14800034Y-19548779D02*
X14809558Y-19529731D01*
X14809558Y-19529731D02*
X14819082Y-19501160D01*
X14819082Y-19501160D02*
X14828606Y-19453541D01*
X14828606Y-19453541D02*
X14828606Y-19415446D01*
X14828606Y-19415446D02*
X14819082Y-19367827D01*
X14819082Y-19367827D02*
X14809558Y-19339255D01*
X14809558Y-19339255D02*
X14800034Y-19320208D01*
X14800034Y-19320208D02*
X14780987Y-19291636D01*
X14780987Y-19291636D02*
X14771463Y-19282112D01*
M02*
